<?xml version="1.0" encoding="utf-8"?>
<!-- Generator: Adobe Illustrator 12.0.1, SVG Export Plug-In . SVG Version: 6.00 Build 51448)  -->
<!DOCTYPE svg PUBLIC "-//W3C//DTD SVG 1.1//EN" "http://www.w3.org/Graphics/SVG/1.1/DTD/svg11.dtd" [
	<!ENTITY ns_svg "http://www.w3.org/2000/svg">
	<!ENTITY ns_xlink "http://www.w3.org/1999/xlink">
]>
<svg  version="1.1" id="Ebene_1" xmlns="&ns_svg;" xmlns:xlink="&ns_xlink;" width="534.421" height="526.169"
	 viewBox="0 0 534.421 526.169" overflow="visible" enable-background="new 0 0 534.421 526.169" xml:space="preserve">
<path id="curve28_2_" d="M177.333,173.559l25.714-75.774c0,0-51.429-51.027-69.574-68.986L161.081,0l5.566,0.658
	c17.031,1.97,34.174,7.007,49.871,14.563c15.697,7.446,30.28,17.302,42.302,29.127c14.137,14.016,24.825,28.58,31.727,44.785
	c6.901,16.425,9.685,34.275,8.014,54.423c-0.89,10.292-0.221,27.703,2.005,44.019c1.669,11.826,4.008,22.776,7.123,29.456
	l218.968,214.074c12.913,12.591,8.462,32.303-4.117,50.698c-4.343,6.351-9.797,12.591-15.809,18.396
	c-5.899,5.803-12.355,10.947-18.925,15.221c-18.366,11.717-37.625,15.549-49.982,2.846L217.075,292.147
	c-5.565-6.46-44.862-2.52-64.454-0.548c-3.896,0.438-7.236,0.767-8.126,0.876c-40.075,3.286-70.912-11.059-98.853-38.543
	c-27.385-26.938-44.75-66.249-45.529-104.354L0,142.898c11.355-6.023,22.598-12.046,33.953-17.958
	c6.233,6.023,71.134,69.971,71.134,69.971S171.1,175.421,177.333,173.559z M150.283,269.919c23.265-2.299,69.464-7.008,83.268,7.556
	l220.301,225.681c3.341,3.395,12.246,0.108,21.931-6.023c5.232-3.395,10.466-7.664,15.474-12.484
	c4.787-4.705,9.239-9.853,12.803-15.108c6.902-9.965,10.688-19.271,7.014-22.887L288.765,228.528
	c-4.787-8.869-8.127-23.214-10.131-38.106c-2.446-17.849-3.227-37.121-2.226-48.619c1.336-16.643-0.891-31.207-6.457-44.347
	c-5.565-13.36-14.693-25.624-26.828-37.668c-10.241-10.075-22.709-18.506-36.179-24.967c-11.911-5.584-24.602-9.637-37.515-11.716
	l-5.01,5.365l54.324,53.874c6.012,6.022,8.015,14.345,5.343,22.339l-25.715,75.774c-2.338,6.898-7.681,11.936-14.695,14.016
	l-72.134,21.353c-8.016,2.3-16.254,0.219-22.154-5.474l-59.445-58.474l-7.235,3.833c2.336,30.222,16.81,61.32,38.628,82.781
	c23.266,22.887,47.756,34.933,81.375,32.083C145.941,270.356,147.945,270.137,150.283,269.919z"/>
<g>
	<polygon points="274.88,229.08 260.528,215.059 238.61,236.963 252.81,251.163 	"/>
	<polygon points="483.31,2.063 410.911,41.463 406.411,69.263 308.133,167.481 322.458,181.476 425.01,78.863 429.01,54.263 
		479.71,26.663 490.51,37.463 463.411,88.863 439.21,93.063 336.763,195.451 351.086,209.445 448.81,111.663 476.51,106.863 
		515.01,33.663 	"/>
	<polygon points="266.911,265.263 281.11,279.463 303.51,257.049 289.159,243.028 	"/>
	<polygon points="194.01,246.463 214.553,267.006 228.489,252.742 194.01,218.263 165.203,247.071 179.353,261.121 	"/>
	<path d="M250.51,341.764c-8.5-0.5-16.9,2.699-22.9,8.699c-6,6.101-9.2,14.4-8.7,22.9l-112,111.9c-21.3,21.3-45.4,5-62.7-12.301
		c-29.9-29.899-25.5-51.199-13.1-63.5l92.967-93.051l-14.17-14.068l-92.998,92.92c-19.3,19.3-27.7,51,13.1,91.8
		c25.8,25.8,61.1,42.399,91.1,12.399l115.5-115.5l4-4.1l-1.5-5.6c-0.9-3.5,0.1-7.101,2.6-9.601c2.6-2.6,6.2-3.6,9.7-2.7l5.6,1.5
		l4.1-4l3.944-3.955l-14.31-13.979L250.51,341.764z"/>
</g>
</svg>
