<?xml version="1.0" encoding="utf-8"?>
<!-- Generator: Adobe Illustrator 12.0.1, SVG Export Plug-In . SVG Version: 6.00 Build 51448)  -->
<!DOCTYPE svg PUBLIC "-//W3C//DTD SVG 1.1//EN" "http://www.w3.org/Graphics/SVG/1.1/DTD/svg11.dtd" [
	<!ENTITY ns_svg "http://www.w3.org/2000/svg">
	<!ENTITY ns_xlink "http://www.w3.org/1999/xlink">
]>
<svg  version="1.1" id="Ebene_1" xmlns="&ns_svg;" xmlns:xlink="&ns_xlink;" width="485.227" height="520"
	 viewBox="0 0 485.227 520" overflow="visible" enable-background="new 0 0 485.227 520" xml:space="preserve">
<path id="curve28" d="M72.614,460h50v20h-50V460z M362.614,460h50v20h-50V460z M92.614,420h40v20h-40V420z M152.614,420h20v20h-20
	V420z M192.614,420h20v20h-20V420z M232.614,420h20v20h-20V420z M272.614,420h20v20h-20V420z M312.614,420h20v20h-20V420z
	 M352.614,420h40v20h-40V420z M142.614,460h200v20h-200V460z M465.213,500l-55.399-95c-1.8,1-1.8-5-8.7-5h-317
	c-3.8,0-6.7,1.6-8.7,4.9l-55.4,95.1H465.213z M465.213,520h-445.2c-15.4,0-25-16.8-17.3-30.1l55.5-95c5.4-9.301,15.1-14.9,25.9-14.9
	h317c10.8,0,20.5,5.6,25.9,14.9l55.5,95C490.213,503.2,480.614,520,465.213,520z M462.614,0v300h-210v40h90v20h-200v-20h90v-40h-210
	V0H462.614z M442.614,20h-400v260h400V20z"/>
<path id="curve29" d="M291.022,194.535c1.8-1.8,3.5-3.8,5.101-5.9c1.5-2.1,3-4.2,4.399-6.5c2.101-3.6,6.3-5.8,10.3-6.3l30-3.9
	c1.101-0.2,2-9.6,2.2-11c0.2-1.3,1.2-10.5,0.9-11c-0.2-0.4-25.7-10.2-28.4-11.3c-1.399-0.5-2.7-1.3-3.899-2.2
	c-1.2,0-4.101-4.5-4.5-6.2c-0.801-2.6-1.601-5.1-2.601-7.5c-1.1-2.4-2.2-4.8-3.5-7c-1.2-2.2-1.6-4.8-1.399-7.3
	c0.1-1.3,1.1-4.6,1.1-4.9c1.2-2.7,11.8-27.8,11.7-28.3c-0.2-0.5-7.5-6.3-8.5-7c-2.9-2.2-5.8-4.2-8.7-6.1
	c-0.9-0.6-21.9,16.9-24.4,18.8c-3,2.5-7.6,4-11.399,3.1c-2.601-0.7-5.2-1.2-7.8-1.5c-2.601-0.3-5.2-0.5-7.801-0.5
	c-4.699-0.6-7.8-2.1-10.699-5.9c-4.101-5.3-19.801-26.3-19.101-24.1c-3.7,1.2-7,2.5-10,3.7c-3,1.3-6.2,2.8-9.6,4.5
	c-0.9,0.5,3.7,27.5,4.2,30.5c0.6,4-0.301,8.6-3.2,11.6c-1.8,1.8-3.5,3.8-5.101,5.9c-1.5,2.1-3,4.2-4.399,6.5
	c-2,3.5-6.4,5.8-10.3,6.3l-30,3.9c-1.101,0.2-2,9.6-2.2,11s-1.601,10.8-0.5,11.3l28.1,11c3.8,1.5,7.2,4.3,8.3,8.4
	c0.301,1,2.601,7.3,2.601,7.5c2,4.7,5.3,8.9,4.899,14.3c-0.1,1.6-0.5,3.3-1.1,4.9c-1.2,2.8-12.2,27.9-11.4,28.6
	c2.801,2.5,5.5,4.7,8.2,6.7c2.9,2.2,5.8,4.2,8.7,6.1c0.9,0.6,21.9-16.9,24.4-18.8c3.1-2.5,7.5-4,11.399-3.1
	c2.601,0.7,5.2,1.2,7.7,1.5c2.7,0.3,5.3,0.5,7.9,0.5c4.199,0.1,8.199,2.6,10.699,5.9c1.801,2.3,18.2,24,18.7,24.2
	c-0.1,0.4,9.2-3.3,10.4-3.8s9.6-4.2,9.899-4.8c0.2-0.3-4.1-27.4-4.5-30.3C287.222,202.135,288.222,197.535,291.022,194.535z
	 M307.922,205.635l4.2,27.3c1.3,8.9-3.2,17.4-11.101,21.5c-3.6,1.8-7.1,3.5-10.899,5.1c-3.9,1.6-7.601,3-11.2,4.2
	c-8.5,3-17.601,0.2-23.101-6.9l-16.899-22.2c-2.2-0.1-4.5-0.3-6.7-0.5c-2.1-0.3-4.1-0.7-6.2-1.1l-21.6,17.3
	c-7,5.6-16.601,6-24.101,1.1c-3.6-2.3-6.8-4.6-9.8-6.8c-3.3-2.5-6.3-5-9.3-7.6c-6.8-5.9-9-15.2-5.5-23.5l10.6-25.7
	c-1-2-1.899-4-2.8-6.1c-0.1,0.1-2.1-5.3-2.2-5.8l-25.699-10.1c-8.4-3.3-13.601-11.4-13.101-20.3c0.2-4.3,0.601-8.3,1-12
	c0.5-3.9,1.2-7.8,1.9-11.8c1.8-8.8,8.8-15.4,17.6-16.5l27.601-3.7c1.199-1.8,2.5-3.6,3.899-5.4c1.2-1.7,2.601-3.3,4-4.9l-4.2-27.3
	c-1.3-8.9,3.2-17.5,11.2-21.5c3.5-1.8,7-3.5,10.8-5.1c1.301-0.5,10.5-4.3,11.2-4.3c8.5-2.9,17.601-0.1,23.101,7l16.899,22.2
	c2.2,0.1,4.5,0.3,6.601,0.5c2.199,0.3,4.199,0.7,6.3,1.1l21.6-17.3c7-5.6,16.601-6,24.101-1.1c3.6,2.3,6.8,4.6,9.8,6.8
	c3.3,2.5,6.3,5,9.3,7.6c6.8,5.9,9,15.2,5.5,23.5l-10.6,25.7c1,2,1.899,4,2.8,6.1c0.8,1.9,1.6,3.9,2.2,5.8l25.699,10.1
	c8.4,3.3,13.601,11.4,13.101,20.3c-0.2,4.3-0.601,8.3-1,12c-0.5,3.9-1.2,7.8-1.9,11.8c-1.8,8.8-8.8,15.4-17.6,16.5l-27.601,3.7
	c-1.199,1.8-2.5,3.6-3.899,5.4C310.722,202.435,309.322,204.035,307.922,205.635z M243.222,98.435c13.8,0,26.3,5.6,35.4,14.6
	c9,9.1,14.6,21.6,14.6,35.4s-5.6,26.3-14.6,35.4c-9.101,9-21.601,14.6-35.4,14.6s-26.3-5.6-35.4-14.6c-9-9.1-14.6-21.6-14.6-35.4
	s5.6-26.3,14.6-35.4C216.922,104.035,229.422,98.435,243.222,98.435z M264.422,127.234c-5.4-5.4-12.9-8.8-21.2-8.8
	s-15.8,3.4-21.2,8.8c-5.399,5.4-8.8,12.9-8.8,21.2s3.4,15.8,8.8,21.2c5.4,5.4,12.9,8.8,21.2,8.8s15.8-3.4,21.2-8.8
	c5.399-5.4,8.8-12.9,8.8-21.2S269.822,132.635,264.422,127.234z"/>
</svg>
