<?xml version="1.0" encoding="utf-8"?>
<!-- Generator: Adobe Illustrator 12.0.1, SVG Export Plug-In . SVG Version: 6.00 Build 51448)  -->
<!DOCTYPE svg PUBLIC "-//W3C//DTD SVG 1.1//EN" "http://www.w3.org/Graphics/SVG/1.1/DTD/svg11.dtd" [
	<!ENTITY ns_svg "http://www.w3.org/2000/svg">
	<!ENTITY ns_xlink "http://www.w3.org/1999/xlink">
]>
<svg  version="1.1" id="Ebene_1" xmlns="&ns_svg;" xmlns:xlink="&ns_xlink;" width="562.326" height="636.471"
	 viewBox="0 0 562.326 636.471" overflow="visible" enable-background="new 0 0 562.326 636.471" xml:space="preserve">
<title>workstation icon</title>
<desc>workstation icon from the IconExperience.com I-Collection. Copyright by INCORS GmbH (www.incors.com).</desc>
<path id="curve29" d="M472.548,600.797v-207.82h74.382v207.82h12.396v36.674c-33.038,0-66.138,0-99.175,0v-36.674H472.548z
	 M484.944,600.797h49.589V405.202h-49.589V600.797L484.944,600.797z M509.738,429.652c6.818,0,12.396,5.501,12.396,12.225
	c0,6.723-5.578,12.224-12.396,12.224s-12.396-5.501-12.396-12.224C497.342,435.153,502.92,429.652,509.738,429.652z M546.93,613.021
	c-24.794,0-49.588,0-74.382,0v12.226h74.382V613.021z"/>
<path id="curve28_1_" d="M280.396,622.247h55.785v-48.899h12.397v48.899h55.786v12.225H280.396V622.247z M460.151,377.752v183.371
	H224.61V377.752H460.151z M447.755,389.977H237.007v158.923h210.748V389.977z"/>
<g>
	<polygon fill="none" points="224.221,151.605 233.883,175.742 272.529,175.742 278.327,146.662 224.221,146.662 	"/>
	<path fill="none" d="M311.757,363.505c-11.497-3.49-21.256-6.398-34.782-14.831c-11.304-6.785-17.199-18.806-20.29-31.892
		c-2.706-11.826-3.189-24.525-3.479-34.218c0-2.714,1.063-5.234,2.898-7.076c6.087-6.01,12.077-15.607,17.392-26.075
		c6.86-13.28,12.271-27.821,15.169-38.581c0.772-2.908,2.801-5.137,5.41-6.301c6.088-3.199,10.436-8.724,12.851-15.122
		c2.802-7.561,3.091-16.285,0.869-23.943c-0.29-1.164-0.386-2.229-0.386-3.296l0.386-5.816h-11.691l-4.638,23.167
		c-1.835,9.111-9.759,15.606-18.938,15.606h-38.646c-3.962,0-7.633-1.164-10.821-3.296c-3.188-2.133-5.604-5.235-7.053-8.918
		l-10.628-26.56h-0.966l-10.628,26.56c-2.898,7.464-9.855,12.214-17.874,12.214h-38.647c-9.179,0-17.101-6.592-18.937-15.606
		l-4.637-23.167h-11.691l0.386,5.816c0.097,1.26-0.097,2.617-0.58,3.78c-2.029,7.464-1.642,15.995,1.16,23.458
		c2.415,6.495,6.86,12.117,13.14,15.219c2.608,1.357,4.348,3.586,5.024,6.204c2.899,10.857,8.406,25.3,15.169,38.483
		c5.314,10.663,11.4,20.259,17.391,26.172c1.932,1.841,2.898,4.362,2.898,6.882c0,10.566-0.87,24.815-3.768,34.896
		c-3.285,13.184-9.372,25.301-20.386,31.697c-13.237,8.143-22.995,11.148-34.396,14.541c-6.28,1.938-12.464,3.877-18.647,6.203
		c-10.435,3.779-23.479,8.531-30.435,15.316c-8.792,8.53-15.459,19.289-20.097,30.922c-5.024,12.504-7.536,26.074-7.536,38.967
		c0,10.761,18.454,19.387,43.961,25.979c42.898,11.245,103.67,14.733,139.613,14.733c3.797,0,7.884-0.042,12.183-0.125V370.327
		h115.03c-0.576-0.209-1.146-0.417-1.706-0.619C324.22,367.382,318.037,365.443,311.757,363.505z"/>
	<polygon fill="none" points="137.265,175.742 175.912,175.742 185.574,151.605 185.574,146.662 131.468,146.662 	"/>
	<path fill="none" d="M114.753,136.968c1.933-3.393,4.927-6.204,8.502-7.852c2.512-1.26,5.314-1.842,8.212-1.842h56.038
		c3.285,0,6.28,0.775,9.082,2.229c3.189,1.745,5.797,4.362,7.633,7.464h1.353c0.29-0.388,0.483-0.775,0.773-1.163
		c1.835-2.714,4.154-4.847,6.86-6.301c2.802-1.454,5.797-2.229,9.082-2.229h56.039c2.898,0,5.699,0.582,8.212,1.842
		c2.609,1.163,4.831,3.005,6.666,5.234c0.676,0.872,1.353,1.745,1.835,2.617h14.01l2.319-35.284
		c0.772-9.015-1.449-18.127-5.604-26.657c-8.889-18.224-28.117-35.09-48.89-37.029c-7.053-0.679-14.299,0.485-21.256,3.877
		c-3.091,1.551-6.666,1.164-9.372-0.582c-5.216-3.296-9.275-5.816-13.429-7.658c-9.469-4.168-22.029-5.429-32.271-5.332
		c-37.004,0.775-74.782,22.489-81.062,61.554c-0.676,4.071-1.063,8.336-0.966,12.795l2.223,34.315H114.753z"/>
	<path d="M204.897,495.627c-35.942,0-96.715-3.489-139.613-14.733c-25.507-6.593-43.961-15.219-43.961-25.979
		c0-12.893,2.512-26.463,7.536-38.967c4.638-11.633,11.305-22.393,20.097-30.922c6.956-6.785,20-11.536,30.435-15.316
		c6.183-2.326,12.367-4.265,18.647-6.203c11.401-3.393,21.159-6.398,34.396-14.54c11.014-6.398,17.102-18.516,20.386-31.698
		c2.898-10.081,3.768-24.331,3.768-34.896c0-2.52-0.966-5.041-2.898-6.882c-5.991-5.914-12.077-15.509-17.391-26.172
		c-6.763-13.183-12.271-27.626-15.169-38.483c-0.676-2.617-2.416-4.847-5.024-6.204c-6.28-3.102-10.725-8.724-13.14-15.219
		c-2.802-7.464-3.188-15.994-1.16-23.458c0.483-1.163,0.676-2.52,0.58-3.78L102,156.356h11.691l4.637,23.167
		c1.835,9.015,9.758,15.606,18.937,15.606h38.647c8.019,0,14.976-4.75,17.874-12.214l10.628-26.56h0.966l10.628,26.56
		c1.449,3.683,3.865,6.785,7.053,8.918c3.189,2.132,6.861,3.296,10.822,3.296h38.646c9.179,0,17.102-6.495,18.938-15.606
		l4.638-23.167h11.69l-0.387,5.816c0,1.066,0.098,2.132,0.387,3.296c2.223,7.658,1.933,16.382-0.87,23.943
		c-2.415,6.397-6.763,11.923-12.85,15.122c-2.608,1.164-4.638,3.393-5.41,6.301c-2.898,10.76-8.31,25.3-15.169,38.581
		c-5.314,10.469-11.305,20.065-17.392,26.075c-1.835,1.841-2.898,4.362-2.898,7.076c0.29,9.693,0.772,22.393,3.479,34.217
		c3.091,13.087,8.986,25.107,20.289,31.893c13.526,8.433,23.286,11.341,34.782,14.831c6.28,1.938,12.464,3.877,18.648,6.203
		c0.561,0.202,1.132,0.41,1.707,0.619h41.242c-9.951-9.083-24.567-14.516-36.378-18.843c-6.569-2.325-13.043-4.459-19.71-6.494
		c-10.146-3.101-18.841-5.719-30.337-12.893c-6.089-3.684-9.47-11.244-11.402-19.773c-2.028-8.628-2.607-18.225-2.898-26.173
		c6.571-7.464,12.754-17.448,18.166-27.917c6.569-12.989,11.979-27.045,15.36-38.386c8.985-5.623,15.169-14.056,18.744-23.652
		c4.154-10.857,4.733-23.265,1.835-34.412l3.865-58.646c0.966-12.408-1.835-25.01-7.537-36.545
		c-11.884-24.524-36.812-45.171-64.444-47.789c-8.696-0.873-17.583,0.194-26.279,3.489c-4.155-2.52-7.827-4.556-11.787-6.397
		c-11.981-5.235-27.149-7.076-40.29-6.882c-46.57,0.873-91.98,29.178-99.806,77.742c-0.87,5.138-1.449,11.826-1.16,17.061
		l3.768,57.967c-2.898,11.147-2.222,23.555,1.836,34.412c3.575,9.596,9.855,18.029,18.744,23.652
		c3.381,11.341,8.888,25.397,15.458,38.29c5.314,10.663,11.594,20.647,18.164,28.014c-0.193,9.209-1.063,17.35-3.092,26.463
		c-2.125,8.627-5.7,16.285-11.69,19.678c-11.305,7.077-19.903,9.598-29.951,12.699c-6.667,2.036-13.141,4.071-19.711,6.495
		c-12.173,4.459-27.342,10.08-37.294,19.678c-10.725,10.47-18.937,23.556-24.541,37.611c-5.99,14.928-8.985,30.922-8.985,46.141
		c0,21.811,24.541,35.866,58.454,44.688c44.927,11.729,107.536,15.412,144.444,15.412c3.801,0,7.886-0.042,12.184-0.124v-19.388
		C212.781,495.585,208.694,495.627,204.897,495.627z M185.574,151.605l-9.662,24.137h-38.647l-5.797-29.08h54.106V151.605z
		 M272.529,175.742h-38.646l-9.662-24.137v-4.943h54.106L272.529,175.742z M99.487,89.857c6.28-39.064,44.058-60.778,81.062-61.554
		c10.242-0.097,22.802,1.164,32.271,5.332c4.154,1.842,8.212,4.362,13.429,7.658c2.706,1.745,6.28,2.133,9.372,0.582
		c6.957-3.393,14.203-4.556,21.256-3.877c20.773,1.939,40,18.806,48.889,37.029c4.155,8.53,6.377,17.642,5.604,26.657l-2.319,35.284
		h-14.01c-0.482-0.872-1.158-1.745-1.834-2.617c-1.836-2.229-4.058-4.071-6.667-5.234c-2.512-1.26-5.313-1.842-8.213-1.842H222.29
		c-3.285,0-6.28,0.775-9.082,2.229c-2.706,1.454-5.023,3.586-6.86,6.301c-0.29,0.388-0.483,0.775-0.773,1.163h-1.353
		c-1.836-3.102-4.444-5.719-7.633-7.464c-2.802-1.454-5.797-2.229-9.082-2.229h-56.038c-2.898,0-5.7,0.582-8.212,1.842
		c-3.575,1.648-6.57,4.459-8.502,7.852h-14.009l-2.223-34.315C98.424,98.194,98.812,93.929,99.487,89.857z"/>
</g>
</svg>
