<?xml version="1.0" encoding="utf-8"?>
<svg
   id="svg11"
   version="1.1"
   viewBox="0 0 5800 5800"
   clip-rule="evenodd"
   fill-rule="nonzero"
   image-rendering="optimizeQuality"
   text-rendering="geometricPrecision"
   shape-rendering="geometricPrecision"
   height="580"
   width="580"
   xml:space="preserve"
   xmlns="http://www.w3.org/2000/svg"
   xmlns:svg="http://www.w3.org/2000/svg"><defs
   id="defs3326" />



<g
   id="g3332"
   transform="matrix(11.818182,0,0,11.818182,299.99996,1245.4545)"><path
     id="curve28"
     d="M 440,0 V 280 H 0 V 0 Z M 420,20 H 20 v 240 h 400 z" /><path
     d="m 107.341,165.184 -9.776,35.983 H 64.701 L 107.549,60.975 h 41.392 l 43.68,140.192 h -34.112 l -10.816,-35.983 z m 35.568,-23.713 -8.736,-29.744 c -2.288,-8.32 -4.784,-18.928 -6.864,-27.04 h -0.624 c -1.872,8.32 -4.16,18.928 -6.24,27.04 l -8.528,29.744 z"
     id="path3317" /><path
     d="m 211.339,62.847 c 9.776,-1.664 23.504,-2.912 42.849,-2.912 19.551,0 33.695,3.744 43.055,11.44 8.945,6.864 14.77,18.512 14.77,32.24 0,13.936 -4.369,25.584 -12.689,33.28 -10.814,9.984 -27.039,14.768 -45.76,14.768 -4.16,0 -7.904,-0.208 -10.816,-0.832 v 50.336 H 211.341 V 62.847 Z m 31.407,63.648 c 2.705,0.624 6.033,0.832 10.609,0.832 16.848,0 27.248,-8.528 27.248,-22.672 0,-12.896 -8.736,-20.592 -24.752,-20.592 -6.449,0 -10.816,0.416 -13.105,1.04 z"
     id="path3319" /><path
     d="M 364.01,60.975 V 201.167 H 332.393 V 60.975 Z"
     id="path3321" /></g>
</svg>
