<?xml version="1.0" encoding="UTF-8"?>
<!DOCTYPE svg PUBLIC "-//W3C//DTD SVG 1.1//EN" "http://www.w3.org/Graphics/SVG/1.1/DTD/svg11.dtd">
<svg xmlns="http://www.w3.org/2000/svg" xml:space="preserve" width="1024px" height="1024px" shape-rendering="geometricPrecision" text-rendering="geometricPrecision" image-rendering="optimizeQuality" fill-rule="nonzero" clip-rule="evenodd" viewBox="0 0 1024 1024" xmlns:xlink="http://www.w3.org/1999/xlink">
	<title>arrow_barrier_down icon</title>
	<desc>arrow_barrier_down icon from the IconExperience.com O-Collection. Copyright by INCORS GmbH (www.incors.com).</desc>
	<path id="curve1" fill="#252525" d="M672.7,570.5l-0.7-83.9c-0.1-6.6-3.8-12.199-9.9-14.699C656,469.3,649.4,470.7,644.7,475.3
	L576,544V128H448v416l-68.7-68.7c-4.7-4.6-11.3-6-17.399-3.399c-6.101,2.5-10,8.199-9.9,14.699l0.7,83.9
	c0.1,17.6,6.3,32.8,18.7,45.3L490.1,734.4c12.4,12.4,32.801,12.4,45.2,0L653.9,615.8C666.4,603.3,672.8,588.1,672.7,570.5z"/>
	<path id="curve0" fill="#252525" d="M192,768h640v128H192V768z"/>
</svg>
