<?xml version="1.0" encoding="UTF-8"?>
<!DOCTYPE svg PUBLIC "-//W3C//DTD SVG 1.1//EN" "http://www.w3.org/Graphics/SVG/1.1/DTD/svg11.dtd">
<svg xmlns="http://www.w3.org/2000/svg" xml:space="preserve" width="580px" height="580px" shape-rendering="geometricPrecision" text-rendering="geometricPrecision" image-rendering="optimizeQuality" fill-rule="nonzero" clip-rule="nonzero" viewBox="0 0 5800 5800" xmlns:xlink="http://www.w3.org/1999/xlink">
	<title>arrow_circle2 icon</title>
	<desc>arrow_circle2 icon from the IconExperience.com I-Collection. Copyright by INCORS GmbH (www.incors.com).</desc>
		<path id="curve28" fill="#000000" d="M2679 5529l630 -629 -359 0c-1105,0 -2000,-896 -2000,-2000 0,-644 310,-1247 832,-1623l117 161c-472,340 -749,881 -749,1462 0,994 806,1800 1800,1800l359 0 -630 -629 142 -142 870 871 -870 871 -142 -142zm442 -5258l-630 629 359 0c1104,0 2000,896 2000,2000 0,644 -310,1247 -832,1623l-117 -161c472,-340 749,-881 749,-1462 0,-994 -806,-1800 -1800,-1800l-359 0 630 629 -142 142 -870 -871 870 -871 142 142z"/>
</svg>