<?xml version="1.0" encoding="UTF-8" standalone="no"?>
<svg
   xmlns:dc="http://purl.org/dc/elements/1.1/"
   xmlns:cc="http://creativecommons.org/ns#"
   xmlns:rdf="http://www.w3.org/1999/02/22-rdf-syntax-ns#"
   xmlns:svg="http://www.w3.org/2000/svg"
   xmlns="http://www.w3.org/2000/svg"
   xmlns:sodipodi="http://sodipodi.sourceforge.net/DTD/sodipodi-0.dtd"
   xmlns:inkscape="http://www.inkscape.org/namespaces/inkscape"
   inkscape:version="1.0 (4035a4fb49, 2020-05-01)"
   sodipodi:docname="audi_pdf_excel.svg"
   xml:space="preserve"
   enable-background="new 0 0 1459.002 520"
   overflow="visible"
   viewBox="0 0 1459.002 520"
   height="520"
   width="1459.002"
   id="Ebene_1"
   version="1.1"><metadata
   id="metadata34"><rdf:RDF><cc:Work
       rdf:about=""><dc:format>image/svg+xml</dc:format><dc:type
         rdf:resource="http://purl.org/dc/dcmitype/StillImage" /></cc:Work></rdf:RDF></metadata><defs
   id="defs32" /><sodipodi:namedview
   showguides="false"
   inkscape:current-layer="Ebene_1"
   inkscape:window-maximized="1"
   inkscape:window-y="-8"
   inkscape:window-x="-8"
   inkscape:cy="153.1786"
   inkscape:cx="-86.4125"
   inkscape:zoom="0.24596039"
   showgrid="false"
   id="namedview30"
   inkscape:window-height="837"
   inkscape:window-width="1600"
   inkscape:pageshadow="2"
   inkscape:pageopacity="0"
   guidetolerance="10"
   gridtolerance="10"
   objecttolerance="10"
   borderopacity="1"
   bordercolor="#666666"
   pagecolor="#ffffff"
   inkscape:document-rotation="0" />
<path
   style="stroke-width:2.53696"
   d="m -1003.9292,-407.08686 v 290.63659 h 49.4953 v -238.62204 h 606.31731 c 20.29315,0 37.12151,17.68495 37.12151,39.01093 v 221.061908 h 210.35504 c 20.540503,0 37.121392,17.424879 37.121392,39.01092 V 893.27731 H -954.4339 V 138.53813 h -49.4953 V 945.29197 H -14.023289 V -55.988552 c 0,-24.966984 -9.646616,-47.850798 -25.492478,-64.235378 -24.00532,-25.48714 -247.476563,-259.29262 -247.476563,-260.07284 -15.59353,-16.64466 -37.3664,-26.79009 -61.12426,-26.79009 z m 742.42947,126.91811 126.7054,133.15472 h -126.7054 z"
   id="curve28_2_" />
<path
   style="stroke-width:2.53696"
   d="m -431.30823,547.25041 c -36.5548,-31.15413 -70.49864,-74.36784 -96.98106,-131.98956 -21.39436,63.20548 -48.37179,125.63597 -80.94464,184.93517 57.1968,-23.87466 118.86299,-41.52062 177.9257,-52.94561 z"
   fill="none"
   id="path40" />
<path
   style="stroke-width:2.53696"
   d="m -192.38454,593.02323 c -6.66704,-11.47702 -63.19807,-18.20251 -81.80585,-15.39109 12.76737,9.02448 76.87866,23.26868 81.80585,15.39109 z"
   fill="none"
   id="path42" />
<path
   style="stroke-width:2.53696"
   d="m -409.57724,141.37553 h -97.32768 c 1.39335,9.91918 0.83163,21.69006 -1.66304,33.5338 h -24.505 c 0.0686,-9.90617 -1.55421,-18.1505 -6.15479,-22.83442 -8.50327,1.50065 -7.41941,55.11204 -4.18984,86.23755 2.97713,-15.31566 8.37955,-36.68066 9.92876,-54.79734 h 22.99805 c 3.41267,37.37508 -1.79923,109.04075 -7.81527,154.68873 23.05984,91.14774 96.78795,180.60758 149.3866,199.53829 98.21844,-11.61226 140.91313,-3.9245 175.86425,13.73446 34.94867,17.64337 12.40107,56.14972 12.40107,56.14972 0,0 3.77395,15.11544 -31.06822,24.03593 -40.66292,7.89846 -152.9727,-31.57807 -171.85017,-48.08486 -9.51788,-10.43412 -256.54398,45.23967 -258.64257,55.81684 -2.73955,11.25864 -80.21706,143.29752 -128.57641,167.6742 -42.54618,22.36626 -53.16293,0.20024 -56.82061,-1.05859 -7.88953,0 -18.96662,-8.80863 -12.52969,-37.15906 23.68593,-74.1312 122.87952,-121.20442 122.87952,-121.20442 l 10.19354,14.1142 c 0,0 128.2695,-230.97857 141.99211,-323.60352 -30.72427,-92.35965 -19.18941,-172.69357 -15.2099,-196.77631 h -323.62751 v 687.24256 h 791.92477 V 121.22508 c 0,-22.886404 -17.81839,-41.611654 -39.59628,-41.611654 h -197.9812 V -128.44484 c 0,-22.88641 -17.81828,-41.61164 -39.59629,-41.61164 h -514.751 v 40.96145 h 494.33423 v 270.47056 z"
   fill="none"
   id="path44" />
<polygon
   transform="matrix(2.4747646,0,0,2.6007283,-1122.7227,-409.68761)"
   points="348.748,108.138 348.748,156.138 396.748,156.138 "
   fill="none"
   id="polygon46" />
<path
   style="stroke-width:2.53696"
   d="m -786.09788,775.15224 c 6.12254,3.98955 67.33086,-67.24958 79.19245,-97.28797 -17.457,11.84636 -87.572,90.10995 -79.19245,97.28797 z"
   fill="none"
   id="path48" />
<path
   style="stroke-width:2.53696"
   d="m -730.05688,46.779226 c 3.2816,-7.973827 4.92474,-20.904661 4.92474,-38.7872561 0,-23.6718209 -3.67002,-39.8769709 -11.00773,-48.6154159 -7.34015,-8.735848 -19.50854,-13.107669 -36.50276,-13.107669 H -789.0132 V 68.341886 h 16.07854 c 13.71271,0 23.46327,-1.59946 29.25922,-4.79837 5.79584,-3.20149 10.3345,-8.78785 13.61856,-16.76429 z"
   fill="#252525"
   id="path52" />
<path
   style="stroke-width:2.53696"
   d="m -985.55902,-58.929969 h -18.68948 v 49.9027659 h 16.08353 c 12.65097,0 21.54044,-2.3120469 26.65817,-6.9439339 5.1154,-4.626706 7.68177,-10.556352 7.68177,-17.778578 0,-7.019378 -2.22243,-12.969832 -6.6646,-17.854009 -4.44718,-4.884164 -12.79949,-7.326245 -25.06939,-7.326245 z"
   fill="#252525"
   id="path54" />
<path
   style="stroke-width:2.53696"
   d="m -569.56839,141.37553 c -3.98195,24.08014 -15.51426,104.41664 15.20989,196.7737 -13.72506,92.62495 -141.99209,323.60356 -141.99209,323.60356 l -10.19601,-14.11426 c 0,0 -99.19358,47.08105 -122.8795,121.20436 -6.43438,28.35055 4.64027,37.15919 12.5298,37.15919 3.65267,1.25868 14.27443,23.42738 56.82048,1.0585 48.36192,-24.37933 125.83442,-156.41555 128.57643,-167.67157 2.09859,-10.56934 249.12469,-66.25095 258.64268,-55.81685 18.88492,16.51725 131.18969,55.98072 171.85006,48.08232 34.84217,-8.92831 31.06822,-24.036 31.06822,-24.036 0,0 22.5476,-38.50634 -12.40109,-56.1497 -34.95111,-17.65636 -77.65058,-25.34669 -175.86412,-13.73446 -52.59865,-18.92289 -126.32443,-108.38795 -149.38673,-199.54347 6.02106,-45.65059 11.23295,-117.30585 7.81783,-154.68873 h -22.99804 c -1.54676,18.11669 -6.95162,39.48168 -9.92631,54.79735 -3.22958,-31.12551 -4.311,-84.73693 4.18983,-86.23754 4.60059,4.6839 6.22894,12.92821 6.15469,22.8344 h 24.50767 c 2.49443,-11.84373 3.05872,-23.61461 1.66047,-33.5338 h 97.33001 v -270.47577 h -494.33412 -79.19256 -152.8167 v 270.47577 h 152.8167 79.19256 z m -216.52949,633.77671 c -8.38199,-7.18049 61.733,-85.44428 79.19245,-97.28797 -11.86159,30.03839 -73.06991,101.27752 -79.19245,97.28797 z m 593.71334,-182.12901 c -4.92474,7.87759 -69.03604,-6.36661 -81.80585,-15.39109 18.60778,-2.80881 75.13392,3.91407 81.80585,15.39109 z M -528.28929,415.26085 c 26.47998,57.62693 60.42382,100.83803 96.98106,131.98956 -59.05782,11.42499 -120.7289,29.06833 -177.9257,52.9404 32.57285,-59.29399 59.55773,-121.72448 80.94464,-184.92996 z m -95.92687,-519.54232 h 162.40644 v 47.952238 h -96.36231 v 38.849669 h 82.28585 v 45.187642 h -82.28585 v 91.350591 h -66.04657 v -223.34014 z m -230.53168,0 h 97.61214 c 19.2412,0 34.78526,2.74376 46.6344,8.22611 11.8418,5.484938 21.63448,13.357323 29.36804,23.614612 7.73368,10.257276 13.34643,22.192003 16.82591,35.801627 3.47948,13.609609 5.21922,28.0306399 5.21922,43.2631169 0,23.8694731 -2.58848,42.3788601 -7.75835,55.5307501 -5.17476,13.15448 -12.35394,24.17375 -21.53776,33.06046 -9.1864,8.886684 -19.04834,14.800754 -29.5884,17.747374 -14.40561,4.06495 -27.46,6.0935 -39.15817,6.0935 h -97.61703 z m -54.53894,121.401996 c -12.89353,12.694157 -32.57039,19.037323 -59.03302,19.037323 h -35.9287 v 82.898231 h -66.044 v -223.33755 h 109.16433 c 23.77509,0 41.58348,5.940077 53.42272,17.822788 11.8418,11.882737 17.76137,28.790072 17.76137,50.72202 0,22.545691 -6.44916,40.1630419 -19.3427,52.857188 z"
   fill="#252525"
   id="path56" />
<path
   style="stroke-width:2.53696"
   d="m 1737.8578,529.17534 c 7.1742,-0.78023 13.8635,-1.30035 20.2905,-1.30035 30.9346,0 59.1469,8.84246 81.4198,23.6666 V 85.751146 c 0,-12.74355 8.6617,-23.40654 20.0455,-25.48714 l 394.725,-103.769046 c 13.1188,-3.380957 26.73,4.941381 29.9522,18.985319 0.4899,2.080572 0.7423,4.161156 0.7423,6.24175 V 538.79803 c 0,9.62271 1.2374,19.76554 -3.4596,28.08785 -6.187,25.74726 -20.7857,49.41387 -41.0862,68.65923 -25.985,24.70702 -61.869,42.39197 -101.2129,47.0733 -7.1743,0.78019 -13.8637,1.30027 -20.2904,1.30027 -33.4095,0 -63.6016,-10.14273 -86.6169,-27.56768 -24.2552,-18.20507 -40.3411,-44.73259 -43.5634,-75.94131 -0.4899,-4.16897 -0.7424,-8.07005 -0.7424,-11.97113 0,-35.89007 17.071,-70.21969 44.5457,-96.22697 25.9851,-24.70693 61.8691,-42.39188 101.213,-47.07319 7.1745,-0.78022 13.8637,-1.30036 20.2905,-1.30036 30.9345,0 59.147,8.5824 81.42,23.66662 v -302.4569 l -346.4671,91.02549 V 642.8272 c 0,9.62271 1.2373,19.76551 -3.4647,28.08796 -6.1869,25.74713 -20.7807,49.41374 -41.0811,68.6591 -25.9851,24.70696 -61.8691,42.39202 -101.2179,47.07322 -7.1694,0.78027 -13.8587,1.30042 -20.2906,1.30042 -33.4093,0 -63.5964,-10.14294 -86.6118,-27.56775 -24.2601,-18.20503 -40.3461,-44.73253 -43.5632,-75.94119 -0.495,-4.16903 -0.7425,-8.07017 -0.7425,-11.97118 0,-35.89013 17.0759,-70.21975 44.5457,-96.22706 25.9924,-24.69913 61.8766,-42.38407 101.2205,-47.06538 z m 497.68,-437.702584 V 15.011332 l -346.467,91.025508 v 76.4614 z m 0,447.845424 c 0,-2.08839 0,-4.16897 -0.2524,-6.24174 -1.7274,-16.12452 -10.389,-29.90837 -23.5103,-39.79115 -14.5961,-10.92308 -34.6466,-17.42488 -57.6646,-17.42488 -5.1969,0 -10.1463,0.26007 -14.8484,0.78022 -28.9523,3.38095 -54.9374,16.12451 -73.7481,34.07734 -17.3233,16.38459 -27.9648,36.92253 -27.9648,57.72836 0,2.34069 0,4.42123 0.2477,6.24178 1.7321,16.12448 10.3938,29.90833 23.5101,39.79114 14.6011,10.92307 34.6466,17.42489 57.6645,17.42489 5.202,0 10.1515,-0.26011 14.8485,-0.78026 28.9524,-3.38092 54.9374,-16.12448 73.753,-34.07734 17.3234,-16.37675 27.9648,-36.92253 27.9648,-57.72836 z m -477.377,40.57136 c -5.202,0 -10.1516,0.26011 -14.8487,0.78025 -28.9524,3.38093 -54.9372,16.12447 -73.7529,34.07734 -17.3234,16.38459 -27.9649,36.92259 -27.9649,57.72835 0,2.6008 0,4.68916 0.2475,6.24185 1.7323,16.12448 10.394,29.90832 23.5153,39.79107 14.596,10.92294 34.6467,17.42482 57.6644,17.42482 5.197,0 10.1466,-0.25993 14.8485,-0.78019 28.9524,-3.38092 54.9372,-16.12441 73.7481,-34.07727 17.3233,-16.38466 27.9648,-36.92266 27.9648,-57.72841 0,-2.08831 0,-4.16903 -0.2474,-6.24173 -1.7325,-16.12453 -10.3941,-29.90844 -23.5104,-39.7912 -14.6085,-10.92306 -34.659,-17.42488 -57.6643,-17.42488 z"
   id="curve29" />
<path
   style="stroke-width:2.53696"
   d="m 2457.5242,-121.52691 c 15.831,16.3846 25.4901,39.271006 25.4901,64.238002 V 943.99157 h -989.906 V -408.38724 h 655.8128 c 23.7627,0 45.5356,10.14285 61.1266,26.7875 0,0.78023 223.4714,234.58571 247.4765,260.07283 z m -221.9864,-159.94478 v 133.15728 h 126.708 z m -86.6167,-74.90098 H 1542.6037 V 891.97696 h 890.9154 V -57.288908 c 0,-21.586041 -16.5811,-39.010919 -37.1217,-39.010919 H 2186.0425 V -317.36175 c 0,-21.32598 -16.8283,-39.01092 -37.1214,-39.01092 z"
   id="curve28" />
<g
   transform="matrix(2.4747646,0,0,2.6007283,-1122.7227,-409.68761)"
   id="g27">
	<g
   id="g25"
   transform="matrix(0.1,0,0,-0.1,0,512)">
		<path
   id="path13"
   d="m 6506.289,4846.884 c -794.16,-151.387 -1457.646,-282.583 -1474.473,-289.751 -17.656,-7.207 -38.77,-27.451 -48.086,-44.717 -15.986,-30.356 -17.275,-181.777 -14.238,-2000.425 l 3.262,-1967.949 30.352,-29.473 c 30.361,-30.352 44.707,-33.809 1511.641,-312.109 l 1481.24,-282.666 32.793,18.584 c 19.502,10.107 39.717,29.59 46.045,42.998 7.178,16.885 11.387,117.314 11.387,293.613 v 267.978 l 906.777,2.754 907.676,3.34 49.756,26.143 c 35.449,18.623 59.912,39.688 80.996,75.156 l 30.352,48.906 v 1825.361 1825.4 l -30.352,48.496 c -21.084,35.859 -45.547,56.943 -80.996,75.537 l -49.756,26.104 -907.676,3.369 -905.928,2.998 -3.369,278.325 -2.49,279.268 -27.051,26.543 c -16.836,15.991 -40.508,27.339 -65.781,29.102 -23.625,2.091 -617.463,-106.742 -1482.081,-272.885 z M 7882.958,2524.629 c 0,-1732.627 -3.438,-2366.895 -11.006,-2366.895 -19.385,0 -2684.101,508.535 -2692.988,513.691 -4.18,3.33 -8.223,837.598 -8.223,1854.063 0,1544.033 1.904,1849.048 14.141,1854.057 19.443,6.724 2648.3,509.897 2676.035,510.698 l 22.041,1.196 z m 1970.479,0 V 757.5 H 8969.394 8086.21 v 258.965 258.906 h 208.418 207.441 v 106.27 107.158 H 8294.628 8086.21 v 309.658 309.443 h 208.418 207.441 v 107.207 106.182 H 8294.628 8086.21 v 259.023 258.979 h 208.418 207.441 v 101.616 101.685 H 8294.628 8086.21 v 258.95 258.999 h 208.418 207.441 v 106.67 106.685 H 8294.628 8086.21 v 258.979 259.141 h 883.184 884.043 z" />
		<path
   id="path15"
   d="m 5691.865,3447.031 c 13.096,-24.453 137.92,-237.871 275.42,-473.662 137.91,-236.606 253.867,-436.504 255.518,-443.677 3.398,-5.972 -131.592,-227.72 -300.264,-490.923 -167.891,-263.232 -304.922,-481.66 -304.922,-484.209 0,-3.35 115.996,-5.088 258.115,-5.088 h 256.846 l 167.852,313.008 c 92.383,171.201 177.559,344.102 190.645,382.91 l 24.492,70.811 17.275,-59.033 c 9.268,-31.191 94.434,-204.092 188.105,-382.949 l 171.65,-324.746 h 258.096 c 200.801,0 255.625,3.252 251.396,13.525 -1.641,5.859 -134.951,226.006 -295.225,487.529 -159.434,260.625 -290.596,477.026 -290.596,479.136 0,4.238 308.75,517.046 520.879,866.284 l 58.232,93.643 -245.918,-2.109 -245.889,-2.93 -150.176,-279.199 c -82.402,-153.545 -164.453,-319.307 -181.962,-367.778 -18.398,-49.766 -33.584,-89.429 -34.424,-89.429 -1.26,0 -14.336,33.33 -28.643,74.248 -15.195,41.343 -90.264,207.109 -167.451,368.589 l -140.049,293.569 -267.383,2.93 -267.002,2.109 z" />
		<path
   id="path17"
   d="m 8715.575,3667.172 v -106.694 l 414.99,2.07 413.262,2.969 v 101.616 101.626 l -413.262,2.905 -414.99,2.104 z" />
		<path
   id="path19"
   d="m 8715.575,2940.908 v -101.616 h 416.582 416.758 v 101.616 101.685 h -416.758 -416.582 z" />
		<path
   id="path21"
   d="M 8715.575,2215.107 V 2107.9 h 416.582 417.559 l -3.34,104.609 -2.549,103.76 -413.262,3.418 -414.99,1.602 z" />
		<path
   id="path23"
   d="m 8715.575,1381.64 v -106.27 l 414.99,1.719 413.262,3.291 v 101.24 102.051 l -413.262,2.52 -414.99,2.529 z" />
	</g>
</g>
</svg>
