<?xml version="1.0" encoding="utf-8"?>
<!-- Generator: Adobe Illustrator 12.0.1, SVG Export Plug-In . SVG Version: 6.00 Build 51448)  -->
<!DOCTYPE svg PUBLIC "-//W3C//DTD SVG 1.1//EN" "http://www.w3.org/Graphics/SVG/1.1/DTD/svg11.dtd" [
	<!ENTITY ns_svg "http://www.w3.org/2000/svg">
	<!ENTITY ns_xlink "http://www.w3.org/1999/xlink">
]>
<svg  version="1.1" id="Ebene_1" xmlns="&ns_svg;" xmlns:xlink="&ns_xlink;" width="1459.002" height="520"
	 viewBox="0 0 1459.002 520" overflow="visible" enable-background="new 0 0 1459.002 520" xml:space="preserve">
<path id="curve28_2_" d="M49.002,0v111.752h20V20h245c8.2,0,15,6.8,15,15v85h85c8.3,0,15,6.7,15,15v365h-360V209.797h-20V520h400
	V135c0-9.6-3.9-18.399-10.301-24.699c-9.7-9.8-100-99.7-100-100C332.4,3.901,323.602,0,314.002,0H49.002z M349.002,48.801
	L400.201,100h-51.199V48.801z"/>
<path id="path40" fill="none" d="M280.386,366.95c-14.771-11.978-28.487-28.594-39.188-50.751
	c-8.643,24.303-19.546,48.308-32.708,71.11C231.602,378.128,256.52,371.343,280.386,366.95L280.386,366.95z"/>
<path id="path42" fill="none" d="M376.93,384.55c-2.695-4.413-25.537-6.999-33.056-5.918
	C349.033,382.102,374.939,387.579,376.93,384.55z"/>
<path id="path44" fill="none" d="M289.167,210.888h-39.328c0.563,3.814,0.336,8.34-0.672,12.894h-9.902
	c0.028-3.809-0.628-6.979-2.487-8.78c-3.436,0.577-2.998,21.191-1.693,33.159c1.203-5.889,3.386-14.104,4.012-21.07h9.293
	c1.379,14.371-0.727,41.926-3.158,59.479c9.318,35.047,39.11,69.446,60.364,76.724c39.688-4.465,56.94-1.509,71.063,5.281
	c14.122,6.784,5.011,21.59,5.011,21.59s1.525,5.811-12.554,9.242c-16.43,3.037-61.812-12.141-69.441-18.489
	c-3.846-4.012-103.664,17.395-104.512,21.462c-1.107,4.329-32.414,55.098-51.955,64.472c-17.192,8.598-21.482,0.077-22.96-0.409
	c-3.188,0-7.664-3.385-5.063-14.288c9.571-28.504,49.653-46.604,49.653-46.604l4.119,5.426c0,0,51.831-88.813,57.376-124.427
	c-12.415-35.513-7.754-66.402-6.146-75.662H89.416v264.25h320v-272c0-8.8-7.2-16-16-16h-80v-80c0-8.8-7.2-16-16-16h-208v15.75
	h199.75L289.167,210.888L289.167,210.888z"/>
<polygon id="polygon46" fill="none" points="349.748,107.138 349.748,155.138 397.748,155.138 "/>
<path id="path48" fill="none" d="M137.023,454.58c2.474,1.534,27.207-25.858,32-37.408
	C161.969,421.727,133.637,451.82,137.023,454.58z"/>
<path id="path52" fill="#252525" d="M159.668,174.515c1.326-3.066,1.99-8.038,1.99-14.914c0-9.102-1.483-15.333-4.448-18.693
	c-2.966-3.359-7.883-5.04-14.75-5.04h-6.615v46.938h6.497c5.541,0,9.481-0.615,11.823-1.845
	C156.507,179.73,158.341,177.582,159.668,174.515L159.668,174.515z"/>
<path id="path54" fill="#252525" d="M56.425,133.869h-7.552v19.188h6.499c5.112,0,8.704-0.889,10.772-2.67
	c2.067-1.779,3.104-4.059,3.104-6.836c0-2.699-0.898-4.987-2.693-6.865C64.758,134.808,61.383,133.869,56.425,133.869z"/>
<path id="path56" fill="#252525" d="M224.518,210.888c-1.609,9.259-6.269,40.149,6.146,75.661
	c-5.546,35.615-57.376,124.428-57.376,124.428l-4.12-5.427c0,0-40.082,18.101-49.653,46.604c-2.6,10.903,1.875,14.288,5.063,14.288
	c1.476,0.486,5.768,9.008,22.96,0.409c19.542-9.374,50.847-60.143,51.955-64.471c0.848-4.066,100.666-25.474,104.512-21.462
	c7.631,6.35,53.011,21.525,69.441,18.488c14.079-3.432,12.554-9.242,12.554-9.242s9.111-14.805-5.011-21.59
	c-14.123-6.789-31.377-9.746-71.063-5.281c-21.254-7.276-51.045-41.676-60.364-76.724c2.433-17.553,4.539-45.107,3.159-59.479
	h-9.293c-0.625,6.966-2.809,15.181-4.011,21.07c-1.305-11.968-1.742-32.582,1.693-33.159c1.859,1.801,2.517,4.971,2.487,8.78h9.903
	c1.008-4.554,1.236-9.08,0.671-12.894H293.5v-104H93.75h-32H0v104h61.75h32H224.518L224.518,210.888z M137.023,454.58
	c-3.387-2.761,24.945-32.854,32-37.408C164.23,428.722,139.497,456.114,137.023,454.58z M376.93,384.55
	c-1.99,3.029-27.896-2.448-33.056-5.918C351.393,377.552,374.234,380.137,376.93,384.55z M241.198,316.199
	c10.7,22.158,24.416,38.774,39.188,50.751c-23.864,4.393-48.784,11.177-71.896,20.358
	C221.652,364.507,232.556,340.502,241.198,316.199L241.198,316.199z M202.436,116.431h65.625v18.438h-38.938v14.938h33.25v17.375
	h-33.25v35.125h-26.688V116.431L202.436,116.431z M109.283,116.431h39.443c7.775,0,14.056,1.055,18.844,3.163
	c4.785,2.109,8.742,5.136,11.867,9.08c3.125,3.944,5.393,8.533,6.799,13.766s2.109,10.778,2.109,16.635
	c0,9.178-1.046,16.295-3.135,21.352c-2.091,5.058-4.992,9.295-8.703,12.712c-3.712,3.417-7.697,5.691-11.956,6.824
	c-5.821,1.563-11.096,2.343-15.823,2.343h-39.445V116.431z M87.245,163.111c-5.21,4.881-13.161,7.32-23.854,7.32H48.873v31.875
	H22.186v-85.875h44.111c9.607,0,16.803,2.284,21.587,6.853c4.785,4.569,7.177,11.07,7.177,19.503
	C95.061,151.456,92.455,158.23,87.245,163.111z"/>
<g id="XMLID_4_">
	<g>
		<path d="M948.002,115.813c0,96,0,192,0,288c-53.359,0-106.72,0-160.08,0c0,16,0,32,0,48c-5.33,0-11.359,0-17.279,0
			c-5.961,0-12.319,0.84-17.281,0c-0.81-0.14-1.21-0.8-1.68-0.96c-1.49-0.5-3.73,0.32-4.56-1.2c-1.95,0.19-3.46-0.06-4.32-0.96
			c-1.12,0-2.24,0-3.36,0c-0.94,0.38-0.08-1.04-0.72-0.96c-1.36,0-2.72,0-4.08,0c-1.09,0.45-0.42-0.859-0.96-0.96
			c-3.37,0.5-4.18-1.58-7.68-0.96c-1.22-1.5-4.79-0.64-6-2.16c-1.12,0-2.24,0-3.36,0c-1.09,0.45-0.42-0.859-0.96-0.96
			c-1.12,0-2.24,0-3.36,0c-0.94,0.38-0.08-1.04-0.72-0.96c-1.28,0-2.56,0-3.84,0c-1.09,0.45-0.42-0.859-0.96-0.96
			c-3.42,0.46-4.32-1.6-7.92-0.96c-1.21-1.521-4.78-0.66-6-2.16c-1.04,0-2.08,0-3.12,0c-0.85-0.91-2.35-1.17-4.32-0.96
			c-0.94,0.38-0.08-1.04-0.72-0.96c-1.36,0-2.72,0-4.08,0c-1.09,0.45-0.42-0.859-0.96-0.96c-3.37,0.5-4.18-1.58-7.68-0.96
			c-1.22-1.5-4.79-0.64-6-2.16c-1.12,0-2.24,0-3.36,0c-1.09,0.45-0.42-0.859-0.96-0.96c-1.04,0-2.08,0-3.12,0
			c-1.09,0.45-0.42-0.859-0.96-0.96c-1.36,0-2.72,0-4.08,0c-0.94,0.38-0.08-1.04-0.72-0.96c-3.42,0.46-4.32-1.6-7.92-0.96
			c-1.21-1.521-4.78-0.66-6-2.16c-1.04,0-2.08,0-3.12,0c-0.85-0.99-2.55-1.13-4.56-0.96c-0.94,0.38-0.08-1.04-0.72-0.96
			c-1.28,0-2.56,0-3.84,0c-1.09,0.45-0.42-0.859-0.96-0.96c-1.77,0.01-3.81,0.29-4.32-0.96c-1.12,0-2.24,0-3.36,0
			c-1.12-1.6-4.96-0.479-6-2.16c-3.53,0.65-4.4-1.359-7.68-0.96c-0.94,0.38-0.08-1.04-0.72-0.96c-1.28,0-2.56,0-3.84,0
			c-1.09,0.45-0.42-0.859-0.96-0.96c-1.82-0.021-4.03,0.351-4.56-0.96c-1.12,0-2.24,0-3.36,0c-1.21-1.521-4.78-0.66-6-2.16
			c-1.04,0-2.08,0-3.12,0c-1.04-0.8-2.51-1.17-4.56-0.96c-1.01,0.37,0.05-1.33-0.96-0.96c-1.2,0-2.4,0-3.6,0
			c-1.09,0.45-0.42-0.859-0.96-0.96c-3.34,0.38-4.52-1.399-7.68-1.2c0-99.919,0-199.84,0-299.76c1.12,0,2.24,0,3.36,0
			c0.85-1.7,4.53-0.59,5.52-2.16c1.04,0,2.08,0,3.12,0c0.85-0.99,2.55-1.13,4.56-0.96c0.94,0.38,0.08-1.04,0.72-0.96
			c1.36,0,2.72,0,4.08,0c0.94,0.38,0.08-1.04,0.72-0.96c3.37,0.49,4.18-1.58,7.68-0.96c1.26-1.54,4.99-0.61,6.24-2.16
			c1.04,0,2.08,0,3.12,0c0.85-0.91,2.35-1.17,4.32-0.96c1.01,0.37-0.05-1.33,0.96-0.96c1.28,0,2.56,0,3.84,0
			c0.94,0.38,0.08-1.04,0.72-0.96c1.07-0.17,1.87,0.22,2.88,0c0.7-0.15,1.12-0.84,1.68-0.96c1.26-0.26,3.08,0.43,4.08-0.24
			c0.27-0.18,0.15-0.61,0.48-0.72c0.98-0.34,2.55,0.03,3.36-0.24c0.56-0.18,0.87-0.85,1.44-0.96c1.08-0.21,2.3,0.2,3.36,0
			c0.39-0.07,0.83-0.58,1.2-0.72c1.1-0.42,1.96-0.18,3.12-0.24c1.01,0.37-0.05-1.33,0.96-0.96c1.28,0,2.56,0,3.84,0
			c0.42-1.9,4.62-0.02,5.04-1.92c1.12,0,2.24,0,3.36,0c1.43-1.37,4.88-0.72,6.24-2.16c3.44,0.64,4.2-1.4,7.44-0.96
			c1.01,0.37-0.05-1.33,0.96-0.96c1.36,0,2.72,0,4.08,0c0.94,0.38,0.08-1.04,0.72-0.96c1.77,0.01,3.81,0.29,4.32-0.96
			c1.04,0,2.08,0,3.12,0c1.44-1.36,4.9-0.7,6.24-2.16c3.53,0.65,4.4-1.36,7.68-0.96c1.01,0.37-0.05-1.33,0.96-0.96
			c1.28,0,2.56,0,3.84,0c0.42-1.9,4.62-0.02,5.04-1.92c1.12,0,2.24,0,3.36,0c1.43-1.37,4.88-0.72,6.24-2.16
			c3.44,0.64,4.2-1.4,7.44-0.96c0.94,0.38,0.08-1.04,0.72-0.96c1.44,0,2.88,0,4.32,0c0.94,0.38,0.08-1.04,0.72-0.96
			c1.77,0.01,3.81,0.29,4.32-0.96c1.04,0,2.08,0,3.12,0c1.44-1.36,4.9-0.7,6.24-2.16c3.73,0.61,4.73-1.51,8.4-0.96
			c0.939,0.38,0.08-1.04,0.72-0.96c1.47-0.21,4.01,0.65,4.08-0.96c1.2-0.16,3.03,0.31,3.84-0.24c-0.02-0.34-0.04-0.68,0.24-0.72
			c11.92,0,23.84,0,35.76,0c0,16,0,32,0,48C841.282,115.813,894.643,115.813,948.002,115.813z M915.842,371.653
			c0-74.64,0-149.28,0-223.92c-42.56,0-85.12,0-127.68,0c-0.28,0.04-0.26,0.38-0.24,0.72c0,5.12,0,10.24,0,15.36
			c10.561,0.16,21.76-0.32,31.92,0.24c-0.16,10.479,0.32,21.6-0.24,31.68c-10.56,0-21.119,0-31.68,0c0,5.36,0,10.72,0,16.08
			c10.561,0.16,21.76-0.32,31.92,0.24c0,10.56,0,21.12,0,31.68c-10.64,0-21.279,0-31.92,0c0,5.36,0,10.72,0,16.08
			c10.641,0,21.28,0,31.92,0c-0.16,10.56,0.32,21.76-0.24,31.92c-10.56,0-21.119,0-31.68,0c0,5.36,0,10.72,0,16.08
			c10.641,0,21.28,0,31.92,0c-0.16,10.56,0.32,21.76-0.24,31.92c-10.56,0-21.119,0-31.68,0c0,10.64,0,21.28,0,31.92
			C830.563,371.653,873.202,371.653,915.842,371.653z M756.002,418.693c0-106,0-212,0-318c-1.91,0.17-4.7-0.54-5.28,0.96
			c-2.21-0.57-3.33,0.64-4.32,0.96c-1.39,0.44-3.43-0.04-4.08,0.24c-0.55,0.24-0.38,0.83-0.96,0.96c-0.99,0.22-2.14-0.2-3.12,0
			c-0.29,0.06-0.42,0.55-0.96,0.72c-1.23,0.38-2.54,0.21-4.08,0.24c0.06,1.93-2.92,0.41-4.08,0.96c-0.73,0.35,0.5,1.02-0.72,0.96
			c-2,0-4.25-0.25-5.04,0.96c-2.5-0.58-3.69,0.6-4.8,0.96c-1.03,0.33-2.58-0.04-3.36,0.24c-0.62,0.22-0.73,0.83-1.44,0.96
			c-1.05,0.19-2.25-0.14-3.6,0c0.06,1.93-2.92,0.41-4.08,0.96c-0.73,0.35,0.5,1.02-0.72,0.96c-1.36,0-2.72,0-4.08,0
			c-0.64-0.08,0.22,1.34-0.72,0.96c-1.77-0.01-3.81-0.29-4.32,0.96c-1.12,0-2.24,0-3.36,0c-1.17,1.71-5.31,0.45-6.48,2.16
			c-3.54-0.5-4.49,1.59-8.16,0.96c0.06,1.93-2.92,0.41-4.08,0.96c-0.73,0.35,0.5,1.02-0.72,0.96c-3.67-0.63-4.62,1.46-8.16,0.96
			c-0.76-0.12-0.09,1.19-0.96,0.96c-3.63-0.51-4.57,1.67-8.16,1.2c-0.14,0.66-0.85,0.75-1.44,0.96c-1.2,0-2.4,0-3.6,0
			c-0.18,1.74-3.17,0.67-4.8,0.96c-0.64-0.08,0.22,1.34-0.72,0.96c-1.78-0.1-3.42-0.06-4.08,0.96c-1.32,0.15-2.52-0.21-3.6,0
			c-0.43,0.08-0.88,0.78-1.44,0.96c-1.07,0.34-2.55-0.05-3.36,0.24c-0.6,0.21-0.77,0.84-1.44,0.96c-0.99,0.18-2.15-0.13-3.36,0
			c-0.67,1.09-2.49,1.03-4.32,0.96c-0.64-0.08,0.22,1.34-0.72,0.96c-1.36,0-2.72,0-4.08,0c-0.64-0.08,0.22,1.34-0.72,0.96
			c-1.2,0-2.4,0-3.6,0c-0.86,0.82-2.17,1.19-4.08,0.96c-1.12,1.04-3.05,1.27-5.28,1.2c-0.9-0.18-0.17,1.27-1.2,0.96
			c-2.02-0.18-3.66,0.02-4.56,0.96c-1.28,0-2.56,0-3.84,0c0,83.28,0,166.561,0,249.84c2.12,0.12,4.55-0.069,5.52,1.2
			c3.54-0.5,4.49,1.59,8.16,0.96c0.64-0.08-0.22,1.34,0.72,0.96c1.69-0.01,3.67-0.31,4.08,0.96c2,0,4.25-0.25,5.04,0.96
			c2.41-0.62,3.87,0.66,4.8,0.96c0.87,0.28,2.35-0.13,3.36,0.24c0.6,0.22,0.68,0.86,1.2,0.96c1.18,0.22,2.39-0.16,3.84,0
			c0.16,1.52,2.55,0.8,4.08,0.96c0.64-0.08-0.22,1.34,0.72,0.96c1.44,0,2.88,0,4.32,0c0.64-0.08-0.22,1.34,0.72,0.96
			c1.97-0.21,3.47,0.05,4.32,0.96c2.35-0.6,3.65,0.67,4.56,0.96c0.87,0.28,2.35-0.13,3.36,0.24c0.64,0.24,0.68,0.86,1.2,0.96
			c1.19,0.229,2.37-0.17,3.84,0c0.5,1.42,3,0.84,4.8,0.96c0.64-0.08-0.22,1.34,0.72,0.96c1.69-0.01,3.67-0.311,4.08,0.96
			c3.67-0.63,4.62,1.46,8.16,0.96c0.76-0.04,0.1,1.34,1.2,0.96c3.55-0.43,4.5,1.74,8.16,1.2c0.21,0.43,0.53,0.75,0.96,0.96
			c1.28,0,2.56,0,3.84,0c0.64-0.08-0.22,1.34,0.72,0.96c1.36,0,2.72,0,4.08,0c0.64-0.08-0.22,1.34,0.72,0.96
			c1.84-0.08,3.59-0.07,4.32,0.96c1.12,0,2.24,0,3.36,0c1.22,1.5,4.79,0.64,6,2.16c3.6-0.641,4.5,1.42,7.92,0.96
			c0.64-0.08-0.22,1.34,0.72,0.96c1.81,0.109,4.34-0.5,4.8,0.96c1.2,0,2.4,0,3.6,0c0.68,0.12,0.87,0.729,1.44,0.96
			c3.47-0.35,4.53,1.7,8.16,1.2c0.49,0.148,0.07,1.21,0.96,0.96c3.54-0.5,4.49,1.59,8.16,0.96c0.64-0.08-0.22,1.34,0.72,0.96
			c1.12,0,2.24,0,3.36,0C750.972,419.434,754.972,418.554,756.002,418.693z"/>
		<path fill="#FFFFFF" d="M915.842,147.733c0,74.64,0,149.28,0,223.92c-42.64,0-85.279,0-127.92,0c0-10.64,0-21.28,0-31.92
			c10.561,0,21.12,0,31.68,0c0.562-10.16,0.08-21.36,0.24-31.92c-10.64,0-21.279,0-31.92,0c0-5.36,0-10.72,0-16.08
			c10.561,0,21.12,0,31.68,0c0.562-10.16,0.08-21.36,0.24-31.92c-10.64,0-21.279,0-31.92,0c0-5.36,0-10.72,0-16.08
			c10.641,0,21.28,0,31.92,0c0-10.56,0-21.12,0-31.68c-10.16-0.56-21.359-0.08-31.92-0.24c0-5.36,0-10.72,0-16.08
			c10.561,0,21.12,0,31.68,0c0.562-10.08,0.08-21.2,0.24-31.68c-10.16-0.56-21.359-0.08-31.92-0.24c0-5.12,0-10.24,0-15.36
			c-0.02-0.34-0.04-0.68,0.24-0.72C830.722,147.733,873.282,147.733,915.842,147.733z M900.002,339.733c0-10.64,0-21.28,0-31.92
			c-21.28,0-42.561,0-63.84,0c-0.28,0.04-0.26,0.38-0.24,0.72c0,10.4,0,20.801,0,31.2
			C857.282,339.733,878.643,339.733,900.002,339.733z M900.002,291.733c0-10.64,0-21.28,0-31.92c-21.28,0-42.561,0-63.84,0
			c-0.28,0.04-0.26,0.38-0.24,0.72c0,10.4,0,20.801,0,31.2C857.282,291.733,878.643,291.733,900.002,291.733z M900.002,243.733
			c0-10.64,0-21.28,0-31.92c-21.28,0-42.561,0-63.84,0c-0.28,0.04-0.26,0.38-0.24,0.72c0,10.4,0,20.8,0,31.2
			C857.282,243.733,878.643,243.733,900.002,243.733z M900.002,195.733c0-10.64,0-21.28,0-31.92c-21.28,0-42.561,0-63.84,0
			c-0.28,0.04-0.26,0.38-0.24,0.72c0,10.4,0,20.8,0,31.2C857.282,195.733,878.643,195.733,900.002,195.733z"/>
		<path d="M900.002,307.813c0,10.64,0,21.28,0,31.92c-21.359,0-42.72,0-64.08,0c0-10.399,0-20.8,0-31.2
			c-0.02-0.34-0.04-0.68,0.24-0.72C857.441,307.813,878.722,307.813,900.002,307.813z"/>
		<path d="M900.002,259.813c0,10.64,0,21.28,0,31.92c-21.359,0-42.72,0-64.08,0c0-10.399,0-20.8,0-31.2
			c-0.02-0.34-0.04-0.68,0.24-0.72C857.441,259.813,878.722,259.813,900.002,259.813z"/>
		<path d="M900.002,211.813c0,10.64,0,21.28,0,31.92c-21.359,0-42.72,0-64.08,0c0-10.4,0-20.8,0-31.2
			c-0.02-0.34-0.04-0.68,0.24-0.72C857.441,211.813,878.722,211.813,900.002,211.813z"/>
		<path d="M900.002,163.813c0,10.64,0,21.28,0,31.92c-21.359,0-42.72,0-64.08,0c0-10.4,0-20.8,0-31.2
			c-0.02-0.34-0.04-0.68,0.24-0.72C857.441,163.813,878.722,163.813,900.002,163.813z"/>
		<path fill="#FFFFFF" d="M756.002,100.693c0,106,0,212,0,318c-1.03-0.14-5.03,0.74-5.28-0.96c-1.12,0-2.24,0-3.36,0
			c-0.94,0.38-0.08-1.04-0.72-0.96c-3.67,0.63-4.62-1.46-8.16-0.96c-0.89,0.25-0.47-0.811-0.96-0.96c-3.63,0.5-4.69-1.55-8.16-1.2
			c-0.57-0.229-0.76-0.84-1.44-0.96c-1.2,0-2.4,0-3.6,0c-0.46-1.46-2.99-0.85-4.8-0.96c-0.94,0.38-0.08-1.04-0.72-0.96
			c-3.42,0.46-4.32-1.6-7.92-0.96c-1.21-1.521-4.78-0.66-6-2.16c-1.12,0-2.24,0-3.36,0c-0.73-1.029-2.48-1.04-4.32-0.96
			c-0.94,0.38-0.08-1.04-0.72-0.96c-1.36,0-2.72,0-4.08,0c-0.94,0.38-0.08-1.04-0.72-0.96c-1.28,0-2.56,0-3.84,0
			c-0.43-0.21-0.75-0.53-0.96-0.96c-3.66,0.54-4.61-1.63-8.16-1.2c-1.1,0.38-0.439-1-1.2-0.96c-3.54,0.5-4.49-1.59-8.16-0.96
			c-0.41-1.27-2.39-0.97-4.08-0.96c-0.94,0.38-0.08-1.04-0.72-0.96c-1.8-0.12-4.3,0.46-4.8-0.96c-1.47-0.17-2.65,0.229-3.84,0
			c-0.52-0.1-0.56-0.72-1.2-0.96c-1.01-0.37-2.49,0.04-3.36-0.24c-0.91-0.29-2.21-1.56-4.56-0.96c-0.85-0.91-2.35-1.17-4.32-0.96
			c-0.94,0.38-0.08-1.04-0.72-0.96c-1.44,0-2.88,0-4.32,0c-0.94,0.38-0.08-1.04-0.72-0.96c-1.53-0.16-3.92,0.561-4.08-0.96
			c-1.45-0.16-2.66,0.221-3.84,0c-0.52-0.1-0.6-0.74-1.2-0.96c-1.01-0.37-2.49,0.04-3.36-0.24c-0.93-0.3-2.39-1.579-4.8-0.96
			c-0.79-1.21-3.04-0.96-5.04-0.96c-0.41-1.27-2.39-0.97-4.08-0.96c-0.94,0.38-0.08-1.04-0.72-0.96c-3.67,0.63-4.62-1.46-8.16-0.96
			c-0.97-1.271-3.4-1.08-5.52-1.2c0-83.279,0-166.56,0-249.84c1.28,0,2.56,0,3.84,0c0.9-0.939,2.54-1.14,4.56-0.96
			c1.03,0.31,0.3-1.14,1.2-0.96c2.23,0.07,4.16-0.16,5.28-1.2c1.91,0.23,3.22-0.14,4.08-0.96c1.2,0,2.4,0,3.6,0
			c0.94,0.38,0.08-1.04,0.72-0.96c1.36,0,2.72,0,4.08,0c0.94,0.38,0.08-1.04,0.72-0.96c1.83,0.07,3.65,0.13,4.32-0.96
			c1.21-0.13,2.37,0.18,3.36,0c0.67-0.12,0.84-0.75,1.44-0.96c0.81-0.29,2.29,0.1,3.36-0.24c0.56-0.18,1.01-0.88,1.44-0.96
			c1.08-0.21,2.28,0.15,3.6,0c0.66-1.02,2.3-1.06,4.08-0.96c0.94,0.38,0.08-1.04,0.72-0.96c1.63-0.29,4.62,0.78,4.8-0.96
			c1.2,0,2.4,0,3.6,0c0.59-0.21,1.3-0.3,1.44-0.96c3.59,0.47,4.53-1.71,8.16-1.2c0.87,0.23,0.2-1.08,0.96-0.96
			c3.54,0.5,4.49-1.59,8.16-0.96c1.22,0.06-0.01-0.61,0.72-0.96c1.16-0.55,4.14,0.97,4.08-0.96c3.67,0.63,4.62-1.46,8.16-0.96
			c1.17-1.71,5.31-0.45,6.48-2.16c1.12,0,2.24,0,3.36,0c0.51-1.25,2.55-0.97,4.32-0.96c0.94,0.38,0.08-1.04,0.72-0.96
			c1.36,0,2.72,0,4.08,0c1.22,0.06-0.01-0.61,0.72-0.96c1.16-0.55,4.14,0.97,4.08-0.96c1.35-0.14,2.55,0.19,3.6,0
			c0.71-0.13,0.82-0.74,1.44-0.96c0.78-0.28,2.33,0.09,3.36-0.24c1.11-0.36,2.3-1.54,4.8-0.96c0.79-1.21,3.04-0.96,5.04-0.96
			c1.22,0.06-0.01-0.61,0.72-0.96c1.16-0.55,4.14,0.97,4.08-0.96c1.54-0.03,2.85,0.14,4.08-0.24c0.54-0.17,0.67-0.66,0.96-0.72
			c0.979-0.2,2.13,0.22,3.12,0c0.58-0.13,0.41-0.72,0.96-0.96c0.649-0.28,2.689,0.2,4.08-0.24c0.99-0.32,2.11-1.53,4.32-0.96
			C751.302,100.153,754.092,100.863,756.002,100.693z M726.962,339.733c0-0.64,0-1.28,0-1.92c-1.4,0.438-0.87-1.05-0.96-1.92
			c-1.02-0.101-1.19-1.05-1.2-2.16c-1.4,0.44-0.87-1.05-0.96-1.92c-1.4,0.438-0.87-1.05-0.96-1.92c-1.47,0.35-0.65-1.59-1.92-1.44
			c0-0.56,0-1.119,0-1.68c-0.92-0.04-1.13-0.79-0.96-1.92c-1.02-0.102-1.19-1.05-1.2-2.16c-1.4,0.439-0.87-1.05-0.96-1.92
			c-1.25,0.29-0.93-0.99-0.96-1.92c-1.49,0.449-0.82-1.26-0.96-2.16c-0.36-0.04-0.89,0.09-0.96-0.24c-0.68-3.56-3.51-4.97-4.08-8.64
			c-1.49,0.45-0.82-1.261-0.96-2.16c-1.4,0.44-0.87-1.05-0.96-1.92c-1.4,0.44-0.87-1.05-0.96-1.92c-1.39,0.271-1.07-1.17-1.2-2.16
			c-1.4,0.44-0.87-1.05-0.96-1.92c-1.4,0.44-0.87-1.05-0.96-1.92c-1.47,0.351-0.65-1.59-1.92-1.44c0-0.56,0-1.119,0-1.68
			c-1.4,0.439-0.87-1.05-0.96-1.92c-0.98-0.141-1.31-0.93-1.2-2.16c-1.4,0.439-0.87-1.05-0.96-1.92c-1.4,0.439-0.87-1.05-0.96-1.92
			c-1.4,0.439-0.87-1.05-0.96-1.92c-0.36-0.04-0.89,0.09-0.96-0.24c-0.12-2.52-2.04-3.24-2.16-5.76c-1.39-0.29-1.73-1.63-1.92-3.12
			c-1.4,0.44-0.87-1.05-0.96-1.92c-1.49,0.45-0.82-1.26-0.96-2.16c-1.4,0.44-0.87-1.05-0.96-1.92c-1.75,0.31-0.57-2.31-2.16-2.16
			c0-0.64,0-1.28,0-1.92c-1.4,0.44-0.87-1.05-0.96-1.92c-1.81,0.45-0.25-2.47-1.92-2.16c0-0.32,0-0.64,0-0.96
			c1.4,0.44,0.87-1.05,0.96-1.92c0.32,0,0.64,0,0.96,0c0-0.64,0-1.28,0-1.92c0.32,0,0.64,0,0.96,0c0-0.64,0-1.28,0-1.92
			c1.02-0.1,1.19-1.05,1.2-2.16c0.32,0,0.64,0,0.96,0c0-0.64,0-1.28,0-1.92c1.25,0.29,0.93-0.99,0.96-1.92c0.32,0,0.64,0,0.96,0
			c0-0.72,0-1.44,0-2.16c0.32,0,0.64,0,0.96,0c0.18-0.78-0.14-2.06,0.96-1.92c0.13-3.31,3-3.88,3.12-7.2c0.32,0,0.64,0,0.96,0
			c0-0.64,0-1.28,0-1.92c0.32,0,0.64,0,0.96,0c0-0.64,0-1.28,0-1.92c0.32,0,0.64,0,0.96,0c0-0.64,0-1.28,0-1.92
			c0.32,0,0.64,0,0.96,0c-0.19-0.99,0.37-1.23,0.24-2.16c0.32,0,0.64,0,0.96,0c0-0.64,0-1.28,0-1.92c0.32,0,0.64,0,0.96,0
			c0-0.64,0-1.28,0-1.92c0.32,0,0.64,0,0.96,0c0-0.72,0-1.44,0-2.16c0.32,0,0.64,0,0.96,0c0.18-0.78-0.14-2.06,0.96-1.92
			c0.26-1.82,0.91-3.25,2.16-4.08c0-0.64,0-1.28,0-1.92c1.64,0.6,0.28-1.8,1.92-1.2c0-0.64,0-1.28,0-1.92c0.32,0,0.64,0,0.96,0
			c0-0.64,0-1.28,0-1.92c0.32,0,0.64,0,0.96,0c0-0.64,0-1.28,0-1.92c0.32,0,0.64,0,0.96,0c-0.13-0.93,0.43-1.17,0.24-2.16
			c0.32,0,0.64,0,0.96,0c0-0.64,0-1.28,0-1.92c0.32,0,0.64,0,0.96,0c0-0.64,0-1.28,0-1.92c0.32,0,0.64,0,0.96,0
			c0-0.64,0-1.28,0-1.92c0.32,0,0.64,0,0.96,0c-0.02-2.74,2.05-3.39,2.16-6c0.32,0,0.64,0,0.96,0c0-0.64,0-1.28,0-1.92
			c1.49,0.45,0.35-1.73,1.92-1.2c0-0.72,0-1.44,0-2.16c0.32,0,0.64,0,0.96,0c0-0.64,0-1.28,0-1.92c0.32,0,0.64,0,0.96,0
			c0-0.64,0-1.28,0-1.92c0.32,0,0.64,0,0.96,0c0.01-1.11,0.18-2.06,1.2-2.16c0-0.64,0-1.28,0-1.92c-4.17,0.23-7.2,1.6-12,1.2
			c-1.04,1.92-5.38,0.54-7.92,0.96c-1.16,1.88-5.52,0.56-8.16,0.96c-0.04,0.36,0.09,0.89-0.24,0.96c-2.56,0-5.12,0-7.68,0
			c-0.26,1.82-0.91,3.25-2.16,4.08c0,0.64,0,1.28,0,1.92c-0.32,0-0.64,0-0.96,0c0,0.64,0,1.28,0,1.92c-0.32,0-0.64,0-0.96,0
			c0,0.72,0,1.44,0,2.16c-0.32,0-0.64,0-0.96,0c0,0.64,0,1.28,0,1.92c-0.32,0-0.64,0-0.96,0c-0.08,0.96,0.39,2.47-0.96,2.16
			c0.59,2.59-1.69,2.31-1.2,4.8c-0.32,0-0.64,0-0.96,0c0,0.64,0,1.28,0,1.92c-0.32,0-0.64,0-0.96,0c0,0.72,0,1.44,0,2.16
			c-0.32,0-0.64,0-0.96,0c0,0.64,0,1.28,0,1.92c-0.32,0-0.64,0-0.96,0c0,0.72,0,1.44,0,2.16c-0.32,0-0.64,0-0.96,0
			c-0.02,1.02-0.4,1.68-0.24,2.88c-0.32,0-0.64,0-0.96,0c0,0.64,0,1.28,0,1.92c-0.32,0-0.64,0-0.96,0c0,0.72,0,1.44,0,2.16
			c-0.32,0-0.64,0-0.96,0c0,0.64,0,1.28,0,1.92c-0.32,0-0.64,0-0.96,0c0,0.64,0,1.28,0,1.92c-0.32,0-0.64,0-0.96,0
			c0,0.72,0,1.44,0,2.16c-0.32,0-0.64,0-0.96,0c0.08,2.08-1.71,2.29-1.2,4.8c-0.42-0.02-0.75,0.05-0.96,0.24c0,0.96,0,1.92,0,2.88
			c-0.32,0-0.64,0-0.96,0c0,0.96,0,1.92,0,2.88c-0.32,0-0.64,0-0.96,0c0,1.04,0,2.08,0,3.12c-0.32,0-0.64,0-0.96,0
			c-0.23,1.05,0.59,3.15-0.72,3.12c-0.65-1.59-1.87-2.61-1.44-5.28c-1.48-0.11-0.77-2.43-0.96-3.84c-1.7,0.42-0.69-1.87-0.96-2.88
			c-0.36-0.04-0.89,0.09-0.96-0.24c0.02-1.38,0.07-2.79-0.96-3.12c0.58-3.3-1.67-3.77-1.2-6.96c-1.57-0.03-0.74-2.46-0.96-3.84
			c-1.48-0.12-0.77-2.43-0.96-3.84c-1.75,0.39-0.66-2.06-0.96-3.12c-0.36-0.04-0.89,0.09-0.96-0.24c-0.06-1.62,0.31-3.67-0.96-4.08
			c0.29-4.61-2.59-6.05-2.16-10.8c-1.1,0.14-0.89-1.03-0.96-1.92c-4.25,0.48-8.18,1.26-12.96,1.2c-0.04,0.28,0.04,0.68-0.24,0.72
			c-2.81-0.17-4.87,0.41-7.68,0.24c-0.04,0.28,0.04,0.68-0.24,0.72c-2.66,0.3-5.66,0.26-8.64,0.24c-0.45,1.63-3.46,0.7-5.28,0.96
			c0,0.96,0,1.92,0,2.88c0.36,0.04,0.89-0.09,0.96,0.24c-0.08,2.08,1.71,2.29,1.2,4.8c1.4-0.44,0.87,1.05,0.96,1.92
			c1.49-0.45,0.82,1.26,0.96,2.16c0.36,0.04,0.89-0.09,0.96,0.24c-0.2,1.24,0.11,1.97,0.96,2.16c-0.43,2.35,1.45,2.39,1.2,4.56
			c0.36,0.04,0.89-0.09,0.96,0.24c-0.37,1.97,1.35,1.85,0.96,3.84c1.7-0.42,0.69,1.87,0.96,2.88c1.4-0.44,0.87,1.05,0.96,1.92
			c1.49-0.45,0.82,1.26,0.96,2.16c0.36,0.04,0.89-0.09,0.96,0.24c-0.08,2,1.69,2.15,1.2,4.56c1.35-0.31,0.88,1.2,0.96,2.16
			c1.4-0.44,0.87,1.05,0.96,1.92c1.49-0.45,0.82,1.26,0.96,2.16c0.36,0.04,0.89-0.09,0.96,0.24c-0.36,3.32,2.33,3.59,2.16,6.72
			c1.14-0.1,0.82,1.26,0.96,2.16c1.64-0.44,0.73,1.67,0.96,2.64c1.49-0.45,0.82,1.26,0.96,2.16c1.4-0.44,0.87,1.05,0.96,1.92
			c0.36,0.04,0.89-0.09,0.96,0.24c-0.08,2.08,1.71,2.29,1.2,4.8c1.81-0.45,0.25,2.47,1.92,2.16c0,0.64,0,1.28,0,1.92
			c-1.4-0.44-0.87,1.05-0.96,1.92c-0.32,0-0.64,0-0.96,0c0,0.641,0,1.28,0,1.92c-1.02,0.102-1.19,1.051-1.2,2.16
			c-0.32,0-0.64,0-0.96,0c0,0.641,0,1.28,0,1.92c-1.35-0.31-0.88,1.2-0.96,2.16c-0.32,0-0.64,0-0.96,0c0,0.641,0,1.28,0,1.92
			c-0.32,0-0.64,0-0.96,0c0,0.641,0,1.28,0,1.92c-0.32,0-0.64,0-0.96,0c0,0.641,0,1.28,0,1.92c-1.02,0.102-1.19,1.051-1.2,2.16
			c-0.32,0-0.64,0-0.96,0c0,0.641,0,1.28,0,1.92c-1.35-0.31-0.88,1.2-0.96,2.16c-0.32,0-0.64,0-0.96,0c0,0.641,0,1.28,0,1.92
			c-0.32,0-0.64,0-0.96,0c0,0.641,0,1.28,0,1.92c-0.32,0-0.64,0-0.96,0c0,0.641,0,1.28,0,1.92c-1.02,0.102-1.19,1.051-1.2,2.16
			c-0.32,0-0.64,0-0.96,0c0,0.641,0,1.28,0,1.92c-1.35-0.31-0.88,1.2-0.96,2.16c-0.32,0-0.64,0-0.96,0c0,0.641,0,1.28,0,1.92
			c-0.32,0-0.64,0-0.96,0c0,0.641,0,1.28,0,1.92c-0.32,0-0.64,0-0.96,0c0,0.641,0,1.28,0,1.92c-1.02,0.102-1.19,1.051-1.2,2.16
			c-0.32,0-0.64,0-0.96,0c0,0.641,0,1.28,0,1.92c-1.35-0.31-0.88,1.2-0.96,2.16c-0.32,0-0.64,0-0.96,0c0,0.641,0,1.28,0,1.92
			c-0.32,0-0.64,0-0.96,0c0,0.641,0,1.28,0,1.92c-0.32,0-0.64,0-0.96,0c0,0.641,0,1.28,0,1.92c-1.02,0.102-1.19,1.051-1.2,2.16
			c-0.32,0-0.64,0-0.96,0c0,0.641,0,1.28,0,1.92c-1.35-0.31-0.88,1.2-0.96,2.16c-0.32,0-0.64,0-0.96,0c0,0.641,0,1.28,0,1.92
			c-0.32,0-0.64,0-0.96,0c0.54,1.74-0.75,1.65-0.96,2.641c1,0.76,3.97-0.449,4.08,1.199c3.22-0.18,5.71,0.37,8.88,0.24
			c0,0.24,0,0.479,0,0.72c2.78,0.261,5.8,0.28,8.88,0.24c1.16,1.88,5.521,0.56,8.16,0.96c0,0.32,0,0.641,0,0.96c1.6,0,3.2,0,4.8,0
			c-0.1-1.14,0.43-1.649,0.24-2.88c0.42,0.02,0.75-0.05,0.96-0.24c0-0.96,0-1.92,0-2.88c0.32,0,0.64,0,0.96,0c0-0.72,0-1.44,0-2.16
			c0.32,0,0.64,0,0.96,0c0-0.96,0-1.92,0-2.88c0.32,0,0.64,0,0.96,0c0-0.96,0-1.92,0-2.88c0.32,0,0.64,0,0.96,0
			c-0.55-2.95,1.66-3.14,1.2-6c0.32,0,0.64,0,0.96,0c0-0.96,0-1.92,0-2.88c1.43,0.311,0.84-1.4,0.96-2.4c0.32,0,0.64,0,0.96,0
			c0-0.96,0-1.92,0-2.88c0.32,0,0.64,0,0.96,0c0-0.96,0-1.92,0-2.88c0.32,0,0.64,0,0.96,0c-0.55-2.95,1.66-3.141,1.2-6
			c0.32,0,0.64,0,0.96,0c0-0.96,0-1.92,0-2.88c0.42,0.021,0.75-0.05,0.96-0.24c0-0.96,0-1.92,0-2.88c0.32,0,0.64,0,0.96,0
			c0-0.96,0-1.92,0-2.88c0.32,0,0.64,0,0.96,0c-0.22-2.46,0.79-3.69,1.68-5.04c0.37,1.47,0.4,3.279,0.48,5.04
			c1.64,0.28,0.7,3.14,0.96,4.8c1.49-0.449,0.82,1.26,0.96,2.16c1.4-0.439,0.87,1.05,0.96,1.92c0.36,0.04,0.89-0.09,0.96,0.24
			c-0.2,1.238,0.11,1.97,0.96,2.16c-0.479,2.398,1.53,2.31,1.2,4.56c1.4-0.44,0.87,1.05,0.96,1.92c1.35-0.31,0.88,1.2,0.96,2.16
			c1.4-0.44,0.87,1.05,0.96,1.92c0.36,0.04,0.89-0.09,0.96,0.24c-0.01,4.01,2.86,5.14,3.12,8.88c1.47-0.12,0.41,2.311,1.92,2.16
			c0,0.88,0,1.76,0,2.64c0.36,0.04,0.89-0.09,0.96,0.24c-0.17,1.771,1.52,1.68,0.96,3.84c0.36,0.04,0.89-0.09,0.96,0.24
			c-0.18,1.858,1.78,1.58,1.2,3.84c1.47-0.12,0.41,2.31,1.92,2.16c0,0.88,0,1.76,0,2.64c0.36,0.04,0.89-0.09,0.96,0.24
			c-0.26,1.859,1.43,1.77,0.96,3.84c1.48,0.2,3.93-0.57,4.08,0.96c2.54,0.42,6.88-0.96,7.92,0.96c2.97-0.17,5.19,0.41,8.16,0.24
			c0,0.24,0,0.479,0,0.72c2.52,0.2,5.13,0.312,7.92,0.24c1.09,1.87,5.35,0.569,7.92,0.96c0,0.32,0,0.641,0,0.96
			C724.882,339.733,725.922,339.733,726.962,339.733z"/>
		<path d="M726.962,337.813c0,0.64,0,1.28,0,1.92c-1.04,0-2.08,0-3.12,0c0-0.319,0-0.64,0-0.96c-2.57-0.391-6.83,0.91-7.92-0.96
			c-2.79,0.07-5.4-0.04-7.92-0.24c0-0.239,0-0.479,0-0.72c-2.97,0.17-5.19-0.41-8.16-0.24c-1.04-1.92-5.38-0.54-7.92-0.96
			c-0.15-1.53-2.6-0.76-4.08-0.96c0.47-2.07-1.22-1.979-0.96-3.84c-0.07-0.33-0.6-0.2-0.96-0.24c0-0.88,0-1.76,0-2.64
			c-1.51,0.149-0.45-2.28-1.92-2.16c0.58-2.26-1.38-1.979-1.2-3.84c-0.07-0.33-0.6-0.2-0.96-0.24c0.56-2.159-1.13-2.069-0.96-3.84
			c-0.07-0.33-0.6-0.2-0.96-0.24c0-0.88,0-1.76,0-2.64c-1.51,0.148-0.45-2.28-1.92-2.16c-0.26-3.74-3.13-4.87-3.12-8.88
			c-0.07-0.33-0.6-0.2-0.96-0.24c-0.09-0.87,0.44-2.36-0.96-1.92c-0.08-0.96,0.39-2.47-0.96-2.16c-0.09-0.87,0.44-2.36-0.96-1.92
			c0.33-2.25-1.68-2.16-1.2-4.56c-0.85-0.19-1.16-0.922-0.96-2.16c-0.07-0.33-0.6-0.2-0.96-0.24c-0.09-0.87,0.44-2.359-0.96-1.92
			c-0.14-0.9,0.53-2.609-0.96-2.16c-0.26-1.66,0.68-4.52-0.96-4.8c-0.08-1.76-0.11-3.57-0.48-5.04c-0.89,1.35-1.9,2.58-1.68,5.04
			c-0.32,0-0.64,0-0.96,0c0,0.96,0,1.92,0,2.88c-0.32,0-0.64,0-0.96,0c0,0.96,0,1.92,0,2.88c-0.21,0.19-0.54,0.261-0.96,0.24
			c0,0.96,0,1.92,0,2.88c-0.32,0-0.64,0-0.96,0c0.46,2.86-1.75,3.051-1.2,6c-0.32,0-0.64,0-0.96,0c0,0.96,0,1.92,0,2.88
			c-0.32,0-0.64,0-0.96,0c0,0.96,0,1.921,0,2.88c-0.32,0-0.64,0-0.96,0c-0.12,1,0.47,2.711-0.96,2.4c0,0.96,0,1.92,0,2.88
			c-0.32,0-0.64,0-0.96,0c0.46,2.86-1.75,3.05-1.2,6c-0.32,0-0.64,0-0.96,0c0,0.96,0,1.92,0,2.88c-0.32,0-0.64,0-0.96,0
			c0,0.96,0,1.92,0,2.881c-0.32,0-0.64,0-0.96,0c0,0.719,0,1.439,0,2.159c-0.32,0-0.64,0-0.96,0c0,0.96,0,1.92,0,2.88
			c-0.21,0.19-0.54,0.26-0.96,0.24c0.19,1.229-0.34,1.74-0.24,2.88c-1.6,0-3.2,0-4.8,0c0-0.319,0-0.64,0-0.96
			c-2.64-0.4-7,0.92-8.16-0.96c-3.08,0.04-6.1,0.021-8.88-0.239c0-0.24,0-0.479,0-0.721c-3.17,0.13-5.66-0.42-8.88-0.24
			c-0.11-1.648-3.08-0.438-4.08-1.199c0.21-0.989,1.5-0.899,0.96-2.641c0.32,0,0.64,0,0.96,0c0-0.64,0-1.279,0-1.92
			c0.32,0,0.64,0,0.96,0c0.08-0.96-0.39-2.47,0.96-2.16c0-0.64,0-1.279,0-1.92c0.32,0,0.64,0,0.96,0c0.01-1.109,0.18-2.06,1.2-2.16
			c0-0.64,0-1.279,0-1.92c0.32,0,0.64,0,0.96,0c0-0.64,0-1.279,0-1.92c0.32,0,0.64,0,0.96,0c0-0.64,0-1.279,0-1.92
			c0.32,0,0.64,0,0.96,0c0.08-0.96-0.39-2.47,0.96-2.16c0-0.64,0-1.279,0-1.92c0.32,0,0.64,0,0.96,0c0.01-1.109,0.18-2.06,1.2-2.16
			c0-0.64,0-1.279,0-1.92c0.32,0,0.64,0,0.96,0c0-0.64,0-1.279,0-1.92c0.32,0,0.64,0,0.96,0c0-0.64,0-1.279,0-1.92
			c0.32,0,0.64,0,0.96,0c0.08-0.96-0.39-2.47,0.96-2.16c0-0.64,0-1.279,0-1.92c0.32,0,0.64,0,0.96,0c0.01-1.109,0.18-2.06,1.2-2.16
			c0-0.64,0-1.279,0-1.92c0.32,0,0.64,0,0.96,0c0-0.64,0-1.279,0-1.92c0.32,0,0.64,0,0.96,0c0-0.64,0-1.279,0-1.92
			c0.32,0,0.64,0,0.96,0c0.08-0.96-0.39-2.47,0.96-2.16c0-0.64,0-1.279,0-1.92c0.32,0,0.64,0,0.96,0c0.01-1.109,0.18-2.06,1.2-2.16
			c0-0.64,0-1.279,0-1.92c0.32,0,0.64,0,0.96,0c0-0.64,0-1.279,0-1.92c0.32,0,0.64,0,0.96,0c0-0.64,0-1.279,0-1.92
			c0.32,0,0.64,0,0.96,0c0.08-0.96-0.39-2.47,0.96-2.16c0-0.64,0-1.279,0-1.92c0.32,0,0.64,0,0.96,0c0.01-1.109,0.18-2.06,1.2-2.16
			c0-0.64,0-1.279,0-1.92c0.32,0,0.64,0,0.96,0c0.09-0.869-0.44-2.36,0.96-1.92c0-0.64,0-1.28,0-1.92
			c-1.67,0.31-0.11-2.61-1.92-2.16c0.51-2.51-1.28-2.72-1.2-4.8c-0.07-0.33-0.6-0.2-0.96-0.24c-0.09-0.87,0.44-2.36-0.96-1.92
			c-0.14-0.9,0.53-2.61-0.96-2.16c-0.23-0.97,0.68-3.08-0.96-2.64c-0.14-0.9,0.18-2.26-0.96-2.16c0.17-3.13-2.52-3.4-2.16-6.72
			c-0.07-0.33-0.6-0.2-0.96-0.24c-0.14-0.9,0.53-2.61-0.96-2.16c-0.09-0.87,0.44-2.36-0.96-1.92c-0.08-0.96,0.39-2.47-0.96-2.16
			c0.49-2.41-1.28-2.56-1.2-4.56c-0.07-0.33-0.6-0.2-0.96-0.24c-0.14-0.9,0.53-2.61-0.96-2.16c-0.09-0.87,0.44-2.36-0.96-1.92
			c-0.27-1.01,0.74-3.3-0.96-2.88c0.39-1.99-1.33-1.87-0.96-3.84c-0.07-0.33-0.6-0.2-0.96-0.24c0.25-2.17-1.63-2.21-1.2-4.56
			c-0.85-0.19-1.16-0.92-0.96-2.16c-0.07-0.33-0.6-0.2-0.96-0.24c-0.14-0.9,0.53-2.61-0.96-2.16c-0.09-0.87,0.44-2.36-0.96-1.92
			c0.51-2.51-1.28-2.72-1.2-4.8c-0.07-0.33-0.6-0.2-0.96-0.24c0-0.96,0-1.92,0-2.88c1.82-0.26,4.83,0.67,5.28-0.96
			c2.98,0.02,5.98,0.06,8.64-0.24c0.28-0.04,0.2-0.44,0.24-0.72c2.81,0.17,4.87-0.41,7.68-0.24c0.28-0.04,0.2-0.44,0.24-0.72
			c4.78,0.06,8.71-0.72,12.96-1.2c0.07,0.89-0.14,2.06,0.96,1.92c-0.43,4.75,2.45,6.19,2.16,10.8c1.27,0.41,0.9,2.46,0.96,4.08
			c0.07,0.33,0.6,0.2,0.96,0.24c0.3,1.06-0.79,3.51,0.96,3.12c0.19,1.41-0.52,3.72,0.96,3.84c0.22,1.38-0.61,3.81,0.96,3.84
			c-0.47,3.19,1.78,3.66,1.2,6.96c1.03,0.33,0.98,1.74,0.96,3.12c0.07,0.33,0.6,0.2,0.96,0.24c0.27,1.01-0.74,3.3,0.96,2.88
			c0.19,1.41-0.52,3.73,0.96,3.84c-0.43,2.67,0.79,3.69,1.44,5.28c1.31,0.03,0.49-2.07,0.72-3.12c0.32,0,0.64,0,0.96,0
			c0-1.04,0-2.08,0-3.12c0.32,0,0.64,0,0.96,0c0-0.96,0-1.92,0-2.88c0.32,0,0.64,0,0.96,0c0-0.96,0-1.92,0-2.88
			c0.21-0.19,0.54-0.26,0.96-0.24c-0.51-2.51,1.28-2.72,1.2-4.8c0.32,0,0.64,0,0.96,0c0-0.72,0-1.44,0-2.16c0.32,0,0.64,0,0.96,0
			c0-0.64,0-1.28,0-1.92c0.32,0,0.64,0,0.96,0c0-0.64,0-1.28,0-1.92c0.32,0,0.64,0,0.96,0c0-0.72,0-1.44,0-2.16
			c0.32,0,0.64,0,0.96,0c0-0.64,0-1.28,0-1.92c0.32,0,0.64,0,0.96,0c-0.16-1.2,0.22-1.86,0.24-2.88c0.32,0,0.64,0,0.96,0
			c0-0.72,0-1.44,0-2.16c0.32,0,0.64,0,0.96,0c0-0.64,0-1.28,0-1.92c0.32,0,0.64,0,0.96,0c0-0.72,0-1.44,0-2.16
			c0.32,0,0.64,0,0.96,0c0-0.64,0-1.28,0-1.92c0.32,0,0.64,0,0.96,0c-0.49-2.49,1.79-2.21,1.2-4.8c1.35,0.31,0.88-1.2,0.96-2.16
			c0.32,0,0.64,0,0.96,0c0-0.64,0-1.28,0-1.92c0.32,0,0.64,0,0.96,0c0-0.72,0-1.44,0-2.16c0.32,0,0.64,0,0.96,0
			c0-0.64,0-1.28,0-1.92c0.32,0,0.64,0,0.96,0c0-0.64,0-1.28,0-1.92c1.25-0.83,1.9-2.26,2.16-4.08c2.56,0,5.12,0,7.68,0
			c0.33-0.07,0.2-0.6,0.24-0.96c2.64-0.4,7,0.92,8.16-0.96c2.54-0.42,6.88,0.96,7.92-0.96c4.8,0.4,7.83-0.97,12-1.2
			c0,0.64,0,1.28,0,1.92c-1.02,0.1-1.19,1.05-1.2,2.16c-0.32,0-0.64,0-0.96,0c0,0.64,0,1.28,0,1.92c-0.32,0-0.64,0-0.96,0
			c0,0.64,0,1.28,0,1.92c-0.32,0-0.64,0-0.96,0c0,0.72,0,1.44,0,2.16c-1.57-0.53-0.43,1.65-1.92,1.2c0,0.64,0,1.28,0,1.92
			c-0.32,0-0.64,0-0.96,0c-0.11,2.61-2.18,3.26-2.16,6c-0.32,0-0.64,0-0.96,0c0,0.64,0,1.28,0,1.92c-0.32,0-0.64,0-0.96,0
			c0,0.64,0,1.28,0,1.92c-0.32,0-0.64,0-0.96,0c0,0.64,0,1.28,0,1.92c-0.32,0-0.64,0-0.96,0c0.19,0.99-0.37,1.23-0.24,2.16
			c-0.32,0-0.64,0-0.96,0c0,0.64,0,1.28,0,1.92c-0.32,0-0.64,0-0.96,0c0,0.64,0,1.28,0,1.92c-0.32,0-0.64,0-0.96,0
			c0,0.64,0,1.28,0,1.92c-1.64-0.6-0.28,1.8-1.92,1.2c0,0.64,0,1.28,0,1.92c-1.25,0.83-1.9,2.26-2.16,4.08
			c-1.1-0.14-0.78,1.14-0.96,1.92c-0.32,0-0.64,0-0.96,0c0,0.72,0,1.44,0,2.16c-0.32,0-0.64,0-0.96,0c0,0.64,0,1.28,0,1.92
			c-0.32,0-0.64,0-0.96,0c0,0.64,0,1.28,0,1.92c-0.32,0-0.64,0-0.96,0c0.13,0.93-0.43,1.17-0.24,2.16c-0.32,0-0.64,0-0.96,0
			c0,0.64,0,1.28,0,1.92c-0.32,0-0.64,0-0.96,0c0,0.64,0,1.28,0,1.92c-0.32,0-0.64,0-0.96,0c0,0.64,0,1.28,0,1.92
			c-0.32,0-0.64,0-0.96,0c-0.12,3.32-2.99,3.89-3.12,7.2c-1.1-0.14-0.78,1.14-0.96,1.92c-0.32,0-0.64,0-0.96,0c0,0.72,0,1.44,0,2.16
			c-0.32,0-0.64,0-0.96,0c-0.03,0.93,0.29,2.21-0.96,1.92c0,0.64,0,1.28,0,1.92c-0.32,0-0.64,0-0.96,0
			c-0.01,1.11-0.18,2.06-1.2,2.16c0,0.64,0,1.28,0,1.92c-0.32,0-0.64,0-0.96,0c0,0.64,0,1.28,0,1.92c-0.32,0-0.64,0-0.96,0
			c-0.09,0.87,0.44,2.36-0.96,1.92c0,0.32,0,0.64,0,0.96c1.67-0.31,0.11,2.61,1.92,2.16c0.09,0.87-0.44,2.36,0.96,1.92
			c0,0.64,0,1.28,0,1.92c1.59-0.149,0.41,2.47,2.16,2.16c0.09,0.87-0.44,2.36,0.96,1.92c0.14,0.9-0.53,2.61,0.96,2.16
			c0.09,0.87-0.44,2.36,0.96,1.92c0.19,1.49,0.53,2.83,1.92,3.12c0.12,2.52,2.04,3.24,2.16,5.76c0.07,0.33,0.6,0.2,0.96,0.24
			c0.09,0.87-0.44,2.359,0.96,1.92c0.09,0.87-0.44,2.359,0.96,1.92c0.09,0.87-0.44,2.36,0.96,1.92c-0.11,1.23,0.22,2.021,1.2,2.16
			c0.09,0.87-0.44,2.359,0.96,1.92c0,0.561,0,1.12,0,1.68c1.27-0.148,0.45,1.791,1.92,1.44c0.09,0.87-0.44,2.36,0.96,1.92
			c0.09,0.87-0.44,2.36,0.96,1.92c0.13,0.99-0.19,2.431,1.2,2.16c0.09,0.87-0.44,2.36,0.96,1.92c0.09,0.87-0.44,2.36,0.96,1.92
			c0.14,0.9-0.53,2.61,0.96,2.16c0.57,3.67,3.4,5.08,4.08,8.64c0.07,0.33,0.6,0.2,0.96,0.24c0.14,0.9-0.53,2.61,0.96,2.16
			c0.03,0.93-0.29,2.21,0.96,1.92c0.09,0.87-0.44,2.359,0.96,1.92c0.01,1.11,0.18,2.061,1.2,2.16c-0.17,1.13,0.04,1.88,0.96,1.92
			c0,0.561,0,1.12,0,1.68c1.27-0.148,0.45,1.791,1.92,1.44c0.09,0.87-0.44,2.358,0.96,1.92c0.09,0.87-0.44,2.36,0.96,1.92
			c0.01,1.11,0.18,2.06,1.2,2.16C726.092,336.764,725.562,338.252,726.962,337.813z"/>
	</g>
</g>
<path id="curve29" d="M1157.902,360.5c2.899-0.3,5.6-0.5,8.199-0.5c12.5,0,23.9,3.4,32.9,9.1V190c0-4.9,3.5-9,8.1-9.8l159.5-39.9
	c5.301-1.3,10.801,1.9,12.101,7.3c0.2,0.8,0.3,1.6,0.3,2.4v214.2c0,3.7,0.5,7.6-1.4,10.8c-2.5,9.9-8.399,19-16.6,26.4
	c-10.5,9.5-25,16.3-40.9,18.1c-2.899,0.3-5.6,0.5-8.199,0.5c-13.5,0-25.7-3.9-35-10.6c-9.801-7-16.301-17.2-17.601-29.2
	c-0.2-1.601-0.3-3.101-0.3-4.601c0-13.8,6.9-27,18-37c10.5-9.5,25-16.3,40.9-18.1c2.899-0.3,5.6-0.5,8.199-0.5
	c12.5,0,23.9,3.3,32.9,9.1V212.8l-140,35v156.4c0,3.7,0.5,7.6-1.4,10.8c-2.5,9.9-8.399,19-16.6,26.4c-10.5,9.5-25,16.3-40.9,18.1
	c-2.899,0.3-5.6,0.5-8.199,0.5c-13.5,0-25.7-3.9-35-10.6c-9.801-7-16.301-17.2-17.601-29.2c-0.2-1.601-0.3-3.101-0.3-4.601
	c0-13.8,6.9-27,18-37C1127.502,369.1,1142.002,362.3,1157.902,360.5z M1359.002,192.2v-29.4l-140,35v29.4L1359.002,192.2z
	 M1359.002,364.4c0-0.801,0-1.601-0.1-2.4c-0.7-6.2-4.2-11.5-9.5-15.3c-5.9-4.2-14-6.7-23.301-6.7c-2.1,0-4.1,0.1-6,0.3
	c-11.699,1.3-22.199,6.2-29.8,13.101c-7,6.3-11.3,14.199-11.3,22.199c0,0.9,0,1.7,0.1,2.4c0.7,6.2,4.2,11.5,9.5,15.3
	c5.9,4.2,14,6.7,23.301,6.7c2.1,0,4.1-0.1,6-0.3c11.699-1.3,22.199-6.2,29.8-13.101C1354.702,380.3,1359.002,372.4,1359.002,364.4z
	 M1166.102,380c-2.1,0-4.1,0.1-6,0.3c-11.699,1.3-22.199,6.2-29.8,13.101c-7,6.3-11.3,14.199-11.3,22.199c0,1,0,1.801,0.1,2.4
	c0.7,6.2,4.2,11.5,9.5,15.3c5.9,4.2,14,6.7,23.301,6.7c2.1,0,4.1-0.1,6-0.3c11.699-1.3,22.199-6.2,29.8-13.101
	c7-6.3,11.3-14.199,11.3-22.199c0-0.801,0-1.601-0.1-2.4c-0.7-6.2-4.2-11.5-9.5-15.3C1183.502,382.5,1175.402,380,1166.102,380z"/>
<path id="curve28" d="M1448.702,110.3c6.399,6.3,10.3,15.1,10.3,24.7v385h-400V0h265c9.6,0,18.4,3.9,24.7,10.3
	C1348.702,10.6,1439.002,100.5,1448.702,110.3z M1359.002,48.8V100h51.2L1359.002,48.8z M1324.002,20h-245v480h360V135
	c0-8.3-6.7-15-15-15h-85V35C1339.002,26.8,1332.202,20,1324.002,20z"/>
</svg>
