<?xml version="1.0" encoding="utf-8"?>
<!-- Generator: Adobe Illustrator 12.0.1, SVG Export Plug-In . SVG Version: 6.00 Build 51448)  -->
<!DOCTYPE svg PUBLIC "-//W3C//DTD SVG 1.1//EN" "http://www.w3.org/Graphics/SVG/1.1/DTD/svg11.dtd" [
	<!ENTITY ns_svg "http://www.w3.org/2000/svg">
	<!ENTITY ns_xlink "http://www.w3.org/1999/xlink">
]>
<svg  version="1.1" id="Ebene_1" xmlns="&ns_svg;" xmlns:xlink="&ns_xlink;" width="1459.002" height="520"
	 viewBox="0 0 1459.002 520" overflow="visible" enable-background="new 0 0 1459.002 520" xml:space="preserve">
<path id="curve28_2_" d="M48.002,1v111.752h20V21h245c8.2,0,15,6.8,15,15v85h85c8.3,0,15,6.7,15,15v365h-360V210.797h-20V521h400
	V136c0-9.6-3.898-18.399-10.301-24.699c-9.7-9.8-100-99.7-100-100C331.4,4.901,322.602,1,313.002,1H48.002z M348.002,49.801
	L399.201,101h-51.199V49.801z"/>
<path id="path40" fill="none" d="M279.386,367.95c-14.771-11.979-28.487-28.595-39.188-50.751
	c-8.645,24.303-19.546,48.308-32.708,71.109C230.602,379.128,255.52,372.343,279.386,367.95L279.386,367.95z"/>
<path id="path42" fill="none" d="M375.93,385.55c-2.694-4.413-25.537-6.999-33.056-5.918
	C348.033,383.102,373.939,388.579,375.93,385.55z"/>
<path id="path44" fill="none" d="M288.167,211.888h-39.328c0.563,3.814,0.336,8.34-0.672,12.894h-9.902
	c0.028-3.809-0.628-6.979-2.487-8.78c-3.436,0.577-2.998,21.191-1.693,33.159c1.203-5.889,3.386-14.104,4.012-21.07h9.293
	c1.379,14.371-0.727,41.927-3.158,59.479c9.318,35.047,39.11,69.445,60.364,76.724c39.688-4.465,56.94-1.509,71.063,5.281
	c14.122,6.784,5.011,21.59,5.011,21.59s1.525,5.812-12.554,9.242c-16.431,3.037-61.813-12.142-69.441-18.489
	c-3.846-4.012-103.664,17.395-104.512,21.462c-1.107,4.329-32.414,55.099-51.955,64.472c-17.192,8.6-21.482,0.077-22.96-0.407
	c-3.188,0-7.664-3.387-5.063-14.288c9.571-28.504,49.653-46.604,49.653-46.604l4.119,5.427c0,0,51.831-88.813,57.376-124.428
	c-12.415-35.513-7.754-66.402-6.146-75.662H88.416v264.25h320v-272c0-8.8-7.2-16-16-16h-80v-80c0-8.8-7.2-16-16-16h-208v15.75
	h199.75L288.167,211.888L288.167,211.888z"/>
<polygon id="polygon46" fill="none" points="348.748,108.138 348.748,156.138 396.748,156.138 "/>
<path id="path48" fill="none" d="M136.023,455.58c2.474,1.534,27.207-25.858,32-37.408
	C160.969,422.727,132.637,452.82,136.023,455.58z"/>
<path id="path52" fill="#252525" d="M158.668,175.515c1.326-3.066,1.99-8.038,1.99-14.914c0-9.102-1.483-15.333-4.448-18.693
	c-2.966-3.359-7.883-5.04-14.75-5.04h-6.615v46.938h6.497c5.541,0,9.481-0.615,11.823-1.845
	C155.507,180.73,157.341,178.582,158.668,175.515L158.668,175.515z"/>
<path id="path54" fill="#252525" d="M55.425,134.869h-7.552v19.188h6.499c5.112,0,8.704-0.889,10.772-2.67
	c2.067-1.779,3.104-4.059,3.104-6.836c0-2.699-0.898-4.987-2.693-6.865C63.758,135.808,60.383,134.869,55.425,134.869z"/>
<path id="path56" fill="#252525" d="M223.518,211.888c-1.609,9.259-6.269,40.149,6.146,75.661
	c-5.546,35.615-57.376,124.428-57.376,124.428l-4.12-5.427c0,0-40.082,18.103-49.653,46.604c-2.6,10.901,1.875,14.288,5.063,14.288
	c1.476,0.484,5.768,9.008,22.96,0.407c19.542-9.374,50.847-60.143,51.955-64.471c0.848-4.064,100.666-25.474,104.512-21.462
	c7.631,6.351,53.011,21.525,69.441,18.488c14.079-3.433,12.554-9.242,12.554-9.242s9.111-14.806-5.011-21.59
	c-14.123-6.789-31.377-9.746-71.063-5.281c-21.254-7.276-51.045-41.676-60.364-76.726c2.433-17.553,4.539-45.105,3.159-59.479
	h-9.293c-0.625,6.966-2.809,15.181-4.011,21.07c-1.305-11.968-1.742-32.582,1.693-33.159c1.859,1.801,2.517,4.971,2.487,8.78h9.903
	c1.008-4.554,1.236-9.08,0.671-12.894H292.5v-104H92.75h-32H-1v104h61.75h32L223.518,211.888L223.518,211.888z M136.023,455.58
	c-3.387-2.761,24.945-32.854,32-37.408C163.23,429.722,138.497,457.114,136.023,455.58z M375.93,385.55
	c-1.99,3.029-27.896-2.448-33.056-5.918C350.393,378.552,373.234,381.137,375.93,385.55z M240.198,317.199
	c10.7,22.158,24.416,38.773,39.188,50.751c-23.864,4.393-48.784,11.177-71.896,20.356
	C220.652,365.507,231.556,341.502,240.198,317.199L240.198,317.199z M201.436,117.431h65.625v18.438h-38.938v14.938h33.25v17.375
	h-33.25v35.125h-26.688L201.436,117.431L201.436,117.431z M108.283,117.431h39.443c7.775,0,14.056,1.055,18.844,3.163
	c4.785,2.109,8.742,5.136,11.867,9.08c3.125,3.944,5.393,8.533,6.799,13.766c1.406,5.233,2.109,10.778,2.109,16.635
	c0,9.178-1.046,16.295-3.135,21.352c-2.091,5.058-4.992,9.295-8.703,12.712c-3.712,3.417-7.697,5.691-11.956,6.824
	c-5.821,1.563-11.096,2.343-15.823,2.343h-39.445V117.431z M86.245,164.111c-5.21,4.881-13.161,7.32-23.854,7.32H47.873v31.875
	H21.186v-85.875h44.111c9.607,0,16.803,2.284,21.587,6.853c4.785,4.569,7.177,11.07,7.177,19.503
	C94.061,152.456,91.455,159.23,86.245,164.111z"/>
<path id="curve29" d="M1155.9,361c2.899-0.3,5.602-0.5,8.199-0.5c12.5,0,23.9,3.4,32.9,9.1V190.5c0-4.9,3.5-9,8.1-9.8l159.5-39.9
	c5.301-1.3,10.801,1.9,12.103,7.3c0.198,0.8,0.3,1.6,0.3,2.4v214.2c0,3.7,0.5,7.6-1.398,10.8c-2.5,9.9-8.399,19-16.602,26.4
	c-10.5,9.5-25,16.3-40.898,18.1c-2.899,0.3-5.602,0.5-8.199,0.5c-13.5,0-25.7-3.9-35-10.6c-9.801-7-16.301-17.2-17.603-29.2
	c-0.198-1.603-0.3-3.103-0.3-4.603c0-13.8,6.898-27,18-37c10.5-9.5,25-16.3,40.898-18.1c2.899-0.3,5.602-0.5,8.199-0.5
	c12.5,0,23.9,3.3,32.9,9.1V213.3l-140,35v156.4c0,3.7,0.5,7.6-1.4,10.8c-2.5,9.9-8.397,19-16.6,26.4c-10.5,9.5-25,16.3-40.9,18.1
	c-2.897,0.3-5.6,0.5-8.199,0.5c-13.5,0-25.698-3.9-34.998-10.6c-9.803-7-16.303-17.2-17.603-29.2c-0.2-1.603-0.3-3.103-0.3-4.603
	c0-13.8,6.9-27,18-37C1125.502,369.6,1140.002,362.8,1155.9,361z M1357.002,192.7v-29.4l-140,35v29.4L1357.002,192.7z
	 M1357.002,364.9c0-0.803,0-1.603-0.102-2.4c-0.698-6.2-4.198-11.5-9.5-15.3c-5.898-4.2-14-6.7-23.301-6.7c-2.1,0-4.1,0.1-6,0.3
	c-11.699,1.3-22.199,6.2-29.8,13.103c-7,6.3-11.3,14.197-11.3,22.197c0,0.9,0,1.7,0.1,2.4c0.7,6.2,4.2,11.5,9.5,15.3
	c5.9,4.2,14,6.7,23.301,6.7c2.102,0,4.102-0.1,6-0.3c11.699-1.3,22.199-6.2,29.802-13.103
	C1352.702,380.8,1357.002,372.9,1357.002,364.9z M1164.104,380.5c-2.102,0-4.102,0.1-6,0.3c-11.699,1.3-22.199,6.2-29.802,13.103
	c-7,6.3-11.3,14.197-11.3,22.197c0,1,0,1.803,0.1,2.4c0.7,6.2,4.2,11.5,9.502,15.3c5.898,4.2,14,6.7,23.301,6.7c2.1,0,4.1-0.1,6-0.3
	c11.699-1.3,22.199-6.2,29.8-13.103c7-6.3,11.3-14.197,11.3-22.197c0-0.803,0-1.603-0.1-2.4c-0.7-6.2-4.2-11.5-9.5-15.3
	C1181.502,383,1173.4,380.5,1164.104,380.5z"/>
<path id="curve28" d="M1446.702,110.8c6.397,6.3,10.3,15.1,10.3,24.7v385h-400V0.5h265c9.602,0,18.4,3.9,24.7,10.3
	C1346.702,11.1,1437.002,101,1446.702,110.8z M1357.002,49.3v51.2h51.2L1357.002,49.3z M1322.002,20.5h-245v480h360v-365
	c0-8.3-6.7-15-15-15h-85v-85C1337.002,27.3,1330.202,20.5,1322.002,20.5z"/>
<g>
	<g transform="translate(0.000000,512.000000) scale(0.100000,-0.100000)">
		<path d="M6506.289,4846.884c-794.16-151.387-1457.646-282.583-1474.473-289.751c-17.656-7.207-38.77-27.451-48.086-44.717
			c-15.986-30.356-17.275-181.777-14.238-2000.425l3.262-1967.949l30.352-29.473c30.361-30.352,44.707-33.809,1511.641-312.109
			l1481.24-282.666l32.793,18.584c19.502,10.107,39.717,29.59,46.045,42.998c7.178,16.885,11.387,117.314,11.387,293.613v267.978
			l906.777,2.754l907.676,3.34l49.756,26.143c35.449,18.623,59.912,39.688,80.996,75.156l30.352,48.906v1825.361v1825.4
			l-30.352,48.496c-21.084,35.859-45.547,56.943-80.996,75.537l-49.756,26.104l-907.676,3.369l-905.928,2.998l-3.369,278.325
			l-2.49,279.268l-27.051,26.543c-16.836,15.991-40.508,27.339-65.781,29.102C7964.745,5121.86,7370.907,5013.027,6506.289,4846.884
			z M7882.958,2524.629c0-1732.627-3.438-2366.895-11.006-2366.895c-19.385,0-2684.101,508.535-2692.988,513.691
			c-4.18,3.33-8.223,837.598-8.223,1854.063c0,1544.033,1.904,1849.048,14.141,1854.057
			c19.443,6.724,2648.3,509.897,2676.035,510.698l22.041,1.196V2524.629z M9853.437,2524.629V757.5h-884.043H8086.21v258.965
			v258.906h208.418h207.441v106.27v107.158h-207.441H8086.21v309.658V2107.9h208.418h207.441v107.207v106.182h-207.441H8086.21
			v259.023v258.979h208.418h207.441v101.616v101.685h-207.441H8086.21v258.95v258.999h208.418h207.441v106.67v106.685h-207.441
			H8086.21v258.979v259.141h883.184h884.043V2524.629z"/>
		<path d="M5691.865,3447.031c13.096-24.453,137.92-237.871,275.42-473.662c137.91-236.606,253.867-436.504,255.518-443.677
			c3.398-5.972-131.592-227.72-300.264-490.923c-167.891-263.232-304.922-481.66-304.922-484.209
			c0-3.35,115.996-5.088,258.115-5.088h256.846l167.852,313.008c92.383,171.201,177.559,344.102,190.645,382.91l24.492,70.811
			l17.275-59.033c9.268-31.191,94.434-204.092,188.105-382.949l171.65-324.746h258.096c200.801,0,255.625,3.252,251.396,13.525
			c-1.641,5.859-134.951,226.006-295.225,487.529c-159.434,260.625-290.596,477.026-290.596,479.136
			c0,4.238,308.75,517.046,520.879,866.284l58.232,93.643l-245.918-2.109l-245.889-2.93l-150.176-279.199
			c-82.402-153.545-164.453-319.307-181.962-367.778c-18.398-49.766-33.584-89.429-34.424-89.429
			c-1.26,0-14.336,33.33-28.643,74.248c-15.195,41.343-90.264,207.109-167.451,368.589l-140.049,293.569l-267.383,2.93
			l-267.002,2.109L5691.865,3447.031z"/>
		<path d="M8715.575,3667.172v-106.694l414.99,2.07l413.262,2.969v101.616v101.626l-413.262,2.905l-414.99,2.104V3667.172z"/>
		<path d="M8715.575,2940.908v-101.616h416.582h416.758v101.616v101.685h-416.758h-416.582V2940.908z"/>
		<path d="M8715.575,2215.107V2107.9h416.582h417.559l-3.34,104.609l-2.549,103.76l-413.262,3.418l-414.99,1.602V2215.107z"/>
		<path d="M8715.575,1381.64v-106.27l414.99,1.719l413.262,3.291v101.24v102.051l-413.262,2.52l-414.99,2.529V1381.64z"/>
	</g>
</g>
</svg>
