<?xml version="1.0" encoding="utf-8"?>
<!-- Generator: Adobe Illustrator 12.0.1, SVG Export Plug-In . SVG Version: 6.00 Build 51448)  -->
<!DOCTYPE svg PUBLIC "-//W3C//DTD SVG 1.1//EN" "http://www.w3.org/Graphics/SVG/1.1/DTD/svg11.dtd" [
	<!ENTITY ns_svg "http://www.w3.org/2000/svg">
	<!ENTITY ns_xlink "http://www.w3.org/1999/xlink">
]>
<svg  version="1.1" id="Ebene_1" xmlns="&ns_svg;" xmlns:xlink="&ns_xlink;" width="526" height="539.96" viewBox="0 0 526 539.96"
	 overflow="visible" enable-background="new 0 0 526 539.96" xml:space="preserve">
<g>
	<path fill="none" d="M272.018,109.813c-73.444,0-132.932,55.272-132.932,123.514c0,40.205,20.652,75.901,52.638,98.452
		c0.093-6.171,1.277-12.612,3.576-18.644c2.24-5.919,5.525-11.429,9.814-15.837c3.979-4.042,10.045-6.408,14.915-8.287
		c2.627-1.02,5.216-1.876,7.883-2.733c4.019-1.306,7.457-2.369,11.979-5.349c2.395-1.428,3.825-4.653,4.675-8.365
		c0.889-3.715,1.16-7.757,1.237-11.063c-2.628-3.102-5.14-7.306-7.265-11.795c-2.628-5.429-4.83-11.347-6.182-16.122
		c-3.554-2.37-6.067-5.92-7.496-9.96c-1.624-4.572-1.893-9.796-0.734-14.49l-1.508-24.408c-0.116-2.204,0.116-5.021,0.463-7.184
		c3.13-20.45,21.291-32.368,39.916-32.734c5.255-0.082,11.322,0.694,16.112,2.898c1.584,0.775,3.053,1.633,4.715,2.694
		c8.888-3.551,18.394-0.816,25.772,5.143c4.405,3.551,8.114,8.287,10.511,13.51c2.279,4.857,3.4,10.164,3.013,15.347l-1.545,24.735
		c1.158,4.695,0.928,9.918-0.734,14.489c-1.429,4.041-3.903,7.593-7.496,9.959c-1.352,4.776-3.516,10.695-6.144,16.163
		c-2.163,4.409-4.636,8.613-7.264,11.756c0.115,3.347,0.349,7.388,1.158,11.021c0.774,3.591,2.125,6.774,4.561,8.325
		c6.452,4.246,13.062,5.429,20.017,8.163c4.868,1.879,10.937,4.246,14.915,8.286c4.29,4.408,7.573,9.918,9.815,15.877
		c2.153,5.615,3.33,11.625,3.548,17.438c31.054-22.604,51.002-57.771,51.002-97.287
		C404.951,165.085,345.463,109.813,272.018,109.813z"/>
	<path d="M272.018,99.52c-79.537,0-144.009,59.905-144.009,133.807c0,73.903,64.472,133.807,144.009,133.807
		s144.011-59.904,144.011-133.807C416.028,159.425,351.555,99.52,272.018,99.52z M353.949,330.614
		c-0.218-5.813-1.395-11.823-3.548-17.438c-2.242-5.959-5.525-11.469-9.815-15.877c-3.979-4.04-10.047-6.407-14.915-8.286
		c-6.955-2.734-13.564-3.917-20.017-8.163c-2.436-1.551-3.786-4.734-4.561-8.325c-0.81-3.634-1.043-7.674-1.158-11.021
		c2.628-3.143,5.101-7.347,7.264-11.756c2.628-5.468,4.792-11.387,6.144-16.163c3.593-2.367,6.067-5.918,7.496-9.959
		c1.662-4.571,1.893-9.794,0.734-14.489l1.545-24.735c0.388-5.183-0.733-10.49-3.013-15.347c-2.396-5.224-6.105-9.959-10.511-13.51
		c-7.379-5.959-16.885-8.694-25.772-5.143c-1.662-1.061-3.131-1.919-4.715-2.694c-4.79-2.204-10.857-2.98-16.112-2.898
		c-18.625,0.366-36.786,12.285-39.916,32.734c-0.348,2.163-0.579,4.979-0.463,7.184l1.508,24.408
		c-1.159,4.694-0.89,9.918,0.734,14.49c1.429,4.041,3.942,7.591,7.496,9.96c1.352,4.775,3.554,10.693,6.182,16.122
		c2.125,4.49,4.637,8.693,7.265,11.795c-0.077,3.307-0.348,7.348-1.237,11.063c-0.85,3.712-2.28,6.938-4.675,8.365
		c-4.521,2.979-7.96,4.043-11.979,5.349c-2.667,0.857-5.256,1.714-7.883,2.733c-4.869,1.879-10.935,4.245-14.915,8.287
		c-4.289,4.408-7.574,9.918-9.814,15.837c-2.298,6.031-3.483,12.473-3.576,18.644c-31.985-22.551-52.638-58.247-52.638-98.452
		c0-68.242,59.487-123.514,132.932-123.514c73.445,0,132.934,55.272,132.934,123.514
		C404.951,272.843,385.003,308.009,353.949,330.614z"/>
</g>
<g>
	<path fill="none" d="M24.329,232.288c0,40.201,20.185,75.896,51.446,98.446c0.052-6.274,1.214-12.844,3.502-18.986
		c2.19-5.918,5.4-11.428,9.594-15.835c3.89-4.042,9.82-6.409,14.579-8.288c2.568-1.02,5.1-1.876,7.706-2.734
		c3.929-1.305,7.29-2.367,11.709-5.347c2.341-1.43,3.739-4.653,4.57-8.367c0.565-2.415,0.872-4.966,1.041-7.365
		c-0.416-1.787-0.799-3.583-1.139-5.395c-2.09-2.863-4.074-6.377-5.795-10.098c-2.568-5.429-4.722-11.347-6.043-16.122
		c-3.474-2.369-5.93-5.92-7.327-9.96c-1.587-4.571-1.851-9.796-0.718-14.49l-1.474-24.408c-0.113-2.204,0.113-5.021,0.453-7.183
		c3.059-20.45,20.812-32.369,39.018-32.735c4.81-0.077,10.302,0.615,14.829,2.51c10.845-11.833,23.815-21.928,38.366-29.771
		c-13.845-4.778-28.787-7.386-44.374-7.386C82.479,108.773,24.329,164.045,24.329,232.288z"/>
	<path fill="none" d="M383.794,145.268c3.551,0.367,7.147,1.182,10.204,2.631c1.519,0.767,2.932,1.617,4.526,2.667
		c8.536-3.514,17.666-0.809,24.754,5.089c4.232,3.514,7.793,8.201,10.093,13.37c2.191,4.807,3.267,10.06,2.895,15.189l-1.482,24.479
		c1.111,4.646,0.89,9.815-0.706,14.339c-1.371,3.999-3.748,7.514-7.2,9.856c-1.298,4.726-3.376,10.584-5.9,15.996
		c-0.937,1.969-1.938,3.889-2.98,5.696c-0.791,5.058-1.875,10.026-3.243,14.89c0.104,0.659,0.223,1.314,0.359,1.954
		c0.745,3.556,2.042,6.705,4.381,8.239c6.197,4.202,12.545,5.374,19.226,8.079c4.674,1.86,10.502,4.202,14.324,8.2
		c4.12,4.363,7.271,9.815,9.426,15.713c2.07,5.557,3.199,11.504,3.409,17.258c29.824-22.372,48.983-57.173,48.983-96.279
		c0-67.535-57.135-122.235-127.674-122.235c-14.091,0-27.646,2.189-40.317,6.221C360.81,124.249,373.283,133.946,383.794,145.268z"
		/>
	<path d="M387.188,100.213c-18.843,0-36.803,3.613-53.173,10.146c4.407,1.894,8.696,3.985,12.855,6.261
		c12.672-4.032,26.227-6.221,40.317-6.221c70.539,0,127.674,54.7,127.674,122.235c0,39.106-19.159,73.907-48.983,96.279
		c0.022,0.646,0.042,1.291,0.042,1.93c0,9.089-9.428,14.946-22.452,18.622c-17.256,4.888-41.305,6.423-55.48,6.423
		c-10.463,0-26.304-0.839-40.823-3.241c-2.655,1.461-5.362,2.852-8.122,4.159c14.994,5.331,31.213,8.249,48.146,8.249
		c76.391,0,138.313-59.284,138.313-132.42S463.578,100.213,387.188,100.213z"/>
	<path d="M453.043,295.942c-3.822-3.998-9.65-6.34-14.324-8.2c-6.681-2.705-13.028-3.877-19.226-8.079
		c-2.339-1.534-3.636-4.684-4.381-8.239c-0.137-0.64-0.255-1.295-0.359-1.954c-9.931,35.303-34.63,65.042-67.589,83.177
		c14.52,2.402,30.36,3.241,40.823,3.241c14.176,0,38.225-1.535,55.48-6.423c13.024-3.676,22.452-9.533,22.452-18.622
		c0-0.639-0.02-1.284-0.042-1.93c-0.21-5.754-1.339-11.701-3.409-17.258C460.314,305.757,457.163,300.305,453.043,295.942z"/>
	<path d="M426.877,232.888c3.452-2.342,5.829-5.857,7.2-9.856c1.596-4.524,1.817-9.694,0.706-14.339l1.482-24.479
		c0.372-5.129-0.703-10.382-2.895-15.189c-2.3-5.169-5.86-9.856-10.093-13.37c-7.088-5.898-16.218-8.604-24.754-5.089
		c-1.595-1.05-3.008-1.899-4.526-2.667c-3.057-1.449-6.653-2.264-10.204-2.631c22.275,23.994,35.749,55.256,35.749,89.446
		c0,6.749-0.534,13.38-1.547,19.866c1.043-1.808,2.044-3.728,2.98-5.696C423.501,243.472,425.579,237.614,426.877,232.888z"/>
	<path d="M155.085,356.485c-14.428,0-38.904-1.553-56.469-6.49c-13.258-3.716-22.852-9.634-22.852-18.817
		c0-0.147,0.009-0.296,0.01-0.443c-31.262-22.551-51.446-58.245-51.446-98.446c0-68.242,58.15-123.515,129.943-123.515
		c15.586,0,30.529,2.608,44.374,7.386c4.156-2.24,8.439-4.298,12.84-6.159c-17.481-7.4-36.841-11.521-57.214-11.521
		C76.522,98.48,13.5,158.385,13.5,232.288c0,73.901,63.022,133.807,140.772,133.807c18.171,0,35.538-3.274,51.485-9.233
		c-2.601-1.228-5.156-2.531-7.666-3.897C182.926,355.581,166.086,356.485,155.085,356.485z"/>
	<path d="M122.865,279.543c-4.419,2.979-7.78,4.042-11.709,5.347c-2.606,0.858-5.138,1.715-7.706,2.734
		c-4.759,1.879-10.689,4.246-14.579,8.288c-4.193,4.407-7.403,9.917-9.594,15.835c-2.288,6.143-3.45,12.712-3.502,18.986
		c-0.001,0.147-0.01,0.296-0.01,0.443c0,9.184,9.594,15.102,22.852,18.817c17.564,4.938,42.041,6.49,56.469,6.49
		c11.001,0,27.841-0.904,43.006-3.521c-35-19.056-60.777-51.166-69.615-89.152c-0.169,2.399-0.476,4.95-1.041,7.365
		C126.604,274.89,125.207,278.114,122.865,279.543z"/>
	<path d="M106.434,176.155c-0.34,2.163-0.566,4.979-0.453,7.183l1.474,24.408c-1.133,4.694-0.869,9.919,0.718,14.49
		c1.397,4.041,3.854,7.591,7.327,9.96c1.321,4.775,3.475,10.693,6.043,16.122c1.721,3.721,3.705,7.235,5.795,10.098
		c-1.445-7.699-2.205-15.618-2.205-23.703c0-33.878,13.234-64.877,35.147-88.783c-4.527-1.896-10.019-2.587-14.829-2.51
		C127.245,143.786,109.492,155.705,106.434,176.155z"/>
</g>
</svg>
