<?xml version="1.0" encoding="utf-8"?>
<!-- Generator: Adobe Illustrator 12.0.1, SVG Export Plug-In . SVG Version: 6.00 Build 51448)  -->
<!DOCTYPE svg PUBLIC "-//W3C//DTD SVG 1.1//EN" "http://www.w3.org/Graphics/SVG/1.1/DTD/svg11.dtd" [
	<!ENTITY ns_svg "http://www.w3.org/2000/svg">
	<!ENTITY ns_xlink "http://www.w3.org/1999/xlink">
]>
<svg  version="1.1" id="Ebene_1" xmlns="&ns_svg;" xmlns:xlink="&ns_xlink;" width="526" height="539.96" viewBox="0 0 526 539.96"
	 overflow="visible" enable-background="new 0 0 526 539.96" xml:space="preserve">
<g>
	<path fill="none" d="M230.804,279.761c-2.7-11.099-3.3-22.799-3.3-31.399c0-2.5,1-5.1,3-7.1c5.3-5.2,10.7-13.8,15.5-23.3
		c6.1-11.9,11-24.8,13.6-34.601c0.801-2.6,2.601-5,5.301-6.3c5.397-2.7,9.1-7.5,11.3-13.2c2.398-6.399,2.699-13.8,0.898-20.399
		c-0.398-1.2-0.601-2.5-0.5-3.9l3.5-53.8c0.102-3.9-0.199-7.6-0.801-11.3c-2.699-16.601-12.1-30-24.897-39.3
		c-18-13-41.603-17.601-63.4-14.101c-10.4,1.7-15.9,4.8-24.6,10.4C163.5,33.26,159.8,33.66,156.6,32.06c-6-3-12.399-4-18.6-3.399
		c-8.7,0.8-17.3,4.699-24.8,10.399c-7.8,6-14.2,13.8-18.4,22.3c-3.7,7.5-5.6,15.5-5,23.601l3.601,54.6c0.1,1.2-0.101,2.3-0.4,3.4
		c-2,6.7-1.7,14.3,0.8,20.899c2.101,5.5,5.7,10.301,11,13c2.7,1.2,4.8,3.5,5.601,6.5c2.6,9.7,7.5,22.7,13.5,34.7
		c4.8,9.4,10.199,17.9,15.6,23.3c1.9,1.801,3,4.4,3,7.301c-0.3,8.8-0.7,20.3-3.2,31.1c-2.899,12.3-8.5,23.699-19.3,29.9
		c-12.1,7.5-21,10.1-31.4,13.299c-5.699,1.701-11.199,3.5-16.8,5.5c-9.399,3.398-21,7.701-27.2,13.701
		c-7.8,7.5-13.8,17.1-17.899,27.396c-4.4,11.199-6.7,23.301-6.7,34.803c0,9,16.4,16.5,38.9,22.396
		c38.699,10,93.6,13.201,126.1,13.201c15.873,0,37.164-0.764,59.301-2.727V307.625c0-0.701,0.045-1.395,0.125-2.078
		C237.451,299.128,233.218,289.74,230.804,279.761z"/>
	<path fill="#000000" d="M244.304,437.234c-22.137,1.963-43.428,2.727-59.301,2.727c-32.5,0-87.401-3.201-126.1-13.201
		c-22.5-5.896-38.9-13.396-38.9-22.396c0-11.502,2.3-23.604,6.7-34.803c4.099-10.299,10.099-19.896,17.899-27.396
		c6.2-6,17.801-10.303,27.2-13.701c5.601-2,11.101-3.799,16.8-5.5c10.4-3.199,19.3-5.799,31.4-13.299
		c10.8-6.201,16.401-17.602,19.3-29.9c2.5-10.8,2.9-22.3,3.2-31.1c0-2.901-1.1-5.5-3-7.301c-5.401-5.4-10.8-13.9-15.6-23.3
		c-6-12-10.9-25-13.5-34.7c-0.801-3-2.901-5.3-5.601-6.5c-5.3-2.699-8.899-7.5-11-13c-2.5-6.599-2.8-14.199-0.8-20.899
		c0.299-1.1,0.5-2.2,0.4-3.4l-3.601-54.6c-0.6-8.101,1.3-16.101,5-23.601c4.2-8.5,10.6-16.3,18.4-22.3
		c7.5-5.7,16.1-9.599,24.8-10.399c6.201-0.601,12.6,0.399,18.6,3.399c3.2,1.6,6.9,1.2,9.805-0.599c8.7-5.6,14.2-8.7,24.6-10.4
		c21.799-3.5,45.4,1.101,63.4,14.101c12.799,9.3,22.198,22.699,24.897,39.3c0.602,3.7,0.901,7.4,0.801,11.3l-3.5,53.8
		c-0.101,1.4,0.102,2.7,0.5,3.9c1.801,6.599,1.5,14-0.898,20.399c-2.2,5.7-5.901,10.5-11.3,13.2c-2.7,1.3-4.5,3.7-5.301,6.3
		c-2.6,9.801-7.5,22.701-13.6,34.601c-4.8,9.5-10.2,18.1-15.5,23.3c-2,2-3,4.6-3,7.1c0,8.6,0.6,20.3,3.3,31.399
		c2.414,9.979,6.646,19.367,13.625,25.783c0.79-6.785,5.403-12.686,12.106-16.303c-2.976-3.504-4.948-8.572-6.331-14.182
		c-1.9-7.5-2.5-15.9-2.7-22.8c5.9-6.8,11.5-15.7,16.4-25.2c5.799-11.6,10.799-24.1,13.897-34.5c8.102-5.201,13.7-12.9,17-21.6
		c3.802-10,4.401-21.5,1.802-31.7l3.398-52.2c0.3-4.8-0.3-11-1-15.8c-3.7-22.3-16-40-32.898-52.2
		c-22.102-16.099-51.4-22-78.302-17.7c-10.899,1.801-18.399,4.801-27.8,10.5c-7.8-2.899-15.901-3.8-23.8-3
		c-12.601,1.2-24.8,6.5-35.101,14.4c-10.099,7.7-18.699,18-24.199,29.4c-5.2,10.599-7.9,22.199-7,33.699l3.5,52.9
		c-2.601,10.3-2.101,21.7,1.699,31.7c3.301,8.701,9,16.4,17.101,21.6c3.099,10.3,8,22.9,13.899,34.5
		c4.801,9.5,10.401,18.401,16.301,25.101c-0.201,7.1-0.801,15.5-2.601,23c-1.7,7.598-4.7,14.198-9.899,17.198
		c-10.2,6.399-17.9,8.7-27,11.399c-6.101,1.9-12,3.801-18,6c-11.1,4.102-25,9.102-34.2,18.102c-9.8,9.5-17.4,21.5-22.5,34.398
		c-5.4,13.602-8.2,28.201-8.2,42.102c0,20.398,22.7,33.5,53.9,41.699c40.8,10.6,97.6,13.9,131.1,13.9
		c16.441,0,38.607-0.826,61.724-2.908c-1.552-2.768-2.423-5.83-2.423-9.059L244.304,437.234L244.304,437.234z"/>
</g>
<path id="curve30" fill="#000000" d="M414.944,107.846c52.431,0,94.931,39.957,94.931,89.25s-42.5,89.25-94.931,89.25
	c-5.257,0-10.442-0.412-15.48-1.167c-3.87-1.236-6.427-3.364-6.427-5.698c0-3.776,6.572-6.866,14.605-6.866h7.302
	c44.398,0,80.326-33.777,80.326-75.519s-35.928-75.519-80.326-75.519c-29.938,0-57.25,15.653-71.124,40.437
	c-7.156,0.961-14.094,3.982-19.644,8.925C336.371,133.454,373.249,107.846,414.944,107.846z"/>
<path id="curve29" fill="#000000" d="M202.812,407.177c-2.264-0.962-3.943-2.609-5.111-4.531c-1.168-1.991-1.826-4.394-1.826-6.454
	v-30.345L302.416,265.75l-13.729-12.906c-8.544-8.033-8.544-21.146,0-29.109l45.055-42.359c8.471-8.033,22.492-8.033,30.963,0
	l25.85,24.303c-5.403,1.099-10.588,2.678-15.554,4.806l-20.593-19.429c-2.848-2.678-7.521-2.678-10.369,0l-45.055,42.359
	c-2.775,2.677-2.849,7.072,0,9.749l24.024,22.586L210.479,371.615v23.822l27.749,12.976l1.461-1.304v-10.917
	c0-11.739,9.42-20.596,21.906-20.596h7.303v-6.865c0-11.74,9.42-20.596,21.906-20.596h7.303v-6.866
	c0-5.835,2.045-10.916,5.77-14.623c3.65-3.776,8.908-5.973,15.188-5.973h12.56l5.404-5.149c2.409,4.119,5.184,8.033,8.324,11.604
	l-7.74,7.276h-18.548c-2.045,0-3.579,0.55-4.528,1.579c-1.168,1.167-1.825,3.021-1.825,5.286v20.597h-21.907
	c-4.454,0-7.302,2.678-7.302,6.865v20.596h-21.907c-4.454,0-7.303,2.678-7.303,6.865v16.546l-13.144,12.427L202.812,407.177z
	 M360.323,218.448c-6.718,4.6-12.706,10.229-17.599,16.545l-3.359-3.158c-2.19-2.06-3.213-4.668-3.213-7.277
	c0-2.608,1.022-5.287,3.213-7.277l2.118-1.991c2.117-2.06,4.966-3.021,7.74-3.021s5.55,0.961,7.74,3.021L360.323,218.448z"/>
<path id="curve28" fill="#000000" d="M407.643,252.019c9.639,0,18.548,2.815,25.047,7.415c1.388,1.03,2.702,2.128,3.87,3.227
	c-6.938,2.06-14.166,3.089-21.615,3.089c-3.87,0-8.179-0.205-12.048,0.344c-7.961,1.029-16.942,4.875-17.161,13.045
	c0,6.521,5.258,10.572,11.319,12.495c0.656,0.205,1.387,0.411,2.263,0.549c5.185,1.305,10.37,1.029,15.627,1.029
	c9.056,0,17.964-1.098,26.508-3.295c-1.972,3.707-5.038,6.934-8.763,9.611c-6.499,4.6-15.408,7.414-25.047,7.414
	c-9.64,0-18.475-2.814-25.047-7.414c-7.084-5.012-11.465-12.084-11.465-20.047c0-7.964,4.381-15.035,11.465-20.047
	C389.168,254.834,398.003,252.019,407.643,252.019z M451.456,437.384v-13.73H429.55v-13.73h21.906v-13.731h-29.209v-69.958
	l5.111-1.51c11.538-3.433,21.396-9.681,28.261-17.851c4.527-5.355,7.813-11.465,9.347-18.125c5.477-2.677,10.734-5.767,15.7-9.268
	c0,13.387-5.039,25.813-13.582,35.906c-7.668,9.063-18.11,16.202-30.232,20.732v46.342h29.209c0,22.861,0,45.792,0,68.654h-29.209
	v13.73c-19.497,0-38.921,0-58.418,0V336.12c-12.122-4.53-22.564-11.67-30.232-20.732c-8.543-10.093-13.582-22.52-13.582-35.906
	c0-17.232,8.324-32.748,21.688-43.938c13.218-11.054,31.327-17.85,51.336-17.85s38.118,6.796,51.335,17.85
	c1.388,1.167,2.774,2.403,4.09,3.639c-3.359,3.364-7.083,6.385-11.1,8.994c-0.876-0.824-1.753-1.648-2.702-2.403
	c-10.588-8.856-25.339-14.349-41.623-14.349s-31.035,5.492-41.623,14.349c-10.37,8.65-16.796,20.596-16.796,33.709
	c0,10.16,3.87,19.635,10.442,27.393c6.864,8.17,16.723,14.486,28.26,17.851l5.111,1.51v124.882h29.21v-13.731H451.456z"/>
</svg>
