<?xml version="1.0" encoding="utf-8"?>
<!-- Generator: Adobe Illustrator 12.0.1, SVG Export Plug-In . SVG Version: 6.00 Build 51448)  -->
<!DOCTYPE svg PUBLIC "-//W3C//DTD SVG 1.1//EN" "http://www.w3.org/Graphics/SVG/1.1/DTD/svg11.dtd" [
	<!ENTITY ns_svg "http://www.w3.org/2000/svg">
	<!ENTITY ns_xlink "http://www.w3.org/1999/xlink">
]>
<svg  version="1.1" id="Ebene_1" xmlns="&ns_svg;" xmlns:xlink="&ns_xlink;" width="526" height="539.96" viewBox="0 0 526 539.96"
	 overflow="visible" enable-background="new 0 0 526 539.96" xml:space="preserve">
<path id="curve28" d="M388,268.98c75.666,0,137,60.886,137,136s-61.334,136-137,136s-137-60.886-137-136S312.334,268.98,388,268.98z
	 M388,279.441c-69.871,0-126.463,56.178-126.463,125.539S318.129,530.521,388,530.521c69.87,0,126.462-56.18,126.462-125.541
	S457.87,279.441,388,279.441z"/>
<path id="curve30" d="M415.363,309.058c28.76,0,52.069,21.926,52.069,48.975c0,27.047-23.312,48.973-52.069,48.973
	c-2.884,0-5.729-0.229-8.491-0.643c-2.122-0.678-3.524-1.846-3.524-3.125c0-2.072,3.604-3.77,8.014-3.77h4.004
	c24.352,0,44.061-18.533,44.061-41.436c0-22.906-19.709-41.439-44.061-41.439c-16.42,0-31.404,8.588-39.014,22.188
	c-3.926,0.525-7.729,2.186-10.774,4.896C372.266,323.111,392.493,309.058,415.363,309.058z"/>
<path id="curve29" d="M299.008,473.304c-1.242-0.527-2.164-1.432-2.806-2.484c-0.64-1.094-1-2.412-1-3.543v-16.652l58.438-54.922
	l-7.531-7.08c-4.688-4.408-4.688-11.605,0-15.973l24.715-23.242c4.645-4.41,12.336-4.41,16.981,0l14.179,13.334
	c-2.963,0.604-5.81,1.471-8.53,2.639l-11.296-10.662c-1.563-1.469-4.125-1.469-5.688,0l-24.712,23.244
	c-1.523,1.467-1.564,3.879,0,5.348l13.176,12.396l-61.726,58.088v13.07l15.223,7.123l0.804-0.723v-5.984
	c0-6.443,5.166-11.305,12.015-11.305h4.007v-3.768c0-6.439,5.166-11.299,12.016-11.299h4.006v-3.77c0-3.201,1.121-5.988,3.166-8.023
	c2.003-2.07,4.887-3.277,8.328-3.277h6.892l2.965-2.824c1.32,2.262,2.843,4.406,4.565,6.367l-4.244,3.99h-10.178
	c-1.121,0-1.961,0.303-2.481,0.869c-0.642,0.639-1.001,1.656-1.001,2.898v11.303h-12.018c-2.441,0-4.004,1.469-4.004,3.766v11.303
	h-12.019c-2.442,0-4.005,1.469-4.005,3.77v9.08l-7.21,6.814L299.008,473.304z M385.403,369.75c-3.687,2.521-6.972,5.609-9.653,9.078
	l-1.843-1.732c-1.2-1.133-1.763-2.563-1.763-3.994c0-1.43,0.563-2.898,1.763-3.99l1.161-1.096c1.162-1.131,2.725-1.654,4.246-1.654
	c1.52,0,3.043,0.523,4.244,1.654L385.403,369.75z"/>
<path id="curve28_1_" d="M411.359,388.167c5.284,0,10.175,1.545,13.737,4.07c0.763,0.563,1.48,1.168,2.122,1.77
	c-3.806,1.131-7.771,1.695-11.854,1.695c-2.123,0-4.488-0.113-6.61,0.188c-4.365,0.563-9.291,2.674-9.41,7.156
	c0,3.578,2.883,5.801,6.208,6.857c0.358,0.109,0.76,0.225,1.241,0.301c2.844,0.719,5.688,0.563,8.571,0.563
	c4.966,0,9.853-0.604,14.54-1.807c-1.082,2.033-2.765,3.803-4.808,5.271c-3.563,2.523-8.453,4.068-13.737,4.068
	c-5.287,0-10.135-1.545-13.741-4.068c-3.886-2.75-6.286-6.631-6.286-10.998c0-4.371,2.4-8.252,6.286-11
	C401.227,389.712,406.072,388.167,411.359,388.167z M435.391,489.88v-7.533h-12.016v-7.535h12.016v-7.535H419.37v-38.385l2.804-0.83
	c6.326-1.883,11.734-5.313,15.501-9.793c2.482-2.939,4.286-6.293,5.126-9.947c3.004-1.469,5.89-3.164,8.612-5.084
	c0,7.346-2.766,14.162-7.449,19.701c-4.206,4.975-9.935,8.891-16.584,11.375v25.43h16.022c0,12.543,0,25.125,0,37.67H427.38v7.535
	c-10.691,0-21.348,0-32.043,0v-70.633c-6.649-2.486-12.376-6.402-16.582-11.375c-4.687-5.541-7.45-12.357-7.45-19.703
	c0-9.455,4.566-17.971,11.896-24.109c7.248-6.066,17.184-9.793,28.16-9.793c10.974,0,20.905,3.727,28.155,9.793
	c0.762,0.641,1.521,1.32,2.241,1.996c-1.841,1.846-3.884,3.506-6.089,4.936c-0.479-0.449-0.96-0.9-1.48-1.314
	c-5.808-4.861-13.897-7.875-22.827-7.875c-8.936,0-17.024,3.014-22.831,7.875c-5.689,4.746-9.216,11.301-9.216,18.496
	c0,5.574,2.123,10.771,5.728,15.029c3.767,4.48,9.175,7.947,15.502,9.795l2.804,0.828v68.521h16.022v-7.533h16.021V489.88
	L435.391,489.88z"/>
<g>
	<path fill="none" d="M293.322,263.307c0-2.288,0.822-4.668,2.47-6.499c4.364-4.759,8.812-12.629,12.763-21.324
		c5.022-10.891,9.058-22.697,11.197-31.667c0.661-2.38,2.143-4.576,4.366-5.766c4.444-2.471,7.491-6.864,9.304-12.081
		c1.975-5.857,2.223-12.63,0.739-18.669c-0.327-1.098-0.495-2.288-0.411-3.569l2.882-49.238c0.082-3.569-0.163-6.956-0.66-10.342
		c-2.222-15.193-9.961-27.456-20.499-35.968c-14.82-11.897-34.255-16.108-52.201-12.905c-8.563,1.556-13.093,4.394-20.255,9.518
		c-2.393,1.647-5.439,2.013-8.074,0.548c-4.94-2.746-10.209-3.661-15.315-3.111c-7.164,0.732-14.244,4.301-20.419,9.517
		c-6.423,5.492-11.692,12.63-15.151,20.41c-3.046,6.864-4.61,14.186-4.117,21.6l2.965,49.97c0.082,1.099-0.083,2.105-0.33,3.111
		c-1.646,6.132-1.4,13.088,0.659,19.127c1.73,5.034,4.693,9.427,9.057,11.898c2.223,1.098,3.953,3.203,4.612,5.949
		c2.141,8.877,6.175,20.775,11.116,31.757c3.953,8.604,8.398,16.383,12.845,21.325c1.564,1.648,2.47,4.025,2.47,6.682
		c-0.247,8.053-0.577,18.578-2.635,28.463c-2.387,11.256-6.999,21.689-15.893,27.365c-9.963,6.863-17.291,9.244-25.854,12.172
		c-4.693,1.557-9.222,3.203-13.833,5.033c-7.739,3.109-17.291,7.049-22.396,12.539c-6.422,6.863-11.363,15.646-14.738,25.07
		c-3.623,10.25-5.517,21.328-5.517,31.855c0,8.236,13.503,15.1,32.029,20.494c28.576,8.209,67.87,11.41,94.979,11.984
		c-2.552-10.486-3.915-21.488-3.915-32.832c0-44.303,20.726-83.4,52.333-106.752c-0.727-2.25-1.343-4.57-1.855-6.93
		C293.814,281.884,293.322,271.177,293.322,263.307z"/>
	<path d="M154.499,426.574c-18.526-5.396-32.029-12.26-32.029-20.496c0-10.525,1.895-21.604,5.518-31.855
		c3.375-9.426,8.314-18.207,14.737-25.07c5.105-5.49,14.657-9.43,22.396-12.539c4.612-1.83,9.14-3.479,13.833-5.033
		c8.563-2.928,15.891-5.309,25.854-12.172c8.892-5.676,13.504-16.109,15.891-27.363c2.059-9.885,2.388-20.41,2.635-28.465
		c0-2.654-0.906-5.033-2.47-6.682c-4.447-4.942-8.893-12.722-12.845-21.324c-4.94-10.982-8.975-22.88-11.116-31.757
		c-0.659-2.746-2.388-4.851-4.612-5.949c-4.364-2.47-7.327-6.864-9.057-11.898c-2.059-6.04-2.305-12.995-0.658-19.127
		c0.246-1.006,0.412-2.013,0.329-3.112l-2.965-49.97c-0.494-7.414,1.07-14.735,4.117-21.6c3.458-7.779,8.728-14.918,15.15-20.409
		c6.175-5.216,13.256-8.785,20.419-9.517c5.106-0.55,10.375,0.365,15.315,3.11c2.634,1.465,5.681,1.099,8.073-0.548
		c7.163-5.125,11.691-7.962,20.255-9.518c17.948-3.203,37.383,1.008,52.202,12.906c10.539,8.511,18.278,20.774,20.499,35.967
		c0.497,3.386,0.742,6.773,0.661,10.342l-2.882,49.238c-0.085,1.281,0.083,2.471,0.411,3.569c1.483,6.04,1.235,12.813-0.739,18.669
		c-1.813,5.216-4.859,9.61-9.305,12.081c-2.223,1.19-3.705,3.387-4.365,5.766c-2.141,8.97-6.175,20.776-11.198,31.667
		c-3.952,8.694-8.397,16.565-12.763,21.325c-1.646,1.83-2.47,4.209-2.47,6.497c0,7.869,0.493,18.578,2.717,28.736
		c0.514,2.359,1.13,4.682,1.856,6.93c4.641-3.428,9.517-6.516,14.596-9.23c-0.168-0.656-0.328-1.324-0.479-2.002
		c-1.563-6.865-2.059-14.552-2.223-20.867c4.856-6.225,9.469-14.369,13.503-23.063c4.775-10.617,8.893-22.057,11.441-31.575
		c6.673-4.76,11.28-11.806,13.998-19.769c3.131-9.152,3.623-19.677,1.483-29.012l2.797-47.774c0.247-4.393-0.247-10.067-0.823-14.46
		c-3.047-20.409-13.174-36.608-27.086-47.774c-18.199-14.734-42.321-20.134-64.474-16.199c-8.974,1.648-15.149,4.394-22.89,9.609
		c-6.422-2.653-13.092-3.478-19.596-2.745c-10.375,1.098-20.42,5.949-28.901,13.179c-8.315,7.047-15.396,16.474-19.925,26.907
		c-4.281,9.7-6.504,20.316-5.764,30.841l2.882,48.415c-2.142,9.427-1.73,19.86,1.399,29.012c2.718,7.963,7.411,15.009,14.081,19.769
		c2.551,9.426,6.587,20.958,11.444,31.575c3.953,8.694,8.564,16.84,13.422,22.974c-0.166,6.497-0.66,14.186-2.143,21.049
		c-1.399,6.955-3.87,12.994-8.15,15.738c-8.398,5.855-14.738,7.961-22.231,10.432c-5.024,1.74-9.881,3.479-14.821,5.492
		c-9.14,3.756-20.585,8.332-28.16,16.568c-8.069,8.695-14.327,19.678-18.526,31.479c-4.447,12.453-6.752,25.811-6.752,38.535
		c0,18.666,18.691,30.66,44.38,38.16c32.426,9.363,77.119,12.504,104.994,12.711c-2.376-5.916-4.355-12.059-5.897-18.393
		C222.369,437.982,183.075,434.781,154.499,426.574z"/>
</g>
<g>
	<path fill="none" d="M253.5,20.326c-128.775,0-233.077,103.889-233.077,232.154c0,128.266,104.302,232.154,233.077,232.154
		c6.3,0,12.538-0.258,18.711-0.746c-13.145-21.293-20.711-46.236-20.711-72.908c0-78.146,64.918-141.5,145-141.5
		c32.108,0,61.772,10.191,85.8,27.432c2.796-14.383,4.277-29.232,4.277-44.432C486.577,124.215,382.273,20.326,253.5,20.326z"/>
	<path d="M253.5,484.634c-128.775,0-233.077-103.889-233.077-232.154c0-128.265,104.302-232.154,233.077-232.154
		c128.773,0,233.077,103.889,233.077,232.154c0,15.197-1.481,30.049-4.277,44.432c5.967,4.281,11.591,8.99,16.813,14.094
		c4.494-18.781,6.889-38.373,6.889-58.524c0-138.905-113.043-251.5-252.5-251.5C114.042,0.98,1,113.575,1,252.48
		c0,138.904,113.042,251.5,252.5,251.5c10.83,0,21.501-0.682,31.972-2c-4.884-5.67-9.323-11.715-13.261-18.092
		C266.038,484.376,259.8,484.634,253.5,484.634z"/>
</g>
</svg>
