<?xml version="1.0" encoding="utf-8"?>
<svg
   id="svg11"
   version="1.1"
   viewBox="0 0 5800 5800"
   clip-rule="evenodd"
   fill-rule="nonzero"
   image-rendering="optimizeQuality"
   text-rendering="geometricPrecision"
   shape-rendering="geometricPrecision"
   height="580"
   width="580"
   xml:space="preserve"
   xmlns="http://www.w3.org/2000/svg"
   xmlns:svg="http://www.w3.org/2000/svg"><defs
   id="defs3121" />


<g
   id="g3125"
   transform="matrix(10.498005,0,0,10.422413,684.54302,249.99442)"><path
     d="m 69.903,426.759 c -22.5,-5.895 -38.9,-13.395 -38.9,-22.395 0,-11.503 2.3,-23.605 6.7,-34.806 4.099,-10.3 10.099,-19.896 17.899,-27.396 6.2,-6 17.801,-10.303 27.2,-13.701 5.601,-2 11.101,-3.799 16.8,-5.5 10.4,-3.198 19.3,-5.799 31.4,-13.299 10.8,-6.201 16.401,-17.603 19.3,-29.899 2.5,-10.8 2.9,-22.3 3.2,-31.1 0,-2.901 -1.1,-5.5 -3,-7.301 -5.401,-5.4 -10.8,-13.9 -15.6,-23.3 -6,-12 -10.9,-25 -13.5,-34.7 -0.801,-3 -2.901,-5.3 -5.601,-6.5 -5.3,-2.699 -8.899,-7.5 -11,-13 -2.5,-6.599 -2.8,-14.199 -0.8,-20.899 0.299,-1.1 0.5,-2.2 0.4,-3.4 l -3.601,-54.6 c -0.6,-8.101 1.3,-16.101 5,-23.601 4.2,-8.5 10.6,-16.3 18.4,-22.3 7.5,-5.7 16.1,-9.599 24.8,-10.399 6.201,-0.601 12.6,0.399 18.6,3.399 3.2,1.6 6.9,1.2 9.805,-0.599 8.7,-5.6 14.2,-8.7 24.6,-10.4 21.799,-3.5 45.4,1.101 63.4,14.101 12.799,9.3 22.198,22.699 24.896,39.3 0.604,3.7 0.901,7.4 0.803,11.3 l -3.5,53.8 c -0.103,1.4 0.102,2.7 0.5,3.9 1.801,6.599 1.5,14 -0.898,20.399 -2.2,5.7 -5.901,10.5 -11.3,13.2 -2.7,1.3 -4.5,3.7 -5.302,6.3 -2.601,9.801 -7.5,22.701 -13.601,34.601 -4.8,9.5 -10.2,18.1 -15.5,23.3 -2,2 -3,4.6 -3,7.1 0,8.6 0.6,20.3 3.3,31.399 0.624,2.577 1.372,5.114 2.254,7.571 5.637,-3.746 11.558,-7.119 17.727,-10.086 -0.204,-0.719 -0.398,-1.447 -0.581,-2.188 -1.9,-7.5 -2.5,-15.9 -2.7,-22.8 5.899,-6.8 11.5,-15.7 16.399,-25.2 5.8,-11.6 10.8,-24.1 13.896,-34.5 8.104,-5.201 13.7,-12.9 17,-21.6 3.803,-10 4.401,-21.5 1.803,-31.7 l 3.397,-52.2 c 0.3,-4.8 -0.3,-11 -1,-15.8 -3.7,-22.3 -16,-40 -32.897,-52.2 -22.103,-16.099 -51.399,-22 -78.303,-17.7 -10.899,1.801 -18.399,4.801 -27.8,10.5 -7.8,-2.899 -15.901,-3.8 -23.8,-3 -12.601,1.2 -24.8,6.5 -35.101,14.4 -10.099,7.7 -18.699,18 -24.199,29.4 -5.2,10.599 -7.9,22.199 -7,33.699 l 3.5,52.9 c -2.601,10.3 -2.101,21.7 1.699,31.7 3.301,8.701 9,16.4 17.101,21.6 3.099,10.3 8,22.9 13.899,34.5 4.801,9.5 10.401,18.401 16.301,25.101 -0.201,7.1 -0.801,15.5 -2.601,23 -1.7,7.598 -4.7,14.196 -9.899,17.196 -10.2,6.397 -17.9,8.699 -27,11.397 -6.101,1.9 -12,3.802 -18,6 -11.1,4.104 -25,9.104 -34.2,18.104 -9.8,9.5 -17.4,21.5 -22.5,34.396 -5.4,13.604 -8.2,28.201 -8.2,42.105 0,20.395 22.7,33.5 53.9,41.695 39.381,10.232 93.661,13.662 127.515,13.889 -2.885,-6.465 -5.289,-13.176 -7.161,-20.096 -32.921,-0.622 -80.644,-4.12 -115.349,-13.087 z"
     id="path3114" /><path
     d="m 292.169,455.906 h 8.807 v 8.768 h -8.807 z m 3.655,-131.539 c 27.48,0 53.596,14.074 53.596,44.415 0,24.642 -15.898,33.191 -30.211,40.865 -9.557,5.13 -18.233,9.778 -18.233,19.204 v 13.329 h -8.807 v -13.329 c 0,-14.6 10.878,-20.476 22.899,-26.922 12.111,-6.488 25.543,-13.723 25.543,-33.147 0,-25.255 -22.416,-35.647 -44.787,-35.647 -22.461,0 -43.291,10.918 -43.291,35.647 h -8.809 c 0,-29.684 24.662,-44.415 52.1,-44.415 z m 0.748,-43.847 c 63.24,0 114.502,51.037 114.502,114 0,62.963 -51.262,114 -114.502,114 -63.24,0 -114.502,-51.037 -114.502,-114 0,-62.963 51.262,-114 114.502,-114 z m 0,8.769 c -58.396,0 -105.695,47.092 -105.695,105.231 0,58.139 47.3,105.231 105.695,105.231 58.395,0 105.696,-47.091 105.696,-105.231 0,-58.14 -47.3,-105.231 -105.696,-105.231 z"
     id="path3116" /></g>
</svg>
