<?xml version="1.0" encoding="utf-8"?>
<!-- Generator: Adobe Illustrator 12.0.1, SVG Export Plug-In . SVG Version: 6.00 Build 51448)  -->
<!DOCTYPE svg PUBLIC "-//W3C//DTD SVG 1.1//EN" "http://www.w3.org/Graphics/SVG/1.1/DTD/svg11.dtd" [
	<!ENTITY ns_svg "http://www.w3.org/2000/svg">
	<!ENTITY ns_xlink "http://www.w3.org/1999/xlink">
]>
<svg  version="1.1" id="Ebene_1" xmlns="&ns_svg;" xmlns:xlink="&ns_xlink;" width="526" height="539.96" viewBox="0 0 526 539.96"
	 overflow="visible" enable-background="new 0 0 526 539.96" xml:space="preserve">
<path id="curve28" d="M323.5,265.98c76.494,0,138.5,61.782,138.5,138c0,76.219-62.006,138-138.5,138S185,480.199,185,403.98
	C185,327.762,247.006,265.98,323.5,265.98z M323.5,276.595c-70.636,0-127.847,57.005-127.847,127.385
	c0,70.381,57.211,127.386,127.847,127.386c70.635,0,127.847-57.006,127.847-127.386S394.135,276.595,323.5,276.595z"/>
<path id="curve30" d="M353.363,307.059c28.76,0,52.071,21.925,52.071,48.974c0,27.047-23.312,48.972-52.071,48.972
	c-2.883,0-5.727-0.228-8.491-0.642c-2.122-0.678-3.525-1.845-3.525-3.125c0-2.073,3.604-3.769,8.013-3.769h4.004
	c24.352,0,44.061-18.533,44.061-41.437c0-22.906-19.709-41.438-44.061-41.438c-16.42,0-31.404,8.587-39.012,22.186
	c-3.926,0.526-7.73,2.187-10.776,4.898C310.266,321.111,330.493,307.059,353.363,307.059z"/>
<path id="curve29" d="M237.008,471.305c-1.243-0.528-2.164-1.432-2.806-2.486c-0.64-1.093-1-2.411-1-3.542v-16.652l58.438-54.922
	l-7.531-7.081c-4.687-4.408-4.687-11.604,0-15.972l24.715-23.243c4.645-4.409,12.336-4.409,16.983,0l14.178,13.335
	c-2.964,0.603-5.809,1.47-8.531,2.638l-11.296-10.661c-1.562-1.469-4.125-1.469-5.687,0l-24.712,23.243
	c-1.524,1.468-1.565,3.879,0,5.348l13.175,12.394l-61.725,58.089v13.07l15.223,7.122l0.802-0.719v-5.988
	c0-6.442,5.167-11.301,12.015-11.301h4.007v-3.768c0-6.44,5.166-11.3,12.016-11.3h4.005v-3.768c0-3.203,1.122-5.99,3.166-8.024
	c2.003-2.071,4.886-3.278,8.329-3.278h6.89l2.965-2.824c1.32,2.26,2.843,4.407,4.566,6.368l-4.245,3.99h-10.176
	c-1.122,0-1.961,0.303-2.483,0.868c-0.64,0.64-1.001,1.656-1.001,2.9v11.301h-12.016c-2.443,0-4.005,1.47-4.005,3.767v11.303
	h-12.018c-2.442,0-4.005,1.468-4.005,3.766v9.08l-7.21,6.817L237.008,471.305z M323.403,367.749
	c-3.685,2.522-6.971,5.61-9.653,9.078l-1.843-1.732c-1.2-1.132-1.763-2.562-1.763-3.993s0.563-2.901,1.763-3.993l1.161-1.094
	c1.162-1.131,2.725-1.657,4.246-1.657c1.52,0,3.044,0.526,4.244,1.657L323.403,367.749z"/>
<path id="curve28_1_" d="M349.359,386.168c5.286,0,10.175,1.544,13.738,4.069c0.763,0.565,1.481,1.168,2.123,1.771
	c-3.806,1.13-7.771,1.694-11.856,1.694c-2.123,0-4.488-0.112-6.61,0.188c-4.366,0.563-9.291,2.675-9.41,7.157
	c0,3.578,2.882,5.8,6.208,6.857c0.358,0.112,0.759,0.224,1.241,0.3c2.844,0.719,5.688,0.566,8.571,0.566
	c4.966,0,9.853-0.604,14.54-1.808c-1.082,2.034-2.764,3.804-4.807,5.272c-3.563,2.524-8.452,4.068-13.738,4.068
	c-5.287,0-10.134-1.544-13.741-4.068c-3.885-2.75-6.286-6.63-6.286-10.999c0-4.37,2.401-8.251,6.286-11
	C339.226,387.712,344.072,386.168,349.359,386.168z M373.391,487.88v-7.533h-12.016v-7.535h12.016v-7.535H357.37v-38.385l2.804-0.83
	c6.326-1.883,11.734-5.312,15.501-9.793c2.482-2.94,4.286-6.292,5.126-9.947c3.004-1.469,5.889-3.165,8.612-5.084
	c0,7.345-2.765,14.162-7.449,19.7c-4.206,4.976-9.935,8.891-16.584,11.376v25.43h16.022c0,12.543,0,25.125,0,37.67H365.38v7.534
	c-10.693,0-21.348,0-32.043,0v-70.633c-6.649-2.486-12.376-6.401-16.582-11.375c-4.687-5.54-7.45-12.357-7.45-19.702
	c0-9.456,4.566-17.97,11.896-24.109c7.248-6.066,17.184-9.794,28.16-9.794c10.974,0,20.906,3.728,28.157,9.794
	c0.76,0.64,1.519,1.319,2.241,1.996c-1.841,1.846-3.884,3.505-6.089,4.936c-0.478-0.452-0.96-0.904-1.481-1.318
	c-5.807-4.86-13.898-7.874-22.828-7.874c-8.934,0-17.024,3.014-22.831,7.874c-5.689,4.746-9.215,11.301-9.215,18.497
	c0,5.573,2.123,10.773,5.727,15.031c3.767,4.481,9.175,7.948,15.502,9.793l2.803,0.83v68.522h16.023v-7.533h16.021V487.88z"/>
<g>
	<path fill="none" d="M238.504,248.366c0-2.5,1-5.1,3-7.1c5.3-5.2,10.7-13.8,15.5-23.3c6.1-11.9,11-24.8,13.6-34.601
		c0.802-2.6,2.602-5,5.302-6.3c5.398-2.7,9.1-7.5,11.3-13.2c2.398-6.399,2.699-13.8,0.898-20.399c-0.398-1.2-0.602-2.5-0.5-3.9
		l3.5-53.8c0.1-3.9-0.199-7.6-0.802-11.3c-2.698-16.601-12.098-30-24.896-39.3c-18-13-41.602-17.601-63.4-14.101
		c-10.4,1.7-15.9,4.8-24.6,10.4c-2.905,1.799-6.605,2.199-9.805,0.599c-6-3-12.399-4-18.6-3.399c-8.7,0.8-17.3,4.699-24.8,10.399
		c-7.8,6-14.2,13.8-18.4,22.3c-3.7,7.5-5.6,15.5-5,23.601l3.601,54.6c0.1,1.2-0.101,2.3-0.4,3.4c-2,6.7-1.7,14.3,0.8,20.899
		c2.101,5.5,5.7,10.301,11,13c2.7,1.2,4.8,3.5,5.601,6.5c2.6,9.7,7.5,22.7,13.5,34.7c4.8,9.4,10.199,17.9,15.6,23.3
		c1.9,1.801,3,4.4,3,7.301c-0.3,8.8-0.7,20.3-3.2,31.1c-2.899,12.298-8.5,23.699-19.3,29.9c-12.1,7.5-21,10.1-31.4,13.299
		c-5.699,1.701-11.199,3.5-16.8,5.5c-9.399,3.398-21,7.701-27.2,13.701c-7.8,7.5-13.8,17.096-17.899,27.395
		c-4.4,11.199-6.7,23.303-6.7,34.805c0,9,16.4,16.5,38.9,22.395c34.705,8.968,82.428,12.466,115.352,13.093
		c-3.1-11.457-4.755-23.478-4.755-35.872c0-48.407,25.172-91.13,63.558-116.643c-0.882-2.458-1.63-4.994-2.254-7.572
		C239.104,268.666,238.504,256.966,238.504,248.366z"/>
	<path d="M69.903,426.759c-22.5-5.895-38.9-13.395-38.9-22.395c0-11.502,2.3-23.605,6.7-34.805
		c4.099-10.299,10.099-19.895,17.899-27.395c6.2-6,17.801-10.303,27.2-13.701c5.601-2,11.101-3.799,16.8-5.5
		c10.4-3.199,19.3-5.799,31.4-13.299c10.8-6.201,16.401-17.603,19.3-29.9c2.5-10.8,2.9-22.3,3.2-31.1c0-2.901-1.1-5.5-3-7.301
		c-5.401-5.4-10.8-13.9-15.6-23.3c-6-12-10.9-25-13.5-34.7c-0.801-3-2.901-5.3-5.601-6.5c-5.3-2.699-8.899-7.5-11-13
		c-2.5-6.599-2.8-14.199-0.8-20.899c0.299-1.1,0.5-2.2,0.4-3.4l-3.601-54.6c-0.6-8.101,1.3-16.101,5-23.601
		c4.2-8.5,10.6-16.3,18.4-22.3c7.5-5.7,16.1-9.599,24.8-10.399c6.201-0.601,12.6,0.399,18.6,3.399c3.2,1.6,6.9,1.2,9.805-0.599
		c8.7-5.6,14.2-8.7,24.6-10.4c21.799-3.5,45.4,1.101,63.4,14.101c12.799,9.3,22.198,22.699,24.896,39.3
		c0.603,3.7,0.901,7.4,0.802,11.3l-3.5,53.8c-0.102,1.4,0.102,2.7,0.5,3.9c1.801,6.599,1.5,14-0.898,20.399
		c-2.2,5.7-5.901,10.5-11.3,13.2c-2.7,1.3-4.5,3.7-5.302,6.3c-2.6,9.801-7.5,22.701-13.6,34.601c-4.8,9.5-10.2,18.1-15.5,23.3
		c-2,2-3,4.6-3,7.1c0,8.6,0.6,20.3,3.3,31.399c0.624,2.578,1.372,5.114,2.254,7.572c5.637-3.746,11.558-7.12,17.727-10.087
		c-0.204-0.719-0.398-1.447-0.581-2.188c-1.9-7.5-2.5-15.9-2.7-22.8c5.9-6.8,11.5-15.7,16.4-25.2
		c5.799-11.6,10.799-24.1,13.896-34.5c8.103-5.201,13.7-12.9,17-21.6c3.803-10,4.401-21.5,1.803-31.7l3.397-52.2
		c0.3-4.8-0.3-11-1-15.8c-3.7-22.3-16-40-32.897-52.2c-22.103-16.099-51.4-22-78.303-17.7c-10.899,1.801-18.399,4.801-27.8,10.5
		c-7.8-2.899-15.901-3.8-23.8-3c-12.601,1.2-24.8,6.5-35.101,14.4c-10.099,7.7-18.699,18-24.199,29.4
		c-5.2,10.599-7.9,22.199-7,33.699l3.5,52.9c-2.601,10.3-2.101,21.7,1.699,31.7c3.301,8.701,9,16.4,17.101,21.6
		c3.099,10.3,8,22.9,13.899,34.5c4.801,9.5,10.401,18.401,16.301,25.101c-0.201,7.1-0.801,15.5-2.601,23
		c-1.7,7.598-4.7,14.197-9.899,17.197c-10.2,6.398-17.9,8.699-27,11.398c-6.101,1.9-12,3.801-18,6c-11.1,4.104-25,9.104-34.2,18.104
		c-9.8,9.5-17.4,21.5-22.5,34.396c-5.4,13.604-8.2,28.201-8.2,42.104c0,20.396,22.7,33.5,53.9,41.697
		c39.381,10.232,93.661,13.661,127.515,13.888c-2.885-6.465-5.289-13.176-7.161-20.096
		C152.331,439.225,104.608,435.727,69.903,426.759z"/>
</g>
</svg>
