<?xml version="1.0" encoding="UTF-8"?>
<!DOCTYPE svg PUBLIC "-//W3C//DTD SVG 1.1//EN" "http://www.w3.org/Graphics/SVG/1.1/DTD/svg11.dtd">
<svg xmlns="http://www.w3.org/2000/svg" xml:space="preserve" width="580px" height="580px" shape-rendering="geometricPrecision" text-rendering="geometricPrecision" image-rendering="optimizeQuality" fill-rule="nonzero" clip-rule="nonzero" viewBox="0 0 5800 5800" xmlns:xlink="http://www.w3.org/1999/xlink">
	<title>shopping_cart_full icon</title>
	<desc>shopping_cart_full icon from the IconExperience.com I-Collection. Copyright by INCORS GmbH (www.incors.com).</desc>
		<path id="curve30" fill="#000000" d="M2013 205l1580 350c103,23 169,125 146,228l-26 117 -204 0 34 -152 -1565 -347 -111 499 -204 0 122 -550c24,-106 123,-164 228,-145zm1567 1295l-322 1450c-22,103 -125,168 -228,145l-1580 -350c-102,-23 -168,-125 -145,-228l225 -1017 204 0 -233 1052c522,116 1043,231 1565,347l310 -1399 204 0z"/>
	<path id="curve29" fill="#000000" d="M3756 3500l-2149 0c-255,0 -476,-155 -563,-395l-632 -1737c-47,-130 49,-268 188,-268l3753 0 89 -310c49,-173 204,-290 384,-290l674 0 0 200 -674 0c-91,0 -167,57 -192,145l-723 2529 413 459c231,256 48,667 -298,667l-226 0c276,0 500,224 500,500 0,276 -224,500 -500,500 -276,0 -500,-224 -500,-500 0,-276 224,-500 500,-500l-2598 0c275,1 498,225 498,500 0,276 -224,500 -500,500 -276,0 -500,-224 -500,-500 0,-275 223,-499 498,-500l-498 0 0 -200 3326 0c175,0 266,-204 149,-334l-419 -466zm540 -2200l-3696 0c-2,0 563,1550 631,1737 59,162 204,263 376,263l2118 0 571 -2000zm-3096 3400c-166,0 -300,134 -300,300 0,166 134,300 300,300 166,0 300,-134 300,-300 0,-166 -134,-300 -300,-300zm2600 0c-166,0 -300,134 -300,300 0,166 134,300 300,300 166,0 300,-134 300,-300 0,-166 -134,-300 -300,-300z"/>
</svg>