<?xml version="1.0" encoding="UTF-8"?>
<!DOCTYPE svg PUBLIC "-//W3C//DTD SVG 1.1//EN" "http://www.w3.org/Graphics/SVG/1.1/DTD/svg11.dtd">
<svg xmlns="http://www.w3.org/2000/svg" xml:space="preserve" width="580px" height="580px" shape-rendering="geometricPrecision" text-rendering="geometricPrecision" image-rendering="optimizeQuality" fill-rule="nonzero" clip-rule="nonzero" viewBox="0 0 5800 5800" xmlns:xlink="http://www.w3.org/1999/xlink">
	<title>shopping_cart2 icon</title>
	<desc>shopping_cart2 icon from the IconExperience.com I-Collection. Copyright by INCORS GmbH (www.incors.com).</desc>
		<path id="curve29" fill="#000000" d="M3756 3500l-2149 0c-127,0 -246,-39 -344,-107 -99,-69 -175,-168 -219,-288l-632 -1737c-47,-130 49,-268 188,-268l3753 0 89 -310c49,-173 204,-290 384,-290l674 0 0 200 -674 0c-91,0 -167,57 -192,145l-723 2529 413 459c231,256 50,667 -298,667l-226 0c276,0 500,224 500,500 0,276 -224,500 -500,500 -276,0 -500,-224 -500,-500 0,-276 224,-500 500,-500l-2598 0c275,1 498,225 498,500 0,276 -224,500 -500,500 -276,0 -500,-224 -500,-500 0,-275 223,-499 498,-500l-498 0 0 -200 3326 0c177,0 264,-206 149,-334l-419 -466zm-2456 -2200l0 600 600 0 0 -600 -600 0zm0 800l0 600 600 0 0 -600 -600 0zm0 800l0 258c22,28 48,51 77,71 64,46 144,71 230,71l293 0 0 -400 -600 0zm-200 -224l0 -576 -210 0 210 576zm0 -776l0 -600 -500 0c-1,0 194,535 218,600l282 0zm1000 -600l0 600 600 0 0 -600 -600 0zm0 800l0 600 600 0 0 -600 -600 0zm0 800l0 400 600 0 0 -400 -600 0zm800 -1600l0 600 600 0 0 -600 -600 0zm0 800l0 600 600 0 0 -600 -600 0zm0 800l0 400 600 0 0 -400 -600 0zm800 -1000l425 0 171 -600 -596 0 0 600zm368 200l-368 0 0 600 192 0 0 14 176 -614zm-229 800l-139 0 0 400 25 0 114 -400zm-2639 1800c-166,0 -300,134 -300,300 0,166 134,300 300,300 166,0 300,-134 300,-300 0,-166 -134,-300 -300,-300zm2600 0c-166,0 -300,134 -300,300 0,166 134,300 300,300 166,0 300,-134 300,-300 0,-166 -134,-300 -300,-300z"/>
</svg>