<?xml version="1.0" encoding="UTF-8"?>
<!DOCTYPE svg PUBLIC "-//W3C//DTD SVG 1.1//EN" "http://www.w3.org/Graphics/SVG/1.1/DTD/svg11.dtd">
<svg xmlns="http://www.w3.org/2000/svg" xml:space="preserve" width="580px" height="580px" shape-rendering="geometricPrecision" text-rendering="geometricPrecision" image-rendering="optimizeQuality" fill-rule="nonzero" clip-rule="nonzero" viewBox="0 0 5800 5800" xmlns:xlink="http://www.w3.org/1999/xlink">
	<title>box_into icon</title>
	<desc>box_into icon from the IconExperience.com I-Collection. Copyright by INCORS GmbH (www.incors.com).</desc>
		<path id="curve28" fill="#000000" d="M2700 2559l0 -1859 200 0 0 1859 629 -630 142 142 -871 870 -871 -870 142 -142 629 630zm-2000 1941l0 -1877 -200 395 0 193 -155 78c-28,14 -60,15 -90,0 -49,-25 -69,-84 -44,-134l500 -1000c10,-20 26,-35 44,-44l1545 -772 0 222 -1377 689 1877 939 1877 -939 -1377 -689 0 -222 1545 772c19,10 34,25 44,44l500 1000c25,50 5,109 -44,134l-2000 1000c-48,24 -106,6 -132,-41l-313 -563 0 1654 1800 -900 0 -639 200 -100 0 800c0,43 -27,79 -64,93l-1991 996c-30,15 -62,14 -90,0l-2000 -1000c-34,-17 -55,-52 -55,-89zm2000 839l0 -1978 -1800 -900 0 1978 1800 900zm238 -1996l403 725 1825 -913 -371 -741 -1857 929z"/>
</svg>