<?xml version="1.0" encoding="UTF-8"?>
<!DOCTYPE svg PUBLIC "-//W3C//DTD SVG 1.1//EN" "http://www.w3.org/Graphics/SVG/1.1/DTD/svg11.dtd">
<svg xmlns="http://www.w3.org/2000/svg" xml:space="preserve" width="580px" height="580px" shape-rendering="geometricPrecision" text-rendering="geometricPrecision" image-rendering="optimizeQuality" fill-rule="nonzero" clip-rule="nonzero" viewBox="0 0 5800 5800" xmlns:xlink="http://www.w3.org/1999/xlink">
	<title>box_open icon</title>
	<desc>box_open icon from the IconExperience.com I-Collection. Copyright by INCORS GmbH (www.incors.com).</desc>
		<path id="curve28" fill="#000000" d="M700 4500l0 -1877 -200 395 0 193 -155 78c-28,14 -60,15 -90,0 -49,-25 -69,-84 -44,-134l500 -1000c10,-20 26,-35 44,-44l1992 -996c32,-20 74,-20 106,0l1992 996c19,10 34,25 44,44l500 1000c25,50 5,109 -44,134l-2000 1000c-48,24 -106,6 -132,-41l-313 -563 0 1654 1800 -900 0 -639 200 -100 0 0 0 800c0,43 -27,79 -64,93l-1991 996c-30,15 -62,14 -90,0l-2000 -1000c-34,-17 -55,-52 -55,-89zm2000 839l0 -1978 -1800 -900 0 1978 1800 900zm238 -1996l403 725 1825 -913 -371 -741 -1857 929zm1739 -1093l-1777 -889 0 1332 -100 50 -100 -50 0 -1332 -1777 889 1877 939 1877 -939z"/>
</svg>