<?xml version="1.0" encoding="UTF-8"?>
<!DOCTYPE svg PUBLIC "-//W3C//DTD SVG 1.1//EN" "http://www.w3.org/Graphics/SVG/1.1/DTD/svg11.dtd">
<svg xmlns="http://www.w3.org/2000/svg" xml:space="preserve" width="580px" height="580px" shape-rendering="geometricPrecision" text-rendering="geometricPrecision" image-rendering="optimizeQuality" fill-rule="nonzero" clip-rule="nonzero" viewBox="0 0 5800 5800" xmlns:xlink="http://www.w3.org/1999/xlink">
	<title>businesswoman icon</title>
	<desc>businesswoman icon from the IconExperience.com I-Collection. Copyright by INCORS GmbH (www.incors.com).</desc>
	<path id="curve0" fill="#333333" d="M3000 4548l0 751c96,-3 199,-10 304,-20 21,-299 118,-502 210,-711 -19,-4 -38,-7 -58,-10 -180,-33 -360,-65 -456,-10zm-200 751l0 -750c-92,-48 -273,-18 -455,12 -19,3 -39,6 -58,9 92,208 188,412 209,709 105,10 208,17 304,20zm-496 -1549c35,227 302,413 488,542 38,27 73,51 104,75 81,-71 165,-132 245,-189 178,-126 334,-238 356,-427 -83,-64 -131,-148 -159,-241 -34,-113 -36,-233 -39,-351 91,-89 145,-163 199,-281 45,-97 78,-202 106,-304l11 -43 41 -20c67,-34 114,-89 140,-152 21,-55 28,-116 20,-176 -317,-90 -362,-325 -399,-521 -4,-20 -7,-39 -11,-58 -124,223 -320,496 -606,496 -166,0 -331,1 -497,-1 -132,-2 -168,-3 -317,69 -11,65 -5,132 19,190 38,96 94,130 180,173 32,120 66,236 119,350 54,116 106,189 196,278 0,120 -2,236 -39,352 -29,93 -77,176 -157,239zm596 -3250c1097,0 1600,1023 1600,2000 0,622 -218,991 -827,1130 91,67 196,125 300,183 364,202 727,404 727,987 0,230 -225,395 -538,505 -376,133 -893,195 -1262,195 -369,0 -886,-62 -1262,-195 -313,-110 -538,-275 -538,-505 0,-583 363,-785 727,-987 104,-58 209,-116 300,-183 -609,-139 -827,-508 -827,-1130 0,-977 503,-2000 1600,-2000zm630 2956c568,-98 770,-369 770,-956 0,-863 -418,-1800 -1400,-1800 -982,0 -1400,937 -1400,1800 0,586 202,857 769,956l1 -4c21,-65 28,-140 30,-213 -73,-80 -131,-174 -177,-274 -45,-97 -80,-199 -108,-298 -92,-57 -158,-140 -195,-234 -45,-113 -50,-242 -16,-361l13 -42 38 -19c229,-115 267,-114 451,-111 164,2 329,0 494,0 236,0 416,-355 508,-538l34 -102 103 51c120,60 142,179 168,314 28,149 63,328 307,377l59 12 17 58c35,120 30,248 -15,361 -38,94 -103,177 -196,234 -28,98 -61,198 -106,295 -46,100 -104,195 -178,277 3,74 8,149 28,214l1 3zm-1347 537c-56,124 -113,275 -103,403 74,-6 153,-19 233,-32 66,-11 132,-22 196,-29 -123,-94 -247,-207 -326,-342zm1425 29c-79,121 -200,211 -332,305 70,8 143,21 215,34 78,14 155,28 227,35 6,-119 -54,-256 -110,-374z"/>
</svg>