<?xml version="1.0" encoding="UTF-8"?>
<!DOCTYPE svg PUBLIC "-//W3C//DTD SVG 1.1//EN" "http://www.w3.org/Graphics/SVG/1.1/DTD/svg11.dtd">
<svg xmlns="http://www.w3.org/2000/svg" xml:space="preserve" width="580px" height="580px" shape-rendering="geometricPrecision" text-rendering="geometricPrecision" image-rendering="optimizeQuality" fill-rule="nonzero" clip-rule="nonzero" viewBox="0 0 5800 5800" xmlns:xlink="http://www.w3.org/1999/xlink">
	<title>businessperson icon</title>
	<desc>businessperson icon from the IconExperience.com I-Collection. Copyright by INCORS GmbH (www.incors.com).</desc>
		<path id="curve28" fill="#000000" d="M3530 3029c121,-119 170,-309 216,-488 9,-36 18,-71 21,-79 8,-30 29,-53 56,-65 63,-33 108,-90 133,-156 29,-78 32,-168 9,-247 -1,-4 -1,-52 -1,-52 66,-267 75,-494 33,-688 -40,-188 -131,-347 -268,-483 -157,-158 -430,-248 -699,-266 -269,-18 -529,36 -659,166 -18,17 -40,27 -62,29 -29,4 -56,9 -81,15 -217,54 -342,184 -405,350 -67,179 -68,402 -37,623 13,86 30,172 50,254 5,19 4,39 -2,56 -22,78 -18,166 11,243 25,67 71,125 136,157 27,14 45,37 52,64l19 72c48,183 99,377 218,495 20,19 30,45 30,71 0,38 3,82 7,128 5,59 9,122 9,183 54,92 146,160 256,204 99,40 213,60 328,60 115,0 229,-20 328,-60 110,-43 202,-111 255,-203 1,-54 5,-110 10,-164 4,-55 8,-107 7,-146 0,-28 11,-54 30,-73zm194 800l-346 433 -81 101 -77 -103 -116 -156c-40,37 -80,72 -104,96 178,356 198,791 200,1093 358,-14 805,-56 1145,-145 264,-68 455,-157 455,-268 0,-134 -26,-273 -78,-402 -47,-120 -117,-231 -208,-319 -72,-70 -207,-119 -315,-158l-21 -8c-2,0 -153,-50 -172,-56 -96,-29 -180,-54 -282,-108zm-565 17l144 191 260 -324c-13,-16 -24,-32 -33,-49 -65,57 -143,103 -227,137 -47,18 -95,33 -144,45zm-922 -134l260 325 144 -191c-49,-12 -97,-27 -144,-45 -85,-35 -163,-81 -229,-139 -9,18 -19,34 -31,50zm463 388l-197 263 -427 -534c-102,54 -186,79 -282,108 -65,20 -129,40 -193,64 -108,39 -243,88 -315,158 -91,88 -160,199 -208,319 -52,129 -78,269 -78,402 0,111 191,200 455,268 340,89 787,131 1145,145 2,-302 22,-737 200,-1093l-100 -100zm-585 -656c3,-71 -2,-139 -7,-201 -3,-36 -6,-71 -7,-103 -137,-154 -191,-360 -242,-556 -1,-6 -3,-14 -8,-30 -92,-58 -156,-145 -193,-243 -41,-109 -48,-234 -22,-346 -19,-81 -35,-165 -47,-249 -36,-250 -33,-507 48,-721 85,-226 252,-402 543,-473 24,-6 49,-11 74,-16 177,-155 482,-221 789,-200 313,21 635,130 828,323 163,164 272,355 322,583 47,217 39,465 -29,753 27,113 20,237 -22,346 -37,98 -101,185 -193,243 -5,17 -7,27 -10,37 -49,191 -102,394 -239,549 -1,40 -5,81 -8,124 -5,56 -10,115 -9,169 0,5 2,22 1,24 4,61 13,123 69,158 115,72 205,99 310,131 69,20 137,43 204,67 126,46 283,104 386,203 111,108 196,243 254,389 62,153 93,318 93,475 0,225 -254,370 -605,461 -465,121 -1113,159 -1495,159 -382,0 -1030,-38 -1495,-159 -351,-91 -605,-236 -605,-461 0,-157 31,-322 93,-476 58,-145 143,-280 254,-388 106,-103 269,-161 407,-211 69,-25 128,-43 183,-59 104,-32 193,-58 310,-131 47,-26 63,-87 68,-171z"/>
</svg>