<?xml version="1.0" encoding="UTF-8"?>
<!DOCTYPE svg PUBLIC "-//W3C//DTD SVG 1.1//EN" "http://www.w3.org/Graphics/SVG/1.1/DTD/svg11.dtd">
<svg xmlns="http://www.w3.org/2000/svg" xml:space="preserve" width="580px" height="580px" shape-rendering="geometricPrecision" text-rendering="geometricPrecision" image-rendering="optimizeQuality" fill-rule="nonzero" clip-rule="nonzero" viewBox="0 0 5800 5800" xmlns:xlink="http://www.w3.org/1999/xlink">
	<title>camera icon</title>
	<desc>camera icon from the IconExperience.com I-Collection. Copyright by INCORS GmbH (www.incors.com).</desc>
		<path id="curve28" fill="#000000" d="M3800 3200c0,497 -403,900 -900,900l0 -200c387,0 700,-313 700,-700l200 0zm-900 -1300c718,0 1300,582 1300,1300 0,718 -582,1300 -1300,1300 -718,0 -1300,-582 -1300,-1300 0,-718 582,-1300 1300,-1300zm1800 0c220,0 400,180 400,400 0,221 -179,400 -400,400 -220,0 -400,-180 -400,-400 0,-221 179,-400 400,-400zm0 200c-110,0 -200,90 -200,200 0,111 89,200 200,200 110,0 200,-90 200,-200 0,-111 -89,-200 -200,-200zm-3000 -600c110,0 200,-90 200,-200 0,-220 180,-400 400,-400l1200 0c220,0 400,180 400,400 0,110 90,200 200,200l1000 0c220,0 400,180 400,400l0 2800c0,220 -180,400 -400,400l-4400 0c-220,0 -400,-180 -400,-400l0 -2800c0,-220 180,-400 400,-400l1000 0zm-1000 200c-111,0 -200,89 -200,200l0 2800c0,110 90,200 200,200l4400 0c110,0 200,-90 200,-200l0 -2800c0,-110 -90,-200 -200,-200l-1000 0c-220,0 -400,-180 -400,-400 0,-111 -89,-200 -200,-200l-1200 0c-111,0 -200,89 -200,200 0,220 -180,400 -400,400l-1000 0zm1600 -400l1200 0 0 200 -1200 0 0 -200zm600 800c-608,0 -1100,492 -1100,1100 0,608 492,1100 1100,1100 608,0 1100,-492 1100,-1100 0,-608 -492,-1100 -1100,-1100z"/>
</svg>