<?xml version="1.0" encoding="UTF-8"?>
<!DOCTYPE svg PUBLIC "-//W3C//DTD SVG 1.1//EN" "http://www.w3.org/Graphics/SVG/1.1/DTD/svg11.dtd">
<svg xmlns="http://www.w3.org/2000/svg" xml:space="preserve" width="580px" height="580px" shape-rendering="geometricPrecision" text-rendering="geometricPrecision" image-rendering="optimizeQuality" fill-rule="nonzero" clip-rule="nonzero" viewBox="0 0 5800 5800" xmlns:xlink="http://www.w3.org/1999/xlink">
	<title>can_open icon</title>
	<desc>can_open icon from the IconExperience.com I-Collection. Copyright by INCORS GmbH (www.incors.com).</desc>
	<path id="curve0" fill="#333333" d="M4935 881c58,20 217,81 147,158 -40,21 -84,41 -132,61 -26,-11 -53,-21 -81,-31 -297,-105 -711,-170 -1169,-170 -458,0 -872,65 -1169,170 -28,10 -55,20 -81,31 -48,-20 -92,-40 -132,-61 -70,-78 89,-138 147,-158 384,-136 827,-181 1235,-181 408,0 851,45 1235,181zm-35 1019l0 2800 -200 0 0 -2800 200 0zm500 2659c65,74 100,155 100,241 0,213 -216,395 -565,518 -318,113 -755,182 -1235,182 -480,0 -917,-69 -1235,-182 -349,-123 -565,-305 -565,-518 0,-86 35,-167 100,-241l0 -507c69,-64 135,-134 200,-209l0 957 -100 0c0,119 165,236 431,330 297,105 711,170 1169,170 458,0 872,-65 1169,-170 266,-94 431,-211 431,-330l-100 0 0 -3401c-403,235 -1046,301 -1500,301 -409,0 -786,-50 -1085,-134 38,97 64,206 76,323 43,409 -75,852 -251,1219 -201,417 -482,754 -775,960 -628,442 -1272,243 -1356,-557 -43,-409 75,-852 251,-1219 201,-417 482,-754 775,-960 194,-136 394,-217 582,-230 -11,-33 -17,-67 -17,-102 0,-213 216,-395 565,-518 318,-113 755,-182 1235,-182 480,0 917,69 1235,182 349,123 565,305 565,518 0,86 -35,167 -100,241l0 3318zm-186 -3409c56,-49 86,-99 86,-150 0,-119 -165,-236 -431,-330 -297,-105 -711,-170 -1169,-170 -458,0 -872,65 -1169,170 -266,94 -431,211 -431,330 0,43 21,85 61,126 109,32 206,91 285,172 376,153 852,202 1254,202 408,0 1182,-70 1514,-350zm-3764 345c-267,188 -525,497 -710,883 -160,333 -271,742 -233,1112 68,649 544,766 1043,415 267,-188 525,-497 710,-883 160,-333 271,-742 233,-1112 -68,-647 -541,-768 -1043,-415z"/>
</svg>