<?xml version="1.0" encoding="UTF-8"?>
<!DOCTYPE svg PUBLIC "-//W3C//DTD SVG 1.1//EN" "http://www.w3.org/Graphics/SVG/1.1/DTD/svg11.dtd">
<svg xmlns="http://www.w3.org/2000/svg" xml:space="preserve" width="580px" height="580px" shape-rendering="geometricPrecision" text-rendering="geometricPrecision" image-rendering="optimizeQuality" fill-rule="nonzero" clip-rule="nonzero" viewBox="0 0 5800 5800" xmlns:xlink="http://www.w3.org/1999/xlink">
	<title>central_bank icon</title>
	<desc>central_bank icon from the IconExperience.com I-Collection. Copyright by INCORS GmbH (www.incors.com).</desc>
		<path id="curve28" fill="#000000" d="M3400 3500l0 1400 1500 0 0 -2300c0,-165 -135,-300 -300,-300 -1133,0 -2267,0 -3400,0 -165,0 -300,135 -300,300l0 2300 1500 0 0 -1400 1000 0zm1700 1400l400 0c0,200 0,400 0,600l-5200 0c0,-200 0,-400 0,-600l400 0 0 -2300c0,-276 224,-500 500,-500l500 0 0 -100c0,-165 135,-300 300,-300l100 0 0 -100c0,-165 135,-300 300,-300l1000 0c165,0 300,135 300,300l0 100 100 0c165,0 300,135 300,300l0 100 500 0c276,0 500,224 500,500l0 2300zm-4600 200l0 200 4800 0 0 -200c-1600,0 -3200,0 -4800,0zm3300 -3200c-600,0 -1200,0 -1800,0 -55,0 -100,45 -100,100l0 100 2000 0 0 -100c0,-55 -45,-100 -100,-100zm-400 -400l-1000 0c-55,0 -100,45 -100,100l0 100 1200 0 0 -100c0,-55 -45,-100 -100,-100zm-700 1000l0 600 -200 0 0 -600 200 0zm600 0l0 600 -200 0 0 -600 200 0zm-1800 0l0 600 -200 0 0 -600 200 0zm600 0l0 600 -200 0 0 -600 200 0zm1800 0l0 600 -200 0 0 -600 200 0zm600 0l0 600 -200 0 0 -600 200 0zm-3000 1000l0 1000 -200 0 0 -1000 200 0zm600 0l0 1000 -200 0 0 -1000 200 0zm1800 0l0 1000 -200 0 0 -1000 200 0zm600 0l0 1000 -200 0 0 -1000 200 0zm-1300 200l-600 0 0 1200 600 0 0 -1200z"/>
</svg>