<?xml version="1.0" encoding="UTF-8"?>
<!DOCTYPE svg PUBLIC "-//W3C//DTD SVG 1.1//EN" "http://www.w3.org/Graphics/SVG/1.1/DTD/svg11.dtd">
<svg xmlns="http://www.w3.org/2000/svg" xml:space="preserve" width="580px" height="580px" shape-rendering="geometricPrecision" text-rendering="geometricPrecision" image-rendering="optimizeQuality" fill-rule="nonzero" clip-rule="nonzero" viewBox="0 0 5800 5800" xmlns:xlink="http://www.w3.org/1999/xlink">
	<title>chart_pie icon</title>
	<desc>chart_pie icon from the IconExperience.com I-Collection. Copyright by INCORS GmbH (www.incors.com).</desc>
		<path id="curve28" fill="#000000" d="M2600 5281l0 -2311 -1033 -2066c-668,447 -1067,1191 -1067,1996 0,1209 901,2232 2100,2381zm2681 -2081l-2081 0 0 2081c1085,-135 1946,-996 2081,-2081zm219 -200l-8 108c-101,1270 -1114,2283 -2384,2384l-108 8 0 -2500 2500 0zm-3673 -2471l100 -40c1627,-658 3427,470 3565,2203l8 108 -2538 0 -1135 -2271zm973 4971l-108 -8c-1350,-107 -2392,-1238 -2392,-2592 0,-911 476,-1753 1255,-2225l92 -56 1153 2306 0 2575z"/>
</svg>