<?xml version="1.0" encoding="UTF-8"?>
<!DOCTYPE svg PUBLIC "-//W3C//DTD SVG 1.1//EN" "http://www.w3.org/Graphics/SVG/1.1/DTD/svg11.dtd">
<svg xmlns="http://www.w3.org/2000/svg" xml:space="preserve" width="580px" height="580px" shape-rendering="geometricPrecision" text-rendering="geometricPrecision" image-rendering="optimizeQuality" fill-rule="nonzero" clip-rule="nonzero" viewBox="0 0 5800 5800" xmlns:xlink="http://www.w3.org/1999/xlink">
	<title>chart_column icon</title>
	<desc>chart_column icon from the IconExperience.com I-Collection. Copyright by INCORS GmbH (www.incors.com).</desc>
		<path id="curve28" fill="#000000" d="M500 700l0 4600 4600 0 0 200 -4800 0 0 -4800 200 0zm4200 2200l-600 0c0,-200 0,-400 0,-600 300,0 600,0 900,0l0 2800c-100,0 -200,0 -300,0l0 -2200zm-1000 200c267,0 533,0 800,0l0 2000 -800 0 0 -2000zm200 200l0 1600 400 0 0 -1600 -400 0zm-700 -800l-600 0 0 -1000c300,0 600,0 900,0l0 3600c-100,0 -200,0 -300,0l0 -2600zm-1000 200c267,0 533,0 800,0l0 2400 -800 0 0 -2400zm200 200l0 2000 400 0 0 -2000 -400 0zm-700 -1000l-600 0 0 -1200c300,0 600,0 900,0l0 4400c-100,0 -200,0 -300,0l0 -3200zm-1000 200l800 0 0 3000c-267,0 -533,0 -800,0l0 -3000zm200 200l0 2600 400 0 0 -2600 -400 0z"/>
</svg>