<?xml version="1.0" encoding="utf-8"?>
<!-- Generator: Adobe Illustrator 12.0.1, SVG Export Plug-In . SVG Version: 6.00 Build 51448)  -->
<!DOCTYPE svg PUBLIC "-//W3C//DTD SVG 1.1//EN" "http://www.w3.org/Graphics/SVG/1.1/DTD/svg11.dtd" [
	<!ENTITY ns_svg "http://www.w3.org/2000/svg">
	<!ENTITY ns_xlink "http://www.w3.org/1999/xlink">
]>
<svg  version="1.1" id="Ebene_1" xmlns="&ns_svg;" xmlns:xlink="&ns_xlink;" width="360" height="655.191"
	 viewBox="0 0 360 655.191" overflow="visible" enable-background="new 0 0 360 655.191" xml:space="preserve">
<path id="curve28" d="M150,185.191c-5.5,0-10-4.5-10-10s4.5-10,10-10h60c5.5,0,10,4.5,10,10s-4.5,10-10,10H150z M180.3,564.891
	c16.5,0,30,13.5,30,30c0,16.6-13.5,30-30,30c-16.6,0-30-13.4-30-30C150.3,578.391,163.7,564.891,180.3,564.891z M180.3,584.891
	c-5.6,0-10,4.5-10,10c0,5.6,4.4,10,10,10c5.5,0,10-4.4,10-10C190.3,589.391,185.8,584.891,180.3,584.891z M320,205.191v350H40v-350
	H320z M300,225.191H60v310h240V225.191z M50,125.191h260c27.5,0,50,22.5,50,50v430c0,27.5-22.5,50-50,50H50c-27.5,0-50-22.5-50-50
	v-430C0,147.691,22.5,125.191,50,125.191z M310,145.191H50c-16.5,0-30,13.5-30,30v430c0,16.5,13.5,30,30,30h260
	c16.5,0,30-13.5,30-30v-430C340,158.691,326.5,145.191,310,145.191z"/>
<path id="curve28_2_" d="M243.688,337.494v-79.999c5.183,0,10.403,0,15.587,0v79.999
	C254.092,337.494,248.871,337.494,243.688,337.494z M91.732,247.495h179.23c6.43,0,11.688,3.375,11.688,7.5v85.001
	c0,4.124-5.259,7.499-11.688,7.499H91.732c-6.429,0-11.689-3.375-11.689-7.499v-85.001C80.043,250.87,85.303,247.495,91.732,247.495
	z M87.836,254.995v85.001c0,1.374,1.752,2.499,3.896,2.499h179.23c2.143,0,3.896-1.125,3.896-2.499v-85.001
	c0-1.375-1.754-2.5-3.896-2.5 M111.214,257.495v79.999h-7.792v-79.999H111.214z M119.007,337.494v-79.999h15.585v79.999H119.007z
	 M157.97,257.495v79.999h-7.792v-79.999H157.97z M165.762,337.494v-79.999h15.585v79.999H165.762z M196.934,257.495v79.999h-7.793
	v-79.999H196.934z M212.518,257.495v79.999h-7.792v-79.999H212.518z M235.896,257.495v79.999h-7.792v-79.999H235.896z"/>
<path d="M286.129,64.224c-28.254-28.052-65.863-43.719-105.66-44.212c-41.697-0.517-81.401,15.693-110.671,45.432L55.57,51.467
	C88.588,17.873,133.72-0.569,180.715,0.013c44.898,0.556,87.682,18.387,119.49,50.084"/>
<path d="M105.869,100.293c19.347-19.761,45.882-30.634,73.481-30.292c13.398,0.166,26.266,2.925,38.006,7.872
	c12.139,5.05,23.047,12.485,32.234,21.6l-14.076,14.128c-7.311-7.292-16.137-13.201-25.789-17.321
	c-9.451-3.918-19.723-6.145-30.623-6.28c-22.298-0.276-43.407,8.363-59.105,24.27L105.869,100.293z"/>
</svg>
