<?xml version="1.0" encoding="UTF-8"?>
<!DOCTYPE svg PUBLIC "-//W3C//DTD SVG 1.1//EN" "http://www.w3.org/Graphics/SVG/1.1/DTD/svg11.dtd">
<svg xmlns="http://www.w3.org/2000/svg" xml:space="preserve" width="580px" height="580px" shape-rendering="geometricPrecision" text-rendering="geometricPrecision" image-rendering="optimizeQuality" fill-rule="nonzero" clip-rule="nonzero" viewBox="0 0 5800 5800" xmlns:xlink="http://www.w3.org/1999/xlink">
	<title>checkbox_selected icon</title>
	<desc>checkbox_selected icon from the IconExperience.com I-Collection. Copyright by INCORS GmbH (www.incors.com).</desc>
		<path id="curve28" fill="#000000" d="M524 2000l1152 0 -200 200 -752 0 -200 -200zm1376 624l0 976 -1600 0 0 -976 200 200 0 576 1200 0 0 -576 200 -200zm3400 -124l-2800 0 0 600 2800 0 0 -600zm200 -200l0 1000 -3200 0 0 -1000 3200 0zm-5029 -71l629 630 1329 -1330 142 142 -1471 1470 -771 -770 142 -142z"/>
</svg>