<?xml version="1.0" encoding="UTF-8"?>
<!DOCTYPE svg PUBLIC "-//W3C//DTD SVG 1.1//EN" "http://www.w3.org/Graphics/SVG/1.1/DTD/svg11.dtd">
<svg xmlns="http://www.w3.org/2000/svg" xml:space="preserve" width="580px" height="580px" shape-rendering="geometricPrecision" text-rendering="geometricPrecision" image-rendering="optimizeQuality" fill-rule="nonzero" clip-rule="nonzero" viewBox="0 0 5800 5800" xmlns:xlink="http://www.w3.org/1999/xlink">
	<title>cloud_upload icon</title>
	<desc>cloud_upload icon from the IconExperience.com I-Collection. Copyright by INCORS GmbH (www.incors.com).</desc>
		<path id="curve29" fill="#000000" d="M500 2765c0,524 434,935 954,935l946 0 0 200 -946 0c-629,0 -1154,-501 -1154,-1135 0,-522 278,-903 767,-1077 -35,-733 462,-1311 1199,-1381 52,-4 103,-7 152,-7 482,0 820,209 1112,578 346,-121 734,-77 1025,152 325,256 432,657 376,1056 377,173 569,448 569,869 0,528 -437,945 -961,945l-1139 0 0 -200 1139 0c414,0 761,-327 761,-745 0,-376 -178,-579 -517,-716l-77 -31 16 -80c66,-348 0,-713 -290,-941 -256,-201 -602,-222 -898,-97l-72 30 -46 -62c-260,-350 -549,-558 -998,-558 -49,0 -93,2 -134,6 -671,63 -1074,598 -1013,1243l7 82 -78 23c-443,133 -700,443 -700,911z"/>
	<path id="curve28" fill="#000000" d="M2800,5100 2800,2441 1971,3271 1829,3129 2900,2059 3971,3129 3829,3271 3000,2441 3000,5100z"/>
</svg>