<?xml version="1.0" encoding="utf-8"?>
<!-- Generator: Adobe Illustrator 12.0.1, SVG Export Plug-In . SVG Version: 6.00 Build 51448)  -->
<!DOCTYPE svg PUBLIC "-//W3C//DTD SVG 1.1//EN" "http://www.w3.org/Graphics/SVG/1.1/DTD/svg11.dtd" [
	<!ENTITY ns_svg "http://www.w3.org/2000/svg">
	<!ENTITY ns_xlink "http://www.w3.org/1999/xlink">
]>
<svg  version="1.1" id="Ebene_1" xmlns="&ns_svg;" xmlns:xlink="&ns_xlink;" width="526" height="539.96" viewBox="0 0 526 539.96"
	 overflow="visible" enable-background="new 0 0 526 539.96" xml:space="preserve">
<path id="curve28" d="M465.101,445.655l-78.923,77.4l-97.34-95.464l78.919-77.4L465.101,445.655z M452.991,445.655l-85.234-83.588
	l-66.812,65.524l85.232,83.546L452.991,445.655z M311.08,359.372c0,6.948-5.754,12.635-12.883,12.635
	c-7.084,0-12.881-5.644-12.881-12.635c0-6.947,5.797-12.631,12.881-12.631C305.326,346.741,311.08,352.424,311.08,359.372z
	 M302.492,359.372c0-2.314-1.89-4.21-4.295-4.21c-2.361,0-4.294,1.856-4.294,4.21c0,2.358,1.933,4.212,4.294,4.212
	C300.603,363.583,302.492,361.73,302.492,359.372z M474.202,430.749c8.332,8.128,8.332,21.644,0,29.771l-72.865,71.462
	c-8.288,8.169-22.073,8.127-30.358,0L269,431.885l0.043-81.188c0-10.989,9.103-19.916,20.353-19.916h82.829L474.202,430.749z
	 M468.149,436.73l-99.446-97.526h-79.308c-6.526,0-11.765,5.136-11.765,11.494l-0.087,77.693l99.532,97.655
	c4.979,4.885,13.225,4.885,18.206,0l72.867-71.461C473.129,449.698,473.129,441.615,468.149,436.73z"/>
<g>
	<path fill="none" d="M257.847,283.335c-2.474-10.658-2.915-22.101-3.18-30.836c0-2.446,0.972-4.718,2.65-6.377
		c5.565-5.417,11.041-14.065,15.9-23.499c6.271-11.968,11.219-25.072,13.868-34.768c0.707-2.621,2.561-4.63,4.946-5.678
		c5.565-2.883,9.54-7.862,11.748-13.628c2.563-6.814,2.827-14.676,0.796-21.577c-0.265-1.048-0.354-2.009-0.354-2.97l3.622-54.51
		c0.706-8.125-1.325-16.336-5.123-24.023c-4.241-8.648-10.954-16.686-18.904-22.713c-13.073-9.784-29.856-14.589-45.227-7.164
		c-2.827,1.398-6.095,1.048-8.569-0.524c-4.769-2.97-8.479-5.241-12.278-6.901c-8.656-3.756-20.14-4.892-29.503-4.805
		c-33.832,0.699-68.37,20.267-74.111,55.472c-0.618,3.669-0.972,7.513-0.884,11.531l3.534,53.637
		c0.088,1.136-0.088,2.359-0.53,3.407c-1.854,6.727-1.501,14.414,1.06,21.14c2.208,5.853,6.272,10.92,12.014,13.715
		c2.385,1.223,3.975,3.232,4.593,5.591c2.65,9.784,7.685,22.8,13.868,34.68c4.858,9.609,10.423,18.258,15.9,23.587
		c1.767,1.659,2.65,3.931,2.65,6.202c0,8.474-0.619,20.092-3.357,31.188c-3.091,12.142-8.656,23.062-18.727,28.826
		c-12.102,7.339-21.023,10.047-31.447,13.104c-5.741,1.747-11.395,3.495-17.048,5.592c-9.54,3.407-21.465,7.688-27.825,13.803
		c-8.038,7.687-14.133,17.383-18.373,27.866c-4.593,11.269-6.89,23.499-6.89,35.117c0,9.696,16.872,17.471,40.192,23.412
		c39.22,10.133,94.781,13.277,127.642,13.277c15.846,0,36.974-0.734,59-2.628v-114.4h45.06
		c-13.146-4.137-25.464-7.537-38.163-15.403C266.063,305.961,260.674,295.128,257.847,283.335z"/>
	<path d="M210.5,444.508c-32.86,0-88.422-3.145-127.642-13.277c-23.32-5.941-40.192-13.716-40.192-23.412
		c0-11.618,2.297-23.849,6.89-35.117c4.24-10.483,10.335-20.18,18.373-27.866c6.36-6.115,18.285-10.396,27.825-13.803
		c5.653-2.097,11.307-3.845,17.048-5.592c10.424-3.057,19.346-5.765,31.447-13.104c10.07-5.765,15.635-16.685,18.727-28.826
		c2.738-11.096,3.357-22.713,3.357-31.188c0-2.271-0.884-4.542-2.65-6.202c-5.477-5.329-11.042-13.978-15.9-23.587
		c-6.184-11.88-11.218-24.896-13.868-34.68c-0.618-2.359-2.208-4.368-4.593-5.591c-5.742-2.795-9.805-7.862-12.014-13.715
		c-2.562-6.726-2.915-14.414-1.06-21.14c0.442-1.048,0.618-2.271,0.53-3.407l-3.534-53.637c-0.088-4.019,0.266-7.862,0.884-11.531
		c5.741-35.205,40.28-54.772,74.111-55.472c9.363-0.087,20.847,1.049,29.503,4.805c3.798,1.66,7.509,3.931,12.278,6.901
		c2.474,1.572,5.742,1.922,8.569,0.524c15.37-7.425,32.153-2.621,45.227,7.164c7.95,6.027,14.663,14.064,18.904,22.713
		c3.798,7.687,5.829,15.898,5.123,24.023l-3.622,54.51c0,0.961,0.089,1.922,0.354,2.97c2.031,6.901,1.767,14.763-0.796,21.577
		c-2.208,5.766-6.183,10.745-11.748,13.628c-2.386,1.048-4.239,3.057-4.946,5.678c-2.649,9.696-7.597,22.8-13.868,34.768
		c-4.859,9.434-10.335,18.083-15.9,23.499c-1.678,1.659-2.65,3.931-2.65,6.377c0.265,8.735,0.707,20.178,3.18,30.836
		c2.827,11.793,8.216,22.626,18.55,28.741c12.699,7.866,25.017,11.267,38.163,15.403h44.678
		c-8.542-5.804-19.127-9.672-27.985-12.871c-15.899-5.853-31.006-8.386-45.757-17.472c-5.565-3.318-8.657-10.132-10.424-17.82
		c-1.854-7.774-2.384-16.423-2.649-23.586c6.007-6.727,11.659-15.724,16.606-25.159c6.007-11.706,10.953-24.373,14.045-34.593
		c8.215-5.066,13.868-12.667,17.137-21.315c3.799-9.784,4.328-20.966,1.679-31.012l3.533-52.938
		c0.883-11.094-1.679-22.451-6.891-32.846c-5.477-11.182-13.956-21.315-24.026-28.915c-16.871-12.754-38.602-18.607-58.918-11.007
		c-3.799-2.271-7.155-4.106-10.776-5.766c-10.954-4.717-24.822-6.377-36.836-6.203c-42.576,0.786-84.093,26.294-91.248,70.061
		c-0.795,4.629-1.325,10.657-1.06,15.375l3.445,52.239c-2.65,10.046-2.032,21.228,1.678,31.012
		c3.268,8.648,9.01,16.249,17.137,21.315c3.092,10.221,8.126,22.888,14.133,34.506c4.858,9.609,10.6,18.607,16.606,25.246
		c-0.177,7.076-0.795,15.725-2.827,23.674c-1.943,7.949-5.211,14.851-10.688,17.908c-10.334,6.376-18.196,8.648-27.383,11.443
		c-6.095,1.834-12.014,3.669-18.021,5.853c-11.13,4.02-24.998,9.085-34.097,17.734c-9.805,9.435-17.313,21.228-22.437,33.895
		C27.739,379.69,25,394.104,25,407.819c0,19.655,22.437,32.322,53.442,40.271c41.075,10.57,98.315,13.89,132.058,13.89
		c15.852,0,36.889-0.733,59-2.605V441.88C247.474,443.774,226.346,444.508,210.5,444.508z"/>
</g>
</svg>
