<?xml version="1.0" encoding="UTF-8"?>
<!DOCTYPE svg PUBLIC "-//W3C//DTD SVG 1.1//EN" "http://www.w3.org/Graphics/SVG/1.1/DTD/svg11.dtd">
<svg xmlns="http://www.w3.org/2000/svg" xml:space="preserve" width="580px" height="580px" shape-rendering="geometricPrecision" text-rendering="geometricPrecision" image-rendering="optimizeQuality" fill-rule="nonzero" clip-rule="nonzero" viewBox="0 0 5800 5800" xmlns:xlink="http://www.w3.org/1999/xlink">
	<title>contract icon</title>
	<desc>contract icon from the IconExperience.com I-Collection. Copyright by INCORS GmbH (www.incors.com).</desc>
	<path id="curve0" fill="#333333" d="M5438 2288c18,-30 35,-60 43,-72 32,-53 23,-120 -20,-163l-114 -114c-43,-43 -110,-52 -163,-20 -125,76 -227,133 -343,230 -46,38 -105,56 -164,56l-144 0c-8,0 -16,0 -22,2l-675 675c14,24 20,51 20,78 0,88 -70,158 -158,158 -87,0 -158,-70 -158,-158 0,-40 15,-80 46,-111 0,-1 721,-721 788,-788 42,-43 101,-55 159,-55l144 0c9,0 29,-4 36,-10 125,-104 234,-167 368,-248 131,-79 299,-59 407,50l114 114c109,108 129,276 50,407 -23,37 -32,54 -41,69 -88,153 -164,284 -602,721l-938 934c-198,198 -455,388 -676,508 -200,110 -382,161 -491,117l-48 48c-50,50 -133,50 -183,0 -50,-50 -50,-132 0,-182l53 -53c-34,-114 19,-295 127,-492 118,-214 299,-459 491,-651l113 -113c55,50 123,81 192,90l-164 164c-98,98 -192,210 -276,325l385 384c119,-87 236,-185 337,-286l784 -782 -418 -418 142 -141 418 418c218,-217 427,-423 581,-691zm-2343 1684c-24,38 -47,76 -67,113 -92,168 -145,299 -120,324l83 83c23,23 148,-28 309,-116 40,-22 83,-47 125,-74l-330 -330zm-1996 842c-8,55 -58,93 -113,85 -55,-8 -93,-59 -85,-113l100 -700c8,-55 59,-93 113,-85 41,6 73,37 83,75l117 468 91 -275c18,-52 74,-81 126,-64 34,12 58,39 66,71l70 279 88 -44c38,-19 81,-12 111,14l35 31 66 -331c11,-54 63,-89 118,-78 41,8 71,41 78,80l65 325c19,-8 41,-9 60,-4l152 25c-12,71 1,144 35,207l-175 -28c-31,30 -71,82 -115,91 -63,13 -108,-29 -120,-88 -3,13 -19,48 -25,56 -36,41 -99,45 -141,9l-114 -101c-39,20 -123,68 -161,78 -53,13 -107,-19 -121,-73l-17 -68 -89 268c-9,35 -36,64 -73,73 -53,13 -107,-19 -121,-73l-76 -305 -28 195zm2111 -4398l987 987c64,63 103,151 103,247l0 216c-68,41 -143,128 -200,186l0 -402c0,-83 -67,-150 -150,-150l-850 0 0 -850c0,-82 -68,-150 -150,-150l-2450 0 0 4800 3600 0 0 -1010c69,-62 134,-127 200,-193l0 1403 -4000 0 0 -5200 2650 0c100,0 193,42 260,116zm602 884l-512 -512 0 512 512 0z"/>
</svg>