<?xml version="1.0" encoding="UTF-8"?>
<!DOCTYPE svg PUBLIC "-//W3C//DTD SVG 1.1//EN" "http://www.w3.org/Graphics/SVG/1.1/DTD/svg11.dtd">
<svg xmlns="http://www.w3.org/2000/svg" xml:space="preserve" width="580px" height="580px" shape-rendering="geometricPrecision" text-rendering="geometricPrecision" image-rendering="optimizeQuality" fill-rule="nonzero" clip-rule="nonzero" viewBox="0 0 5800 5800" xmlns:xlink="http://www.w3.org/1999/xlink">
	<title>copy icon</title>
	<desc>copy icon from the IconExperience.com I-Collection. Copyright by INCORS GmbH (www.incors.com).</desc>
		<path id="curve29" fill="#000000" d="M2600 300c85,0 165,36 222,99l702 701 -824 0 0 -500c0,-55 -45,-100 -100,-100l-1900 0 0 3800 1200 0 0 200 -1400 0 0 -4200 2100 0zm300 459l0 341 341 0 -341 -341zm-1800 2741l800 0 0 200 -800 0 0 -200zm0 -600l800 0 0 200 -800 0 0 -200zm0 -600l800 0 0 200 -800 0 0 -200zm0 -600l800 0 0 200 -800 0 0 -200zm0 -600l800 0 0 200 -800 0 0 -200z"/>
	<path id="curve28" fill="#000000" d="M4200 1300c85,0 165,36 222,99l790 789c54,55 88,130 88,212l0 3100 -3200 0 0 -4200 2100 0zm300 459l0 341 341 0 -341 -341zm-300 -259l-1900 0 0 3800 2800 0 0 -2900c0,-55 -45,-100 -100,-100l-700 0 0 -700c0,-55 -45,-100 -100,-100zm-1500 600l1400 0 0 200 -1400 0 0 -200zm0 600l2000 0 0 200 -2000 0 0 -200zm0 600l2000 0 0 200 -2000 0 0 -200zm0 600l2000 0 0 200 -2000 0 0 -200zm0 600l2000 0 0 200 -2000 0 0 -200z"/>
</svg>