<?xml version="1.0" encoding="utf-8"?>
<!-- Generator: Adobe Illustrator 12.0.1, SVG Export Plug-In . SVG Version: 6.00 Build 51448)  -->
<!DOCTYPE svg PUBLIC "-//W3C//DTD SVG 1.1//EN" "http://www.w3.org/Graphics/SVG/1.1/DTD/svg11.dtd" [
	<!ENTITY ns_svg "http://www.w3.org/2000/svg">
	<!ENTITY ns_xlink "http://www.w3.org/1999/xlink">
]>
<svg  version="1.1" id="Ebene_1" xmlns="&ns_svg;" xmlns:xlink="&ns_xlink;" width="539.852" height="277.914"
	 viewBox="0 0 539.852 277.914" overflow="visible" enable-background="new 0 0 539.852 277.914" xml:space="preserve">
<g>
	<path fill="none" d="M259.966,240.37c-20.994,0-38.484,16.36-39.896,37.27h79.793C298.45,256.729,280.96,240.37,259.966,240.37z"/>
	<path fill="none" d="M499.765,270.369c-1.5-36.5-11.1-70.799-27.1-101.299l-43.199,24.9l-9.9-17.2l43.1-24.9
		c-18.9-29.9-44.299-55.2-74.1-74.2l-25,43.2l-17.2-10l24.899-43.2c-30.5-16-64.899-25.6-101.299-27.1v49.8h-20v-49.8
		c-36.4,1.5-70.8,11.1-101.3,27.1l24.899,43.2l-17.199,10l-24.9-43.2c-29.9,19-55.2,44.3-74.2,74.1l43.2,25l-10,17.2l-43.2-24.9
		c-16,30.5-25.6,64.9-27.1,101.299h49.8v7.271H200.04c0.755-16.759,8.419-32.261,21.226-43.17l38.7-128.9l38.7,128.9
		c12.807,10.909,20.471,26.411,21.226,43.17h130.075v-7.271H499.765z"/>
	<path d="M298.666,234.47l-38.7-128.9l-38.7,128.9c-12.807,10.909-20.471,26.411-21.226,43.17h20.029
		c1.412-20.91,18.902-37.27,39.896-37.27s38.484,16.36,39.896,37.27h20.029C319.137,260.881,311.473,245.379,298.666,234.47z"/>
	<path d="M69.966,270.369h-49.8c1.5-36.399,11.1-70.799,27.1-101.299l43.2,24.9l10-17.2l-43.2-25c19-29.8,44.3-55.1,74.2-74.1
		l24.9,43.2l17.199-10l-24.899-43.2c30.5-16,64.899-25.6,101.3-27.1v49.8h20v-49.8c36.4,1.5,70.8,11.1,101.299,27.1l-24.899,43.2
		l17.2,10l25-43.2c29.801,19,55.199,44.3,74.1,74.2l-43.1,24.9l9.9,17.2l43.199-24.9c16,30.5,25.6,64.8,27.1,101.299h-49.799v7.271
		h69.965c-1.467-142.34-117.279-257.27-259.965-257.27C117.279,20.37,1.467,135.299,0,277.64h69.966V270.369z"/>
</g>
<g>
	<path stroke="#000000" stroke-width="4" d="M531.219,275.914h6.581C533.913,123.957,412.842,2,264.056,2
		c-0.75,0-1.496,0.023-2.244,0.029v8.965c0.363-0.001,0.724-0.014,1.087-0.014C408.229,10.98,526.573,128.794,531.219,275.914z"/>
</g>
</svg>
