<?xml version="1.0" encoding="UTF-8" standalone="no"?>
<svg xml:space="preserve" width="580" height="580" shape-rendering="geometricPrecision" text-rendering="geometricPrecision" image-rendering="optimizeQuality" viewBox="0 0 5800 5800" xmlns="http://www.w3.org/2000/svg">
  <path style="clip-rule:nonzero;fill-rule:evenodd;stroke-width:25;stroke-dasharray:none;image-rendering:optimizeQuality;shape-rendering:geometricPrecision;text-rendering:geometricPrecision" d="M2894.473 220.023a660.993 660.993 0 0 0-70.946 4.444c.14-.011-1.112.136-1.521.187-70.121 8.369-138.928 28.081-202.625 58.616-19.04 9.11-37.6 19.212-55.621 30.199-9.782 4.775-18.28 11.932-25.17 20.318-5.372 6.504-9.75 13.78-13.314 21.415l-3.41 6.997c-16.289 3.948-32.56 7.974-48.724 12.406-76.755 20.885-151.795 48.364-223.314 83.251-.598.291-.976.473-1.355.663a1141.956 1141.956 0 0 0-62.387 32.948c-.045.022-.994.568-1.376.786-59.97 34.21-116.74 74.08-168.958 119.262-52.074 45.01-99.586 95.283-141.672 149.744a1080.227 1080.227 0 0 0-18.635 24.846c-.022.039-.67.928-.925 1.285-41.182 56.794-76.643 117.681-106.366 181.212-.049.096-.485 1.042-.675 1.45l-1.914 4.116c-.028.073-.478 1.043-.662 1.448-10.105 21.953-19.522 44.221-28.296 66.74-.04.094-.414 1.071-.577 1.49-18.051 46.533-33.283 94.146-45.926 142.425-.045.193-.3 1.16-.427 1.653-5.27 20.197-10.165 40.994-14.475 61.105-.902 4.24-1.79 8.484-2.663 12.73-.038.209-.237 1.176-.337 1.677a1509.479 1509.479 0 0 0-8.163 43.37c-.037.245-.202 1.183-.288 1.695-10.94 63.607-17.854 127.884-21.294 192.325-.01.253-.061 1.198-.086 1.718-.213 3.985-.415 8.338-.594 12.097-.314 6.914-.585 13.83-.825 20.748-.01.277-.038 1.2-.054 1.724-.292 8.713-.516 17.429-.685 26.145-.01.286-.02 1.2-.03 1.727-.106 5.621-.168 11.243-.247 16.865-29.151 58.29-58.284 116.59-87.446 174.874-6.627 10.557-10.822 22.638-12.045 35.048-1.76 17.123 2.12 34.76 10.896 49.568 3.945 6.728 8.9 12.835 14.52 18.235 27.198 27.2 54.4 54.397 81.596 81.599 1.118 17.422 2.374 34.839 4.145 52.209 1.63 16.252 3.659 32.465 6.17 48.605 4.69 30.952 10.292 61.95 16.533 92.7.074.342.24 1.176.35 1.706.602 2.943 1.204 5.886 1.804 8.829-2.62 11.271-5.038 22.592-7.012 33.997-4.332 24.685-7.014 49.655-8.146 74.69 0-.15-.046 1.118-.063 1.529-2.023 48.154 1.695 96.564 11.261 143.807 7.634 37.67 19.026 74.609 34.438 109.832 19.998 45.845 46.593 88.928 79.603 126.56 27.303 31.186 59.007 58.543 94.023 80.739l7.752 4.95c7.583 28.28 15.059 56.588 22.598 84.88.187.685.45 1.674.665 2.476 6.695 25.047 13.477 50.07 20.548 75.014.09.33.329 1.155.476 1.675 1.669 5.88 3.361 11.752 5.059 17.624.089.289.337 1.152.487 1.661a2569.503 2569.503 0 0 0 10.992 36.765c6.858 22.24 14.046 44.382 21.738 66.35.117.343.398 1.132.578 1.647 17.771 50.581 38.204 100.315 62.967 147.901.039.064.532 1.016.74 1.409 14.07 26.922 29.547 53.12 46.61 78.257-.025-.046.64.935.88 1.284 16.647 24.425 34.84 47.799 54.533 69.843l3.436 3.893c.724 15.027 1.56 30.05 2.666 45.055 1.341 18.556 2.953 37.091 4.66 55.617.056.56.137 1.46.203 2.151l1.268 13.56c.108 1.167.245 2.588.365 3.853.928 9.38 1.738 18.771 2.464 28.169 2.28 29.02 4.064 58.131 3.389 87.254-.62 24.506-2.965 49.131-9.407 72.85-5.004 18.375-12.65 36.178-23.779 51.701-10.134 14.236-23.186 26.357-38.069 35.503-1.306.813-2.673 1.53-3.822 2.566-2.219 1.74-4.698 3.097-7.174 4.425-37.09 23.063-75.632 43.828-115.506 61.67-34.795 15.624-70.57 28.976-106.762 40.978-30.415 10.113-61.094 19.403-91.729 28.823-7.44 2.265-14.878 4.543-22.314 6.825-.85.257-1.975.608-2.931.902-49.955 15.368-99.758 31.27-149.018 48.752-.354.13-1.131.404-1.647.589-3.66 1.3-7.316 2.615-10.97 3.93-.35.123-1.13.41-1.644.595-26.066 9.5-52.129 19.013-78.067 28.859-.367.143-1.122.428-1.637.625a2562.936 2562.936 0 0 0-29.824 11.558c-.302.115-1.117.443-1.615.64-1.546.614-3.4 1.346-4.752 1.888a2571.37 2571.37 0 0 0-12.659 5.096c-.268.113-1.11.454-1.6.655-48.574 19.818-96.438 41.63-142.047 67.627l-5.845 3.37c-.038.029-.988.577-1.366.8a734.27 734.27 0 0 0-36.082 22.474c-26.917 17.935-52.623 37.817-75.85 60.363-36.763 35.876-71.734 73.614-104.27 113.373-.03.044-.722.888-.999 1.23l-3.349 4.12c-.045.048-.718.892-.997 1.236-43.44 53.849-82.34 111.463-114.78 172.606-20.473 38.542-38.33 78.47-53.485 119.395a970.358 970.358 0 0 0-29.107 92.735c.016-.04-.28 1.1-.384 1.512-11.029 42.747-19.112 86.244-24.393 130.07-.003 0-.133 1.132-.184 1.561-5.256 44.215-7.686 88.754-7.556 133.276.25 27.079 4.628 54.134 13.177 79.839 10.236 31.003 26.4 59.862 46.235 85.725 23.7 30.94 52.375 57.786 83.229 81.477 34.959 26.787 72.78 49.65 111.824 69.947 46.786 24.242 95.404 44.808 144.835 63 60.635 22.265 122.538 40.955 185.009 57.324a3734.724 3734.724 0 0 0 112.77 27.636c.473.111 1.3.297 1.91.436 44.045 10.057 88.264 19.352 132.616 27.959.55.11 1.44.278 2.12.41a4493.954 4493.954 0 0 0 31.936 6.06c.552.106 1.443.267 2.125.394 2.102.388 4.394.815 6.38 1.179a4744.054 4744.054 0 0 0 42.868 7.677c.808.136 1.906.33 2.825.488 39.339 6.832 78.767 13.151 118.261 19.018.631.097 1.584.234 2.338.346a5447.38 5447.38 0 0 0 93.832 13.023c.093.015 1.14.144 1.583.201 6.389.817 12.791 1.52 19.202 2.127.027.01 1.138.105 1.572.145 25.22 2.346 50.573 2.915 75.89 2.576.426-.01 1.438-.014 1.52-.017 30.475-.433 60.938-1.786 91.42-1.454 7.474.069 14.948.235 22.419.499l-80.115-154.153a9789.552 9789.552 0 0 1-178.786-23.907c-68.053-9.743-136.014-20.15-203.798-31.623-55.11-9.35-110.119-19.353-164.831-30.82-31.716-6.665-63.33-13.85-94.674-22.105-53.679-13.925-106.999-29.329-159.49-47.242-39.999-13.689-79.548-28.81-117.96-46.498-28.89-13.346-57.182-28.134-83.871-45.51-20.506-13.41-40.133-28.366-57.303-45.904-14.283-14.601-26.847-31.135-35.452-49.735-6.998-15.093-11.173-31.561-11.59-48.22-.105-8.334.036-16.67.2-25.003 1.267-58.51 7.838-116.956 20.523-174.108 11.451-51.704 27.912-102.3 49.156-150.81 7.246-16.54 15.148-32.79 23.51-48.793 27.608-52.786 60.856-102.527 98.007-149.057 31.397-39.342 65.545-76.448 101.551-111.607 19.279-18.533 41.017-34.336 63.659-48.492 26.11-16.296 53.513-30.43 81.406-43.404 47.317-21.95 96.104-40.521 145.073-58.412 11.297-4.141 22.638-8.166 33.928-12.33 63.233-23.602 127.678-43.756 192.176-63.573 33.576-10.066 67.226-19.898 100.612-30.583.274-.085 1.143-.367 1.646-.528a1699.419 1699.419 0 0 0 33.51-11.136c.247-.091 1.134-.394 1.627-.567l3.401-1.18c.269-.09 1.133-.396 1.63-.57a1310.72 1310.72 0 0 0 23.608-8.523c.174-.062 1.122-.42 1.596-.597 38.068-14.214 75.378-30.498 111.493-49.138 18.283-9.405 36.24-19.432 53.932-29.906l11.515-6.75c4.627 5.634 9.156 11.35 13.854 16.924 9.918 11.54 20.148 22.808 30.333 34.112 6.024 6.67 12.08 13.311 18.117 19.968.305.327.855.936 1.253 1.37a18371.47 18371.47 0 0 0 48.054 52.519 34807.044 34807.044 0 0 0 73.467 79.726c.423.557.85 1.06 1.351.285 29.17-25.007 78.727-73.284 78.727-73.284l33.349-31.344-53.717-62.486-133.287-139.782c5.712-10.22 11.671-20.31 16.858-30.812 5.173-10.37 9.842-20.997 13.846-31.873-.013.044.388-1.066.534-1.465.169-.46.273-.766.525-1.468 2.772-7.849 5.178-15.82 7.77-23.728l3.962-12.304c19.484 15.436 39.06 30.758 58.323 46.47 35.474 28.907 70.264 58.706 103.297 90.39 23.11 22.234 45.406 45.387 65.673 70.264 8.757 10.783 17.126 21.893 24.826 33.458 16.97-10.496 34.307-20.479 52.474-28.77 7.43-3.414 15.059-6.376 22.8-9.003 36.605-12.753 74.267-22.439 112.452-29.09 42.896-7.527 86.362-11.335 129.842-13.316 26.099-1.089 52.227-1.292 78.345-1.182 30.271.182 60.546.813 90.78 2.366a378.58 378.58 0 0 1 52.32 6.126c32.913 6.168 64.966 16.24 96.29 27.958 17.768 6.656 35.32 13.88 52.71 21.464l3.49-1.731c.036-.014 1.022-.513 1.414-.71 18.853-9.556 36.965-20.507 54.701-31.986 28.652-18.607 56.299-38.717 83.421-59.477a2066.07 2066.07 0 0 0 19.347-15.028c.236-.191.942-.745 1.358-1.075l3.484-2.751c.307-.24.94-.747 1.373-1.088 21.22-16.836 42.122-34.072 62.735-51.645.229-.2.911-.781 1.314-1.128 3.147-2.688 6.284-5.389 9.416-8.094.256-.218.907-.787 1.315-1.14 8.702-7.52 17.27-15.194 25.875-22.825 27.806 21.689 55.608 43.383 83.412 65.074-37.472 46.08-74.958 92.149-112.419 138.236l-67.911 78.942 110.087 105.662s174.2-218.429 180.886-214.678c19.418 10.798 66.173 49.057 85.527 59.897 61.137 34.239 105.251 68.365 166.892 101.69 3.112 1.68 6.452 3.48 9.422 5.087 30.35 16.306 60.777 32.478 91.568 47.937l151.163-101.38c-31.46-16.19-62.705-32.795-93.923-49.446-61.962-33.102-123.735-66.557-185.377-100.251-41.367-22.635-82.694-45.346-123.824-68.409-15.995-9-32.004-17.982-47.792-27.344-6.812-4.08-13.614-8.216-19.916-13.064-14.242-10.783-26.405-24.298-35.59-39.622-11.27-18.676-18.115-39.732-21.94-61.126-4.014-22.402-4.951-45.238-4.594-67.957.538-31.043 3.495-61.973 6.425-92.862 3.96-40.614 7.888-81.281 8.8-122.101l.13-4.973c7.624-8.579 15.204-17.2 22.455-26.097 34.052-41.5 62.978-87.06 87.519-134.762 9.576-18.591 18.498-37.517 26.87-56.68.09-.22.478-1.1.683-1.575l1.165-2.685c.082-.182.473-1.1.674-1.568 22.492-52.35 40.876-106.368 57.19-160.93.064-.228.34-1.15.486-1.645 8.735-29.306 16.862-58.788 24.715-88.34.13-.507.357-1.355.525-1.992 6.23-23.488 12.263-47.028 18.328-70.558 2.678-9.126 4.77-18.41 7.322-27.571 1.525-5.568 3.172-11.1 4.774-16.646 8.412-5.29 16.805-10.622 24.915-16.37 33.606-23.596 63.737-52.066 89.51-84.016 28.834-35.729 52.233-75.74 70.012-118.042 21.07-50.082 34.353-103.345 40.165-157.34a589.952 589.952 0 0 0 .93-116.331c.017.16-.107-1.113-.145-1.52a575.434 575.434 0 0 0-13.138-79.586c-.173-.995-.575-1.99-.603-2.986 2.14-9.88 4.248-19.768 6.239-29.68.055-.259.235-1.176.338-1.689l.922-4.623c.042-.234.229-1.177.327-1.685a1489.904 1489.904 0 0 0 9.608-54.198c.03-.221.184-1.185.261-1.693a1365.59 1365.59 0 0 0 3.34-22.601l.819-6.013c.023-.206.156-1.188.22-1.694 3.428-25.778 6.004-51.67 7.636-77.623l.294-4.37c27.778-27.429 55.573-54.841 83.338-82.282 12.76-13.266 20.867-30.922 22.515-49.262 1.389-14.751-1.482-29.842-8.055-43.11-30.42-60.868-60.86-121.725-91.288-182.588-.085-6.222-.16-12.443-.277-18.664-.01-.287-.025-1.2-.037-1.728a1856.004 1856.004 0 0 0-.766-27.868c-.22-6.351-.48-12.7-.765-19.049-.017-.302-.057-1.199-.083-1.73-.18-3.975-.41-8.377-.599-12.085-1.697-31.753-4.238-63.462-7.685-95.074-.026-.257-.133-1.192-.19-1.71-3.584-32.535-8.139-64.963-13.72-97.215-.04-.244-.207-1.182-.296-1.693a1506.017 1506.017 0 0 0-8.21-43.362c-.04-.208-.243-1.174-.346-1.675a1467.94 1467.94 0 0 0-7.969-36.348c-.047-.213-.274-1.168-.39-1.667a1418.603 1418.603 0 0 0-8.872-35.794c-.054-.217-.306-1.16-.436-1.657-12.69-48.235-27.998-95.79-46.099-142.271-.036-.08-.42-1.068-.584-1.483-29.81-76.259-67.282-149.605-112.662-217.792a1054.703 1054.703 0 0 0-73.99-98.352c-.055-.056-.745-.872-1.035-1.21-44.95-52.824-95.264-101.074-149.891-143.813-41.67-32.63-85.829-62.057-131.844-88.196-.046-.02-.997-.562-1.38-.777-71.129-40.279-146.635-72.632-224.393-97.733a1375.26 1375.26 0 0 0-25.606-7.992c-.098-.024-1.1-.328-1.531-.455a1452.988 1452.988 0 0 0-18.764-5.484c-.086-.028-1.105-.312-1.534-.434-19.265-5.465-38.658-10.47-58.127-15.152l-5.721-1.397c-1.883-4.582-3.594-9.237-5.617-13.76-5.994-12.993-16.107-23.947-28.333-31.324-42.59-26.917-88.578-48.389-136.425-64.136-68.042-22.413-139.8-33.33-211.414-32.746zM2900 380c71.748.014 143.563 15.524 208.592 45.938l11.408 5.287V1080h160V526.23c18.178 5.417 36.425 10.615 54.483 16.425 67.45 21.614 133.018 49.374 194.811 84.053 54.579 30.598 106.161 66.607 153.324 107.745 46.703 40.692 89.029 86.39 126.116 136 39.684 53.025 73.371 110.461 101.067 170.6 42.548 92.308 71.024 190.726 88.287 290.777 15.135 87.71 21.781 176.772 21.908 265.74-.111 6.376.463 12.767 1.846 18.996a88.417 88.417 0 0 0 10.771 26.943 2750221.3 2750221.3 0 0 0 70.756 140.407L3667.285 2220h-1534.57l-436.082-436.082c24.806-49.259 49.63-98.51 74.425-147.773 5.264-11.364 8.971-23.697 8.942-36.311.023-95.153 7.503-190.442 24.868-284.05 16.624-89.59 42.425-177.673 79.45-261.012 26.903-60.595 59.764-118.604 98.664-172.317 36.548-50.53 78.432-97.209 124.824-138.89 46.424-41.753 97.324-78.471 151.308-109.82 63.052-36.65 130.237-65.985 199.48-88.775 14.146-4.68 28.406-9.007 42.698-13.22l18.708-5.57V1080h160V431.225c10.554-4.884 21.062-9.882 31.84-14.263 59.49-24.488 123.85-36.949 188.16-36.962ZM1848.143 2161.857c64.811 64.805 129.61 129.623 194.429 194.42 15.285 15.027 36.57 23.91 58.047 23.723H3700.2c14.032-.01 28.013-3.826 40.15-10.857 7.28-4.186 13.923-9.456 19.737-15.513l215.915-215.915c3.652 13.043 7.373 26.066 10.98 39.121 10.455 39.104 14.767 79.779 13.472 120.212-1.509 45.599-10.17 91.065-26.594 133.674-13.865 35.906-33.402 69.782-58.764 98.813-20.402 23.42-44.606 43.566-71.553 59.043-4.136 2.358-8.299 4.685-12.578 6.773-14.624 6.494-27.364 17.33-35.729 31.008-4.162 6.736-7.204 14.134-9.192 21.79-2.03 5.742-3.533 11.652-5.168 17.514-.173.628-.243.884-.437 1.609-2.89 10.74-5.653 21.514-8.41 32.29-.083.342-.294 1.163-.426 1.69-3.375 13.28-6.667 26.581-10.12 39.841-16.74 64.975-33.785 129.944-55.058 193.612-15.767 47.157-33.853 93.635-56.184 138.1-23.333 46.45-51.488 90.757-86.251 129.534-6.686 7.477-13.652 14.697-20.78 21.753-11.57 11.901-19.333 27.403-22.037 43.773a83.585 83.585 0 0 0-1.074 17.72c.674 31.24-.95 62.494-3.897 93.589-.523 5.524-1.118 11.042-1.692 16.561-5.745 11.596-11.941 22.971-18.727 33.992-21.507 35.07-48.378 66.745-78.84 94.35-33.841 30.706-71.982 56.476-112.317 77.856-46.351 24.55-95.585 43.423-146.013 57.717-51.86 14.672-105.043 24.545-158.637 30.126-48.285 5.013-96.949 6.477-145.441 4.133-52.024-2.492-103.864-9.054-154.829-19.805-53.044-11.23-105.203-27.031-155.05-48.436-46.14-19.842-90.334-44.574-130.228-75.176-30.693-23.544-58.771-50.61-82.675-81.057-16.639-21.155-31.21-43.937-43.393-67.939-.426-.908-1.104-1.743-1.021-2.8-.914-10.011-1.448-20.053-2.101-30.083-1.817-29.332-3.532-58.67-5.231-88.01.084-14.352-3.624-28.766-11.004-41.106-3.664-6.187-8.271-11.787-13.503-16.711-35.55-35.336-64.722-76.651-89.046-120.362-24.055-43.237-43.571-88.857-60.524-135.296-20.11-55.193-36.631-111.611-52.074-168.263-10.102-37.1-19.716-74.331-29.569-111.499-3.743-14.134-7.437-28.282-11.212-42.408-3.854-13.496-11.468-25.92-21.908-35.32-5.847-5.326-12.559-9.649-19.69-13.043-27.45-13.981-52.486-32.609-73.985-54.656-29.373-30.065-52.15-66.296-67.84-105.223-19.507-48.434-29.386-100.63-29.682-152.813-.189-36.61 4.357-73.287 14.03-108.613v-47.573l34.143 34.143z"/>
  <path style="clip-rule:nonzero;fill-rule:evenodd;stroke-width:25;stroke-dasharray:none;image-rendering:optimizeQuality;shape-rendering:geometricPrecision;text-rendering:geometricPrecision" d="M2696.142 3933.78c-10.299.083-20.558 1.601-30.408 4.393-24.052 6.457-47.694 14.232-70.966 22.88-18.103 6.689-36.048 13.785-53.656 21.59l-.469.209c-2.61 1.148-5.21 2.325-7.735 3.638-11.152 5.74-21.25 13.348-29.694 22.4a106.566 106.566 0 0 0-21.804 35.073c-5.223 13.815-7.525 28.658-6.85 43.4.145 3.338.462 6.67.861 9.99l17.39 155.567c-5.944 4.772-11.93 9.495-17.793 14.357a695.22 695.22 0 0 0-17.947 15.356l-8.149 7.172c-52.12-14.56-104.24-29.123-156.361-43.68-13.911-3.77-28.574-4.897-42.86-3.179-13.326 1.59-26.302 5.626-38.05 11.805a109.115 109.115 0 0 0-32.294 25.838c-3.26 3.814-6.217 7.86-8.95 12.041-11.904 17.774-23.2 35.927-33.96 54.373-1.677 2.948-3.29 5.93-4.928 8.9-9.217 16.833-18.102 33.842-26.347 51.147a110.812 110.812 0 0 0-3.773 8.891c-4.591 12.272-6.966 25.336-6.915 38.428a108.913 108.913 0 0 0 6.903 37.704c5.436 14.578 14.028 28.074 25.02 39.418 2.426 2.524 5.002 4.909 7.512 7.355l111.2 107.31c-1.407 7.649-2.853 15.291-4.16 22.958-.52 3.029-1.053 6.055-1.505 9.095-.921 5.93-1.774 11.872-2.593 17.817l-1 7.168c-48.635 21.753-97.271 43.503-145.904 65.262-13.119 6.01-24.98 14.527-34.646 24.956a106.122 106.122 0 0 0-21.747 35.338c-4.558 12.3-6.799 25.402-6.69 38.503.03 4.672.392 9.34.96 13.984a730.077 730.077 0 0 0 2.279 18.482l.212 1.548a800.371 800.371 0 0 0 .947 6.623c.075.516.151 1.031.228 1.547 0-.041.054.36.075.493a784.716 784.716 0 0 0 3.25 19.891c-.01-.039.063.36.087.492a882.02 882.02 0 0 0 3.033 16.181l.346 1.934c-.013-.08.064.352.088.48a679.335 679.335 0 0 0 3.463 17.74 733.864 733.864 0 0 0 8.691 36.744c-.01-.026.094.355.13.487.472 1.789.951 3.576 1.435 5.361.098.357.215.796.321 1.184.844 3.126 1.68 6.256 2.73 9.326a112.124 112.124 0 0 0 20.425 36.442c9.04 10.774 20.184 19.917 32.687 26.745 12.619 6.906 26.596 11.464 40.928 13.352 2.839.385 5.692.64 8.547.86l155.971 13.074c2.718 4.776 5.403 9.569 8.149 14.33 3.01 5.21 6.096 10.378 9.187 15.544 4.063 6.737 8.32 13.365 12.51 20.03-22.433 47.823-44.868 95.646-67.294 143.474-5.99 12.997-9.46 27.1-10.066 41.363a108.453 108.453 0 0 0 6.64 42.234c5.395 14.62 14.006 28.154 25.078 39.464 1.977 2.04 4.067 3.974 6.102 5.96 15.486 14.933 31.605 29.246 48.103 43.131 11.314 9.153 22.722 18.199 34.317 27.018 7.198 5.466 14.466 10.847 21.852 16.074 12.104 8.412 25.925 14.525 40.428 17.767 13.712 3.077 28.009 3.602 41.863 1.517 14.886-2.225 29.24-7.448 41.914-15.202 2.881-1.75 5.662-3.648 8.385-5.616l125.733-89.151c8.074 3.111 16.127 6.276 24.254 9.256a862.88 862.88 0 0 0 22.979 8.089l7.644 2.598c14.171 51.787 28.342 103.575 42.521 155.36a112.192 112.192 0 0 0 19.598 38.544c8.874 11.342 20.015 21.05 32.654 28.36a115.828 115.828 0 0 0 35.094 13.271c5.443 1.105 10.968 1.781 16.508 2.143a1081.768 1081.768 0 0 0 65.237 2.97c5.323.015 10.645-.017 15.966-.083-.06 0 .375-.01.511-.01l2.735-.039a1085.634 1085.634 0 0 0 17.364-.411c-.032 0 .38-.012.52-.017 2.546-.082 5.091-.172 7.637-.27l.523-.022c8.08-.322 16.157-.722 24.224-1.234 14.331-1.026 28.429-4.761 41.196-11.02 11.256-5.507 21.473-12.94 30.065-21.833 9.692-10.022 17.32-21.87 22.472-34.655 2.168-5.364 3.89-10.895 5.228-16.512l37.658-151.035c8.236-2.684 16.489-5.327 24.684-8.125 1.829-.621 3.66-1.237 5.462-1.93 8.312-3.079 16.563-6.305 24.835-9.481 43.967 31.105 87.932 62.214 131.904 93.313 12.115 8.466 25.94 14.667 40.475 17.97 13.03 2.975 26.606 3.626 39.824 1.876a111.151 111.151 0 0 0 37.82-12.15c4.964-2.65 9.693-5.693 14.197-9.01a1054.552 1054.552 0 0 0 51.191-39.241c3.339-2.815 6.62-5.69 9.919-8.549 14.028-12.215 27.837-24.67 41.144-37.613 10.308-10.207 18.534-22.365 24.03-35.612a106.792 106.792 0 0 0 8.16-41.118c-.019-14.621-3.052-29.254-8.808-42.84-1.231-2.933-2.611-5.807-4.045-8.655l-69.725-141.182c3.116-5.066 6.273-10.108 9.345-15.199a539.295 539.295 0 0 0 15.165-26.82l4.888-9.19c53.194-3.726 106.39-7.448 159.583-11.181 14.055-1.088 27.88-4.718 40.462-10.76 12.58-6.026 23.899-14.436 33.15-24.603 8.758-9.612 15.673-20.766 20.422-32.729 2.166-5.436 3.863-11.044 5.182-16.733a777.261 777.261 0 0 0 5.358-23.633l.105-.499.316-1.51.1-.486c2.629-12.672 4.946-25.406 7.02-38.179 3.582-21.488 6.261-43.12 8.257-64.814a111.104 111.104 0 0 0-4.373-43.186c-4.63-15.118-12.543-29.336-23.147-41.395-8.754-9.985-19.334-18.485-31.104-24.97-3.432-1.905-6.986-3.595-10.578-5.195-47.852-21.685-95.702-43.375-143.554-65.063-1.312-7.875-2.585-15.756-3.998-23.617-.43-2.398-.844-4.8-1.302-7.193a2248.9 2248.9 0 0 0-2.368-11.671c0-.01-.075-.364-.104-.503-1.168-5.631-2.393-11.252-3.59-16.878 37.756-36.899 75.514-73.795 113.263-110.7 10.436-10.333 18.74-22.669 24.209-36.119a106.27 106.27 0 0 0 7.833-40.283c-.02-13.856-2.747-27.718-7.897-40.704-1.728-4.378-3.751-8.646-5.971-12.816-9.945-19.17-20.359-38.12-31.358-56.756a1014.212 1014.212 0 0 0-31.182-48.704c-2.033-2.97-4.051-5.948-6.133-8.887-9.302-12.979-21.422-24.117-35.426-32.295-11.779-6.893-24.863-11.699-38.396-14.013a113.804 113.804 0 0 0-37.7-.14c-4.392.712-8.726 1.716-13 2.9-16.54 4.461-33.082 8.91-49.623 13.367l-101.887 27.439c-4.088-3.534-8.155-7.092-12.261-10.607-3.796-3.243-7.65-6.42-11.52-9.579-5.343-4.45-10.78-8.793-16.27-13.074l-6.478-5.079c4.427-53.01 8.856-106.02 13.277-159.031a109.483 109.483 0 0 0-5.427-43.674c-5.067-15.002-13.45-28.994-24.472-40.714-9.868-10.525-21.838-19.211-35.04-25.451-3.274-1.546-6.625-2.928-9.946-4.375-18.615-8.003-37.414-15.618-56.494-22.51-18.212-6.663-36.689-12.614-55.252-18.268.01 0-.365-.111-.503-.152-3.063-.921-6.116-1.875-9.193-2.752-14.537-4.07-29.913-5.303-44.872-3.448-13.241 1.63-26.134 5.659-37.807 11.814a108.684 108.684 0 0 0-32.485 26.164c-2.84 3.365-5.451 6.905-7.89 10.551-29.31 42.877-58.621 85.753-87.93 128.63-7.861-.17-15.722-.394-23.584-.45-2.9-.03-5.802-.011-8.703-.093-5.811-.114-11.623-.09-17.432 0l-8.954.115c-30.771-43.76-61.54-87.521-92.315-131.277-8.931-12.418-20.353-23.215-33.561-31.375-11.46-7.094-24.242-12.2-37.542-14.884a113.587 113.587 0 0 0-23.434-2.25zm14.292 112.203c31.612 45.013 63.216 90.032 94.836 135.04 6.769 9.48 15.584 17.637 25.801 23.609 8.988 5.267 19.025 8.842 29.376 10.468 6.28.996 12.67 1.277 19.005.901 16.412-.802 32.862-1.128 49.304-.629 6.887.208 13.77.582 20.64 1.119 11.348.655 22.82-.94 33.422-4.784 10.28-3.711 19.726-9.5 27.552-16.89a79.913 79.913 0 0 0 11.696-13.862l98.537-144.387c6.892 2.096 13.791 4.166 20.676 6.283 14.561 4.507 29.006 9.369 43.342 14.516a1019.077 1019.077 0 0 1 49.431 19.848l12.153 5.215c-4.977 58.928-9.957 117.855-14.932 176.784-.971 12.25.904 24.748 5.58 36.246 4.074 10.052 10.244 19.324 18.013 27.123 3.523 3.551 7.378 6.793 11.463 9.73 8.778 6.464 17.392 13.138 25.739 20.116 3.772 3.15 7.531 6.316 11.309 9.46.541.385 1.068.786 1.543 1.246 3.28 2.84 6.526 5.72 9.704 8.667 1.998 1.843 3.956 3.725 5.914 5.605 7.084 6.445 15.206 11.866 24.087 15.72a82.502 82.502 0 0 0 16.823 5.275l15.03 3.16.036 1.915 193.857-52.464c3.963 5.815 7.95 11.615 11.895 17.44 8.655 12.838 16.973 25.885 24.885 39.156 9.068 15.382 17.62 31.04 25.758 46.89l5.948 11.523c-42.025 41.085-84.053 82.167-126.073 123.258-8.626 8.59-15.24 19.058-19.138 30.436a77.475 77.475 0 0 0-3.894 32.124c.392 4.447 1.181 8.863 2.307 13.199a825.647 825.647 0 0 1 4.397 19.458c1.863 8.747 3.603 17.52 5.092 26.33 1.493 8.746 2.79 17.52 3.948 26.31 1.61 11.089 5.527 21.9 11.566 31.519 5.798 9.248 13.523 17.38 22.57 23.77 4.98 3.53 10.354 6.527 15.974 8.988l161.535 73.298c-.668 6.491-1.306 12.986-1.996 19.474-1.674 15.607-3.806 31.162-6.27 46.663-2.717 16.855-6.19 33.583-10.166 50.19l-3.311 13.951c-59.146 4.103-118.293 8.201-177.438 12.307-11.368.872-22.53 4.05-32.46 9.38a79.451 79.451 0 0 0-22.516 17.986c-4.748 5.469-8.716 11.556-11.876 18.008-5.152 10.27-10.446 20.479-16.27 30.407-5.583 9.794-11.607 19.341-17.643 28.876-1.383 2.158-2.773 4.315-3.998 6.562-4.957 8.956-8.176 18.822-9.353 28.944-1.18 10.085-.352 20.398 2.39 30.237 1.551 5.588 3.723 11.015 6.385 16.208 26.2 52.79 52.402 105.58 78.602 158.372-5.973 5.518-11.913 11.07-17.925 16.55-12.201 11.12-24.675 21.964-37.473 32.446-11.271 9.209-22.87 18.038-34.6 26.7l-11.178 8.286c-48.987-34.67-97.972-69.342-146.965-104.005-9.186-6.412-19.707-11.068-30.768-13.39a82.205 82.205 0 0 0-32.086-.342c-6.376 1.194-12.582 3.144-18.49 5.709a751.06 751.06 0 0 1-31.806 12.487c-10.793 3.567-21.52 7.341-32.501 10.37a83.753 83.753 0 0 0-19.903 8.414c-8.417 4.922-15.862 11.363-21.832 18.9-5.963 7.495-10.439 16.069-13.266 25.126-1.027 3.222-1.748 6.526-2.572 9.801l-40.758 165.647c-6.82.343-13.64.709-20.461 1.037-14.043.655-28.108 1.01-42.177.85-3.048-.043-6.096-.065-9.143-.087-14.806-.144-29.605-.866-44.382-1.869l-17.125-1.19c-15.839-57.552-31.673-115.107-47.515-172.66-3.178-11.312-8.834-22.023-16.643-31.062-7.22-8.383-16.256-15.312-26.353-20.19-4.334-2.106-8.86-3.83-13.495-5.195-10.326-3.397-20.68-6.717-30.954-10.26-1.374-.475-2.752-.941-4.1-1.486-10.573-4.087-21.007-8.503-31.454-12.885-11.286-4.779-23.663-7.15-35.938-6.73-10.722.355-21.337 2.821-31.016 7.19-5.324 2.39-10.36 5.353-15.039 8.76l-141.567 100.19c-5.784-4.242-11.585-8.463-17.355-12.722a909.172 909.172 0 0 1-35.641-27.794c-3.928-3.274-7.79-6.621-11.644-9.976-10.184-8.893-20.162-18.001-30.067-27.182l-9.248-8.548c25.14-53.45 50.284-106.898 75.417-160.351 4.853-10.497 7.386-22.018 7.238-33.56-.119-10.268-2.329-20.52-6.397-30.048-2.333-5.494-5.281-10.744-8.707-15.685-6.142-9.146-11.844-18.553-17.53-27.962-4.017-6.749-7.872-13.585-11.632-20.468-2.156-3.944-4.25-7.92-6.36-11.887-6.228-11.437-15.198-21.526-26.107-29.065-9.024-6.251-19.355-10.752-30.192-13.015-3.837-.811-7.734-1.325-11.645-1.608l-177.321-15.04c-1.794-7.319-3.623-14.63-5.383-21.956a1309.164 1309.164 0 0 1-9.336-42.203c-.637-3.21-1.184-6.436-1.76-9.656a932.796 932.796 0 0 1-6.78-44.914l-1.619-12.594c53.88-24.067 107.76-48.132 161.636-72.208 10.97-4.971 20.78-12.294 28.415-21.358a77.823 77.823 0 0 0 14.698-26.63c1.74-5.463 2.87-11.105 3.435-16.802 1.273-11.064 2.556-22.134 4.445-33.113.597-3.7 1.175-7.405 1.835-11.095a398.973 398.973 0 0 1 4.9-23.571c2.359-10.644 2.58-21.76.497-32.51-2.107-10.938-6.578-21.467-13.024-30.738-3.494-5.045-7.564-9.715-12.062-13.96l-128.413-123.928c5.09-10.15 10.117-20.33 15.362-30.405 5.95-11.456 12.132-22.8 18.678-33.946a899.932 899.932 0 0 1 24.144-39.039l7.216-11.094c57.547 16.177 115.094 32.355 172.642 48.528 11.366 3.073 23.403 3.795 35.008 1.965 10.342-1.615 20.32-5.219 29.193-10.526a82.422 82.422 0 0 0 14.05-10.586c4.633-4.196 9.267-8.393 13.906-12.583 4.082-3.677 8.182-7.337 12.383-10.888 8.89-7.212 17.932-14.256 27.285-20.907 7.875-6.003 14.686-13.318 19.883-21.609a77.439 77.439 0 0 0 10.75-27.933c1.352-7.727 1.532-15.648.612-23.455-5.798-52.413-11.603-104.825-17.403-157.238l-2.115-19.103c6.643-2.78 13.273-5.587 19.924-8.346a1115.509 1115.509 0 0 1 41.64-16.224 935.387 935.387 0 0 1 30.849-10.245 796.831 796.831 0 0 1 20.171-6.002c3.981-1.14 7.962-2.282 11.942-3.423l8.286 11.8zm200.74 399.674c-24.111.285-48.17 2.96-71.647 8.042-3.93.848-7.842 1.768-11.736 2.75.177-.044-.32.081-.43.11a349.192 349.192 0 0 0-73.8 27.904 346.901 346.901 0 0 0-71.04 48.508c-22.736 20.075-42.697 43.05-59.274 68.118l-.297.448c.075-.11-.186.284-.245.375a341.036 341.036 0 0 0-33.155 64.436l-.156.406-.327.852a341.051 341.051 0 0 0-15.354 52.537c.035-.162-.065.318-.086.424-4.753 23.096-7.098 46.669-7.08 70.26v2.068a357.288 357.288 0 0 0 .327 13.029 358.578 358.578 0 0 0 .558 9.755c.066.942.139 1.884.211 2.826-.013-.185.026.316.035.425a349.71 349.71 0 0 0 1.235 12.544c-.02-.15.039.329.052.437a351.299 351.299 0 0 0 18.047 77.007 356.827 356.827 0 0 0 33.831 69.675c14.214 22.658 31.02 43.825 50.022 62.974a367.776 367.776 0 0 0 56.45 46.543 366.694 366.694 0 0 0 48.189 27.218c-.168-.08.299.14.402.187a362.55 362.55 0 0 0 74.855 25.477 362.637 362.637 0 0 0 66.971 8.432c24.007.775 48.072-.82 71.681-4.805a351.463 351.463 0 0 0 68.581-18.867l.414-.161a347.718 347.718 0 0 0 52.015-25.431 347.822 347.822 0 0 0 21.163-13.692l.363-.255a346.516 346.516 0 0 0 61.06-54.686 344.058 344.058 0 0 0 33.49-44.963c-.101.159.167-.27.225-.364a341.002 341.002 0 0 0 35.416-76.527c7.569-23.662 12.516-48.122 14.796-72.835 2.12-22.967 1.95-46.151-.457-69.138a351.546 351.546 0 0 0-16.139-74.539c-9.302-27.914-22.157-54.76-38.187-79.739a364.195 364.195 0 0 0-46.249-58.026 366.862 366.862 0 0 0-82.806-63.39 363.545 363.545 0 0 0-75.462-31.737 362.27 362.27 0 0 0-78.573-13.873 366.825 366.825 0 0 0-27.896-.739zm4.953 101.933a257.281 257.281 0 0 1 55.875 5.887 256.168 256.168 0 0 1 40.293 12.35 258.518 258.518 0 0 1 51.39 27.612 260.792 260.792 0 0 1 47.65 42.531c18.856 21.534 34.007 46.058 44.644 72.25a250.694 250.694 0 0 1 15.976 59.09 251.558 251.558 0 0 1 1.097 62.261c-2.146 19.907-6.733 39.548-13.695 58.358-10.075 27.255-25.145 52.751-44.371 74.91a245.48 245.48 0 0 1-59.423 49.817 245.826 245.826 0 0 1-56.417 24.745c-19.811 5.867-40.438 9.24-61.2 10.058a257.673 257.673 0 0 1-44.5-2.094 255.058 255.058 0 0 1-57.2-14.593c-21.382-8.176-41.598-19.214-59.961-32.612a260.897 260.897 0 0 1-50.461-48.383 257.835 257.835 0 0 1-25.361-38.489 252.632 252.632 0 0 1-21.133-52.91c-6.56-24-9.47-48.876-8.723-73.606a246.595 246.595 0 0 1 3.988-37.513 242.372 242.372 0 0 1 14.636-49.283 242.888 242.888 0 0 1 29.863-52.22c17.123-22.835 38.399-42.772 62.675-58.493a245.526 245.526 0 0 1 57.29-27.34c19.17-6.269 39.188-10.185 59.424-11.654a257.12 257.12 0 0 1 17.644-.68zm1801.957-635.275c-5.385.042-10.77.116-16.154.248a900.83 900.83 0 0 0-59.012 3.368 900.892 900.892 0 0 0-20.453 2.082 891.218 891.218 0 0 0-40.661 5.572 883.895 883.895 0 0 0-105.386 23.613 882.499 882.499 0 0 0-62.443 20.622 893.273 893.273 0 0 0-20.21 7.806 886.589 886.589 0 0 0-21.589 8.978 875.469 875.469 0 0 0-20.421 9.122 880.377 880.377 0 0 0-42.873 21.226 887.3 887.3 0 0 0-103.038 63.901 892.946 892.946 0 0 0-94.244 78.111 895.967 895.967 0 0 0-35.283 35.52 895.8 895.8 0 0 0-33.861 38.182 893.134 893.134 0 0 0-45.409 59.109 894.531 894.531 0 0 0-26.764 40.317 891.168 891.168 0 0 0-25.074 42.71 888.023 888.023 0 0 0-21.438 41.53 895.056 895.056 0 0 0-9.236 19.73 881.83 881.83 0 0 0-33.522 85.586 888.681 888.681 0 0 0-6.646 20.838 891.994 891.994 0 0 0-6.098 20.896 883.707 883.707 0 0 0-15.274 64.01 879.22 879.22 0 0 0-3.99 21.362 878.779 878.779 0 0 0-3.109 19.093 890.495 890.495 0 0 0-8.54 81.52 894.717 894.717 0 0 0-1.445 39.91 903.116 903.116 0 0 0 .314 39.693c.177 6.03.422 12.059.72 18.084a902.95 902.95 0 0 0 2.843 39.394 894.71 894.71 0 0 0 4.823 40.928 900.903 900.903 0 0 0 3.105 20.27 885.667 885.667 0 0 0 12.453 61.667 873.108 873.108 0 0 0 5.315 21.057 876.9 876.9 0 0 0 12.32 42.136 880.817 880.817 0 0 0 31.805 84.355 896.167 896.167 0 0 0 8.868 19.65 898.72 898.72 0 0 0 9.4 19.54 885.33 885.33 0 0 0 11.754 22.838 883.552 883.552 0 0 0 22.664 39.988 887.908 887.908 0 0 0 40.145 60.925 892.3 892.3 0 0 0 43.597 55.78 892.209 892.209 0 0 0 50.74 55.01 899.275 899.275 0 0 0 17.808 17.269 900.04 900.04 0 0 0 19.245 17.622 894.07 894.07 0 0 0 37.01 31.16 891.163 891.163 0 0 0 39.748 29.885 889.982 889.982 0 0 0 79.986 50.55 885.225 885.225 0 0 0 39.879 21.007 882.22 882.22 0 0 0 128.257 51.386 878.46 878.46 0 0 0 42.291 12.057 878.925 878.925 0 0 0 64.11 14.036 875.229 875.229 0 0 0 19.091 3.228 898.7 898.7 0 0 0 20.296 2.965c7.18.96 14.371 1.84 21.573 2.626a888.617 888.617 0 0 0 39.695 3.45 895.17 895.17 0 0 0 19.327 1.036 911.27 911.27 0 0 0 20.633.648c6.455.125 12.911.189 19.368.178 6.846-.01 13.692-.1 20.537-.263a900.833 900.833 0 0 0 39.904-1.851 895.101 895.101 0 0 0 39.562-3.602 891.228 891.228 0 0 0 40.628-5.569 884.444 884.444 0 0 0 84.367-17.81 881.758 881.758 0 0 0 167.594-62.816 886.544 886.544 0 0 0 83.977-47.485 893.257 893.257 0 0 0 40.02-27.156 893.196 893.196 0 0 0 75.962-61.19 897.292 897.292 0 0 0 18.283-16.92 895.972 895.972 0 0 0 35.283-35.52 895.8 895.8 0 0 0 33.861-38.181 892.785 892.785 0 0 0 45.409-59.109 894.648 894.648 0 0 0 26.764-40.317 891.78 891.78 0 0 0 25.074-42.712 887.38 887.38 0 0 0 21.438-41.529 895.73 895.73 0 0 0 9.236-19.73 881.629 881.629 0 0 0 40.168-106.424 891.986 891.986 0 0 0 6.098-20.897 882.754 882.754 0 0 0 25.206-124.725 890.982 890.982 0 0 0 5.706-61.26 894.748 894.748 0 0 0 1.446-39.91c.091-6.405.112-12.811.067-19.217a915.146 915.146 0 0 0-1.101-38.61 929.904 929.904 0 0 0-1.028-17.238c-.5-7.169-1.08-14.332-1.753-21.487a883.484 883.484 0 0 0-7.453-58.592 896.054 896.054 0 0 0-3.486-20.143 879.517 879.517 0 0 0-13.626-61.326 877.456 877.456 0 0 0-18.93-63.039 868.881 868.881 0 0 0-7.382-20.755 879.157 879.157 0 0 0-35.269-82.252 884.807 884.807 0 0 0-22.414-42.719 887.787 887.787 0 0 0-23.175-39.005 891.382 891.382 0 0 0-13.475-20.767 890.593 890.593 0 0 0-28.696-40.411 885.888 885.888 0 0 0-13.688-17.713 890.336 890.336 0 0 0-32.317-38.48 895.944 895.944 0 0 0-33.178-35.342 901.85 901.85 0 0 0-18.76-18.378 897.068 897.068 0 0 0-37.338-33.574 898.403 898.403 0 0 0-19.11-15.789 897.61 897.61 0 0 0-39.363-29.858 892.866 892.866 0 0 0-61.4-40.239 896.628 896.628 0 0 0-41.71-23.438 888.893 888.893 0 0 0-43.315-21.346 893.704 893.704 0 0 0-21.485-9.527 888.125 888.125 0 0 0-40.975-16.323 881.978 881.978 0 0 0-64.728-21.135 885.414 885.414 0 0 0-63.78-15.591 884.556 884.556 0 0 0-62.275-10.484 889.263 889.263 0 0 0-20.228-2.434 896.018 896.018 0 0 0-40.926-3.488 895.538 895.538 0 0 0-42.333-1.622 906.822 906.822 0 0 0-18.128-.085h-.774zm119.451 113.037a787.582 787.582 0 0 1 35.246 5.928c-.033 0 .37.072.506.1l1.428.275c-.01 0 .373.073.514.1l1.427.28c-.015 0 .371.074.51.102l1.425.282c-.028-.01.37.074.507.101 12.03 2.41 24 5.106 35.902 8.081l.5.126a772.153 772.153 0 0 1 116.378 39.26c-4.99 3.768-9.828 7.733-14.739 11.604-2.697 2.127-5.377 4.287-8.235 6.196-.71.473-1.442.919-2.242 1.225-3.736 1.595-7.597 2.872-11.462 4.115-2.466.791-4.952 1.518-7.409 2.34-10.56 3.433-21.092 7.109-31.018 12.133-8.526 4.3-16.602 9.627-23.455 16.311-5.813 5.648-10.694 12.267-14.26 19.55-3.309 6.705-5.556 13.955-6.414 21.39-.814 6.86-.434 13.84.917 20.608 1.419 7.191 3.914 14.122 6.82 20.836a314.503 314.503 0 0 0 2.612 5.861c-5.757 4.536-11.19 9.465-16.495 14.516a124.608 124.608 0 0 0-3.506 3.407c-1.854 1.83-3.691 3.688-5.71 5.34-.202.153-.383.357-.655.365-5.938 1.34-12.04 1.713-18.109 1.87a400.56 400.56 0 0 1-11.016.071c-8.4-.118-16.816-.167-25.192.567-8.09.694-16.13 2.121-23.903 4.484-8.26 2.495-16.195 6.03-23.636 10.392-6.557 3.836-12.732 8.3-18.563 13.161-8.856 7.454-16.429 16.396-22.491 26.247a117.497 117.497 0 0 0-6.004 11.06c-.012.028-.167.345-.232.48-6.478 13.408-10.393 27.982-12.088 42.754a146.533 146.533 0 0 0-.912 20.006c.431 11.47 2.349 22.92 6.069 33.793 3.082 8.994 7.434 17.605 13.277 25.13.663.866 1.423 1.654 2.148 2.468 4.517 4.94 9.602 9.4 15.303 12.93-6.459 8.508-12.262 17.494-17.767 26.642a504.004 504.004 0 0 0-6.659 11.434c-2.023 2.028-4.195 3.901-6.346 5.791-3.234 2.81-6.486 5.6-9.74 8.386-12.218 10.35-24.315 20.908-35.248 32.631-5.203 5.592-10.146 11.441-14.572 17.67-9.432 13.604-17.614 28.106-23.99 43.391-4.597 11.62-7.932 23.756-9.651 36.14-.478 3.437-.84 6.893-1.065 10.357.01 4.315-.432 8.614-.909 12.898-.879 7.8-2.058 15.564-2.787 23.38-1.486 14.875-3.066 29.74-4.397 44.63-.59 6.782-1.16 13.57-1.437 20.373-.119 3.5-.208 7.02.23 10.502.233 1.755.646 3.48 1.006 5.213 4.025 18.368 10.997 36.02 19.953 52.53 8.909 16.411 19.767 31.734 32.002 45.83 6.889 7.906 14.253 15.397 22 22.463 13.863 12.625 28.973 23.894 45.103 33.463 10.702 6.341 21.857 11.936 33.41 16.56 8.822 3.48 18.313 5.054 27.77 5.25 9.9.212 19.78-1.01 29.468-2.977 12.297-2.514 24.316-6.217 36.156-10.348 10.369-3.62 20.602-7.612 30.846-11.567 7.893-3.03 15.793-6.063 23.848-8.644 2.785-.935 5.604-1.822 8.513-2.28.252-.037.504-.07.757-.096 1.487 2.075 2.706 4.325 3.958 6.545a271.277 271.277 0 0 0 2.375 4.24c1.597 2.83 3.054 5.736 4.655 8.565.362.64.74 1.269 1.182 1.857 5.023 7.141 10.118 14.233 15.356 21.219 2.91 3.856 5.842 7.7 8.988 11.367.342.413.728.802 1.052 1.22 1.25 6.213 2.367 12.45 3.514 18.683 1.011 5.506 1.998 11.016 3.016 16.52 1.48 7.401 3.937 14.568 6.741 21.561 3.86 9.583 8.404 18.87 12.939 28.146 4.563 9.315 9.196 18.607 13.194 28.184 1.91 4.612 3.698 9.29 4.987 14.117.574 2.226 1.089 4.489 1.167 6.794-.069 7.756-.844 15.543-2.842 23.053-1.56 5.948-3.904 11.65-6.358 17.275-.838 1.861-1.547 3.776-2.307 5.67-2.644 6.65-5.169 13.356-7.203 20.22-2.58 8.634-4.421 17.483-5.578 26.418-.366 3.164.079 6.349.663 9.458.886 4.625 2.031 9.195 3.19 13.757 2.463 9.586 5.133 19.117 7.86 28.63 5.31 18.466 10.883 36.855 16.652 55.182a3589.81 3589.81 0 0 0 7.068 22.102c4.509 13.904 9.132 27.772 14.034 41.542 2.541 7.1 5.133 14.187 8.003 21.162 1.416 3.388 2.864 6.776 4.677 9.975a29.563 29.563 0 0 0 2.37 3.567c2.784 3.417 5.889 6.585 9.35 9.32 1.582 1.265 3.248 2.42 4.941 3.53a56.504 56.504 0 0 0 19.596 8.515c7.962 1.793 16.258 1.843 24.304.585 7.476-1.166 14.764-3.39 21.732-6.32 8.975-3.767 17.477-8.587 25.567-13.98 5.894-3.932 11.562-8.194 17.048-12.675 9.757-7.884 19.02-16.364 27.946-25.174 11.96-11.825 23.307-24.26 34.15-37.113 11.103-13.182 21.683-26.81 31.614-40.897a524.327 524.327 0 0 0 8.536-12.504c2.008-2.846 3.807-5.831 5.62-8.803 4.744-7.86 9.337-15.813 13.919-23.77 7.369-12.813 14.642-25.68 21.9-38.556a3509 3509 0 0 0 28.02-49.517c3.781-6.837 7.564-13.675 11.217-20.581 1.084-2.095 2.218-4.174 3.068-6.378 3.447-10.5 6.252-21.236 7.886-32.174a143.77 143.77 0 0 0 1.553-25.782c-.208-7.421-1.018-14.808-1.867-22.178-.665-5.506-1.274-11.059-.902-16.61.48-7.66 2.682-15.098 5.482-22.205 3.022-7.631 6.75-14.962 10.745-22.125 5.832-10.408 12.271-20.464 18.959-30.34 9.368-13.805 19.25-27.254 29.362-40.524 3.223-4.236 6.489-8.44 9.748-12.649 6.624-8.678 12.282-18.174 16.06-28.442 3.075-8.317 4.856-17.126 5.079-25.996.235-8.452-.941-16.91-3.159-25.058-2.342-8.67-5.825-16.979-9.634-25.094-1.545-3.313-3.155-6.594-4.728-9.893-1.202-2.563-2.377-5.147-3.296-7.828 6.663-2.74 13.205-5.834 19.302-9.688 7.012-4.408 13.426-9.805 18.769-16.143a74.62 74.62 0 0 0 5.09-6.76 811.177 811.177 0 0 1 1.307 18.644c-.001-.034.02.376.03.515a812.56 812.56 0 0 1 1.25 34.339c.02 1.268.036 2.536.05 3.804.002-.01 0 .38.01.523.014 1.27.023 2.541.03 3.812v.523c.034 7.824-.043 15.65-.235 23.471a802.63 802.63 0 0 1-1.006 24.938 793.36 793.36 0 0 1-1.774 24.68 784.54 784.54 0 0 1-2.575 24.863 788.184 788.184 0 0 1-3.29 24.25 786.895 786.895 0 0 1-4.118 24.534 778.601 778.601 0 0 1-17.879 75.6 784.186 784.186 0 0 1-8.435 27.214 778.809 778.809 0 0 1-19.077 51.565 775.223 775.223 0 0 1-11.37 26.294 775.196 775.196 0 0 1-12.278 25.754 783.197 783.197 0 0 1-14.4 27.457 784.478 784.478 0 0 1-31.64 52.529 787.955 787.955 0 0 1-15.715 23.014 790.097 790.097 0 0 1-17.051 23.133 788.86 788.86 0 0 1-39.018 47.05 789.306 789.306 0 0 1-42.44 43.772 790.96 790.96 0 0 1-23.89 21.88 787.458 787.458 0 0 1-47.779 38.784 785.214 785.214 0 0 1-72.603 48.303 776.757 776.757 0 0 1-26.584 14.936 784.11 784.11 0 0 1-25.675 13.17 785.438 785.438 0 0 1-27.027 12.599 784.932 784.932 0 0 1-25.217 10.648 776.363 776.363 0 0 1-73.712 25.392 791.302 791.302 0 0 1-22.328 6.102 779.77 779.77 0 0 1-73.184 15.121 786.472 786.472 0 0 1-47.275 5.965 800.396 800.396 0 0 1-24.28 1.938 796.661 796.661 0 0 1-70.784 1.402c.136 0-.348-.01-.46-.013a788.385 788.385 0 0 1-111.03-10.659 792.212 792.212 0 0 1-18.978-3.435c.136.028-.341-.067-.45-.088a778.492 778.492 0 0 1-84.588-21.427c.127.038-.333-.105-.44-.139a775.303 775.303 0 0 1-116.698-47.452l-.413-.209-2.324-1.18c.12.06-.31-.158-.41-.21a775.425 775.425 0 0 1-23.908-12.74c.078.096-.181-.283-.2-.407-3.801-8.382-7.27-16.931-9.976-25.733-2.015-6.612-3.62-13.385-4.214-20.285-.439-5.123-.24-10.328.91-15.35 1.38-6.153 4.086-11.888 6.74-17.572 3.125-7.096 6.265-14.204 8.673-21.584 2.575-7.808 4.327-15.896 5.074-24.088.671-7.165.592-14.39-.056-21.554-.499-6.345-.371-12.793 1.004-19.029 1.067-4.851 2.974-9.537 5.774-13.65 3.502-5.14 8.065-9.478 13.022-13.2 6.158-4.615 12.914-8.368 19.843-11.687 3.317-1.59 6.692-3.055 10.086-4.473 6.879-2.95 13.318-7.014 18.697-12.239 5.098-4.926 9.196-10.865 12.075-17.339 3.56-7.94 5.309-16.585 5.951-25.232.713-9.608.158-19.253-.668-28.835-.28-3.309-.62-6.613-.917-9.92-.179-2.389-.372-4.775-.56-7.162l-.042-.532c-.387-5.075-.791-10.16-.732-15.253.047-2.194.13-4.408.622-6.555 1.019-3.966 2.391-7.834 4-11.597 2.973-6.984 6.674-13.624 10.38-20.238 5.002-9.07 10.02-18.18 13.765-27.857 2.853-7.338 4.939-15.004 5.81-22.84.9-7.943.533-16.022-1.033-23.86-1.852-9.343-5.34-18.308-9.8-26.706-2.898-5.36-7.092-9.907-11.711-13.832-5.23-4.431-11.015-8.153-16.94-11.577-8.578-4.913-17.501-9.192-26.505-13.261-13.07-5.88-26.345-11.29-39.613-16.707a846.4 846.4 0 0 0-10.148-4.096c-2.098-.834-4.194-1.672-6.29-2.508-.066-.025-.373-.149-.531-.212-7.36-2.945-14.71-5.912-22.027-8.963.027.013-.348-.145-.477-.199-8.509-3.566-16.989-7.214-25.29-11.244-3.571-1.751-7.126-3.55-10.545-5.587-1.874-1.162-3.74-2.373-5.356-3.884-.18-.199-.417-.37-.542-.606-.223-.754-.387-1.524-.57-2.288l-.12-.511c-1.043-4.555-2.214-9.092-3.835-13.48-2.348-6.44-5.614-12.532-9.575-18.122-5.488-7.762-12.19-14.593-19.36-20.808-8.166-7.062-16.958-13.368-25.985-19.278-11.878-7.753-24.194-14.812-36.686-21.522-1.5-.82-3.032-1.581-4.513-2.435-3.239-1.946-6.153-4.376-8.98-6.869-4.652-4.138-9.047-8.553-13.526-12.877-2.395-2.352-4.75-4.744-7.15-7.091-7.528-7.415-15.305-14.602-23.667-21.073-8.167-6.338-16.884-11.984-26.104-16.67a153.37 153.37 0 0 0-27.564-10.8c-7.142-1.983-14.573-2.942-21.985-2.757-7.465.165-14.866 1.492-22.042 3.51-3.243.9-6.444 1.947-9.636 3.007-3.173.405-6.257 1.312-9.261 2.388-.843.297-1.681.606-2.528.893-2.126-2.257-4.003-4.735-5.832-7.234-4.68-6.481-8.84-13.325-12.663-20.341-6.042-11.152-11.183-22.803-15.18-34.844-3.49-10.57-6.157-21.467-7.157-32.574-.884-9.764-.492-19.716 1.913-29.25a66.252 66.252 0 0 1 3.604-10.532c2.534-2.172 5.223-4.154 7.912-6.129 6.213-4.523 12.557-8.864 18.895-13.211.019-.015.316-.216.438-.3 7.78-5.318 15.581-10.605 23.341-15.953 8.723-5.985 17.47-11.938 26.14-17.999 8.32-5.964 15.377-13.534 21.453-21.735 7.381-9.985 13.392-20.902 18.839-32.037 3.767-7.72 7.267-15.567 10.753-23.417 2.433-5.65 4.858-11.308 7.498-16.866.792-1.654 1.601-3.301 2.496-4.903 8.22-6.475 16.12-13.343 23.99-20.236 9.42-8.144 18.848-16.302 28.837-23.748-.206.151.232-.172.312-.232 8.461-6.273 17.359-12.042 26.953-16.438 7.833-3.593 16.155-6.199 24.713-7.325 5.942-.845 11.764-2.792 16.862-5.987 5.07-3.147 9.356-7.498 12.564-12.518 3.355-5.202 5.574-11.054 7.143-17.02 1.635-6.188 2.6-12.523 3.597-18.838.266-1.548.531-3.097.811-4.643 5.135 4.484 10.607 8.662 16.702 11.763 5.378 2.757 11.237 4.627 17.257 5.257 6.135.657 12.384.02 18.3-1.706 7.906-2.286 15.175-6.393 21.75-11.285 6.4-4.77 12.216-10.28 17.666-16.1a55.087 55.087 0 0 0 10.667-17.004c2.777-6.976 4.105-14.476 4.304-21.966.258-9.493-1.2-18.952-3.429-28.157-3.126-12.855-7.747-25.276-12.369-37.652-1.287-3.312-2.603-6.613-3.855-9.938-1.516-4.03-3.02-8.07-4.236-12.203-.117-.44-.273-.883-.347-1.327.821-3.049 2.312-5.92 4.39-8.304 2.71-3.135 6.184-5.491 9.763-7.527 2.47-1.4 5.03-2.636 7.575-3.892 6.065-3.175 12.19-6.34 17.638-10.523 4.316-3.3 8.164-7.276 11.009-11.922 2.505-4.052 4.22-8.581 5.085-13.264.75-4.042.872-8.185.533-12.277-.125-4.06-.991-8.101-2.6-11.834-1.976-4.623-5.072-8.729-8.825-12.06a44.116 44.116 0 0 0-5.345-4.057 403.034 403.034 0 0 1 26.008-5.803c9.274-1.771 18.594-3.334 27.975-4.424 1.083-.121 2.187-.251 3.26-.345-1.25 3.452-2.502 6.905-3.676 10.384-3.475 10.444-6.98 20.894-9.678 31.573-1.884 7.526-3.38 15.184-3.828 22.941-.352 6.151 0 12.383 1.522 18.37 1.46 5.868 3.753 11.575 7.158 16.594 2.832 4.196 6.447 7.874 10.655 10.697 4.291 2.89 9.175 4.872 14.241 5.9 6.037 1.244 12.288 1.168 18.367.264 5.393-.81 10.694-2.211 15.801-4.12 8.967-3.347 17.359-8.04 25.451-13.109 8.252-5.18 16.226-10.786 24.229-16.34 11.995-8.528 24.066-16.998 36.83-24.352 6.088-3.505 12.332-6.759 18.8-9.512 8.296-3.494 17.088-5.68 25.96-7.107 9.376-1.524 18.853-2.262 28.312-3.053 10.632-1.022 21.278-2.005 31.828-3.71 9.53-1.525 18.973-3.64 28.186-6.523 6.83-2.13 13.519-4.698 20.09-7.523 11.67-5.039 22.915-11.106 33.37-18.346 8.53-5.893 16.508-12.573 23.857-19.882 5.376-5.321 10.392-10.99 15.308-16.735 2.502-2.933 4.92-5.946 7.616-8.707.42-.416.822-.862 1.35-1.143 2.162-1.438 4.224-3.019 6.284-4.595 3.39-2.626 6.737-5.316 9.86-8.258 2.323-2.2 4.5-4.613 6.04-7.436a29.16 29.16 0 0 0 .929-1.882c.18-.586.57-1.072.852-1.611a52.755 52.755 0 0 0 3.583-7.558l1.53.22zm128.152 359.291c1.684.066 3.283.691 4.808 1.362 3.498 1.614 6.688 3.804 9.833 6.01a302.06 302.06 0 0 1 3.434 2.476c-4.196.108-8.39.274-12.578.573-6.856.467-13.699 1.135-20.507 2.064 3.204-3.393 6.46-6.749 9.983-9.816.927-.788 1.859-1.582 2.877-2.251.681-.277 1.412-.44 2.15-.418zm168.02 80.582c4.372 3.795 9.49 6.673 14.886 8.737 7.001 2.68 14.422 4.07 21.846 4.943 8.43.975 16.914 1.32 25.387 1.683 1.825.061 3.65.126 5.476.193-.053 0 .373.015.51.02 11.161.433 22.342 1.06 33.389 2.783 6.468 1.03 12.906 2.423 19.08 4.638 4.555 1.655 9.008 3.758 12.832 6.77a27.485 27.485 0 0 1 1.856 1.605c.014 1.072-.243 2.117-.466 3.158a11.286 11.286 0 0 1-1.367 3.976l-9.996 3.67c.029.223.022.417-.257.385-3.917.742-7.945.646-11.883.126-5.14-.68-10.181-1.927-15.21-3.16-8.312-2.062-16.602-4.233-25.005-5.896a204.658 204.658 0 0 0-8.173-1.473c-3.738-.518-7.518-.619-11.286-.699-7.8-.12-15.599.037-23.397.183-9.367.174-18.733.482-28.102.572-1.359 0-2.72.023-4.078-.024-3.52-.666-7.018-1.867-9.898-4.05-2.932-2.2-5.12-5.217-6.973-8.34-1.437-2.441-2.693-4.984-3.88-7.554 6.918-1.809 13.455-4.917 19.43-8.819a72.12 72.12 0 0 0 5.047-3.629l.232.203zM3943.314 4855.77c2.16 3.811 4.3 7.642 6.17 11.607.133.311.307.616.406.935-1.37 15.63-1.424 31.354-.686 47.02a794.978 794.978 0 0 1-2.092-15.155c.01.031-.047-.374-.064-.512a780.93 780.93 0 0 1-2.211-19.25c0 .048-.038-.372-.052-.509a784.36 784.36 0 0 1-2.162-25.335l.69 1.199zm52.105 231.623c10.169 16.45 21.37 32.244 33.164 47.564 10.866 14.105 22.247 27.808 33.99 41.19.824 1.523 1.359 3.18 1.882 4.824 1.427 4.713 2.382 9.552 3.243 14.395 1.53 8.826 2.642 17.718 3.705 26.61.534 4.458 1.028 8.921 1.573 13.378a785.313 785.313 0 0 1-56.022-98.268c.012.028-.163-.34-.223-.467l-.69-1.45-.22-.465a782.056 782.056 0 0 1-9.487-20.797c.013.026-.15-.346-.206-.474a779.2 779.2 0 0 1-9.677-23.105c.017.045-.138-.348-.19-.475l-.598-1.503-.193-.489-.427-1.08.376.612z"/>
</svg>
