<?xml version="1.0" encoding="utf-8"?>
<svg
   xmlns:dc="http://purl.org/dc/elements/1.1/"
   xmlns:cc="http://creativecommons.org/ns#"
   xmlns:rdf="http://www.w3.org/1999/02/22-rdf-syntax-ns#"
   xmlns:svg="http://www.w3.org/2000/svg"
   xmlns="http://www.w3.org/2000/svg"
   id="svg11"
   version="1.1"
   viewBox="0 0 504 625"
   clip-rule="evenodd"
   fill-rule="nonzero"
   image-rendering="optimizeQuality"
   text-rendering="geometricPrecision"
   shape-rendering="geometricPrecision"
   height="625px"
   width="504px"
   xml:space="preserve">
<path id="curve28" d="M239.329,485.172C237.886,458.377,233.465,426.93,220,400c2.4-2.4,6.4-5.9,10.4-9.6l19.3,25.899L288,368.4
	c9.451,5.577,17.223,8.513,25.358,11.087c10.089-4.81,20.896-8.401,32.222-10.585c-6.416-2.322-12.76-4.317-19.28-6.303
	c-10.5-3.199-19.5-5.899-31.3-13.3c-7.8-4.7-7-14.5-6-25c0.4-4.1,0.8-8.2,0.9-12.3c13.8-15.5,19.1-35.8,24-54.9
	c0.3-1,0.5-2,1-3.7c19.399-12.2,26.6-37.3,21.5-58.9c1.5-6.9,2.5-13.5,2.899-19.7l7.8-7.7c2.9-3,3.801-7.6,1.801-11.6l-8.9-17.8
	c-0.7-60.5-30-108.5-90.9-123.2c-0.699-1.8-2-3.4-3.8-4.5c-10.6-6.7-23-10-35.3-10c-12,0-24.1,3.2-34.6,9.6c-2,1-3.6,2.8-4.6,4.9
	C110,29.2,80.7,77.2,80,137.7l-8.5,17c-2.4,3.9-1.9,9,1.4,12.4l7.9,7.9c0.2,3.1,0.5,6.3,1,9.5c0.5,3.3,1.1,6.6,1.8,10
	c-2.6,11.2-1.9,23.7,2.2,34.6c3.7,9.8,10.1,18.5,19.3,24.3c5.5,20.5,10.5,42.3,25,58.6c0.2,4.2,0.6,8.4,1,12.6
	c0.9,10.601,1.3,20.5-6.1,24.7c-0.2,0.2-0.4,0.3-0.6,0.4c-11.4,7.1-20.3,9.7-30.7,12.899c-6.9,2.101-13.6,4.2-20.4,6.7
	C60.7,373.9,45,379.7,34.7,389.6c-11.3,11-20,22.801-25.8,35.7C3,438.4,0,452.5,0,468c0,22.5,25.4,37,60.5,46.1
	C107,526.2,171.8,530,210,530c9.642,0,20.98-0.243,33.288-0.8c-2.878-10.613-4.419-21.759-4.419-33.258
	C238.869,492.314,239.029,488.724,239.329,485.172z M250.3,383.7L235.9,364.6c12.199-2.899,24.1-8,34-15.699
	c0.699,2.3,1.699,4.5,3,6.6L250.3,383.7z M92.1,158l6.8-13.5c0.7-1.5,1.1-3,1.1-4.5c0-49.4,20.5-90.1,70-104.7V90h20V24.4
	c6.2-2.9,13.1-4.4,20-4.4c6.9,0,13.8,1.5,20,4.4V90h20V35.3c49.5,14.5,70,55.2,70,104.7c0,1.9,0.6,3.8,1.5,5.3l6.4,12.7l-42,42
	H134.1L92.1,158z M180,509.3c-35.8-1.399-80.5-5.6-114.5-14.5C39.1,488,20,479.1,20,468c0-12.6,2.4-24,7.1-34.5
	c4.8-10.6,12-20.3,21.5-29.6c7.2-7,20.7-11.9,31.5-15.801c6.4-2.399,12.8-4.399,19.3-6.399c11-3.3,20.4-6.101,32.6-13.3
	l38.3,47.899L190,390l10,10C182.2,435.6,180.2,479.1,180,509.3z M147,355.3c1.2-2.1,2.2-4.3,2.9-6.5c9.9,7.8,22,12.9,34.2,15.8
	L169.7,383.7L147,355.3z M150.7,319.4c-0.1-1-0.7-11.4-0.7-11.4c0-2.6-1-5.2-3-7.1c-11.9-11.801-17-31.2-21.8-49.5l-1.9-7.2
	c-0.7-2.7-2.5-5-5.2-6.3c-6.5-3.3-11.1-9.1-13.6-15.8c-2.9-7.7-3.3-16.5-1.1-24.3v-0.2l19.4,19.4c1.8,1.8,4.4,3,7.2,3h160
	c2.6,0,5.1-1,7.1-2.9l19.5-19.5c4.101,14.3-0.3,32.9-14.3,40.1c-2.7,1.2-4.8,3.5-5.6,6.5c-0.3,0.8-1.2,4.3-2.101,7.9
	C290,270,285.1,289,273,300.9c-1.9,1.899-3,4.5-3,7.3c0.1,3.399-0.1,7.1-0.5,10.8c-10.4,20.8-37.9,28.5-59.5,28.5
	C188.5,347.5,161.2,339.9,150.7,319.4z"/>
<path id="curve29" d="M410.009,308.392c0.216-1.504,2.526-15.563,2.419-15.718c-0.16-0.312-4.676-2.23-5.321-2.49
	c-0.646-0.259-5.646-2.179-5.591-1.971c-0.27,0.104-9.086,11.36-10.055,12.554c-1.344,1.712-3.494,3.009-5.752,3.061
	c-1.397,0-2.795,0.104-4.246,0.259c-1.345,0.156-2.742,0.415-4.141,0.778c-2.096,0.467-4.461-0.312-6.129-1.608
	c-1.344-0.985-12.633-10.063-13.117-9.752c-1.559,0.985-3.117,2.023-4.677,3.164c-1.452,1.038-2.903,2.179-4.408,3.476
	c-0.431,0.363,5.483,13.384,6.128,14.837c0.323,0.83,0.538,1.711,0.592,2.541c0.215,2.802-1.559,4.98-2.634,7.418
	c0,0.104-1.237,3.372-1.397,3.891c-0.592,2.127-2.42,3.58-4.463,4.358l-15.107,5.706c-0.59,0.26,0.162,5.136,0.27,5.861
	c0.107,0.727,0.592,5.603,1.184,5.707l16.127,2.022c2.098,0.26,4.463,1.453,5.538,3.269c0.753,1.193,1.559,2.282,2.365,3.372
	c0.86,1.089,1.774,2.126,2.741,3.061c1.56,1.556,2.043,3.942,1.721,6.018c-0.269,1.556-2.742,15.563-2.258,15.821
	c1.828,0.882,3.549,1.66,5.161,2.335c1.612,0.622,3.387,1.297,5.376,1.919c-0.377,1.142,8.064-9.752,10.269-12.502
	c1.559-1.971,3.226-2.749,5.752-3.061c1.397,0,2.796-0.104,4.194-0.26c1.396-0.155,2.795-0.414,4.192-0.777
	c2.043-0.467,4.516,0.311,6.128,1.607c1.345,0.986,12.635,10.064,13.118,9.753c1.56-0.985,3.118-2.023,4.677-3.164
	c0.538-0.363,4.463-3.372,4.57-3.632c0.054-0.259-5.645-13.279-6.29-14.681c0-0.155-0.538-1.867-0.591-2.542
	c-0.107-1.297,0.107-2.646,0.752-3.786c0.699-1.142,1.291-2.387,1.882-3.632c0.538-1.245,0.968-2.542,1.397-3.891
	c0.215-0.882,1.774-3.216,2.42-3.216c0.645-0.467,1.344-0.882,2.096-1.142c1.452-0.57,15.161-5.654,15.269-5.861
	c0.161-0.26-0.376-5.032-0.483-5.707c-0.108-0.726-0.592-5.602-1.184-5.706l-16.128-2.022c-2.15-0.26-4.408-1.401-5.537-3.269
	c-0.753-1.193-1.56-2.282-2.365-3.372c-0.86-1.089-1.774-2.127-2.742-3.061C410.225,312.801,409.687,310.415,410.009,308.392z
	 M422.966,311.142c0.752,0.934,1.452,1.867,2.097,2.801l14.838,1.919c4.73,0.571,8.494,3.995,9.461,8.56
	c0.377,2.075,0.754,4.099,1.021,6.122c0.215,1.919,0.431,3.994,0.538,6.225c0.269,4.617-2.526,8.818-7.043,10.53l-13.815,5.239
	c-0.323,0.986-0.754,2.023-1.184,3.009c-0.484,1.09-0.967,2.127-1.505,3.165l5.698,13.332c1.882,4.305,0.699,9.13-2.957,12.19
	c-1.612,1.349-3.225,2.646-4.999,3.942c-1.612,1.142-3.333,2.335-5.269,3.527c-4.032,2.542-9.193,2.335-12.957-0.571
	l-11.611-8.974c-1.13,0.207-2.205,0.415-3.387,0.57c-1.13,0.104-2.366,0.208-3.549,0.26l-9.086,11.517
	c-2.956,3.683-7.849,5.135-12.418,3.631c-0.377,0-5.322-1.971-6.021-2.23c-2.043-0.83-3.925-1.713-5.807-2.646
	c-4.301-2.074-6.72-6.536-6.021-11.152l2.258-14.162c-0.753-0.83-1.505-1.66-2.15-2.542c-0.753-0.934-1.452-1.867-2.097-2.801
	l-14.838-1.92c-4.73-0.57-8.494-3.994-9.461-8.559c-0.377-2.075-0.754-4.099-1.023-6.122c-0.215-1.919-0.43-3.994-0.537-6.225
	c-0.268-4.617,2.527-8.819,7.043-10.53l13.816-5.24c0.055-0.259,1.129-3.061,1.183-3.008c0.484-1.09,0.968-2.127,1.506-3.165
	l-5.698-13.332c-1.883-4.306-0.699-9.13,2.956-12.19c1.612-1.349,3.226-2.646,5-3.942c1.612-1.142,3.333-2.334,5.269-3.527
	c4.031-2.542,9.193-2.335,12.956,0.57l11.612,8.975c1.129-0.208,2.205-0.415,3.333-0.57c1.183-0.104,2.419-0.208,3.603-0.26
	l9.085-11.517c2.957-3.683,7.849-5.135,12.419-3.579c1.936,0.623,3.924,1.349,6.021,2.179c2.043,0.83,3.924,1.712,5.859,2.646
	c4.248,2.127,6.666,6.536,5.968,11.153l-2.259,14.162C421.567,309.43,422.32,310.26,422.966,311.142z M367.001,356.636
	c-4.839-4.721-7.849-11.205-7.849-18.364c0-7.158,3.01-13.643,7.849-18.363c4.892-4.669,11.612-7.574,19.031-7.574
	s14.139,2.905,19.031,7.574c4.839,4.721,7.849,11.205,7.849,18.363c0,7.159-3.01,13.644-7.849,18.364
	c-4.893,4.669-11.612,7.573-19.031,7.573S371.893,361.305,367.001,356.636z M402.16,338.271c0-4.305-1.828-8.195-4.73-10.997
	c-2.904-2.802-6.936-4.565-11.397-4.565s-8.494,1.764-11.397,4.565s-4.73,6.692-4.73,10.997c0,4.306,1.827,8.196,4.73,10.998
	c2.903,2.801,6.936,4.564,11.397,4.564s8.493-1.764,11.397-4.564C400.332,346.468,402.16,342.577,402.16,338.271z"/>
<path id="curve29_1_" d="M377.127,543.608c0.495,4.606-2.128,8.932-6.531,10.859c-2.179,0.893-4.306,1.738-6.482,2.491
	c-2.03,0.752-4.256,1.409-6.633,2.067c-4.65,1.317-9.55-0.329-12.37-4.136l-9.601-13.163c-1.039,0.047-2.129,0.047-3.315,0.047
	c-1.138,0.047-2.228,0-3.267-0.047l-9.451,13.257c-1.335,1.881-3.266,3.29-5.443,4.042c-2.129,0.753-4.503,0.847-6.878,0.235
	c-2.178-0.611-4.405-1.269-6.631-2.021c-2.326-0.8-4.455-1.599-6.533-2.492c-4.453-1.833-7.076-6.111-6.63-10.718l1.533-15.937
	c-0.841-0.611-1.683-1.27-2.524-1.928c-0.89-0.704-1.73-1.363-2.474-2.021l-16.182,4.372c-4.701,1.27-9.601-0.47-12.371-4.277
	c-1.287-1.786-2.523-3.667-3.712-5.595c-1.187-1.975-2.325-3.901-3.364-5.876c-2.128-4.184-1.287-9.025,2.178-12.316
	l11.975-11.282c-0.246-0.986-0.445-1.975-0.644-3.009c-0.197-1.081-0.396-2.068-0.494-3.008l-15.341-6.535
	c-4.453-1.88-7.076-6.158-6.63-10.765c0.246-2.305,0.543-4.513,0.939-6.581c0.346-2.163,0.842-4.325,1.436-6.582
	c1.138-4.465,5.097-7.71,9.945-8.133l16.776-1.315c0.495-0.894,0.989-1.787,1.534-2.68c0.545-0.847,1.088-1.739,1.683-2.585
	l-7.375-14.433c-2.127-4.184-1.236-9.025,2.278-12.269c1.632-1.505,3.315-3.01,5.195-4.467c1.83-1.505,3.662-2.914,5.492-4.185
	c3.86-2.727,9.154-2.773,13.113-0.094l13.757,9.215c0.892-0.377,1.931-0.753,3.021-1.176c0.988-0.329,2.028-0.658,3.019-0.987
	l4.106-15.514c1.188-4.466,5.245-7.709,10.095-8.038c2.227-0.188,4.503-0.235,6.977-0.282c2.377,0,4.653,0.047,6.929,0.188
	c4.899,0.281,8.957,3.431,10.194,7.944l4.306,15.419c1.138,0.329,2.177,0.658,3.066,0.94c1.039,0.376,2.08,0.752,3.119,1.128
	l13.658-9.354h-0.051c3.959-2.68,9.254-2.68,13.164,0c2.028,1.363,3.859,2.727,5.542,4.043c1.683,1.315,3.414,2.773,5.196,4.371
	c3.513,3.197,4.503,8.086,2.424,12.316l-7.176,14.432c0.596,0.847,1.188,1.74,1.782,2.68c0.544,0.941,1.089,1.834,1.584,2.727
	l16.774,1.176c4.899,0.329,8.908,3.525,10.096,7.992c0.544,2.021,1.039,4.184,1.484,6.486c0.099,0.518,0.99,6.535,0.99,6.535
	c0.544,4.56-2.029,8.932-6.433,10.858l-15.292,6.676c-0.099,1.081-0.248,2.115-0.445,3.15c-0.198,1.033-0.396,2.067-0.643,3.149
	l12.074,11.094c3.514,3.243,4.403,8.086,2.276,12.316c-1.039,2.068-2.129,3.996-3.217,5.829c-1.089,1.834-2.326,3.667-3.712,5.642
	c-2.672,3.807-7.57,5.594-12.271,4.372l-16.23-4.185c-0.842,0.705-1.684,1.411-2.476,2.068c-0.841,0.658-1.683,1.316-2.622,1.975
	L377.127,543.608z M374.405,516.201c2.078-1.88,4.899-2.586,7.72-1.88l17.171,4.466c0.644,0.141,1.138,0,1.534-0.518
	c1.089-1.599,2.179-3.29,3.266-5.077c1.09-1.739,2.03-3.479,2.92-5.265c0.297-0.517,0.199-1.081-0.247-1.504l-12.816-11.8
	c-2.029-1.881-2.87-4.561-2.227-7.192c0.297-1.175,0.545-2.351,0.742-3.525c0.198-1.175,0.396-2.351,0.494-3.525
	c0.297-2.728,2.079-5.03,4.651-6.159l16.182-7.098c0.595-0.282,0.842-0.706,0.792-1.316c0-1.457-0.593-4.419-0.891-5.924
	c-0.347-1.786-0.791-3.666-1.385-5.828c-0.148-0.564-0.544-0.895-1.188-0.941l-17.767-1.222c-2.869-0.188-5.344-1.787-6.63-4.185
	c-0.594-1.128-1.188-2.161-1.781-3.103c-0.644-1.033-1.288-2.021-2.029-3.056c-1.584-2.256-1.831-5.029-0.594-7.521l7.571-15.325
	c0.297-0.517,0.197-1.033-0.298-1.457c-1.484-1.363-3.067-2.679-4.7-3.948c-1.683-1.363-3.316-2.539-4.948-3.667
	c-0.545-0.376-1.09-0.376-1.584,0l-14.499,9.919c-2.327,1.599-5.246,1.927-7.867,0.846c-1.141-0.47-2.278-0.892-3.465-1.269
	c-1.287-0.471-2.474-0.847-3.513-1.128v0.047c-2.772-0.752-4.851-2.821-5.593-5.453l-4.553-16.313
	c-0.148-0.61-0.595-0.939-1.188-0.986c-2.276-0.142-4.354-0.188-6.334-0.188c-1.931,0.047-4.009,0.141-6.285,0.282
	c-0.692,0.047-1.088,0.376-1.237,0.939l-4.354,16.453c-0.693,2.633-2.722,4.701-5.493,5.453c-1.139,0.376-2.276,0.706-3.463,1.129
	c-0.99,0.376-2.129,0.799-3.414,1.316c-2.574,1.128-5.593,0.846-7.918-0.753l-14.549-9.731c-0.545-0.375-1.09-0.375-1.584,0
	c-1.83,1.317-3.514,2.539-4.948,3.715c-1.535,1.222-3.068,2.539-4.652,4.042c-0.494,0.423-0.594,0.988-0.297,1.505l7.771,15.277
	c1.285,2.444,1.088,5.219-0.496,7.521c-0.642,0.941-1.286,1.928-1.881,2.962c-0.593,0.988-1.187,2.021-1.731,3.057
	c-1.236,2.444-3.71,4.042-6.581,4.277l-17.767,1.41c-0.642,0.047-1.088,0.376-1.236,0.94c-0.495,1.975-0.891,3.902-1.237,5.876
	c-0.396,2.021-0.644,3.996-0.841,5.971c-0.049,0.563,0.197,1.081,0.792,1.315l16.279,6.911c2.625,1.128,4.356,3.384,4.701,6.111
	c0.2,1.315,0.348,2.443,0.545,3.431c0.198,1.082,0.446,2.21,0.742,3.386c0.692,2.679-0.099,5.358-2.126,7.286l-12.67,11.94
	c-0.445,0.423-0.544,0.939-0.296,1.504c0.988,1.88,1.979,3.62,3.019,5.265c0.988,1.646,2.126,3.292,3.365,5.077
	c0.396,0.518,0.89,0.658,1.533,0.518l17.122-4.653c2.771-0.753,5.642-0.048,7.769,1.785c0.94,0.894,1.832,1.646,2.722,2.351
	c0.842,0.658,1.832,1.364,2.871,2.115c2.325,1.6,3.514,4.138,3.266,6.864l-1.633,16.923c-0.051,0.611,0.246,1.034,0.841,1.316
	c2.079,0.847,4.01,1.598,5.84,2.209c1.83,0.659,3.81,1.223,5.986,1.834c0.596,0.141,1.14-0.047,1.535-0.518l9.996-14.008
	c1.584-2.257,4.207-3.526,7.076-3.386c1.336,0.094,2.573,0.094,3.761,0.094c1.088,0,2.375-0.047,3.711-0.141
	c2.821-0.141,5.543,1.082,7.127,3.291l10.193,13.962c0.396,0.47,0.892,0.658,1.533,0.517c1.931-0.563,3.91-1.175,5.94-1.88
	c1.979-0.705,3.857-1.457,5.837-2.257c0.596-0.282,0.842-0.705,0.793-1.316l-1.832-16.828c-0.297-2.727,0.892-5.313,3.218-6.958
	c0.891-0.658,1.881-1.411,2.92-2.21C372.575,517.8,373.515,517.001,374.405,516.201z M297.258,474.081
	c0-18.193,15.488-32.906,34.641-32.906c19.149,0,34.638,14.713,34.638,32.906c0,18.192-15.488,32.907-34.638,32.907
	C312.746,506.988,297.258,492.273,297.258,474.081z M356.64,474.081c0-12.975-11.084-23.505-24.741-23.505
	c-13.658,0-24.743,10.53-24.743,23.505c0,12.974,11.085,23.505,24.743,23.505C345.556,497.586,356.64,487.055,356.64,474.081z"/>
<path id="curve29_2_" d="M474.815,405.12c0.162-1.092,1.888-11.296,1.808-11.409c-0.12-0.226-3.492-1.619-3.975-1.808
	c-0.482-0.188-4.217-1.581-4.176-1.43c-0.201,0.074-6.786,8.245-7.509,9.111c-1.004,1.242-2.61,2.184-4.296,2.222
	c-1.045,0-2.089,0.075-3.172,0.188c-1.004,0.112-2.048,0.301-3.093,0.564c-1.565,0.339-3.331-0.226-4.577-1.167
	c-1.004-0.716-9.436-7.305-9.797-7.079c-1.165,0.716-2.328,1.47-3.493,2.297c-1.085,0.754-2.169,1.582-3.292,2.522
	c-0.322,0.264,4.096,9.715,4.576,10.77c0.242,0.603,0.402,1.242,0.442,1.844c0.16,2.034-1.164,3.616-1.968,5.385
	c0,0.076-0.924,2.448-1.043,2.824c-0.442,1.544-1.807,2.598-3.333,3.164l-11.283,4.141c-0.44,0.189,0.12,3.728,0.201,4.255
	c0.08,0.527,0.442,4.067,0.884,4.143l12.045,1.469c1.566,0.188,3.333,1.054,4.136,2.372c0.563,0.865,1.164,1.656,1.767,2.447
	c0.644,0.791,1.325,1.543,2.047,2.222c1.166,1.129,1.526,2.861,1.286,4.367c-0.201,1.129-2.048,11.297-1.688,11.484
	c1.366,0.64,2.651,1.205,3.855,1.695c1.204,0.451,2.529,0.941,4.015,1.393c-0.28,0.828,6.023-7.078,7.669-9.075
	c1.165-1.43,2.41-1.995,4.296-2.222c1.045,0,2.089-0.074,3.134-0.188c1.042-0.112,2.087-0.3,3.131-0.563
	c1.526-0.339,3.373,0.225,4.576,1.166c1.005,0.717,9.438,7.306,9.798,7.079c1.165-0.714,2.329-1.468,3.493-2.296
	c0.401-0.264,3.333-2.447,3.414-2.637c0.039-0.188-4.216-9.639-4.698-10.656c0-0.112-0.402-1.354-0.442-1.845
	c-0.079-0.941,0.081-1.92,0.563-2.748c0.522-0.828,0.964-1.732,1.405-2.636c0.402-0.903,0.724-1.845,1.044-2.824
	c0.16-0.64,1.325-2.335,1.808-2.335c0.48-0.339,1.003-0.64,1.565-0.828c1.083-0.414,11.323-4.104,11.402-4.254
	c0.12-0.189-0.28-3.653-0.36-4.143c-0.081-0.526-0.441-4.066-0.884-4.143l-12.046-1.467c-1.605-0.188-3.292-1.018-4.135-2.372
	c-0.563-0.867-1.165-1.657-1.767-2.448c-0.644-0.791-1.325-1.545-2.048-2.222C474.978,408.32,474.575,406.589,474.815,405.12z
	 M484.493,407.116c0.562,0.678,1.084,1.355,1.565,2.033l11.082,1.393c3.533,0.415,6.344,2.899,7.065,6.213
	c0.282,1.506,0.563,2.976,0.764,4.443c0.16,1.393,0.321,2.899,0.402,4.518c0.2,3.353-1.888,6.401-5.261,7.645l-10.317,3.803
	c-0.242,0.716-0.563,1.469-0.885,2.185c-0.362,0.79-0.722,1.543-1.124,2.296l4.257,9.678c1.404,3.124,0.521,6.627-2.209,8.849
	c-1.205,0.978-2.409,1.919-3.734,2.86c-1.203,0.83-2.489,1.695-3.935,2.561c-3.011,1.846-6.866,1.695-9.678-0.415l-8.671-6.513
	c-0.845,0.15-1.647,0.301-2.53,0.414c-0.843,0.075-1.768,0.151-2.65,0.188l-6.785,8.359c-2.208,2.673-5.862,3.728-9.275,2.636
	c-0.281,0-3.975-1.431-4.497-1.619c-1.525-0.603-2.932-1.244-4.337-1.922c-3.212-1.505-5.019-4.743-4.496-8.095l1.687-10.278
	c-0.563-0.604-1.124-1.206-1.606-1.847c-0.563-0.677-1.084-1.354-1.566-2.032l-11.081-1.393c-3.533-0.414-6.344-2.899-7.066-6.214
	c-0.281-1.506-0.563-2.975-0.765-4.442c-0.161-1.394-0.32-2.899-0.401-4.519c-0.199-3.352,1.889-6.401,5.261-7.644l10.318-3.804
	c0.041-0.188,0.844-2.222,0.884-2.183c0.362-0.791,0.723-1.544,1.124-2.297l-4.255-9.678c-1.406-3.125-0.523-6.627,2.207-8.849
	c1.205-0.979,2.41-1.92,3.735-2.861c1.203-0.828,2.488-1.694,3.935-2.56c3.01-1.847,6.865-1.695,9.677,0.413l8.672,6.514
	c0.844-0.15,1.647-0.301,2.49-0.413c0.882-0.076,1.806-0.151,2.689-0.188l6.785-8.359c2.209-2.673,5.862-3.728,9.275-2.599
	c1.446,0.453,2.932,0.979,4.498,1.582c1.525,0.603,2.931,1.242,4.376,1.92c3.173,1.544,4.979,4.744,4.456,8.096l-1.687,10.279
	C483.449,405.873,484.011,406.476,484.493,407.116z M442.694,440.138c-3.613-3.427-5.861-8.133-5.861-13.329
	c0-5.195,2.248-9.902,5.861-13.329c3.654-3.389,8.674-5.498,14.214-5.498c5.541,0,10.56,2.109,14.214,5.498
	c3.614,3.427,5.862,8.134,5.862,13.329c0,5.196-2.248,9.902-5.862,13.329c-3.654,3.389-8.673,5.497-14.214,5.497
	C451.368,445.635,446.349,443.526,442.694,440.138z M468.954,426.809c0-3.125-1.366-5.949-3.533-7.982
	c-2.169-2.034-5.18-3.314-8.513-3.314c-3.332,0-6.344,1.28-8.512,3.314c-2.168,2.033-3.533,4.857-3.533,7.982
	s1.365,5.949,3.533,7.982s5.18,3.313,8.512,3.313c3.333,0,6.344-1.279,8.513-3.313
	C467.588,432.758,468.954,429.934,468.954,426.809z"/>

</svg>
