<?xml version="1.0" encoding="utf-8"?>
<!-- Generator: Adobe Illustrator 12.0.1, SVG Export Plug-In . SVG Version: 6.00 Build 51448)  -->
<!DOCTYPE svg PUBLIC "-//W3C//DTD SVG 1.1//EN" "http://www.w3.org/Graphics/SVG/1.1/DTD/svg11.dtd" [
	<!ENTITY ns_svg "http://www.w3.org/2000/svg">
	<!ENTITY ns_xlink "http://www.w3.org/1999/xlink">
]>
<svg  version="1.1" id="Ebene_1" xmlns="&ns_svg;" xmlns:xlink="&ns_xlink;" width="520" height="440" viewBox="0 0 520 440"
	 overflow="visible" enable-background="new 0 0 520 440" xml:space="preserve">
<path id="curve28" d="M518,4.5v352.228H299.904v58.704h118.961V435c-105.776,0-211.454,0-317.23,0v-19.568h118.961v-58.704H2.5V4.5
	H518z M498.173,24.068H22.327v313.091c158.615,0,317.23,0,475.846,0V24.068z M280.077,356.728h-39.654v58.704h39.654V356.728z"/>
<line stroke="#000000" stroke-width="9.8486" x1="295.871" y1="250.249" x2="457.51" y2="248.764"/>
<line stroke="#000000" stroke-width="9.8486" x1="295.911" y1="283.182" x2="457.555" y2="282.638"/>
<line stroke="#000000" stroke-width="9.8486" x1="295.911" y1="316.366" x2="457.555" y2="315.823"/>
<path id="curve28_2_" d="M365.416,124.751l58.66-61.919l-26.581,79.694c-0.904,2.673-2.298,5.021-4.181,6.899
	c-3.803,3.902-9.64,6.07-15.175,5.672c-5.571-0.434-11.22-3.54-14.382-7.984c-3.126-4.371-4.104-10.332-2.486-15.425
	C362.063,129.158,363.457,126.81,365.416,124.751z M379.459,35.809c54.069,0,97.896,42.05,97.896,93.927
	s-43.826,93.928-97.896,93.928c-54.068,0-97.896-42.051-97.896-93.928S325.391,35.809,379.459,35.809z M379.459,43.033
	c-49.926,0-90.367,38.799-90.367,86.703c0,47.903,40.44,86.703,90.367,86.703c49.928,0,90.367-38.8,90.367-86.703
	S429.386,43.033,379.459,43.033z M326.105,172.69c-10.504-12.03-16.303-27.275-16.303-42.954c0-36.92,31.176-66.833,69.656-66.833
	c10.241,0,19.992,2.131,28.767,5.924L402.84,74.5c-7.19-2.818-15.097-4.371-23.381-4.371c-34.302,0-62.125,26.696-62.125,59.607
	c0,14.053,5.12,27.564,14.532,38.329L326.105,172.69z M426.146,80.135c14.647,12.717,22.97,30.635,22.97,49.601
	c0,15.679-5.8,30.924-16.304,42.954l-5.761-4.625c9.414-10.765,14.533-24.276,14.533-38.329c0-16.364-6.853-31.176-17.96-41.942
	L426.146,80.135z"/>
<path id="curve28_3_" d="M253.806,145.34l-31.937,56.255l-23.988-38.002l-24.768,43.587l-25.733-22.704l-25.78,45.409L94.58,206.088
	l-27.02,23.797l-15.945-27.966V183.95l18.427,32.296l24.539-21.612l24.539,21.612l25.734-45.409l25.779,22.704l26.836-47.229
	l23.941,38.043l32.395-57.065V145.34z M42.422,128.222c0,62.042,0,124.125,0,186.168h211.384v8.094H33.231V128.222H42.422z
	 M253.806,306.295V213.21l-30.375,24.97l-25.78-22.663l-25.779,45.368l-25.733-22.705l-25.78,45.409l-25.78-22.704l-25.78,22.704
	l-17.186-15.137v37.842L253.806,306.295L253.806,306.295z"/>
</svg>
