<?xml version="1.0" encoding="utf-8"?>
<!-- Generator: Adobe Illustrator 12.0.1, SVG Export Plug-In . SVG Version: 6.00 Build 51448)  -->
<!DOCTYPE svg PUBLIC "-//W3C//DTD SVG 1.1//EN" "http://www.w3.org/Graphics/SVG/1.1/DTD/svg11.dtd" [
	<!ENTITY ns_svg "http://www.w3.org/2000/svg">
	<!ENTITY ns_xlink "http://www.w3.org/1999/xlink">
]>
<svg  version="1.1" id="Ebene_1" xmlns="&ns_svg;" xmlns:xlink="&ns_xlink;" width="520" height="440" viewBox="0 0 520 440"
	 overflow="visible" enable-background="new 0 0 520 440" xml:space="preserve">
<path id="curve28" d="M520,0v360H300v60h120v20c-106.7,0-213.3,0-320,0v-20h120v-60H0V0H520z M500,20H20v320c160,0,320,0,480,0V20z
	 M280,360h-40v60h40V360z"/>
<path id="curve28_2_" d="M364.666,205.788v-78.18l-34.901-69.891c-22.57,15.122-36.051,40.291-36.051,67.523
	C293.714,166.14,324.155,200.748,364.666,205.788z M455.251,135.389h-70.313v70.399
	C421.599,201.221,450.689,172.094,455.251,135.389z M462.65,128.624l-0.27,3.653c-3.413,42.963-37.642,77.232-80.551,80.65
	l-3.649,0.271v-84.574H462.65z M338.549,45.032l3.38-1.354c54.973-22.26,115.788,15.9,120.452,74.526l0.27,3.654h-85.754
	L338.549,45.032z M371.424,213.197l-3.647-0.271c-45.613-3.62-80.82-41.881-80.82-87.687c0-30.818,16.083-59.302,42.403-75.27
	l3.107-1.895l38.957,78.01V213.197z"/>
<path id="curve28_3_" d="M52.729,144.762v172.5h172.5v7.499h-180v-180H52.729z M210.229,227.262h-22.5c0-7.5,0-15,0-22.5
	c11.25,0,22.5,0,33.75,0v105.001c-3.75,0-7.5,0-11.25,0V227.262z M172.729,234.762c10.013,0,19.987,0,30,0v75.001h-30V234.762z
	 M180.229,242.263v59.999h15v-59.999H180.229z M153.979,212.262h-22.5v-37.5c11.25,0,22.5,0,33.75,0v135c-3.75,0-7.5,0-11.25,0
	V212.262z M116.479,219.762c10.013,0,19.987,0,30,0v90h-30V219.762z M123.979,227.262v75h15v-75H123.979z M97.729,189.762h-22.5v-45
	c11.25,0,22.5,0,33.75,0v165c-3.75,0-7.5,0-11.25,0V189.762z M60.229,197.262h30v112.5c-10.013,0-19.987,0-30,0V197.262z
	 M67.729,204.762v97.5h15v-97.5H67.729z"/>
<line stroke="#000000" stroke-width="10" x1="289.931" y1="251.172" x2="452.982" y2="249.654"/>
<line stroke="#000000" stroke-width="10" x1="289.973" y1="284.831" x2="453.027" y2="284.276"/>
<line stroke="#000000" stroke-width="10" x1="289.973" y1="318.748" x2="453.027" y2="318.193"/>
</svg>
