<?xml version="1.0" encoding="utf-8"?>
<!-- Generator: Adobe Illustrator 12.0.1, SVG Export Plug-In . SVG Version: 6.00 Build 51448)  -->
<!DOCTYPE svg PUBLIC "-//W3C//DTD SVG 1.1//EN" "http://www.w3.org/Graphics/SVG/1.1/DTD/svg11.dtd" [
	<!ENTITY ns_svg "http://www.w3.org/2000/svg">
	<!ENTITY ns_xlink "http://www.w3.org/1999/xlink">
]>
<svg  version="1.1" id="Ebene_1" xmlns="&ns_svg;" xmlns:xlink="&ns_xlink;" width="305.62" height="512.609"
	 viewBox="0 0 305.62 512.609" overflow="visible" enable-background="new 0 0 305.62 512.609" xml:space="preserve">
<path id="curve28" d="M253.424,175.929l-85.976,83.718l-67.531-65.757l85.979-83.717L253.424,175.929z M58.77,89.425l40.45,39.388
	l-6.613,6.44L52.155,95.865L58.77,89.425z M131.313,5.506l148.567,144.664c7.427,7.231,7.552,18.945,0.277,26.03l-99.203,96.599
	c-7.276,7.082-19.306,6.96-26.734-0.273L5.654,127.863c-7.428-7.232-7.553-18.946-0.279-26.031L104.58,5.234
	C111.855-1.85,123.885-1.728,131.313,5.506z M273.264,156.608L124.699,11.945c-3.713-3.617-9.728-3.677-13.366-0.136l-99.204,96.598
	c-3.638,3.542-3.575,9.399,0.139,13.016l148.567,144.664c3.712,3.616,9.729,3.676,13.367,0.135l99.205-96.599
	C277.042,166.082,276.979,160.225,273.264,156.608z M98.384,50.72l60.709,59.116l-6.613,6.44L91.77,57.16L98.384,50.72z
	 M78.71,70.009l60.709,59.114l-6.613,6.439l-60.71-59.113L78.71,70.009z M172.797,154.025c8.692-8.793,22.569-4.877,29.519,4.464
	c1.729,2.393,2.214,3.895,2.844,6.634c9.625,3.254,10.248,17.901,3.292,23.491l-9.534,8.167c-1.968,3.494-6.386,5.954-10.543,4.546
	c-3.92,2.171-11.04,4.897-15.721,4.786c-2.645,2.77-6.938,7.282-5.759,11.394c1.084,4.337,2.739,6.144,4.72,10.198
	c1.162,2.355,2.699,5.396,2.761,8.032c0.048,1.464-0.103,2.991-0.42,4.421l66.102-64.366l-54.023-52.605l-66.103,64.366
	c1.467-0.31,3.036-0.458,4.539-0.409c2.708,0.06,5.831,1.556,8.25,2.687c4.163,1.929,6.018,3.542,10.474,4.597
	c4.055,1.115,9.023-3,11.701-5.607c-0.114-4.427,2.685-11.427,4.914-15.307c-1.413-4.016,1.114-8.383,4.67-10.267L172.797,154.025z"
	/>
<g>
	<path fill="none" d="M50.676,230.068c-3.421,0-6.218,2.889-6.218,6.422c0,3.532,2.797,6.422,6.218,6.422h67.046l-12.935-12.844
		H50.676z"/>
	<path fill="none" d="M130.654,255.753H63.921l29.535,244.014h150.73l29.535-244.014h-67.449l-37.809,37.544L130.654,255.753z
		 M90.969,420.976l3.234-12.392l19.523,5.457c-4.537-8.926-7.087-19.071-7.087-29.859c0-21.512,10.384-41.482,27.608-53.361
		l9.017,9.246c-14.985,9.312-24.189,26.007-24.189,44.115c0,8.411,1.928,16.312,5.411,23.309l5.16-20.034l12.002,3.341
		l-10.696,41.288L90.969,420.976z M226.587,438.7l-5.224-20.163c-11.379,18.557-31.152,29.858-52.544,29.858
		c-9.887,0-19.213-2.376-27.546-6.613l3.296-12.716c7.213,4.11,15.484,6.487,24.25,6.487c16.914,0,32.522-8.799,41.725-23.374
		l-19.4,5.393l-3.233-12.393l39.982-11.109l10.694,41.291L226.587,438.7z M185.671,305.263l-14.303,14.771
		c31.713,1.283,57.457,27.227,59.509,59.975l-12.313,3.404c-0.372-27.034-21.017-49.124-47.07-50.537l14.177,14.642l-8.828,9.117
		l-29.227-30.244l29.227-30.245L185.671,305.263z"/>
	<path fill="none" d="M286.964,242.912c3.421,0,6.22-2.89,6.22-6.422c0-3.533-2.799-6.422-6.22-6.422h-54.825l-12.935,12.844
		H286.964z"/>
	<path d="M176.843,356.634l8.828-9.117l-14.177-14.642c26.054,1.413,46.698,23.503,47.07,50.537l12.313-3.404
		c-2.052-32.748-27.796-58.691-59.509-59.975l14.303-14.771l-8.828-9.118l-29.227,30.245L176.843,356.634z"/>
	<path d="M187.911,405.18l3.233,12.393l19.4-5.393c-9.202,14.575-24.811,23.374-41.725,23.374c-8.767,0-17.037-2.377-24.25-6.487
		l-3.296,12.716c8.333,4.237,17.66,6.613,27.546,6.613c21.392,0,41.165-11.302,52.544-29.858l5.224,20.163l12-3.339l-10.694-41.291
		L187.911,405.18z"/>
	<path d="M129.646,387.456l-5.16,20.034c-3.482-6.997-5.411-14.897-5.411-23.309c0-18.108,9.205-34.804,24.189-44.115l-9.017-9.246
		c-17.224,11.879-27.608,31.85-27.608,53.361c0,10.788,2.55,20.934,7.087,29.859l-19.523-5.457l-3.234,12.392l39.982,11.109
		l10.696-41.288L129.646,387.456z"/>
	<path d="M286.964,217.226h-41.892l-12.934,12.842h54.825c3.421,0,6.22,2.889,6.22,6.422c0,3.532-2.799,6.422-6.22,6.422h-67.76
		l-12.933,12.841h67.449l-29.535,244.014H93.456L63.921,255.753h66.732l-12.932-12.841H50.676c-3.421,0-6.218-2.89-6.218-6.422
		c0-3.533,2.797-6.422,6.218-6.422h54.111l-12.933-12.842H50.676c-10.26,0-18.654,8.669-18.654,19.264
		c0,10.595,8.394,19.263,18.654,19.263h0.747l31.092,256.856h172.613l31.091-256.856h0.746c10.26,0,18.655-8.668,18.655-19.263
		C305.62,225.895,297.224,217.226,286.964,217.226z"/>
	<polygon display="none" points="247.174,215.14 158.584,127.173 79.874,205.33 91.854,217.226 245.073,217.226 	"/>
	<polygon display="none" points="117.722,242.912 219.205,242.912 232.139,230.068 104.787,230.068 	"/>
	<polygon display="none" points="168.463,293.297 206.272,255.753 130.654,255.753 	"/>
	<polygon display="none" points="232.139,230.068 245.073,217.226 91.854,217.226 104.787,230.068 	"/>
	<polygon display="none" points="130.654,255.753 206.272,255.753 219.205,242.912 117.722,242.912 	"/>
</g>
</svg>
