<?xml version="1.0" encoding="UTF-8" standalone="no"?>
<svg
   xml:space="preserve"
   width="580px"
   height="580px"
   shape-rendering="geometricPrecision"
   text-rendering="geometricPrecision"
   image-rendering="optimizeQuality"
   fill-rule="nonzero"
   clip-rule="nonzero"
   viewBox="0 0 5800 5800"
   version="1.1"
   id="svg1"
   sodipodi:docname="userphoto_to_garbage_can.svg"
   inkscape:version="1.3.2 (091e20e, 2023-11-25, custom)"
   xmlns:inkscape="http://www.inkscape.org/namespaces/inkscape"
   xmlns:sodipodi="http://sodipodi.sourceforge.net/DTD/sodipodi-0.dtd"
   xmlns="http://www.w3.org/2000/svg"
   xmlns:svg="http://www.w3.org/2000/svg"
   xmlns:rdf="http://www.w3.org/1999/02/22-rdf-syntax-ns#"
   xmlns:cc="http://creativecommons.org/ns#"
   xmlns:dc="http://purl.org/dc/elements/1.1/"><defs
   id="defs1" /><sodipodi:namedview
   id="namedview1"
   pagecolor="#ffffff"
   bordercolor="#000000"
   borderopacity="0.25"
   inkscape:showpageshadow="2"
   inkscape:pageopacity="0.0"
   inkscape:pagecheckerboard="0"
   inkscape:deskcolor="#d1d1d1"
   inkscape:zoom="0.89482759"
   inkscape:cx="289.44123"
   inkscape:cy="264.29672"
   inkscape:window-width="1366"
   inkscape:window-height="715"
   inkscape:window-x="-8"
   inkscape:window-y="-8"
   inkscape:window-maximized="1"
   inkscape:current-layer="svg1" />
	<title
   id="title1">userphoto to garbage icon</title>
	<desc
   id="desc1">garbage icon from the IconExperience.com I-Collection. Copyright by INCORS GmbH (www.incors.com).</desc>
		
<g
   id="g1"><path
     id="curve28"
     fill="#000000"
     d="m 4228.583,2606.8443 -357.7684,2736.701 H 1884.4842 l -357.7684,-2736.701 h -8.5865 c -118.0635,0 -214.6611,-92.3637 -214.6611,-205.2526 0,-112.8889 96.5976,-205.2526 214.6611,-205.2526 h 2719.0401 c 118.0637,0 214.6611,92.3637 214.6611,205.2526 0,112.8889 -96.5974,205.2526 -214.6611,205.2526 z m -686.1999,1949.2153 -60.1051,-214.8311 c -130.9432,197.7267 -358.484,318.1415 -604.6286,318.1415 -113.7704,0 -221.1009,-25.3145 -316.9828,-70.47 l 37.9234,-135.4667 c 83.0023,43.7873 178.1687,69.1017 279.0594,69.1017 194.626,0 374.2258,-93.732 480.1252,-249.0398 l -223.2474,57.4707 -37.208,-132.0458 460.0902,-118.3623 123.0724,439.9246 z m -1523.378,-320.8782 224.6786,58.1549 c -52.2342,-95.1004 -81.5712,-203.2001 -81.5712,-318.1415 0,-229.1987 119.4947,-441.9772 317.6984,-568.5496 l 103.7528,98.5212 c -172.4443,99.2054 -278.3438,277.0909 -278.3438,470.0284 0,89.6269 22.1816,173.7805 62.2517,248.3556 l 59.3896,-213.4627 138.0986,35.5772 -123.0724,439.9247 -460.0902,-118.3624 z m 1052.5548,-1100.838 -164.5735,157.3603 c 364.9238,13.6835 661.156,290.0903 684.7688,639.0197 l -141.6763,36.2613 c -4.2932,-288.0378 -241.8515,-523.394 -541.6615,-538.4459 l 163.1425,155.9919 -101.6062,97.1529 -336.3024,-322.2465 336.3024,-322.2466 z M 4237.1694,2333.1742 H 1518.1293 c -39.3545,0 -71.5537,30.7879 -71.5537,68.4175 0,37.6296 32.1992,68.4175 71.5537,68.4175 h 2719.0401 c 39.3546,0 71.5537,-30.7879 71.5537,-68.4175 0,-37.6296 -32.1991,-68.4175 -71.5537,-68.4175 z m -152.4093,273.6701 H 1670.5387 l 339.88,2599.8659 h 1734.4614 z"
     style="stroke-width:0.69968" /><path
     id="curve28-1"
     fill="#000000"
     d="M 3819.2538,1398.3471 2920.3202,2320.6733 1815.4667,1272.5585 2714.4004,350.23209 Z M 2767.12,1146.5917 c -16.1479,-15.3185 -37.011,-37.1274 -52.9299,-61.9112 -18.0601,-27.6219 -29.3127,-58.8716 -21.9985,-89.45211 7.4288,-35.31298 18.2733,-56.08964 30.9156,-80.80872 6.6195,-13.08513 13.2388,-26.1703 19.0166,-39.65049 9.766,-22.60678 22.343,-50.61532 21.9345,-71.17432 -0.3185,-26.52515 -7.3136,-53.33252 -19.073,-78.60812 -12.6338,-27.31536 -30.6366,-52.05888 -51.6712,-72.01336 l -14.8732,-14.10925 -572.0487,586.93497 14.8731,14.1093 c 21.0347,19.9544 46.8011,36.7324 74.9618,48.1168 26.0606,10.6021 53.4861,16.4476 80.364,15.7221 20.8386,-0.4029 48.7137,-13.8991 71.2278,-24.4122 13.4185,-6.6352 26.2162,-13.0528 39.414,-20.3008 24.5408,-13.4316 45.159,-24.9365 80.6339,-33.6435 31.724,-8.6345 63.3988,1.2421 91.8783,18.1733 24.6795,14.5366 46.9564,34.0557 63.7253,49.1567 5.9492,5.6437 9.226,13.1901 9.5857,20.7928 0.3757,18.9143 6.4882,43.2708 15.3139,67.7803 11.2526,31.2498 26.6813,62.8303 40.0341,84.373 4.7397,7.7237 5.5488,16.9633 2.5822,25.0417 -3.702,13.0287 -1.5529,26.7669 4.527,38.9895 7.3956,15.4878 20.3727,28.6055 35.9568,36.5307 3.3749,1.9915 6.3415,4.4021 8.8993,7.232 28.9779,31.5242 68.5057,69.4254 94.3784,102.0379 13.0015,14.3512 31.1351,24.6953 51.2711,30.8874 41.7428,12.9727 96.9043,8.821 130.9328,-20.2193 11.0733,-9.2636 19.7928,-21.5667 24.6963,-37.0868 3.5386,-10.763 12.7731,-18.1401 23.5764,-19.9942 12.4543,-2.709 22.2036,-5.1599 30.8905,-8.6186 8.6869,-3.4586 17.1368,-8.3524 27.6135,-16.1648 10.8935,-7.8204 20.7245,-16.6485 29.5015,-26.0734 55.7338,-59.2821 77.889,-150.8219 25.8663,-219.5377 -5.5733,-7.7076 -12.1763,-14.7783 -19.4004,-21.6314 L 3054.13,1249.0182 c -0.425,-0.4032 -6.3988,-7.2803 -6.3988,-7.2803 -8.4251,-14.851 -22.6362,-27.1221 -38.4083,-34.0155 -13.2468,-5.7082 -27.6623,-7.2804 -41.1218,-2.7013 -8.2783,3.0396 -17.0551,1.9752 -24.0094,-1.7981 -22.7591,-12.3113 -54.9324,-26.2917 -87.2282,-35.9507 -25.3824,-7.9416 -50.2908,-13.013 -69.0456,-12.6504 -8.1314,-0.049 -15.4861,-2.9912 -20.7979,-8.0302 z m -17.3481,-138.6968 c -3.2773,13.4318 3.718,29.7501 14.0392,45.5927 10.1168,16.0523 23.9684,31.2096 36.0956,43.5208 22.7511,1.4112 48.7136,7.0793 74.7169,14.8031 31.4625,9.6751 62.99,22.6396 87.4163,34.9188 24.0831,-4.9904 48.542,-1.5557 70.8271,7.8855 25.652,11.0215 48.3457,30.5326 62.9735,53.2846 33.2764,27.5333 71.5949,57.0257 103.0244,86.0343 10.4029,9.4652 19.5637,19.366 27.2781,29.9116 69.3635,91.621 45.7291,213.6284 -30.0184,293.8643 -11.4329,12.1501 -23.7236,23.0824 -37.0769,33.0071 -14.7915,10.9808 -27.3684,18.011 -40.8114,23.4126 -8.6869,3.4588 -17.1858,5.8856 -26.5184,8.3283 -8.589,18.882 -21.1986,34.7566 -36.1617,47.5919 -49.8172,42.3028 -125.5314,50.7596 -187.1976,31.7965 -29.7871,-9.2963 -57.4167,-25.4211 -77.6669,-47.8588 l -91.6079,-99.0064 c -24.034,-13.5209 -44.2678,-35.1362 -56.4357,-59.9926 -10.6398,-21.3895 -15.0771,-45.3668 -10.762,-69.5136 -13.3939,-23.5986 -27.76,-54.1712 -38.7922,-84.8081 -9.0462,-25.1224 -15.8042,-50.4947 -18.1249,-72.8678 -13.1569,-11.6744 -29.0515,-24.7355 -45.2974,-34.4992 -16.4504,-9.554 -32.6228,-15.6171 -45.6818,-11.8681 -27.3765,7.1107 -43.696,14.6247 -68.0244,28.2579 -14.0233,7.6753 -28.2592,15.149 -42.5112,21.8003 -27.4664,13.0769 -61.3316,29.3626 -95.0821,30.4267 -35.6302,0.8945 -71.6362,-6.6359 -104.6349,-20.189 -35.0989,-14.3352 -67.411,-35.3057 -93.3326,-59.896 l 835.0143,792.1328 653.77,-670.7826 -835.0144,-792.13305 c 25.9216,24.59038 48.4273,55.62257 64.3216,89.66196 15.02,31.99961 24.0579,67.19992 24.5481,102.35986 0.2366,32.90248 -15.0861,69.60219 -29.0852,99.48924 -6.5868,14.72986 -12.8058,26.98461 -18.4201,38.19933 -10.6402,20.56692 -19.6705,38.22345 -25.767,67.13506 z m -32.1041,-493.19073 934.8761,886.86663 -735.4912,754.6304 -934.8761,-886.8663 c 245.1638,-251.5436 490.3276,-503.08717 735.4912,-754.63073 z M 3735.8989,1399.9589 2716.034,432.46813 1898.8216,1270.9467 2918.6865,2238.4372 Z"
     style="stroke-width:0.292776" /></g><metadata
   id="metadata1"><rdf:RDF><cc:Work
       rdf:about=""><dc:title>userphoto to garbage icon</dc:title></cc:Work></rdf:RDF></metadata></svg>
