<?xml version="1.0" encoding="UTF-8" standalone="no"?>
<svg
   xml:space="preserve"
   width="580px"
   height="580px"
   shape-rendering="geometricPrecision"
   text-rendering="geometricPrecision"
   image-rendering="optimizeQuality"
   fill-rule="nonzero"
   clip-rule="nonzero"
   viewBox="0 0 5800 5800"
   version="1.1"
   id="svg1"
   sodipodi:docname="delete_userphoto.svg"
   inkscape:version="1.3.2 (091e20e, 2023-11-25, custom)"
   xmlns:inkscape="http://www.inkscape.org/namespaces/inkscape"
   xmlns:sodipodi="http://sodipodi.sourceforge.net/DTD/sodipodi-0.dtd"
   xmlns="http://www.w3.org/2000/svg"
   xmlns:svg="http://www.w3.org/2000/svg"><defs
   id="defs1" /><sodipodi:namedview
   id="namedview1"
   pagecolor="#ffffff"
   bordercolor="#000000"
   borderopacity="0.25"
   inkscape:showpageshadow="2"
   inkscape:pageopacity="0.0"
   inkscape:pagecheckerboard="0"
   inkscape:deskcolor="#d1d1d1"
   inkscape:zoom="0.89482759"
   inkscape:cx="289.44123"
   inkscape:cy="290"
   inkscape:window-width="1920"
   inkscape:window-height="1027"
   inkscape:window-x="-8"
   inkscape:window-y="-8"
   inkscape:window-maximized="1"
   inkscape:current-layer="layer1" />
	<title
   id="title1">photo_portrait icon</title>
	<desc
   id="desc1">photo_portrait icon from the IconExperience.com I-Collection. Copyright by INCORS GmbH (www.incors.com).</desc>
		<path
   id="curve28"
   fill="#000000"
   d="M700 300l4400 0 0 5200 -4400 0 0 -5200zm1850 3173c0,76 -5,179 -29,277 -26,110 -77,212 -170,267 -105,66 -182,89 -273,117 -48,15 -96,30 -143,48 -79,30 -178,66 -228,116 -65,64 -115,145 -150,234 -38,96 -57,199 -57,298l0 70 2800 0 0 -70c0,-99 -19,-202 -57,-298 -35,-89 -85,-170 -150,-234 -50,-50 -149,-86 -228,-116 -48,-17 -94,-33 -143,-48 -91,-28 -168,-51 -273,-117 -96,-57 -146,-158 -171,-268 -22,-95 -26,-196 -28,-273 0,-28 11,-54 29,-73 46,-46 92,-119 132,-199 51,-102 93,-215 115,-299 8,-30 29,-54 56,-66 41,-22 70,-60 86,-104 21,-55 23,-118 6,-175 -3,-13 -4,-26 -3,-39 10,-146 11,-333 31,-474 5,-66 -12,-135 -44,-199 -66,-133 -206,-258 -358,-272 -49,-5 -100,3 -150,28 -35,17 -75,12 -105,-10 -36,-24 -65,-42 -94,-55 -29,-13 -61,-22 -105,-29 -45,-8 -90,-11 -134,-10 -278,5 -557,169 -605,460 -6,32 -8,65 -8,99l30 468c0,2 -3,33 -3,33 -17,56 -14,120 6,175 17,46 47,85 90,107 27,13 45,37 52,63 23,85 64,197 116,299 40,81 86,154 131,199 19,20 29,45 29,70zm-303 373c41,-24 65,-80 80,-143 16,-63 21,-133 23,-192 -50,-59 -97,-136 -139,-218 -50,-100 -92,-208 -119,-297 -69,-47 -118,-115 -147,-192 -33,-89 -38,-191 -16,-281 -10,-147 -27,-311 -29,-457 -1,-48 2,-94 10,-138 64,-388 422,-621 799,-627 57,-1 113,3 169,12 62,10 109,24 154,44 29,13 55,28 83,45 67,-24 136,-31 203,-25 222,21 421,186 519,382 47,95 72,201 64,304l-30 460c23,91 17,192 -16,281 -28,77 -77,145 -147,192 -27,89 -69,197 -119,297 -41,82 -88,159 -138,218 2,60 7,130 21,193 15,63 38,117 78,140 82,50 139,72 230,99 52,16 104,33 154,52 97,36 217,80 299,160 86,85 152,191 196,304 47,120 71,249 71,371l0 -3930 -3200 0 0 3930c0,-122 24,-251 71,-371 44,-113 110,-219 196,-304 81,-79 208,-129 315,-166 52,-19 97,-33 138,-46 76,-23 141,-43 227,-97zm-1147 1254l0 -4400 3600 0 0 4400c-1200,0 -2400,0 -3600,0zm-200 -4600l0 4800 4000 0 0 -4800 -4000 0z" />
<g
   inkscape:groupmode="layer"
   id="layer1"
   inkscape:label="Layer 1"><path
     id="curve0"
     fill="#333333"
     d="m 2506.8979,5225.0147 1103.688,-1066.7892 -1103.0848,-1066.7894 85.038,-82.2401 1103.0851,1066.7892 1103.0851,-1067.3726 85.6413,82.8235 -1103.6882,1066.7894 1103.0851,1066.7892 -85.0382,82.2401 L 3695.6242,4240.4655 2592.5391,5307.8381 Z"
     style="stroke-width:0.593104" /></g></svg>
