<?xml version="1.0" encoding="UTF-8" standalone="no"?>
<!-- Created with Inkscape (http://www.inkscape.org/) -->

<svg
   width="116.41666mm"
   height="165.3369mm"
   viewBox="0 0 116.41666 165.3369"
   version="1.1"
   id="svg1"
   inkscape:version="1.3.2 (091e20e, 2023-11-25, custom)"
   sodipodi:docname="delete_userphoto.svg"
   xmlns:inkscape="http://www.inkscape.org/namespaces/inkscape"
   xmlns:sodipodi="http://sodipodi.sourceforge.net/DTD/sodipodi-0.dtd"
   xmlns="http://www.w3.org/2000/svg"
   xmlns:svg="http://www.w3.org/2000/svg">
  <sodipodi:namedview
     id="namedview1"
     pagecolor="#ffffff"
     bordercolor="#000000"
     borderopacity="0.25"
     inkscape:showpageshadow="2"
     inkscape:pageopacity="0.0"
     inkscape:pagecheckerboard="0"
     inkscape:deskcolor="#d1d1d1"
     inkscape:document-units="mm"
     inkscape:zoom="0.91100744"
     inkscape:cx="220.63486"
     inkscape:cy="388.03196"
     inkscape:window-width="1366"
     inkscape:window-height="715"
     inkscape:window-x="-8"
     inkscape:window-y="-8"
     inkscape:window-maximized="1"
     inkscape:current-layer="layer1" />
  <defs
     id="defs1" />
  <g
     inkscape:label="Ebene 1"
     inkscape:groupmode="layer"
     id="layer1"
     transform="translate(-46.566667,-69.056249)">
    <path
       id="curve28"
       fill="#000000"
       d="M 46.566667,69.056249 H 162.98332 V 206.63957 H 46.566667 Z m 48.94791,83.952281 c 0,2.01084 -0.132291,4.73604 -0.767291,7.32896 -0.687917,2.91042 -2.037291,5.60917 -4.497916,7.06437 -2.778125,1.74625 -4.815416,2.3548 -7.223124,3.09563 -1.27,0.39687 -2.54,0.79375 -3.783541,1.27 -2.090209,0.79375 -4.709583,1.74625 -6.0325,3.06917 -1.719791,1.69333 -3.042708,3.83645 -3.968749,6.19124 -1.005417,2.54 -1.508125,5.26521 -1.508125,7.88459 v 1.85208 h 74.083319 v -1.85208 c 0,-2.61938 -0.50271,-5.34459 -1.50812,-7.88459 -0.92604,-2.35479 -2.24896,-4.49791 -3.96875,-6.19124 -1.32292,-1.32292 -3.94229,-2.27542 -6.0325,-3.06917 -1.27,-0.44979 -2.48708,-0.87313 -3.78354,-1.27 -2.40771,-0.74083 -4.445,-1.34938 -7.22313,-3.09563 -2.54,-1.50812 -3.86291,-4.18041 -4.52437,-7.09083 -0.58208,-2.51354 -0.68792,-5.18583 -0.74083,-7.22312 0,-0.74084 0.29104,-1.42875 0.76729,-1.93146 1.21708,-1.21708 2.43416,-3.14854 3.4925,-5.26521 1.34937,-2.69875 2.46062,-5.68854 3.04271,-7.91104 0.21166,-0.79375 0.76729,-1.42875 1.48166,-1.74625 1.08479,-0.58208 1.85209,-1.5875 2.27542,-2.75166 0.55562,-1.45521 0.60854,-3.12209 0.15875,-4.63021 -0.0794,-0.34396 -0.10583,-0.68792 -0.0794,-1.03188 0.26459,-3.86291 0.29105,-8.81062 0.82021,-12.54125 0.13229,-1.74625 -0.3175,-3.57187 -1.16416,-5.2652 -1.74625,-3.51896 -5.45042,-6.82625 -9.47209,-7.19667 -1.29646,-0.13229 -2.64583,0.0794 -3.96875,0.74083 -0.92604,0.4498 -1.98437,0.3175 -2.77812,-0.26458 -0.9525,-0.635 -1.71979,-1.11125 -2.48708,-1.45521 -0.7673,-0.34396 -1.61396,-0.58208 -2.77813,-0.76729 -1.19062,-0.21167 -2.38125,-0.29104 -3.545413,-0.26458 -7.355416,0.13229 -14.73729,4.47146 -16.00729,12.17083 -0.15875,0.84667 -0.211666,1.71979 -0.211666,2.61937 l 0.79375,12.3825 c 0,0.0529 -0.07937,0.87313 -0.07937,0.87313 -0.449792,1.48166 -0.370417,3.175 0.15875,4.63021 0.449791,1.21708 1.243541,2.24895 2.381249,2.83104 0.714375,0.34396 1.190625,0.97896 1.375833,1.66687 0.608542,2.24896 1.693334,5.21229 3.069167,7.91104 1.058333,2.14313 2.275416,4.07459 3.466041,5.26521 0.502708,0.52917 0.767291,1.19062 0.767291,1.85208 z m -8.016873,9.86896 c 1.084791,-0.635 1.719791,-2.11667 2.116666,-3.78354 0.423333,-1.66688 0.555625,-3.51896 0.608541,-5.08 -1.322916,-1.56104 -2.566458,-3.59833 -3.677707,-5.76792 -1.322917,-2.64583 -2.434167,-5.50333 -3.148542,-7.85812 -1.825624,-1.24354 -3.122083,-3.04271 -3.889374,-5.08 -0.873125,-2.35479 -1.005417,-5.05354 -0.423333,-7.43479 -0.264584,-3.88937 -0.714375,-8.22854 -0.767292,-12.09146 -0.02646,-1.27 0.05292,-2.48708 0.264583,-3.65125 1.693333,-10.26583 11.165416,-16.430623 21.140206,-16.589373 1.508118,-0.0265 2.989788,0.0794 4.471458,0.3175 1.64041,0.26458 2.88396,0.635 4.07458,1.16417 0.76729,0.34396 1.45521,0.74083 2.19604,1.19062 1.77271,-0.635 3.59833,-0.82021 5.37104,-0.66146 5.87375,0.55563 11.13896,4.921253 13.73188,10.107093 1.24354,2.51354 1.905,5.31812 1.69333,8.04333 l -0.79375,12.17083 c 0.60854,2.40771 0.44979,5.08 -0.42333,7.43479 -0.74084,2.03729 -2.0373,3.83646 -3.88938,5.08 -0.71437,2.35479 -1.82562,5.21229 -3.14854,7.85812 -1.08479,2.16959 -2.32833,4.20688 -3.65125,5.76792 0.0529,1.5875 0.18521,3.43958 0.55563,5.10646 0.39687,1.66687 1.00541,3.09562 2.06375,3.70416 2.16958,1.32292 3.6777,1.905 6.08541,2.61938 1.37583,0.42333 2.75167,0.87312 4.07458,1.37583 2.56646,0.9525 5.74146,2.11667 7.91104,4.23333 2.27542,2.24896 4.02167,5.05355 5.18584,8.04334 1.24354,3.175 1.87854,6.58812 1.87854,9.81604 V 84.931247 H 62.441665 V 188.91249 c 0,-3.22792 0.635,-6.64104 1.878541,-9.81604 1.164167,-2.98979 2.910417,-5.79438 5.185833,-8.04334 2.143125,-2.0902 5.503333,-3.41312 8.334374,-4.39208 1.375833,-0.50271 2.566458,-0.87312 3.65125,-1.21708 2.010833,-0.60854 3.730624,-1.13771 6.006041,-2.56646 z M 57.149999,196.05624 V 79.639581 H 152.39998 V 196.05624 c -31.74999,0 -63.499985,0 -95.249981,0 z M 51.858333,74.347915 V 201.3479 H 157.69165 V 74.347915 Z"
       style="stroke-width:0.0264583" />
    <polygon
       points="292.455,267.912 318.729,267.912 318.729,375.123 423.823,375.123 423.823,401.926 318.729,401.926 318.729,509.137 292.455,509.137 292.455,401.926 187.361,401.926 187.361,375.123 292.455,375.123 "
       id="polygon1"
       transform="matrix(0.26512842,0.26430166,-0.26358278,0.26585153,145.03845,14.797688)" />
  </g>
</svg>
