<?xml version="1.0" encoding="UTF-8" standalone="no"?>
<!-- Created with Inkscape (http://www.inkscape.org/) -->

<svg
   width="543.95459"
   height="719.59027"
   viewBox="0 0 133.33766 176.39061"
   version="1.1"
   id="svg1"
   inkscape:version="1.3.2 (091e20e, 2023-11-25, custom)"
   sodipodi:docname="delete_userphoto_aktuell_2.svg"
   xmlns:inkscape="http://www.inkscape.org/namespaces/inkscape"
   xmlns:sodipodi="http://sodipodi.sourceforge.net/DTD/sodipodi-0.dtd"
   xmlns="http://www.w3.org/2000/svg"
   xmlns:svg="http://www.w3.org/2000/svg">
  <sodipodi:namedview
     id="namedview1"
     pagecolor="#ffffff"
     bordercolor="#000000"
     borderopacity="0.25"
     inkscape:showpageshadow="2"
     inkscape:pageopacity="0.0"
     inkscape:pagecheckerboard="0"
     inkscape:deskcolor="#d1d1d1"
     inkscape:document-units="mm"
     inkscape:zoom="1.050338"
     inkscape:cx="82.830479"
     inkscape:cy="338.46248"
     inkscape:window-width="1920"
     inkscape:window-height="1027"
     inkscape:window-x="-8"
     inkscape:window-y="-8"
     inkscape:window-maximized="1"
     inkscape:current-layer="layer1" />
  <defs
     id="defs1" />
  <g
     inkscape:label="Ebene 1"
     inkscape:groupmode="layer"
     id="layer1"
     transform="translate(-18.520833,-7.9375)">
    <path
       id="curve28"
       fill="#000000"
       d="M 18.520833,7.9375 H 140.92033 V 153.68544 H 18.520833 Z M 69.98426,96.871768 c 0,2.130168 -0.139087,5.017092 -0.806721,7.763882 -0.723274,3.08313 -2.14199,5.94204 -4.729077,7.48359 -2.920892,1.84988 -5.062883,2.49454 -7.594328,3.27933 -1.335268,0.42042 -2.670535,0.84087 -3.977983,1.34538 -2.19763,0.84084 -4.951619,1.84987 -6.342523,3.25129 -1.808176,1.79383 -3.199077,4.06412 -4.17271,6.55865 -1.057087,2.69073 -1.585629,5.57766 -1.585629,8.35249 v 1.96199 h 77.890601 v -1.96199 c 0,-2.77483 -0.52854,-5.66176 -1.58564,-8.35249 -0.97362,-2.49453 -2.36454,-4.76482 -4.1727,-6.55865 -1.3909,-1.40142 -4.14489,-2.41045 -6.34253,-3.25129 -1.33526,-0.47648 -2.6149,-0.92496 -3.97799,-1.34538 -2.53144,-0.78479 -4.67343,-1.42945 -7.594322,-3.27933 -2.670535,-1.59762 -4.061443,-4.42848 -4.756896,-7.51162 -0.611994,-2.66271 -0.723264,-5.493573 -0.778902,-7.651761 0,-0.784805 0.305995,-1.513536 0.80672,-2.04608 1.279629,-1.289304 2.559269,-3.335385 3.671986,-5.577664 1.418727,-2.858902 2.587085,-6.026116 3.19908,-8.380505 0.222551,-0.840855 0.806724,-1.513538 1.557818,-1.849878 1.140538,-0.616624 1.947256,-1.681711 2.392346,-2.914955 0.58419,-1.541567 0.63981,-3.307365 0.16691,-4.90498 -0.0835,-0.36437 -0.11127,-0.728744 -0.0835,-1.093116 0.27818,-4.092146 0.30599,-9.333468 0.86235,-13.285485 0.1391,-1.849878 -0.33382,-3.783835 -1.22399,-5.577653 -1.835992,-3.727787 -5.730525,-7.231342 -9.958866,-7.623743 -1.363088,-0.14014 -2.781815,0.08412 -4.17271,0.784792 -0.973643,0.476492 -2.086361,0.336342 -2.920903,-0.280281 -1.00145,-0.672683 -1.808174,-1.177195 -2.614896,-1.541564 -0.806723,-0.364373 -1.696904,-0.616623 -2.920903,-0.812826 -1.251807,-0.22423 -2.503626,-0.308309 -3.727616,-0.280282 -7.733429,0.140143 -15.494664,4.736812 -16.829932,12.893087 -0.166908,0.896915 -0.222547,1.821847 -0.222547,2.774811 l 0.834542,13.117315 c 0,0.05604 -0.08349,0.924945 -0.08349,0.924945 -0.472903,1.569588 -0.389444,3.363413 0.16691,4.90498 0.472906,1.289306 1.307448,2.382411 2.503626,2.999042 0.751093,0.364373 1.251818,1.037056 1.446548,1.765791 0.639812,2.382421 1.780354,5.521603 3.226887,8.380505 1.112732,2.270311 2.39236,4.316391 3.644166,5.577664 0.528547,0.560573 0.806722,1.261275 0.806722,1.961989 z m -8.42887,10.454612 c 1.140539,-0.67268 1.808172,-2.24227 2.225437,-4.00806 0.445098,-1.7658 0.584186,-3.727793 0.639818,-5.381468 -1.3909,-1.653676 -2.698346,-3.811865 -3.866705,-6.110208 -1.390909,-2.80284 -2.559268,-5.829912 -3.310361,-8.324443 -1.919441,-1.317334 -3.28253,-3.223274 -4.089251,-5.381466 -0.917989,-2.494529 -1.057089,-5.353431 -0.445086,-7.875991 -0.278186,-4.120179 -0.751093,-8.716849 -0.806721,-12.809007 -0.02786,-1.345366 0.05562,-2.634669 0.278175,-3.867927 1.780353,-10.875034 11.739223,-17.405661 22.226632,-17.573831 1.585635,-0.02807 3.143442,0.08412 4.701257,0.336341 1.724726,0.280278 3.032172,0.672683 4.28398,1.233255 0.806731,0.364372 1.529996,0.784794 2.308899,1.261274 1.863814,-0.672683 3.783267,-0.868884 5.647076,-0.700714 6.175615,0.588602 11.7114,5.213294 14.43757,10.706876 1.30746,2.662703 2.0029,5.633715 1.78037,8.520646 l -0.83454,12.893087 c 0.63979,2.550588 0.47289,5.381462 -0.4451,7.875991 -0.7789,2.158192 -2.14199,4.064132 -4.08926,5.381466 -0.75108,2.494531 -1.91944,5.521603 -3.310351,8.324443 -1.140538,2.298343 -2.447984,4.456532 -3.838894,6.110208 0.05562,1.681707 0.194729,3.643698 0.584186,5.409498 0.417265,1.76579 1.057092,3.27932 2.16981,3.92397 2.281079,1.40143 3.866719,2.01805 6.398149,2.77483 1.44655,0.44844 2.89309,0.92493 4.284,1.45747 2.69835,1.00902 6.03651,2.24228 8.31759,4.48455 2.39235,2.38241 4.22835,5.35344 5.45234,8.52065 1.30745,3.36342 1.97508,6.97909 1.97508,10.39856 V 24.754569 H 35.211674 V 134.90638 c 0,-3.41947 0.667635,-7.03514 1.975084,-10.39856 1.223995,-3.16721 3.059986,-6.13824 5.45234,-8.52065 2.253264,-2.21424 5.786159,-3.61567 8.762698,-4.65272 1.446537,-0.53254 2.698344,-0.92493 3.838894,-1.2893 2.11417,-0.64465 3.922341,-1.20523 6.3147,-2.71877 z M 29.64806,142.47406 V 19.14888 h 100.14505 v 123.32518 c -33.381687,0 -66.763365,0 -100.14505,0 z M 24.084447,13.54319 V 148.07974 H 135.35671 V 13.54319 Z"
       style="stroke-width:0.0279229" />
    <polygon
       points="292.455,375.123 292.455,267.912 318.729,267.912 318.729,375.123 423.823,375.123 423.823,401.926 318.729,401.926 318.729,509.137 292.455,509.137 292.455,401.926 187.361,401.926 187.361,375.123 "
       id="polygon1"
       transform="matrix(0.27295544,0.27874019,-0.27514979,0.27651721,138.57561,-45.29961)" />
  </g>
</svg>
