<?xml version="1.0" encoding="UTF-8"?>
<!DOCTYPE svg PUBLIC "-//W3C//DTD SVG 1.1//EN" "http://www.w3.org/Graphics/SVG/1.1/DTD/svg11.dtd">
<svg xmlns="http://www.w3.org/2000/svg" xml:space="preserve" width="580px" height="580px" shape-rendering="geometricPrecision" text-rendering="geometricPrecision" image-rendering="optimizeQuality" fill-rule="nonzero" clip-rule="nonzero" viewBox="0 0 5800 5800" xmlns:xlink="http://www.w3.org/1999/xlink">
	<title>painters_palette_brush icon</title>
	<desc>painters_palette_brush icon from the IconExperience.com I-Collection. Copyright by INCORS GmbH (www.incors.com).</desc>
		<path id="curve29" fill="#000000" d="M1570 2109c-274,91 -366,-183 -274,-274 91,-92 103,-148 69,-233 -38,-94 113,-224 205,-224 82,0 159,29 219,5 183,-73 327,167 181,295 -97,85 14,196 -127,248 -132,49 45,76 -273,183zm-604 367c205,67 493,116 645,269 76,77 105,171 105,277 0,276 -273,444 -471,566 -87,54 -174,109 -258,168 -67,46 -131,96 -188,151 -53,50 -84,115 -94,183 -9,67 4,138 40,201 113,191 278,323 470,411 -4,15 -7,30 -11,44 -9,40 -19,78 -30,115 -4,11 -9,23 -15,35 -237,-104 -444,-264 -585,-505 -61,-102 -82,-218 -66,-329 15,-111 67,-216 153,-299 66,-63 138,-119 211,-171 87,-61 178,-118 269,-173 157,-97 375,-232 375,-397 0,-52 -8,-97 -47,-136 -109,-111 -404,-167 -565,-220 -83,-27 -161,-67 -226,-123 -60,-51 -109,-116 -141,-197 -51,-127 -43,-255 -9,-378 31,-115 83,-221 131,-317 163,-328 391,-615 670,-839 271,-219 588,-377 938,-456 308,-69 630,-74 939,-15 632,119 1150,467 1443,1045 11,22 22,44 32,67 -54,40 -108,81 -163,122 -15,-33 -30,-66 -47,-99 -264,-522 -732,-832 -1301,-939 -284,-54 -578,-49 -859,14 -319,71 -609,216 -857,416 -256,206 -466,471 -616,773 -44,88 -92,186 -118,280 -24,86 -30,172 2,253 19,48 49,87 86,119 44,37 98,65 158,84zm3902 396l-2 8c-57,353 -187,690 -382,989 -288,441 -698,770 -1185,970 -126,52 -255,95 -388,129 10,-50 15,-101 15,-152 0,-19 0,-39 -2,-58 102,-29 202,-63 300,-103 448,-185 827,-488 1092,-894 109,-166 196,-346 260,-535 98,-117 196,-235 292,-354zm-2351 -929c308,0 557,250 557,557 0,307 -249,557 -557,557 -307,0 -556,-250 -556,-557 0,-307 249,-557 556,-557zm0 200c-197,0 -356,160 -356,357 0,197 159,356 356,356 197,0 357,-159 357,-356 0,-197 -160,-357 -357,-357zm1355 -222c97,0 175,-80 175,-179 0,-20 -3,-40 -9,-59 -7,-20 -7,-39 0,-60 6,-18 9,-38 9,-59 0,-79 -49,-146 -117,-170 -100,-37 -14,-191 -146,-191 -45,0 -80,-11 -97,-60 -24,-70 -89,-120 -166,-120 -96,0 -177,81 -175,180 6,226 -175,177 -175,361 0,99 78,180 175,180 118,0 241,-100 286,-25 52,87 65,202 240,202zm-1174 -1079c100,0 189,67 200,158 3,25 16,47 39,62 35,25 59,64 59,108 0,75 -66,135 -146,135 -28,0 -50,-6 -68,-15 -41,-20 -92,-11 -121,23 -36,41 -91,67 -152,67 -88,0 -162,-54 -187,-128 -9,-29 -33,-51 -65,-60 -80,-22 -138,-91 -138,-172 0,-124 91,-124 113,-191 13,-37 50,-64 94,-64 46,0 72,34 95,69 69,109 190,8 277,8z"/>
	<path id="curve28" fill="#000000" d="M2374 4060c-51,-21 -75,-79 -54,-130 21,-51 79,-75 130,-54 136,56 255,142 353,250 76,84 141,178 189,279 24,50 3,110 -47,133 -50,24 -110,2 -133,-48 -40,-84 -93,-160 -156,-230 -79,-86 -174,-155 -282,-200zm2855 -2502c-10,0 -20,2 -29,9 -380,274 -814,604 -1257,976 -357,299 -719,625 -1065,970 -37,37 -74,83 -107,125 37,23 74,48 109,75 66,50 129,107 189,173 44,49 84,98 119,148 13,18 25,36 37,54 41,-35 82,-70 120,-108 346,-345 671,-708 971,-1065 371,-443 701,-876 976,-1257 6,-9 9,-19 8,-29 -2,-24 -47,-69 -71,-71zm169 -128c54,54 94,96 101,183 5,56 -10,113 -46,162 -278,386 -612,824 -984,1268 -304,363 -634,730 -982,1078 -24,24 -58,55 -101,92 -35,30 -103,92 -141,113 -48,26 -109,7 -135,-41 -24,-46 -53,-91 -84,-136 -32,-44 -67,-88 -105,-130 -49,-54 -103,-103 -161,-147 -66,-50 -145,-82 -200,-123 -44,-33 -53,-96 -19,-140 60,-79 126,-167 196,-237 348,-348 715,-678 1078,-982 444,-373 882,-706 1269,-985 97,-70 229,-60 314,25zm-2860 2937c131,145 188,301 188,449 0,182 -87,348 -220,469 -145,131 -349,215 -575,215l-831 0 -241 0c147,-147 449,-407 504,-578 14,-41 24,-85 35,-129 42,-177 83,-329 223,-456 108,-98 258,-167 416,-177 161,-11 330,38 471,176 10,10 20,20 30,31zm-802 136c-85,87 -116,216 -144,336 -13,50 -24,99 -39,144 -40,124 -123,231 -206,317l584 0c174,0 331,-63 441,-163 92,-83 154,-195 154,-321 0,-102 -41,-210 -136,-315 -89,-98 -207,-151 -340,-142 -117,8 -232,61 -314,144z"/>
</svg>