<?xml version="1.0" encoding="UTF-8"?>
<!DOCTYPE svg PUBLIC "-//W3C//DTD SVG 1.1//EN" "http://www.w3.org/Graphics/SVG/1.1/DTD/svg11.dtd">
<svg xmlns="http://www.w3.org/2000/svg" xml:space="preserve" width="580px" height="580px" shape-rendering="geometricPrecision" text-rendering="geometricPrecision" image-rendering="optimizeQuality" fill-rule="nonzero" clip-rule="nonzero" viewBox="0 0 5800 5800" xmlns:xlink="http://www.w3.org/1999/xlink">
	<title>painters_palette icon</title>
	<desc>painters_palette icon from the IconExperience.com I-Collection. Copyright by INCORS GmbH (www.incors.com).</desc>
		<path id="curve29" fill="#000000" d="M2700 2100c331,0 600,269 600,600 0,331 -269,600 -600,600 -331,0 -600,-269 -600,-600 0,-331 269,-600 600,-600zm0 200c-221,0 -400,179 -400,400 0,221 179,400 400,400 221,0 400,-179 400,-400 0,-221 -179,-400 -400,-400zm-1702 383c42,14 92,28 144,42 195,55 430,121 558,250 43,44 72,91 89,143 17,50 23,101 23,154 0,297 -296,480 -510,612 -167,103 -349,214 -491,350 -59,57 -95,130 -105,206 -11,76 4,155 45,226 160,273 418,435 708,527 300,95 635,116 939,105 372,-14 739,-89 1079,-229 321,-132 617,-322 868,-573 384,-382 635,-880 722,-1413 29,-181 39,-365 30,-548 -17,-331 -99,-664 -249,-960 -291,-575 -806,-917 -1432,-1035 -312,-58 -636,-54 -944,16 -351,78 -670,238 -943,458 -281,227 -512,517 -677,849 -48,97 -102,205 -130,309 -26,95 -33,192 3,282 21,55 55,99 96,135 49,42 110,72 177,94zm90 235c-55,-16 -107,-30 -152,-45 -90,-30 -174,-73 -244,-133 -65,-56 -118,-125 -152,-212 -55,-137 -47,-275 -10,-409 34,-124 91,-240 143,-344 178,-358 427,-672 731,-917 296,-238 642,-411 1024,-497 335,-75 687,-80 1025,-17 688,130 1254,509 1573,1141 163,321 252,683 270,1041 10,197 -1,394 -33,589 -93,575 -364,1111 -777,1522 -271,270 -589,474 -933,616 -362,149 -753,230 -1148,244 -324,12 -682,-11 -1006,-113 -334,-106 -631,-295 -820,-617 -65,-111 -87,-236 -71,-355 17,-119 73,-233 165,-321 155,-149 343,-265 524,-377 174,-107 415,-256 415,-442 0,-34 -3,-64 -12,-90 -8,-24 -21,-46 -41,-66 -91,-92 -299,-150 -471,-198z"/>
	<path id="curve28" fill="#000000" d="M1662 2271c-300,100 -400,-200 -300,-300 100,-100 113,-162 75,-255 -40,-103 125,-245 225,-245 90,0 174,32 240,6 200,-80 359,183 198,323 -106,93 15,215 -138,271 -145,54 49,84 -300,200zm1236 -1387c110,0 207,74 219,173 3,28 17,51 42,68 39,27 65,70 65,119 0,81 -72,147 -160,147 -30,0 -54,-6 -74,-16 -46,-22 -101,-12 -133,25 -39,45 -99,74 -166,74 -97,0 -178,-59 -205,-141 -10,-32 -36,-55 -71,-65 -88,-25 -151,-100 -151,-189 0,-135 100,-135 124,-209 13,-41 54,-70 102,-70 50,0 79,37 104,76 76,119 209,8 304,8zm1193 3223c0,113 -59,154 -172,167 -92,10 -114,161 -241,161 -93,0 -168,-73 -168,-164 0,-78 77,-144 -11,-213 -51,-40 -83,-102 -83,-171 0,-99 67,-183 159,-210 115,-34 69,-229 291,-229 154,0 154,103 238,128 46,13 80,55 80,105 0,52 -28,104 -69,134 -146,109 -24,194 -24,292zm287 -1721c49,-63 106,-123 190,-123 106,0 192,89 192,198 0,86 -54,159 -128,186 -139,50 -64,303 -64,406 0,109 -86,198 -192,198 -84,0 -155,-56 -181,-132 -30,-88 -132,-66 -203,-66 -106,0 -192,-88 -192,-197 0,-86 53,-160 128,-187 52,-19 64,-59 64,-110 0,-54 43,-98 96,-98 67,0 228,3 290,-75zm-194 -320c106,0 192,-88 192,-196 0,-22 -4,-44 -11,-64 -8,-23 -8,-44 0,-66 7,-20 11,-43 11,-65 0,-87 -54,-160 -129,-187 -109,-39 -16,-208 -159,-208 -50,0 -89,-12 -107,-66 -26,-77 -98,-132 -181,-132 -106,0 -195,89 -192,198 6,247 -192,194 -192,395 0,109 86,197 192,197 129,0 264,-110 313,-28 57,96 71,222 263,222zm-1345 1823c242,-62 307,192 188,297 -56,50 39,61 39,121 0,93 -61,174 -152,197 -334,85 -308,280 -314,296 -31,82 -115,141 -214,141 -125,0 -227,-94 -227,-211 0,-9 1,-18 2,-27 12,-87 -31,-168 -113,-211 -69,-37 -115,-106 -115,-185 0,-112 94,-204 213,-211 141,-7 173,0 238,-94 102,-148 247,-61 455,-113z"/>
</svg>