<?xml version="1.0" encoding="UTF-8"?>
<!DOCTYPE svg PUBLIC "-//W3C//DTD SVG 1.1//EN" "http://www.w3.org/Graphics/SVG/1.1/DTD/svg11.dtd">
<svg xmlns="http://www.w3.org/2000/svg" xml:space="preserve" width="580px" height="580px" shape-rendering="geometricPrecision" text-rendering="geometricPrecision" image-rendering="optimizeQuality" fill-rule="nonzero" clip-rule="nonzero" viewBox="0 0 5800 5800" xmlns:xlink="http://www.w3.org/1999/xlink">
	<title>desk icon</title>
	<desc>desk icon from the IconExperience.com I-Collection. Copyright by INCORS GmbH (www.incors.com).</desc>
	<path id="curve0" fill="#333333" d="M5500 3600c55,0 100,45 100,100 0,55 -45,100 -100,100l-200 0 0 1700 -200 0 0 -1700 -3200 0 0 1500 -1200 0 0 200 -200 0c0,-567 0,-1133 0,-1700l-200 0c-55,0 -100,-45 -100,-100 0,-55 45,-100 100,-100 1733,0 3467,0 5200,0zm-696 -349l-68 0c-20,0 -36,16 -36,36l0 113 -200 0 0 -113c0,-130 106,-236 236,-236l68 0 0 200zm-114 749c-39,197 -193,298 -390,298l-700 0 0 233 735 274 65 24 0 269 -200 0 0 -131 -600 -224 0 355 -200 0 0 -355 -600 224 0 131 -200 0 0 -269 65 -24 735 -274 0 -233 -700 0c-197,0 -351,-101 -390,-298l207 0c32,77 105,98 183,98l1600 0c78,0 151,-21 183,-98l207 0zm-2390 -600l0 -113c0,-20 -16,-36 -36,-36l-68 0 0 -200 68 0c130,0 236,106 236,236l0 113 -200 0zm2000 1798c83,0 150,67 150,150 0,83 -67,150 -150,150 -83,0 -150,-67 -150,-150 0,-83 67,-150 150,-150zm-1600 0c83,0 150,67 150,150 0,83 -67,150 -150,150 -83,0 -150,-67 -150,-150 0,-83 67,-150 150,-150zm800 0c83,0 150,67 150,150 0,83 -67,150 -150,150 -83,0 -150,-67 -150,-150 0,-83 67,-150 150,-150zm-136 -3396l272 0c446,0 779,333 779,779 0,131 -4,256 -29,385l-88 434 -203 0 95 -473c23,-116 25,-229 25,-346 0,-336 -244,-579 -579,-579l-272 0c-335,0 -579,243 -579,579 0,117 2,230 25,346l95 473 -203 0 -88 -434c-25,-129 -29,-254 -29,-385 0,-446 333,-779 779,-779zm-1664 1998l-1000 0 0 1300 1000 0 0 -1300z"/>
</svg>