<?xml version="1.0" encoding="UTF-8"?>
<!DOCTYPE svg PUBLIC "-//W3C//DTD SVG 1.1//EN" "http://www.w3.org/Graphics/SVG/1.1/DTD/svg11.dtd">
<svg xmlns="http://www.w3.org/2000/svg" xml:space="preserve" width="580px" height="580px" shape-rendering="geometricPrecision" text-rendering="geometricPrecision" image-rendering="optimizeQuality" fill-rule="nonzero" clip-rule="nonzero" viewBox="0 0 5800 5800" xmlns:xlink="http://www.w3.org/1999/xlink">
	<title>document_notebook icon</title>
	<desc>document_notebook icon from the IconExperience.com I-Collection. Copyright by INCORS GmbH (www.incors.com).</desc>
		<path id="curve28" fill="#000000" d="M1900 700l0 600 1600 0 0 200 -1600 0 0 600 2600 0 0 200 -2600 0 0 600 2600 0 0 200 -2600 0 0 600 2600 0 0 200 -2600 0 0 600 2600 0 0 200 -2600 0 0 400 -200 0 0 -400 -400 0 0 -200 400 0 0 -600 -400 0 0 -200 400 0 0 -600 -400 0 0 -200 400 0 0 -600 -400 0 0 -200 400 0 0 -600 -400 0 0 -200 400 0 0 -600 200 0zm2897 703c64,63 103,151 103,247l0 3850 -4000 0 0 -5200 2650 0c96,0 184,39 247,103 0,3 903,902 1000,1000zm-897 -615l0 512 512 0 -512 -512zm-350 -288l-2450 0 0 4800 3600 0 0 -3650c0,-83 -67,-150 -150,-150l-850 0 0 -850c0,-82 -68,-150 -150,-150z"/>
</svg>