<?xml version="1.0" encoding="utf-8"?>
<!-- Generator: Adobe Illustrator 12.0.1, SVG Export Plug-In . SVG Version: 6.00 Build 51448)  -->
<!DOCTYPE svg PUBLIC "-//W3C//DTD SVG 1.1//EN" "http://www.w3.org/Graphics/SVG/1.1/DTD/svg11.dtd" [
	<!ENTITY ns_svg "http://www.w3.org/2000/svg">
	<!ENTITY ns_xlink "http://www.w3.org/1999/xlink">
]>
<svg  version="1.1"
	 id="Ebene_1" text-rendering="geometricPrecision" shape-rendering="geometricPrecision" image-rendering="optimizeQuality"
	 xmlns="&ns_svg;" xmlns:xlink="&ns_xlink;" width="1024" height="1024" viewBox="0 0 1024 1024"
	 overflow="visible" enable-background="new 0 0 1024 1024" xml:space="preserve">
<path fill="#252525" d="M336.863,285.301c2.651-6.133,3.979-16.075,3.979-29.827c0-18.203-2.968-30.666-8.896-37.386
	c-5.933-6.719-15.767-10.08-29.5-10.08h-13.229v93.875h12.994c11.081,0,18.963-1.229,23.646-3.69S334.209,291.435,336.863,285.301z"
	/>
<path fill="#252525" d="M130.379,204.008h-15.105v38.375h12.998c10.227,0,17.408-1.778,21.545-5.34
	c4.137-3.559,6.207-8.117,6.207-13.672c0-5.397-1.797-9.975-5.387-13.729C147.045,205.887,140.293,204.008,130.379,204.008z"/>
<path id="curve28" d="M991.519,1001.833L821.718,884.232l-35.601,28.7c-14.7,11.801-34.899,11.801-49.601,0l-35.601-28.699
	l-169.8,117.601L991.519,1001.833L991.519,1001.833z M521.218,984.433l163.5-113.199l-163.5-131.601V984.433z M521.317,701.833v8.6
	c0,2.7,1,4.5,3.1,6.2l224.602,180.8c7.3,5.9,17.3,5.9,24.6,0l224.601-180.8c1.601-1.3,2.699-2.8,3-4.899v-9.899L521.317,701.833
	L521.317,701.833z M1021.218,1021.833h-520v-340h520C1021.218,795.133,1021.218,908.533,1021.218,1021.833z M1001.218,739.833
	L837.917,871.232l163.301,113.101V739.833z"/>
<g>
	<path fill="none" d="M499.924,568.668c-17.284,48.607-39.092,96.617-65.417,142.223c18.538-7.365,37.661-13.945,56.993-19.769
		V671.5h79.804c2.335-0.451,4.67-0.9,6.996-1.328C548.756,646.221,521.324,612.986,499.924,568.668z"/>
	<path fill="none" d="M376.403,193.619c-6.252-7.889-14.164-13.941-23.736-18.16c-9.575-4.217-22.135-6.326-37.687-6.326h-78.885
		v171.749h78.89c9.454,0,20.002-1.561,31.647-4.686c8.517-2.264,16.487-6.814,23.911-13.648
		c7.423-6.834,13.224-15.309,17.406-25.424c4.179-10.113,6.271-24.348,6.271-42.703c0-11.714-1.408-22.804-4.222-33.271
		C387.186,210.685,382.653,201.508,376.403,193.619z"/>
	<path fill="none" d="M150.121,169.133H61.898v171.75h53.376v-63.75h29.035c21.387,0,37.289-4.879,47.709-14.641
		c10.42-9.76,15.63-23.309,15.631-40.648c0-16.866-4.785-29.868-14.354-39.006C183.726,173.701,169.336,169.133,150.121,169.133z"/>
	<polygon fill="none" points="703.152,249.031 796.514,249.031 703.152,156.144 	"/>
	<polygon fill="none" points="542.271,235.883 475.771,235.883 475.771,206.008 553.646,206.008 553.646,169.133 422.396,169.133 
		422.396,340.883 475.771,340.883 475.771,270.633 542.271,270.633 	"/>
	<path fill="none" d="M291.573,845.431c4.948,3.067,54.416-51.716,64-74.814C341.467,779.724,284.802,839.91,291.573,845.431z"/>
	<path fill="#252525" d="M434.507,710.891c26.325-45.605,48.133-93.615,65.417-142.223c21.4,44.318,48.832,77.553,78.376,101.504
		c-2.326,0.428-4.661,0.877-6.996,1.328h204.045c-27.54-12.197-62.443-17.142-137.973-8.645
		c-42.509-14.555-102.091-83.354-120.729-153.447c4.865-35.104,9.076-90.215,6.317-118.957h-18.587
		c-1.251,13.933-5.617,30.361-8.021,42.14c-2.609-23.937-3.483-65.164,3.387-66.317c3.721,3.602,5.031,9.94,4.978,17.561h19.806
		c2.018-9.108,2.474-18.159,1.344-25.788h78.658v-208h-399.5h-64h-123.5v208h123.5h64l261.536-0.001
		c-3.218,18.52-12.535,80.299,12.293,151.323c-11.094,71.229-114.754,248.854-114.754,248.854l-8.238-10.854
		c0,0-80.164,36.199-99.306,93.205c-5.2,21.809,3.749,28.576,10.126,28.576c2.953,0.975,11.535,18.014,45.92,0.818
		c39.082-18.748,101.694-120.285,103.909-128.939c0.694-3.335,34.638-12.494,74.987-21.59v-28.317
		C472.168,696.945,453.045,703.525,434.507,710.891z M192.018,262.492c-10.42,9.762-26.322,14.641-47.709,14.641h-29.035v63.75
		H61.898v-171.75h88.223c19.215,0,33.605,4.568,43.174,13.705c9.569,9.138,14.354,22.14,14.354,39.006
		C207.648,239.183,202.438,252.732,192.018,262.492z M387.95,297.124c-4.183,10.115-9.983,18.59-17.406,25.424
		c-7.424,6.834-15.395,11.384-23.911,13.648c-11.646,3.125-22.193,4.686-31.647,4.686h-78.89V169.133h78.885
		c15.552,0,28.111,2.109,37.687,6.326c9.572,4.219,17.484,10.271,23.736,18.16c6.25,7.889,10.782,17.066,13.596,27.531
		c2.813,10.467,4.222,21.557,4.222,33.271C394.221,272.776,392.129,287.011,387.95,297.124z M475.771,270.633v70.25h-53.375v-171.75
		h131.25v36.875h-77.875v29.875h66.5v34.75H475.771z M291.573,845.431c-6.771-5.521,49.894-65.707,64-74.814
		C345.989,793.715,296.521,848.498,291.573,845.431z"/>
	<path d="M885.5,312.529c0-17.415-7.111-33.38-18.781-44.812C849.03,249.939,684.371,86.843,684.371,86.297
		c-11.488-11.61-27.537-18.686-45.043-18.686h-483.22v71.997h36.469v-35.713h446.751c14.954,0,27.354,12.336,27.354,27.212v154.209
		h154.993c15.138,0,27.354,12.154,27.354,27.213V671.5H885.5V312.529z M703.152,249.031v-92.887l93.361,92.887H703.152z"/>
	<polygon points="192.577,974.717 192.577,370.596 156.108,370.596 156.108,1011 491.5,1011 491.5,974.717 	"/>
	<polygon display="none" points="885.5,671.5 849.029,671.5 775.349,671.5 571.304,671.5 491.5,671.5 491.5,691.122 491.5,719.439 
		491.5,974.717 491.5,1011 491.5,1059.5 952.5,1059.5 952.5,671.5 	"/>
</g>
</svg>
