<?xml version="1.0" encoding="UTF-8"?>
<!DOCTYPE svg PUBLIC "-//W3C//DTD SVG 1.1//EN" "http://www.w3.org/Graphics/SVG/1.1/DTD/svg11.dtd">
<svg xmlns="http://www.w3.org/2000/svg" xml:space="preserve" width="580px" height="580px" shape-rendering="geometricPrecision" text-rendering="geometricPrecision" image-rendering="optimizeQuality" fill-rule="nonzero" clip-rule="nonzero" viewBox="0 0 5800 5800" xmlns:xlink="http://www.w3.org/1999/xlink">
	<title>document_pinned icon</title>
	<desc>document_pinned icon from the IconExperience.com I-Collection. Copyright by INCORS GmbH (www.incors.com).</desc>
		<path id="curve29" fill="#000000" d="M4788 1793c71,67 112,159 112,257l0 3450 -3800 0 1 -3605c66,7 133,7 199,0l0 3405 3400 0 0 -3250c0,-82 -68,-150 -150,-150l-850 0 0 -850c0,-82 -68,-150 -150,-150l-1456 0c-9,-69 -25,-136 -49,-200l1505 0c96,0 184,39 247,103 1,0 906,906 991,990zm-376 -93l-512 -512 0 512 512 0z"/>
	<path id="curve28" fill="#000000" d="M1200 514c-274,0 -500,217 -500,493 0,276 226,493 500,493 274,0 500,-217 500,-493 0,-276 -226,-493 -500,-493zm971 1315c39,39 39,103 0,142 -39,39 -103,39 -142,0l-409 -410c-117,87 -263,139 -420,139 -383,0 -700,-308 -700,-693 0,-385 317,-693 700,-693 383,0 700,308 700,693 0,155 -51,298 -138,413l409 409z"/>
</svg>