<?xml version="1.0" encoding="UTF-8"?>
<!DOCTYPE svg PUBLIC "-//W3C//DTD SVG 1.1//EN" "http://www.w3.org/Graphics/SVG/1.1/DTD/svg11.dtd">
<svg xmlns="http://www.w3.org/2000/svg" xml:space="preserve" width="580px" height="580px" shape-rendering="geometricPrecision" text-rendering="geometricPrecision" image-rendering="optimizeQuality" fill-rule="nonzero" clip-rule="nonzero" viewBox="0 0 5800 5800" xmlns:xlink="http://www.w3.org/1999/xlink">
	<title>document_chart icon</title>
	<desc>document_chart icon from the IconExperience.com I-Collection. Copyright by INCORS GmbH (www.incors.com).</desc>
		<path id="curve29" fill="#000000" d="M4300 2000l0 2800 -2800 0 0 -2800 2800 0zm-187 187l-2426 0 0 2426 2426 0 0 -2426zm-2253 1620l0 471 438 -938 370 833 416 -416 442 662 414 -1124 0 -578 -466 1264 -291 -436 -67 -102 -87 86 -297 298 -430 -967 -442 947z"/>
	<path id="curve28" fill="#000000" d="M4797 1403c64,63 103,151 103,247l0 3850 -4000 0 0 -5200 2650 0c96,0 184,39 247,103 0,3 903,902 1000,1000zm-897 -615l0 512 512 0 -512 -512zm-350 -288l-2450 0 0 4800 3600 0 0 -3650c0,-83 -67,-150 -150,-150l-850 0 0 -850c0,-82 -68,-150 -150,-150z"/>
</svg>