<?xml version="1.0" encoding="UTF-8"?>
<!DOCTYPE svg PUBLIC "-//W3C//DTD SVG 1.1//EN" "http://www.w3.org/Graphics/SVG/1.1/DTD/svg11.dtd">
<svg xmlns="http://www.w3.org/2000/svg" xml:space="preserve" width="580px" height="580px" shape-rendering="geometricPrecision" text-rendering="geometricPrecision" image-rendering="optimizeQuality" fill-rule="nonzero" clip-rule="nonzero" viewBox="0 0 580 580" xmlns:xlink="http://www.w3.org/1999/xlink">
	<title>document_pdf icon</title>
<path id="curve28" d="M90,30v111.752h20V50h245c8.2,0,15,6.8,15,15v85h85c8.3,0,15,6.7,15,15v365H110V239.797H90V550h400V165
	c0-9.6-3.9-18.399-10.301-24.699c-9.7-9.8-100-99.7-100-100C373.399,33.901,364.6,30,355,30H90z M390,78.801L441.199,130H390V78.801
	z"/>
<path id="path40" fill="none" d="M321.384,396.95c-14.772-11.977-28.487-28.594-39.188-50.751
	c-8.642,24.303-19.545,48.308-32.708,71.111C272.599,408.128,297.518,401.343,321.384,396.95L321.384,396.95z"/>
<path id="path42" fill="none" d="M417.928,414.55c-2.695-4.413-25.537-6.999-33.056-5.918
	C390.031,412.102,415.938,417.579,417.928,414.55z"/>
<path id="path44" fill="none" d="M330.165,240.888h-39.328c0.564,3.814,0.336,8.34-0.672,12.894
	h-9.902c0.028-3.809-0.628-6.979-2.488-8.78c-3.435,0.577-2.998,21.191-1.693,33.159c1.203-5.889,3.386-14.104,4.012-21.07h9.293
	c1.378,14.371-0.727,41.926-3.159,59.479c9.319,35.047,39.111,69.447,60.365,76.724c39.687-4.465,56.94-1.509,71.063,5.281
	c14.122,6.784,5.011,21.59,5.011,21.59s1.525,5.811-12.554,9.242c-16.43,3.037-61.811-12.14-69.441-18.489
	c-3.846-4.012-103.664,17.395-104.512,21.462c-1.107,4.329-32.414,55.098-51.955,64.472c-17.192,8.597-21.483,0.077-22.96-0.41
	c-3.188,0-7.664-3.384-5.063-14.288c9.571-28.504,49.653-46.603,49.653-46.603l4.119,5.426c0,0,51.831-88.813,57.376-124.427
	c-12.415-35.513-7.754-66.402-6.146-75.662h-130.77v264.25h320v-272c0-8.8-7.2-16-16-16h-80v-80c0-8.8-7.2-16-16-16h-208v15.75
	h199.75V240.888z"/>
<polygon id="polygon46" fill="none" points="390.746,137.138 390.746,185.138 438.746,185.138 "/>
<path id="path48" fill="none" d="M178.021,484.58c2.474,1.534,27.208-25.858,32-37.408
	C202.967,451.727,174.635,481.82,178.021,484.58z"/>
<path id="path52" fill="#252525" d="M200.666,204.515c1.326-3.066,1.99-8.038,1.99-14.914
	c0-9.102-1.483-15.333-4.448-18.693c-2.966-3.359-7.883-5.04-14.75-5.04h-6.615v46.938h6.497c5.541,0,9.481-0.615,11.823-1.845
	C197.505,209.73,199.339,207.582,200.666,204.515L200.666,204.515z"/>
<path id="path54" fill="#252525" d="M97.423,163.869h-7.552v19.188h6.499
	c5.113,0,8.704-0.889,10.772-2.67c2.068-1.779,3.104-4.059,3.104-6.836c0-2.699-0.898-4.987-2.693-6.865
	C105.756,164.808,102.381,163.869,97.423,163.869z"/>
<path id="path56" fill="#252525" d="M265.515,240.888c-1.609,9.259-6.268,40.149,6.146,75.661
	c-5.546,35.615-57.376,124.428-57.376,124.428l-4.12-5.427c0,0-40.082,18.1-49.653,46.603c-2.6,10.904,1.875,14.288,5.063,14.288
	c1.476,0.487,5.768,9.008,22.96,0.41c19.542-9.374,50.847-60.143,51.955-64.471c0.848-4.067,100.666-25.474,104.512-21.462
	c7.631,6.35,53.011,21.525,69.441,18.488c14.079-3.431,12.554-9.242,12.554-9.242s9.111-14.805-5.011-21.59
	c-14.123-6.789-31.376-9.746-71.063-5.281c-21.254-7.276-51.045-41.676-60.364-76.724c2.432-17.552,4.538-45.107,3.159-59.478
	h-9.293c-0.625,6.966-2.809,15.181-4.011,21.07c-1.305-11.968-1.742-32.582,1.693-33.159c1.86,1.801,2.517,4.971,2.488,8.78h9.903
	c1.008-4.554,1.236-9.08,0.671-12.894h39.329v-104h-199.75h-32h-61.75v104h61.75h32L265.515,240.888L265.515,240.888z
	 M178.021,484.58c-3.386-2.761,24.946-32.854,32-37.408C205.229,458.722,180.495,486.114,178.021,484.58z M417.928,414.55
	c-1.99,3.029-27.896-2.448-33.056-5.918C392.391,407.552,415.232,410.137,417.928,414.55z M282.196,346.199
	c10.701,22.158,24.416,38.775,39.188,50.751c-23.865,4.393-48.785,11.177-71.896,20.359
	C262.65,394.507,273.554,370.502,282.196,346.199L282.196,346.199z M243.434,146.431h65.625v18.438h-38.938v14.938h33.25v17.375
	h-33.25v35.125h-26.688V146.431z M150.281,146.431h39.444c7.775,0,14.055,1.055,18.843,3.163c4.786,2.109,8.742,5.136,11.868,9.08
	c3.125,3.944,5.392,8.533,6.798,13.766c1.407,5.233,2.11,10.778,2.11,16.635c0,9.178-1.046,16.295-3.135,21.352
	c-2.091,5.058-4.992,9.295-8.703,12.712c-3.712,3.417-7.697,5.691-11.956,6.824c-5.822,1.563-11.096,2.343-15.824,2.343h-39.445
	V146.431z M128.243,193.111c-5.21,4.881-13.161,7.32-23.854,7.32H89.871v31.875H63.184v-85.875h44.111
	c9.607,0,16.803,2.284,21.587,6.853c4.785,4.569,7.177,11.07,7.177,19.503C136.059,181.456,133.453,188.23,128.243,193.111z"/>
</svg>
