<?xml version="1.0" encoding="UTF-8"?>
<!DOCTYPE svg PUBLIC "-//W3C//DTD SVG 1.1//EN" "http://www.w3.org/Graphics/SVG/1.1/DTD/svg11.dtd">
<svg xmlns="http://www.w3.org/2000/svg" xml:space="preserve" width="580px" height="580px" shape-rendering="geometricPrecision" text-rendering="geometricPrecision" image-rendering="optimizeQuality" fill-rule="nonzero" clip-rule="nonzero" viewBox="0 0 5800 5800" xmlns:xlink="http://www.w3.org/1999/xlink">
	<title>document_empty_landscape icon</title>
	<desc>document_empty_landscape icon from the IconExperience.com I-Collection. Copyright by INCORS GmbH (www.incors.com).</desc>
		<path id="curve28" fill="#000000" d="M5300 4700l0 -2450c0,-82 -68,-150 -150,-150l-850 0 0 -850c0,-83 -67,-150 -150,-150l-3650 0 0 3600 4800 0zm-288 -2800l-512 -512 0 512 512 0zm372 90c74,67 116,160 116,260l0 2650 -5200 0 0 -4000 3850 0c96,0 184,39 247,103l987 987z"/>
</svg>