<?xml version="1.0" encoding="UTF-8"?>
<!DOCTYPE svg PUBLIC "-//W3C//DTD SVG 1.1//EN" "http://www.w3.org/Graphics/SVG/1.1/DTD/svg11.dtd">
<svg xmlns="http://www.w3.org/2000/svg" xml:space="preserve" width="580px" height="580px" shape-rendering="geometricPrecision" text-rendering="geometricPrecision" image-rendering="optimizeQuality" fill-rule="nonzero" clip-rule="nonzero" viewBox="0 0 5800 5800" xmlns:xlink="http://www.w3.org/1999/xlink">
	<title>document_music icon</title>
	<desc>document_music icon from the IconExperience.com I-Collection. Copyright by INCORS GmbH (www.incors.com).</desc>
		<path id="curve29" fill="#000000" d="M1889 3905c29,-3 56,-5 82,-5 125,0 239,34 329,91l0 -1791c0,-49 35,-90 81,-98l1595 -399c53,-13 108,19 121,73 2,8 3,16 3,24l0 2142c0,37 5,76 -14,108 -25,99 -84,190 -166,264 -105,95 -250,163 -409,181 -29,3 -56,5 -82,5 -135,0 -257,-39 -350,-106 -98,-70 -163,-172 -176,-292 -2,-16 -3,-31 -3,-46 0,-138 69,-270 180,-370 105,-95 250,-163 409,-181 29,-3 56,-5 82,-5 125,0 239,33 329,91l0 -1163 -1400 350 0 1564c0,37 5,76 -14,108 -25,99 -84,190 -166,264 -105,95 -250,163 -409,181 -29,3 -56,5 -82,5 -135,0 -257,-39 -350,-106 -98,-70 -163,-172 -176,-292 -2,-16 -3,-31 -3,-46 0,-138 69,-270 180,-370 105,-95 250,-163 409,-181zm2011 -1683l0 -294 -1400 350 0 294 1400 -350zm0 1722c0,-8 0,-16 -1,-24 -7,-62 -42,-115 -95,-153 -59,-42 -140,-67 -233,-67 -21,0 -41,1 -60,3 -117,13 -222,62 -298,131 -70,63 -113,142 -113,222 0,9 0,17 1,24 7,62 42,115 95,153 59,42 140,67 233,67 21,0 41,-1 60,-3 117,-13 222,-62 298,-131 70,-63 113,-142 113,-222zm-1929 156c-21,0 -41,1 -60,3 -117,13 -222,62 -298,131 -70,63 -113,142 -113,222 0,10 0,18 1,24 7,62 42,115 95,153 59,42 140,67 233,67 21,0 41,-1 60,-3 117,-13 222,-62 298,-131 70,-63 113,-142 113,-222 0,-8 0,-16 -1,-24 -7,-62 -42,-115 -95,-153 -59,-42 -140,-67 -233,-67z"/>
	<path id="curve28" fill="#000000" d="M4797 1403c64,63 103,151 103,247l0 3850 -4000 0 0 -5200 2650 0c96,0 184,39 247,103 0,3 903,902 1000,1000zm-897 -615l0 512 512 0 -512 -512zm-350 -288l-2450 0 0 4800 3600 0 0 -3650c0,-83 -67,-150 -150,-150l-850 0 0 -850c0,-82 -68,-150 -150,-150z"/>
</svg>