<?xml version="1.0" encoding="utf-8"?>
<!-- Generator: Adobe Illustrator 12.0.1, SVG Export Plug-In . SVG Version: 6.00 Build 51448)  -->
<!DOCTYPE svg PUBLIC "-//W3C//DTD SVG 1.1//EN" "http://www.w3.org/Graphics/SVG/1.1/DTD/svg11.dtd" [
	<!ENTITY ns_svg "http://www.w3.org/2000/svg">
	<!ENTITY ns_xlink "http://www.w3.org/1999/xlink">
]>
<svg  version="1.1" id="Ebene_1" xmlns="&ns_svg;" xmlns:xlink="&ns_xlink;" width="591.983" height="517.744"
	 viewBox="0 0 591.983 517.744" overflow="visible" enable-background="new 0 0 591.983 517.744" xml:space="preserve">
<path id="curve28_2_" d="M543.095,126.625l39.825,38.607c10.996,10.659,12.149,29.064,2.57,41.014L392.486,447.05l-51.442,24.317
	l-9.449,4.523l-27.585,13.074c-4.691,2.259-10.115,1.291-13.996-2.543c-3.942-3.751-5.492-9.475-4.048-14.948l8.34-31.729
	l2.894-10.876l15.494-59.169l193.075-240.737C515.282,117.018,532.164,115.96,543.095,126.625z M308.131,439.533l21.921,21.249
	l46.231-21.881l-54.204-52.547L308.131,439.533z M501.893,266.84L394.794,400.421l-10.008-9.702l107.098-133.58L501.893,266.84z
	 M476.65,187.311l59.845,58.013l39.052-48.787c4.789-5.975,4.218-15.104-1.28-20.433l-39.897-38.676
	c-5.428-5.261-13.868-4.732-18.598,1.166L476.65,187.311z M527.771,256.13l-59.774-57.947L327.982,372.818l59.776,57.941
	L527.771,256.13z"/>
<g>
	<path fill="none" d="M255,404.543c-0.1,0-11.4-3.7-12.8-4.1c-2.3-0.7-28.9-9.9-27.5-11.7c-5.8-3.4-10.2-6.8-13.4-11.6
		c-3.4-4.801-5.4-10.601-6.2-18.301l-1.2-11.1H205c10.8,0,23.3,0,34.3-2.5c7.9-1.9,15.3-5,20.9-10.7c-7.5-13.2-12.5-31.5-15.7-50.5
		c-5.5-33.3-5.8-69.9-4.4-84.7c1-11.3-2.7-23.4-9.6-33.6c-6.6-9.9-16.1-17.8-26.8-20.8c-13.4-3.9-26.8-2-39.2,4.2l-4.5,2.2l-4.5-2.2
		c-12.4-6.2-25.7-8.1-39.2-4.2c-10.7,3-20.2,10.9-26.8,20.8c-6.8,10.2-10.6,22.3-9.6,33.6c1.4,14.8,1.1,51.4-4.4,84.7
		c-3.2,19-8.2,37.3-15.7,50.5c13.3,13.2,37,13.2,55.2,13.2h11.2l-1.3,11.2c-0.9,7.7-2.9,13.399-6.4,18.3c0,2.8-13.5,11.8-13.5,11.7
		c-10.5,6.5-18.2,8.8-27.2,11.5c-4.7,1.399-9.7,3-14.4,4.7c-7.9,2.899-17.7,6.5-22.7,11.3c-6.6,6.399-11.6,14.399-15.1,23.1
		c-3.7,9.3-5.6,19.5-5.6,29.2c0,6.9,13.6,12.9,32.3,17.7c33,8.6,79.9,11.3,107.7,11.3s74.7-2.7,107.7-11.3
		c0.066-0.017,0.131-0.034,0.197-0.052l-31.163-23.848L274.65,413c-5.225-3.146-12.164-5.696-18.05-7.856L255,404.543z"/>
	<path fill="none" d="M500,345.244c0-6.063-0.742-12.319-2.202-18.431l-27.028,35.318C487.869,357.473,500,351.76,500,345.244z"/>
	<path d="M402.056,217.718c5-5.8,9.701-13.4,13.801-21.3c5-9.8,9.199-20.5,11.801-29.3c7-4.6,11.898-11.4,14.799-18.9
		c3.301-8.8,3.801-18.8,1.6-27.8l3-45.2c0.801-9.9-1.6-20.1-6.1-29.3c-4.9-10-12.299-19-21.199-25.8c-9-6.9-19.701-11.6-30.801-12.6
		c-6.799-0.6-13.699,0.1-20.4,2.5c-2.898-1.8-5.6-3.2-8.398-4.5c-9.701-4.3-21.8-5.7-32.3-5.5c-37.4,0.6-73.7,23.4-80.001,62.2
		c-0.699,4.2-1.199,9.5-0.9,13.7l2.9,44.5c-2.199,9-1.699,19,1.6,27.8c2.9,7.5,7.801,14.3,14.8,18.9c2.701,8.8,6.9,19.5,11.801,29.2
		c4.1,8,8.801,15.6,13.9,21.4c-0.201,5.8-0.801,12.6-2.201,18.7c-1.6,6.2-4,11.7-8.1,14.101c-5.199,3.199-9.5,5.1-13.699,6.6
		c0.6,6.699,1.5,13.5,2.5,20.199c6.799-2.1,13.299-4.6,21.5-9.699c9.299-5.4,14.4-15.5,17.1-26.5c2.4-9.6,2.9-19.8,2.9-27.2
		c0-2.6-1-5.1-3-7.1c-4.4-4.4-9-11.6-13-19.5c-5.201-10.1-9.4-21.1-11.6-29.4c-0.701-2.6-2.5-5-5.201-6.3c-4.299-2.1-7.299-6-9-10.5
		c-2-5.2-2.199-11.2-0.799-16.5c0.398-1.2,0.6-2.5,0.5-3.9l-3-46c0-3.2,0.199-6.3,0.699-9.3c4.699-29,33.1-45,60.6-45.5
		c7.5-0.2,17.001,0.8,23.899,3.9c3.102,1.3,6.201,3.2,10.102,5.7c2.799,1.8,6.5,2.2,9.799,0.6c4.9-2.4,10.1-3.2,15.201-2.8
		c7.1,0.7,14.299,3.9,20.5,8.7c6.5,5,11.898,11.5,15.398,18.6c3,6.1,4.602,12.7,4.102,19.3l-3.102,46.8c-0.1,1.2,0.102,2.3,0.4,3.4
		c1.6,5.5,1.4,11.7-0.699,17c-1.6,4.4-4.5,8.1-8.701,10.3c-2.6,1.2-4.699,3.5-5.5,6.5c-2.199,8.2-6.398,19.2-11.5,29.4
		c-4.1,7.9-8.6,15.1-13.1,19.5c-1.9,1.9-3,4.5-3,7.4c0.201,7.6,0.6,17.6,2.801,26.9c0.75,3.209,1.711,6.333,2.939,9.295
		l15.355-20.066C402.468,226.035,402.19,221.675,402.056,217.718z"/>
	<path d="M267.7,486.444c-33,8.6-79.9,11.3-107.7,11.3s-74.7-2.7-107.7-11.3c-18.7-4.8-32.3-10.8-32.3-17.7c0-9.7,1.9-19.9,5.6-29.2
		c3.5-8.7,8.5-16.7,15.1-23.1c5-4.8,14.8-8.4,22.7-11.3c4.7-1.7,9.7-3.301,14.4-4.7c9-2.7,16.7-5,27.2-11.5
		c0,0.1,13.5-8.9,13.5-11.7c3.5-4.9,5.5-10.6,6.4-18.3l1.3-11.2H115c-18.2,0-41.9,0-55.2-13.2c7.5-13.2,12.5-31.5,15.7-50.5
		c5.5-33.3,5.8-69.9,4.4-84.7c-1-11.3,2.8-23.4,9.6-33.6c6.6-9.9,16.1-17.8,26.8-20.8c13.5-3.9,26.8-2,39.2,4.2l4.5,2.2l4.5-2.2
		c12.4-6.2,25.8-8.1,39.2-4.2c10.7,3,20.2,10.9,26.8,20.8c6.9,10.2,10.6,22.3,9.6,33.6c-1.4,14.8-1.1,51.4,4.4,84.7
		c3.2,19,8.2,37.3,15.7,50.5c-5.6,5.7-13,8.8-20.9,10.7c-11,2.5-23.5,2.5-34.3,2.5h-11.1l1.2,11.1c0.8,7.7,2.8,13.5,6.2,18.301
		c3.2,4.8,7.6,8.199,13.4,11.6c-1.4,1.8,25.2,11,27.5,11.7c1.4,0.399,12.7,4.1,12.8,4.1l1.6,0.601
		c5.886,2.16,12.826,4.711,18.05,7.856l12.183-15.92c-7.571-5.005-16.741-8.243-25.033-11.237c0.101-0.199-12.6-4.199-13.9-4.6
		c-7.7-2.3-14.2-4.2-22.6-9.5c0.3-2.1-4.1-2.3-6.1-4.2c8-0.3,16.3-1,24.6-2.899c14.4-3.301,27.9-10.101,37-23.9l3.9-5.8l-4.2-5.7
		c-7.8-10.4-13-28.7-16.3-48.5c-5.2-31.6-5.5-65.8-4.3-79.6c1.5-16-3.601-32.7-12.8-46.5c-9.2-13.7-22.6-24.6-37.9-28.9
		c-16.6-4.8-33.4-3.3-49.2,3.5c-15.8-6.8-32.6-8.3-49.2-3.5c-15.3,4.3-28.7,15.2-37.9,28.9c-9.2,13.8-14.3,30.5-12.8,46.5
		c1.2,13.8,0.9,48-4.3,79.6c-3.3,19.8-8.5,38.1-16.3,48.5l-4.2,5.7l3.9,5.8c14.7,22.1,39.4,26.1,61.5,26.8c-1.9,1.8-3.8,2.9-6,4.2
		c-8.4,5.3-14.9,7.2-22.6,9.5c-5.3,1.6-10.4,3.2-15.5,5.2c-9.7,3.5-21.7,7.899-29.8,15.7c-8.6,8.399-15.2,18.8-19.7,30
		c-4.7,11.8-7.1,24.6-7.1,36.6c0,18.3,19.9,29.9,47.3,37c35.1,9.1,84,12,112.7,12s77.6-2.9,112.7-12
		c5.159-1.337,10.053-2.834,14.598-4.505l-19.4-14.847C267.831,486.41,267.767,486.427,267.7,486.444z"/>
	<path d="M485.688,348.989l-14.672,19.172c1.461,6.111,2.203,12.368,2.203,18.431c0,6.517-12.131,12.229-29.23,16.888
		l-18.824,24.596c7.248-1.29,14.24-2.776,20.754-4.483c27.4-7.1,47.301-18.7,47.301-37c0-12-2.4-24.7-7.1-36.6
		C485.982,349.654,485.828,349.325,485.688,348.989z"/>
	<path d="M281.9,368.744c-1,0.8-1.9,1.5-2.9,2.2c6.532,2.641,13.498,5.816,19.959,10.291l7.331-9.578
		C298.152,370.89,289.922,369.931,281.9,368.744z"/>
</g>
</svg>
