<?xml version="1.0" encoding="UTF-8"?>
<!DOCTYPE svg PUBLIC "-//W3C//DTD SVG 1.1//EN" "http://www.w3.org/Graphics/SVG/1.1/DTD/svg11.dtd">
<svg xmlns="http://www.w3.org/2000/svg" xml:space="preserve" width="580px" height="580px" shape-rendering="geometricPrecision" text-rendering="geometricPrecision" image-rendering="optimizeQuality" fill-rule="nonzero" clip-rule="nonzero" viewBox="0 0 5800 5800" xmlns:xlink="http://www.w3.org/1999/xlink">
	<title>emoticon_smile icon</title>
	<desc>emoticon_smile icon from the IconExperience.com I-Collection. Copyright by INCORS GmbH (www.incors.com).</desc>
		<path id="curve28" fill="#000000" d="M2900 300c1436,0 2600,1164 2600,2600 0,1436 -1164,2600 -2600,2600 -1436,0 -2600,-1164 -2600,-2600 0,-1436 1164,-2600 2600,-2600zm1486 3426c-300,539 -868,874 -1486,874 -618,0 -1186,-335 -1486,-874l174 -97c266,477 766,771 1312,771 546,0 1046,-294 1312,-771l174 97zm-686 -1826c221,0 400,179 400,400 0,221 -179,400 -400,400 -220,0 -400,-180 -400,-400 0,-221 179,-400 400,-400zm-1600 0c221,0 400,179 400,400 0,220 -180,400 -400,400 -221,0 -400,-179 -400,-400 0,-221 179,-400 400,-400zm800 -1400c-1326,0 -2400,1074 -2400,2400 0,1326 1074,2400 2400,2400 1326,0 2400,-1074 2400,-2400 0,-1326 -1074,-2400 -2400,-2400z"/>
</svg>