<?xml version="1.0" encoding="UTF-8"?>
<!DOCTYPE svg PUBLIC "-//W3C//DTD SVG 1.1//EN" "http://www.w3.org/Graphics/SVG/1.1/DTD/svg11.dtd">
<svg xmlns="http://www.w3.org/2000/svg" xml:space="preserve" width="580px" height="580px" shape-rendering="geometricPrecision" text-rendering="geometricPrecision" image-rendering="optimizeQuality" fill-rule="nonzero" clip-rule="nonzero" viewBox="0 0 5800 5800" xmlns:xlink="http://www.w3.org/1999/xlink">
	<title>engineer icon</title>
	<desc>engineer icon from the IconExperience.com I-Collection. Copyright by INCORS GmbH (www.incors.com).</desc>
		<path id="curve28" fill="#000000" d="M3680 3884l-383 479 -193 -259c-40,37 -80,72 -104,96 178,356 198,791 200,1093 358,-14 805,-56 1145,-145 264,-68 455,-157 455,-268 0,-126 -24,-240 -71,-345 -48,-106 -120,-203 -215,-296 -72,-70 -207,-119 -315,-158 -64,-23 -127,-44 -193,-64 -110,-33 -204,-61 -326,-133zm-1880 -2284c0,15 -4,30 -11,45l-68 135 420 420 1518 0 420 -420 -64 -127c-9,-15 -15,-34 -15,-53 0,-495 -205,-902 -700,-1047l0 547 -200 0 0 -656c-62,-29 -131,-44 -200,-44 -69,0 -138,15 -200,44l0 656 -200 0 0 -547c-495,146 -700,553 -700,1047zm1950 2093c118,74 208,101 313,133 69,21 136,42 204,67 126,46 283,104 386,203 113,110 200,228 258,357 59,131 89,272 89,427 0,225 -254,370 -605,461 -465,121 -1113,159 -1495,159 -382,0 -1030,-38 -1495,-159 -351,-91 -605,-236 -605,-461 0,-155 30,-296 89,-427 58,-129 145,-247 258,-357 103,-99 260,-157 386,-203 68,-25 135,-46 204,-67 104,-32 193,-58 307,-129 2,-1 4,-2 6,-4 74,-42 70,-141 61,-247 -4,-42 -8,-84 -10,-126 -145,-163 -195,-381 -250,-586 -92,-58 -156,-145 -193,-243 -41,-109 -48,-234 -22,-346 -7,-34 -13,-67 -18,-100 -5,-32 -8,-64 -10,-95l-79 -79c-33,-34 -38,-85 -14,-124l85 -170c7,-605 300,-1085 908,-1232 10,-21 26,-39 46,-49 105,-64 226,-96 346,-96 123,0 247,33 353,100 18,11 31,27 38,45 609,147 902,627 909,1232l89 178c20,40 11,86 -18,116l-78 77c-4,62 -14,128 -29,197 51,216 -21,467 -215,589 -5,17 -7,27 -10,37 -49,191 -102,394 -240,549 -1,41 -5,82 -9,123 -10,105 -18,203 60,250zm-220 -484c121,-119 170,-309 216,-488 9,-36 18,-71 21,-79 8,-30 29,-53 56,-65 140,-72 184,-258 143,-401l-195 195c-20,19 -45,29 -71,29l-1600 0c-28,0 -54,-12 -72,-30l-194 -194 0 2c-22,78 -18,166 11,243 25,67 71,125 136,158 27,13 45,36 52,63l19 72c48,183 99,377 218,495 20,19 30,45 30,71 0,0 6,104 7,114 105,205 378,281 593,281 216,0 491,-77 595,-285 4,-37 6,-74 5,-108 0,-28 11,-54 30,-73zm-930 2084c2,-302 22,-737 200,-1093l-100 -100 -197 263 -383 -479c-122,72 -216,100 -326,133 -65,20 -129,40 -193,64 -108,39 -243,88 -315,158 -95,93 -167,190 -215,296 -47,105 -71,219 -71,345 0,111 191,200 455,268 340,89 787,131 1145,145zm-330 -1540l227 284 144 -191c-122,-29 -243,-80 -342,-158 -7,22 -17,44 -29,65zm1229 -64c-99,77 -218,128 -340,157l144 191 226 -282c-13,-21 -23,-43 -30,-66z"/>
</svg>