<?xml version="1.0" encoding="utf-8"?>
<!-- Generator: Adobe Illustrator 12.0.1, SVG Export Plug-In . SVG Version: 6.00 Build 51448)  -->
<!DOCTYPE svg PUBLIC "-//W3C//DTD SVG 1.1//EN" "http://www.w3.org/Graphics/SVG/1.1/DTD/svg11.dtd" [
	<!ENTITY ns_svg "http://www.w3.org/2000/svg">
	<!ENTITY ns_xlink "http://www.w3.org/1999/xlink">
]>
<svg  version="1.1" id="Ebene_1" xmlns="&ns_svg;" xmlns:xlink="&ns_xlink;" width="188.015" height="42.205"
	 viewBox="0 0 188.015 42.205" overflow="visible" enable-background="new 0 0 188.015 42.205" xml:space="preserve">
<path fill="#EC732C" d="M93.805,25.788c0.988,0.306,2.612,0.706,3.765,0.706c1.318,0,2.707-0.259,2.707-1.789
	c0-1.506-1.906-1.647-3.813-2.212c-1.906-0.565-3.836-1.554-3.836-4.707c0-3.507,3.53-5.131,6.613-5.131
	c1.812,0,3.506,0.424,5.177,1.059l-1.2,3.013c-1.083-0.4-2.565-0.683-3.436-0.683c-2.024,0-2.777,0.729-2.777,1.765
	c0,0.659,0.471,1.224,2.354,1.624c4.166,0.941,5.295,2.612,5.295,4.895c0,4.025-3.224,5.555-6.849,5.555
	c-1.694,0-3.459-0.377-5.06-0.918L93.805,25.788z"/>
<path fill="#EC732C" d="M116.328,17.55h4.095l-0.094,11.861h-4.096v-1.294c-0.941,0.917-2.377,1.718-3.836,1.718
	c-2.519,0-3.884-1.389-3.884-4.637c0-2.424,0.023-5.036,0.047-7.648h4.096c-0.023,2.283-0.047,4.589-0.047,7.037
	c0,0.965,0.259,1.718,1.482,1.718c0.659,0,1.601-0.565,2.142-1.083L116.328,17.55z"/>
<path fill="#EC732C" d="M134.826,28.612c-1.13,0.706-2.989,1.224-4.354,1.224c-3.766,0-6.472-2.165-6.472-6.072
	c0-4.001,2.683-6.637,6.73-6.637c1.412,0,3.107,0.447,4.024,1.036l-1.317,2.683c-0.612-0.259-1.271-0.471-1.93-0.471
	c-2.048,0-3.413,1.224-3.413,3.177c0,1.694,1.318,3.036,3.06,3.036c0.777,0,1.554-0.353,2.213-0.683L134.826,28.612z"/>
<path fill="#EC732C" d="M148.218,28.612c-1.13,0.706-2.989,1.224-4.354,1.224c-3.766,0-6.472-2.165-6.472-6.072
	c0-4.001,2.683-6.637,6.73-6.637c1.412,0,3.106,0.447,4.024,1.036l-1.317,2.683c-0.612-0.259-1.271-0.471-1.931-0.471
	c-2.047,0-3.412,1.224-3.412,3.177c0,1.694,1.318,3.036,3.06,3.036c0.776,0,1.554-0.353,2.212-0.683L148.218,28.612z"/>
<path fill="#EC732C" d="M162.268,28.07c-1.389,1.177-3.507,1.766-5.39,1.766c-4.307,0-6.26-3.06-6.26-6.096
	c0-3.577,2.683-6.613,6.378-6.613c4.519,0,5.931,3.201,5.931,7.272h-8.214c0,0.918,0.589,2.471,2.848,2.471
	c1.436,0,2.236-0.424,3.342-1.177L162.268,28.07z M159.255,21.999c0-1.225-0.588-2.33-1.953-2.33c-1.294,0-2.283,1.153-2.542,2.33
	H159.255z"/>
<path fill="#EC732C" d="M166.574,26.352c0.848,0.329,2.33,0.659,3.342,0.659c0.589,0,1.365-0.354,1.365-0.941
	c0-0.518-0.212-0.706-2.283-1.295c-2-0.564-3.224-1.506-3.224-3.718c0-2.848,2.683-3.931,5.178-3.931
	c2.023,0,3.741,0.471,4.212,0.777l-0.753,2.542c-0.8-0.212-1.741-0.494-2.895-0.494c-0.636,0-1.506,0.259-1.506,0.941
	c0,0.494,0.212,0.8,1.506,1.059c2.307,0.471,4.001,1.225,4.001,3.86c0,3.06-2.659,4.024-5.53,4.024
	c-1.766,0-3.766-0.494-4.331-0.777L166.574,26.352z"/>
<path fill="#EC732C" d="M179.071,26.352c0.847,0.329,2.33,0.659,3.342,0.659c0.588,0,1.365-0.354,1.365-0.941
	c0-0.518-0.212-0.706-2.283-1.295c-2-0.564-3.225-1.506-3.225-3.718c0-2.848,2.684-3.931,5.178-3.931
	c2.024,0,3.742,0.471,4.213,0.777l-0.753,2.542c-0.8-0.212-1.741-0.494-2.895-0.494c-0.636,0-1.507,0.259-1.507,0.941
	c0,0.494,0.212,0.8,1.507,1.059c2.307,0.471,4.001,1.225,4.001,3.86c0,3.06-2.66,4.024-5.531,4.024c-1.765,0-3.766-0.494-4.33-0.777
	L179.071,26.352z"/>
<path fill="none" stroke="#EC732C" d="M45.26,34.269c-5.389,4.648-11.876,7.436-20.673,7.436C8.746,41.705,0.5,31.172,0.5,21.72
	C0.5,10.957,10.071,0.5,26.563,0.5c8.141,0,14.411,2.711,19.357,6.585 M27.112,8.557c-8.356,0-12.534,6.349-12.534,12.316
	c0,8.206,5.171,12.777,11.877,12.777"/>
<g>
	<text transform="matrix(1 0 0 1 25.5737 29.436)"><tspan x="0" y="0" fill="#EC732C" font-family="'SyntaxD-Bol'" font-size="24" letter-spacing="1">E</tspan><tspan x="12.984" y="0" fill="#EC732C" font-family="'SyntaxD-Bol'" font-size="24">v</tspan></text>
	<text transform="matrix(1 0 0 1 51.0371 29.436)"><tspan x="0" y="0" fill="#EC732C" font-family="'SyntaxD-Bol'" font-size="24" letter-spacing="1">en</tspan><tspan x="27.696" y="0" fill="#EC732C" font-family="'SyntaxD-Bol'" font-size="24">t</tspan></text>
</g>
</svg>
