<?xml version="1.0" encoding="utf-8"?>
<!-- Generator: Adobe Illustrator 12.0.1, SVG Export Plug-In . SVG Version: 6.00 Build 51448)  -->
<!DOCTYPE svg PUBLIC "-//W3C//DTD SVG 1.1//EN" "http://www.w3.org/Graphics/SVG/1.1/DTD/svg11.dtd" [
	<!ENTITY ns_svg "http://www.w3.org/2000/svg">
	<!ENTITY ns_xlink "http://www.w3.org/1999/xlink">
]>
<svg  version="1.1" id="Ebene_1" xmlns="&ns_svg;" xmlns:xlink="&ns_xlink;" width="384.5" height="384.873"
	 viewBox="0 0 384.5 384.873" overflow="visible" enable-background="new 0 0 384.5 384.873" xml:space="preserve">
<g id="XMLID_4_">
	<g>
		<path d="M384.25,48.25c0,96,0,192,0,288c-53.36,0-106.72,0-160.08,0c0,16,0,32,0,48c-5.33,0-11.36,0-17.28,0
			c-5.96,0-12.319,0.84-17.28,0c-0.81-0.14-1.21-0.8-1.68-0.96c-1.49-0.5-3.73,0.32-4.56-1.2c-1.95,0.19-3.46-0.06-4.32-0.96
			c-1.12,0-2.24,0-3.36,0c-0.94,0.38-0.08-1.04-0.72-0.96c-1.36,0-2.72,0-4.08,0c-1.09,0.45-0.42-0.86-0.96-0.96
			c-3.37,0.5-4.18-1.58-7.68-0.96c-1.22-1.5-4.79-0.64-6-2.16c-1.12,0-2.24,0-3.36,0c-1.09,0.45-0.42-0.86-0.96-0.96
			c-1.12,0-2.24,0-3.36,0c-0.94,0.38-0.08-1.04-0.72-0.96c-1.28,0-2.56,0-3.84,0c-1.09,0.45-0.42-0.86-0.96-0.96
			c-3.42,0.46-4.32-1.6-7.92-0.96c-1.21-1.521-4.78-0.66-6-2.16c-1.04,0-2.08,0-3.12,0c-0.85-0.91-2.35-1.17-4.32-0.96
			c-0.94,0.38-0.08-1.04-0.72-0.96c-1.36,0-2.72,0-4.08,0c-1.09,0.45-0.42-0.86-0.96-0.96c-3.37,0.5-4.18-1.58-7.68-0.96
			c-1.22-1.5-4.79-0.64-6-2.16c-1.12,0-2.24,0-3.36,0c-1.09,0.45-0.42-0.86-0.96-0.96c-1.04,0-2.08,0-3.12,0
			c-1.09,0.45-0.42-0.86-0.96-0.96c-1.36,0-2.72,0-4.08,0c-0.94,0.38-0.08-1.04-0.72-0.96c-3.42,0.46-4.32-1.6-7.92-0.96
			c-1.21-1.521-4.78-0.66-6-2.16c-1.04,0-2.08,0-3.12,0c-0.85-0.99-2.55-1.13-4.56-0.96c-0.94,0.38-0.08-1.04-0.72-0.96
			c-1.28,0-2.56,0-3.84,0c-1.09,0.45-0.42-0.86-0.96-0.96c-1.77,0.01-3.81,0.29-4.32-0.96c-1.12,0-2.24,0-3.36,0
			c-1.12-1.6-4.96-0.48-6-2.16c-3.53,0.65-4.4-1.36-7.68-0.96c-0.94,0.38-0.08-1.04-0.72-0.96c-1.28,0-2.56,0-3.84,0
			c-1.09,0.45-0.42-0.86-0.96-0.96c-1.82-0.021-4.03,0.35-4.56-0.96c-1.12,0-2.24,0-3.36,0c-1.21-1.521-4.78-0.66-6-2.16
			c-1.04,0-2.08,0-3.12,0c-1.04-0.8-2.51-1.17-4.56-0.96c-1.01,0.37,0.05-1.33-0.96-0.96c-1.2,0-2.4,0-3.6,0
			c-1.09,0.45-0.42-0.86-0.96-0.96c-3.34,0.38-4.52-1.4-7.68-1.2c0-99.92,0-199.84,0-299.76c1.12,0,2.24,0,3.36,0
			c0.85-1.7,4.53-0.59,5.52-2.16c1.04,0,2.08,0,3.12,0c0.85-0.99,2.55-1.13,4.56-0.96c0.94,0.38,0.08-1.04,0.72-0.96
			c1.36,0,2.72,0,4.08,0c0.94,0.38,0.08-1.04,0.72-0.96c3.37,0.49,4.18-1.58,7.68-0.96c1.26-1.54,4.99-0.61,6.24-2.16
			c1.04,0,2.08,0,3.12,0c0.85-0.91,2.35-1.17,4.32-0.96c1.01,0.37-0.05-1.33,0.96-0.96c1.28,0,2.56,0,3.84,0
			c0.94,0.38,0.08-1.04,0.72-0.96c1.07-0.17,1.87,0.22,2.88,0c0.7-0.15,1.12-0.84,1.68-0.96c1.26-0.26,3.08,0.43,4.08-0.24
			c0.27-0.18,0.15-0.61,0.48-0.72c0.98-0.34,2.55,0.03,3.36-0.24c0.56-0.18,0.87-0.85,1.44-0.96c1.08-0.21,2.3,0.2,3.36,0
			c0.39-0.07,0.83-0.58,1.2-0.72c1.1-0.42,1.96-0.18,3.12-0.24c1.01,0.37-0.05-1.33,0.96-0.96c1.28,0,2.56,0,3.84,0
			c0.42-1.9,4.62-0.02,5.04-1.92c1.12,0,2.24,0,3.36,0c1.43-1.37,4.88-0.72,6.24-2.16c3.44,0.64,4.2-1.4,7.44-0.96
			c1.01,0.37-0.05-1.33,0.96-0.96c1.36,0,2.72,0,4.08,0c0.94,0.38,0.08-1.04,0.72-0.96c1.77,0.01,3.81,0.29,4.32-0.96
			c1.04,0,2.08,0,3.12,0c1.44-1.36,4.9-0.7,6.24-2.16c3.53,0.65,4.4-1.36,7.68-0.96c1.01,0.37-0.05-1.33,0.96-0.96
			c1.28,0,2.56,0,3.84,0c0.42-1.9,4.62-0.02,5.04-1.92c1.12,0,2.24,0,3.36,0c1.43-1.37,4.88-0.72,6.24-2.16
			c3.44,0.64,4.2-1.4,7.44-0.96c0.94,0.38,0.08-1.04,0.72-0.96c1.44,0,2.88,0,4.32,0c0.94,0.38,0.08-1.04,0.72-0.96
			c1.77,0.01,3.81,0.29,4.32-0.96c1.04,0,2.08,0,3.12,0c1.44-1.36,4.9-0.7,6.24-2.16c3.73,0.61,4.73-1.51,8.4-0.96
			c0.94,0.38,0.08-1.04,0.72-0.96c1.47-0.21,4.01,0.65,4.08-0.96c1.2-0.16,3.03,0.31,3.84-0.24c-0.02-0.34-0.04-0.68,0.24-0.72
			c11.92,0,23.84,0,35.76,0c0,16,0,32,0,48C277.53,48.25,330.89,48.25,384.25,48.25z M352.09,304.09c0-74.64,0-149.28,0-223.92
			c-42.56,0-85.12,0-127.68,0c-0.28,0.04-0.26,0.38-0.24,0.72c0,5.12,0,10.24,0,15.36c10.56,0.16,21.76-0.32,31.92,0.24
			c-0.16,10.48,0.32,21.6-0.24,31.68c-10.56,0-21.12,0-31.68,0c0,5.36,0,10.72,0,16.08c10.56,0.16,21.76-0.32,31.92,0.24
			c0,10.56,0,21.12,0,31.68c-10.64,0-21.28,0-31.92,0c0,5.36,0,10.72,0,16.08c10.64,0,21.28,0,31.92,0
			c-0.16,10.56,0.32,21.76-0.24,31.92c-10.56,0-21.12,0-31.68,0c0,5.36,0,10.72,0,16.08c10.64,0,21.28,0,31.92,0
			c-0.16,10.56,0.32,21.76-0.24,31.92c-10.56,0-21.12,0-31.68,0c0,10.64,0,21.28,0,31.92C266.81,304.09,309.45,304.09,352.09,304.09
			z M192.25,351.13c0-106,0-212,0-318c-1.91,0.17-4.7-0.54-5.28,0.96c-2.21-0.57-3.33,0.64-4.32,0.96
			c-1.39,0.44-3.43-0.04-4.08,0.24c-0.55,0.24-0.38,0.83-0.96,0.96c-0.99,0.22-2.14-0.2-3.12,0c-0.29,0.06-0.42,0.55-0.96,0.72
			c-1.23,0.38-2.54,0.21-4.08,0.24c0.06,1.93-2.92,0.41-4.08,0.96c-0.73,0.35,0.5,1.02-0.72,0.96c-2,0-4.25-0.25-5.04,0.96
			c-2.5-0.58-3.69,0.6-4.8,0.96c-1.03,0.33-2.58-0.04-3.36,0.24c-0.62,0.22-0.73,0.83-1.44,0.96c-1.05,0.19-2.25-0.14-3.6,0
			c0.06,1.93-2.92,0.41-4.08,0.96c-0.73,0.35,0.5,1.02-0.72,0.96c-1.36,0-2.72,0-4.08,0c-0.64-0.08,0.22,1.34-0.72,0.96
			c-1.77-0.01-3.81-0.29-4.32,0.96c-1.12,0-2.24,0-3.36,0c-1.17,1.71-5.31,0.45-6.48,2.16c-3.54-0.5-4.49,1.59-8.16,0.96
			c0.06,1.93-2.92,0.41-4.08,0.96c-0.73,0.35,0.5,1.02-0.72,0.96c-3.67-0.63-4.62,1.46-8.16,0.96c-0.76-0.12-0.09,1.19-0.96,0.96
			c-3.63-0.51-4.57,1.67-8.16,1.2c-0.14,0.66-0.85,0.75-1.44,0.96c-1.2,0-2.4,0-3.6,0c-0.18,1.74-3.17,0.67-4.8,0.96
			c-0.64-0.08,0.22,1.34-0.72,0.96c-1.78-0.1-3.42-0.06-4.08,0.96c-1.32,0.15-2.52-0.21-3.6,0c-0.43,0.08-0.88,0.78-1.44,0.96
			c-1.07,0.34-2.55-0.05-3.36,0.24c-0.6,0.21-0.77,0.84-1.44,0.96c-0.99,0.18-2.15-0.13-3.36,0c-0.67,1.09-2.49,1.03-4.32,0.96
			c-0.64-0.08,0.22,1.34-0.72,0.96c-1.36,0-2.72,0-4.08,0c-0.64-0.08,0.22,1.34-0.72,0.96c-1.2,0-2.4,0-3.6,0
			c-0.86,0.82-2.17,1.19-4.08,0.96c-1.12,1.04-3.05,1.27-5.28,1.2c-0.9-0.18-0.17,1.27-1.2,0.96c-2.02-0.18-3.66,0.02-4.56,0.96
			c-1.28,0-2.56,0-3.84,0c0,83.28,0,166.56,0,249.84c2.12,0.12,4.55-0.07,5.52,1.2c3.54-0.5,4.49,1.59,8.16,0.96
			c0.64-0.08-0.22,1.34,0.72,0.96c1.69-0.01,3.67-0.31,4.08,0.96c2,0,4.25-0.25,5.04,0.96c2.41-0.62,3.87,0.66,4.8,0.96
			c0.87,0.28,2.35-0.13,3.36,0.24c0.6,0.22,0.68,0.86,1.2,0.96c1.18,0.22,2.39-0.16,3.84,0c0.16,1.52,2.55,0.8,4.08,0.96
			c0.64-0.08-0.22,1.34,0.72,0.96c1.44,0,2.88,0,4.32,0c0.64-0.08-0.22,1.34,0.72,0.96c1.97-0.21,3.47,0.05,4.32,0.96
			c2.35-0.6,3.65,0.67,4.56,0.96c0.87,0.28,2.35-0.13,3.36,0.24c0.64,0.24,0.68,0.86,1.2,0.96c1.19,0.229,2.37-0.17,3.84,0
			c0.5,1.42,3,0.84,4.8,0.96c0.64-0.08-0.22,1.34,0.72,0.96c1.69-0.01,3.67-0.31,4.08,0.96c3.67-0.63,4.62,1.46,8.16,0.96
			c0.76-0.04,0.1,1.34,1.2,0.96c3.55-0.43,4.5,1.74,8.16,1.2c0.21,0.43,0.53,0.75,0.96,0.96c1.28,0,2.56,0,3.84,0
			c0.64-0.08-0.22,1.34,0.72,0.96c1.36,0,2.72,0,4.08,0c0.64-0.08-0.22,1.34,0.72,0.96c1.84-0.08,3.59-0.07,4.32,0.96
			c1.12,0,2.24,0,3.36,0c1.22,1.5,4.79,0.64,6,2.16c3.6-0.64,4.5,1.42,7.92,0.96c0.64-0.08-0.22,1.34,0.72,0.96
			c1.81,0.11,4.34-0.5,4.8,0.96c1.2,0,2.4,0,3.6,0c0.68,0.12,0.87,0.73,1.44,0.96c3.47-0.35,4.53,1.7,8.16,1.2
			c0.49,0.149,0.07,1.21,0.96,0.96c3.54-0.5,4.49,1.59,8.16,0.96c0.64-0.08-0.22,1.34,0.72,0.96c1.12,0,2.24,0,3.36,0
			C187.22,351.87,191.22,350.99,192.25,351.13z"/>
		<path fill="#FFFFFF" d="M352.09,80.17c0,74.64,0,149.28,0,223.92c-42.64,0-85.28,0-127.92,0c0-10.64,0-21.28,0-31.92
			c10.56,0,21.12,0,31.68,0c0.561-10.16,0.08-21.36,0.24-31.92c-10.64,0-21.28,0-31.92,0c0-5.36,0-10.72,0-16.08
			c10.56,0,21.12,0,31.68,0c0.561-10.16,0.08-21.36,0.24-31.92c-10.64,0-21.28,0-31.92,0c0-5.36,0-10.72,0-16.08
			c10.64,0,21.28,0,31.92,0c0-10.56,0-21.12,0-31.68c-10.16-0.56-21.36-0.08-31.92-0.24c0-5.36,0-10.72,0-16.08
			c10.56,0,21.12,0,31.68,0c0.561-10.08,0.08-21.2,0.24-31.68c-10.16-0.56-21.36-0.08-31.92-0.24c0-5.12,0-10.24,0-15.36
			c-0.02-0.34-0.04-0.68,0.24-0.72C266.97,80.17,309.53,80.17,352.09,80.17z M336.25,272.17c0-10.64,0-21.28,0-31.92
			c-21.28,0-42.561,0-63.84,0c-0.28,0.04-0.26,0.38-0.24,0.72c0,10.4,0,20.8,0,31.2C293.53,272.17,314.89,272.17,336.25,272.17z
			 M336.25,224.17c0-10.64,0-21.28,0-31.92c-21.28,0-42.561,0-63.84,0c-0.28,0.04-0.26,0.38-0.24,0.72c0,10.4,0,20.8,0,31.2
			C293.53,224.17,314.89,224.17,336.25,224.17z M336.25,176.17c0-10.64,0-21.28,0-31.92c-21.28,0-42.561,0-63.84,0
			c-0.28,0.04-0.26,0.38-0.24,0.72c0,10.4,0,20.8,0,31.2C293.53,176.17,314.89,176.17,336.25,176.17z M336.25,128.17
			c0-10.64,0-21.28,0-31.92c-21.28,0-42.561,0-63.84,0c-0.28,0.04-0.26,0.38-0.24,0.72c0,10.4,0,20.8,0,31.2
			C293.53,128.17,314.89,128.17,336.25,128.17z"/>
		<path d="M336.25,240.25c0,10.64,0,21.28,0,31.92c-21.36,0-42.72,0-64.08,0c0-10.4,0-20.8,0-31.2c-0.02-0.34-0.04-0.68,0.24-0.72
			C293.689,240.25,314.97,240.25,336.25,240.25z"/>
		<path d="M336.25,192.25c0,10.64,0,21.28,0,31.92c-21.36,0-42.72,0-64.08,0c0-10.4,0-20.8,0-31.2c-0.02-0.34-0.04-0.68,0.24-0.72
			C293.689,192.25,314.97,192.25,336.25,192.25z"/>
		<path d="M336.25,144.25c0,10.64,0,21.28,0,31.92c-21.36,0-42.72,0-64.08,0c0-10.4,0-20.8,0-31.2c-0.02-0.34-0.04-0.68,0.24-0.72
			C293.689,144.25,314.97,144.25,336.25,144.25z"/>
		<path d="M336.25,96.25c0,10.64,0,21.28,0,31.92c-21.36,0-42.72,0-64.08,0c0-10.4,0-20.8,0-31.2c-0.02-0.34-0.04-0.68,0.24-0.72
			C293.689,96.25,314.97,96.25,336.25,96.25z"/>
		<path fill="#FFFFFF" d="M192.25,33.13c0,106,0,212,0,318c-1.03-0.14-5.03,0.74-5.28-0.96c-1.12,0-2.24,0-3.36,0
			c-0.94,0.38-0.08-1.04-0.72-0.96c-3.67,0.63-4.62-1.46-8.16-0.96c-0.89,0.25-0.47-0.811-0.96-0.96c-3.63,0.5-4.69-1.55-8.16-1.2
			c-0.57-0.229-0.76-0.84-1.44-0.96c-1.2,0-2.4,0-3.6,0c-0.46-1.46-2.99-0.85-4.8-0.96c-0.94,0.38-0.08-1.04-0.72-0.96
			c-3.42,0.46-4.32-1.6-7.92-0.96c-1.21-1.521-4.78-0.66-6-2.16c-1.12,0-2.24,0-3.36,0c-0.73-1.03-2.48-1.04-4.32-0.96
			c-0.94,0.38-0.08-1.04-0.72-0.96c-1.36,0-2.72,0-4.08,0c-0.94,0.38-0.08-1.04-0.72-0.96c-1.28,0-2.56,0-3.84,0
			c-0.43-0.21-0.75-0.53-0.96-0.96c-3.66,0.54-4.61-1.63-8.16-1.2c-1.1,0.38-0.44-1-1.2-0.96c-3.54,0.5-4.49-1.59-8.16-0.96
			c-0.41-1.27-2.39-0.97-4.08-0.96c-0.94,0.38-0.08-1.04-0.72-0.96c-1.8-0.12-4.3,0.46-4.8-0.96c-1.47-0.17-2.65,0.229-3.84,0
			c-0.52-0.1-0.56-0.72-1.2-0.96c-1.01-0.37-2.49,0.04-3.36-0.24c-0.91-0.29-2.21-1.56-4.56-0.96c-0.85-0.91-2.35-1.17-4.32-0.96
			c-0.94,0.38-0.08-1.04-0.72-0.96c-1.44,0-2.88,0-4.32,0c-0.94,0.38-0.08-1.04-0.72-0.96c-1.53-0.16-3.92,0.56-4.08-0.96
			c-1.45-0.16-2.66,0.22-3.84,0c-0.52-0.1-0.6-0.74-1.2-0.96c-1.01-0.37-2.49,0.04-3.36-0.24c-0.93-0.3-2.39-1.58-4.8-0.96
			c-0.79-1.21-3.04-0.96-5.04-0.96c-0.41-1.27-2.39-0.97-4.08-0.96c-0.94,0.38-0.08-1.04-0.72-0.96c-3.67,0.63-4.62-1.46-8.16-0.96
			c-0.97-1.271-3.4-1.08-5.52-1.2c0-83.28,0-166.56,0-249.84c1.28,0,2.56,0,3.84,0c0.9-0.94,2.54-1.14,4.56-0.96
			c1.03,0.31,0.3-1.14,1.2-0.96c2.23,0.07,4.16-0.16,5.28-1.2c1.91,0.23,3.22-0.14,4.08-0.96c1.2,0,2.4,0,3.6,0
			c0.94,0.38,0.08-1.04,0.72-0.96c1.36,0,2.72,0,4.08,0c0.94,0.38,0.08-1.04,0.72-0.96c1.83,0.07,3.65,0.13,4.32-0.96
			c1.21-0.13,2.37,0.18,3.36,0c0.67-0.12,0.84-0.75,1.44-0.96c0.81-0.29,2.29,0.1,3.36-0.24c0.56-0.18,1.01-0.88,1.44-0.96
			c1.08-0.21,2.28,0.15,3.6,0c0.66-1.02,2.3-1.06,4.08-0.96c0.94,0.38,0.08-1.04,0.72-0.96c1.63-0.29,4.62,0.78,4.8-0.96
			c1.2,0,2.4,0,3.6,0c0.59-0.21,1.3-0.3,1.44-0.96c3.59,0.47,4.53-1.71,8.16-1.2c0.87,0.23,0.2-1.08,0.96-0.96
			c3.54,0.5,4.49-1.59,8.16-0.96c1.22,0.06-0.01-0.61,0.72-0.96c1.16-0.55,4.14,0.97,4.08-0.96c3.67,0.63,4.62-1.46,8.16-0.96
			c1.17-1.71,5.31-0.45,6.48-2.16c1.12,0,2.24,0,3.36,0c0.51-1.25,2.55-0.97,4.32-0.96c0.94,0.38,0.08-1.04,0.72-0.96
			c1.36,0,2.72,0,4.08,0c1.22,0.06-0.01-0.61,0.72-0.96c1.16-0.55,4.14,0.97,4.08-0.96c1.35-0.14,2.55,0.19,3.6,0
			c0.71-0.13,0.82-0.74,1.44-0.96c0.78-0.28,2.33,0.09,3.36-0.24c1.11-0.36,2.3-1.54,4.8-0.96c0.79-1.21,3.04-0.96,5.04-0.96
			c1.22,0.06-0.01-0.61,0.72-0.96c1.16-0.55,4.14,0.97,4.08-0.96c1.54-0.03,2.85,0.14,4.08-0.24c0.54-0.17,0.67-0.66,0.96-0.72
			c0.98-0.2,2.13,0.22,3.12,0c0.58-0.13,0.41-0.72,0.96-0.96c0.65-0.28,2.69,0.2,4.08-0.24c0.99-0.32,2.11-1.53,4.32-0.96
			C187.55,32.59,190.34,33.3,192.25,33.13z M163.21,272.17c0-0.64,0-1.28,0-1.92c-1.4,0.439-0.87-1.05-0.96-1.92
			c-1.02-0.101-1.19-1.05-1.2-2.16c-1.4,0.44-0.87-1.05-0.96-1.92c-1.4,0.439-0.87-1.05-0.96-1.92c-1.47,0.35-0.65-1.59-1.92-1.44
			c0-0.56,0-1.12,0-1.68c-0.92-0.04-1.13-0.79-0.96-1.92c-1.02-0.101-1.19-1.05-1.2-2.16c-1.4,0.44-0.87-1.05-0.96-1.92
			c-1.25,0.29-0.93-0.99-0.96-1.92c-1.49,0.45-0.82-1.26-0.96-2.16c-0.36-0.04-0.89,0.09-0.96-0.24c-0.68-3.56-3.51-4.97-4.08-8.64
			c-1.49,0.45-0.82-1.26-0.96-2.16c-1.4,0.44-0.87-1.05-0.96-1.92c-1.4,0.44-0.87-1.05-0.96-1.92c-1.39,0.27-1.07-1.17-1.2-2.16
			c-1.4,0.44-0.87-1.05-0.96-1.92c-1.4,0.44-0.87-1.05-0.96-1.92c-1.47,0.35-0.65-1.59-1.92-1.44c0-0.56,0-1.12,0-1.68
			c-1.4,0.44-0.87-1.05-0.96-1.92c-0.98-0.14-1.31-0.93-1.2-2.16c-1.4,0.44-0.87-1.05-0.96-1.92c-1.4,0.44-0.87-1.05-0.96-1.92
			c-1.4,0.44-0.87-1.05-0.96-1.92c-0.36-0.04-0.89,0.09-0.96-0.24c-0.12-2.52-2.04-3.24-2.16-5.76c-1.39-0.29-1.73-1.63-1.92-3.12
			c-1.4,0.44-0.87-1.05-0.96-1.92c-1.49,0.45-0.82-1.26-0.96-2.16c-1.4,0.44-0.87-1.05-0.96-1.92c-1.75,0.31-0.57-2.31-2.16-2.16
			c0-0.64,0-1.28,0-1.92c-1.4,0.44-0.87-1.05-0.96-1.92c-1.81,0.45-0.25-2.47-1.92-2.16c0-0.32,0-0.64,0-0.96
			c1.4,0.44,0.87-1.05,0.96-1.92c0.32,0,0.64,0,0.96,0c0-0.64,0-1.28,0-1.92c0.32,0,0.64,0,0.96,0c0-0.64,0-1.28,0-1.92
			c1.02-0.1,1.19-1.05,1.2-2.16c0.32,0,0.64,0,0.96,0c0-0.64,0-1.28,0-1.92c1.25,0.29,0.93-0.99,0.96-1.92c0.32,0,0.64,0,0.96,0
			c0-0.72,0-1.44,0-2.16c0.32,0,0.64,0,0.96,0c0.18-0.78-0.14-2.06,0.96-1.92c0.13-3.31,3-3.88,3.12-7.2c0.32,0,0.64,0,0.96,0
			c0-0.64,0-1.28,0-1.92c0.32,0,0.64,0,0.96,0c0-0.64,0-1.28,0-1.92c0.32,0,0.64,0,0.96,0c0-0.64,0-1.28,0-1.92
			c0.32,0,0.64,0,0.96,0c-0.19-0.99,0.37-1.23,0.24-2.16c0.32,0,0.64,0,0.96,0c0-0.64,0-1.28,0-1.92c0.32,0,0.64,0,0.96,0
			c0-0.64,0-1.28,0-1.92c0.32,0,0.64,0,0.96,0c0-0.72,0-1.44,0-2.16c0.32,0,0.64,0,0.96,0c0.18-0.78-0.14-2.06,0.96-1.92
			c0.26-1.82,0.91-3.25,2.16-4.08c0-0.64,0-1.28,0-1.92c1.64,0.6,0.28-1.8,1.92-1.2c0-0.64,0-1.28,0-1.92c0.32,0,0.64,0,0.96,0
			c0-0.64,0-1.28,0-1.92c0.32,0,0.64,0,0.96,0c0-0.64,0-1.28,0-1.92c0.32,0,0.64,0,0.96,0c-0.13-0.93,0.43-1.17,0.24-2.16
			c0.32,0,0.64,0,0.96,0c0-0.64,0-1.28,0-1.92c0.32,0,0.64,0,0.96,0c0-0.64,0-1.28,0-1.92c0.32,0,0.64,0,0.96,0
			c0-0.64,0-1.28,0-1.92c0.32,0,0.64,0,0.96,0c-0.02-2.74,2.05-3.39,2.16-6c0.32,0,0.64,0,0.96,0c0-0.64,0-1.28,0-1.92
			c1.49,0.45,0.35-1.73,1.92-1.2c0-0.72,0-1.44,0-2.16c0.32,0,0.64,0,0.96,0c0-0.64,0-1.28,0-1.92c0.32,0,0.64,0,0.96,0
			c0-0.64,0-1.28,0-1.92c0.32,0,0.64,0,0.96,0c0.01-1.11,0.18-2.06,1.2-2.16c0-0.64,0-1.28,0-1.92c-4.17,0.23-7.2,1.6-12,1.2
			c-1.04,1.92-5.38,0.54-7.92,0.96c-1.16,1.88-5.52,0.56-8.16,0.96c-0.04,0.36,0.09,0.89-0.24,0.96c-2.56,0-5.12,0-7.68,0
			c-0.26,1.82-0.91,3.25-2.16,4.08c0,0.64,0,1.28,0,1.92c-0.32,0-0.64,0-0.96,0c0,0.64,0,1.28,0,1.92c-0.32,0-0.64,0-0.96,0
			c0,0.72,0,1.44,0,2.16c-0.32,0-0.64,0-0.96,0c0,0.64,0,1.28,0,1.92c-0.32,0-0.64,0-0.96,0c-0.08,0.96,0.39,2.47-0.96,2.16
			c0.59,2.59-1.69,2.31-1.2,4.8c-0.32,0-0.64,0-0.96,0c0,0.64,0,1.28,0,1.92c-0.32,0-0.64,0-0.96,0c0,0.72,0,1.44,0,2.16
			c-0.32,0-0.64,0-0.96,0c0,0.64,0,1.28,0,1.92c-0.32,0-0.64,0-0.96,0c0,0.72,0,1.44,0,2.16c-0.32,0-0.64,0-0.96,0
			c-0.02,1.02-0.4,1.68-0.24,2.88c-0.32,0-0.64,0-0.96,0c0,0.64,0,1.28,0,1.92c-0.32,0-0.64,0-0.96,0c0,0.72,0,1.44,0,2.16
			c-0.32,0-0.64,0-0.96,0c0,0.64,0,1.28,0,1.92c-0.32,0-0.64,0-0.96,0c0,0.64,0,1.28,0,1.92c-0.32,0-0.64,0-0.96,0
			c0,0.72,0,1.44,0,2.16c-0.32,0-0.64,0-0.96,0c0.08,2.08-1.71,2.29-1.2,4.8c-0.42-0.02-0.75,0.05-0.96,0.24c0,0.96,0,1.92,0,2.88
			c-0.32,0-0.64,0-0.96,0c0,0.96,0,1.92,0,2.88c-0.32,0-0.64,0-0.96,0c0,1.04,0,2.08,0,3.12c-0.32,0-0.64,0-0.96,0
			c-0.23,1.05,0.59,3.15-0.72,3.12c-0.65-1.59-1.87-2.61-1.44-5.28c-1.48-0.11-0.77-2.43-0.96-3.84c-1.7,0.42-0.69-1.87-0.96-2.88
			c-0.36-0.04-0.89,0.09-0.96-0.24c0.02-1.38,0.07-2.79-0.96-3.12c0.58-3.3-1.67-3.77-1.2-6.96c-1.57-0.03-0.74-2.46-0.96-3.84
			c-1.48-0.12-0.77-2.43-0.96-3.84c-1.75,0.39-0.66-2.06-0.96-3.12c-0.36-0.04-0.89,0.09-0.96-0.24c-0.06-1.62,0.31-3.67-0.96-4.08
			c0.29-4.61-2.59-6.05-2.16-10.8c-1.1,0.14-0.89-1.03-0.96-1.92c-4.25,0.48-8.18,1.26-12.96,1.2c-0.04,0.28,0.04,0.68-0.24,0.72
			c-2.81-0.17-4.87,0.41-7.68,0.24c-0.04,0.28,0.04,0.68-0.24,0.72c-2.66,0.3-5.66,0.26-8.64,0.24c-0.45,1.63-3.46,0.7-5.28,0.96
			c0,0.96,0,1.92,0,2.88c0.36,0.04,0.89-0.09,0.96,0.24c-0.08,2.08,1.71,2.29,1.2,4.8c1.4-0.44,0.87,1.05,0.96,1.92
			c1.49-0.45,0.82,1.26,0.96,2.16c0.36,0.04,0.89-0.09,0.96,0.24c-0.2,1.24,0.11,1.97,0.96,2.16c-0.43,2.35,1.45,2.39,1.2,4.56
			c0.36,0.04,0.89-0.09,0.96,0.24c-0.37,1.97,1.35,1.85,0.96,3.84c1.7-0.42,0.69,1.87,0.96,2.88c1.4-0.44,0.87,1.05,0.96,1.92
			c1.49-0.45,0.82,1.26,0.96,2.16c0.36,0.04,0.89-0.09,0.96,0.24c-0.08,2,1.69,2.15,1.2,4.56c1.35-0.31,0.88,1.2,0.96,2.16
			c1.4-0.44,0.87,1.05,0.96,1.92c1.49-0.45,0.82,1.26,0.96,2.16c0.36,0.04,0.89-0.09,0.96,0.24c-0.36,3.32,2.33,3.59,2.16,6.72
			c1.14-0.1,0.82,1.26,0.96,2.16c1.64-0.44,0.73,1.67,0.96,2.64c1.49-0.45,0.82,1.26,0.96,2.16c1.4-0.44,0.87,1.05,0.96,1.92
			c0.36,0.04,0.89-0.09,0.96,0.24c-0.08,2.08,1.71,2.29,1.2,4.8c1.81-0.45,0.25,2.47,1.92,2.16c0,0.64,0,1.28,0,1.92
			c-1.4-0.44-0.87,1.05-0.96,1.92c-0.32,0-0.64,0-0.96,0c0,0.64,0,1.28,0,1.92c-1.02,0.101-1.19,1.05-1.2,2.16
			c-0.32,0-0.64,0-0.96,0c0,0.64,0,1.28,0,1.92c-1.35-0.31-0.88,1.2-0.96,2.16c-0.32,0-0.64,0-0.96,0c0,0.64,0,1.28,0,1.92
			c-0.32,0-0.64,0-0.96,0c0,0.64,0,1.28,0,1.92c-0.32,0-0.64,0-0.96,0c0,0.64,0,1.28,0,1.92c-1.02,0.101-1.19,1.05-1.2,2.16
			c-0.32,0-0.64,0-0.96,0c0,0.64,0,1.28,0,1.92c-1.35-0.31-0.88,1.2-0.96,2.16c-0.32,0-0.64,0-0.96,0c0,0.64,0,1.28,0,1.92
			c-0.32,0-0.64,0-0.96,0c0,0.64,0,1.28,0,1.92c-0.32,0-0.64,0-0.96,0c0,0.64,0,1.28,0,1.92c-1.02,0.101-1.19,1.05-1.2,2.16
			c-0.32,0-0.64,0-0.96,0c0,0.64,0,1.28,0,1.92c-1.35-0.31-0.88,1.2-0.96,2.16c-0.32,0-0.64,0-0.96,0c0,0.64,0,1.28,0,1.92
			c-0.32,0-0.64,0-0.96,0c0,0.64,0,1.28,0,1.92c-0.32,0-0.64,0-0.96,0c0,0.64,0,1.28,0,1.92c-1.02,0.101-1.19,1.05-1.2,2.16
			c-0.32,0-0.64,0-0.96,0c0,0.64,0,1.28,0,1.92c-1.35-0.31-0.88,1.2-0.96,2.16c-0.32,0-0.64,0-0.96,0c0,0.64,0,1.28,0,1.92
			c-0.32,0-0.64,0-0.96,0c0,0.64,0,1.28,0,1.92c-0.32,0-0.64,0-0.96,0c0,0.64,0,1.28,0,1.92c-1.02,0.101-1.19,1.05-1.2,2.16
			c-0.32,0-0.64,0-0.96,0c0,0.64,0,1.28,0,1.92c-1.35-0.31-0.88,1.2-0.96,2.16c-0.32,0-0.64,0-0.96,0c0,0.64,0,1.28,0,1.92
			c-0.32,0-0.64,0-0.96,0c0.54,1.74-0.75,1.65-0.96,2.64c1,0.761,3.97-0.449,4.08,1.2c3.22-0.18,5.71,0.37,8.88,0.24
			c0,0.24,0,0.479,0,0.72c2.78,0.26,5.8,0.28,8.88,0.24c1.16,1.88,5.52,0.56,8.16,0.96c0,0.32,0,0.64,0,0.96c1.6,0,3.2,0,4.8,0
			c-0.1-1.14,0.43-1.65,0.24-2.88c0.42,0.02,0.75-0.05,0.96-0.24c0-0.96,0-1.92,0-2.88c0.32,0,0.64,0,0.96,0c0-0.72,0-1.44,0-2.16
			c0.32,0,0.64,0,0.96,0c0-0.96,0-1.92,0-2.88c0.32,0,0.64,0,0.96,0c0-0.96,0-1.92,0-2.88c0.32,0,0.64,0,0.96,0
			c-0.55-2.95,1.66-3.14,1.2-6c0.32,0,0.64,0,0.96,0c0-0.96,0-1.92,0-2.88c1.43,0.31,0.84-1.4,0.96-2.4c0.32,0,0.64,0,0.96,0
			c0-0.96,0-1.92,0-2.88c0.32,0,0.64,0,0.96,0c0-0.96,0-1.92,0-2.88c0.32,0,0.64,0,0.96,0c-0.55-2.95,1.66-3.14,1.2-6
			c0.32,0,0.64,0,0.96,0c0-0.96,0-1.92,0-2.88c0.42,0.02,0.75-0.05,0.96-0.24c0-0.96,0-1.92,0-2.88c0.32,0,0.64,0,0.96,0
			c0-0.96,0-1.92,0-2.88c0.32,0,0.64,0,0.96,0c-0.22-2.46,0.79-3.69,1.68-5.04c0.37,1.47,0.4,3.28,0.48,5.04
			c1.64,0.28,0.7,3.14,0.96,4.8c1.49-0.45,0.82,1.26,0.96,2.16c1.4-0.44,0.87,1.05,0.96,1.92c0.36,0.04,0.89-0.09,0.96,0.24
			c-0.2,1.239,0.11,1.97,0.96,2.16c-0.48,2.399,1.53,2.31,1.2,4.56c1.4-0.44,0.87,1.05,0.96,1.92c1.35-0.31,0.88,1.2,0.96,2.16
			c1.4-0.44,0.87,1.05,0.96,1.92c0.36,0.04,0.89-0.09,0.96,0.24c-0.01,4.01,2.86,5.14,3.12,8.88c1.47-0.12,0.41,2.31,1.92,2.16
			c0,0.88,0,1.76,0,2.64c0.36,0.04,0.89-0.09,0.96,0.24c-0.17,1.77,1.52,1.68,0.96,3.84c0.36,0.04,0.89-0.09,0.96,0.24
			c-0.18,1.859,1.78,1.58,1.2,3.84c1.47-0.12,0.41,2.31,1.92,2.16c0,0.88,0,1.76,0,2.64c0.36,0.04,0.89-0.09,0.96,0.24
			c-0.26,1.86,1.43,1.77,0.96,3.84c1.48,0.2,3.93-0.57,4.08,0.96c2.54,0.42,6.88-0.96,7.92,0.96c2.97-0.17,5.19,0.41,8.16,0.24
			c0,0.24,0,0.479,0,0.72c2.52,0.2,5.13,0.311,7.92,0.24c1.09,1.87,5.35,0.57,7.92,0.96c0,0.32,0,0.64,0,0.96
			C161.13,272.17,162.17,272.17,163.21,272.17z"/>
		<path d="M163.21,270.25c0,0.64,0,1.28,0,1.92c-1.04,0-2.08,0-3.12,0c0-0.32,0-0.64,0-0.96c-2.57-0.39-6.83,0.91-7.92-0.96
			c-2.79,0.07-5.4-0.04-7.92-0.24c0-0.24,0-0.479,0-0.72c-2.97,0.17-5.19-0.41-8.16-0.24c-1.04-1.92-5.38-0.54-7.92-0.96
			c-0.15-1.53-2.6-0.76-4.08-0.96c0.47-2.07-1.22-1.979-0.96-3.84c-0.07-0.33-0.6-0.2-0.96-0.24c0-0.88,0-1.76,0-2.64
			c-1.51,0.149-0.45-2.28-1.92-2.16c0.58-2.26-1.38-1.98-1.2-3.84c-0.07-0.33-0.6-0.2-0.96-0.24c0.56-2.16-1.13-2.07-0.96-3.84
			c-0.07-0.33-0.6-0.2-0.96-0.24c0-0.88,0-1.76,0-2.64c-1.51,0.149-0.45-2.28-1.92-2.16c-0.26-3.74-3.13-4.87-3.12-8.88
			c-0.07-0.33-0.6-0.2-0.96-0.24c-0.09-0.87,0.44-2.36-0.96-1.92c-0.08-0.96,0.39-2.47-0.96-2.16c-0.09-0.87,0.44-2.36-0.96-1.92
			c0.33-2.25-1.68-2.16-1.2-4.56c-0.85-0.19-1.16-0.921-0.96-2.16c-0.07-0.33-0.6-0.2-0.96-0.24c-0.09-0.87,0.44-2.36-0.96-1.92
			c-0.14-0.9,0.53-2.61-0.96-2.16c-0.26-1.66,0.68-4.52-0.96-4.8c-0.08-1.76-0.11-3.57-0.48-5.04c-0.89,1.35-1.9,2.58-1.68,5.04
			c-0.32,0-0.64,0-0.96,0c0,0.96,0,1.92,0,2.88c-0.32,0-0.64,0-0.96,0c0,0.96,0,1.92,0,2.88c-0.21,0.19-0.54,0.26-0.96,0.24
			c0,0.96,0,1.92,0,2.88c-0.32,0-0.64,0-0.96,0c0.46,2.86-1.75,3.05-1.2,6c-0.32,0-0.64,0-0.96,0c0,0.96,0,1.92,0,2.88
			c-0.32,0-0.64,0-0.96,0c0,0.96,0,1.92,0,2.88c-0.32,0-0.64,0-0.96,0c-0.12,1,0.47,2.71-0.96,2.4c0,0.96,0,1.92,0,2.88
			c-0.32,0-0.64,0-0.96,0c0.46,2.86-1.75,3.05-1.2,6c-0.32,0-0.64,0-0.96,0c0,0.96,0,1.92,0,2.88c-0.32,0-0.64,0-0.96,0
			c0,0.96,0,1.92,0,2.88c-0.32,0-0.64,0-0.96,0c0,0.72,0,1.44,0,2.16c-0.32,0-0.64,0-0.96,0c0,0.96,0,1.92,0,2.88
			c-0.21,0.19-0.54,0.26-0.96,0.24c0.19,1.229-0.34,1.74-0.24,2.88c-1.6,0-3.2,0-4.8,0c0-0.32,0-0.64,0-0.96
			c-2.64-0.4-7,0.92-8.16-0.96c-3.08,0.04-6.1,0.02-8.88-0.24c0-0.24,0-0.479,0-0.72c-3.17,0.13-5.66-0.42-8.88-0.24
			c-0.11-1.649-3.08-0.439-4.08-1.2c0.21-0.989,1.5-0.899,0.96-2.64c0.32,0,0.64,0,0.96,0c0-0.64,0-1.28,0-1.92
			c0.32,0,0.64,0,0.96,0c0.08-0.96-0.39-2.47,0.96-2.16c0-0.64,0-1.28,0-1.92c0.32,0,0.64,0,0.96,0c0.01-1.11,0.18-2.06,1.2-2.16
			c0-0.64,0-1.28,0-1.92c0.32,0,0.64,0,0.96,0c0-0.64,0-1.28,0-1.92c0.32,0,0.64,0,0.96,0c0-0.64,0-1.28,0-1.92
			c0.32,0,0.64,0,0.96,0c0.08-0.96-0.39-2.47,0.96-2.16c0-0.64,0-1.28,0-1.92c0.32,0,0.64,0,0.96,0c0.01-1.11,0.18-2.06,1.2-2.16
			c0-0.64,0-1.28,0-1.92c0.32,0,0.64,0,0.96,0c0-0.64,0-1.28,0-1.92c0.32,0,0.64,0,0.96,0c0-0.64,0-1.28,0-1.92
			c0.32,0,0.64,0,0.96,0c0.08-0.96-0.39-2.47,0.96-2.16c0-0.64,0-1.28,0-1.92c0.32,0,0.64,0,0.96,0c0.01-1.11,0.18-2.06,1.2-2.16
			c0-0.64,0-1.28,0-1.92c0.32,0,0.64,0,0.96,0c0-0.64,0-1.28,0-1.92c0.32,0,0.64,0,0.96,0c0-0.64,0-1.28,0-1.92
			c0.32,0,0.64,0,0.96,0c0.08-0.96-0.39-2.47,0.96-2.16c0-0.64,0-1.28,0-1.92c0.32,0,0.64,0,0.96,0c0.01-1.11,0.18-2.06,1.2-2.16
			c0-0.64,0-1.28,0-1.92c0.32,0,0.64,0,0.96,0c0-0.64,0-1.28,0-1.92c0.32,0,0.64,0,0.96,0c0-0.64,0-1.28,0-1.92
			c0.32,0,0.64,0,0.96,0c0.08-0.96-0.39-2.47,0.96-2.16c0-0.64,0-1.28,0-1.92c0.32,0,0.64,0,0.96,0c0.01-1.11,0.18-2.06,1.2-2.16
			c0-0.64,0-1.28,0-1.92c0.32,0,0.64,0,0.96,0c0.09-0.87-0.44-2.36,0.96-1.92c0-0.64,0-1.28,0-1.92c-1.67,0.31-0.11-2.61-1.92-2.16
			c0.51-2.51-1.28-2.72-1.2-4.8c-0.07-0.33-0.6-0.2-0.96-0.24c-0.09-0.87,0.44-2.36-0.96-1.92c-0.14-0.9,0.53-2.61-0.96-2.16
			c-0.23-0.97,0.68-3.08-0.96-2.64c-0.14-0.9,0.18-2.26-0.96-2.16c0.17-3.13-2.52-3.4-2.16-6.72c-0.07-0.33-0.6-0.2-0.96-0.24
			c-0.14-0.9,0.53-2.61-0.96-2.16c-0.09-0.87,0.44-2.36-0.96-1.92c-0.08-0.96,0.39-2.47-0.96-2.16c0.49-2.41-1.28-2.56-1.2-4.56
			c-0.07-0.33-0.6-0.2-0.96-0.24c-0.14-0.9,0.53-2.61-0.96-2.16c-0.09-0.87,0.44-2.36-0.96-1.92c-0.27-1.01,0.74-3.3-0.96-2.88
			c0.39-1.99-1.33-1.87-0.96-3.84c-0.07-0.33-0.6-0.2-0.96-0.24c0.25-2.17-1.63-2.21-1.2-4.56c-0.85-0.19-1.16-0.92-0.96-2.16
			c-0.07-0.33-0.6-0.2-0.96-0.24c-0.14-0.9,0.53-2.61-0.96-2.16c-0.09-0.87,0.44-2.36-0.96-1.92c0.51-2.51-1.28-2.72-1.2-4.8
			c-0.07-0.33-0.6-0.2-0.96-0.24c0-0.96,0-1.92,0-2.88c1.82-0.26,4.83,0.67,5.28-0.96c2.98,0.02,5.98,0.06,8.64-0.24
			c0.28-0.04,0.2-0.44,0.24-0.72c2.81,0.17,4.87-0.41,7.68-0.24c0.28-0.04,0.2-0.44,0.24-0.72c4.78,0.06,8.71-0.72,12.96-1.2
			c0.07,0.89-0.14,2.06,0.96,1.92c-0.43,4.75,2.45,6.19,2.16,10.8c1.27,0.41,0.9,2.46,0.96,4.08c0.07,0.33,0.6,0.2,0.96,0.24
			c0.3,1.06-0.79,3.51,0.96,3.12c0.19,1.41-0.52,3.72,0.96,3.84c0.22,1.38-0.61,3.81,0.96,3.84c-0.47,3.19,1.78,3.66,1.2,6.96
			c1.03,0.33,0.98,1.74,0.96,3.12c0.07,0.33,0.6,0.2,0.96,0.24c0.27,1.01-0.74,3.3,0.96,2.88c0.19,1.41-0.52,3.73,0.96,3.84
			c-0.43,2.67,0.79,3.69,1.44,5.28c1.31,0.03,0.49-2.07,0.72-3.12c0.32,0,0.64,0,0.96,0c0-1.04,0-2.08,0-3.12c0.32,0,0.64,0,0.96,0
			c0-0.96,0-1.92,0-2.88c0.32,0,0.64,0,0.96,0c0-0.96,0-1.92,0-2.88c0.21-0.19,0.54-0.26,0.96-0.24c-0.51-2.51,1.28-2.72,1.2-4.8
			c0.32,0,0.64,0,0.96,0c0-0.72,0-1.44,0-2.16c0.32,0,0.64,0,0.96,0c0-0.64,0-1.28,0-1.92c0.32,0,0.64,0,0.96,0
			c0-0.64,0-1.28,0-1.92c0.32,0,0.64,0,0.96,0c0-0.72,0-1.44,0-2.16c0.32,0,0.64,0,0.96,0c0-0.64,0-1.28,0-1.92
			c0.32,0,0.64,0,0.96,0c-0.16-1.2,0.22-1.86,0.24-2.88c0.32,0,0.64,0,0.96,0c0-0.72,0-1.44,0-2.16c0.32,0,0.64,0,0.96,0
			c0-0.64,0-1.28,0-1.92c0.32,0,0.64,0,0.96,0c0-0.72,0-1.44,0-2.16c0.32,0,0.64,0,0.96,0c0-0.64,0-1.28,0-1.92
			c0.32,0,0.64,0,0.96,0c-0.49-2.49,1.79-2.21,1.2-4.8c1.35,0.31,0.88-1.2,0.96-2.16c0.32,0,0.64,0,0.96,0c0-0.64,0-1.28,0-1.92
			c0.32,0,0.64,0,0.96,0c0-0.72,0-1.44,0-2.16c0.32,0,0.64,0,0.96,0c0-0.64,0-1.28,0-1.92c0.32,0,0.64,0,0.96,0
			c0-0.64,0-1.28,0-1.92c1.25-0.83,1.9-2.26,2.16-4.08c2.56,0,5.12,0,7.68,0c0.33-0.07,0.2-0.6,0.24-0.96c2.64-0.4,7,0.92,8.16-0.96
			c2.54-0.42,6.88,0.96,7.92-0.96c4.8,0.4,7.83-0.97,12-1.2c0,0.64,0,1.28,0,1.92c-1.02,0.1-1.19,1.05-1.2,2.16
			c-0.32,0-0.64,0-0.96,0c0,0.64,0,1.28,0,1.92c-0.32,0-0.64,0-0.96,0c0,0.64,0,1.28,0,1.92c-0.32,0-0.64,0-0.96,0
			c0,0.72,0,1.44,0,2.16c-1.57-0.53-0.43,1.65-1.92,1.2c0,0.64,0,1.28,0,1.92c-0.32,0-0.64,0-0.96,0c-0.11,2.61-2.18,3.26-2.16,6
			c-0.32,0-0.64,0-0.96,0c0,0.64,0,1.28,0,1.92c-0.32,0-0.64,0-0.96,0c0,0.64,0,1.28,0,1.92c-0.32,0-0.64,0-0.96,0
			c0,0.64,0,1.28,0,1.92c-0.32,0-0.64,0-0.96,0c0.19,0.99-0.37,1.23-0.24,2.16c-0.32,0-0.64,0-0.96,0c0,0.64,0,1.28,0,1.92
			c-0.32,0-0.64,0-0.96,0c0,0.64,0,1.28,0,1.92c-0.32,0-0.64,0-0.96,0c0,0.64,0,1.28,0,1.92c-1.64-0.6-0.28,1.8-1.92,1.2
			c0,0.64,0,1.28,0,1.92c-1.25,0.83-1.9,2.26-2.16,4.08c-1.1-0.14-0.78,1.14-0.96,1.92c-0.32,0-0.64,0-0.96,0c0,0.72,0,1.44,0,2.16
			c-0.32,0-0.64,0-0.96,0c0,0.64,0,1.28,0,1.92c-0.32,0-0.64,0-0.96,0c0,0.64,0,1.28,0,1.92c-0.32,0-0.64,0-0.96,0
			c0.13,0.93-0.43,1.17-0.24,2.16c-0.32,0-0.64,0-0.96,0c0,0.64,0,1.28,0,1.92c-0.32,0-0.64,0-0.96,0c0,0.64,0,1.28,0,1.92
			c-0.32,0-0.64,0-0.96,0c0,0.64,0,1.28,0,1.92c-0.32,0-0.64,0-0.96,0c-0.12,3.32-2.99,3.89-3.12,7.2c-1.1-0.14-0.78,1.14-0.96,1.92
			c-0.32,0-0.64,0-0.96,0c0,0.72,0,1.44,0,2.16c-0.32,0-0.64,0-0.96,0c-0.03,0.93,0.29,2.21-0.96,1.92c0,0.64,0,1.28,0,1.92
			c-0.32,0-0.64,0-0.96,0c-0.01,1.11-0.18,2.06-1.2,2.16c0,0.64,0,1.28,0,1.92c-0.32,0-0.64,0-0.96,0c0,0.64,0,1.28,0,1.92
			c-0.32,0-0.64,0-0.96,0c-0.09,0.87,0.44,2.36-0.96,1.92c0,0.32,0,0.64,0,0.96c1.67-0.31,0.11,2.61,1.92,2.16
			c0.09,0.87-0.44,2.36,0.96,1.92c0,0.64,0,1.28,0,1.92c1.59-0.149,0.41,2.47,2.16,2.16c0.09,0.87-0.44,2.36,0.96,1.92
			c0.14,0.9-0.53,2.61,0.96,2.16c0.09,0.87-0.44,2.36,0.96,1.92c0.19,1.49,0.53,2.83,1.92,3.12c0.12,2.52,2.04,3.24,2.16,5.76
			c0.07,0.33,0.6,0.2,0.96,0.24c0.09,0.87-0.44,2.36,0.96,1.92c0.09,0.87-0.44,2.36,0.96,1.92c0.09,0.87-0.44,2.36,0.96,1.92
			c-0.11,1.23,0.22,2.021,1.2,2.16c0.09,0.87-0.44,2.36,0.96,1.92c0,0.56,0,1.12,0,1.68c1.27-0.149,0.45,1.79,1.92,1.44
			c0.09,0.87-0.44,2.36,0.96,1.92c0.09,0.87-0.44,2.36,0.96,1.92c0.13,0.99-0.19,2.43,1.2,2.16c0.09,0.87-0.44,2.36,0.96,1.92
			c0.09,0.87-0.44,2.36,0.96,1.92c0.14,0.9-0.53,2.61,0.96,2.16c0.57,3.67,3.4,5.08,4.08,8.64c0.07,0.33,0.6,0.2,0.96,0.24
			c0.14,0.9-0.53,2.61,0.96,2.16c0.03,0.93-0.29,2.21,0.96,1.92c0.09,0.87-0.44,2.36,0.96,1.92c0.01,1.11,0.18,2.06,1.2,2.16
			c-0.17,1.13,0.04,1.88,0.96,1.92c0,0.56,0,1.12,0,1.68c1.27-0.149,0.45,1.79,1.92,1.44c0.09,0.87-0.44,2.359,0.96,1.92
			c0.09,0.87-0.44,2.36,0.96,1.92c0.01,1.11,0.18,2.06,1.2,2.16C162.34,269.2,161.81,270.689,163.21,270.25z"/>
	</g>
	<g>
	</g>
</g>
</svg>
