<?xml version="1.0" encoding="utf-8"?>
<!-- Generator: Adobe Illustrator 12.0.1, SVG Export Plug-In . SVG Version: 6.00 Build 51448)  -->
<!DOCTYPE svg PUBLIC "-//W3C//DTD SVG 1.1//EN" "http://www.w3.org/Graphics/SVG/1.1/DTD/svg11.dtd" [
	<!ENTITY ns_svg "http://www.w3.org/2000/svg">
	<!ENTITY ns_xlink "http://www.w3.org/1999/xlink">
]>
<svg  version="1.1" id="Ebene_1" xmlns="&ns_svg;" xmlns:xlink="&ns_xlink;" width="612.743" height="566.957"
	 viewBox="0 0 612.743 566.957" overflow="visible" enable-background="new 0 0 612.743 566.957" xml:space="preserve">
<path id="curve29" d="M536.055,98.989c0.789,0.696,1.668,1.392,2.373,2.001c0.789,0.608,1.58,1.305,2.369,2.001l19.854-5.395
	c3.514-0.868,7.115-0.694,10.451,0.523c3.252,1.216,6.063,3.391,8.082,6.436c1.848,2.697,3.516,5.308,4.922,7.74
	c1.404,2.523,2.811,5.22,4.305,8.09c1.58,3.306,2.02,6.872,1.406,10.177c-0.617,3.394-2.285,6.61-4.922,9.134l-14.758,14.178
	c0.178,1.045,0.438,2.088,0.615,3.133c0.176,1.043,0.264,2.001,0.439,3.044l18.709,8.524c3.252,1.564,5.887,4.001,7.645,7.045
	c1.756,2.958,2.457,6.523,2.107,10.091c-0.352,2.871-0.791,5.915-1.406,9.045c-0.527,3.219-1.23,6.178-1.936,8.872
	c-0.877,3.566-2.809,6.61-5.531,8.785c-2.637,2.174-5.975,3.567-9.662,3.827l-20.557,1.479c-0.527,0.871-1.055,1.827-1.582,2.696
	c-0.525,0.87-1.055,1.828-1.58,2.609l8.783,18.439c1.492,3.219,1.934,6.784,1.318,10.265c1.404,0.261-4.041,8.177-5.008,9.046
	c-2.371,2.262-4.656,4.262-6.854,6.089c-2.193,1.826-4.654,3.652-7.379,5.564c-2.982,2.176-6.412,3.22-9.838,3.22
	c-3.514,0-6.938-1.132-9.926-3.22l-16.691-11.914c-1.053,0.347-2.02,0.694-2.984,1.042c-0.877,0.349-1.846,0.608-2.898,0.958
	l-5.184,19.657c-0.967,3.567-2.986,6.523-5.623,8.698c-2.723,2.263-6.061,3.567-9.75,3.827c-2.986,0.174-6.063,0.261-9.225,0.261
	c-3.336-0.087-6.322-0.174-9.223-0.436c-3.688-0.261-7.027-1.652-9.662-3.826c-2.725-2.262-4.656-5.307-5.535-8.785l-5.094-19.831
	c-0.879-0.349-1.846-0.609-2.811-0.959c-0.969-0.435-1.936-0.781-2.813-1.13l-16.779,11.742c-2.986,2.088-6.5,3.133-9.928,3.133
	c-3.514-0.089-7.026-1.133-9.926-3.309c-2.371-1.738-4.742-3.564-7.291-5.738c-2.459-2.089-4.744-4.089-6.853-6.178
	c-2.636-2.521-4.306-5.74-4.92-9.132c-0.526-3.394-0.089-6.872,1.493-10.177l9.049-18.354c-0.527-0.87-1.055-1.74-1.581-2.609
	c-0.44-0.781-0.966-1.652-1.405-2.521l-20.556-1.738c-3.688-0.262-6.938-1.653-9.663-3.914c-2.637-2.265-4.566-5.309-5.357-8.872
	c-0.791-3.131-1.406-6.089-1.935-9.047c-0.526-2.87-0.879-5.826-1.229-9.133c-0.351-3.565,0.439-7.046,2.197-10.004
	c1.758-2.955,4.393-5.392,7.816-6.869l18.712-8.353c0.175-0.869,0.353-1.912,0.526-2.87c0.176-1.044,0.352-2.001,0.615-2.956
	l-14.67-14.439c-2.636-2.521-4.304-5.74-4.83-9.133c-0.529-3.392-0.09-6.958,1.58-10.178c1.317-2.695,2.811-5.391,4.391-8.089
	c1.584-2.783,3.252-5.306,4.92-7.739c2.109-3.045,5.009-5.22,8.259-6.353c2.372-0.869,8.784-2,10.806-0.26l19.414,5.479
	c1.49-1.305,3.072-2.609,4.654-3.825l-1.846-20.44c-0.35-3.567,0.439-7.047,2.197-10.003c1.756-2.957,4.479-5.394,7.816-6.871
	c2.637-1.131,5.535-2.262,8.609-3.393c3.074-1.043,5.973-2,8.785-2.782c3.6-0.958,7.201-0.783,10.451,0.348
	c3.25,1.217,6.148,3.392,8.17,6.437l11.596,16.875c0.967-0.09,2.02-0.09,3.074-0.09c1.053,0,2.107,0.09,3.074,0.09l11.77-16.789
	c2.021-2.87,5.008-5.131,8.258-6.264c3.25-1.217,6.852-1.304,10.453-0.261c3.164,0.869,6.063,1.827,8.695,2.783
	c2.898,1.044,5.711,2.263,8.607,3.479c3.34,1.565,5.975,4.002,7.73,6.958c1.758,3.045,2.549,6.524,2.197,10.093L536.055,98.989z
	 M527.096,114.211c-1.316-1.131-2.549-2.088-3.689-2.957c-1.846-1.305-3.162-3.045-4.129-5.045c-0.789-2-1.143-4.175-0.967-6.438
	l2.371-22.354c-2.371-1.043-4.744-2.001-7.027-2.871c-2.549-0.956-4.92-1.739-7.201-2.436l-13.09,18.613
	c-1.229,1.826-2.984,3.306-4.918,4.176c-2.021,0.955-4.219,1.392-6.414,1.305c-1.848-0.174-3.336-0.174-4.744-0.174
	c-1.404-0.087-2.984,0-4.654,0.089c-2.283,0.086-4.479-0.349-6.412-1.306c-2.02-0.959-3.689-2.35-4.922-4.264l-12.824-18.7
	c-2.637,0.783-5.094,1.565-7.289,2.35c-2.109,0.78-4.482,1.65-7.117,2.782l2.107,22.527c0.176,2.264-0.178,4.438-1.055,6.35
	c-0.879,2.003-2.283,3.741-4.129,5.047c-1.404,1.042-2.635,2-3.602,2.87c-1.055,0.868-2.195,1.825-3.514,3.044
	c-1.67,1.479-3.602,2.521-5.799,3.045c-2.107,0.521-4.304,0.521-6.498-0.089l-21.963-6.176c-1.494,2.262-2.813,4.35-4.041,6.438
	c-1.229,2-2.459,4.26-3.602,6.609l16.162,15.918c1.58,1.564,2.724,3.479,3.338,5.565c0.615,2.087,0.615,4.261,0.089,6.437
	c-0.353,1.566-0.703,3.044-0.968,4.521c-0.174,1.218-0.438,2.698-0.614,4.523c-0.265,2.175-1.144,4.263-2.46,6.002
	c-1.316,1.74-2.986,3.132-5.094,4.087l-20.82,9.222c0.266,2.436,0.616,4.958,1.055,7.566c0.44,2.521,0.967,4.957,1.494,7.394
	l22.75,1.826c0.702,0.087,6.678,1.565,6.148,2.175c1.846,1.219,3.339,2.958,4.305,4.87c0.703,1.395,1.405,2.784,2.196,4.089
	c0.788,1.306,1.581,2.609,2.372,3.914c1.229,1.828,1.931,3.914,2.107,6.089c0.088,2.175-0.352,4.35-1.318,6.351l-9.926,20.354
	c1.933,1.913,3.865,3.566,5.621,5.133c1.758,1.478,3.777,2.956,5.975,4.695l18.621-13.048c1.846-1.305,3.953-2,6.15-2.261
	c2.195-0.174,4.393,0.087,6.498,1.044c1.582,0.694,3.076,1.305,4.305,1.739c1.406,0.521,2.9,1.043,4.303,1.478
	c2.197,0.608,4.131,1.828,5.623,3.393c1.494,1.564,2.637,3.479,3.162,5.653l5.535,21.92c2.811,0.174,5.359,0.261,7.641,0.261
	c2.373,0.087,4.922,0,7.645-0.174l5.799-21.745c0.527-2.175,1.668-4.089,3.164-5.653c1.58-1.565,3.602-2.783,5.709-3.392
	c1.229-0.349,2.723-0.783,4.479-1.394c1.492-0.521,2.986-1.13,4.305-1.651c2.107-0.958,4.305-1.218,6.5-1.043
	c2.107,0.261,4.217,1.043,6.063,2.436l18.535,13.222c1.93-1.395,3.951-2.958,5.973-4.697c2.021-1.65,3.865-3.305,5.711-4.959
	l-9.662-20.352c-0.971-2.088-1.408-4.263-1.23-6.438c0.176-2.087,0.879-4.176,2.195-6.089c0.879-1.305,1.758-2.696,2.461-4.001
	c0.791-1.218,1.492-2.609,2.285-4.089c1.053-2,2.547-3.652,4.393-4.87c1.756-1.218,3.863-1.913,6.148-2.088l22.75-1.565
	c0.703-2.782,1.23-5.219,1.582-7.394c0.438-2.263,0.789-4.697,1.143-7.395l-20.73-9.479c-1.67-0.782-3.074-1.826-4.305-3.219
	c-0.264-0.262-0.527-0.607-0.703-0.87c-1.316-1.825-2.107-3.825-2.371-6.088c-0.264-3.045-0.789-6.351-1.58-9.307
	c-0.178-0.696-0.529-6.698,0.174-6.437c0.615-2.088,1.756-4.002,3.426-5.568l16.34-15.742c-1.055-2.175-2.285-4.349-3.602-6.609
	c-1.318-2.264-2.637-4.438-3.953-6.352l-21.961,5.916c-2.197,0.607-4.395,0.607-6.5,0.086c-2.197-0.608-4.129-1.651-5.799-3.219
	C529.467,116.299,528.327,115.255,527.096,114.211z M476.938,124.301c13.527,0,25.736,5.479,34.609,14.266
	c8.873,8.785,14.316,20.876,14.316,34.27c0,13.396-5.443,25.486-14.316,34.271c-8.873,8.784-21.082,14.178-34.609,14.178
	s-25.74-5.394-34.611-14.178s-14.318-20.875-14.318-34.271c0-13.394,5.447-25.485,14.318-34.27
	C451.2,129.78,463.411,124.301,476.938,124.301z M499.161,150.83c-5.709-5.654-13.527-9.134-22.223-9.134
	c-8.697,0-16.518,3.479-22.227,9.134c-5.621,5.654-9.135,13.395-9.135,22.006s3.514,16.354,9.135,22.008
	c5.709,5.565,13.527,9.045,22.227,9.045c8.695,0,16.514-3.479,22.223-9.045c5.621-5.652,9.135-13.396,9.135-22.008
	C508.297,164.225,504.784,156.484,499.161,150.83z"/>
<g>
	<path d="M546.372,286.979c0,41.8-34.7,74.5-76.1,74.5h-113.9v20h113.9c52.399,0,96.1-41.7,96.1-94.5c0-7.452-0.614-14.438-1.813-21
		c-5.752,4.776-11.941,9.067-18.501,12.812C546.258,281.429,546.372,284.148,546.372,286.979z"/>
	<path d="M399.619,73.007c-10.209,0.725-20.398,2.827-30.247,6.271c-29.2-36.9-63-57.8-111.2-57.8c-4.9,0-10,0.3-15.2,0.7
		c-73.3,6.9-123.4,64.4-119.9,138.1c-48.9,17.4-76.7,55.5-76.7,107.7c0,63.4,52.5,113.5,115.4,113.5h94.6v-20h-94.6
		c-52,0-95.4-41.1-95.4-93.5c0-46.8,25.7-77.8,70-91.1l7.8-2.3l-0.7-8.2c-6.2-65.6,35.3-118.1,101.3-124.3c4.1-0.4,8.5-0.6,13.4-0.6
		c44.9,0,73.8,20.8,99.8,55.8l4.601,6.2l7.2-3c1.829-0.772,3.678-1.488,5.541-2.148C382.182,88.836,390.371,80.313,399.619,73.007z"
		/>
	<polygon points="316.372,507.379 316.372,241.479 296.372,241.479 296.372,507.379 213.472,424.379 199.271,438.578 
		299.271,538.578 306.372,545.578 313.471,538.578 413.471,438.578 399.272,424.379 	"/>
</g>
</svg>
