<?xml version="1.0" encoding="utf-8"?>
<!-- Generator: Adobe Illustrator 12.0.1, SVG Export Plug-In . SVG Version: 6.00 Build 51448)  -->
<!DOCTYPE svg PUBLIC "-//W3C//DTD SVG 1.1//EN" "http://www.w3.org/Graphics/SVG/1.1/DTD/svg11.dtd" [
	<!ENTITY ns_svg "http://www.w3.org/2000/svg">
	<!ENTITY ns_xlink "http://www.w3.org/1999/xlink">
]>
<svg  version="1.1" id="Ebene_1" xmlns="&ns_svg;" xmlns:xlink="&ns_xlink;" width="612.743" height="566.957"
	 viewBox="0 0 612.743 566.957" overflow="visible" enable-background="new 0 0 612.743 566.957" xml:space="preserve">
<path id="curve28" d="M101.392,291.037c0,44.84,38.971,80.008,85.665,80.008h84.947v17.114h-84.947
	c-56.481,0-103.625-42.87-103.625-97.122c0-44.667,24.963-77.269,68.874-92.158c-3.143-63.064,41.845-112.267,107.666-118.171
	c4.669-0.343,9.249-0.599,13.649-0.599c43.282,0,73.632,17.884,99.853,49.459c31.069-10.354,65.911-6.588,92.041,13.007
	c29.184,21.906,38.792,56.219,33.764,90.361c33.853,14.803,51.094,38.335,51.094,74.36c0,45.181-39.241,80.863-86.294,80.863H361.8
	v-17.114h102.277c37.176,0,68.335-27.981,68.335-63.749c0-32.174-15.983-49.545-46.425-61.268l-6.915-2.653l1.438-6.845
	c5.927-29.778,0-61.011-26.041-80.521c-22.988-17.2-54.057-18.997-80.636-8.3l-6.466,2.567l-4.131-5.306
	c-23.348-29.949-49.298-47.748-89.616-47.748c-4.4,0-8.351,0.171-12.033,0.514c-59.265,5.305-96.531,50.229-90.963,106.363
	l0.628,7.017l-7.004,1.968C124.47,224.465,101.392,250.991,101.392,291.037z M325.881,268.362v227.53l74.441-71.023l12.75,12.15
	l-89.795,85.569l-6.375,5.99l-6.376-5.99l-89.796-85.569l12.751-12.15l74.44,71.023v-227.53H325.881z"/>
<g>
	<path fill="none" d="M382.409,84.379c-22.988-17.2-54.058-18.997-80.637-8.3l-3.122,1.239c29.51,6.313,52.454,22.986,72.905,48.057
		c11.528-3.911,23.57-5.856,35.501-5.765C402.954,106.108,395.061,93.858,382.409,84.379z"/>
	<path fill="none" d="M201.559,25.592c-4.4,0-8.351,0.171-12.032,0.514c-54.237,4.877-91.592,43.383-91.592,95.41
		c0.09,0,0.539,10.011,0.629,10.953l0.628,7.017l-7.004,1.968c-39.779,11.381-62.857,37.907-62.857,77.954
		c0,32.32,20.25,59.614,49.044,72.337c0-0.07-0.003-0.139-0.003-0.209c0-45.965,25.234-79.513,69.62-94.835
		c-0.092-0.528-0.272-5.899-0.182-5.899c0-62.696,44.75-109.806,109.015-115.706c4.72-0.352,9.348-0.616,13.796-0.616
		c8.064,0,15.681,0.63,22.913,1.854l-2.358-3.077C267.829,43.391,241.878,25.592,201.559,25.592z"/>
	<path d="M29.331,219.407c0-40.046,23.078-66.573,62.857-77.954l7.004-1.968l-0.628-7.017c-0.09-0.941-0.539-10.953-0.629-10.953
		c0-52.027,37.355-90.533,91.592-95.41c3.682-0.342,7.632-0.514,12.032-0.514c40.319,0,66.27,17.798,89.616,47.663l2.358,3.077
		c1.729,0.292,3.432,0.625,5.117,0.986l3.122-1.239c26.579-10.696,57.648-8.899,80.637,8.3
		c12.652,9.479,20.545,21.729,24.647,35.231c6.379,0.049,12.726,0.675,18.946,1.906c-4.424-19.539-14.901-37.325-32.549-50.571
		c-26.131-19.595-60.973-23.36-92.041-13.007c-26.221-31.575-56.572-49.459-99.854-49.459c-4.4,0-8.979,0.256-13.648,0.599
		C124.334,14.811,80.065,60.59,80.065,121.516c-0.09,0,0.09,5.22,0.18,5.733c-43.911,14.889-68.874,47.491-68.874,92.158
		c0,42.624,29.104,78.218,68.971,91.52c-1.274-6.196-1.954-12.607-1.968-19.183C49.581,279.021,29.331,251.728,29.331,219.407z"/>
</g>
</svg>
