<?xml version="1.0" encoding="UTF-8"?>
<!DOCTYPE svg PUBLIC "-//W3C//DTD SVG 1.1//EN" "http://www.w3.org/Graphics/SVG/1.1/DTD/svg11.dtd">
<svg xmlns="http://www.w3.org/2000/svg" xml:space="preserve" width="580px" height="580px" shape-rendering="geometricPrecision" text-rendering="geometricPrecision" image-rendering="optimizeQuality" fill-rule="nonzero" clip-rule="nonzero" viewBox="0 0 5800 5800" xmlns:xlink="http://www.w3.org/1999/xlink">
	<title>folder_out icon</title>
	<desc>folder_out icon from the IconExperience.com I-Collection. Copyright by INCORS GmbH (www.incors.com).</desc>
		<path id="curve29" fill="#000000" d="M5453 2500l-1553 0c0,-67 2,-134 -5,-200l1852 0 -1054 2683c-77,194 -257,317 -466,317l-3727 0c-220,0 -400,-180 -400,-400l0 -4200 1841 0 600 600 1959 0 0 800 -200 0 0 -600 -1841 0 -600 -600 -1559 0 0 4000c0,111 89,200 200,200 72,0 131,-11 192,-54 49,-34 87,-84 109,-145l929 -2601 1070 0c27,0 52,11 70,30 19,18 30,43 30,70l0 100 -1030 0 -881 2468c-17,48 -41,93 -70,132l3308 0c127,0 233,-72 280,-190l946 -2410z"/>
	<path id="curve28" fill="#000000" d="M2471 3329l829 830 0 -1759c0,-138 -56,-263 -147,-353 -90,-91 -215,-147 -353,-147l-489 0c131,-128 305,-200 489,-200 193,0 368,79 495,205 126,127 205,302 205,495l0 1759 829 -830 142 142 -1071 1070 -1071 -1070 142 -142z"/>
</svg>