<?xml version="1.0" encoding="UTF-8"?>
<!DOCTYPE svg PUBLIC "-//W3C//DTD SVG 1.1//EN" "http://www.w3.org/Graphics/SVG/1.1/DTD/svg11.dtd">
<svg xmlns="http://www.w3.org/2000/svg" xml:space="preserve" width="580px" height="580px" shape-rendering="geometricPrecision" text-rendering="geometricPrecision" image-rendering="optimizeQuality" fill-rule="nonzero" clip-rule="nonzero" viewBox="0 0 5800 5800" xmlns:xlink="http://www.w3.org/1999/xlink">
	<title>folder_into icon</title>
	<desc>folder_into icon from the IconExperience.com I-Collection. Copyright by INCORS GmbH (www.incors.com).</desc>
		<path id="curve29" fill="#000000" d="M5453 2700l-353 0 0 -200 647 0 -1054 2683c-77,194 -257,317 -466,317l-3727 0c-220,0 -400,-180 -400,-400l0 -4200 1600 0 0 200 -1400 0 0 4000c0,111 89,200 200,200 72,0 131,-11 192,-54 49,-34 87,-84 109,-145l929 -2601 2370 0 0 200 -2230 0 -881 2468c-17,48 -41,93 -70,132l3308 0c127,0 233,-72 280,-190l946 -2410z"/>
	<path id="curve28" fill="#000000" d="M4500 3100l0 -1569c0,-145 -41,-279 -115,-390 -155,-232 -449,-353 -722,-299 -132,26 -255,92 -358,194l-864 864 1259 0 0 200 -1600 0 0 -1600 200 0 0 1259 864 -864c131,-131 290,-215 460,-249 352,-70 727,86 926,384 97,144 150,316 150,501l0 1569 -200 0z"/>
</svg>