<?xml version="1.0" encoding="UTF-8"?>
<!DOCTYPE svg PUBLIC "-//W3C//DTD SVG 1.1//EN" "http://www.w3.org/Graphics/SVG/1.1/DTD/svg11.dtd">
<svg xmlns="http://www.w3.org/2000/svg" xml:space="preserve" width="580px" height="580px" shape-rendering="geometricPrecision" text-rendering="geometricPrecision" image-rendering="optimizeQuality" fill-rule="nonzero" clip-rule="nonzero" viewBox="0 0 5800 5800" xmlns:xlink="http://www.w3.org/1999/xlink">
	<title>folder_open icon</title>
	<desc>folder_open icon from the IconExperience.com I-Collection. Copyright by INCORS GmbH (www.incors.com).</desc>
		<path id="curve28" fill="#000000" d="M5453 2500l-3583 0 -881 2468c-17,48 -41,93 -70,132l3308 0c127,0 233,-72 280,-190l946 -2410zm-4953 2800c-220,0 -400,-180 -400,-400l0 -4200 1841 0 600 600 1959 0 0 800 -200 0 0 -600 -1841 0 -600 -600 -1559 0 0 4000c0,111 89,200 200,200 72,0 131,-11 192,-54 49,-34 87,-84 109,-145l929 -2601 4017 0 -1054 2683c-77,194 -257,317 -466,317l-3727 0z"/>
</svg>