<?xml version="1.0" encoding="utf-8"?>
<!-- Generator: Adobe Illustrator 12.0.1, SVG Export Plug-In . SVG Version: 6.00 Build 51448)  -->
<!DOCTYPE svg PUBLIC "-//W3C//DTD SVG 1.1//EN" "http://www.w3.org/Graphics/SVG/1.1/DTD/svg11.dtd" [
	<!ENTITY ns_svg "http://www.w3.org/2000/svg">
	<!ENTITY ns_xlink "http://www.w3.org/1999/xlink">
]>
<svg  version="1.1" id="Ebene_1" xmlns="&ns_svg;" xmlns:xlink="&ns_xlink;" width="427.092" height="541.453"
	 viewBox="0 0 427.092 541.453" overflow="visible" enable-background="new 0 0 427.092 541.453" xml:space="preserve">
<path id="curve0" fill="#242424" d="M317.154,411.979l-45.856-44.416l-45.807,44.416c-6.218,5.974-16.314,5.974-22.48,0
	l-22.531-21.822c-6.217-6.021-6.217-15.802,0-21.774l45.807-44.416l-45.807-44.369c-6.217-6.021-6.217-15.801,0-21.773
	l22.531-21.823c6.166-6.021,16.263-6.021,22.48,0l45.807,44.368l45.856-44.368c6.167-6.021,16.264-6.021,22.48,0l22.532,21.823
	c6.166,5.973,6.166,15.752,0,21.773l-45.858,44.369l45.858,44.416c6.166,5.973,6.166,15.753,0,21.774l-22.532,21.822
	C333.418,417.953,323.321,417.953,317.154,411.979z"/>
<g>
	<path fill="none" d="M241.963,230.379l2.89,2.997c2.318-4.306,5.473-8.212,9.417-11.576l116.078-99
		c7.136-6,10.553-13.6,10.553-22.8V73.7c-10.854,5.699-25.729,10.6-43.819,14.3c-27.971,5.867-64.223,9.975-104.643,11.425
		c-4.182,0.15-8.408,0.271-12.674,0.363C213.265,99.928,206.671,100,200,100c-53.366,0-101.807-4.601-137.082-12
		c-18.09-3.7-32.964-8.601-43.819-14.3V100c0,9.2,3.417,16.8,10.553,22.8l116.078,99c8.573,7.312,13.438,17.086,14.012,28.167
		c0.038,0.739,0.057,1.483,0.057,2.233v106.199c0,1.475,0.357,2.523,0.953,3.245c0.998-16.126,5.631-31.301,13.104-44.784
		l-10.398-10.784L241.963,230.379z"/>
	<path fill="none" d="M332.962,31.5C299.093,24.399,252.159,20,200,20c-52.16,0-99.093,4.399-132.961,11.5
		C37.392,37.7,19.1,44.3,19.1,50s18.292,12.3,47.939,18.5C100.907,75.6,147.84,80,200,80c52.159,0,99.093-4.4,132.962-11.5
		C362.608,62.3,380.9,55.7,380.9,50S362.608,37.7,332.962,31.5z"/>
	<path d="M337.081,11.899C301.806,4.6,253.366,0,200,0C146.634,0,98.193,4.6,62.918,11.899C45.632,15.6-0.497,26.6-1,50v50
		c0,14.899,6.13,28.2,17.588,37.899L132.665,237c4.724,4,7.035,9,7.035,15.2v106.199c0,15.781,9.704,22.813,21.85,24.448
		c-0.661-4.775-1.009-9.646-1.009-14.598c0-2.219,0.077-4.42,0.212-6.605c-0.596-0.722-0.953-1.771-0.953-3.245V252.2
		c0-0.75-0.019-1.495-0.057-2.233c-0.575-11.081-5.439-20.854-14.012-28.167l-116.078-99c-7.135-6-10.553-13.6-10.553-22.8V73.7
		C29.954,79.399,44.828,84.3,62.918,88c35.275,7.399,83.716,12,137.082,12c6.671,0,13.265-0.072,19.765-0.212
		c4.266-0.092,8.492-0.213,12.674-0.363c40.42-1.45,76.671-5.558,104.643-11.425c18.09-3.7,32.965-8.601,43.819-14.3V100
		c0,9.2-3.417,16.8-10.553,22.8l-116.078,99c-3.944,3.364-7.099,7.27-9.417,11.576l15.598,16.176
		c0.561-4.994,2.769-9.139,6.886-12.552l116.076-99.101C394.868,128.2,401,114.899,401,100V50
		C401,26.899,353.866,15.5,337.081,11.899z M332.962,68.5C299.093,75.6,252.159,80,200,80c-52.16,0-99.093-4.4-132.961-11.5
		C37.392,62.3,19.1,55.7,19.1,50s18.292-12.3,47.939-18.5C100.907,24.399,147.84,20,200,20c52.159,0,99.093,4.399,132.962,11.5
		C362.608,37.7,380.9,44.3,380.9,50S362.608,62.3,332.962,68.5z"/>
</g>
</svg>
