<?xml version="1.0" encoding="UTF-8"?>
<!DOCTYPE svg PUBLIC "-//W3C//DTD SVG 1.1//EN" "http://www.w3.org/Graphics/SVG/1.1/DTD/svg11.dtd">
<svg xmlns="http://www.w3.org/2000/svg" xml:space="preserve" width="580px" height="580px" shape-rendering="geometricPrecision" text-rendering="geometricPrecision" image-rendering="optimizeQuality" fill-rule="nonzero" clip-rule="nonzero" viewBox="0 0 5800 5800" xmlns:xlink="http://www.w3.org/1999/xlink">
	<title>garbage icon</title>
	<desc>garbage icon from the IconExperience.com I-Collection. Copyright by INCORS GmbH (www.incors.com).</desc>
		<path id="curve28" fill="#000000" d="M4788 1500l-500 4000 -2776 0 -500 -4000 -12 0c-165,0 -300,-135 -300,-300 0,-165 135,-300 300,-300l3800 0c165,0 300,135 300,300 0,165 -135,300 -300,300l-12 0zm-959 2849l-84 -314c-183,289 -501,465 -845,465 -159,0 -309,-37 -443,-103l53 -198c116,64 249,101 390,101 272,0 523,-137 671,-364l-312 84 -52 -193 643 -173 172 643 -193 52zm-2129 -469l314 85c-73,-139 -114,-297 -114,-465 0,-335 167,-646 444,-831l145 144c-241,145 -389,405 -389,687 0,131 31,254 87,363l83 -312 193 52 -172 643 -643 -173 52 -193zm1471 -1609l-230 230c510,20 924,424 957,934l-198 53c-6,-421 -338,-765 -757,-787l228 228 -142 142 -470 -471 470 -471 142 142zm1629 -1171l-3800 0c-55,0 -100,45 -100,100 0,55 45,100 100,100l3800 0c55,0 100,-45 100,-100 0,-55 -45,-100 -100,-100zm-213 400l-3374 0 475 3800 2424 0 475 -3800z"/>
</svg>