<?xml version="1.0" encoding="utf-8"?>
<!-- Generator: Adobe Illustrator 12.0.1, SVG Export Plug-In . SVG Version: 6.00 Build 51448)  -->
<!DOCTYPE svg PUBLIC "-//W3C//DTD SVG 1.1//EN" "http://www.w3.org/Graphics/SVG/1.1/DTD/svg11.dtd" [
	<!ENTITY ns_svg "http://www.w3.org/2000/svg">
	<!ENTITY ns_xlink "http://www.w3.org/1999/xlink">
]>
<svg  version="1.1" id="Ebene_1" xmlns="&ns_svg;" xmlns:xlink="&ns_xlink;" width="981" height="981" viewBox="0 0 981 981"
	 overflow="visible" enable-background="new 0 0 981 981" xml:space="preserve">
<g>
	<g id="XMLID_3_">
		<g>
			<path d="M978,381c10.31,35.19-13.42,53.42-32,72C781.35,617.64,618.26,780.74,455,944c-17.79,17.79-30.14,33.23-53,37
				c-4.67,0-9.33,0-14,0c-34.98-9.29-57.76-43.76-81-67c-22.44-22.44-44.34-42.06-63-64c25.65-18.46,28.49-70.31,11-99
				c-24.91-40.87-91.13-49.92-126-14c-29.99-30.36-61.84-62.84-94-95c-15.26-15.26-31.16-25.51-35-50c0-4.33,0-8.67,0-13
				c0.75-4.59,4.04-14.41,8-21c14.31-23.81,46.43-48.43,68-70C225.96,338.04,375.8,187.2,526,37c12.46-12.46,25.44-26.91,38-32
				c35.08-14.22,55.53,8.53,73,26c33.83,33.83,69.03,66.75,99,100c-9.73,10.59-16.06,20.28-20,35c-16.96,63.44,41.22,116.52,101,99
				c13.27-3.89,21.8-11.87,34-20c32.58,32.21,65.88,64.88,99,98C961.47,354.47,973.7,366.33,978,381z M877,445
				c12.68-12.68,39.21-30.8,38-51c-1.06-17.7-23.13-33.13-34-44c-14.12-14.12-26.93-27.87-40-37c-112.41,36.91-209.68-59.73-173-174
				c-8.23-11.48-22.08-23.08-36-37c-13.58-13.58-28.48-39.33-52-36c-15.57,2.21-37.4,31.4-49,43
				C430.71,209.29,317.31,320.42,225,416c5.75,11.38,31.92,20.36,32,37c0.04,8.56-8.31,14.31-13,19c-4.56,4.56-10.42,13.22-20,13
				c-8.47-0.2-13.74-8.74-20-15c-3.43-3.43-16.46-17.07-18-17c-1.83,0.08-10.72,11.72-15,16c-28.14,28.14-51.62,50.62-78,77
				c-6.72,6.72-26.16,23.03-28,34c-3.99,23.72,23.31,41.31,35,53c14.23,14.23,26.03,26.97,39,36c115.37-35.81,208.65,59.98,173,174
				c9.51,11.65,21.67,23.67,35,37c11.06,11.06,25.41,31.14,40,35c22.4,5.92,37.74-16.74,48-27c22.59-22.59,39.06-39.06,62-62
				c3.83-3.83,31.16-28.38,31-32c-0.13-3.03-14.92-13.92-18-17c-5.8-5.8-15.23-13.08-15-21c0.29-10.08,24.38-32.17,33-32
				c16.53,0.33,26.59,28.8,39,32C666.76,655.87,774.61,547.39,877,445z"/>
			<path d="M453,643c9.29,9.29,31.22,25.09,31,38c-0.17,9.71-21.12,32-32,32c-12.5,0-29.68-23.68-38-32
				c-7.48-7.48-31.77-25.32-32-38c-0.3-16.03,17.53-20.62,27-31c10.47-5.14,20.68,7.68,27,14C442.52,632.52,445.92,635.92,453,643z"
				/>
			<path d="M371,566c0.52,11.96-22.59,33.11-33,33c-11.95-0.12-29.74-23.74-38-32c-7.31-7.31-10.49-11.49-17-18
				c-3.79-3.79-15-11.82-15-20c0-7.16,18.24-28.18,27-31c17.04-5.48,33.17,21.17,44,32C346.6,537.6,370.46,553.6,371,566z"/>
		</g>
		<g>
		</g>
	</g>
</g>
</svg>
