<?xml version="1.0" encoding="UTF-8"?>
<!DOCTYPE svg PUBLIC "-//W3C//DTD SVG 1.1//EN" "http://www.w3.org/Graphics/SVG/1.1/DTD/svg11.dtd">
<svg xmlns="http://www.w3.org/2000/svg" xml:space="preserve" width="580px" height="580px" shape-rendering="geometricPrecision" text-rendering="geometricPrecision" image-rendering="optimizeQuality" fill-rule="nonzero" clip-rule="nonzero" viewBox="0 0 5800 5800" xmlns:xlink="http://www.w3.org/1999/xlink">
	<title>handheld_device icon</title>
	<desc>handheld_device icon from the IconExperience.com I-Collection. Copyright by INCORS GmbH (www.incors.com).</desc>
	<path id="curve0" fill="#333333" d="M1600 300l2600 0c275,0 500,225 500,500l0 4200c0,275 -225,500 -500,500l-2600 0c-275,0 -500,-225 -500,-500l0 -4200c0,-275 225,-500 500,-500zm1300 3000c238,0 375,76 568,190l-365 365c-124,-73 -282,-73 -406,0l-365 -365c193,-114 330,-190 568,-190zm900 900c0,238 -76,375 -190,568l-365 -365c73,-124 73,-282 -1,-406l366 -365c114,193 190,330 190,568zm-900 900c-238,0 -375,-76 -568,-190l365 -365c124,73 282,73 406,0l365 365c-193,114 -330,190 -568,190zm-900 -900c0,-238 76,-375 190,-568l366 365c-74,124 -74,282 -1,406l-365 365c-114,-193 -190,-330 -190,-568zm2300 -3500l0 2400 -2800 0 0 -2400 2800 0zm-200 200l-2400 0 0 2000 2400 0 0 -2000zm100 -400l-2600 0c-165,0 -300,135 -300,300l0 4200c0,165 135,300 300,300l2600 0c165,0 300,-135 300,-300l0 -4200c0,-165 -135,-300 -300,-300z"/>
</svg>