<?xml version="1.0" encoding="UTF-8"?>
<!DOCTYPE svg PUBLIC "-//W3C//DTD SVG 1.1//EN" "http://www.w3.org/Graphics/SVG/1.1/DTD/svg11.dtd">
<svg xmlns="http://www.w3.org/2000/svg" xml:space="preserve" width="580px" height="580px" shape-rendering="geometricPrecision" text-rendering="geometricPrecision" image-rendering="optimizeQuality" fill-rule="nonzero" clip-rule="nonzero" viewBox="0 0 5800 5800" xmlns:xlink="http://www.w3.org/1999/xlink">
	<title>hand_touch icon</title>
	<desc>hand_touch icon from the IconExperience.com I-Collection. Copyright by INCORS GmbH (www.incors.com).</desc>
		<path id="curve29" fill="#000000" d="M2500 300c387,0 737,157 990,410 253,253 410,603 410,990 0,289 -88,558 -238,782l-209 -53c155,-202 247,-455 247,-729 0,-331 -134,-631 -351,-849 -218,-217 -518,-351 -849,-351 -331,0 -631,134 -849,351 -217,218 -351,518 -351,849 0,331 134,631 351,849 75,74 159,138 250,191l0 226c-146,-69 -278,-163 -391,-276 -253,-253 -410,-603 -410,-990 0,-387 157,-737 410,-990 253,-253 603,-410 990,-410zm3 900c138,0 263,56 353,146 53,53 94,118 119,190 -9,-13 -19,-25 -29,-36 -7,-8 -14,-16 -22,-24 -109,-109 -259,-176 -424,-176 -165,0 -314,67 -423,176l0 0 -1 1c-14,14 -28,29 -40,45 25,-67 64,-126 113,-176 91,-90 216,-146 354,-146zm0 -450c262,0 500,106 672,278 172,172 278,410 278,672 0,258 -103,491 -269,662l-84 -21 0 -187c96,-126 153,-283 153,-454 0,-207 -84,-395 -220,-530 -135,-136 -323,-220 -530,-220 -207,0 -395,84 -530,220 -136,135 -220,323 -220,530 0,168 55,323 148,448l0 287c-24,-20 -48,-41 -70,-63 -172,-172 -278,-410 -278,-672 0,-262 106,-500 278,-672 172,-172 410,-278 672,-278z"/>
	<path id="curve28" fill="#000000" d="M4182 3988c-55,84 -132,183 -162,280 -13,45 -20,93 -20,145l0 287 -200 0 0 -287c0,-71 9,-138 29,-203 37,-123 116,-227 187,-333 29,-42 50,-86 64,-132 13,-45 20,-93 20,-145l0 -382c0,-129 -83,-236 -208,-267l-1111 -278c-46,-9 -81,-49 -81,-98l0 -675c0,-110 -90,-200 -200,-200 -110,0 -200,90 -200,200l0 1492c1,15 -1,31 -7,45 -21,52 -79,76 -131,56l-258 -105c-50,-20 -110,-32 -172,-32 -65,0 -129,12 -183,42 -51,27 -94,71 -121,136 -9,22 -16,47 -21,74 81,12 176,35 268,69 111,42 219,101 296,177l300 300c28,29 69,54 109,79 112,70 220,138 220,292l0 175 -200 0 0 -175c0,-44 -61,-82 -125,-122 -51,-32 -102,-64 -146,-107l-300 -300c-55,-56 -137,-100 -223,-132 -114,-43 -231,-64 -306,-64 -55,0 -100,-45 -100,-100 0,-93 16,-173 43,-241 45,-111 121,-188 210,-236 87,-47 184,-67 279,-67 88,0 175,17 247,46l121 50 0 -1352c0,-220 180,-400 400,-400 220,0 400,180 400,400l0 597 1040 260c213,53 360,241 360,461l0 382c0,72 -9,139 -29,203 -19,64 -49,125 -89,185zm-2082 1512l0 -300c0,-165 135,-300 300,-300l1600 0c165,0 300,135 300,300l0 300 -200 0 0 -300c0,-55 -45,-100 -100,-100l-1600 0c-55,0 -100,45 -100,100l0 300 -200 0z"/>
</svg>