<?xml version="1.0" encoding="UTF-8"?>
<!DOCTYPE svg PUBLIC "-//W3C//DTD SVG 1.1//EN" "http://www.w3.org/Graphics/SVG/1.1/DTD/svg11.dtd">
<svg xmlns="http://www.w3.org/2000/svg" xml:space="preserve" width="580px" height="580px" shape-rendering="geometricPrecision" text-rendering="geometricPrecision" image-rendering="optimizeQuality" fill-rule="nonzero" clip-rule="nonzero" viewBox="0 0 5800 5800" xmlns:xlink="http://www.w3.org/1999/xlink">
	<title>handshake icon</title>
	<desc>handshake icon from the IconExperience.com I-Collection. Copyright by INCORS GmbH (www.incors.com).</desc>
		<path id="curve27" fill="#000000" d="M1554 1020l228 169c212,157 257,457 100,669l-902 1217c-157,212 -458,257 -670,100l-228 -169 119 -161 228 170c123,91 299,64 390,-58l902 -1218c92,-123 65,-299 -58,-390l-228 -169 119 -160zm2752 181l-228 169c-123,91 -149,267 -58,390l902 1217c91,123 267,149 390,58l229 -169 118 160 -228 169c-212,157 -512,113 -669,-99l-902 -1217c-157,-212 -113,-512 100,-670l228 -169 118 161zm-2974 2972c-240,-239 -244,-503 -3,-744l33 -32c-78,-62 -156,-125 -234,-187 40,-52 79,-107 119,-160 76,61 153,122 230,184 136,108 254,202 321,368l84 211c52,128 173,224 270,318l618 598c66,64 186,99 310,103 126,4 251,-23 323,-82l839 -688c9,-9 18,-15 26,-25 74,-88 75,-269 15,-365 -323,65 -539,-222 -698,-432 -43,-58 -81,-108 -107,-133 -218,40 -454,5 -628,-140l-136 115c-133,113 -299,163 -473,142 -159,-18 -322,-97 -468,-243 -112,-113 -74,-310 40,-407l452 -384c-40,-11 -76,-25 -101,-44l-160 -118c41,-56 78,-104 108,-168l170 125c33,25 199,38 244,37 68,-26 140,-38 217,-33l734 54c41,3 89,-33 121,-55l65 -45c34,55 78,109 116,162l-68 47c-77,53 -150,97 -248,90l-734 -53c-52,-4 -102,6 -149,26 -51,21 -100,55 -149,96l-489 415c-24,24 -55,82 -27,114 111,112 233,172 350,186 117,14 230,-20 320,-96l205 -174c43,-37 106,-29 142,14 135,153 356,177 545,133 23,-6 46,-3 65,6 68,32 129,113 202,210 121,161 285,378 482,359 0,-73 14,-207 73,-256l190 -159c40,53 79,108 119,160l-181 152c-8,7 4,47 -1,98 -1,17 -2,35 -4,52 137,166 138,474 -1,640 -14,17 -34,38 -52,51l-839 687c-112,92 -287,134 -457,128 -145,-5 -291,-45 -395,-120 -216,121 -516,86 -692,-89l-654 -649zm141 -141l653 649c99,98 263,126 393,83l-506 -490c-125,-121 -248,-218 -316,-387l-84 -210c-23,-57 -58,-104 -100,-148l-42 42c-163,162 -159,299 2,461z"/>
</svg>