<?xml version="1.0" encoding="UTF-8"?>
<!DOCTYPE svg PUBLIC "-//W3C//DTD SVG 1.1//EN" "http://www.w3.org/Graphics/SVG/1.1/DTD/svg11.dtd">
<svg xmlns="http://www.w3.org/2000/svg" xml:space="preserve" width="580px" height="580px" shape-rendering="geometricPrecision" text-rendering="geometricPrecision" image-rendering="optimizeQuality" fill-rule="nonzero" clip-rule="nonzero" viewBox="0 0 5800 5800" xmlns:xlink="http://www.w3.org/1999/xlink">
	<title>hand_spread icon</title>
	<desc>hand_spread icon from the IconExperience.com I-Collection. Copyright by INCORS GmbH (www.incors.com).</desc>
		<path id="curve28" fill="#000000" d="M1900 5500l0 -300c0,-275 225,-500 500,-500l1800 0c275,0 500,225 500,500l0 300 -200 0 0 -300c0,-165 -135,-300 -300,-300l-1800 0c-165,0 -300,135 -300,300l0 300 -200 0zm2250 -4744c232,56 376,294 321,525l-202 849 264 -413c115,-180 394,-208 568,-97 100,65 165,165 189,275 23,108 7,227 -57,327l-733 1210c-62,99 -109,238 -142,386 -41,189 -59,391 -59,547l0 135 -200 0 0 -135c0,-168 19,-386 64,-590 37,-167 92,-328 168,-449l733 -1210c35,-54 43,-119 30,-179 -13,-60 -48,-114 -101,-149 -81,-51 -240,-47 -292,36l-502 787c-33,53 -97,73 -154,48 -57,-24 -87,-84 -72,-144l304 -1280c29,-124 -49,-256 -174,-285 -124,-30 -251,51 -281,174l-296 1250c-15,60 -69,100 -130,96 -62,-4 -110,-51 -116,-113l-155 -1643c-12,-127 -128,-225 -255,-213 -127,12 -223,131 -211,258l155 1640c6,61 -32,117 -92,133 -50,13 -146,-23 -146,-70l-574 -1279c-52,-116 -191,-170 -308,-118 -118,54 -170,197 -118,315l530 1180c53,118 29,249 -61,341 -91,92 -222,117 -340,65 -11,-5 -150,-50 -149,-50 -138,-42 -291,-69 -415,-34 -111,32 -203,123 -241,318 109,6 242,23 378,69 140,47 283,124 409,250 189,204 362,324 601,459 44,24 71,39 87,59 58,35 122,195 122,263l0 200 -200 0 0 -200c0,-51 -54,-112 -69,-129 -17,-19 -14,-6 -37,-19 -127,-71 -424,-238 -647,-494 -101,-100 -216,-162 -329,-200 -116,-39 -231,-53 -326,-58 -29,-2 -56,-9 -81,-22 -77,-40 -121,-128 -104,-214 55,-286 202,-422 382,-474 168,-48 360,-15 528,36 91,0 203,122 288,35 33,-33 41,-77 22,-120l-530 -1180c-97,-218 0,-479 219,-578 218,-97 473,2 571,218l389 867 -112 -1190c-23,-236 154,-454 391,-476 237,-22 449,157 471,393l113 1192 192 -809c56,-230 290,-378 522,-322z"/>
</svg>