<?xml version="1.0" encoding="UTF-8"?>
<!DOCTYPE svg PUBLIC "-//W3C//DTD SVG 1.1//EN" "http://www.w3.org/Graphics/SVG/1.1/DTD/svg11.dtd">
<svg xmlns="http://www.w3.org/2000/svg" xml:space="preserve" width="580px" height="580px" shape-rendering="geometricPrecision" text-rendering="geometricPrecision" image-rendering="optimizeQuality" fill-rule="nonzero" clip-rule="nonzero" viewBox="0 0 5800 5800" xmlns:xlink="http://www.w3.org/1999/xlink">
	<title>hand_card icon</title>
	<desc>hand_card icon from the IconExperience.com I-Collection. Copyright by INCORS GmbH (www.incors.com).</desc>
		<path id="curve29" fill="#000000" d="M2004 3900l197 694c52,179 200,306 389,306l510 0c73,0 140,-9 203,-29 134,-40 268,-144 382,-220 152,-101 317,-151 499,-151l316 0 0 200 -316 0c-141,0 -263,36 -382,113 -110,86 -308,210 -441,250 -83,25 -169,37 -261,37l-510 0c-278,0 -505,-187 -581,-451l-213 -749 208 0zm3496 -1200l-300 0c-165,0 -300,135 -300,300l0 1600c0,165 135,300 300,300l300 0 0 200 -300 0c-275,0 -500,-225 -500,-500l0 -1600c0,-275 225,-500 500,-500l300 0 0 200zm-3600 -300c0,-165 135,-300 300,-300l748 0c93,0 184,10 272,35 90,26 174,69 251,133l690 584c48,40 105,48 165,48l174 0 0 200 -174 0c-108,0 -210,-25 -294,-96l-690 -583c-54,-46 -114,-76 -177,-94 -67,-20 -140,-27 -217,-27l-748 0c-55,0 -100,45 -100,100 0,138 56,263 147,353 90,91 215,147 353,147l500 0 0 200 -500 0c-193,0 -368,-79 -495,-205 -126,-127 -205,-302 -205,-495z"/>
	<path id="curve28" fill="#000000" d="M600 300l2000 0c165,0 300,135 300,300l0 1300 -200 0 0 -1300c0,-55 -45,-100 -100,-100l-2000 0c-55,0 -100,45 -100,100l0 2800c0,55 45,100 100,100l2000 0c55,0 100,-45 100,-100l0 -100 200 0 0 100c0,165 -135,300 -300,300l-2000 0c-165,0 -300,-135 -300,-300l0 -2800c0,-165 135,-300 300,-300z"/>
</svg>