<?xml version="1.0" encoding="UTF-8"?>
<!DOCTYPE svg PUBLIC "-//W3C//DTD SVG 1.1//EN" "http://www.w3.org/Graphics/SVG/1.1/DTD/svg11.dtd">
<svg xmlns="http://www.w3.org/2000/svg" xml:space="preserve" width="580px" height="580px" shape-rendering="geometricPrecision" text-rendering="geometricPrecision" image-rendering="optimizeQuality" fill-rule="nonzero" clip-rule="nonzero" viewBox="0 0 5800 5800" xmlns:xlink="http://www.w3.org/1999/xlink">
	<title>home icon</title>
	<desc>home icon from the IconExperience.com I-Collection. Copyright by INCORS GmbH (www.incors.com).</desc>
		<path id="curve28" fill="#000000" d="M3300 5300l1000 0 0 -2200 -1000 0 0 2200zm1800 -2459l0 2659c-1467,0 -2933,0 -4400,0l0 -2659 -529 530 -142 -142 2871 -2870 2871 2870 -142 142 -529 -530zm-4200 -200l0 2659 2200 0 0 -2400 1400 0 0 2400 400 0 0 -2659 -2000 -2000 -2000 2000zm1800 259l0 1200 -1400 0 0 -1200 1400 0zm-200 200l-1000 0 0 800 1000 0 0 -800z"/>
</svg>