<?xml version="1.0" encoding="UTF-8"?>
<!DOCTYPE svg PUBLIC "-//W3C//DTD SVG 1.1//EN" "http://www.w3.org/Graphics/SVG/1.1/DTD/svg11.dtd">
<svg xmlns="http://www.w3.org/2000/svg" xml:space="preserve" width="580px" height="580px" shape-rendering="geometricPrecision" text-rendering="geometricPrecision" image-rendering="optimizeQuality" fill-rule="nonzero" clip-rule="nonzero" viewBox="0 0 5800 5800" xmlns:xlink="http://www.w3.org/1999/xlink">
	<title>id_cards icon</title>
	<desc>id_cards icon from the IconExperience.com I-Collection. Copyright by INCORS GmbH (www.incors.com).</desc>
		<path id="curve29" fill="#000000" d="M1800 500l3200 0c276,0 500,224 500,500l0 2200c0,276 -224,500 -500,500l-300 0 0 -200 300 0c165,0 300,-135 300,-300l0 -2200c0,-165 -135,-300 -300,-300l-3200 0c-165,0 -300,135 -300,300l0 900 -200 0 0 -900c0,-276 224,-500 500,-500zm1900 1400l0 -500 1200 0 0 1579c0,-83 -33,-173 -95,-232 -26,-25 -70,-41 -105,-53l0 506 400 0 0 -2000 -1600 0 0 700 200 0zm900 339c48,-31 64,-95 48,-148l12 -183c13,-129 -146,-275 -278,-212 -34,-22 -55,-33 -97,-40 -164,-26 -342,70 -345,244l60 0c254,0 477,136 600,339zm-2700 -739l1200 0 0 200 -1200 0 0 -200z"/>
	<path id="curve28" fill="#000000" d="M800 2100l3200 0c276,0 500,224 500,500l0 2200c0,276 -224,500 -500,500l-3200 0c-276,0 -500,-224 -500,-500l0 -2200c0,-276 224,-500 500,-500zm100 1000l1200 0 0 200 -1200 0 0 -200zm0 600l1200 0 0 200 -1200 0 0 -200zm0 600l857 0 0 200 -857 0 0 -200zm3200 -1500l0 2000 -1600 0 0 -2000 1600 0zm-200 200l-1200 0 0 1600 10 0c14,-57 42,-112 85,-153 28,-27 75,-43 112,-56 61,-22 97,-24 153,-58 53,-30 60,-123 60,-178 -47,-45 -92,-146 -109,-210 -56,-27 -76,-98 -59,-154l-12 -181c-4,-180 177,-280 345,-254 42,7 63,18 97,40 132,-63 291,83 278,212l-12 183c17,56 -2,127 -59,154 -17,63 -61,164 -109,210 1,56 5,147 60,178 56,34 92,36 153,58 37,13 84,29 112,56 43,41 71,96 85,153l10 0 0 -1600zm100 -700l-3200 0c-165,0 -300,135 -300,300l0 2200c0,165 135,300 300,300l3200 0c165,0 300,-135 300,-300l0 -2200c0,-165 -135,-300 -300,-300z"/>
</svg>