<?xml version="1.0" encoding="utf-8"?>
<svg
   xmlns:dc="http://purl.org/dc/elements/1.1/"
   xmlns:cc="http://creativecommons.org/ns#"
   xmlns:rdf="http://www.w3.org/1999/02/22-rdf-syntax-ns#"
   xmlns:svg="http://www.w3.org/2000/svg"
   xmlns="http://www.w3.org/2000/svg"
   id="svg11"
   version="1.1"
   viewBox="0 0 526 540"
   clip-rule="evenodd"
   fill-rule="nonzero"
   image-rendering="optimizeQuality"
   text-rendering="geometricPrecision"
   shape-rendering="geometricPrecision"
   height="540px"
   width="526px"
   xml:space="preserve">
<path id="curve28" fill="#000000" d="M3121 613c-54,-34 -96,-60 -139,-79 -98,-43 -228,-56 -334,-55 -383,8 -774,232 -839,635 -7,42 -11,86 -10,132l40 614c1,13 -1,27 -6,39 -21,77 -17,165 12,242 25,67 71,125 136,157 27,14 45,37 52,64 30,112 87,261 157,397 55,110 118,209 180,270 20,19 30,45 30,71 0,97 -7,230 -38,357 -35,139 -98,264 -212,330 -137,84 -238,115 -356,150 -65,20 -129,40 -193,64 -108,39 -243,88 -315,158 -91,88 -160,199 -208,319 -52,129 -78,269 -78,402 0,111 191,200 455,268 444,116 1073,152 1445,152 372,0 1001,-36 1445,-152 264,-68 455,-157 455,-268 0,-134 -26,-273 -78,-402 -47,-120 -117,-231 -208,-319 -72,-70 -207,-119 -315,-158 -196,-71 -371,-103 -553,-217 -117,-70 -178,-194 -210,-329 -28,-122 -33,-253 -36,-353 0,-28 11,-54 30,-73 63,-62 125,-161 180,-269 71,-137 127,-287 157,-398 8,-30 29,-53 56,-65 63,-33 108,-90 133,-156 29,-78 32,-168 9,-247 -3,-12 -4,-23 -4,-34l41 -624c8,-93 -15,-187 -58,-275 -48,-99 -124,-191 -214,-260 -148,-112 -338,-167 -512,-82 -32,16 -69,12 -97,-6zm628 3000c167,104 338,133 518,200 126,46 283,104 386,203 111,108 196,243 254,389 62,153 93,318 93,475 0,225 -254,370 -605,461 -465,121 -1113,159 -1495,159 -382,0 -1030,-38 -1495,-159 -351,-91 -605,-236 -605,-461 0,-157 31,-322 93,-476 58,-145 143,-280 254,-388 103,-99 260,-157 386,-203 68,-25 135,-46 204,-67 104,-32 193,-58 310,-131 62,-35 99,-114 121,-205 23,-91 30,-190 32,-271 -68,-76 -133,-179 -188,-289 -68,-133 -125,-278 -160,-395 -92,-58 -157,-145 -194,-244 -42,-112 -49,-240 -19,-355l-39 -598c-3,-54 3,-123 12,-176 81,-501 551,-793 1033,-802 136,-2 293,17 417,71 41,19 79,40 122,66 230,-87 476,-20 667,126 114,87 210,203 272,331 59,119 88,249 78,376l-40 606c30,115 24,243 -19,355 -37,99 -101,186 -194,244 -35,117 -91,262 -159,396 -56,108 -120,211 -188,288 3,82 9,181 30,270 20,88 55,166 118,204z"/>
<path d="M69.903,426.759c-22.5-5.895-38.9-13.395-38.9-22.395c0-11.502,2.3-23.605,6.7-34.807
	c4.099-10.299,10.099-19.895,17.899-27.395c6.2-6,17.801-10.303,27.2-13.701c5.601-2,11.101-3.799,16.8-5.5
	c10.4-3.199,19.3-5.799,31.4-13.299c10.8-6.201,16.401-17.603,19.3-29.899c2.5-10.8,2.9-22.3,3.2-31.1c0-2.901-1.1-5.5-3-7.301
	c-5.401-5.4-10.8-13.9-15.6-23.3c-6-12-10.9-25-13.5-34.7c-0.801-3-2.901-5.3-5.601-6.5c-5.3-2.699-8.899-7.5-11-13
	c-2.5-6.599-2.8-14.199-0.8-20.899c0.299-1.1,0.5-2.2,0.4-3.4l-3.601-54.6c-0.6-8.101,1.3-16.101,5-23.601
	c4.2-8.5,10.6-16.3,18.4-22.3c7.5-5.7,16.1-9.599,24.8-10.399c6.201-0.601,12.6,0.399,18.6,3.399c3.2,1.6,6.9,1.2,9.805-0.599
	c8.7-5.6,14.2-8.7,24.6-10.4c21.799-3.5,45.4,1.101,63.4,14.101c12.799,9.3,22.198,22.699,24.896,39.3
	c0.604,3.7,0.901,7.4,0.803,11.3l-3.5,53.8c-0.103,1.4,0.102,2.7,0.5,3.9c1.801,6.599,1.5,14-0.898,20.399
	c-2.2,5.7-5.901,10.5-11.3,13.2c-2.7,1.3-4.5,3.7-5.302,6.3c-2.601,9.801-7.5,22.701-13.601,34.601c-4.8,9.5-10.2,18.1-15.5,23.3
	c-2,2-3,4.6-3,7.1c0,8.6,0.6,20.3,3.3,31.399c0.624,2.577,1.372,5.114,2.254,7.571c5.637-3.746,11.558-7.119,17.727-10.086
	c-0.204-0.719-0.398-1.447-0.581-2.188c-1.9-7.5-2.5-15.9-2.7-22.8c5.899-6.8,11.5-15.7,16.399-25.2
	c5.8-11.6,10.8-24.1,13.896-34.5c8.104-5.201,13.7-12.9,17-21.6c3.803-10,4.401-21.5,1.803-31.7l3.397-52.2
	c0.3-4.8-0.3-11-1-15.8c-3.7-22.3-16-40-32.897-52.2c-22.103-16.099-51.399-22-78.303-17.7c-10.899,1.801-18.399,4.801-27.8,10.5
	c-7.8-2.899-15.901-3.8-23.8-3c-12.601,1.2-24.8,6.5-35.101,14.4c-10.099,7.7-18.699,18-24.199,29.4
	c-5.2,10.599-7.9,22.199-7,33.699l3.5,52.9c-2.601,10.3-2.101,21.7,1.699,31.7c3.301,8.701,9,16.4,17.101,21.6
	c3.099,10.3,8,22.9,13.899,34.5c4.801,9.5,10.401,18.401,16.301,25.101c-0.201,7.1-0.801,15.5-2.601,23
	c-1.7,7.598-4.7,14.196-9.899,17.196c-10.2,6.397-17.9,8.698-27,11.397c-6.101,1.9-12,3.801-18,6
	c-11.1,4.105-25,9.105-34.2,18.105c-9.8,9.5-17.4,21.5-22.5,34.395c-5.4,13.605-8.2,28.201-8.2,42.105
	c0,20.395,22.7,33.5,53.9,41.695c39.381,10.232,93.661,13.662,127.515,13.889c-2.885-6.465-5.289-13.176-7.161-20.096
	C152.331,439.224,104.608,435.726,69.903,426.759z"/>
<path d="M305.939,276.025c67.376,0,122,54.623,122,122c0,67.376-54.624,122-122,122s-122-54.624-122-122
	C183.939,330.648,238.563,276.025,305.939,276.025z M305.939,285.418c-62.223,0-112.619,50.384-112.619,112.606
	s50.396,112.607,112.619,112.607s112.606-50.385,112.606-112.607S368.162,285.418,305.939,285.418z M296.545,369.868v-46.921
	c6.246,0,12.544,0,18.785,0v47.338l-4.941,55.847c-2.939,0.051-5.855,0.051-8.769,0.051L296.545,369.868z M296.545,463.71v-18.764
	h18.785v18.764H296.545z"/>
</svg>
