<?xml version="1.0" encoding="UTF-8"?>
<!DOCTYPE svg PUBLIC "-//W3C//DTD SVG 1.1//EN" "http://www.w3.org/Graphics/SVG/1.1/DTD/svg11.dtd">
<svg xmlns="http://www.w3.org/2000/svg" xml:space="preserve" width="580px" height="580px" shape-rendering="geometricPrecision" text-rendering="geometricPrecision" image-rendering="optimizeQuality" fill-rule="nonzero" clip-rule="nonzero" viewBox="0 0 5800 5800" xmlns:xlink="http://www.w3.org/1999/xlink">
	<title>key3 icon</title>
	<desc>key3 icon from the IconExperience.com I-Collection. Copyright by INCORS GmbH (www.incors.com).</desc>
		<path id="curve28" fill="#000000" d="M4300 1000c276,0 500,224 500,500 0,276 -224,500 -500,500 -276,0 -500,-224 -500,-500 0,-276 224,-500 500,-500zm0 200c-166,0 -300,134 -300,300 0,166 134,300 300,300 166,0 300,-134 300,-300 0,-166 -134,-300 -300,-300zm-305 -901c828,0 1500,672 1500,1500 0,829 -672,1500 -1500,1500 -188,0 -374,-35 -549,-104l-305 305 -241 0c-49,0 -98,25 -136,64 -39,38 -64,88 -64,136l0 300 -300 0c-49,0 -98,25 -136,64 -39,38 -64,87 -64,136l0 300 -300 0c-49,0 -98,25 -136,64 -39,38 -64,88 -64,136l0 345 -181 157c-23,23 -51,38 -80,45 -31,7 -64,5 -96,-5l-523 -175c-36,-12 -66,-34 -87,-64 -21,-30 -33,-65 -33,-103l0 -300c0,-18 6,-65 15,-103 9,-37 23,-73 44,-95l1906 -1908c-111,-214 -170,-454 -170,-695 0,-828 672,-1500 1500,-1500zm0 200c-718,0 -1300,582 -1300,1300 0,283 77,487 219,728l-2002 2005c-15,15 -12,38 -12,68l0 284 492 164 108 -93 0 -255c0,-104 49,-204 122,-278 74,-73 174,-122 278,-122l100 0 0 -100c0,-104 49,-204 122,-278 74,-73 174,-122 278,-122l100 0 0 -100c0,-104 49,-204 122,-278 74,-73 174,-122 278,-122l159 0 341 -342c203,91 369,141 595,141 718,0 1300,-582 1300,-1300 0,-718 -582,-1300 -1300,-1300z"/>
</svg>