<?xml version="1.0" encoding="utf-8"?>
<svg
   xmlns:dc="http://purl.org/dc/elements/1.1/"
   xmlns:cc="http://creativecommons.org/ns#"
   xmlns:rdf="http://www.w3.org/1999/02/22-rdf-syntax-ns#"
   xmlns:svg="http://www.w3.org/2000/svg"
   xmlns="http://www.w3.org/2000/svg"
   id="svg11"
   version="1.1"
   viewBox="0 0 526 540"
   clip-rule="evenodd"
   fill-rule="nonzero"
   image-rendering="optimizeQuality"
   text-rendering="geometricPrecision"
   shape-rendering="geometricPrecision"
   height="526px"
   width="540px"
   xml:space="preserve">
<path id="curve29" d="M251.046,60.508c23.708,0,45.149,9.511,60.649,24.836c15.498,15.326,25.116,36.527,25.116,59.971
	c0,17.506-5.391,33.802-14.58,47.371l-12.804-3.211c9.496-12.235,15.132-27.562,15.132-44.16c0-20.051-8.209-38.224-21.503-51.43
	c-13.355-13.145-31.733-21.262-52.011-21.262c-20.278,0-38.656,8.117-52.012,21.262c-13.294,13.206-21.502,31.378-21.502,51.43
	c0,20.05,8.208,38.223,21.502,51.429c4.595,4.482,9.741,8.36,15.315,11.57v13.69c-8.944-4.18-17.03-9.875-23.953-16.719
	c-15.499-15.326-25.117-36.527-25.117-59.971c0-23.444,9.618-44.645,25.117-59.971C205.896,70.019,227.337,60.508,251.046,60.508z
	 M251.229,115.027c8.455,0,16.113,3.393,21.626,8.845c3.247,3.21,5.759,7.147,7.29,11.51c-0.551-0.788-1.164-1.516-1.776-2.182
	c-0.428-0.484-0.857-0.969-1.348-1.454c-6.677-6.603-15.866-10.661-25.975-10.661c-10.109,0-19.236,4.059-25.914,10.661l0,0
	l-0.062,0.061c-0.857,0.848-1.715,1.756-2.45,2.726c1.532-4.059,3.92-7.632,6.922-10.661
	C235.118,118.42,242.775,115.027,251.229,115.027z M251.229,87.767c16.052,0,30.631,6.422,41.169,16.841
	c10.537,10.419,17.03,24.836,17.03,40.708c0,15.628-6.31,29.743-16.479,40.102l-5.146-1.272v-11.328
	c5.881-7.632,9.372-17.143,9.372-27.501c0-12.54-5.145-23.928-13.477-32.106c-8.271-8.238-19.788-13.327-32.47-13.327
	c-12.68,0-24.197,5.089-32.467,13.327c-8.332,8.178-13.478,19.566-13.478,32.106c0,10.177,3.369,19.566,9.066,27.138v17.385
	c-1.471-1.211-2.94-2.483-4.288-3.816c-10.537-10.419-17.031-24.836-17.031-40.707c0-15.872,6.494-30.289,17.031-40.708
	C220.598,94.189,235.179,87.767,251.229,87.767z"/>
<path id="curve28" d="M352.96,275.06c-3.369,5.089-8.086,11.086-9.924,16.962c-0.797,2.726-1.226,5.634-1.226,8.783v17.386
	h-12.253v-17.386c0-4.3,0.552-8.358,1.777-12.296c2.267-7.451,7.106-13.751,11.456-20.172c1.776-2.544,3.063-5.21,3.92-7.996
	c0.797-2.726,1.226-5.634,1.226-8.784v-23.14c0-7.814-5.085-14.296-12.742-16.175l-68.063-16.84
	c-2.817-0.545-4.962-2.968-4.962-5.936v-40.89c0-6.663-5.514-12.115-12.252-12.115s-12.252,5.452-12.252,12.115v90.381
	c0.061,0.908-0.061,1.877-0.429,2.726c-1.286,3.149-4.84,4.603-8.025,3.392l-15.805-6.361c-3.063-1.211-6.739-1.938-10.537-1.938
	c-3.982,0-7.903,0.727-11.211,2.544c-3.124,1.635-5.758,4.301-7.413,8.238c-0.551,1.332-0.98,2.847-1.286,4.482
	c4.962,0.727,10.782,2.12,16.418,4.18c6.8,2.544,13.416,6.118,18.133,10.722l18.378,18.173c1.716,1.756,4.228,3.271,6.678,4.785
	c6.861,4.24,13.478,8.359,13.478,17.688v10.601h-12.252V307.59c0-2.666-3.737-4.968-7.658-7.39
	c-3.124-1.939-6.249-3.878-8.944-6.483l-18.378-18.173c-3.37-3.392-8.393-6.057-13.662-7.995
	c-6.984-2.605-14.151-3.877-18.746-3.877c-3.369,0-6.126-2.726-6.126-6.057c0-5.634,0.98-10.48,2.634-14.6
	c2.757-6.724,7.413-11.388,12.865-14.296c5.33-2.847,11.272-4.058,17.092-4.058c5.391,0,10.721,1.029,15.131,2.787l7.413,3.029
	v-81.9c0-13.326,11.027-24.23,24.505-24.23s24.505,10.904,24.505,24.23v36.165l63.712,15.75
	c13.048,3.21,22.054,14.599,22.054,27.926v23.14c0,4.361-0.551,8.42-1.776,12.296C357.249,267.731,355.41,271.426,352.96,275.06z
	 M225.413,366.652v-18.173c0-9.995,8.27-18.173,18.379-18.173h98.019c10.108,0,18.378,8.178,18.378,18.173v18.173h-12.252v-18.173
	c0-3.332-2.757-6.058-6.126-6.058h-98.019c-3.37,0-6.126,2.726-6.126,6.058v18.173H225.413z"/>
<path id="curve29_1_" d="M435.9,252.88l33-32.9l-33-32.9l14.199-14.2l47,47.1l-47,47.1L435.9,252.88z M90.1,187.08l-33,32.9
	l33,32.9l-14.2,14.2l-47-47.1l47-47.1L90.1,187.08z"/>
<path id="curve28_1_" d="M523,19.98v380H3v-380H523z M143,499.98h110v-80h20v80h110v20H143V499.98z M503,39.98H23v340h480V39.98z"/>
</svg>
