<?xml version="1.0" encoding="utf-8"?>
<svg
   id="svg11"
   version="1.1"
   viewBox="0 0 5800 5800"
   clip-rule="evenodd"
   fill-rule="nonzero"
   image-rendering="optimizeQuality"
   text-rendering="geometricPrecision"
   shape-rendering="geometricPrecision"
   height="580"
   width="580"
   xml:space="preserve"
   xmlns="http://www.w3.org/2000/svg"
   xmlns:svg="http://www.w3.org/2000/svg"><defs
   id="defs3278" />



<g
   id="g3284"
   transform="matrix(10,0,0,10,270,200.2)"><path
     id="curve29"
     d="m 251.046,60.508 c 23.708,0 45.149,9.511 60.649,24.836 15.498,15.326 25.116,36.527 25.116,59.971 0,17.506 -5.391,33.802 -14.58,47.371 l -12.804,-3.211 c 9.496,-12.235 15.132,-27.562 15.132,-44.16 0,-20.051 -8.209,-38.224 -21.503,-51.43 -13.355,-13.145 -31.733,-21.262 -52.011,-21.262 -20.278,0 -38.656,8.117 -52.012,21.262 -13.294,13.206 -21.502,31.378 -21.502,51.43 0,20.05 8.208,38.223 21.502,51.429 4.595,4.482 9.741,8.36 15.315,11.57 v 13.69 c -8.944,-4.18 -17.03,-9.875 -23.953,-16.719 -15.499,-15.326 -25.117,-36.527 -25.117,-59.971 0,-23.444 9.618,-44.645 25.117,-59.971 15.501,-15.324 36.942,-24.835 60.651,-24.835 z m 0.183,54.519 c 8.455,0 16.113,3.393 21.626,8.845 3.247,3.21 5.759,7.147 7.29,11.51 -0.551,-0.788 -1.164,-1.516 -1.776,-2.182 -0.428,-0.484 -0.857,-0.969 -1.348,-1.454 -6.677,-6.603 -15.866,-10.661 -25.975,-10.661 -10.109,0 -19.236,4.059 -25.914,10.661 v 0 l -0.062,0.061 c -0.857,0.848 -1.715,1.756 -2.45,2.726 1.532,-4.059 3.92,-7.632 6.922,-10.661 5.576,-5.452 13.233,-8.845 21.687,-8.845 z m 0,-27.26 c 16.052,0 30.631,6.422 41.169,16.841 10.537,10.419 17.03,24.836 17.03,40.708 0,15.628 -6.31,29.743 -16.479,40.102 l -5.146,-1.272 v -11.328 c 5.881,-7.632 9.372,-17.143 9.372,-27.501 0,-12.54 -5.145,-23.928 -13.477,-32.106 -8.271,-8.238 -19.788,-13.327 -32.47,-13.327 -12.68,0 -24.197,5.089 -32.467,13.327 -8.332,8.178 -13.478,19.566 -13.478,32.106 0,10.177 3.369,19.566 9.066,27.138 v 17.385 c -1.471,-1.211 -2.94,-2.483 -4.288,-3.816 -10.537,-10.419 -17.031,-24.836 -17.031,-40.707 0,-15.872 6.494,-30.289 17.031,-40.708 10.537,-10.42 25.118,-16.842 41.168,-16.842 z" /><path
     id="curve28"
     d="m 352.96,275.06 c -3.369,5.089 -8.086,11.086 -9.924,16.962 -0.797,2.726 -1.226,5.634 -1.226,8.783 v 17.386 h -12.253 v -17.386 c 0,-4.3 0.552,-8.358 1.777,-12.296 2.267,-7.451 7.106,-13.751 11.456,-20.172 1.776,-2.544 3.063,-5.21 3.92,-7.996 0.797,-2.726 1.226,-5.634 1.226,-8.784 v -23.14 c 0,-7.814 -5.085,-14.296 -12.742,-16.175 l -68.063,-16.84 c -2.817,-0.545 -4.962,-2.968 -4.962,-5.936 v -40.89 c 0,-6.663 -5.514,-12.115 -12.252,-12.115 -6.738,0 -12.252,5.452 -12.252,12.115 v 90.381 c 0.061,0.908 -0.061,1.877 -0.429,2.726 -1.286,3.149 -4.84,4.603 -8.025,3.392 l -15.805,-6.361 c -3.063,-1.211 -6.739,-1.938 -10.537,-1.938 -3.982,0 -7.903,0.727 -11.211,2.544 -3.124,1.635 -5.758,4.301 -7.413,8.238 -0.551,1.332 -0.98,2.847 -1.286,4.482 4.962,0.727 10.782,2.12 16.418,4.18 6.8,2.544 13.416,6.118 18.133,10.722 l 18.378,18.173 c 1.716,1.756 4.228,3.271 6.678,4.785 6.861,4.24 13.478,8.359 13.478,17.688 v 10.601 H 243.792 V 307.59 c 0,-2.666 -3.737,-4.968 -7.658,-7.39 -3.124,-1.939 -6.249,-3.878 -8.944,-6.483 l -18.378,-18.173 c -3.37,-3.392 -8.393,-6.057 -13.662,-7.995 -6.984,-2.605 -14.151,-3.877 -18.746,-3.877 -3.369,0 -6.126,-2.726 -6.126,-6.057 0,-5.634 0.98,-10.48 2.634,-14.6 2.757,-6.724 7.413,-11.388 12.865,-14.296 5.33,-2.847 11.272,-4.058 17.092,-4.058 5.391,0 10.721,1.029 15.131,2.787 l 7.413,3.029 v -81.9 c 0,-13.326 11.027,-24.23 24.505,-24.23 13.478,0 24.505,10.904 24.505,24.23 v 36.165 l 63.712,15.75 c 13.048,3.21 22.054,14.599 22.054,27.926 v 23.14 c 0,4.361 -0.551,8.42 -1.776,12.296 -1.164,3.877 -3.003,7.572 -5.453,11.206 z m -127.547,91.592 v -18.173 c 0,-9.995 8.27,-18.173 18.379,-18.173 h 98.019 c 10.108,0 18.378,8.178 18.378,18.173 v 18.173 h -12.252 v -18.173 c 0,-3.332 -2.757,-6.058 -6.126,-6.058 h -98.019 c -3.37,0 -6.126,2.726 -6.126,6.058 v 18.173 z" /><path
     id="curve29_1_"
     d="m 435.9,252.88 33,-32.9 -33,-32.9 14.199,-14.2 47,47.1 -47,47.1 z m -345.8,-65.8 -33,32.9 33,32.9 -14.2,14.2 -47,-47.1 47,-47.1 z" /><path
     id="curve28_1_"
     d="m 523,19.98 v 380 H 3 v -380 z m -380,480 h 110 v -80 h 20 v 80 h 110 v 20 H 143 Z m 360,-460 H 23 v 340 h 480 z" /></g>
</svg>
