<?xml version="1.0" encoding="utf-8"?>
<!-- Generator: Adobe Illustrator 12.0.1, SVG Export Plug-In . SVG Version: 6.00 Build 51448)  -->
<!DOCTYPE svg PUBLIC "-//W3C//DTD SVG 1.1//EN" "http://www.w3.org/Graphics/SVG/1.1/DTD/svg11.dtd" [
	<!ENTITY ns_svg "http://www.w3.org/2000/svg">
	<!ENTITY ns_xlink "http://www.w3.org/1999/xlink">
]>
<svg  version="1.1" id="Ebene_1" xmlns="&ns_svg;" xmlns:xlink="&ns_xlink;" width="664.48" height="712.293"
	 viewBox="0 0 664.48 712.293" overflow="visible" enable-background="new 0 0 664.48 712.293" xml:space="preserve">
<path id="curve29" d="M621.737,514.718c11.657,11.251,11.657,29.964,0,41.214l-4.591,4.431c-1.025-4.079-2.778-8.045-5.072-11.602
	l1.146-1.051c0.846,0.874,11.295-13.813,0-24.714L473.277,387.984H361.721c-7.368,0-13.831,4.666-15.884,11.43
	c-3.986,0.058-8.517,0.058-12.442,0.407c2.114-13.468,14.193-23.495,28.326-23.495H478.23L621.737,514.718z"/>
<path id="curve28_1_" d="M597.578,549.693c11.656,11.251,11.656,29.964,0,41.216l-102.556,98.924
	c-11.658,11.251-30.985,11.309-42.642,0L308.874,551.269l0.061-112.392c0-15.214,12.804-27.573,28.627-27.573h116.509
	L597.578,549.693z M584.773,570.331L473.761,677.475L336.959,545.322l111.013-107.145L584.773,570.331z M567.681,570.331
	L447.972,454.617l-93.981,90.705l119.71,115.713L567.681,570.331z M368.124,450.887c0,9.617-8.152,17.486-18.119,17.486
	c-10.025,0-18.119-7.811-18.119-17.486c0-9.62,8.153-17.489,18.119-17.489C360.031,433.396,368.124,441.267,368.124,450.887z
	 M356.044,450.887c0-3.207-2.718-5.829-6.04-5.829c-3.382,0-6.04,2.563-6.04,5.829c0,3.262,2.719,5.828,6.04,5.828
	c1.571,0,3.081-0.524,4.289-1.69C355.441,453.917,356.044,452.4,356.044,450.887z M589.062,557.973l-139.943-135.01H337.562
	c-9.12,0-16.548,7.113-16.548,15.914l-0.06,107.553l139.942,135.183c7.066,6.764,18.604,6.764,25.671,0l102.495-98.924
	C596.069,575.926,596.069,564.733,589.062,557.973z"/>
<g>
	<path fill="none" d="M260.6,422.319l-1.6-0.602c-0.1,0-11.4-3.7-12.8-4.1c-2.3-0.7-28.9-9.9-27.5-11.7c-5.8-3.4-10.2-6.8-13.4-11.6
		c-3.4-4.802-5.4-10.602-6.2-18.302l-1.2-11.1H209c10.8,0,23.3,0,34.3-2.5c7.9-1.9,15.3-5,20.9-10.7c-7.5-13.2-12.5-31.5-15.7-50.5
		c-5.5-33.3-5.8-69.9-4.4-84.7c1-11.3-2.7-23.4-9.6-33.6c-6.6-9.9-16.1-17.8-26.8-20.8c-13.4-3.9-26.8-2-39.2,4.2l-4.5,2.2l-4.5-2.2
		c-12.4-6.2-25.7-8.1-39.2-4.2c-10.7,3-20.2,10.9-26.8,20.8c-6.8,10.2-10.6,22.3-9.6,33.6c1.4,14.8,1.1,51.4-4.4,84.7
		c-3.2,19-8.2,37.3-15.7,50.5c13.3,13.2,37,13.2,55.2,13.2h11.2l-1.3,11.2c-0.9,7.7-2.9,13.398-6.4,18.3c0,2.8-13.5,11.8-13.5,11.7
		c-10.5,6.5-18.2,8.8-27.2,11.5c-4.7,1.398-9.7,3-14.4,4.7c-7.9,2.898-17.7,6.5-22.7,11.3c-6.6,6.398-11.6,14.398-15.1,23.1
		c-3.7,9.3-5.6,19.5-5.6,29.2c0,6.9,13.6,12.9,32.3,17.7c33,8.6,79.9,11.3,107.7,11.3s74.7-2.7,107.7-11.3
		c4.919-1.263,9.48-2.609,13.539-4.032v-63.97c-0.634-0.678-1.272-1.353-1.939-1.998C278.3,428.819,268.5,425.218,260.6,422.319z"/>
	<path d="M283,388.119c0.74,0.3,1.488,0.607,2.239,0.923v-2.604C284.494,387.024,283.771,387.578,283,388.119z"/>
	<path d="M271.7,503.619c-33,8.6-79.9,11.3-107.7,11.3s-74.7-2.7-107.7-11.3c-18.7-4.8-32.3-10.8-32.3-17.7c0-9.7,1.9-19.9,5.6-29.2
		c3.5-8.7,8.5-16.7,15.1-23.1c5-4.8,14.8-8.4,22.7-11.3c4.7-1.7,9.7-3.302,14.4-4.7c9-2.7,16.7-5,27.2-11.5
		c0,0.1,13.5-8.9,13.5-11.7c3.5-4.9,5.5-10.6,6.4-18.3l1.3-11.2H119c-18.2,0-41.9,0-55.2-13.2c7.5-13.2,12.5-31.5,15.7-50.5
		c5.5-33.3,5.8-69.9,4.4-84.7c-1-11.3,2.8-23.4,9.6-33.6c6.6-9.9,16.1-17.8,26.8-20.8c13.5-3.9,26.8-2,39.2,4.2l4.5,2.2l4.5-2.2
		c12.4-6.2,25.8-8.1,39.2-4.2c10.7,3,20.2,10.9,26.8,20.8c6.9,10.2,10.6,22.3,9.6,33.6c-1.4,14.8-1.1,51.4,4.4,84.7
		c3.2,19,8.2,37.3,15.7,50.5c-5.6,5.7-13,8.8-20.9,10.7c-11,2.5-23.5,2.5-34.3,2.5h-11.1l1.2,11.1c0.8,7.7,2.8,13.5,6.2,18.302
		c3.2,4.8,7.6,8.198,13.4,11.6c-1.4,1.8,25.2,11,27.5,11.7c1.4,0.398,12.7,4.1,12.8,4.1l1.6,0.602c7.9,2.898,17.7,6.5,22.7,11.3
		c0.667,0.646,1.306,1.32,1.939,1.998V410.99c-6.258-3.25-13.104-5.683-19.439-7.971c0.101-0.198-12.6-4.198-13.9-4.6
		c-7.7-2.3-14.2-4.2-22.6-9.5c0.3-2.1-4.1-2.3-6.1-4.2c8-0.3,16.3-1,24.6-2.898c14.4-3.302,27.9-10.102,37-23.9l3.9-5.8l-4.2-5.7
		c-7.8-10.399-13-28.7-16.3-48.5c-5.2-31.6-5.5-65.8-4.3-79.6c1.5-16-3.601-32.7-12.8-46.5c-9.2-13.7-22.6-24.6-37.9-28.9
		c-16.6-4.8-33.4-3.3-49.2,3.5c-15.8-6.8-32.6-8.3-49.2-3.5c-15.3,4.3-28.7,15.2-37.9,28.9c-9.2,13.8-14.3,30.5-12.8,46.5
		c1.2,13.8,0.9,48-4.3,79.6c-3.3,19.8-8.5,38.101-16.3,48.5l-4.2,5.7l3.9,5.8c14.7,22.101,39.4,26.101,61.5,26.8
		c-1.9,1.8-3.8,2.9-6,4.2c-8.4,5.3-14.9,7.2-22.6,9.5c-5.3,1.601-10.4,3.2-15.5,5.2c-9.7,3.5-21.7,7.898-29.8,15.7
		c-8.6,8.398-15.2,18.8-19.7,30c-4.7,11.8-7.1,24.6-7.1,36.6c0,18.3,19.9,29.9,47.3,37c35.1,9.101,84,12,112.7,12
		s77.6-2.899,112.7-12c2.94-0.762,5.787-1.579,8.539-2.447v-20.885C281.181,501.009,276.619,502.356,271.7,503.619z"/>
	<path d="M524,362.418c0-12-2.4-24.7-7.1-36.6c-4.5-11.2-11.102-21.602-19.699-29.9c-8.102-7.9-20.102-12.3-29.801-15.8
		c-5.102-1.9-10.199-3.601-15.5-5.1c-7.699-2.4-14.199-4.3-22.9-9.7c-4.1-2.5-6.399-7.8-7.799-13.7c-1.4-6.2-1.9-13-2.102-18.9
		c5-5.8,9.699-13.4,13.801-21.3c5-9.8,9.199-20.5,11.801-29.3c7-4.6,11.898-11.4,14.799-18.9c3.301-8.8,3.801-18.8,1.6-27.8l3-45.2
		c0.803-9.9-1.6-20.1-6.1-29.3c-4.9-10-12.299-19-21.199-25.8c-9-6.9-19.7-11.6-30.801-12.6c-6.799-0.6-13.699,0.1-20.399,2.5
		c-2.899-1.8-5.601-3.2-8.399-4.5c-9.699-4.3-21.8-5.7-32.3-5.5c-37.4,0.6-73.7,23.4-80,62.2c-0.7,4.2-1.2,9.5-0.9,13.7l2.9,44.5
		c-2.2,9-1.7,19,1.6,27.8c2.9,7.5,7.8,14.3,14.8,18.9c2.7,8.8,6.9,19.5,11.8,29.2c4.101,8,8.801,15.6,13.9,21.4
		c-0.2,5.8-0.8,12.6-2.2,18.7c-1.6,6.2-4,11.7-8.1,14.1c-5.2,3.2-9.5,5.1-13.7,6.6c0.6,6.7,1.5,13.5,2.5,20.2
		c6.8-2.101,13.3-4.601,21.5-9.7c9.3-5.4,14.4-15.5,17.1-26.5c2.4-9.6,2.9-19.8,2.9-27.2c0-2.6-1-5.1-3-7.1c-4.4-4.4-9-11.6-13-19.5
		c-5.2-10.1-9.4-21.1-11.6-29.4c-0.7-2.6-2.5-5-5.2-6.3c-4.3-2.1-7.3-6-9-10.5c-2-5.2-2.2-11.2-0.8-16.5c0.399-1.2,0.6-2.5,0.5-3.9
		l-3-46c0-3.2,0.199-6.3,0.699-9.3c4.7-29,33.101-45,60.601-45.5c7.5-0.2,17,0.8,23.899,3.9c3.101,1.3,6.2,3.2,10.101,5.7
		c2.801,1.8,6.5,2.2,9.801,0.6c4.899-2.4,10.1-3.2,15.199-2.8c7.1,0.7,14.301,3.9,20.5,8.7c6.5,5,11.898,11.5,15.398,18.6
		c3,6.1,4.602,12.7,4.102,19.3l-3.102,46.8c-0.1,1.2,0.102,2.3,0.4,3.4c1.6,5.5,1.4,11.7-0.699,17c-1.6,4.4-4.5,8.1-8.701,10.3
		c-2.6,1.2-4.697,3.5-5.5,6.5c-2.198,8.2-6.398,19.2-11.499,29.4c-4.101,7.9-8.601,15.1-13.101,19.5c-1.899,1.9-3,4.5-3,7.4
		c0.201,7.6,0.601,17.6,2.801,26.9c2.5,10.7,7.299,20.5,16.799,26.2c10.803,6.699,18.5,9.1,27.602,11.8
		c4.701,1.399,9.701,3,14.398,4.7c7.9,2.899,17.701,6.5,22.701,11.399c6.602,6.3,11.602,14.3,15.102,23c3.697,9.3,5.6,19.5,5.6,29.2
		c0,3.288-3.094,6.371-8.35,9.218h26.486C523.349,368.77,524,365.704,524,362.418z"/>
</g>
</svg>
