<?xml version="1.0" encoding="utf-8"?>
<!-- Generator: Adobe Illustrator 12.0.1, SVG Export Plug-In . SVG Version: 6.00 Build 51448)  -->
<!DOCTYPE svg PUBLIC "-//W3C//DTD SVG 1.1//EN" "http://www.w3.org/Graphics/SVG/1.1/DTD/svg11.dtd" [
	<!ENTITY ns_svg "http://www.w3.org/2000/svg">
	<!ENTITY ns_xlink "http://www.w3.org/1999/xlink">
]>
<svg  version="1.1" id="Ebene_1" xmlns="&ns_svg;" xmlns:xlink="&ns_xlink;" width="526" height="539.96" viewBox="0 0 526 539.96"
	 overflow="visible" enable-background="new 0 0 526 539.96" xml:space="preserve">
<path id="curve28" d="M272.5,22.98c139.457,0,252.5,112.595,252.5,251.5s-113.043,251.5-252.5,251.5
	C133.042,525.98,20,413.385,20,274.48S133.042,22.98,272.5,22.98z M272.5,42.326c-128.775,0-233.077,103.889-233.077,232.154
	c0,128.265,104.302,232.154,233.077,232.154c128.774,0,233.077-103.89,233.077-232.154C505.577,146.215,401.274,42.326,272.5,42.326
	z"/>
<path d="M331.477,363.801c11.313,7.98,22.9,10.204,35.095,15.343c8.536,3.531,19.173,7.98,26.151,15.575
	c7.521,8.284,13.279,18.642,17.209,29.843c4.2,11.738,6.3,24.398,6.3,36.442c0,17.262-17.208,28.386-40.988,35.367
	c-31.504,9.283-75.405,12.198-101.285,12.198c-25.88,0-69.782-2.917-101.286-12.198c-23.781-6.983-40.99-18.107-40.99-35.369
	c0-12.044,2.101-24.702,6.301-36.518c3.929-11.124,9.688-21.481,17.208-29.766c6.978-7.595,17.614-12.044,26.151-15.575
	c4.607-1.916,9.146-3.527,13.822-5.139c7.046-2.454,13.076-4.451,21.002-10.052c4.2-2.685,6.707-8.745,8.197-15.726
	c1.559-6.981,2.033-14.576,2.167-20.792c-4.607-5.83-9.011-13.731-12.737-22.17c-4.607-10.204-8.469-21.328-10.839-30.304
	c-6.233-4.45-10.637-11.125-13.144-18.72c-2.846-8.592-3.319-18.413-1.287-27.235l-2.643-45.877
	c-0.203-4.143,0.203-9.436,0.813-13.502c5.487-38.436,37.329-60.838,69.985-61.527c9.214-0.154,19.851,1.305,28.252,5.447
	c2.777,1.458,5.352,3.07,8.265,5.064c15.583-6.674,32.25-1.534,45.189,9.667c7.724,6.674,14.227,15.575,18.428,25.394
	c3.998,9.129,5.962,19.104,5.284,28.846l-2.71,46.492c2.032,8.823,1.627,18.642-1.287,27.234
	c-2.505,7.595-6.844,14.27-13.143,18.719c-2.371,8.977-6.165,20.101-10.771,30.38c-3.796,8.286-8.13,16.189-12.739,22.095
	c0.206,6.292,0.612,13.887,2.034,20.714C324.836,354.903,327.207,360.886,331.477,363.801z"/>
</svg>
