<?xml version="1.0" encoding="UTF-8" standalone="no"?>
<!DOCTYPE svg PUBLIC "-//W3C//DTD SVG 1.1//EN" "http://www.w3.org/Graphics/SVG/1.1/DTD/svg11.dtd">
<svg width="100%" height="100%" viewBox="0 0 7016 4961" version="1.1" xmlns="http://www.w3.org/2000/svg" xmlns:xlink="http://www.w3.org/1999/xlink" xml:space="preserve" xmlns:serif="http://www.serif.com/" style="fill-rule:evenodd;clip-rule:evenodd;">
    <g id="Ebene-1" serif:id="Ebene 1" transform="matrix(8.333333,0,0,8.333333,0,0)">
        <g transform="matrix(0.12,0,0,0.12,64.828346,560.409449)">
            <text x="-240.236px" y="44.348px" style="font-family:'Helvetica';font-size:75px;fill:rgb(29,29,27);">LeadSuccess Support <tspan x="513.096px 550.596px 592.308px " y="44.348px 44.348px 44.348px ">Tea</tspan>m by Messe Frankfurt V<tspan x="1425.95px 1467.662px " y="44.348px 44.348px ">en</tspan>ue GmbH</text>
            <text x="-240.236px" y="134.348px" style="font-family:'Helvetica-Light', 'Helvetica', sans-serif;font-weight:300;font-size:75px;fill:rgb(219,7,31);">multimedia-shop@messefrankfurt.com</text>
            <text x="1040.839px" y="134.348px" style="font-family:'Helvetica-Light', 'Helvetica', sans-serif;font-weight:300;font-size:75px;fill:rgb(29,29,27);">, +49 69-75 75-13 20</text>
            <rect x="-240.236" y="139.973" width="1281.075" height="3.75" style="fill:rgb(219,7,31);"/>
        </g>
    </g>
    <g id="Ebene-11" serif:id="Ebene 1" transform="matrix(8.333333,0,0,8.333333,0,0)">
        <g id="Additional-Cube" serif:id="Additional Cube" transform="matrix(1,0,0,1,508.251969,420.944882)">
            <rect x="198.425" y="-371.339" width="99.213" height="99.213" style="fill:rgb(219,7,31);"/>
        </g>
        <g transform="matrix(0.12,0,0,0.12,727.854193,65.878466)">
            <text x="-90.845px" y="540.09px" style="font-family:'Helvetica-Bold', 'Helvetica';font-weight:700;font-size:100px;fill:white;">LeadSuccess</text>
        </g>
        <g id="Corporate-Cube" serif:id="Corporate Cube" transform="matrix(1,0,0,1,610.299167,-21.259914)">
            <rect x="46.772" y="46.772" width="49.606" height="49.606" style="fill:none;"/>
            <g id="MF-logogram-cube_4C.eps" transform="matrix(0.17467,0,0,0.17467,71.574849,71.574888)">
                <g transform="matrix(1,0,0,1,-142,-142)">
                    <g>
                        <rect x="0" y="0" width="283.464" height="283.464" style="fill:white;fill-rule:nonzero;"/>
                        <rect x="127.837" y="148.668" width="83.339" height="83.339" style="fill:rgb(219,7,31);"/>
                        <path d="M118.678,158.773L71.998,137.01L93.767,90.327L118.678,101.946L140.441,112.096L118.678,158.773Z" style="fill:rgb(0,92,169);"/>
                        <path d="M152.154,116.27L141.848,103.076L131.89,90.327L157.829,70.067L178.096,96.003L152.154,116.27Z" style="fill:rgb(249,176,0);fill-rule:nonzero;"/>
                        <path d="M138.373,73.542L127.837,71.683L118.678,70.067L122.15,50.369L141.848,53.844L138.373,73.542Z" style="fill:rgb(219,7,31);fill-rule:nonzero;"/>
                    </g>
                </g>
            </g>
            <rect x="46.772" y="46.772" width="49.606" height="49.606" style="fill:none;stroke:rgb(80,84,86);stroke-width:0.5px;"/>
        </g>
        <g id="Headline" transform="matrix(0.12,0,0,0.12,48.141595,40.105452)">
            <text x="-101.18px" y="109.245px" style="font-family:'Helvetica';font-size:200px;fill:rgb(29,29,27);">LeadSuccess Basic: Paketübersicht</text>
            <text x="-101.18px" y="350.912px" style="font-family:'Helvetica-Light', 'Helvetica', sans-serif;font-weight:300;font-size:166.667px;fill:rgb(80,84,86);">F<tspan x="-10.18px 80.82px 171.82px 253.487px 298.153px 333.487px 424.487px 515.487px 597.153px 688.153px 825.32px 869.987px 960.987px 1051.987px 1152.153px 1196.82px 1232.153px 1323.153px 1423.32px 1514.32px 1595.987px 1640.653px 1731.653px 1766.987px 1857.987px 1939.653px 2030.653px 2065.987px 2156.987px 2247.987px 2338.987px 2383.653px 2483.82px 2574.82px 2656.487px 2747.487px 2792.153px " y="350.912px 350.912px 350.912px 350.912px 350.912px 350.912px 350.912px 350.912px 350.912px 350.912px 350.912px 350.912px 350.912px 350.912px 350.912px 350.912px 350.912px 350.912px 350.912px 350.912px 350.912px 350.912px 350.912px 350.912px 350.912px 350.912px 350.912px 350.912px 350.912px 350.912px 350.912px 350.912px 350.912px 350.912px 350.912px 350.912px 350.912px ">unktionsumfang jedes einzelnen Pakets</tspan></text>
        </g>
        <g id="_14_checkmark.svg" serif:id="14_checkmark.svg" transform="matrix(1,0,0,1,874.448919,-16341.732283)">
            <rect x="-830" y="16566.301" width="187.615" height="306.927" style="fill:rgb(219,7,31);"/>
            <g id="_14_checkmark.svg1" serif:id="14_checkmark.svg" transform="matrix(1,0,0,1,-800.480416,16587.228346)">
                <g transform="matrix(1,0,0,1,-16,-16)">
                    <g id="light_x28_1px_x29_">
                        <g>
                            <path d="M27.144,5.041L14.229,26.387L4.71,16.869L4.003,17.576L14.428,28L27.997,5.562L27.144,5.041Z" style="fill:white;fill-rule:nonzero;"/>
                        </g>
                    </g>
                </g>
            </g>
        </g>
        <g transform="matrix(1,0,0,1,874.448919,-16464.732283)">
            <g opacity="0.7">
                <rect x="-830" y="16634.811" width="187.615" height="54.49" style="fill:rgb(219,7,31);fill-rule:nonzero;"/>
            </g>
        </g>
        <g transform="matrix(1,0,0,1,404.335648,-16350.372817)">
            <rect x="-172.272" y="16574.942" width="188.382" height="306.927" style="fill:rgb(198,198,198);fill-rule:nonzero;"/>
        </g>
        <g transform="matrix(1,0,0,1,821.835648,-16350.372817)">
            <rect x="-401.39" y="16574.942" width="188.382" height="306.927" style="fill:rgb(198,198,198);fill-opacity:0.7;"/>
        </g>
        <g transform="matrix(1,0,0,1,1251.335648,-16350.372817)">
            <rect x="-642.508" y="16574.942" width="188.558" height="306.927" style="fill:rgb(198,198,198);fill-opacity:0.3;"/>
        </g>
        <g transform="matrix(1,0,0,1,1062.122357,-16464.732283)">
            <rect x="-830" y="16634.811" width="188.353" height="54.49" style="fill:rgb(23,58,100);fill-opacity:0.5;"/>
        </g>
        <g transform="matrix(1,0,0,1,1250.475005,-16464.732283)">
            <rect x="-830" y="16634.811" width="188.353" height="54.49" style="fill:rgb(23,58,100);fill-opacity:0.3;"/>
        </g>
        <g transform="matrix(1,0,0,1,1438.148443,-16464.732283)">
            <rect x="-829.321" y="16634.811" width="188.558" height="54.49" style="fill:rgb(23,58,100);fill-opacity:0.1;"/>
        </g>
        <g transform="matrix(0.12,0,0,0.12,172.279367,197.317323)">
            <text x="-953.378px" y="4.98px" style="font-family:'Helvetica';font-size:191.667px;fill:white;">Basic</text>
        </g>
        <g transform="matrix(0.12,0,0,0.12,361.34259,197.317323)">
            <text x="-953.378px" y="4.98px" style="font-family:'Helvetica';font-size:191.667px;fill:rgb(80,84,86);">Classic</text>
            <text x="-953.378px" y="144.98px" style="font-family:'Helvetica';font-size:116.667px;fill:rgb(80,84,86);">Funktionsupgrade</text>
        </g>
        <g transform="matrix(0.12,0,0,0.12,548.57858,197.317323)">
            <text x="-953.378px" y="4.98px" style="font-family:'Helvetica';font-size:191.667px;fill:rgb(80,84,86);">Premium</text>
            <text x="-953.378px" y="144.98px" style="font-family:'Helvetica';font-size:116.667px;fill:rgb(80,84,86);">Analyse</text>
        </g>
        <g transform="matrix(0.12,0,0,0.12,738.447494,197.317323)">
            <text x="-953.378px" y="4.98px" style="font-family:'Helvetica';font-size:191.667px;fill:rgb(80,84,86);">Professional</text>
            <text x="-953.378px" y="144.98px" style="font-family:'Helvetica';font-size:116.667px;fill:rgb(80,84,86);">Analyse</text>
        </g>
        <g transform="matrix(0.12,0,0,0.12,144.555551,277.562473)">
            <text x="-407.385px" y="-279.024px" style="font-family:'Helvetica-Light', 'Helvetica', sans-serif;font-weight:300;font-size:83.333px;fill:white;">In Ihrer Marketingpauschale</text>
            <text x="-407.385px" y="-195.69px" style="font-family:'Helvetica-Light', 'Helvetica', sans-serif;font-weight:300;font-size:83.333px;fill:white;">enthalten (kostenlos)</text>
            <text x="-407.385px" y="52.997px" style="font-family:'Helvetica-Light', 'Helvetica', sans-serif;font-weight:300;font-size:83.333px;fill:white;">Inklusive 5 App Lizenzen</text>
            <text x="-407.385px" y="136.331px" style="font-family:'Helvetica-Light', 'Helvetica', sans-serif;font-weight:300;font-size:83.333px;fill:white;">für Ihre Endgeräte</text>
            <text x="-407.385px" y="386.331px" style="font-family:'Helvetica-Light', 'Helvetica', sans-serif;font-weight:300;font-size:83.333px;fill:white;">Adressdatenerfassung per</text>
            <text x="-407.385px" y="469.664px" style="font-family:'Helvetica-Light', 'Helvetica', sans-serif;font-weight:300;font-size:83.333px;fill:white;">App via QR-Code des</text>
            <text x="-407.385px" y="552.997px" style="font-family:'Helvetica-Light', 'Helvetica', sans-serif;font-weight:300;font-size:83.333px;fill:white;">Besuchertickets inklusive</text>
            <text x="-407.385px" y="636.331px" style="font-family:'Helvetica-Light', 'Helvetica', sans-serif;font-weight:300;font-size:83.333px;fill:white;">Notizfeld</text>
            <text x="-407.385px" y="886.331px" style="font-family:'Helvetica-Light', 'Helvetica', sans-serif;font-weight:300;font-size:83.333px;fill:white;">Übermittelte</text>
            <text x="-407.385px" y="969.664px" style="font-family:'Helvetica-Light', 'Helvetica', sans-serif;font-weight:300;font-size:83.333px;fill:white;">Besucherdaten:</text>
            <text x="-407.385px" y="1052.997px" style="font-family:'Helvetica-Light', 'Helvetica', sans-serif;font-weight:300;font-size:83.333px;fill:white;">Anrede, Name, Vorname,</text>
            <text x="-407.385px" y="1136.331px" style="font-family:'Helvetica-Light', 'Helvetica', sans-serif;font-weight:300;font-size:83.333px;fill:white;">Firma, E-Mail, Telefon,</text>
            <text x="-407.385px" y="1219.664px" style="font-family:'Helvetica-Light', 'Helvetica', sans-serif;font-weight:300;font-size:83.333px;fill:white;">Adresse, Land,</text>
            <text x="-407.385px" y="1302.997px" style="font-family:'Helvetica-Light', 'Helvetica', sans-serif;font-weight:300;font-size:83.333px;fill:white;">Scan-Zeitpunkt</text>
            <text x="-407.385px" y="1552.997px" style="font-family:'Helvetica-Light', 'Helvetica', sans-serif;font-weight:300;font-size:83.333px;fill:white;">Export der Daten als</text>
            <text x="-407.385px" y="1636.331px" style="font-family:'Helvetica-Light', 'Helvetica', sans-serif;font-weight:300;font-size:83.333px;fill:white;">Exceldatei über das</text>
            <text x="-407.385px" y="1719.664px" style="font-family:'Helvetica-Light', 'Helvetica', sans-serif;font-weight:300;font-size:83.333px;fill:white;">LeadSuccess Webportal</text>
        </g>
        <g id="_14_checkmark.svg2" serif:id="14_checkmark.svg" transform="matrix(1,0,0,1,53.007874,269.291339)">
            <rect x="0" y="0" width="32" height="32" style="fill:none;"/>
            <clipPath id="_clip1">
                <rect x="0" y="0" width="32" height="32"/>
            </clipPath>
            <g clip-path="url(#_clip1)">
                <g id="_14_checkmark.svg3" serif:id="14_checkmark.svg" transform="matrix(1,0,0,1,20.96063,16)">
                    <g transform="matrix(1,0,0,1,-16,-16)">
                        <g id="light_x28_1px_x29_1" serif:id="light_x28_1px_x29_">
                            <g>
                                <path d="M27.144,5.041L14.229,26.387L4.71,16.869L4.003,17.576L14.428,28L27.997,5.562L27.144,5.041Z" style="fill:white;fill-rule:nonzero;"/>
                            </g>
                        </g>
                    </g>
                </g>
            </g>
        </g>
        <g id="_14_checkmark.svg4" serif:id="14_checkmark.svg" transform="matrix(1,0,0,1,51.874016,317.480315)">
            <rect x="0" y="0" width="32" height="32" style="fill:none;"/>
            <clipPath id="_clip2">
                <rect x="0" y="0" width="32" height="32"/>
            </clipPath>
            <g clip-path="url(#_clip2)">
                <g id="_14_checkmark.svg5" serif:id="14_checkmark.svg" transform="matrix(1,0,0,1,20.96063,16)">
                    <g transform="matrix(1,0,0,1,-16,-16)">
                        <g id="light_x28_1px_x29_2" serif:id="light_x28_1px_x29_">
                            <g>
                                <path d="M27.144,5.041L14.229,26.387L4.71,16.869L4.003,17.576L14.428,28L27.997,5.562L27.144,5.041Z" style="fill:white;fill-rule:nonzero;"/>
                            </g>
                        </g>
                    </g>
                </g>
            </g>
        </g>
        <g id="_14_checkmark.svg6" serif:id="14_checkmark.svg" transform="matrix(1,0,0,1,53.007874,387.527559)">
            <rect x="0" y="0" width="32" height="32" style="fill:none;"/>
            <clipPath id="_clip3">
                <rect x="0" y="0" width="32" height="32"/>
            </clipPath>
            <g clip-path="url(#_clip3)">
                <g id="_14_checkmark.svg7" serif:id="14_checkmark.svg" transform="matrix(1,0,0,1,20.96063,16)">
                    <g transform="matrix(1,0,0,1,-16,-16)">
                        <g id="light_x28_1px_x29_3" serif:id="light_x28_1px_x29_">
                            <g>
                                <path d="M27.144,5.041L14.229,26.387L4.71,16.869L4.003,17.576L14.428,28L27.997,5.562L27.144,5.041Z" style="fill:white;fill-rule:nonzero;"/>
                            </g>
                        </g>
                    </g>
                </g>
            </g>
        </g>
        <g id="_14_checkmark.svg8" serif:id="14_checkmark.svg" transform="matrix(1,0,0,1,57.968504,444.330709)">
            <rect x="0" y="0" width="32" height="32" style="fill:none;"/>
            <g id="_14_checkmark.svg9" serif:id="14_checkmark.svg" transform="matrix(1,0,0,1,16,16)">
                <g transform="matrix(1,0,0,1,-16,-16)">
                    <g id="light_x28_1px_x29_4" serif:id="light_x28_1px_x29_">
                        <g>
                            <path d="M27.144,5.041L14.229,26.387L4.71,16.869L4.003,17.576L14.428,28L27.997,5.562L27.144,5.041Z" style="fill:white;fill-rule:nonzero;"/>
                        </g>
                    </g>
                </g>
            </g>
        </g>
        <g transform="matrix(0.12,0,0,0.12,332.350827,277.479102)">
            <text x="-407.385px" y="-279.024px" style="font-family:'Helvetica-Light', 'Helvetica', sans-serif;font-weight:300;font-size:83.333px;fill:rgb(29,29,27);">Alle Leistungen des</text>
            <text x="-407.385px" y="-195.69px" style="font-family:'Helvetica-Light', 'Helvetica', sans-serif;font-weight:300;font-size:83.333px;fill:rgb(29,29,27);">Basic Pakets plus</text>
            <text x="-407.385px" y="54.31px" style="font-family:'Helvetica-Light', 'Helvetica', sans-serif;font-weight:300;font-size:83.333px;fill:rgb(29,29,27);">Scannen von Visitenkarten</text>
            <text x="-407.385px" y="137.643px" style="font-family:'Helvetica-Light', 'Helvetica', sans-serif;font-weight:300;font-size:83.333px;fill:rgb(29,29,27);">und manuelle Eingabe</text>
            <text x="-407.385px" y="220.976px" style="font-family:'Helvetica-Light', 'Helvetica', sans-serif;font-weight:300;font-size:83.333px;fill:rgb(29,29,27);">von Kontakten</text>
            <text x="-407.385px" y="470.976px" style="font-family:'Helvetica-Light', 'Helvetica', sans-serif;font-weight:300;font-size:83.333px;fill:rgb(29,29,27);">Individueller Messebericht</text>
            <g transform="matrix(83.333333,0,0,83.333333,264.114501,554.309711)">
            </g>
            <g transform="matrix(83.333333,0,0,83.333333,287.281168,554.309711)">
            </g>
            <text x="-407.385px" y="554.31px" style="font-family:'Helvetica-Light', 'Helvetica', sans-serif;font-weight:300;font-size:83.333px;fill:rgb(29,29,27);">zur weiteren Qualiﬁzierung</text>
            <text x="-407.385px" y="637.643px" style="font-family:'Helvetica-Light', 'Helvetica', sans-serif;font-weight:300;font-size:83.333px;fill:rgb(29,29,27);">der Kontakte</text>
            <text x="-407.385px" y="887.643px" style="font-family:'Helvetica-Light', 'Helvetica', sans-serif;font-weight:300;font-size:83.333px;fill:rgb(29,29,27);">Anhang von Fotos,</text>
            <text x="-407.385px" y="970.976px" style="font-family:'Helvetica-Light', 'Helvetica', sans-serif;font-weight:300;font-size:83.333px;fill:rgb(29,29,27);">Sprachmemos und</text>
            <text x="-407.385px" y="1054.31px" style="font-family:'Helvetica-Light', 'Helvetica', sans-serif;font-weight:300;font-size:83.333px;fill:rgb(29,29,27);">Skizzen</text>
            <text x="-407.385px" y="1304.31px" style="font-family:'Helvetica-Light', 'Helvetica', sans-serif;font-weight:300;font-size:83.333px;fill:rgb(29,29,27);">DSGVO Unterschriftsfeld</text>
            <text x="-407.385px" y="1554.31px" style="font-family:'Helvetica-Light', 'Helvetica', sans-serif;font-weight:300;font-size:83.333px;fill:rgb(29,29,27);">Automatisierter Versand</text>
            <text x="-407.385px" y="1637.643px" style="font-family:'Helvetica-Light', 'Helvetica', sans-serif;font-weight:300;font-size:83.333px;fill:rgb(29,29,27);">von Mailings an erfasste</text>
        </g>
        <g id="_14_checkmark_1.svg" serif:id="14_checkmark_1.svg" transform="matrix(1,0,0,1,246.228577,229.709653)">
            <g opacity="0.5">
                <rect x="0" y="0" width="32" height="32" style="fill:none;"/>
                <g id="_14_checkmark_1.svg1" serif:id="14_checkmark_1.svg" transform="matrix(1,0,0,1,16,16)">
                    <g transform="matrix(1,0,0,1,-16,-16)">
                        <g id="light_x28_1px_x29_5" serif:id="light_x28_1px_x29_">
                            <g>
                                <path d="M27.144,5.041L14.229,26.387L4.71,16.869L4.003,17.576L14.428,28L27.997,5.562L27.144,5.041Z" style="fill:rgb(1,2,2);fill-rule:nonzero;"/>
                            </g>
                        </g>
                    </g>
                </g>
            </g>
        </g>
        <g id="_14_checkmark_1.svg2" serif:id="14_checkmark_1.svg" transform="matrix(1,0,0,1,246.228577,275.882881)">
            <g opacity="0.5">
                <rect x="0" y="0" width="32" height="32" style="fill:none;"/>
                <g id="_14_checkmark_1.svg3" serif:id="14_checkmark_1.svg" transform="matrix(1,0,0,1,16,16)">
                    <g transform="matrix(1,0,0,1,-16,-16)">
                        <g id="light_x28_1px_x29_6" serif:id="light_x28_1px_x29_">
                            <g>
                                <path d="M27.144,5.041L14.229,26.387L4.71,16.869L4.003,17.576L14.428,28L27.997,5.562L27.144,5.041Z" style="fill:rgb(1,2,2);fill-rule:nonzero;"/>
                            </g>
                        </g>
                    </g>
                </g>
            </g>
        </g>
        <g id="_14_checkmark_1.svg4" serif:id="14_checkmark_1.svg" transform="matrix(1,0,0,1,245.80338,326.906503)">
            <g opacity="0.5">
                <rect x="0" y="0" width="32" height="32" style="fill:none;"/>
                <g id="_14_checkmark_1.svg5" serif:id="14_checkmark_1.svg" transform="matrix(1,0,0,1,16,16)">
                    <g transform="matrix(1,0,0,1,-16,-16)">
                        <g id="light_x28_1px_x29_7" serif:id="light_x28_1px_x29_">
                            <g>
                                <path d="M27.144,5.041L14.229,26.387L4.71,16.869L4.003,17.576L14.428,28L27.997,5.562L27.144,5.041Z" style="fill:rgb(1,2,2);fill-rule:nonzero;"/>
                            </g>
                        </g>
                    </g>
                </g>
            </g>
        </g>
        <g id="_14_checkmark_1.svg6" serif:id="14_checkmark_1.svg" transform="matrix(1,0,0,1,246.228577,372.150598)">
            <g opacity="0.5">
                <rect x="0" y="0" width="32" height="32" style="fill:none;"/>
                <g id="_14_checkmark_1.svg7" serif:id="14_checkmark_1.svg" transform="matrix(1,0,0,1,16,16)">
                    <g transform="matrix(1,0,0,1,-16,-16)">
                        <g id="light_x28_1px_x29_8" serif:id="light_x28_1px_x29_">
                            <g>
                                <path d="M27.144,5.041L14.229,26.387L4.71,16.869L4.003,17.576L14.428,28L27.997,5.562L27.144,5.041Z" style="fill:rgb(1,2,2);fill-rule:nonzero;"/>
                            </g>
                        </g>
                    </g>
                </g>
            </g>
        </g>
        <g id="_14_checkmark_1.svg8" serif:id="14_checkmark_1.svg" transform="matrix(1,0,0,1,246.228577,406.764771)">
            <g opacity="0.5">
                <rect x="0" y="0" width="32" height="32" style="fill:none;"/>
                <g id="_14_checkmark_1.svg9" serif:id="14_checkmark_1.svg" transform="matrix(1,0,0,1,16,16)">
                    <g transform="matrix(1,0,0,1,-16,-16)">
                        <g id="light_x28_1px_x29_9" serif:id="light_x28_1px_x29_">
                            <g>
                                <path d="M27.144,5.041L14.229,26.387L4.71,16.869L4.003,17.576L14.428,28L27.997,5.562L27.144,5.041Z" style="fill:rgb(1,2,2);fill-rule:nonzero;"/>
                            </g>
                        </g>
                    </g>
                </g>
            </g>
        </g>
        <g id="_14_checkmark_1.svg10" serif:id="14_checkmark_1.svg" transform="matrix(1,0,0,1,246.228577,444.614173)">
            <g opacity="0.5">
                <rect x="0" y="0" width="32" height="32" style="fill:none;"/>
                <g id="_14_checkmark_1.svg11" serif:id="14_checkmark_1.svg" transform="matrix(1,0,0,1,16,16)">
                    <g transform="matrix(1,0,0,1,-16,-16)">
                        <g id="light_x28_1px_x29_10" serif:id="light_x28_1px_x29_">
                            <g>
                                <path d="M27.144,5.041L14.229,26.387L4.71,16.869L4.003,17.576L14.428,28L27.997,5.562L27.144,5.041Z" style="fill:rgb(1,2,2);fill-rule:nonzero;"/>
                            </g>
                        </g>
                    </g>
                </g>
            </g>
        </g>
        <g transform="matrix(1,0,0,1,454.872164,47.87794)">
            <g transform="matrix(1,0,0,1,2.583333,-16332.889893)">
                <path d="M-232.149,16798.669C-232.149,16805.386 -237.602,16810.839 -244.318,16810.839L-394.081,16810.839C-400.797,16810.839 -406.25,16805.386 -406.25,16798.669C-406.25,16791.953 -400.797,16786.5 -394.081,16786.5L-244.318,16786.5C-237.602,16786.5 -232.149,16791.953 -232.149,16798.669Z" style="fill:rgb(23,58,100);"/>
            </g>
            <g transform="matrix(0.12,0,0,0.12,-280.476315,470.093352)">
                <text x="-690.08px" y="7.445px" style="font-family:'Helvetica-Bold', 'Helvetica';font-weight:700;font-size:125px;fill:white;">KOSTENLOS</text>
            </g>
        </g>
        <g transform="matrix(1,0,0,1,641.391307,47.87794)">
            <g transform="matrix(1,0,0,1,2.583333,-16332.889893)">
                <path d="M-232.149,16798.669C-232.149,16805.386 -237.602,16810.839 -244.318,16810.839L-394.081,16810.839C-400.797,16810.839 -406.25,16805.386 -406.25,16798.669C-406.25,16791.953 -400.797,16786.5 -394.081,16786.5L-244.318,16786.5C-237.602,16786.5 -232.149,16791.953 -232.149,16798.669Z" style="fill:rgb(23,58,100);"/>
            </g>
            <g transform="matrix(0.12,0,0,0.12,-280.476315,470.093352)">
                <text x="-469.316px" y="7.445px" style="font-family:'Helvetica-Bold', 'Helvetica';font-weight:700;font-size:125px;fill:white;">204 €</text>
            </g>
        </g>
        <g transform="matrix(0.12,0,0,0.12,520.854764,277.479102)">
            <text x="-407.385px" y="-279.024px" style="font-family:'Helvetica-Light', 'Helvetica', sans-serif;font-weight:300;font-size:83.333px;fill:rgb(29,29,27);">Alle Funktionen des</text>
            <text x="-407.385px" y="-195.69px" style="font-family:'Helvetica-Light', 'Helvetica', sans-serif;font-weight:300;font-size:83.333px;fill:rgb(29,29,27);">Classic Pakets plus</text>
            <text x="-407.385px" y="54.31px" style="font-family:'Helvetica-Light', 'Helvetica', sans-serif;font-weight:300;font-size:83.333px;fill:rgb(29,29,27);">Besucheranalyse in Form</text>
            <text x="-407.385px" y="137.643px" style="font-family:'Helvetica-Light', 'Helvetica', sans-serif;font-weight:300;font-size:83.333px;fill:rgb(29,29,27);">eines Dashboards mit</text>
            <text x="-407.385px" y="220.976px" style="font-family:'Helvetica-Light', 'Helvetica', sans-serif;font-weight:300;font-size:83.333px;fill:rgb(29,29,27);">Visualisierung der Daten</text>
            <text x="-407.385px" y="304.31px" style="font-family:'Helvetica-Light', 'Helvetica', sans-serif;font-weight:300;font-size:83.333px;fill:rgb(29,29,27);">in Analyse-Charts</text>
            <text x="-407.385px" y="554.31px" style="font-family:'Helvetica-Light', 'Helvetica', sans-serif;font-weight:300;font-size:83.333px;fill:rgb(29,29,27);">Möglichkeit, ausgewählte</text>
            <text x="-407.385px" y="637.643px" style="font-family:'Helvetica-Light', 'Helvetica', sans-serif;font-weight:300;font-size:83.333px;fill:rgb(29,29,27);">Daten im Dashboard</text>
            <text x="-407.385px" y="720.976px" style="font-family:'Helvetica-Light', 'Helvetica', sans-serif;font-weight:300;font-size:83.333px;fill:rgb(29,29,27);">miteinander zu kreuzen</text>
            <text x="-407.385px" y="804.31px" style="font-family:'Helvetica-Light', 'Helvetica', sans-serif;font-weight:300;font-size:83.333px;fill:rgb(29,29,27);">und auszuwerten</text>
            <text x="-407.385px" y="1054.31px" style="font-family:'Helvetica-Light', 'Helvetica', sans-serif;font-weight:300;font-size:83.333px;fill:rgb(29,29,27);">Zusätzlich übermittelte</text>
            <text x="-407.385px" y="1137.643px" style="font-family:'Helvetica-Light', 'Helvetica', sans-serif;font-weight:300;font-size:83.333px;fill:rgb(29,29,27);">Besucherdaten bei Scan</text>
            <text x="-407.385px" y="1220.976px" style="font-family:'Helvetica-Light', 'Helvetica', sans-serif;font-weight:300;font-size:83.333px;fill:rgb(29,29,27);">des Besuchertickets:</text>
            <text x="-407.385px" y="1304.31px" style="font-family:'Helvetica-Light', 'Helvetica', sans-serif;font-weight:300;font-size:83.333px;fill:rgb(29,29,27);">Branche, Abteilung,</text>
            <text x="-407.385px" y="1387.643px" style="font-family:'Helvetica-Light', 'Helvetica', sans-serif;font-weight:300;font-size:83.333px;fill:rgb(29,29,27);">Funktion,</text>
            <text x="-407.385px" y="1470.976px" style="font-family:'Helvetica-Light', 'Helvetica', sans-serif;font-weight:300;font-size:83.333px;fill:rgb(29,29,27);">Interessensgebiet</text>
        </g>
        <g id="_14_checkmark_1.svg12" serif:id="14_checkmark_1.svg" transform="matrix(1,0,0,1,434.598425,279.399324)">
            <g opacity="0.5">
                <rect x="0" y="0" width="32" height="32" style="fill:none;"/>
                <g id="_14_checkmark_1.svg13" serif:id="14_checkmark_1.svg" transform="matrix(1,0,0,1,16,16)">
                    <g transform="matrix(1,0,0,1,-16,-16)">
                        <g id="light_x28_1px_x29_11" serif:id="light_x28_1px_x29_">
                            <g>
                                <path d="M27.144,5.041L14.229,26.387L4.71,16.869L4.003,17.576L14.428,28L27.997,5.562L27.144,5.041Z" style="fill:rgb(1,2,2);fill-rule:nonzero;"/>
                            </g>
                        </g>
                    </g>
                </g>
            </g>
        </g>
        <g id="_14_checkmark_1.svg14" serif:id="14_checkmark_1.svg" transform="matrix(1,0,0,1,434.598425,338.328458)">
            <g opacity="0.5">
                <rect x="0" y="0" width="32" height="32" style="fill:none;"/>
                <g id="_14_checkmark_1.svg15" serif:id="14_checkmark_1.svg" transform="matrix(1,0,0,1,16,16)">
                    <g transform="matrix(1,0,0,1,-16,-16)">
                        <g id="light_x28_1px_x29_12" serif:id="light_x28_1px_x29_">
                            <g>
                                <path d="M27.144,5.041L14.229,26.387L4.71,16.869L4.003,17.576L14.428,28L27.997,5.562L27.144,5.041Z" style="fill:rgb(1,2,2);fill-rule:nonzero;"/>
                            </g>
                        </g>
                    </g>
                </g>
            </g>
        </g>
        <g id="_14_checkmark_1.svg16" serif:id="14_checkmark_1.svg" transform="matrix(1,0,0,1,434.173228,402.816647)">
            <g opacity="0.5">
                <rect x="0" y="0" width="32" height="32" style="fill:none;"/>
                <g id="_14_checkmark_1.svg17" serif:id="14_checkmark_1.svg" transform="matrix(1,0,0,1,16,16)">
                    <g transform="matrix(1,0,0,1,-16,-16)">
                        <g id="light_x28_1px_x29_13" serif:id="light_x28_1px_x29_">
                            <g>
                                <path d="M27.144,5.041L14.229,26.387L4.71,16.869L4.003,17.576L14.428,28L27.997,5.562L27.144,5.041Z" style="fill:rgb(1,2,2);fill-rule:nonzero;"/>
                            </g>
                        </g>
                    </g>
                </g>
            </g>
        </g>
        <g transform="matrix(1,0,0,1,831.178478,47.961312)">
            <g transform="matrix(1,0,0,1,2.583333,-16332.889893)">
                <path d="M-232.149,16798.669C-232.149,16805.386 -237.602,16810.839 -244.318,16810.839L-394.081,16810.839C-400.797,16810.839 -406.25,16805.386 -406.25,16798.669C-406.25,16791.953 -400.797,16786.5 -394.081,16786.5L-244.318,16786.5C-237.602,16786.5 -232.149,16791.953 -232.149,16798.669Z" style="fill:rgb(23,58,100);"/>
            </g>
            <g transform="matrix(0.12,0,0,0.12,-280.476315,470.093352)">
                <text x="-469.316px" y="7.445px" style="font-family:'Helvetica-Bold', 'Helvetica';font-weight:700;font-size:125px;fill:white;">316 €</text>
            </g>
        </g>
        <g transform="matrix(0.12,0,0,0.12,710.723678,277.562473)">
            <text x="-407.385px" y="-279.024px" style="font-family:'Helvetica-Light', 'Helvetica', sans-serif;font-weight:300;font-size:83.333px;fill:rgb(29,29,27);">Alle Funktionen des</text>
            <text x="-407.385px" y="-195.69px" style="font-family:'Helvetica-Light', 'Helvetica', sans-serif;font-weight:300;font-size:83.333px;fill:rgb(29,29,27);">Premium Pakets plus</text>
            <text x="-407.385px" y="54.31px" style="font-family:'Helvetica-Light', 'Helvetica', sans-serif;font-weight:300;font-size:83.333px;fill:rgb(29,29,27);">Potentialanalyse Ihrer</text>
            <text x="-407.385px" y="137.643px" style="font-family:'Helvetica-Light', 'Helvetica', sans-serif;font-weight:300;font-size:83.333px;fill:rgb(29,29,27);">Leads im Verhältnis zur</text>
            <text x="-407.385px" y="220.976px" style="font-family:'Helvetica-Light', 'Helvetica', sans-serif;font-weight:300;font-size:83.333px;fill:rgb(29,29,27);">gesamten Messe</text>
            <text x="-407.385px" y="470.976px" style="font-family:'Helvetica-Light', 'Helvetica', sans-serif;font-weight:300;font-size:83.333px;fill:rgb(29,29,27);">Die vom Badge</text>
            <text x="-407.385px" y="554.31px" style="font-family:'Helvetica-Light', 'Helvetica', sans-serif;font-weight:300;font-size:83.333px;fill:rgb(29,29,27);">gescannten Daten werden</text>
            <text x="-407.385px" y="637.643px" style="font-family:'Helvetica-Light', 'Helvetica', sans-serif;font-weight:300;font-size:83.333px;fill:rgb(29,29,27);">mit allen vor Ort</text>
            <text x="-407.385px" y="720.976px" style="font-family:'Helvetica-Light', 'Helvetica', sans-serif;font-weight:300;font-size:83.333px;fill:rgb(29,29,27);">gewesenen Besuchern</text>
            <text x="-407.385px" y="804.31px" style="font-family:'Helvetica-Light', 'Helvetica', sans-serif;font-weight:300;font-size:83.333px;fill:rgb(29,29,27);">verglichen</text>
        </g>
        <g id="_14_checkmark_1.svg18" serif:id="14_checkmark_1.svg" transform="matrix(1,0,0,1,623.758678,229.876397)">
            <g opacity="0.5">
                <rect x="0" y="0" width="32" height="32" style="fill:none;"/>
                <g id="_14_checkmark_1.svg19" serif:id="14_checkmark_1.svg" transform="matrix(1,0,0,1,16,16)">
                    <g transform="matrix(1,0,0,1,-16,-16)">
                        <g id="light_x28_1px_x29_14" serif:id="light_x28_1px_x29_">
                            <g>
                                <path d="M27.144,5.041L14.229,26.387L4.71,16.869L4.003,17.576L14.428,28L27.997,5.562L27.144,5.041Z" style="fill:rgb(1,2,2);fill-rule:nonzero;"/>
                            </g>
                        </g>
                    </g>
                </g>
            </g>
        </g>
        <g id="_14_checkmark_1.svg20" serif:id="14_checkmark_1.svg" transform="matrix(1,0,0,1,623.758678,273.923641)">
            <g opacity="0.5">
                <rect x="0" y="0" width="32" height="32" style="fill:none;"/>
                <g id="_14_checkmark_1.svg21" serif:id="14_checkmark_1.svg" transform="matrix(1,0,0,1,16,16)">
                    <g transform="matrix(1,0,0,1,-16,-16)">
                        <g id="light_x28_1px_x29_15" serif:id="light_x28_1px_x29_">
                            <g>
                                <path d="M27.144,5.041L14.229,26.387L4.71,16.869L4.003,17.576L14.428,28L27.997,5.562L27.144,5.041Z" style="fill:rgb(1,2,2);fill-rule:nonzero;"/>
                            </g>
                        </g>
                    </g>
                </g>
            </g>
        </g>
        <g id="_14_checkmark_1.svg22" serif:id="14_checkmark_1.svg" transform="matrix(1,0,0,1,624.042143,327.781908)">
            <g opacity="0.5">
                <rect x="0" y="0" width="32" height="32" style="fill:none;"/>
                <g id="_14_checkmark_1.svg23" serif:id="14_checkmark_1.svg" transform="matrix(1,0,0,1,16,16)">
                    <g transform="matrix(1,0,0,1,-16,-16)">
                        <g id="light_x28_1px_x29_16" serif:id="light_x28_1px_x29_">
                            <g>
                                <path d="M27.144,5.041L14.229,26.387L4.71,16.869L4.003,17.576L14.428,28L27.997,5.562L27.144,5.041Z" style="fill:rgb(1,2,2);fill-rule:nonzero;"/>
                            </g>
                        </g>
                    </g>
                </g>
            </g>
        </g>
        <g transform="matrix(1,0,0,1,1020.485564,47.961312)">
            <g transform="matrix(1,0,0,1,2.583333,-16332.889893)">
                <path d="M-232.149,16798.669C-232.149,16805.386 -237.602,16810.839 -244.318,16810.839L-394.081,16810.839C-400.797,16810.839 -406.25,16805.386 -406.25,16798.669C-406.25,16791.953 -400.797,16786.5 -394.081,16786.5L-244.318,16786.5C-237.602,16786.5 -232.149,16791.953 -232.149,16798.669Z" style="fill:rgb(23,58,100);"/>
            </g>
            <g transform="matrix(0.12,0,0,0.12,-280.476315,470.093352)">
                <text x="-469.316px" y="7.445px" style="font-family:'Helvetica-Bold', 'Helvetica';font-weight:700;font-size:125px;fill:white;">527 €</text>
            </g>
        </g>
        <g id="_14_checkmark_1.svg24" serif:id="14_checkmark_1.svg" transform="matrix(1,0,0,1,434.612205,231.041339)">
            <g opacity="0.5">
                <rect x="0" y="0" width="32" height="32" style="fill:none;"/>
                <g id="_14_checkmark_1.svg25" serif:id="14_checkmark_1.svg" transform="matrix(1,0,0,1,16,16)">
                    <g transform="matrix(1,0,0,1,-16,-16)">
                        <g id="light_x28_1px_x29_17" serif:id="light_x28_1px_x29_">
                            <g>
                                <path d="M27.144,5.041L14.229,26.387L4.71,16.869L4.003,17.576L14.428,28L27.997,5.562L27.144,5.041Z" style="fill:rgb(1,2,2);fill-rule:nonzero;"/>
                            </g>
                        </g>
                    </g>
                </g>
            </g>
        </g>
    </g>
</svg>
