<?xml version="1.0" encoding="UTF-8" standalone="no"?>
<!-- Created with Inkscape (http://www.inkscape.org/) -->

<svg
   version="1.1"
   id="svg2"
   xml:space="preserve"
   width="1000.0004"
   height="225.48694"
   viewBox="0 0 1000.0004 225.48694"
   sodipodi:docname="903849c86c49b08061a87abd13625589.eps"
   xmlns:inkscape="http://www.inkscape.org/namespaces/inkscape"
   xmlns:sodipodi="http://sodipodi.sourceforge.net/DTD/sodipodi-0.dtd"
   xmlns="http://www.w3.org/2000/svg"
   xmlns:svg="http://www.w3.org/2000/svg"><defs
     id="defs6" /><sodipodi:namedview
     id="namedview4"
     pagecolor="#ffffff"
     bordercolor="#666666"
     borderopacity="1.0"
     inkscape:pageshadow="2"
     inkscape:pageopacity="0.0"
     inkscape:pagecheckerboard="0" /><g
     id="g8"
     inkscape:groupmode="layer"
     inkscape:label="ink_ext_XXXXXX"
     transform="matrix(1.3333333,0,0,-1.3333333,0,225.48537)"><g
       id="g10"
       transform="scale(0.1)"><path
         d="M 465.859,315.898 V 199.961 H 0 V 937.035 H 134.023 V 315.898 h 331.836"
         style="fill:#ffffff;fill-opacity:1;fill-rule:nonzero;stroke:none"
         id="path12" /><path
         d="M 676.77,199.961 H 548.066 V 756.227 H 676.77 Z m 13.828,718.992 c 0,-24.105 -7.817,-43.25 -23.403,-57.43 -15.601,-14.195 -34.043,-21.269 -55.308,-21.269 -21.992,0 -40.782,7.074 -56.367,21.269 -15.61,14.18 -23.403,33.325 -23.403,57.43 0,24.817 7.793,44.313 23.403,58.496 15.585,14.18 34.375,21.278 56.367,21.278 21.265,0 39.707,-7.098 55.308,-21.278 15.586,-14.183 23.403,-33.679 23.403,-58.496"
         style="fill:#ffffff;fill-opacity:1;fill-rule:nonzero;stroke:none"
         id="path14" /><path
         d="M 968.047,199.961 C 932.449,272.969 895.957,356.84 858.586,451.512 821.191,546.16 787.207,647.73 756.582,756.227 h 137.266 c 7.824,-31.219 16.894,-64.715 27.226,-100.516 10.313,-35.813 21.348,-71.633 33.098,-107.422 11.746,-35.82 23.848,-70.57 36.316,-104.23 12.462,-33.68 24.022,-64.008 34.712,-90.938 10.67,26.93 22.07,57.258 34.17,90.938 12.1,33.66 24.03,68.41 35.79,104.23 11.72,35.789 22.94,71.609 33.63,107.422 10.66,35.801 19.92,69.297 27.77,100.516 h 132.98 C 1258.94,647.73 1224.92,546.16 1187.55,451.512 1150.16,356.84 1113.68,272.969 1078.08,199.961 H 968.047"
         style="fill:#ffffff;fill-opacity:1;fill-rule:nonzero;stroke:none"
         id="path16" /><path
         d="m 1694.4,532.871 c 0,17.719 -2.49,34.559 -7.44,50.52 -4.98,15.949 -12.23,29.781 -21.8,41.48 -9.57,11.699 -21.27,20.91 -35.11,27.649 -13.82,6.73 -30.3,10.109 -49.45,10.109 -19.86,0 -37.23,-3.719 -52.12,-11.168 -14.89,-7.449 -27.48,-17.199 -37.76,-29.25 -10.28,-12.063 -18.26,-25.891 -23.92,-41.481 -5.69,-15.601 -9.58,-31.558 -11.7,-47.859 z m -373.33,-57.43 c 0,48.918 7.27,91.821 21.81,128.688 14.53,36.859 33.86,67.531 57.97,92.008 24.09,24.457 51.76,42.886 82.96,55.297 31.2,12.402 63.1,18.613 95.72,18.613 76.58,0 136.32,-23.766 179.22,-71.254 42.89,-47.523 64.36,-118.422 64.36,-212.723 0,-7.101 -0.2,-15.082 -0.54,-23.929 -0.36,-8.879 -0.9,-16.86 -1.6,-23.93 h -366.95 c 3.55,-44.672 19.32,-79.242 47.34,-103.699 28.01,-24.473 68.6,-36.703 121.78,-36.703 31.2,0 59.73,2.82 85.62,8.511 25.88,5.668 46.27,11.7 61.16,18.078 l 17.01,-105.296 c -7.09,-3.563 -16.84,-7.282 -29.24,-11.172 -12.42,-3.91 -26.6,-7.45 -42.55,-10.641 -15.95,-3.18 -33.16,-5.848 -51.58,-7.969 -18.44,-2.129 -37.22,-3.191 -56.37,-3.191 -48.93,0 -91.48,7.281 -127.63,21.801 -36.17,14.519 -65.95,34.742 -89.35,60.629 -23.4,25.871 -40.78,56.371 -52.11,91.472 -11.35,35.098 -17.03,73.559 -17.03,115.41"
         style="fill:#ffffff;fill-opacity:1;fill-rule:nonzero;stroke:none"
         id="path18" /><path
         d="m 2077.29,531.809 v -224.43 c 14.89,-1.418 30.84,-2.488 47.87,-3.199 17.02,-0.711 32.6,-1.059 46.79,-1.059 27.66,0 53.35,1.77 77.11,5.328 23.76,3.539 44.31,9.731 61.7,18.61 17.37,8.863 31.19,20.742 41.48,35.632 10.27,14.887 15.42,34.039 15.42,57.438 0,41.832 -15.26,70.883 -45.74,87.211 -30.48,16.301 -72.69,24.469 -126.57,24.469 z m 0,105.293 h 94.66 c 51.07,0 91.12,7.269 120.2,21.808 29.06,14.52 43.6,40.582 43.6,78.168 0,35.449 -15.07,60.633 -45.2,75.516 -30.14,14.894 -69.32,22.344 -117.53,22.344 -20.58,0 -38.82,-0.368 -54.78,-1.071 -15.95,-0.711 -29.61,-1.777 -40.95,-3.187 z m 90.42,-445.661 c -39.01,0 -78.36,1.25 -118.07,3.731 -39.72,2.488 -74.45,7.609 -104.23,15.418 v 715.812 c 15.59,2.825 32.26,5.481 49.99,7.977 17.72,2.48 35.79,4.426 54.24,5.844 18.44,1.418 36.7,2.488 54.77,3.203 18.09,0.695 35.27,1.062 51.59,1.062 44.67,0 86.16,-3.379 124.44,-10.109 38.3,-6.742 71.44,-17.918 99.45,-33.5 28.01,-15.609 49.81,-36.168 65.41,-61.695 15.59,-25.524 23.4,-57.086 23.4,-94.657 0,-34.754 -8.34,-64.539 -24.99,-89.347 -16.67,-24.821 -39.88,-44.668 -69.68,-59.559 44.68,-14.891 77.66,-36.883 98.93,-65.941 21.28,-29.09 31.91,-65.95 31.91,-110.621 0,-75.879 -27.66,-132.789 -82.97,-170.719 -55.3,-37.942 -140.04,-56.899 -254.19,-56.899"
         style="fill:#ffffff;fill-opacity:1;fill-rule:nonzero;stroke:none"
         id="path20" /><path
         d="m 2939.25,640.301 c -10.64,3.527 -25.37,7.258 -44.15,11.16 -18.79,3.891 -40.59,5.848 -65.4,5.848 -14.2,0 -29.25,-1.43 -45.21,-4.258 -15.95,-2.84 -27.12,-5.321 -33.5,-7.442 V 199.961 h -128.7 v 529.672 c 24.82,9.215 55.84,17.894 93.07,26.058 37.23,8.145 78.53,12.239 123.9,12.239 8.52,0 18.44,-0.543 29.79,-1.602 11.33,-1.055 22.69,-2.492 34.03,-4.258 11.34,-1.773 22.34,-3.906 32.97,-6.379 10.64,-2.488 19.15,-4.785 25.53,-6.918 l -22.33,-108.472"
         style="fill:#ffffff;fill-opacity:1;fill-rule:nonzero;stroke:none"
         id="path22" /><path
         d="m 3167.19,199.961 h -128.7 v 556.266 h 128.7 z m 13.82,718.992 c 0,-24.105 -7.81,-43.25 -23.4,-57.43 -15.61,-14.195 -34.04,-21.269 -55.32,-21.269 -21.98,0 -40.77,7.074 -56.36,21.269 -15.6,14.18 -23.4,33.325 -23.4,57.43 0,24.817 7.8,44.313 23.4,58.496 15.59,14.18 34.38,21.278 56.36,21.278 21.28,0 39.71,-7.098 55.32,-21.278 15.59,-14.183 23.4,-33.679 23.4,-58.496"
         style="fill:#ffffff;fill-opacity:1;fill-rule:nonzero;stroke:none"
         id="path24" /><path
         d="m 3407.54,479.691 c 0,-56.742 13.46,-101.222 40.41,-133.48 26.94,-32.281 64.17,-48.402 111.68,-48.402 20.56,0 38.1,0.882 52.65,2.66 14.52,1.75 26.4,3.711 35.63,5.851 v 319.078 c -11.36,7.793 -26.43,15.063 -45.2,21.801 -18.79,6.731 -38.82,10.11 -60.09,10.11 -46.81,0 -81.02,-15.95 -102.65,-47.86 -21.63,-31.91 -32.43,-75.168 -32.43,-129.758 z m 369.07,-262.722 c -25.54,-7.821 -57.63,-14.891 -96.27,-21.278 -38.64,-6.371 -79.23,-9.562 -121.77,-9.562 -43.98,0 -83.34,6.742 -118.07,20.199 -34.74,13.461 -64.35,32.793 -88.8,57.973 -24.46,25.168 -43.26,55.668 -56.38,91.48 -13.12,35.789 -19.68,76.039 -19.68,120.719 0,43.949 5.48,83.84 16.49,119.648 10.99,35.801 27.13,66.481 48.4,92.012 21.28,25.52 47.15,45.203 77.64,59.028 30.47,13.824 65.57,20.742 105.3,20.742 26.94,0 50.68,-3.2 71.26,-9.575 20.55,-6.378 38.29,-13.484 53.18,-21.277 v 266.962 l 128.7,21.28 V 216.969"
         style="fill:#ffffff;fill-opacity:1;fill-rule:nonzero;stroke:none"
         id="path26" /><path
         d="m 4017.72,492.449 c 0,-54.609 11.87,-94.5 35.64,-119.66 23.75,-25.168 54.41,-37.75 92,-37.75 20.56,0 39.88,2.832 57.97,8.5 18.08,5.68 32.78,12.41 44.13,20.223 v 288.226 c -9.22,2.133 -20.58,4.071 -34.03,5.852 -13.48,1.762 -30.5,2.66 -51.06,2.66 -46.78,0 -82.6,-15.43 -107.42,-46.262 -24.83,-30.847 -37.23,-71.449 -37.23,-121.789 z M 4376.16,256.32 c 0,-88.629 -22.51,-153.5 -67.54,-194.6403 -45.04,-41.1094 -113.98,-61.6914188 -206.87,-61.6914188 -34.03,0 -67.19,2.8437488 -99.45,8.5234388 -32.27,5.66798 -61.52,13.11718 -87.74,22.31638 l 23.4,109.5629 c 21.96,-9.211 46.95,-16.661 74.98,-22.34 28.01,-5.66 58.31,-8.5 90.94,-8.5 51.75,0 88.63,10.629 110.61,31.898 21.97,21.281 32.97,52.832 32.97,94.672 v 21.27 c -12.76,-6.379 -29.61,-12.762 -50.52,-19.153 -20.91,-6.379 -44.85,-9.566 -71.79,-9.566 -35.46,0 -67.9,5.668 -97.32,17.019 -29.43,11.329 -54.61,28 -75.52,49.989 -20.91,21.968 -37.22,49.468 -48.92,82.429 -11.71,32.973 -17.55,71.082 -17.55,114.34 0,40.422 6.2,77.641 18.61,111.68 12.41,34.043 30.48,63.101 54.25,87.219 23.74,24.097 52.64,42.886 86.68,56.371 34.03,13.457 72.68,20.211 115.94,20.211 41.82,0 81.52,-3.2 119.12,-9.575 37.57,-6.378 69.48,-13.132 95.72,-20.214 V 256.32"
         style="fill:#ffffff;fill-opacity:1;fill-rule:nonzero;stroke:none"
         id="path28" /><path
         d="m 4859.99,532.871 c 0,17.719 -2.49,34.559 -7.44,50.52 -4.98,15.949 -12.24,29.781 -21.81,41.48 -9.57,11.699 -21.27,20.91 -35.11,27.649 -13.81,6.73 -30.3,10.109 -49.45,10.109 -19.85,0 -37.22,-3.719 -52.12,-11.168 -14.88,-7.449 -27.48,-17.199 -37.75,-29.25 -10.28,-12.063 -18.26,-25.891 -23.94,-41.481 -5.67,-15.601 -9.57,-31.558 -11.69,-47.859 z m -373.33,-57.43 c 0,48.918 7.27,91.821 21.81,128.688 14.53,36.859 33.85,67.531 57.97,92.008 24.09,24.457 51.75,42.886 82.95,55.297 31.21,12.402 63.11,18.613 95.73,18.613 76.58,0 136.32,-23.766 179.22,-71.254 42.89,-47.523 64.35,-118.422 64.35,-212.723 0,-7.101 -0.19,-15.082 -0.54,-23.929 -0.36,-8.879 -0.89,-16.86 -1.6,-23.93 h -366.94 c 3.54,-44.672 19.32,-79.242 47.33,-103.699 28.01,-24.473 68.61,-36.703 121.79,-36.703 31.19,0 59.73,2.82 85.62,8.511 25.87,5.668 46.27,11.7 61.16,18.078 l 17.01,-105.296 c -7.09,-3.563 -16.85,-7.282 -29.25,-11.172 -12.41,-3.91 -26.59,-7.45 -42.55,-10.641 -15.94,-3.18 -33.15,-5.848 -51.58,-7.969 -18.44,-2.129 -37.22,-3.191 -56.37,-3.191 -48.92,0 -91.47,7.281 -127.62,21.801 -36.18,14.519 -65.95,34.742 -89.35,60.629 -23.41,25.871 -40.78,56.371 -52.12,91.472 -11.35,35.098 -17.02,73.559 -17.02,115.41"
         style="fill:#ffffff;fill-opacity:1;fill-rule:nonzero;stroke:none"
         id="path30" /><path
         d="m 6426.57,668.949 -47.72,-26.808 c -17.88,-10.051 -40.73,-3.641 -50.78,14.25 -10.05,17.879 -3.64,40.726 14.24,50.777 l 47.72,26.812 c 17.89,10.047 40.74,3.637 50.79,-14.246 10.05,-17.879 3.63,-40.734 -14.25,-50.785 z m -139.69,-78.488 -47.73,-26.82 c -17.88,-10.039 -40.73,-3.629 -50.78,14.25 -10.05,17.879 -3.64,40.73 14.25,50.781 l 47.71,26.808 c 17.88,10.051 40.73,3.641 50.78,-14.242 10.05,-17.879 3.65,-40.726 -14.23,-50.777 z m -139.71,-78.5 -47.72,-26.813 c -17.88,-10.046 -40.74,-3.636 -50.78,14.243 -10.05,17.879 -3.64,40.738 14.24,50.789 l 47.72,26.808 c 17.89,10.051 40.74,3.641 50.79,-14.25 10.04,-17.879 3.63,-40.726 -14.25,-50.777 z M 5981.21,339.84 c -51.06,-28.692 -115.72,-10.551 -144.41,40.512 -28.69,51.058 -10.56,115.707 40.5,144.41 51.07,28.687 115.73,10.547 144.42,-40.512 28.69,-51.059 10.56,-115.719 -40.51,-144.41 z m 486.64,611.785 c 34.88,110.545 135.54,182.045 245.25,185.075 -5.77,18.28 -15.02,35.16 -27.91,50.57 -39.12,-4.4 -76.84,-15.97 -111.28,-33.89 -4.42,-2.29 -8.76,-4.7 -13.07,-7.19 -1.4,-0.82 -2.76,-1.71 -4.15,-2.54 -2.87,-1.73 -5.75,-3.45 -8.56,-5.27 -1.66,-1.06 -3.26,-2.2 -4.89,-3.3 -2.5,-1.67 -5.01,-3.34 -7.46,-5.09 -1.74,-1.24 -3.43,-2.55 -5.15,-3.82 -2.27,-1.7 -4.56,-3.38 -6.79,-5.13 -1.76,-1.4 -3.48,-2.85 -5.23,-4.28 -2.11,-1.74 -4.23,-3.46 -6.29,-5.25 -1.75,-1.52 -3.45,-3.09 -5.17,-4.65 -1.99,-1.8 -3.99,-3.59 -5.93,-5.44 -1.71,-1.63 -3.39,-3.31 -5.07,-4.99 -1.86,-1.86 -3.73,-3.72 -5.54,-5.63 -1.67,-1.74 -3.31,-3.53 -4.94,-5.33 -1.75,-1.92 -3.5,-3.85 -5.21,-5.82 -1.61,-1.85 -3.17,-3.73 -4.74,-5.62 -1.66,-2 -3.3,-4.01 -4.91,-6.06 -1.53,-1.95 -3.03,-3.91 -4.51,-5.9 -1.55,-2.07 -3.1,-4.16 -4.6,-6.28 -1.45,-2.04 -2.87,-4.09 -4.28,-6.17 -1.44,-2.15 -2.88,-4.32 -4.28,-6.51 -1.36,-2.13 -2.7,-4.27 -4.02,-6.43 -1.35,-2.22 -2.66,-4.47 -3.96,-6.73 -1.27,-2.21 -2.52,-4.43 -3.74,-6.68 -1.24,-2.3 -2.46,-4.62 -3.65,-6.96 -1.16,-2.29 -2.32,-4.58 -3.44,-6.91 -1.14,-2.37 -2.23,-4.78 -3.31,-7.19 -1.07,-2.366 -2.13,-4.726 -3.14,-7.128 -1.03,-2.457 -2.01,-4.949 -2.99,-7.445 -0.94,-2.422 -1.9,-4.84 -2.8,-7.301 -1.58,-4.359 -3.13,-8.75 -4.54,-13.219 -18.4,-58.289 -19.11,-117.949 -5.18,-173.164 l -52.74,-30.012 c -20.85,69.747 -21.75,146.254 1.8,220.887 3.13,9.938 6.68,19.622 10.53,29.102 -0.01,0.01 -0.02,0.02 -0.03,0.02 0.32,0.76 0.68,1.5 1,2.25 1.96,4.75 4.03,9.43 6.17,14.06 0.66,1.4 1.3,2.81 1.96,4.2 2.6,5.42 5.29,10.77 8.11,16.02 0.34,0.62 0.69,1.23 1.04,1.85 2.57,4.71 5.25,9.33 8,13.9 0.8,1.32 1.6,2.65 2.42,3.97 3.06,4.92 6.19,9.78 9.45,14.53 l -195.95,159.3 H 5515.1 c -42.48,0 -78.86,-15.12 -109.11,-45.38 -30.27,-30.26 -45.38,-66.62 -45.38,-109.11 V 409.762 c 0,-42.492 15.11,-78.852 45.38,-109.102 30.25,-30.262 66.63,-45.39 109.11,-45.39 h 1050.58 c 42.48,0 78.84,15.109 109.1,45.39 30.26,30.27 45.39,66.621 45.39,109.102 v 85.09 c -37.4,0.046 -75.4,5.679 -112.94,17.527 -70.95,22.391 -130.62,63.851 -175.11,116.949 L 6484.25,659 c 36.71,-40.879 84.49,-72.77 140.68,-90.5 31.66,-9.988 63.71,-14.762 95.24,-14.801 v 53.313 c -26.29,0.027 -53.04,4 -79.46,12.328 -139.49,44.019 -216.88,192.793 -172.86,332.285"
         style="fill:#ffffff;fill-opacity:1;fill-rule:nonzero;stroke:none"
         id="path32" /><path
         d="m 6546.76,1205.56 c 23.28,12.12 47.83,21.79 73.23,28.85 -16.85,6.31 -34.9,9.62 -54.31,9.62 H 6309.2 l 138.66,-112.73 c 28.8,30.17 62.29,55.22 98.9,74.26"
         style="fill:#ffffff;fill-opacity:1;fill-rule:nonzero;stroke:none"
         id="path34" /><path
         d="m 6544.57,927.41 c -30.6,-96.961 23.4,-200.742 120.36,-231.34 18.02,-5.691 36.6,-8.582 55.24,-8.601 v 368.911 c -80.72,-0.07 -151.26,-51.87 -175.6,-128.97"
         style="fill:#ffffff;fill-opacity:1;fill-rule:nonzero;stroke:none"
         id="path36" /><path
         d="m 6893.93,1205.85 -18.02,-57.12 c 47.58,-26.59 86.45,-64.48 114.24,-109.06 l 58.02,17.52 c -35.21,62.13 -88.05,114.45 -154.24,148.66"
         style="fill:#ffffff;fill-opacity:1;fill-rule:nonzero;stroke:none"
         id="path38" /><path
         d="m 7443.62,1060.16 c -8.57,-27.15 -33.66,-44.52 -60.7,-44.52 -6.35,0 -12.79,0.96 -19.17,2.97 -33.53,10.58 -52.14,46.34 -41.55,79.87 8.56,27.15 33.66,44.52 60.7,44.52 6.34,0 12.79,-0.95 19.17,-2.97 33.53,-10.58 52.13,-46.34 41.55,-79.87 z m -26.02,130.42 c -11.79,3.72 -23.74,5.49 -35.49,5.49 -50.05,0 -96.48,-32.12 -112.33,-82.39 -4.24,-13.44 -5.95,-27.05 -5.4,-40.36 l -303,-91.504 c -30.06,65.834 -86.8,119.184 -161.25,142.674 -26.52,8.37 -53.38,12.35 -79.78,12.35 -2.42,0 -4.84,-0.08 -7.25,-0.14 4.65,-14.79 7.07,-30.49 7.07,-47.16 v -33.16 c 0.05,0 0.11,0.01 0.17,0.01 18.76,0 37.45,-2.91 55.58,-8.62 49.68,-15.68 90.59,-51.899 112.26,-99.364 l 8.75,-19.168 3.63,-17.832 0.04,-0.215 0.29,-1.464 0.05,-0.227 0.04,-0.227 c 1.5,-7.175 2.56,-14.414 3.19,-21.617 l 0.11,-1.519 0.12,-1.899 c 0.15,-2.172 0.27,-4.351 0.34,-6.699 0.05,-1.629 0.09,-3.254 0.1,-4.754 0.01,-1.625 -0.04,-3.25 -0.07,-5.101 -0.17,-7.586 -0.82,-15.317 -1.94,-22.84 l -0.23,-1.606 c -0.39,-2.511 -0.87,-5.152 -1.5,-8.199 l -0.09,-0.469 -0.04,-0.211 c -1.21,-5.82 -2.45,-10.894 -3.74,-15.336 l -3.09,-8.746 c -26.01,-73.464 -95.8,-122.828 -173.68,-122.828 -0.1,0 -0.19,0.02 -0.29,0.02 v -80.457 c 0.1,0 0.19,-0.012 0.29,-0.012 109.54,0 211.33,68.52 249.52,176.438 l 0.05,-0.137 c 1.01,2.84 2.11,5.621 3.02,8.515 2.74,8.711 4.88,17.457 6.7,26.211 0.04,0.25 0.1,0.504 0.15,0.75 0.84,4.118 1.6,8.231 2.24,12.344 0.09,0.594 0.16,1.18 0.25,1.77 1.64,11.07 2.58,22.125 2.81,33.113 0.05,2.398 0.1,4.793 0.09,7.176 -0.01,2.343 -0.07,4.672 -0.13,7.004 -0.11,3.175 -0.28,6.328 -0.49,9.484 -0.12,1.684 -0.21,3.367 -0.35,5.043 -0.91,10.453 -2.45,20.793 -4.57,30.977 -0.03,0.113 -0.04,0.222 -0.06,0.332 l 301.7,91.11 c 14.3,-23.607 36.9,-42.321 65.29,-51.282 11.8,-3.719 23.75,-5.493 35.5,-5.493 50.05,0 96.46,32.137 112.33,82.395 19.58,62.06 -14.84,128.25 -76.91,147.83"
         style="fill:#ffffff;fill-opacity:1;fill-rule:nonzero;stroke:none"
         id="path40" /><path
         d="m 5915.8,1415.76 c -57.96,0 -105.12,47.15 -105.12,105.12 0,57.96 47.16,105.12 105.12,105.12 57.97,0 105.13,-47.16 105.13,-105.12 0,-57.97 -47.16,-105.12 -105.13,-105.12 z m 146.49,29 c 11.86,22.78 18.61,48.66 18.61,76.12 0,91.18 -73.92,165.1 -165.1,165.1 -91.18,0 -165.1,-73.92 -165.1,-165.1 0,-91.18 73.92,-165.1 165.1,-165.1 42.08,0 80.45,15.77 109.61,41.68 l 188.72,-153.43 h 95.07 l -246.91,200.73"
         style="fill:#ffffff;fill-opacity:1;fill-rule:nonzero;stroke:none"
         id="path42" /><path
         d="m 7059.56,421.84 c 45.45,0 82.41,-36.981 82.41,-82.418 0,-45.453 -36.96,-82.41 -82.41,-82.41 -45.44,0 -82.41,36.957 -82.41,82.41 0,45.437 36.97,82.418 82.41,82.418 z m -165.2,115.59 2.74,1.449 62.79,-97.859 c -26.35,-25.84 -42.72,-61.79 -42.72,-101.598 0,-78.641 63.75,-142.391 142.39,-142.391 78.64,0 142.39,63.75 142.39,142.391 0,78.637 -63.75,142.387 -142.39,142.387 -17.22,0 -33.65,-3.207 -48.93,-8.809 l -62.95,98.121 c 20.26,15.289 39,32.707 55.94,51.988 0.01,-0.019 0.02,-0.039 0.03,-0.058 0.66,0.75 1.27,1.539 1.93,2.301 2.8,3.25 5.55,6.546 8.26,9.898 0.98,1.23 1.99,2.441 2.96,3.68 3.57,4.539 7.06,9.16 10.43,13.879 0.29,0.41 0.55,0.832 0.85,1.242 3.05,4.32 6,8.73 8.88,13.199 0.93,1.441 1.84,2.898 2.75,4.359 2.31,3.68 4.55,7.422 6.74,11.2 0.83,1.441 1.68,2.871 2.49,4.332 2.87,5.121 5.66,10.3 8.3,15.589 0.13,0.266 0.26,0.551 0.39,0.821 2.49,5.008 4.85,10.109 7.14,15.269 0.72,1.633 1.4,3.285 2.11,4.93 1.71,4.035 3.36,8.117 4.95,12.238 0.64,1.676 1.3,3.34 1.92,5.032 2.08,5.648 4.08,11.347 5.92,17.152 16.16,51.223 20.82,103.332 15.4,153.535 l -57.51,-17.379 c 2.79,-38.898 -1.54,-78.976 -14.01,-118.449 -1.53,-4.863 -3.2,-9.652 -4.94,-14.391 -0.55,-1.504 -1.16,-2.976 -1.73,-4.468 -1.25,-3.227 -2.51,-6.434 -3.85,-9.598 -0.73,-1.699 -1.47,-3.375 -2.21,-5.055 -1.31,-2.949 -2.66,-5.875 -4.04,-8.769 -0.79,-1.653 -1.59,-3.297 -2.41,-4.93 -1.49,-2.973 -3.04,-5.898 -4.61,-8.809 -0.79,-1.441 -1.55,-2.898 -2.35,-4.328 -2,-3.562 -4.08,-7.074 -6.21,-10.543 -0.43,-0.691 -0.82,-1.406 -1.26,-2.093 -2.58,-4.137 -5.26,-8.196 -8.02,-12.184 -0.79,-1.141 -1.62,-2.242 -2.42,-3.371 -29.49,-41.5 -68.19,-74.781 -112.29,-97.719 -44.86,-23.332 -95.24,-36 -147.04,-35.922 v -58.847 c 61.36,-0.071 121.05,14.949 174.19,42.578"
         style="fill:#ffffff;fill-opacity:1;fill-rule:nonzero;stroke:none"
         id="path44" /><path
         d="m 6903.98,1484.02 c 55.81,-17.8 115.47,13.01 133.27,68.81 17.8,55.81 -13.01,115.47 -68.81,133.27 -55.81,17.79 -115.47,-13.01 -133.27,-68.81 -17.8,-55.81 13.01,-115.47 68.81,-133.27"
         style="fill:#ffffff;fill-opacity:1;fill-rule:nonzero;stroke:none"
         id="path46" /><path
         d="m 6855.29,1331.35 c 19.54,-6.23 40.64,4.66 46.87,24.2 l 16.63,52.15 c 6.23,19.55 -4.66,40.63 -24.2,46.87 -19.54,6.23 -40.63,-4.66 -46.87,-24.21 l -16.63,-52.14 c -6.23,-19.55 4.66,-40.63 24.2,-46.87"
         style="fill:#ffffff;fill-opacity:1;fill-rule:nonzero;stroke:none"
         id="path48" /><path
         d="m 6806.6,1178.69 c 19.54,-6.23 40.64,4.65 46.87,24.2 l 16.63,52.14 c 6.23,19.55 -4.66,40.64 -24.2,46.87 -19.54,6.23 -40.63,-4.66 -46.87,-24.2 l -16.63,-52.15 c -6.23,-19.55 4.66,-40.63 24.2,-46.86"
         style="fill:#ffffff;fill-opacity:1;fill-rule:nonzero;stroke:none"
         id="path50" /><path
         d="m 6127.33,95.3906 c 0,-9 -7.36,-16.3711 -16.36,-16.3711 h -141.16 c -9,0 -16.37,7.3711 -16.37,16.3711 v 10.7574 c 0,9 7.37,16.372 16.37,16.372 h 141.16 c 9,0 16.36,-7.372 16.36,-16.372 z m 627.61,98.0704 H 5182.93 v -92.68 c 0,-25.7693 13.98,-47.6404 41.97,-65.6599 28,-18.0195 61.63,-27.04297 100.94,-27.04297 h 1429.1 c 39.3,0 72.93,9.02347 100.92,27.04297 27.99,18.0195 41.99,39.8906 41.99,65.6599 v 92.68 h -142.91"
         style="fill:#ffffff;fill-opacity:1;fill-rule:nonzero;stroke:none"
         id="path52" /></g></g></svg>
