<?xml version="1.0" encoding="UTF-8"?>
<!DOCTYPE svg PUBLIC "-//W3C//DTD SVG 1.1//EN" "http://www.w3.org/Graphics/SVG/1.1/DTD/svg11.dtd">
<svg xmlns="http://www.w3.org/2000/svg" xml:space="preserve" width="580px" height="580px" shape-rendering="geometricPrecision" text-rendering="geometricPrecision" image-rendering="optimizeQuality" fill-rule="nonzero" clip-rule="nonzero" viewBox="0 0 5800 5800" xmlns:xlink="http://www.w3.org/1999/xlink">
	<title>video_chat2 icon</title>
	<desc>video_chat2 icon from the IconExperience.com I-Collection. Copyright by INCORS GmbH (www.incors.com).</desc>
		<path id="curve28" fill="#000000" d="M5500 500l0 3800 -5200 0 0 -3800 5200 0zm-2500 4000l0 800 1100 0 0 200 -2400 0 0 -200 1100 0 0 -800 200 0zm-1024 -2939c-8,-462 457,-719 887,-650 109,18 162,46 250,103 338,-163 746,212 714,543l-31 469c43,145 -6,325 -152,396 -44,160 -157,420 -280,539 4,144 14,376 154,455 145,89 236,94 395,151 92,33 215,75 286,143 109,104 182,244 218,390l883 0 0 -3400 -4800 0 0 3400 886 0c36,-146 110,-287 218,-390 72,-68 194,-110 287,-143 159,-57 250,-62 394,-151 135,-76 154,-315 154,-455 -120,-116 -235,-376 -280,-539 -144,-71 -194,-253 -152,-396l-31 -465z"/>
</svg>