<?xml version="1.0" encoding="utf-8"?>
<!-- Generator: Adobe Illustrator 12.0.1, SVG Export Plug-In . SVG Version: 6.00 Build 51448)  -->

<svg
   version="1.1"
   id="Ebene_1"
   width="580"
   height="580"
   viewBox="0 0 5800 5800"
   overflow="visible"
   enable-background="new 0 0 526 539.96"
   xml:space="preserve"
   xmlns="http://www.w3.org/2000/svg"
   xmlns:svg="http://www.w3.org/2000/svg"><defs
   id="defs3057" />

<g
   id="g3061"
   transform="matrix(7.9848364,0,0,9.8155882,799.97605,249.98482)"><path
     id="curve29"
     d="m 156.6,32.06 c -6,-3 -12.399,-4 -18.6,-3.399 -8.7,0.8 -17.3,4.699 -24.8,10.399 -7.8,6 -14.2,13.8 -18.4,22.3 -3.7,7.5 -5.6,15.5 -5,23.601 l 3.601,54.6 c 0.1,1.2 -0.101,2.3 -0.4,3.4 -2,6.7 -1.7,14.3 0.8,20.899 2.101,5.5 5.7,10.301 11,13 2.7,1.2 4.8,3.5 5.601,6.5 2.6,9.7 7.5,22.7 13.5,34.7 4.8,9.4 10.199,17.9 15.6,23.3 1.9,1.801 3,4.4 3,7.301 -0.3,8.8 -0.7,20.3 -3.2,31.1 -2.899,12.3 -8.5,23.7 -19.3,29.9 -12.1,7.5 -21,10.1 -31.4,13.3 -5.699,1.7 -11.199,3.5 -16.8,5.5 -9.399,3.399 -21,7.7 -27.2,13.7 -7.8,7.5 -13.8,17.1 -17.899,27.399 -4.4,11.2 -6.7,23.3 -6.7,34.8 0,9 16.4,16.5 38.9,22.4 38.699,10 93.6,13.2 126.1,13.2 24.4,0 61.6,-1.801 95,-7 v 20.199 c -33.9,5 -70.7,6.801 -95,6.801 -33.5,0 -90.3,-3.301 -131.1,-13.9 -31.2,-8.2 -53.9,-21.3 -53.9,-41.7 0,-13.899 2.8,-28.5 8.2,-42.1 5.1,-12.9 12.7,-24.9 22.5,-34.4 9.2,-9 23.1,-14 34.2,-18.1 6,-2.2 11.899,-4.1 18,-6 9.1,-2.7 16.8,-5 27,-11.4 5.199,-3 8.199,-9.6 9.899,-17.199 1.8,-7.5 2.4,-15.9 2.601,-23 -5.9,-6.7 -11.5,-15.601 -16.301,-25.101 -5.899,-11.6 -10.8,-24.2 -13.899,-34.5 -8.101,-5.2 -13.8,-12.899 -17.101,-21.6 -3.8,-10 -4.3,-21.4 -1.699,-31.7 l -3.5,-52.9 c -0.9,-11.5 1.8,-23.1 7,-33.699 5.5,-11.4 14.1,-21.7 24.199,-29.4 10.301,-7.9 22.5,-13.2 35.101,-14.4 7.899,-0.8 16,0.101 23.8,3 9.4,-5.699 16.9,-8.699 27.8,-10.5 26.9,-4.3 56.2,1.601 78.3,17.7 16.9,12.2 29.2,29.9 32.9,52.2 0.7,4.8 1.3,11 1,15.8 l -3.4,52.2 c 2.601,10.2 2,21.7 -1.8,31.7 -3.3,8.7 -8.9,16.399 -17,21.6 -3.1,10.4 -8.1,22.9 -13.899,34.5 -4.9,9.5 -10.5,18.4 -16.4,25.2 0.2,6.9 0.8,15.3 2.7,22.8 1.899,7.7 4.899,14.4 10.1,17.4 7.5,4.7 13.5,7.1 19.7,9.1 v 21 c -9.8,-3 -18.4,-5.8 -30,-12.899 -10.4,-6 -16.2,-17.5 -19.2,-29.9 -2.7,-11.1 -3.3,-22.8 -3.3,-31.4 0,-2.5 1,-5.1 3,-7.1 5.3,-5.2 10.7,-13.8 15.5,-23.3 6.1,-11.9 11,-24.8 13.6,-34.601 0.801,-2.6 2.601,-5 5.301,-6.3 5.399,-2.7 9.1,-7.5 11.3,-13.2 2.399,-6.399 2.699,-13.8 0.899,-20.399 -0.399,-1.2 -0.6,-2.5 -0.5,-3.9 l 3.5,-53.8 c 0.101,-3.9 -0.2,-7.6 -0.8,-11.3 -2.7,-16.601 -12.1,-30 -24.899,-39.3 -18,-13 -41.601,-17.601 -63.4,-14.101 -10.4,1.7 -15.9,4.8 -24.6,10.4 C 163.5,33.26 159.8,33.66 156.6,32.06 Z" /><path
     id="curve28"
     d="m 386,229.96 c -5.5,0 -10,-4.5 -10,-10 0,-5.5 4.5,-10 10,-10 h 40 c 5.5,0 10,4.5 10,10 0,5.5 -4.5,10 -10,10 z m 140,-14.601 v 289.2 c 0,19.4 -16,35.4 -35.4,35.4 H 321.4 c -19.399,0 -35.399,-16 -35.399,-35.4 v -289.2 c 0,-5 5.6,-25 10.399,-25 6.5,-6.399 15.301,-10.399 25,-10.399 h 169.2 c 19.5,0 35.4,15.899 35.4,35.399 z m -220,0 v 289.2 c 0,8.5 6.899,15.4 15.399,15.4 h 169.2 c 8.5,0 15.4,-6.9 15.4,-15.4 v -289.2 c 0,-8.399 -7,-15.399 -15.4,-15.399 h -169.2 c -8.5,0 -15.399,6.899 -15.399,15.399 z M 426,489.96 c 0,11 -9,20 -20,20 -11,0 -20,-9 -20,-20 0,-11 9,-20 20,-20 11,0 20,9 20,20 z m 60,-250 v 220 H 326 v -220 z m -140,200 h 120 v -180 H 346 Z" /></g>
</svg>
