<?xml version="1.0" encoding="utf-8"?>
<!-- Generator: Adobe Illustrator 12.0.1, SVG Export Plug-In . SVG Version: 6.00 Build 51448)  -->
<!DOCTYPE svg PUBLIC "-//W3C//DTD SVG 1.1//EN" "http://www.w3.org/Graphics/SVG/1.1/DTD/svg11.dtd" [
	<!ENTITY ns_svg "http://www.w3.org/2000/svg">
	<!ENTITY ns_xlink "http://www.w3.org/1999/xlink">
]>
<svg  version="1.1" id="Ebene_1" xmlns="&ns_svg;" xmlns:xlink="&ns_xlink;" width="526" height="539.96" viewBox="0 0 526 539.96"
	 overflow="visible" enable-background="new 0 0 526 539.96" xml:space="preserve">
<path id="curve29" d="M156.6,32.06c-6-3-12.399-4-18.6-3.399c-8.7,0.8-17.3,4.699-24.8,10.399c-7.8,6-14.2,13.8-18.4,22.3
	c-3.7,7.5-5.6,15.5-5,23.601l3.601,54.6c0.1,1.2-0.101,2.3-0.4,3.4c-2,6.7-1.7,14.3,0.8,20.899c2.101,5.5,5.7,10.301,11,13
	c2.7,1.2,4.8,3.5,5.601,6.5c2.6,9.7,7.5,22.7,13.5,34.7c4.8,9.4,10.199,17.9,15.6,23.3c1.9,1.801,3,4.4,3,7.301
	c-0.3,8.8-0.7,20.3-3.2,31.1c-2.899,12.3-8.5,23.7-19.3,29.9c-12.1,7.5-21,10.1-31.4,13.3c-5.699,1.7-11.199,3.5-16.8,5.5
	c-9.399,3.399-21,7.7-27.2,13.7c-7.8,7.5-13.8,17.1-17.899,27.399c-4.4,11.2-6.7,23.3-6.7,34.8c0,9,16.4,16.5,38.9,22.4
	c38.699,10,93.6,13.2,126.1,13.2c24.4,0,61.6-1.801,95-7v20.199c-33.9,5-70.7,6.801-95,6.801c-33.5,0-90.3-3.301-131.1-13.9
	c-31.2-8.2-53.9-21.3-53.9-41.7c0-13.899,2.8-28.5,8.2-42.1c5.1-12.9,12.7-24.9,22.5-34.4c9.2-9,23.1-14,34.2-18.1
	c6-2.2,11.899-4.1,18-6c9.1-2.7,16.8-5,27-11.4c5.199-3,8.199-9.6,9.899-17.199c1.8-7.5,2.4-15.9,2.601-23
	c-5.9-6.7-11.5-15.601-16.301-25.101c-5.899-11.6-10.8-24.2-13.899-34.5c-8.101-5.2-13.8-12.899-17.101-21.6
	c-3.8-10-4.3-21.4-1.699-31.7l-3.5-52.9c-0.9-11.5,1.8-23.1,7-33.699c5.5-11.4,14.1-21.7,24.199-29.4
	c10.301-7.9,22.5-13.2,35.101-14.4c7.899-0.8,16,0.101,23.8,3c9.4-5.699,16.9-8.699,27.8-10.5c26.9-4.3,56.2,1.601,78.3,17.7
	c16.9,12.2,29.2,29.9,32.9,52.2c0.7,4.8,1.3,11,1,15.8l-3.4,52.2c2.601,10.2,2,21.7-1.8,31.7c-3.3,8.7-8.9,16.399-17,21.6
	c-3.1,10.4-8.1,22.9-13.899,34.5c-4.9,9.5-10.5,18.4-16.4,25.2c0.2,6.9,0.8,15.3,2.7,22.8c1.899,7.7,4.899,14.4,10.1,17.4
	c7.5,4.7,13.5,7.1,19.7,9.1v21c-9.8-3-18.4-5.8-30-12.899c-10.4-6-16.2-17.5-19.2-29.9c-2.7-11.1-3.3-22.8-3.3-31.4
	c0-2.5,1-5.1,3-7.1c5.3-5.2,10.7-13.8,15.5-23.3c6.1-11.9,11-24.8,13.6-34.601c0.801-2.6,2.601-5,5.301-6.3
	c5.399-2.7,9.1-7.5,11.3-13.2c2.399-6.399,2.699-13.8,0.899-20.399c-0.399-1.2-0.6-2.5-0.5-3.9l3.5-53.8c0.101-3.9-0.2-7.6-0.8-11.3
	c-2.7-16.601-12.1-30-24.899-39.3c-18-13-41.601-17.601-63.4-14.101c-10.4,1.7-15.9,4.8-24.6,10.4
	C163.5,33.26,159.8,33.66,156.6,32.06z"/>
<path id="curve28" d="M386,229.96c-5.5,0-10-4.5-10-10s4.5-10,10-10h40c5.5,0,10,4.5,10,10s-4.5,10-10,10H386z M526,215.359v289.2
	c0,19.4-16,35.4-35.4,35.4h-169.2c-19.399,0-35.399-16-35.399-35.4v-289.2c0-5,5.6-25,10.399-25c6.5-6.399,15.301-10.399,25-10.399
	h169.2C510.1,179.96,526,195.859,526,215.359z M306,215.359v289.2c0,8.5,6.899,15.4,15.399,15.4h169.2c8.5,0,15.4-6.9,15.4-15.4
	v-289.2c0-8.399-7-15.399-15.4-15.399h-169.2C312.899,199.96,306,206.859,306,215.359z M426,489.96c0,11-9,20-20,20s-20-9-20-20
	s9-20,20-20S426,478.96,426,489.96z M486,239.96v220H326v-220H486z M346,439.96h120v-180H346V439.96z"/>
</svg>
