<?xml version="1.0" encoding="utf-8"?>
<!-- Generator: Adobe Illustrator 12.0.1, SVG Export Plug-In . SVG Version: 6.00 Build 51448)  -->
<!DOCTYPE svg PUBLIC "-//W3C//DTD SVG 1.1//EN" "http://www.w3.org/Graphics/SVG/1.1/DTD/svg11.dtd" [
	<!ENTITY ns_svg "http://www.w3.org/2000/svg">
	<!ENTITY ns_xlink "http://www.w3.org/1999/xlink">
]>
<svg  version="1.1" id="Ebene_1" xmlns="&ns_svg;" xmlns:xlink="&ns_xlink;" width="520" height="520" viewBox="0 0 520 520"
	 overflow="visible" enable-background="new 0 0 520 520" xml:space="preserve">
<path id="curve28" d="M222.7,246.2L378.5,74.8L307.9,295.4c-2.4,7.399-6.101,13.899-11.101,19.1c-10.1,10.8-25.6,16.8-40.3,15.7
	c-14.8-1.2-29.8-9.8-38.2-22.101c-8.3-12.1-10.9-28.6-6.6-42.699C213.8,258.4,217.5,251.9,222.7,246.2z M260,0
	c143.6,0,260,116.4,260,260c0,143.6-116.4,260-260,260C116.4,520,0,403.6,0,260C0,116.4,116.4,0,260,0z M260,20
	C127.4,20,20,127.4,20,260c0,132.6,107.4,240,240,240c132.6,0,240-107.4,240-240C500,127.4,392.6,20,260,20z M118.3,378.9
	C90.4,345.6,75,303.4,75,260c0-102.2,82.8-185,185-185c27.2,0,53.1,5.9,76.4,16.4L322.1,107.1C303,99.3,282,95,260,95
	c-91.1,0-165,73.9-165,165c0,38.9,13.6,76.3,38.6,106.1L118.3,378.9z M384,122.7c38.9,35.2,61,84.8,61,137.3
	c0,43.4-15.4,85.6-43.3,118.9L386.4,366.1C411.4,336.3,425,298.9,425,260c0-45.3-18.2-86.3-47.7-116.1L384,122.7z"/>
</svg>
