<?xml version="1.0" encoding="UTF-8"?>
<!DOCTYPE svg PUBLIC "-//W3C//DTD SVG 1.1//EN" "http://www.w3.org/Graphics/SVG/1.1/DTD/svg11.dtd">
<svg xmlns="http://www.w3.org/2000/svg" xml:space="preserve" width="580px" height="580px" shape-rendering="geometricPrecision" text-rendering="geometricPrecision" image-rendering="optimizeQuality" fill-rule="nonzero" clip-rule="nonzero" viewBox="0 0 5800 5800" xmlns:xlink="http://www.w3.org/1999/xlink">
	<title>magic_wand icon</title>
	<desc>magic_wand icon from the IconExperience.com I-Collection. Copyright by INCORS GmbH (www.incors.com).</desc>
		<path id="curve29" fill="#000000" d="M2267 1101l867 -2 -703 509 270 824 -701 -511 -701 511 270 -824 -703 -509 867 2 267 -826 267 826zm-267 -176l-121 376 -396 -1 321 232 -123 376 319 -233 319 233 -123 -376 321 -232 -396 1 -121 -376z"/>
	<path id="curve28" fill="#000000" d="M1338 5419c-84,83 -232,30 -375,-83 -91,-72 -177,-158 -249,-249 -113,-144 -167,-292 -83,-375l4031 -4031c84,-84 231,-30 376,83 88,70 178,160 248,249 113,144 167,291 83,375 -343,343 -4030,4031 -4031,4031zm507 -790c-149,-84 -340,-275 -424,-424l-648 648c-24,24 424,424 424,424l648 -648zm2310 -3158c147,83 341,277 424,424l648 -648c11,-11 -413,-435 -424,-424l-648 648zm-2180 3029l2475 -2475c0,-1 -176,-200 -201,-224 -24,-25 -223,-201 -224,-201l-2475 2475c-2,2 201,219 201,225 25,25 223,200 224,200z"/>
</svg>