<?xml version="1.0" encoding="UTF-8"?>
<!DOCTYPE svg PUBLIC "-//W3C//DTD SVG 1.1//EN" "http://www.w3.org/Graphics/SVG/1.1/DTD/svg11.dtd">
<svg xmlns="http://www.w3.org/2000/svg" xml:space="preserve" width="580px" height="580px" shape-rendering="geometricPrecision" text-rendering="geometricPrecision" image-rendering="optimizeQuality" fill-rule="nonzero" clip-rule="nonzero" viewBox="0 0 5800 5800" xmlns:xlink="http://www.w3.org/1999/xlink">
	<title>magnifying_glass icon</title>
	<desc>magnifying_glass icon from the IconExperience.com I-Collection. Copyright by INCORS GmbH (www.incors.com).</desc>
		<path id="curve28" fill="#000000" d="M3275 3124l314 314 -141 141 -313 -313c-301,270 -699,434 -1135,434 -939,0 -1700,-761 -1700,-1700 0,-939 761,-1700 1700,-1700 939,0 1700,761 1700,1700 0,431 -160,824 -425,1124zm-1275 -2624c-828,0 -1500,672 -1500,1500 0,828 672,1500 1500,1500 828,0 1500,-672 1500,-1500 0,-828 -672,-1500 -1500,-1500zm1985 2801l1556 1556 -684 684 -1556 -1556 684 -684zm0 283l-401 401 1273 1274 402 -402 -1274 -1273z"/>
</svg>