<?xml version="1.0" encoding="utf-8"?>
<!-- Generator: Adobe Illustrator 12.0.1, SVG Export Plug-In . SVG Version: 6.00 Build 51448)  -->
<!DOCTYPE svg PUBLIC "-//W3C//DTD SVG 1.1//EN" "http://www.w3.org/Graphics/SVG/1.1/DTD/svg11.dtd" [
	<!ENTITY ns_svg "http://www.w3.org/2000/svg">
	<!ENTITY ns_xlink "http://www.w3.org/1999/xlink">
]>
<svg  version="1.1" id="Ebene_1" xmlns="&ns_svg;" xmlns:xlink="&ns_xlink;" width="470.653" height="448.387"
	 viewBox="0 0 470.653 448.387" overflow="visible" enable-background="new 0 0 470.653 448.387" xml:space="preserve">
<path id="curve29_2_" d="M416.894,227.902c0.813,0.718,1.72,1.438,2.447,2.067c0.816,0.629,1.635,1.348,2.447,2.067l20.503-5.573
	c3.628-0.898,7.347-0.719,10.79,0.541c3.357,1.257,6.259,3.504,8.346,6.649c1.905,2.787,3.629,5.483,5.079,7.998
	c1.453,2.607,2.902,5.393,4.445,8.359c1.632,3.414,2.085,7.101,1.451,10.515c-0.633,3.505-2.358,6.83-5.079,9.437l-15.239,14.65
	c0.183,1.077,0.453,2.157,0.636,3.235c0.181,1.077,0.271,2.067,0.454,3.146l19.318,8.808c3.357,1.617,6.078,4.136,7.893,7.281
	c1.814,3.055,2.539,6.741,2.176,10.425c-0.361,2.967-0.815,6.112-1.451,9.348c-0.546,3.323-1.271,6.381-1.995,9.165
	c-0.907,3.686-2.903,6.831-5.715,9.078c-2.722,2.247-6.167,3.687-9.978,3.953l-21.225,1.529c-0.544,0.898-1.088,1.889-1.632,2.787
	s-1.09,1.887-1.634,2.696l9.07,19.051c1.543,3.326,1.997,7.013,1.361,10.607c1.45,0.269-4.174,8.447-5.17,9.346
	c-2.45,2.338-4.808,4.402-7.075,6.291c-2.269,1.889-4.808,3.774-7.62,5.751c-3.082,2.246-6.62,3.326-10.158,3.326
	c-3.628,0-7.166-1.169-10.25-3.326l-17.233-12.313c-1.088,0.36-2.086,0.72-3.083,1.078c-0.907,0.359-1.906,0.63-2.994,0.99
	l-5.352,20.313c-0.997,3.685-3.084,6.74-5.806,8.987c-2.812,2.337-6.255,3.685-10.067,3.953c-3.084,0.179-6.259,0.269-9.524,0.269
	c-3.445-0.09-6.529-0.178-9.523-0.449c-3.81-0.269-7.257-1.706-9.978-3.953c-2.812-2.338-4.807-5.483-5.713-9.079l-5.262-20.49
	c-0.907-0.357-1.904-0.63-2.902-0.989c-0.999-0.449-1.996-0.808-2.903-1.168l-17.324,12.133c-3.084,2.158-6.713,3.235-10.25,3.235
	c-3.628-0.089-7.257-1.169-10.249-3.416c-2.45-1.797-4.898-3.685-7.529-5.931c-2.539-2.157-4.897-4.224-7.074-6.381
	c-2.721-2.606-4.444-5.932-5.08-9.437c-0.545-3.506-0.092-7.101,1.541-10.515l9.344-18.965c-0.546-0.898-1.089-1.798-1.634-2.696
	c-0.454-0.808-0.997-1.706-1.45-2.605l-21.226-1.797c-3.81-0.271-7.165-1.708-9.978-4.045c-2.721-2.338-4.716-5.483-5.533-9.168
	c-0.816-3.235-1.452-6.291-1.996-9.347c-0.544-2.965-0.907-6.021-1.269-9.438c-0.362-3.684,0.453-7.279,2.268-10.335
	c1.814-3.055,4.535-5.571,8.071-7.099l19.321-8.63c0.181-0.898,0.362-1.976,0.544-2.964c0.182-1.08,0.363-2.068,0.635-3.057
	l-15.146-14.919c-2.722-2.606-4.445-5.931-4.989-9.437c-0.544-3.505-0.091-7.189,1.634-10.516c1.36-2.786,2.901-5.572,4.535-8.357
	c1.632-2.877,3.355-5.482,5.079-8c2.177-3.145,5.169-5.392,8.526-6.561c2.448-0.898,9.07-2.066,11.156-0.27l20.045,5.662
	c1.543-1.348,3.175-2.695,4.809-3.953l-1.904-21.121c-0.363-3.686,0.453-7.281,2.268-10.335c1.813-3.056,4.625-5.573,8.072-7.1
	c2.721-1.169,5.714-2.337,8.889-3.505c3.174-1.078,6.168-2.067,9.07-2.875c3.719-0.989,7.438-0.809,10.793,0.359
	c3.356,1.257,6.35,3.504,8.437,6.65l11.972,17.435c0.998-0.09,2.087-0.09,3.175-0.09c1.087,0,2.177,0.09,3.175,0.09l12.153-17.346
	c2.086-2.966,5.17-5.302,8.527-6.471c3.354-1.258,7.073-1.348,10.792-0.27c3.267,0.899,6.259,1.889,8.98,2.876
	c2.993,1.077,5.896,2.337,8.89,3.595c3.445,1.618,6.167,4.134,7.98,7.19c1.814,3.146,2.631,6.741,2.268,10.425L416.894,227.902z
	 M407.641,243.63c-1.36-1.169-2.631-2.157-3.809-3.056c-1.904-1.349-3.266-3.146-4.265-5.214c-0.814-2.065-1.178-4.313-0.997-6.649
	l2.45-23.098c-2.45-1.078-4.898-2.067-7.257-2.966c-2.631-0.99-5.082-1.797-7.438-2.517l-13.516,19.233
	c-1.269,1.887-3.082,3.414-5.079,4.312c-2.085,0.99-4.353,1.439-6.62,1.349c-1.907-0.179-3.448-0.179-4.898-0.179
	c-1.45-0.09-3.084,0-4.808,0.09c-2.359,0.09-4.627-0.359-6.62-1.348c-2.088-0.989-3.812-2.426-5.081-4.404l-13.244-19.323
	c-2.722,0.809-5.26,1.618-7.527,2.427c-2.178,0.808-4.628,1.707-7.349,2.875l2.177,23.278c0.182,2.336-0.181,4.582-1.087,6.561
	c-0.907,2.066-2.359,3.864-4.265,5.212c-1.451,1.08-2.721,2.068-3.719,2.967c-1.088,0.898-2.268,1.888-3.628,3.146
	c-1.724,1.527-3.72,2.606-5.987,3.146c-2.176,0.54-4.443,0.54-6.711-0.09L265.687,243c-1.541,2.338-2.901,4.493-4.173,6.65
	c-1.27,2.068-2.539,4.403-3.719,6.83l16.689,16.447c1.632,1.616,2.812,3.595,3.446,5.751c0.636,2.156,0.636,4.402,0.092,6.649
	c-0.362,1.618-0.727,3.146-0.999,4.675c-0.181,1.259-0.454,2.785-0.635,4.673c-0.272,2.246-1.18,4.404-2.54,6.201
	c-1.36,1.798-3.083,3.235-5.26,4.224l-21.498,9.528c0.273,2.515,0.636,5.122,1.09,7.818c0.453,2.604,0.997,5.122,1.54,7.639
	l23.494,1.887c0.725,0.09,6.893,1.619,6.349,2.247c1.904,1.259,3.446,3.057,4.444,5.033c0.725,1.439,1.451,2.877,2.268,4.225
	c0.815,1.349,1.632,2.696,2.447,4.045c1.271,1.887,1.996,4.044,2.178,6.291c0.09,2.246-0.363,4.493-1.361,6.56l-10.25,21.03
	c1.996,1.979,3.991,3.685,5.806,5.304c1.813,1.526,3.9,3.054,6.168,4.852l19.229-13.481c1.905-1.348,4.082-2.067,6.35-2.336
	c2.268-0.181,4.535,0.089,6.713,1.077c1.631,0.72,3.175,1.349,4.443,1.798c1.452,0.539,2.992,1.078,4.444,1.527
	c2.268,0.63,4.263,1.889,5.804,3.505c1.543,1.619,2.721,3.596,3.267,5.842l5.713,22.649c2.904,0.18,5.534,0.269,7.893,0.269
	c2.448,0.09,5.08,0,7.891-0.179l5.986-22.469c0.545-2.247,1.724-4.225,3.266-5.842c1.635-1.618,3.72-2.877,5.896-3.505
	c1.27-0.36,2.813-0.81,4.627-1.438c1.543-0.539,3.083-1.17,4.444-1.708c2.176-0.988,4.443-1.259,6.711-1.078
	c2.178,0.269,4.355,1.078,6.259,2.516l19.139,13.661c1.995-1.438,4.081-3.056,6.169-4.854c2.086-1.706,3.989-3.415,5.896-5.122
	l-9.978-21.028c-1-2.157-1.454-4.404-1.27-6.651c0.18-2.157,0.907-4.314,2.268-6.291c0.907-1.349,1.814-2.786,2.538-4.134
	c0.816-1.259,1.544-2.696,2.36-4.226c1.088-2.065,2.629-3.773,4.535-5.032c1.814-1.259,3.989-1.977,6.35-2.157l23.49-1.617
	c0.727-2.877,1.271-5.393,1.634-7.639c0.453-2.339,0.816-4.854,1.18-7.64l-21.407-9.797c-1.722-0.809-3.175-1.887-4.443-3.326
	c-0.272-0.269-0.546-0.628-0.727-0.898c-1.36-1.887-2.177-3.953-2.448-6.291c-0.272-3.146-0.816-6.561-1.633-9.616
	c-0.181-0.72-0.544-6.92,0.181-6.651c0.636-2.156,1.813-4.134,3.536-5.751l16.872-16.266c-1.088-2.247-2.358-4.494-3.719-6.83
	c-1.36-2.338-2.721-4.584-4.081-6.562l-22.678,6.112c-2.268,0.628-4.535,0.628-6.711,0.089c-2.268-0.628-4.263-1.706-5.987-3.324
	C410.091,245.788,408.912,244.708,407.641,243.63z M355.849,254.055c13.969,0,26.577,5.66,35.738,14.74
	c9.161,9.076,14.783,21.569,14.783,35.408c0,13.84-5.622,26.334-14.783,35.409c-9.161,9.077-21.77,14.652-35.738,14.652
	s-26.577-5.573-35.737-14.652c-9.161-9.077-14.784-21.569-14.784-35.409c0-13.839,5.623-26.332,14.784-35.408
	C329.272,259.715,341.88,254.055,355.849,254.055z M378.798,281.467c-5.896-5.842-13.969-9.438-22.95-9.438
	c-8.98,0-17.052,3.596-22.947,9.438c-5.804,5.842-9.432,13.841-9.432,22.736c0,8.898,3.628,16.897,9.432,22.739
	c5.896,5.752,13.967,9.347,22.947,9.347c8.981,0,17.055-3.595,22.95-9.347c5.802-5.842,9.43-13.841,9.43-22.739
	C388.23,295.308,384.602,287.309,378.798,281.467z"/>
<g>
	<path fill="none" d="M277.744,161.121l25.842,18.106c18.454-8.657,39.244-13.533,61.241-13.533c16.697,0,32.701,2.805,47.516,7.943
		V51.556L277.744,161.121z"/>
	<path fill="none" d="M235.05,195.89c-12.117,9.84-28.766,9.84-40.882,0l-29.342-23.93L24.872,270.017h204.734
		c7.311-33.951,28.561-63.108,57.852-81.897l-23.064-16.16L235.05,195.89z"/>
	<path fill="none" d="M19.349,32.21l185.122,150.756c6.017,4.919,14.259,4.919,20.275,0L409.87,32.21
		c1.317-1.084,2.225-2.334,2.473-4.085V19.87H16.794v7.171C16.794,29.292,17.618,30.793,19.349,32.21z"/>
	<polygon fill="none" points="16.711,51.388 16.711,255.509 151.473,161.121 	"/>
	<path d="M24.872,270.017l139.954-98.057l29.342,23.93c12.116,9.84,28.765,9.84,40.882,0l29.343-23.93l23.064,16.16
		c5.139-3.295,10.527-6.266,16.128-8.894l-25.842-18.106L412.342,51.556v122.081c5.681,1.97,11.182,4.291,16.484,6.92
		c0-59.128,0-118.26,0-177.363H0.227v283.5h226.966c0.431-5.666,1.24-11.233,2.413-16.677H24.872z M16.794,19.87h395.548v8.255
		c-0.248,1.751-1.155,3.001-2.473,4.085L224.746,182.966c-6.016,4.919-14.258,4.919-20.275,0L19.349,32.21
		c-1.731-1.417-2.555-2.918-2.555-5.169V19.87z M16.711,51.388l134.762,109.732L16.711,255.509V51.388z"/>
</g>
</svg>
