<?xml version="1.0" encoding="utf-8"?>
<!-- Generator: Adobe Illustrator 12.0.1, SVG Export Plug-In . SVG Version: 6.00 Build 51448)  -->
<!DOCTYPE svg PUBLIC "-//W3C//DTD SVG 1.1//EN" "http://www.w3.org/Graphics/SVG/1.1/DTD/svg11.dtd" [
	<!ENTITY ns_svg "http://www.w3.org/2000/svg">
	<!ENTITY ns_xlink "http://www.w3.org/1999/xlink">
]>
<svg  version="1.1" id="Ebene_1" xmlns="&ns_svg;" xmlns:xlink="&ns_xlink;" width="559.682" height="586.798"
	 viewBox="0 0 559.682 586.798" overflow="visible" enable-background="new 0 0 559.682 586.798" xml:space="preserve">
<path id="curve29" d="M487.201,260l-129.6-91.2l-27.3,22.3c-12.4,10.1-29.9,10.1-42.3,0l-27.301-22.3l-72.8,51.2h-34.7l91.5-64.3
	L119.102,53v167h-20V0h419.9c0,93.3,0,186.7,0,280h-79.9v-20H487.201z M119.202,20v5.1c0,1.6,0.6,2.6,1.8,3.6l179.6,146.9
	c5.1,4.2,12,4.2,17.1,0L497.302,28.7c0.899-0.7,1.5-1.5,1.7-2.6V20H119.202z M499.002,53.1l-125.4,102.6l125.4,88.2V53.1z"/>
<path id="curve29_1_" d="M419.899,239.898v182.6c-6.5-0.6-13.101-1.1-20-1.5v-128L274.5,395.598l37,26
	c-10.601,0.801-20.8,1.801-30.399,3l-22.601-15.9l-27.3,22.301c-12.4,10.1-29.9,10.1-42.3,0l-27.3-22.301L32,499.898h148.1v20H0
	v-280H419.899z M20,483.898l125.6-88.301L20,292.898V483.898z M20.1,259.898v5.1c0,1.6,0.6,2.6,1.8,3.6l179.6,146.9
	c5.1,4.199,12,4.199,17.1,0l179.6-146.9c0.898-0.699,1.5-1.5,1.699-2.6v-6.1H20.1z"/>
<path id="curve28_1_" d="M449.214,508.727c3.557-0.131,6.573,2.639,6.802,6.236c0.138,3.602-2.591,6.574-6.146,6.703l-141.896,5.135
	c-3.557,0.129-6.574-2.639-6.803-6.236c-0.137-3.604,2.59-6.576,6.146-6.705L449.214,508.727z M352.944,538.047
	c-3.565,26.104-25.711,46.123-52.107,47.125l-44.047,1.594c-30.323,1.051-56.623-23.063-58.156-53.316l-0.927-18.32
	c-1.534-30.256,22.231-56.178,52.55-57.32l44.046-1.594c26.402-0.908,50.491,17.441,56.684,43.191l-13.181,0.432
	c-5.641-18.469-23.515-31.381-42.847-30.682l-44.046,1.594c-23.211,0.795-41.479,20.721-40.301,43.959l0.924,18.227
	c1.176,23.242,21.393,41.773,44.599,40.889l44.044-1.592c19.334-0.699,35.84-14.855,39.59-33.662L352.944,538.047z M558.69,502.119
	l0.925,18.229c1.489,30.303-22.275,56.225-52.552,57.32l-44.045,1.594c-26.446,0.955-50.492-17.439-56.729-43.145l13.225-0.479
	c5.646,18.561,23.473,31.428,42.854,30.771l43.998-1.639c23.254-0.84,41.521-20.764,40.299-43.957l-0.924-18.229
	c-1.129-23.193-21.346-41.729-44.6-40.887l-44.002,1.545c-19.377,0.746-35.838,14.855-39.584,33.752l-13.224,0.479
	c3.612-26.059,25.71-46.123,52.157-47.078l44.044-1.596C530.81,447.707,557.11,471.818,558.69,502.119z"/>
</svg>
