<?xml version="1.0" encoding="UTF-8"?>
<!DOCTYPE svg PUBLIC "-//W3C//DTD SVG 1.1//EN" "http://www.w3.org/Graphics/SVG/1.1/DTD/svg11.dtd">
<svg xmlns="http://www.w3.org/2000/svg" xml:space="preserve" width="580px" height="580px" shape-rendering="geometricPrecision" text-rendering="geometricPrecision" image-rendering="optimizeQuality" fill-rule="nonzero" clip-rule="nonzero" viewBox="0 0 5800 5800" xmlns:xlink="http://www.w3.org/1999/xlink">
	<title>mails icon</title>
	<desc>mails icon from the IconExperience.com I-Collection. Copyright by INCORS GmbH (www.incors.com).</desc>
		<path id="curve29" fill="#000000" d="M5181 2900l-1296 -912 -273 223c-124,101 -299,101 -423,0l-273 -223 -728 512 -347 0 915 -643 -1256 -1027 0 1670 -200 0 0 -2200 4199 0c0,933 0,1867 0,2800l-799 0 0 -200 481 0zm-3680 -2400l0 51c0,16 6,26 18,36l1796 1469c51,42 120,42 171,0l1796 -1469c9,-7 15,-15 17,-26l0 -61 -3798 0zm3798 331l-1254 1026 1254 882 0 -1908z"/>
	<path id="curve28" fill="#000000" d="M4181 5300l-1296 -912 -273 223c-124,101 -299,101 -423,0l-273 -223 -1296 912 3561 0zm-3681 -160l1256 -883 -1256 -1027 0 1910zm1 -2240l0 51c0,16 6,26 18,36l1796 1469c51,42 120,42 171,0l1796 -1469c9,-7 15,-15 17,-26l0 -61 -3798 0zm3998 2600l-4199 0 0 -2800 4199 0c0,933 0,1867 0,2800zm-200 -2269l-1254 1026 1254 882 0 -1908z"/>
</svg>