<?xml version="1.0" encoding="UTF-8"?>
<!DOCTYPE svg PUBLIC "-//W3C//DTD SVG 1.1//EN" "http://www.w3.org/Graphics/SVG/1.1/DTD/svg11.dtd">
<svg xmlns="http://www.w3.org/2000/svg" xml:space="preserve" width="580px" height="580px" shape-rendering="geometricPrecision" text-rendering="geometricPrecision" image-rendering="optimizeQuality" fill-rule="nonzero" clip-rule="nonzero" viewBox="0 0 5800 5800" xmlns:xlink="http://www.w3.org/1999/xlink">
	<title>mail_open2 icon</title>
	<desc>mail_open2 icon from the IconExperience.com I-Collection. Copyright by INCORS GmbH (www.incors.com).</desc>
		<path id="curve29" fill="#000000" d="M5202 5300l-2075 -1437c-140,-97 -316,-97 -456,0l-2073 1437 4604 0zm-4703 -174l1746 -1211 -1746 -1405 0 2616zm-199 -3095c0,-85 42,-158 110,-208l490 -358 0 247 -372 272c-17,12 -28,26 -28,47l0 186c0,27 10,45 31,62l1885 1518 141 -98c208,-144 475,-144 683,0l143 98 1886 -1518c21,-17 31,-35 31,-62l0 -186c0,-21 -11,-35 -28,-47l-372 -272 0 -247 490 358c68,50 110,123 110,208 0,1157 -1,2313 -1,3469l-5200 0c1,-1156 1,-2312 1,-3469zm5000 479l-1746 1406 1745 1209 1 -2615zm-1509 -1610l-764 -559c-75,-54 -179,-54 -254,0l-764 559 -337 0 983 -720c145,-106 345,-106 490,0l983 720 -337 0z"/>
	<path id="curve28" fill="#000000" d="M1100,2481 1100,1100 4700,1100 4700,2481 4500,2642 4500,1300 1300,1300 1300,2642z"/>
</svg>