<?xml version="1.0" encoding="utf-8"?>
<!-- Generator: Adobe Illustrator 12.0.1, SVG Export Plug-In . SVG Version: 6.00 Build 51448)  -->
<!DOCTYPE svg PUBLIC "-//W3C//DTD SVG 1.1//EN" "http://www.w3.org/Graphics/SVG/1.1/DTD/svg11.dtd" [
	<!ENTITY ns_svg "http://www.w3.org/2000/svg">
	<!ENTITY ns_xlink "http://www.w3.org/1999/xlink">
]>
<svg  version="1.1" id="Ebene_1" xmlns="&ns_svg;" xmlns:xlink="&ns_xlink;" width="611.805" height="616.345"
	 viewBox="0 0 611.805 616.345" overflow="visible" enable-background="new 0 0 611.805 616.345" xml:space="preserve">
<path id="curve28_2_" d="M509.521,344.574c1.87,1.062,3.556,2.143,5.241,3.224c1.592,1.089,3.286,2.256,4.979,3.424l29.688-10.514
	c8.597-3.063,18.07-0.575,23.71,6.047c2.925,3.432,5.549,6.628,7.896,9.85c2.346,3.22,4.707,6.616,6.999,10.281
	c4.692,7.498,3.837,16.641-2.198,23.259l-20.748,22.645c0.645,1.966,1.189,3.853,1.732,5.739c0.545,1.889,0.995,3.783,1.362,5.775
	l29.748,9.813c8.569,2.835,14.12,10.521,13.865,19.081c0,0-0.66,11.326-0.758,12.303c-0.448,4.354-1.013,8.453-1.692,12.3
	c-1.476,8.495-8.444,15.108-17.563,16.548l-31.213,5.017c-0.777,1.743-1.646,3.493-2.507,5.331
	c-0.955,1.847-1.917,3.605-2.887,5.276l15.853,25.591c4.602,7.506,3.566,16.753-2.475,23.284c-3.068,3.269-6.067,6.269-8.996,8.996
	c-2.931,2.729-6.131,5.571-9.7,8.444c-6.87,5.638-16.784,6.532-24.646,2.224l0.093-0.009l-27.141-15.063
	c-1.882,0.873-3.764,1.747-5.648,2.62c-1.619,0.676-3.51,1.462-5.587,2.265l-5.476,29.364c-1.561,8.59-8.63,15.126-17.756,16.478
	c-4.237,0.646-8.492,1.118-12.939,1.52c-4.641,0.33-8.91,0.627-13.111,0.654c-9.136,0.208-17.276-5.131-20.249-13.224
	l-10.289-28.116c-1.909-0.443-3.91-0.88-5.818-1.323c-2.108-0.603-4.117-1.124-5.848-1.673l-24.214,19.436
	c-6.963,5.646-16.885,6.453-24.569,2.042c-3.64-2.049-7.304-4.358-10.985-6.843c-3.764-2.388-7.167-4.899-10.478-7.415
	c-7.121-5.431-9.601-14.272-6.317-22.402l11.387-28.048c-1.253-1.473-2.423-3.038-3.583-4.518c-1.169-1.566-2.246-3.142-3.321-4.718
	l-31.63,0.39c-9.151,0.035-17.107-5.321-19.987-13.422c-1.489-4.091-2.778-8.023-3.79-11.98c-1.088-3.775-2.015-7.827-2.863-12.064
	c-1.605-8.481,2.588-16.869,10.611-21.113l27.628-14.728c0.027-1.763,0.232-3.63,0.422-5.672c0.198-1.953,0.403-3.82,0.702-5.694
	l-24.314-18.931c-7.037-5.525-9.424-14.377-6.141-22.507c1.615-3.841,3.422-7.612,5.315-11.481c1.9-3.779,3.902-7.481,6.011-11.018
	c4.551-7.539,13.432-11.597,22.447-10.034l31.03,5.387c1.279-1.349,2.744-2.713,4.294-4.174c1.465-1.364,2.929-2.728,4.402-4.006
	l-5.544-29.337c-1.605-8.479,2.588-16.869,10.619-21.024c3.743-2.011,7.592-3.855,11.813-5.731
	c4.043-1.773,8.103-3.372,12.076-4.876c4.345-1.535,8.809-1.763,12.918-0.726c4.203,1.031,8.053,3.324,10.869,6.59l19.919,23.023
	c1.938-0.263,3.968-0.534,6.106-0.639c2.225-0.201,4.264-0.385,6.217-0.474l15.769-26.067c4.644-7.549,13.54-11.432,22.47-9.774
	c4.558,0.821,8.838,1.668,12.762,2.722c4.203,1.028,8.329,2.241,12.556,3.532c8.568,2.835,14.205,10.424,14.051,19.063
	L509.521,344.574z M504.006,362.146c-2.079-1.308-4.058-2.537-5.836-3.609c-4.63-2.663-7.288-7.264-7.188-12.378l0.607-31.563
	c-0.01-1.145-0.543-1.889-1.703-2.312c-3.84-1.149-7.486-2.229-11.311-3.203c-3.917-0.967-7.726-1.769-11.434-2.489
	c-1.228-0.154-2.122,0.279-2.786,1.219l-16.746,27.652c-2.596,4.372-7.486,7.101-12.791,7.314c-2.517,0.052-4.935,0.183-6.973,0.366
	c-2.224,0.201-4.539,0.41-7.025,0.81c-5.35,0.748-10.475-1.167-13.816-5.09l-21.064-24.328c-0.819-0.807-1.869-1.064-2.959-0.701
	c-3.974,1.502-7.585,2.885-10.903,4.417c-3.325,1.443-6.813,3.166-10.563,5.089c-1.064,0.625-1.549,1.461-1.354,2.587l5.895,31.154
	c0.92,5.021-0.879,9.937-4.966,13.299c-1.82,1.571-3.555,3.049-5.02,4.413c-1.55,1.46-3.091,3.007-4.701,4.825
	c-3.678,3.765-8.933,5.56-14.248,4.629l-32.838-5.748c-1.228-0.154-2.131,0.192-2.786,1.219c-2.017,3.525-3.871,6.774-5.448,9.996
	c-1.671,3.231-3.232,6.63-4.771,10.29c-0.369,1.088-0.096,2.031,0.81,2.743l25.72,20.035c4.121,3.236,6.053,8.08,5.204,13.172
	c-0.358,2.233-0.632,4.371-0.823,6.412c-0.203,1.867-0.293,3.986-0.442,6.465c-0.191,5.123-3.056,9.605-7.778,12.145l-29.325,15.584
	c-1.071,0.536-1.447,1.54-1.262,2.578c0.702,3.634,1.496,7.26,2.576,10.946c0.979,3.608,2.044,7.121,3.302,10.703
	c0.371,1.023,1.261,1.56,2.473,1.537l33.499-0.383c5.414-0.048,10.314,2.503,13.04,6.835c1.192,1.828,2.478,3.647,3.756,5.382
	c1.284,1.82,2.654,3.545,4.016,5.182c3.352,4.01,4.188,9.128,2.188,13.886l-11.985,29.686c-0.469,1.01-0.19,2.043,0.808,2.745
	c3.217,2.525,6.311,4.711,9.387,6.722c2.885,1.939,6.239,3.926,9.888,6.062c0.99,0.613,2.008,0.521,2.966-0.268l25.607-20.531
	c4.089-3.362,9.692-4.396,14.699-2.734c2.496,0.742,4.697,1.336,6.614,1.868c2.294,0.583,4.48,1.004,6.674,1.509
	c5.314,0.93,9.46,4.428,11.199,9.2l10.911,29.821c0.372,1.022,1.168,1.565,2.474,1.537c4.285-0.124,8.192-0.3,11.813-0.538
	c3.707-0.335,7.59-0.773,11.829-1.421c1.104-0.187,1.882-0.873,2.058-2.032l5.79-31.065c0.949-5.015,4.493-9.208,9.556-11.072
	l0.008,0.087c1.898-0.699,4.06-1.598,6.391-2.688c2.159-0.899,4.221-1.878,6.272-2.943c4.729-2.45,10.251-2.333,14.873,0.243
	l28.81,15.971c0.99,0.615,2.01,0.523,2.965-0.268c2.87-2.371,5.729-4.83,8.65-7.646c2.846-2.633,5.589-5.346,8.141-8.127
	c0.855-0.869,0.955-1.847,0.312-2.758l-16.743-27.181c-2.734-4.419-2.735-9.611-0.149-14.069c1.217-2.046,2.256-3.988,3.287-6.018
	c0.955-1.847,1.893-3.867,2.815-6.063c2.008-4.67,6.373-8.057,11.715-8.892l33.057-5.271c1.197-0.196,1.883-0.875,2.066-1.947
	c0.75-4.115,1.268-7.684,1.617-11.061c0.305-2.843,0.92-8.444,0.676-11.15c-0.01-1.144-0.544-1.887-1.703-2.312l-31.487-10.449
	c-5.008-1.66-8.729-5.636-9.741-10.649c-0.383-2.166-0.95-4.316-1.518-6.466c-0.567-2.148-1.229-4.289-1.98-6.422
	c-1.646-4.779-0.521-9.899,2.964-13.734l22.019-24.079c0.764-0.861,0.854-1.925,0.212-2.835c-1.968-3.167-4.02-6.238-6.349-9.285
	c-2.338-3.133-4.66-6.092-6.967-8.877c-0.827-0.893-1.778-1.072-2.958-0.7l-31.402,11.195c-5.163,1.786-10.563,0.953-14.769-2.188
	C507.795,364.796,505.901,363.472,504.006,362.146z M431.553,390.425c35.857-3.235,67.322,21.474,70.371,55.261
	c3.049,33.786-23.484,63.729-59.342,66.966c-35.857,3.235-67.322-21.474-70.371-55.261S395.695,393.661,431.553,390.425z
	 M433.128,407.886c-25.573,2.308-44.562,23.737-42.387,47.833c2.174,24.097,24.692,41.779,50.266,39.472
	c25.571-2.308,44.562-23.736,42.387-47.833C481.219,423.262,458.7,405.578,433.128,407.886z"/>
<g>
	<rect x="100" y="260" fill="none" width="40" height="60"/>
	<path fill="none" d="M340,260v52.918c12.316-8.313,25.724-15.348,40-20.871V260H340z"/>
	<rect x="170" y="260" width="140" height="20"/>
	<path d="M260.96,440H30c-2.8,0-5.3-1.1-7.1-2.9c-1.8-1.8-2.9-4.3-2.9-7.1V293.2c-7.3-3.4-13.8-8.101-19.5-13.7L0,278.9V430
		c0,8.2,3.3,15.7,8.8,21.1v0.101c5.5,5.399,13,8.8,21.2,8.8h230.029c-0.009-0.721-0.029-1.439-0.029-2.162
		C260,451.817,260.329,445.868,260.96,440z"/>
	<path d="M480,278.9l-0.283,0.34c0.094,0.011,0.188,0.02,0.283,0.03V278.9z"/>
	<path d="M150,340c5.5,0,10-4.5,10-10v-80c0-5.5-4.5-10-10-10H90c-5.5,0-10,4.5-10,10v80c0,5.5,4.5,10,10,10H150z M100,260h40v60
		h-40V260z"/>
	<path d="M340,260h40v32.047c6.494-2.513,13.172-4.703,20-6.572V250c0-5.5-4.5-10-10-10h-60c-5.5,0-10,4.5-10,10v78.395
		c6.278-5.553,12.96-10.725,20-15.477V260z"/>
	<path d="M160,20h160v40h20V10c0-5.5-4.5-10-10-10H150c-5.5,0-10,4.5-10,10v50h20V20z"/>
	<path d="M465.3,265.3c9.101-9,14.7-21.5,14.7-35.3V110c0-8.2-3.4-15.7-8.8-21.2c-5.5-5.4-13-8.8-21.2-8.8H30
		c-8.2,0-15.7,3.4-21.2,8.8C3.4,94.3,0,101.8,0,110v120c0,13.8,5.6,26.3,14.7,35.3C23.7,274.4,36.2,280,50,280h20v-20H50
		c-8.3,0-15.8-3.4-21.2-8.8c-5.4-5.4-8.8-12.9-8.8-21.2V110c0-2.8,1.1-5.3,2.9-7.1c1.8-1.8,4.3-2.9,7.1-2.9h420
		c2.8,0,5.3,1.1,7.1,2.9c1.801,1.8,2.9,4.3,2.9,7.1v120c0,8.3-3.4,15.8-8.8,21.2c-5.4,5.399-12.9,8.8-21.2,8.8h-20v20h16.62
		c5.249-0.729,10.569-1.259,15.947-1.599C451.316,276.129,459.131,271.538,465.3,265.3z"/>
</g>
</svg>
