<?xml version="1.0" encoding="utf-8"?>
<!-- Generator: Adobe Illustrator 12.0.1, SVG Export Plug-In . SVG Version: 6.00 Build 51448)  -->
<!DOCTYPE svg PUBLIC "-//W3C//DTD SVG 1.1//EN" "http://www.w3.org/Graphics/SVG/1.1/DTD/svg11.dtd" [
	<!ENTITY ns_svg "http://www.w3.org/2000/svg">
	<!ENTITY ns_xlink "http://www.w3.org/1999/xlink">
]>
<svg  version="1.1" id="Ebene_1" xmlns="&ns_svg;" xmlns:xlink="&ns_xlink;" width="492.603" height="550.73"
	 viewBox="0 0 492.603 550.73" overflow="visible" enable-background="new 0 0 492.603 550.73" xml:space="preserve">
<path id="curve29" d="M40,240v-80h60v20H60v60H40z M120,240v-80h60v20h-40v60H120z M200,220v-60h60v20h-40v40H200z M40,360v-80h60
	v20H60v60H40z M120,360v-80h40v20h-20v60H120z M40,480v-80h60v20H60v60H40z M120,480v-80h40v20h-20v60H120z M300,0v220h-20V20H20
	v480h140v20H0V0H300z M40,120V40h60v20H60v60H40z M120,120V40h60v20h-40v60H120z M200,120V40h60v20h-40v60H200z"/>
<path id="curve29_1_" d="M318.085,382.695h29.086v116.332h-14.542V395.621h-14.544V382.695z"/>
<path id="curve28_1_" d="M187.198,343.918v193.887h290.86V343.918H187.198z M216.283,227.585c0-3.555,3.272-6.463,7.271-6.463
	c4.001,0,7.271,2.909,7.271,6.463v12.926h29.087v-12.926c0-3.555,3.273-6.463,7.271-6.463c4,0,7.272,2.909,7.272,6.463v12.926
	h29.086v-12.926c0-3.555,3.272-6.463,7.272-6.463c3.998,0,7.271,2.909,7.271,6.463v12.926h29.086v-12.926
	c0-3.555,3.272-6.463,7.271-6.463c4.001,0,7.273,2.909,7.273,6.463v12.926H390.8v-12.926c0-3.555,3.273-6.463,7.272-6.463
	s7.271,2.909,7.271,6.463v12.926h29.087v-12.926c0-3.555,3.271-6.463,7.271-6.463s7.272,2.909,7.272,6.463v12.926h21.813
	c12,0,21.815,8.725,21.815,19.389c0,96.944,0,193.888,0,290.831H172.654c0-96.942,0-193.887,0-290.831
	c0-10.664,9.817-19.389,21.814-19.389h21.814V227.585z M230.826,253.437v8.208c4.51,2.262,7.273,6.527,7.273,11.182
	c0,7.107-6.546,12.926-14.545,12.926c-7.999,0-14.542-5.818-14.542-12.926c0-4.654,2.763-8.855,7.271-11.182v-8.208h-21.814
	c-3.999,0-7.271,2.908-7.271,6.463v71.092h290.86V259.9c0-3.555-3.271-6.463-7.271-6.463h-21.813v8.208
	c4.508,2.262,7.271,6.527,7.271,11.182c0,7.107-6.544,12.926-14.543,12.926s-14.543-5.818-14.543-12.926
	c0-4.654,2.763-8.92,7.272-11.182v-8.208h-29.087v8.208c4.508,2.262,7.271,6.527,7.271,11.182c0,7.107-6.545,12.926-14.543,12.926
	c-7.999,0-14.543-5.818-14.543-12.926c0-4.654,2.763-8.855,7.271-11.182v-8.208h-29.085v8.208c4.508,2.326,7.271,6.527,7.271,11.182
	c0,7.107-6.545,12.926-14.545,12.926c-7.998,0-14.542-5.818-14.542-12.926c0-4.654,2.764-8.92,7.271-11.182v-8.208h-29.086v8.208
	c4.509,2.262,7.273,6.527,7.273,11.182c0,7.107-6.546,12.926-14.544,12.926c-7.999,0-14.544-5.818-14.544-12.926
	c0-4.654,2.764-8.92,7.271-11.182v-8.208h-29.086v8.208c4.509,2.262,7.271,6.527,7.271,11.182c0,7.107-6.544,12.926-14.543,12.926
	c-7.999,0-14.542-5.818-14.542-12.926c0-4.654,2.763-8.855,7.271-11.182v-8.208H230.826z"/>
</svg>
