<?xml version="1.0" encoding="UTF-8"?>
<!DOCTYPE svg PUBLIC "-//W3C//DTD SVG 1.1//EN" "http://www.w3.org/Graphics/SVG/1.1/DTD/svg11.dtd">
<svg xmlns="http://www.w3.org/2000/svg" xml:space="preserve" width="580px" height="580px" shape-rendering="geometricPrecision" text-rendering="geometricPrecision" image-rendering="optimizeQuality" fill-rule="nonzero" clip-rule="nonzero" viewBox="0 0 5800 5800" xmlns:xlink="http://www.w3.org/1999/xlink">
	<title>market_stand icon</title>
	<desc>market_stand icon from the IconExperience.com I-Collection. Copyright by INCORS GmbH (www.incors.com).</desc>
		<path id="curve28" fill="#000000" d="M5500 2300c0,331 -269,600 -600,600 -202,0 -389,-101 -500,-268 -112,167 -298,268 -500,268 -202,0 -389,-101 -500,-268 -111,167 -298,268 -500,268 -202,0 -389,-101 -500,-268 -111,167 -298,268 -500,268 -202,0 -389,-101 -500,-268 -111,167 -298,268 -500,268 -331,0 -600,-269 -600,-600l0 -237 830 -963 3540 0 830 963 0 237zm-200 0l0 -163 -721 -837 -480 0 401 776 0 224c0,221 179,400 400,400 221,0 400,-179 400,-400zm-1426 -1000l-511 0 137 792 0 226c9,213 186,382 400,382 221,0 400,-179 400,-400l0 -176 -426 -824zm-713 0l-522 0 -139 808 0 192c0,221 179,400 400,400 214,0 391,-169 400,-382l0 -210 -139 -808zm-724 0l-511 0 -426 824 0 176c0,221 179,400 400,400 221,0 400,-179 400,-400l0 -208 137 -792zm-736 0l-480 0 -721 837 0 163c0,221 179,400 400,400 220,0 399,-178 400,-398l0 -226 401 -776zm-1201 4200l0 -2507c62,36 129,63 200,82l0 2425 -200 0zm600 0l0 -1000 400 0 0 -998 1200 0 0 400 600 0 0 598 1400 0 0 1000 -200 0 0 -800 -3200 0 0 800 -200 0zm600 -1000l400 0 0 -598 400 0 0 -200 -800 0 0 798zm600 0l800 0 0 -398 -800 0 0 398zm1799 -1200c330,0 599,268 599,599 0,330 -269,599 -599,599 -331,0 -599,-269 -599,-599 0,-331 268,-599 599,-599zm0 200c-220,0 -399,178 -399,399 0,220 178,399 399,399 220,0 399,-179 399,-399 0,-221 -179,-399 -399,-399zm1201 -507l0 2507 -200 0 0 -2425c71,-19 138,-46 200,-82z"/>
</svg>