<?xml version="1.0" encoding="UTF-8"?>
<!DOCTYPE svg PUBLIC "-//W3C//DTD SVG 1.1//EN" "http://www.w3.org/Graphics/SVG/1.1/DTD/svg11.dtd">
<svg xmlns="http://www.w3.org/2000/svg" xml:space="preserve" width="580px" height="580px" shape-rendering="geometricPrecision" text-rendering="geometricPrecision" image-rendering="optimizeQuality" fill-rule="nonzero" clip-rule="nonzero" viewBox="0 0 5800 5800" xmlns:xlink="http://www.w3.org/1999/xlink">
	<title>microphone icon</title>
	<desc>microphone icon from the IconExperience.com I-Collection. Copyright by INCORS GmbH (www.incors.com).</desc>
		<path id="curve28" fill="#000000" d="M4100 300c663,0 1200,537 1200,1200 0,663 -537,1200 -1200,1200 -84,0 -167,-9 -246,-25l-1665 1442c-66,57 -173,62 -286,25 -92,-31 -193,-91 -274,-171 -80,-81 -140,-182 -171,-274 -38,-113 -32,-220 25,-287l1442 -1664c-16,-79 -25,-162 -25,-246 0,-663 537,-1200 1200,-1200zm-470 2304c-285,-121 -513,-349 -634,-634l-1362 1571c-9,10 -3,46 13,93 21,64 64,136 124,195 59,60 131,103 195,124 47,16 83,22 93,13l1571 -1362zm67 2446c10,-9 105,-91 105,-94 87,-88 129,-205 128,-324 -1,-121 -46,-243 -131,-339 -95,-108 -235,-172 -380,-173 -121,0 -242,44 -333,134 -205,206 -410,411 -615,617 -272,272 -718,272 -990,0 -233,-233 -271,-602 -92,-877 41,58 87,110 140,157 -97,191 -59,426 93,578 194,195 513,194 707,0 206,-205 411,-411 616,-616 130,-130 302,-193 475,-192 172,1 345,65 478,188 145,134 230,326 231,522 1,171 -59,339 -186,466 0,0 -107,95 -114,102l-132 -149zm403 -4550c-552,0 -1000,448 -1000,1000 0,552 448,1000 1000,1000 552,0 1000,-448 1000,-1000 0,-552 -448,-1000 -1000,-1000z"/>
</svg>