<?xml version="1.0" encoding="utf-8"?>
<svg xml:space="preserve" width="580" height="580" shape-rendering="geometricPrecision" text-rendering="geometricPrecision" image-rendering="optimizeQuality" viewBox="0 0 5800 5800" xmlns="http://www.w3.org/2000/svg"><g style="clip-rule:nonzero;fill-rule:evenodd;stroke-width:125.79;stroke-dasharray:none;image-rendering:optimizeQuality;shape-rendering:geometricPrecision;text-rendering:geometricPrecision"><path d="M1800 1600c0 15-4 30-11 45l-68 135 420 420h1518l420-420-64-127c-9-15-15-34-15-53 0-495-205-902-700-1047v547h-200V444c-62-29-131-44-200-44s-138 15-200 44v656h-200V553c-495 146-700 553-700 1047zm1730 1609c121-119 170-309 216-488 9-36 18-71 21-79 8-30 29-53 56-65 140-72 184-258 143-401l-195 195c-20 19-45 29-71 29H2100c-28 0-54-12-72-30l-194-194v2c-22 78-18 166 11 243 25 67 71 125 136 158 27 13 45 36 52 63l19 72c48 183 99 377 218 495 20 19 30 45 30 71 0 0 6 104 7 114 105 205 378 281 593 281 216 0 491-77 595-285 4-37 6-74 5-108 0-28 11-54 30-73zm-919.003 667.058C2488.997 3847.058 2398 3766 2299 3688c-7 22-17 44-29 65l123.867 129.905 36.652 39.654 39.914 42.916m910.579 2.63 72.217-104.019 99.96-122.909L3499 3698.9s-154.495 138.25-260.183 190.087zm-160.447-91.444c-29.795-9.665-118.904-36.458-190.047-40.456-51.287-2.882-129.272-3.477-176.302-1.155-84.698 4.182-158.338 14.979-236.837 42.974-96.512 34.42-299.289 213.276-299.289 213.276s-170.122-183.73-188.969-207.3c-122 72-225.121 100-335.121 133-65 20-129 40-193 64-108 39-243 88-315 158-95 93-167 190-215 296-47 105-71 219-71 345 0 111 191 200 455 268 160.694 42.064 379.634 85.077 567.439 108.15l107.22 206.767c-95.266-7.832-84.004-6.11-177.96-18.306-187.912-24.394-371.893-58.124-546.699-103.611-351-91-605-236-605-461 0-155 30-296 89-427 58-129 145-247 258-357 103-99 260-157 386-203 68-25 135-46 204-67 104-32 193-58 307-129 2-1 4-2 6-4 74-42 70-141 61-247-4-42-8-84-10-126-145-163-195-381-250-586-92-58-156-145-193-243-41-109-48-234-22-346-7-34-13-67-18-100-5-32-8-64-10-95l-79-79c-33-34-38-85-14-124l85-170c7-605 300-1085 908-1232 10-21 26-39 46-49 105-64 226-96 346-96 123 0 247 33 353 100 18 11 31 27 38 45 609 147 902 627 909 1232l89 178c20 40 11 86-18 116l-78 77c-4 62-14 128-29 197 51 216-21 467-215 589-5 17-7 27-10 37-49 191-102 394-240 549-1 41-5 82-9 123-10 105-18 203 60 250 49.038 30.753 390.046 191.265 432.498 209.518l-10.572 224.647c-36.78-19.821-453.062-223.41-491.926-243.165l-138.442 177.197"/><g style="stroke-width:114.445;stroke-dasharray:none"><path style="clip-rule:nonzero;fill-rule:evenodd;stroke-width:116.969;stroke-dasharray:none;image-rendering:optimizeQuality;shape-rendering:geometricPrecision;text-rendering:geometricPrecision" d="M-2072.524 1466.287c-35.664.173-71.277 5.392-105.554 15.219-71.952 19.682-142.782 43.326-212.555 69.68-58.977 22.178-117.447 45.778-174.767 71.964-44.283 19.794-84.816 47.95-118.78 82.585-34.249 34.86-61.816 76.222-81.004 121.158-19.21 44.88-30.073 93.276-32.186 142.036-.935 20.891-.2 41.843 1.92 62.643l42.041 451.377c-16.87 13.733-33.524 27.732-49.99 41.946a2278.548 2278.548 0 0 0-35.242 31.156c-143.825-42.423-287.645-84.863-431.47-127.283-44.912-12.919-92.194-17.651-138.763-13.6-48.427 4.161-96.006 17.797-139.33 39.825-45.505 23.072-86.273 55.333-119.461 94.064-12.103 14.078-23.171 29.032-33.28 44.6-36.79 55.558-71.765 112.31-105.142 169.98-4.546 7.846-8.8 15.857-13.175 23.799-27.992 51.319-55.056 103.157-80.386 155.846-5.182 10.78-10.36 21.573-14.839 32.67-17.209 42.09-27.417 87.052-29.865 132.467-2.693 49.2 3.698 98.883 18.791 145.789 15.162 47.301 39.145 91.735 70.222 130.475 9.995 12.508 20.787 24.362 32.092 35.695l313.11 319.448c-3.884 20.009-7.519 40.066-11.082 60.133-3.09 18.658-6.064 37.334-8.824 56.043-135.904 62.163-271.813 124.313-407.713 186.484-42.936 20.03-82.215 47.898-115.191 81.927-33.874 34.878-61.09 76.165-79.962 120.965-19.477 46.12-30.106 95.91-31.52 145.938-.574 18.93.252 37.888 2.175 56.725 6.317 69.216 15.687 138.145 27.726 206.595 10.46 66.946 24.09 133.381 40.335 199.158 2.457 9.892 4.777 19.823 7.66 29.604 12.531 43.076 32.147 84.108 58.04 120.755 28.084 39.811 63.534 74.42 104.077 101.446 40.352 26.949 85.719 46.343 133.067 56.952 18.75 4.228 37.811 7.023 56.965 8.578l434.302 39.48c9.649 18.288 19.661 36.38 29.756 54.424 8.789 15.863 17.903 31.544 27.161 47.137-64.452 137.95-128.915 275.894-193.354 413.85-21.005 45.591-33.74 95.013-37.057 145.114-3.4 50.572 2.782 101.784 18.255 150.057 14.884 46.638 38.434 90.48 69.02 128.701 9.927 12.437 20.637 24.238 31.903 35.474 48.248 49.543 98.655 96.949 150.345 142.877 23.417 20.018 46.995 39.849 70.788 59.42 31.951 26.27 64.333 52.027 97.448 76.817 38.852 28.67 83 50.185 129.606 62.854 47.873 13.064 98.276 16.785 147.545 10.851 46.1-5.503 91.163-19.434 132.382-40.79 18.981-9.813 37.122-21.225 54.302-33.925l353.128-255.82c34.488 14.096 69.278 27.458 104.37 39.981 37.287 149.802 74.565 299.605 111.866 449.403 11.888 46.342 31.92 90.61 59.124 129.977 28.217 40.91 64.134 76.51 105.394 104.227 40.455 27.228 86.028 46.829 133.635 57.403 19.288 4.324 38.912 7.084 58.622 8.538 66.16 5.524 132.499 8.862 198.874 10.207 26.236.18 52.473-.011 78.705-.484a3186.076 3186.076 0 0 0 131.933-5.192c45.6-3.041 90.676-14.14 132.376-32.866 41.805-18.736 80.173-45.076 112.75-77.28 33.186-32.744 60.363-71.5 80.165-113.69 11.738-24.957 20.867-51.118 27.463-77.89l111.127-435.855a3116.863 3116.863 0 0 0 54.942-18.75 3480.796 3480.796 0 0 0 51.062-19.75c120.536 89.928 241.068 179.862 361.616 269.774 38.884 28.741 83.028 50.415 129.677 63.2 46.576 12.817 95.59 16.748 143.606 11.396 47.221-5.208 93.414-19.389 135.499-41.415 19.228-10.029 37.565-21.733 54.915-34.736 53.823-39.481 106.382-80.68 157.683-123.384 8.48-7.24 16.784-14.687 25.156-22.052 45.113-39.935 89.534-80.68 132.348-123.08 34.771-34.91 63.107-76.23 82.987-121.322 19.52-44.173 30.931-91.903 33.56-140.123 2.689-48.633-3.546-97.721-18.117-144.19-5.89-18.906-13.23-37.345-21.673-55.252l-188.907-410.244c20-32.612 39.067-65.803 56.942-99.63.924-1.731 1.835-3.47 2.75-5.208 147.356-10.143 294.714-20.277 442.07-30.435 46.814-3.492 93.029-15.325 135.62-35.099 43.61-20.188 83.359-48.65 116.566-83.382 33.566-35.037 60.443-76.398 79.17-121.144 8.848-21.049 15.843-42.86 21.165-65.06 16.727-66.957 30.6-134.611 42.218-202.636 11.88-67.633 21.04-135.73 28.096-204.03 5.347-48.864 1.98-98.687-10.098-146.345a409.333 409.333 0 0 0-51.41-119.32c-17.42-27.367-38.133-52.637-61.59-75.048a400.046 400.046 0 0 0-95.744-67.756c-8.454-4.286-17.074-8.234-25.608-12.357L656.795 3902.8c-3.038-21.149-6.34-42.26-9.713-63.357-3.69-20.678-7.397-41.353-11.377-61.977 106.46-106.028 212.926-212.048 319.374-318.087 34.143-34.322 62.07-74.835 81.803-119.052 20.442-45.694 32.113-95.275 34.311-145.28 2.216-49.28-4.728-98.918-20.082-145.784-6.439-19.75-14.41-38.987-23.632-57.596-29.27-60.501-59.995-120.307-92.49-179.142-33.9-60.34-69.862-119.516-107.631-177.51-26.558-40.923-60.5-77.078-99.868-105.91-35.233-25.829-74.8-45.747-116.58-58.527a385.257 385.257 0 0 0-95.717-16.505c-36.203-1.623-72.622 1.935-107.849 10.426-10.123 2.414-20.107 5.36-30.153 8.067l-408.295 112.13c-14.93-13.734-30.137-27.165-45.537-40.368a1830.029 1830.029 0 0 0-45.055-38.358c14.542-153.115 29.098-306.23 43.63-459.346 4.699-50.713-.152-102.31-14.375-151.222-12.53-43.215-32.354-84.305-58.389-121.004a401.243 401.243 0 0 0-58.022-65.314c-27.992-25.334-59.598-46.66-93.55-63.17-8.385-4.089-16.935-7.824-25.41-11.722-56.557-25.655-113.684-50.1-171.724-72.218-63.131-24.38-127.352-45.817-191.86-66.229-48.493-15.173-99.971-20.886-150.593-16.306-48.525 4.33-96.183 18.11-139.538 40.331-41.365 21.143-78.777 49.908-110.056 84.24-14.312 15.678-27.323 32.529-39.04 50.227l-250.01 370.495c-18.724-.543-37.454-.818-56.184-.964-18.575-.541-37.16-.674-55.742-.452-83.67-126.525-167.327-253.057-251.004-379.577-26.69-39.565-60.152-74.61-98.772-102.685-38.83-28.27-82.853-49.44-129.28-61.798a384.035 384.035 0 0 0-100.909-12.968zm121.147 639.701c47.76 72.316 95.505 144.642 143.275 216.95 22.064 32.979 50.391 61.81 83.263 84.07 33.18 22.532 70.92 38.306 110.266 46.088 25.03 4.981 50.68 6.788 76.166 5.467 19.228-.928 38.47-1.602 57.717-1.989l1.567-.028 4.09-.077c-.259 0 1.009-.017 1.395-.023 45.827-.716 91.72.236 137.395 4.203 35.862 2.416 72.165-1.47 106.63-11.712 34.672-10.266 67.439-26.92 96.165-48.883 26.737-20.411 49.945-45.383 68.549-73.396l275.4-408.793c48.179 15.312 95.879 32.105 143.171 49.959 47.553 18.587 94.588 38.495 141.076 59.604-16.091 167.768-32.195 335.535-48.278 503.305-3.822 41.29.524 83.35 13 122.908 11.32 35.993 29.312 69.861 52.749 99.427 16.603 20.986 35.923 39.795 57.202 56.011 7.774 6.036 15.5 12.135 23.182 18.288-.423-.333.771.624 1.033.837 16.85 13.532 33.41 27.427 49.612 41.73-.078-.073.844.744 1.157 1.019 11.444 10.122 22.89 20.242 34.339 30.36.552.056.875.72 1.335 1.02 14.855 13.504 29.325 27.434 43.307 41.84 18.78 18.224 39.648 34.335 62.264 47.52 26.802 15.652 56.031 27.189 86.367 33.795l.139 36.133 611.838-168.857c28.203 43.763 55.134 88.35 80.58 133.774 25.608 46.306 49.726 93.427 72.617 141.132-116.926 116.488-233.858 232.971-350.771 349.472-30.192 30.533-54.01 67.37-69.257 107.523-12.642 33.16-19.483 68.52-20.103 104.005-.464 25.634 2.284 51.319 8.104 76.287 1.92 8.68 3.675 17.396 5.484 26.1a2783.18 2783.18 0 0 1 6.326 31.97c-.014-.088.211 1.11.29 1.52 4.558 23.982 8.862 48.017 12.511 72.156 4.371 28.466 8.078 57.031 11.267 85.653 4.635 37.613 15.986 74.418 33.637 107.968 18.582 35.402 44.141 67.112 74.763 92.817 21.335 17.946 45.092 32.984 70.365 44.742l440.072 210.371a2672.536 2672.536 0 0 1-7.13 58.225c.042-.342-.143 1.054-.189 1.384-3.45 25.723-7.27 51.397-11.387 77.022.016-.08-.18 1.115-.246 1.53l-1.513 9.333c.013-.113-.164 1.002-.227 1.363-3.736 22.9-7.976 45.714-12.56 68.457.082-.429-.208 1.011-.276 1.338-6.244 30.78-13.21 61.41-20.703 91.909-161.647 11.012-323.295 22.012-484.942 33.033-37.073 2.73-73.66 12.302-107.202 28.355-32.379 15.464-61.876 36.883-86.713 62.77-22.658 23.55-41.436 50.757-55.842 80.072-15.332 30.732-31.016 61.313-48.277 91.016-8.62 15.29-17.598 30.375-26.735 45.361.085-.147-.583.952-.798 1.3l-2.675 4.368c.01-.01-.596.97-.82 1.336l-2.685 4.363c.09-.154-.588.947-.804 1.293-7.878 12.708-15.766 25.412-23.765 38.045-20.343 32.766-34.659 69.29-41.734 107.215-7.238 38.56-6.983 78.495.643 116.976 5.158 26.241 13.755 51.776 25.22 75.927a10038130.84 10038130.84 0 0 1 209.227 452.066 3298.02 3298.02 0 0 1-42.465 39.498c.182-.16-.815.743-1.11 1.013-28.564 26.063-57.633 51.574-87.256 76.426-20.346 17.023-41.06 33.601-61.986 49.904.311-.236-.828.643-1.09.848a3439.441 3439.441 0 0 1-39.398 30.152c-132.194-98.66-264.382-197.327-396.588-295.972-31.207-23.078-66.78-40.332-104.394-50.004-37.986-9.84-77.95-11.887-116.756-6.106-27.202 4.018-53.806 11.855-78.967 22.923-30.422 13.072-61.17 25.385-92.158 37.048-28.081 9.478-56.005 19.463-84.424 27.899-7.603 2.226-15.267 4.255-22.766 6.823-34.95 11.69-67.821 29.661-96.327 53.04-30.583 25.005-56.074 56.177-74.626 91.047-12.105 22.715-21.3 46.964-27.473 71.947-.158.615-.39 1.552-.578 2.29l-120.904 480.173c-3.478.18-6.957.345-10.436.514.095 0-1.126.052-1.543.072-26.776 1.24-53.571 2.1-80.374 2.397.1 0-1.341.015-1.34.014l-7.512.065c.397 0-1.046.01-1.38.01-16.684.115-33.37-.098-50.051-.402-13.99-.1-27.977-.35-41.96-.787-.089-.01-1.147-.037-1.593-.053-5.976-.188-11.95-.413-17.924-.655.46.016-.888-.04-1.164-.053a2265.864 2265.864 0 0 1-34.938-1.757c.103 0-1.125-.067-1.54-.093l-5.432-.323c.151.012-1.117-.07-1.527-.094a2866.419 2866.419 0 0 1-33.358-2.263c-.02 0-1.139-.086-1.572-.12-2.983-.221-5.965-.444-8.946-.68-41.064-164.002-82.113-328.008-123.181-492.01-10.55-41.557-29.59-81.008-56.043-114.784-21.5-27.529-47.837-51.27-77.467-69.771-22.043-13.785-45.878-24.678-70.683-32.452-12.08-4.19-24.173-8.347-36.26-12.517-.28-.1-1.135-.394-1.635-.568-19.636-6.8-39.27-13.613-58.765-20.808a1787.21 1787.21 0 0 1-23.355-9.66c.206.082-1.018-.432-1.389-.59-16.02-6.766-31.945-13.752-47.857-20.767l-1.443-.638c-8.706-3.83-17.376-7.744-26.106-11.52-36.085-15.277-75.12-23.653-114.318-24.139-37.569-.505-75.214 6.209-110.297 19.655-25.972 9.92-50.526 23.485-72.872 40.015a9477934.994 9477934.994 0 0 1-390.354 282.254 2638.848 2638.848 0 0 1-116.551-95.074c-7.263-6.317-14.369-12.81-21.504-19.27-32.963-30.005-65.127-60.874-96.97-92.06 71.227-152.046 142.466-304.087 213.679-456.14 16.52-35.733 26.279-74.612 28.273-113.942 2.084-40.29-3.965-80.955-17.488-118.957-8.512-24.04-19.956-47.02-33.824-68.416-17.17-27.17-33.043-55.125-48.9-83.072-8.921-15.917-17.496-32.026-25.925-48.208-8.6-16.513-16.908-33.176-25.134-49.877-20.597-40.916-50.099-77.387-86.142-105.697-28.953-22.796-62.083-40.31-97.315-51.149-20.714-6.39-42.135-10.455-63.74-12.197-161.649-14.86-323.297-29.722-484.946-44.586-9.794-43.763-18.714-87.72-26.996-131.794.023.137-.205-1.103-.282-1.508-2.007-10.88-4.148-21.739-5.8-32.681-7.898-49.358-14.6-98.909-19.945-148.608 148.254-67.722 296.513-135.434 444.76-203.172 35.101-16.164 67.151-38.983 93.736-67.045 25.611-26.983 46.134-58.753 60.32-93.138 11.3-27.322 18.607-56.262 21.918-85.635 3.989-31.761 7.958-63.544 13.496-95.08l.276-1.561c1.216-6.672 2.266-13.372 3.42-20.055.023-.105.197-1.132.276-1.575 4.912-28.444 10.761-56.728 17.679-84.753 8.413-36.447 10.485-74.385 5.706-111.5-4.863-38.14-16.933-75.337-35.343-109.09-14.578-26.792-33.117-51.39-54.634-72.995a9157609.78 9157609.78 0 0 1-347.678-354.74c25.675-51.733 52.214-103.072 81.163-153.062a2759.003 2759.003 0 0 1 72.47-118.857c156.327 46.397 312.65 92.807 468.98 139.197 36.49 10.472 74.958 14.102 112.747 10.354 40.029-3.929 79.222-16.099 114.447-35.513 22.843-12.548 44.03-28.082 62.956-45.995 8.872-8.23 17.798-16.402 26.672-24.63 16.728-15.437 33.419-30.923 50.612-45.845 26.05-21.574 52.523-42.661 79.918-62.51 22.361-17.31 42.502-37.52 59.493-60.136 23.066-30.629 40.315-65.623 50.514-102.586 10.045-36.273 13.328-74.36 10.023-111.839-.977-10.918-2.015-21.831-3.006-32.749a7551308.111 7551308.111 0 0 0-43.519-472.55c46.55-20.071 93.615-38.937 141.063-56.778 12.756-4.607 25.568-9.058 38.394-13.467-.076.022 1.07-.365 1.467-.502a2901.743 2901.743 0 0 1 24.537-8.26c-.14.05 1.064-.35 1.455-.477a2446.754 2446.754 0 0 1 31.08-10.042c-.074.028 1.079-.338 1.48-.463a2102.023 2102.023 0 0 1 44.634-13.52l132.756 201.045zm502.753 943.497c-75.216.14-150.427 7.97-224.022 23.524-54.607 11.528-108.314 27.306-160.496 47.101-53.367 20.252-105.128 44.725-154.669 73.075-56.361 32.25-109.857 69.5-159.69 111.132a1122.979 1122.979 0 0 0-112.743 108.378c-45.82 50.634-87.027 105.436-122.991 163.485-30.16 48.662-56.627 99.608-79.152 152.24a1150.914 1150.914 0 0 0-47.442 132.97 1158.97 1158.97 0 0 0-31.328 140.877c-8.488 53.724-13.199 108.04-14.2 162.42-1.025 56.449 1.926 112.973 8.933 168.996 7.74 61.956 20.418 123.297 37.933 183.23a1166.78 1166.78 0 0 0 78.864 199.579 1167.486 1167.486 0 0 0 76 128.901c43.64 64.203 93.714 124.037 149.3 178.232 43.331 42.265 90.012 81.098 139.486 115.975 40.353 28.429 82.56 54.23 126.292 77.123 49.229 25.77 100.389 47.854 152.93 65.942 50.904 17.522 103.097 31.308 156.025 41.157 63.08 11.756 127.196 17.91 191.357 18.49 58.5.528 117.045-3.589 174.881-12.402a1081.595 1081.595 0 0 0 205.485-52.286c47.082-17.031 92.971-37.347 137.263-60.69a1104.504 1104.504 0 0 0 106.819-64.327 1114.719 1114.719 0 0 0 122.462-96.804c48.458-44.151 93.04-92.552 133.106-144.437a1139.41 1139.41 0 0 0 87.451-131.103 1144.507 1144.507 0 0 0 86.771-190.523c25.363-72.603 43.383-147.759 53.832-223.948 9.792-71.27 12.959-143.435 9.67-215.294-2.58-56.27-9.15-112.358-19.732-167.686-15.144-79.27-38.504-156.972-69.659-231.422a1164.704 1164.704 0 0 0-76.954-151.804A1165.506 1165.506 0 0 0-569.1 3480.54c-41.106-52.201-86.7-100.873-136.172-145.229-43.935-39.401-90.925-75.4-140.441-107.509a1123.941 1123.941 0 0 0-101.604-58.579c-43.185-21.96-87.8-41.114-133.491-57.226a1096.183 1096.183 0 0 0-174.199-45.783c-63.875-11.29-128.754-16.849-193.617-16.73zm3.333 433.503c60.978-.067 121.974 8.09 180.742 24.38 59.586 16.47 116.846 41.238 169.793 73.132a698.633 698.633 0 0 1 46.412 30.535c-.395-.277.823.594 1.094.79 49.766 35.793 94.808 78.112 133.796 125.408-.285-.34.653.796.864 1.054 45.915 55.89 83.379 118.701 110.792 185.636a731.56 731.56 0 0 1 47.005 172.337c8.782 60.542 10.06 122.167 3.831 183.024-5.905 57.388-18.62 114.085-37.988 168.434-26.96 75.789-66.87 146.968-117.62 209.388-47.18 58.074-103.72 108.585-167.001 148.543-48.155 30.44-100.184 54.776-154.486 72.026-55.997 17.818-114.38 28.078-173.088 30.564-1.492.067-2.985.119-4.478.177.408-.019-1.042.035-1.375.045-64.548 2.21-129.424-4.812-191.951-21.021-54.617-14.124-107.416-35.191-156.85-62.36a698.34 698.34 0 0 1-23.367-13.437c.419.257-.866-.523-1.153-.696a697.304 697.304 0 0 1-20.8-13.07c.45.299-.83-.543-1.112-.727-60.642-39.774-115.03-88.997-160.901-145.153-43.355-53.03-79.15-112.227-105.99-175.247a730.256 730.256 0 0 1-48.224-164.5c-10.053-59.398-12.772-120.021-8.24-180.09 5.222-69.673 20.478-138.613 45.433-203.884 22.108-57.903 51.822-112.903 88.203-163.085 44.929-62.007 100.082-116.63 162.766-160.634a675.13 675.13 0 0 1 92.078-54.34c-.43.205.914-.445 1.215-.591 52.13-25.306 107.59-43.746 164.504-54.654 41.526-7.983 83.812-11.948 126.096-11.984z" transform="matrix(.34849 .04153 -.03798 .32178 3567.57 3508.264)"/><path style="fill-rule:evenodd" d="M2702.748 729.792c-35.7.4-71.318 5.865-105.573 15.93-71.578 20.075-142.022 44.074-211.395 70.771-59.003 22.596-117.485 46.626-174.804 73.235-42.95 19.497-82.324 46.86-115.53 80.373-34.494 34.752-62.32 76.062-81.75 120.99-19.885 45.866-31.027 95.457-32.987 145.382-.876 21.185-.01 42.424 2.26 63.498l44.506 450.864a2276.6 2276.6 0 0 0-49.402 41.95 2319.794 2319.794 0 0 0-35.425 31.7c-142.554-41.064-285.108-82.131-427.66-123.2-.72-.204-1.73-.5-2.56-.738-45.48-13.032-93.39-17.657-140.526-13.28-47.364 4.347-93.875 17.755-136.339 39.207-43.567 21.952-82.839 52.31-115.3 88.716-14.631 16.353-27.834 33.961-39.669 52.432-36.97 56.53-72.063 114.279-105.52 172.952-3.962 7.064-7.732 14.234-11.602 21.35-30.307 56.31-59.518 113.234-86.52 171.208-20.241 44.118-32.684 91.822-36.297 140.223-3.598 47.628 1.316 95.88 14.48 141.78 13.404 46.919 35.413 91.337 64.496 130.5 12.848 17.343 27.119 33.614 42.457 48.793l315.593 318.142c-3.766 20.104-7.319 40.247-10.775 60.405-2.978 18.61-5.837 37.24-8.484 55.9-135.511 63.014-271.028 126.018-406.534 189.045-42.505 20.136-81.371 47.967-114.019 81.84-34.197 35.405-61.557 77.354-80.348 122.834-18.709 45.17-28.966 93.772-30.449 142.613-.631 19.87.257 39.774 2.381 59.535 6.705 69.254 16.46 138.201 28.894 206.651 10.15 62.623 23.05 124.788 38.295 186.361a3139.873 3139.873 0 0 0 7.922 31.322c13.297 49.757 36.035 97.005 66.921 138.224 28.713 38.392 64.427 71.541 104.918 97.22 40.24 25.58 85.167 43.746 131.871 53.402 17.567 3.656 35.387 6.05 53.28 7.387l434.29 36.656c9.811 18.347 19.998 36.49 30.26 54.587 8.82 15.68 17.943 31.189 27.223 46.6-63.68 138.337-127.37 276.67-191.036 415.014-21.205 46.695-33.76 97.334-36.47 148.545-2.775 51.26 4.306 103.038 20.855 151.62 15.49 45.636 39.326 88.402 69.91 125.633 9.52 11.627 19.751 22.66 30.444 33.216 48.372 49.046 98.852 95.981 150.612 141.426 12.415 10.552 24.953 20.96 37.482 31.376 42.936 35.584 86.465 70.484 131.291 103.67 39.268 28.715 83.887 50.143 130.947 62.558 46.974 12.442 96.318 15.91 144.584 10.118 46.881-5.579 92.703-19.868 134.508-41.824 19.022-9.964 37.187-21.539 54.375-34.408l351.735-258.109c34.563 13.878 69.427 27.012 104.586 39.304 38.11 149.537 76.21 299.077 114.334 448.61 12.625 48.163 34.082 94.016 63.216 134.394 27.348 37.956 61.41 71.076 100.223 97.206 38.295 25.83 81.192 44.83 126.083 55.774 22.319 5.47 45.126 8.894 68.051 10.45 65.876 5.091 131.917 8.004 197.985 8.964 14.001.077 28.004-.08 42.005-.245a3187.297 3187.297 0 0 0 168.53-6.648c39.682-2.694 78.955-11.519 115.956-26.144 37.45-14.787 72.522-35.559 103.534-61.24 33.059-27.319 61.472-60.2 83.925-96.724 19.712-32.006 34.848-66.795 45.074-102.952 2.971-10.421 5.399-20.984 8.063-31.485l105.133-422.142a3218.8 3218.8 0 0 0 54.74-19.068 3461.59 3461.59 0 0 0 51.048-20.118c121.06 89.166 242.114 178.338 363.184 267.489 39.112 28.521 83.458 49.92 130.26 62.382 46.826 12.52 96.05 16.072 144.194 10.283 47.15-5.619 93.203-20.18 135.095-42.547 18.9-10.059 36.927-21.734 53.978-34.678 53.822-39.991 106.36-81.704 157.626-124.921 5.484-4.746 10.857-9.618 16.288-14.423 46.078-41.11 91.473-83.018 135.22-126.613 12.092-11.924 23.463-24.583 33.968-37.929 23.893-30.289 43.41-64.027 57.696-99.86 17.317-43.396 26.961-89.829 28.38-136.516 1.55-49.525-6.146-99.286-22.359-146.082-5.405-15.693-11.84-31.018-18.995-45.99l-191.001-408.653c19.725-32.585 38.523-65.734 56.134-99.508 1-1.901 1.992-3.806 2.978-5.714 147.316-11.099 294.632-22.185 441.947-33.299 46.87-3.805 93.092-15.978 135.63-36.09 43.494-20.504 83.07-49.263 116.067-84.24 31.76-33.61 57.427-72.91 75.726-115.357 9.864-22.807 17.562-46.53 23.231-70.713 15.382-62.982 28.236-126.565 39.067-190.478 3.176-18.93 6.368-37.86 9.24-56.839 8.43-55.291 15.16-110.836 20.49-166.508 4.188-47.095.29-94.903-11.629-140.648-13.068-50.291-35.792-98.065-66.71-139.822-30.556-41.371-69.141-76.798-113.032-103.623-14.214-8.721-29.013-16.47-44.169-23.423l-398.078-187.013c-3.178-21.19-6.596-42.345-10.104-63.482-3.796-20.59-7.599-41.18-11.686-61.714 105.949-106.788 211.905-213.57 317.843-320.369 33.749-34.394 61.316-74.866 80.75-118.963 19.888-45.008 31.29-93.724 33.553-142.858 2.294-48.915-4.432-98.195-19.473-144.768-6.739-20.943-15.175-41.328-25.05-60.982-29.454-60.03-60.362-119.352-92.987-177.72-30.124-52.97-61.856-105.023-94.995-156.16-5.871-9.027-11.73-18.064-17.726-27.01-26.53-39.004-59.824-73.44-98.175-100.931-38.09-27.359-81.127-47.847-126.45-59.97-45.45-12.203-93.159-15.956-139.975-11.017-23.371 2.447-46.504 7.074-69.071 13.626l-421.624 118.695c-14.995-13.64-30.274-26.963-45.741-40.063a1833.834 1833.834 0 0 0-45.28-38.08c13.697-153.192 27.407-306.384 41.095-459.577 4.405-50.554-.665-101.926-15.037-150.583-14.438-49.059-38.3-95.325-69.971-135.468-29.768-37.804-66.437-70.151-107.661-94.974-15.392-9.292-31.437-17.485-47.907-24.692-60.185-27.052-120.979-52.815-182.794-75.938-63.328-24.028-127.74-45.082-192.432-65.113-44.804-13.778-92.113-19.487-138.919-16.492-36.56 2.32-72.776 9.968-107.172 22.599-36.023 13.218-70.016 31.93-100.516 55.22-30.476 23.233-57.457 51.006-79.984 81.999-5.454 7.429-10.523 15.127-15.621 22.802l-244.656 367.136c-18.718-.422-37.443-.573-56.166-.595-18.584-.423-37.176-.435-55.762-.092-84.396-126.03-168.783-252.068-253.192-378.09-27.541-40.274-62.135-75.78-102.043-103.89-39.136-27.621-83.35-48.086-129.837-59.74a383.956 383.956 0 0 0-97.962-11.545zm124.714 638.96c48.148 71.99 96.28 143.99 144.44 215.972 23.365 34.49 53.625 64.36 88.747 86.81a300.414 300.414 0 0 0 93.127 39.436c29.181 6.882 59.377 9.392 89.308 7.57 39.535-2.13 79.133-3.26 118.724-2.817 1.03.01 2.333.03 3.469.043 9.188.122 18.375.348 27.56.662-.47-.02 1.018.037 1.352.05 16.944.6 33.873 1.59 50.775 2.913 39.144 2.337 78.768-2.863 115.891-15.587 34.071-11.615 66.003-29.477 93.727-52.447 21.736-17.974 40.911-39.024 56.85-62.289 4.987-7.328 9.83-14.754 14.762-22.119l262.055-393.89c46.799 14.546 93.156 30.485 139.133 47.437 11.258 4.185 22.423 8.615 33.595 13.02l5.853 2.326c-.211-.09 1.026.41 1.4.56l7.221 2.896c-.204-.078 1.026.416 1.4.569a2866.19 2866.19 0 0 1 96.243 40.919c-15.166 167.873-30.347 335.746-45.505 503.62-3.566 41.076.93 82.861 13.471 122.137 12.13 38.154 31.795 73.872 57.462 104.583 15.843 18.997 33.957 36.076 53.727 50.936 18.245 13.98 36.234 28.295 53.864 43.042-.39-.32.769.648 1.024.865 13.846 11.565 27.321 23.56 40.936 35.395l14.69 12.822c.59.155.994.833 1.51 1.195 14.573 13.119 28.77 26.657 42.52 40.638 26.243 25.23 56.648 46.25 89.932 61.093a294.643 294.643 0 0 0 58.713 19.176l.2 36.375c203.821-57.657 407.642-115.309 611.463-172.964 27.932 42.785 54.635 86.376 79.917 130.78 8.008 14.145 15.779 28.422 23.49 42.731-.09-.173.524.98.716 1.337 17.524 32.676 34.37 65.715 50.584 99.061-116.26 117.227-232.53 234.445-348.784 351.678-29.042 29.71-52.088 65.277-67.174 103.99-14.154 36.207-21.354 75.108-21.091 113.97.148 24.276 3.199 48.517 8.937 72.096 3.38 15.421 6.632 30.87 9.751 46.345-.016-.06.222 1.11.304 1.524a2491.39 2491.39 0 0 1 7.524 39.067c-.044-.22.197 1.088.268 1.484a1601.378 1601.378 0 0 1 6.248 36.15c-.023-.114.17 1.043.23 1.439 4.757 29.555 8.816 59.221 12.29 88.955 4.935 38.745 16.988 76.604 35.714 110.886 19.228 35.314 45.467 66.775 76.722 92.065 20.752 16.831 43.685 30.947 67.986 42.053 146.996 69.136 293.997 138.27 440.99 207.407-5.643 53.558-13.019 106.927-21.66 160.083-4.262 25.871-9.1 51.648-14.408 77.325-5.078 24.587-10.594 49.081-16.45 73.494-161.6 12.06-323.202 24.104-484.802 36.172-37.376 3.002-74.216 12.965-107.9 29.49-33.936 16.606-64.613 39.789-89.996 67.768-19.808 21.787-36.454 46.412-49.499 72.799-4.051 8.151-8.031 16.338-12.137 24.463-11.827 23.62-24.06 47.046-37.202 69.965-12.809 23.02-26.42 45.58-40.199 68.028.039-.072-.593.962-.814 1.319-5.6 9.106-11.203 18.211-16.865 27.28-20.413 33.442-34.569 70.716-41.242 109.325-6.298 36.27-6.01 73.654.78 109.82 5.095 27.254 13.844 53.803 25.767 78.823.05.097.489 1.04.681 1.446 70.616 150.32 141.23 300.64 211.84 450.961-38.127 36.533-77.108 72.18-117.137 106.621-37.298 32.2-75.943 62.8-115.078 92.725-132.775-97.83-265.544-195.668-398.331-293.482-31.219-22.772-66.739-39.73-104.243-49.166-36.908-9.34-75.646-11.36-113.346-5.981-28.025 3.961-55.453 11.965-81.326 23.435-.057.028-1.05.459-1.455.636-17.696 7.746-35.514 15.209-53.419 22.457.086-.039-1.047.421-1.435.577-3.204 1.296-6.413 2.577-9.623 3.86.033-.01-1.055.42-1.452.578-8.502 3.366-17.006 6.73-25.556 9.976-7.56 2.653-15.135 5.262-22.694 7.917-24.417 8.51-48.84 17.067-73.726 24.117-37.995 11.442-73.817 30.217-104.611 55.282-30.993 25.155-56.838 56.605-75.57 91.846-12.305 23.085-21.618 47.748-27.766 73.167-12.018 48.782-23.998 97.575-36 146.362l-82.962 337.385c-33.379 1.909-66.793 3.249-100.223 3.701.436 0-1.032.017-1.365.02-16.597.221-33.197.164-49.793-.053-10.242-.026-20.484-.07-30.724-.263.171.01-1.116-.02-1.524-.027-6.647-.12-13.292-.277-19.937-.476-.254-.01-1.16-.033-1.67-.049-5.007-.157-10.014-.33-15.02-.516.413.02-1.04-.04-1.373-.054-27.017-1.05-54.012-2.62-80.981-4.525-41.956-163.678-83.896-327.36-125.85-491.039-10.027-38.674-27.41-75.468-51.287-107.513-23.373-31.44-52.962-58.238-86.585-78.351-21.267-12.752-44.124-22.816-67.832-30.079-30.509-10.362-61.096-20.5-91.447-31.317.423.156-.965-.347-1.28-.46-5.817-2.052-11.49-4.486-17.216-6.775-2.648-1.073-5.287-2.169-7.93-3.254.11.04-1.038-.432-1.42-.592-25.513-10.557-50.797-21.654-76.12-32.655-37.12-15.67-77.359-24.047-117.685-24.047-34.77-.043-69.537 6.087-102.212 18.004-28.152 10.238-54.722 24.746-78.707 42.686a8210405.447 8210405.447 0 0 1-389.02 284.94 2626.306 2626.306 0 0 1-118.688-95.697c-9.035-7.862-17.931-15.884-26.824-23.907-16.431-14.886-32.673-29.981-48.795-45.202.116.104-.811-.77-1.108-1.053l-7.036-6.668c.078.079-.815-.776-1.117-1.062a5232.117 5232.117 0 0 1-32.594-31.29c70.476-152.689 140.96-305.373 211.42-458.069 17.007-37.552 26.59-78.49 27.602-119.705.898-34.619-4.181-69.36-14.808-102.302-8.865-27.581-21.597-53.88-37.434-78.122-18.23-28.387-34.981-57.683-51.794-86.921-1.006-1.802-2.015-3.601-3.018-5.405l-.762-1.38a2022.377 2022.377 0 0 1-25.309-47.135c.091.165-.51-.988-.697-1.35-6.677-12.823-13.172-25.74-19.638-38.672-19.774-38.77-47.568-73.474-81.352-100.935-33.787-27.544-73.585-47.752-115.889-58.394-16.758-4.243-33.894-6.961-51.133-8.246l-485-41.43-.672-2.925c-.015-.055-.254-1.116-.353-1.546a3681.535 3681.535 0 0 1-12.798-58.344c-.032-.167-.246-1.171-.348-1.663l-1.23-5.856c.03.166-.227-1.093-.31-1.493a4332.713 4332.713 0 0 1-16.142-81.454c-1.713-9.528-3.214-19.093-4.769-28.648-7.037-43.958-13.131-88.069-18.127-132.307 145.23-67.449 290.465-134.89 435.689-202.355 7.318-3.395 14.65-6.775 21.763-10.589 33.686-17.871 64.033-42.061 88.79-71.082 23.91-27.96 42.624-60.324 55.059-94.937 8.621-23.92 14.26-48.893 16.96-74.165l1.548-12.969c-.03.29.124-.99.167-1.345.671-5.528 1.353-11.055 2.041-16.582 0 .02.144-1.128.199-1.553.96-7.677 1.965-15.348 3.006-23.014-.06.4.142-1.034.187-1.365 2.1-15.386 4.454-30.74 7.153-46.033 5.234-33.408 11.62-66.646 19.548-99.525 8.815-38.724 10.457-79.105 4.382-118.356-5.81-37.87-18.752-74.617-37.904-107.787-14.237-24.705-31.864-47.428-52.1-67.506l-349.733-352.594c25.465-52.053 51.805-103.714 80.576-154.032 22.86-40.21 46.7-79.865 71.554-118.877 156.621 45.4 313.24 90.81 469.866 136.196 36.87 10.312 75.715 13.64 113.798 9.47 34.632-3.77 68.587-13.682 99.82-29.134 28.362-13.997 54.452-32.53 77.182-54.516 24.195-22.428 48.017-45.265 72.682-67.18 5.034-4.465 10.289-8.67 15.44-12.995 21.924-18.148 44.226-35.85 67.166-52.698 19.272-15.116 36.881-32.375 52.2-51.493 24.159-30.089 42.59-64.76 53.942-101.635 11.42-37.001 15.735-76.13 12.994-114.729-.661-9.394-1.74-18.752-2.61-28.128-15.767-161.446-31.537-322.892-47.31-484.337 46.89-20.576 94.315-39.923 142.136-58.22 46.694-16.997 93.779-32.952 141.408-47.127l133.9 200.232zm507.9 940.162c-77.004.642-153.96 9.34-229.134 26.132-67.79 15.119-134.12 36.792-197.78 64.589-45.283 19.765-89.215 42.624-131.416 68.326-40.67 24.765-79.724 52.18-116.876 81.966-75.93 60.895-143.826 131.766-201.583 210.1-54.205 73.49-99.497 153.534-134.654 237.8a1151.615 1151.615 0 0 0-51.638 153.295c-15.629 60.045-26.406 121.343-32.271 183.1-5.889 61.976-6.869 124.411-3 186.536 5.175 83.178 19.171 165.805 41.832 245.992a1164.584 1164.584 0 0 0 76.777 199.687 1164.67 1164.67 0 0 0 88.697 150.03c59.44 85.256 130.373 162.504 210.429 228.79 75.312 62.39 158.706 115.064 247.589 155.912 49.178 22.612 100.02 41.616 151.995 56.756a1093.046 1093.046 0 0 0 159.746 33.851c57.022 7.683 114.651 10.869 172.182 9.563 62.723-1.42 125.333-8.203 186.896-20.36a1084.313 1084.313 0 0 0 149.637-40.876c61.16-21.516 120.383-48.534 176.754-80.572 64.96-36.904 126.14-80.446 182.36-129.653a1124.493 1124.493 0 0 0 92.98-91.396c67.406-74.357 124.812-157.739 170.398-247.133a1148.112 1148.112 0 0 0 75.017-185.546c26.777-87.434 43.043-178.05 48.614-269.296a1192.002 1192.002 0 0 0-5.242-205.782c-7.647-67.984-21.23-135.296-40.599-200.9-27.931-94.665-67.953-185.746-118.821-270.31-55.75-92.75-124.53-177.662-203.815-251.313-71.789-66.717-152.19-124.199-238.741-170.215-49.815-26.502-101.652-49.216-154.931-67.816a1094.95 1094.95 0 0 0-212.674-51.147c-52.57-7.197-105.665-10.548-158.729-10.11zm9.7 433.452c60.754-.107 121.522 7.96 180.084 24.097 50.642 13.93 99.623 33.824 145.695 59.018 26.458 14.46 51.954 30.672 76.313 48.436-.461-.33.789.58 1.061.78a708.691 708.691 0 0 1 72.907 61.356c-.365-.357.721.696.963.93a719.203 719.203 0 0 1 37.275 38.85c-.47-.534.598.675.789.89 48.379 54.543 88.424 116.454 118.39 182.925a730.115 730.115 0 0 1 52.49 168.072c12.105 65.813 15.22 133.27 9.368 199.943-5.564 63.09-19.36 125.477-41.163 184.964-21.396 58.438-50.471 114.072-86.319 164.956-34.714 49.293-75.779 94.125-121.954 132.9.424-.364-.756.629-1.016.845-38.698 32.378-80.982 60.475-125.873 83.51-39.426 20.226-80.866 36.523-123.521 48.508a664.04 664.04 0 0 1-123.744 22.383c-73.294 6.192-147.602.442-218.981-17.274-49.053-12.124-96.7-29.852-141.815-52.58-41.93-21.132-81.686-46.554-118.52-75.666-63.912-50.48-119.001-112.026-162.432-180.91a738.734 738.734 0 0 1-7.28-11.784c.193.31-.545-.905-.715-1.19a725.978 725.978 0 0 1-18.6-32.799c.246.47-.466-.879-.624-1.176a728.617 728.617 0 0 1-66.859-179.744c-12.152-53.256-18.295-107.874-18.432-162.506 0 .39-.01-1.048-.01-1.382a732.6 732.6 0 0 1 .137-15.037c-.01.39.023-1.048.03-1.381.033-1.729.08-3.457.125-5.185-.01.391.03-1.047.042-1.38 1.637-55.253 9.45-110.34 23.495-163.822 14.877-56.724 36.737-111.627 65.017-163.015 27.118-49.296 60.148-95.347 98.198-136.8-.314.348.693-.75.92-.995 41.422-44.958 88.81-84.433 140.618-116.885 49.957-31.313 104.057-56.015 160.468-73.139 46.11-14.017 93.755-22.939 141.792-26.67a681.763 681.763 0 0 1 51.673-2.043z" transform="matrix(.34849 .04153 -.03798 .32178 3567.57 3508.264)"/></g></g></svg>