<?xml version="1.0" encoding="utf-8"?>
<svg
   xmlns:dc="http://purl.org/dc/elements/1.1/"
   xmlns:cc="http://creativecommons.org/ns#"
   xmlns:rdf="http://www.w3.org/1999/02/22-rdf-syntax-ns#"
   xmlns:svg="http://www.w3.org/2000/svg"
   xmlns="http://www.w3.org/2000/svg"
   id="svg11"
   version="1.1"
   viewBox="0 0 504 625"
   clip-rule="evenodd"
   fill-rule="nonzero"
   image-rendering="optimizeQuality"
   text-rendering="geometricPrecision"
   shape-rendering="geometricPrecision"
   height="625px"
   width="504px"
   xml:space="preserve">
<path d="M239.329,485.172C237.886,458.377,233.465,426.93,220,400c2.4-2.4,6.4-5.9,10.4-9.6l19.3,25.899L288,368.4
	c9.451,5.577,17.223,8.513,25.358,11.087c10.089-4.81,20.896-8.401,32.222-10.585c-6.416-2.322-12.76-4.317-19.28-6.303
	c-10.5-3.199-19.5-5.899-31.3-13.3c-7.8-4.7-7-14.5-6-25c0.4-4.1,0.8-8.2,0.9-12.3c13.8-15.5,19.1-35.8,24-54.9
	c0.3-1,0.5-2,1-3.7c19.399-12.2,26.6-37.3,21.5-58.9c1.5-6.9,2.5-13.5,2.899-19.7l7.8-7.7c2.9-3,3.801-7.6,1.801-11.6l-8.9-17.8
	c-0.7-60.5-30-108.5-90.9-123.2c-0.699-1.8-2-3.4-3.8-4.5c-10.6-6.7-23-10-35.3-10c-12,0-24.1,3.2-34.6,9.6c-2,1-3.6,2.8-4.6,4.9
	C110,29.2,80.7,77.2,80,137.7l-8.5,17c-2.4,3.9-1.9,9,1.4,12.4l7.9,7.9c0.2,3.1,0.5,6.3,1,9.5c0.5,3.3,1.1,6.6,1.8,10
	c-2.6,11.2-1.9,23.7,2.2,34.6c3.7,9.8,10.1,18.5,19.3,24.3c5.5,20.5,10.5,42.3,25,58.6c0.2,4.2,0.6,8.4,1,12.6
	c0.9,10.601,1.3,20.5-6.1,24.7c-0.2,0.2-0.4,0.3-0.6,0.4c-11.4,7.1-20.3,9.7-30.7,12.899c-6.9,2.101-13.6,4.2-20.4,6.7
	C60.7,373.9,45,379.7,34.7,389.6c-11.3,11-20,22.801-25.8,35.7C3,438.4,0,452.5,0,468c0,22.5,25.4,37,60.5,46.1
	C107,526.2,171.8,530,210,530c9.642,0,20.98-0.243,33.288-0.8c-2.878-10.613-4.419-21.759-4.419-33.258
	C238.869,492.314,239.029,488.724,239.329,485.172z M250.3,383.7L235.9,364.6c12.199-2.899,24.1-8,34-15.699
	c0.699,2.3,1.699,4.5,3,6.6L250.3,383.7z M92.1,158l6.8-13.5c0.7-1.5,1.1-3,1.1-4.5c0-49.4,20.5-90.1,70-104.7V90h20V24.4
	c6.2-2.9,13.1-4.4,20-4.4c6.9,0,13.8,1.5,20,4.4V90h20V35.3c49.5,14.5,70,55.2,70,104.7c0,1.9,0.6,3.8,1.5,5.3l6.4,12.7l-42,42
	H134.1L92.1,158z M180,509.3c-35.8-1.399-80.5-5.6-114.5-14.5C39.1,488,20,479.1,20,468c0-12.6,2.4-24,7.1-34.5
	c4.8-10.6,12-20.3,21.5-29.6c7.2-7,20.7-11.9,31.5-15.801c6.4-2.399,12.8-4.399,19.3-6.399c11-3.3,20.4-6.101,32.6-13.3
	l38.3,47.899L190,390l10,10C182.2,435.6,180.2,479.1,180,509.3z M147,355.3c1.2-2.1,2.2-4.3,2.9-6.5c9.9,7.8,22,12.9,34.2,15.8
	L169.7,383.7L147,355.3z M150.7,319.4c-0.1-1-0.7-11.4-0.7-11.4c0-2.6-1-5.2-3-7.1c-11.9-11.801-17-31.2-21.8-49.5l-1.9-7.2
	c-0.7-2.7-2.5-5-5.2-6.3c-6.5-3.3-11.1-9.1-13.6-15.8c-2.9-7.7-3.3-16.5-1.1-24.3v-0.2l19.4,19.4c1.8,1.8,4.4,3,7.2,3h160
	c2.6,0,5.1-1,7.1-2.9l19.5-19.5c4.101,14.3-0.3,32.9-14.3,40.1c-2.7,1.2-4.8,3.5-5.6,6.5c-0.3,0.8-1.2,4.3-2.101,7.9
	C290,270,285.1,289,273,300.9c-1.9,1.899-3,4.5-3,7.3c0.1,3.399-0.1,7.1-0.5,10.8c-10.4,20.8-37.9,28.5-59.5,28.5
	C188.5,347.5,161.2,339.9,150.7,319.4z"/>
<path id="curve28_2_" d="M354.08,446.658c23.155,0,41.947,18.88,41.947,42.236c0,23.315-18.792,42.238-41.947,42.238
	c-23.153,0-41.946-18.923-41.946-42.238C312.134,465.538,330.927,446.658,354.08,446.658z M354.08,455.106
	c-18.539,0-33.556,15.121-33.556,33.788c0,18.628,15.017,33.79,33.556,33.79c18.541,0,33.558-15.162,33.558-33.79
	C387.638,470.228,372.621,455.106,354.08,455.106z M404.333,421.611c1.342,1.015,2.601,2.026,3.773,3.042
	c1.219,1.014,2.435,2.11,3.607,3.252l20.388-5.574c4.907-1.353,10.025,0.59,12.835,4.855c1.595,2.407,3.02,4.731,4.32,7.013
	c1.301,2.322,2.559,4.73,3.816,7.307c2.225,4.646,1.301,10.01-2.39,13.601l-15.144,14.782c0.378,1.563,0.672,3.21,0.965,4.858
	c0.252,1.604,0.504,3.209,0.671,4.854l19.128,8.871c4.614,2.155,7.3,6.97,6.754,12.038c-0.294,2.703-0.671,5.405-1.175,8.151
	c-0.503,2.83-1.09,5.534-1.763,8.109c-1.258,4.984-5.41,8.491-10.527,8.87l-21.057,1.521c-0.714,1.395-1.47,2.829-2.309,4.266
	c-0.838,1.437-1.72,2.831-2.6,4.14l8.977,19.217c2.182,4.647,1.175,10.012-2.519,13.56c-2.054,1.985-4.109,3.801-6.123,5.532
	c-2.014,1.648-4.193,3.337-6.544,5.026c-4.11,2.998-9.563,2.998-13.674,0l-17.114-12.459c-1.51,0.633-3.021,1.224-4.488,1.773
	c-1.468,0.508-2.979,1.014-4.572,1.477l-5.41,20.485c-1.3,4.984-5.496,8.491-10.612,8.786c-2.727,0.168-5.412,0.254-8.222,0.254
	c-2.812-0.043-5.538-0.17-8.221-0.381c-5.077-0.379-9.271-3.927-10.488-8.87l-5.159-20.61c-1.51-0.508-3.021-1.014-4.488-1.563
	c-1.594-0.591-3.062-1.183-4.445-1.773l-17.198,12.249c-4.153,2.914-9.648,2.871-13.717-0.169
	c-2.182-1.604-4.32-3.338-6.502-5.154c-2.14-1.856-4.152-3.716-6.082-5.659c-3.65-3.548-4.572-8.912-2.349-13.56l9.187-19.131
	c-0.84-1.354-1.679-2.704-2.434-4.057c-0.797-1.394-1.552-2.787-2.223-4.181l-21.057-1.772c-5.076-0.466-9.229-4.014-10.403-8.998
	c-0.713-2.83-1.259-5.49-1.679-8.194c-0.46-2.618-0.839-5.363-1.091-8.236c-0.503-5.11,2.225-9.842,6.88-11.91l19.253-8.701
	c0.168-1.436,0.42-3.04,0.714-4.73c0.293-1.562,0.588-3.125,0.965-4.646l-15.018-14.992c-3.607-3.634-4.487-8.997-2.223-13.602
	c1.216-2.491,2.517-4.899,3.901-7.349c1.426-2.407,2.894-4.731,4.445-7.011c2.854-4.225,7.971-6.126,12.836-4.689l20.344,5.786
	c1.091-1.013,2.266-2.068,3.566-3.167c1.258-1.056,2.517-2.069,3.733-2.957l-1.931-21.203c-0.46-5.11,2.308-9.841,6.963-11.867
	c2.435-1.1,4.992-2.113,7.635-3.085c2.643-0.971,5.243-1.816,7.886-2.533c4.909-1.394,9.983,0.506,12.878,4.729l11.829,17.571
	c1.511-0.084,3.146-0.127,4.781-0.084c1.72,0,3.314,0.043,4.824,0.127l12.079-17.487c2.896-4.224,8.013-6.039,12.88-4.604
	c2.768,0.846,5.368,1.691,7.843,2.619c2.517,0.931,5.034,1.985,7.593,3.126c4.655,2.112,7.382,6.886,6.837,11.952L404.333,421.611
	z M402.696,431.074c-1.216-1.057-2.39-1.986-3.565-2.873c-2.265-1.732-3.439-4.394-3.146-7.223l2.182-21.373
	c0.167-1.52-0.587-2.787-1.971-3.42c-2.351-1.056-4.7-2.027-7.048-2.915c-2.434-0.887-4.824-1.688-7.258-2.407
	c-1.425-0.423-2.852,0.086-3.69,1.31l-12.207,17.696c-1.594,2.325-4.237,3.591-7.047,3.421c-1.594-0.125-3.146-0.168-4.571-0.168
	c-1.428,0-2.937,0.043-4.531,0.127c-2.81,0.127-5.411-1.141-7.005-3.507l-11.955-17.78c-0.838-1.268-2.265-1.773-3.69-1.352
	c-2.601,0.718-5.034,1.521-7.3,2.322c-2.265,0.845-4.612,1.775-7.131,2.872c-1.384,0.635-2.139,1.901-1.971,3.422l1.93,21.456
	c0.252,2.83-0.923,5.448-3.188,7.18c-1.3,0.931-2.476,1.858-3.566,2.746c-1.09,0.929-2.181,1.943-3.355,2.998
	c-2.056,1.943-4.907,2.661-7.635,1.9l-20.511-5.87c-1.426-0.422-2.811,0.084-3.691,1.311c-1.511,2.237-2.854,4.392-4.109,6.546
	c-1.26,2.153-2.435,4.392-3.651,6.801c-0.628,1.352-0.419,2.829,0.672,3.928l15.142,15.119c2.015,2.029,2.811,4.816,2.14,7.604
	c-0.377,1.478-0.672,2.913-0.922,4.392c-0.252,1.31-0.462,2.831-0.672,4.435c-0.335,2.831-2.055,5.196-4.656,6.379l-19.463,8.786
	c-1.383,0.59-2.098,1.899-1.971,3.421c0.251,2.576,0.588,5.108,1.007,7.687c0.461,2.534,0.964,5.026,1.552,7.559
	c0.377,1.48,1.51,2.409,2.979,2.536l21.309,1.815c2.769,0.212,5.201,1.901,6.459,4.436c0.671,1.35,1.385,2.703,2.097,3.97
	c0.756,1.31,1.512,2.619,2.309,3.843c1.551,2.408,1.761,5.281,0.503,7.857l-9.313,19.344c-0.629,1.353-0.378,2.83,0.671,3.886
	c1.972,1.901,3.818,3.634,5.663,5.238c1.846,1.563,3.859,3.166,6.04,4.773c1.217,0.929,2.685,0.929,3.943,0.041l17.408-12.375
	c2.307-1.605,5.201-1.9,7.802-0.76c1.469,0.633,2.853,1.225,4.151,1.73c1.428,0.507,2.854,0.973,4.238,1.438
	c2.726,0.802,4.739,2.913,5.41,5.701l5.244,20.823c0.334,1.478,1.468,2.449,2.978,2.533c2.727,0.211,5.243,0.339,7.635,0.339
	c2.475,0.041,5.032-0.042,7.718-0.212c1.467-0.084,2.6-1.056,3.02-2.492l5.412-20.738c0.712-2.787,2.768-4.857,5.495-5.659
	c1.383-0.381,2.81-0.887,4.319-1.394c1.469-0.55,2.853-1.099,4.236-1.69c2.602-1.098,5.453-0.802,7.761,0.887l17.282,12.587
	c1.216,0.887,2.727,0.887,3.942,0c2.015-1.479,4.027-2.999,6.041-4.688c1.972-1.647,3.857-3.336,5.745-5.11
	c1.05-1.056,1.342-2.534,0.714-3.886l-9.102-19.387c-1.217-2.619-0.965-5.534,0.629-7.898c0.838-1.311,1.678-2.619,2.432-3.928
	c0.757-1.267,1.469-2.618,2.183-4.013c1.3-2.534,3.69-4.181,6.544-4.392l21.267-1.521c1.509-0.127,2.642-1.098,2.979-2.534
	c0.713-2.703,1.258-5.153,1.678-7.519c0.418-2.407,0.797-4.898,1.09-7.604c0.167-1.52-0.545-2.787-1.929-3.42l-19.38-8.997
	c-2.56-1.225-4.278-3.59-4.572-6.461c-0.168-1.522-0.377-3.043-0.629-4.562c-0.252-1.479-0.546-2.999-0.881-4.563
	c-0.671-2.744,0.168-5.575,2.182-7.561l15.31-14.951c1.049-1.014,1.342-2.535,0.671-3.886c-1.09-2.281-2.266-4.563-3.523-6.8
	c-1.3-2.281-2.643-4.436-4.027-6.506c-0.839-1.31-2.223-1.815-3.69-1.394l-20.597,5.66V436.1c-2.769,0.76-5.495,0.042-7.591-1.942
	C405.046,433.101,403.913,432.087,402.696,431.074z"/>

</svg>
