<?xml version="1.0" encoding="UTF-8" standalone="no"?>
<svg xml:space="preserve" width="580" height="580" shape-rendering="geometricPrecision" text-rendering="geometricPrecision" image-rendering="optimizeQuality" viewBox="0 0 5800 5800" xmlns="http://www.w3.org/2000/svg">
  <g style="clip-rule:nonzero;fill-rule:evenodd;stroke-width:125.79;stroke-dasharray:none;image-rendering:optimizeQuality;shape-rendering:geometricPrecision;text-rendering:geometricPrecision">
    <path d="M-3196.564-9033.256c-5.27-.01-10.54 0-15.811.033.512 0-1.002.01-1.338.014-92.852.704-185.64 8.798-277.232 24.04.439-.077-1.014.17-1.344.225-74.668 12.478-148.52 29.81-220.973 51.754.457-.134-.972.298-1.292.397a1786.67 1786.67 0 0 0-85.897 28.495c.449-.156-.956.348-1.27.464a1792.723 1792.723 0 0 0-70.41 27.11c.452-.18-.936.388-1.245.517-113.985 46.78-223.12 105.378-325.04 174.616a1771.692 1771.692 0 0 0-181.835 141.628c-2.341 2.072-4.965 3.796-7.37 5.793-21.253 16.952-38.655 38.384-52.429 61.739-12.687 21.542-22.333 44.816-29.173 68.846l-6.967 23.711c-19.67 8.721-39.38 17.35-58.999 26.19a4019.997 4019.997 0 0 0-60.541 27.908 3821.01 3821.01 0 0 0-63.93 30.857 3848.18 3848.18 0 0 0-55.027 27.745 3773.673 3773.673 0 0 0-58.153 30.59 3616.989 3616.989 0 0 0-60.557 33.28 3617.74 3617.74 0 0 0-55.86 32.058 3510.918 3510.918 0 0 0-109.017 66.578 3454.29 3454.29 0 0 0-53.1 34.48 3385.56 3385.56 0 0 0-55.772 37.757 3370.71 3370.71 0 0 0-51.343 36.238 3326.051 3326.051 0 0 0-53.973 39.7 3416.714 3416.714 0 0 0-45.25 34.628c-18.153 14.167-36.175 28.504-54.024 43.052a3199.743 3199.743 0 0 0-47.768 39.686 3162.754 3162.754 0 0 0-49.535 42.875 3221.348 3221.348 0 0 0-41.791 37.607c-16.523 15.162-32.904 30.48-49.097 45.993a3101.632 3101.632 0 0 0-43.974 42.932 3122.732 3122.732 0 0 0-45.623 46.42 3054.866 3054.866 0 0 0-42.04 44.582 3047.24 3047.24 0 0 0-88.253 99.776 3072.981 3072.981 0 0 0-43.83 53.013 3041.227 3041.227 0 0 0-84.835 110.09 3039.725 3039.725 0 0 0-79.733 113.908 3078.162 3078.162 0 0 0-38.228 58.803 3139.342 3139.342 0 0 0-36.397 58.88 3159.142 3159.142 0 0 0-35.115 59.77 3158.73 3158.73 0 0 0-36.423 65.433 3175.867 3175.867 0 0 0-70.758 138.888 3232.167 3232.167 0 0 0-30.13 64.758 3265.422 3265.422 0 0 0-32.18 73.629 3344.803 3344.803 0 0 0-26.553 64.781 3342.204 3342.204 0 0 0-30.547 79.795 3389.135 3389.135 0 0 0-26.331 74.132 3494.743 3494.743 0 0 0-25.818 78.486 3571.655 3571.655 0 0 0-25.28 83.703 3631.599 3631.599 0 0 0-43.264 164.365 3708.703 3708.703 0 0 0-21.446 95.45 3837.23 3837.23 0 0 0-17.872 90.032 3962.862 3962.862 0 0 0-15.752 90.507 4062.22 4062.22 0 0 0-13.65 90.858 4183.216 4183.216 0 0 0-11.737 92.345 4235.793 4235.793 0 0 0-10.366 100.21 4296.328 4296.328 0 0 0-7.505 93.067 4454.458 4454.458 0 0 0-6.074 104.795 4605.094 4605.094 0 0 0-3.805 112.766c-.695 32.417-1.05 64.84-1.082 97.264-.027 38.006.394 76.011 1.258 114.006.758 33.478 1.87 66.946 3.297 100.402a5146.87 5146.87 0 0 0 6.225 114.677l.305 4.732c-.028-.369.07 1.053.093 1.385l1.25 18.345c-.024-.402.076 1.041.101 1.374a5343.46 5343.46 0 0 0 9.14 112.559l.449 4.933c-.03-.358.1 1.054.133 1.385l1.751 18.513c-.038-.352.104 1.055.135 1.387l1.822 18.535c-.033-.37.108 1.05.143 1.38a5561.935 5561.935 0 0 0 12.762 114.836c.959 7.954 1.966 15.902 2.947 23.854-.038-.34.136 1.056.18 1.386 2.15 17.053 4.413 34.09 6.652 51.132-55.705 180.141-111.407 360.283-167.11 540.426-4.637 11.3-8.547 22.902-11.52 34.752-9.826 38.818-10.11 80.014-.748 118.95 8.179 34.26 23.865 66.765 46.005 94.19 11.313 14.026 24.252 26.756 38.544 37.736 88.155 66.85 176.308 133.702 264.464 200.55 5.378 25.768 10.768 51.535 16.523 77.223 1.888 8.469 3.812 16.93 5.758 25.386-.013-.043.256 1.105.351 1.519 10.07 43.576 20.976 86.963 32.997 130.043-.053-.207.3 1.067.41 1.455 4.904 17.584 10.061 35.095 15.319 52.575a5123.583 5123.583 0 0 0 22.095 72.124c.034.097.346 1.096.482 1.524 11.57 36.78 23.566 73.424 35.887 109.959-.06-.168.358 1.056.488 1.442 10.137 29.994 20.525 59.903 31.081 89.753.774 2.276 1.656 4.537 2.361 6.823-1.18 16.069-2.36 32.14-3.185 48.232-5.19 97.866-1.91 196.151 9.2 293.513 11.485 100.394 31.305 199.846 59.43 296.907 25.442 87.734 57.688 173.536 97.07 255.976 15.445 32.32 31.981 64.12 49.681 95.264 37.595 66.228 80.074 129.717 127.466 189.344-.29-.374.636.795.846 1.055 56.153 70.52 119.265 135.588 188.797 193.002 57.28 47.307 118.907 89.386 184.05 125.117 28.691 15.76 58.071 30.257 87.995 43.525l18.34 8.223a46882.288 46882.288 0 0 1 48.426 115.715c12.548 30.068 25.076 60.145 37.636 90.208.292.688.695 1.661 1.03 2.458 40.352 96.545 81.035 192.96 123.497 288.6.078.184.487 1.094.693 1.56 47.709 107.374 97.657 213.8 151.92 318.032 39.042 74.965 80.306 148.797 124.585 220.801 30.958 50.345 63.39 99.792 97.523 148.044-.062-.083.651.919.891 1.26 39.654 55.982 81.62 110.343 126.154 162.535-.137-.167.72.84.984 1.147 23.557 27.566 47.834 54.52 72.846 80.774-.15-.151.765.802 1.044 1.094 31.456 32.972 64.083 64.83 97.866 95.414-.262-.243.787.71 1.036.931 13.546 12.267 27.325 24.272 41.208 36.157l9.195 7.91c4.65 24.133 9.297 48.268 14.259 72.34 7.705 37.6 15.876 75.105 24.337 112.543.062.256.266 1.17.382 1.68l2.124 9.363c.052.246.266 1.17.381 1.677a9404.18 9404.18 0 0 0 4.672 20.393c.027.1.26 1.12.362 1.557 11.842 51.374 24.136 102.642 36.407 153.914 13.842 60.472 27.26 121.062 38.45 182.089 10.118 55.38 18.444 111.152 22.778 167.306 3.65 47.794 4.395 95.916-.011 143.687-4.01 43.289-12.354 86.33-26.902 127.36-12.244 34.65-28.983 67.767-50.239 97.772-18.114 25.634-39.469 48.951-63.253 69.425-5.794 7.022-12.588 13.163-19.86 18.62-68.975 62.404-140.782 121.715-215.61 176.981-59.147 43.725-120.18 84.884-182.719 123.598-60.752 37.635-122.904 72.97-185.769 106.943-71.13 38.458-143.135 75.26-214.988 112.338a37204.341 37204.341 0 0 0-67.222 34.522c-.252.125-1.067.55-1.535.79-104.18 53.702-207.935 108.256-310.434 165.11-50.491 28.004-100.672 56.569-150.464 85.798-41.613 24.308-83.213 48.64-124.647 73.253-.094.052-.988.588-1.375.817a9835.161 9835.161 0 0 0-63.025 37.775c.033-.015-.971.59-1.335.811l-14.88 9.03c.043-.032-.968.59-1.33.81-24.082 14.67-48.09 29.463-71.98 44.442-.212.128-1.017.638-1.457.913-98.368 61.717-194.958 126.424-287.513 196.611-63.16 47.922-124.431 98.401-182.593 152.302-52.478 48.648-102.425 100.1-148.438 154.927a1410.267 1410.267 0 0 0-41.65 52.068c.26-.334-.626.827-.826 1.093a1165.367 1165.367 0 0 0-22.799 31.018c-35.728 49.987-70.43 100.708-103.996 152.172.032-.055-.618.949-.849 1.302a4086.634 4086.634 0 0 0-43.026 67.466c.018-.036-.6.963-.826 1.324-50.828 81.536-98.71 164.92-143.122 250.125.06-.106-.517.998-.707 1.366a3521.891 3521.891 0 0 0-26.08 51.106c.038-.067-.503 1.012-.69 1.39l-3.679 7.382c.08-.169-.494.998-.675 1.362-57.25 115.474-107.99 234.214-150.942 355.747a3003.975 3003.975 0 0 0-20.586 60.25c.048-.158-.349 1.061-.477 1.45a2970.713 2970.713 0 0 0-22.336 70.794c.095-.326-.306 1.02-.402 1.34-15.39 51.094-29.35 102.616-41.992 154.457.051-.19-.26 1.08-.355 1.475-26.924 110.8-47.463 223.153-61.397 336.324-9.064 73.589-15.344 147.519-18.889 221.578.011-.151-.05 1.118-.069 1.528-.437 9.192-.822 18.385-1.18 27.58.01-.226-.042 1.105-.057 1.507l-.3 8.196c.01-.186-.035 1.113-.048 1.52a3328.91 3328.91 0 0 0-.83 27.67c.01-.186-.026 1.112-.035 1.52a3094.052 3094.052 0 0 0-.932 66.862v1.51a3145.71 3145.71 0 0 0 .556 67.267c0-.171.024 1.116.033 1.524l.172 8.338c-.01-.206.026 1.11.035 1.514.29 12.672.661 25.343 1.094 38.011-.01-.199.04 1.11.054 1.515.332 9.408.711 18.815 1.12 28.22 0-.159.052 1.116.072 1.526a3288.71 3288.71 0 0 0 3.122 58.18c-.01-.192.072 1.11.099 1.515a3313.417 3313.417 0 0 0 5.059 68.548c-.015-.139.095 1.117.13 1.528 3.675 43.356 8.21 86.638 13.543 129.822-.016-.161.14 1.108.192 1.515 3.2 25.65 6.63 51.271 10.43 76.84 6.428 41.895 16.045 83.317 29.065 123.66a760.145 760.145 0 0 0 53.777 126.434c23.966 44.684 52.39 86.938 84.321 126.312 38.479 47.48 81.986 90.775 128.757 130.068 53.275 44.76 110.739 84.392 170.596 119.812 60.505 35.796 123.476 67.324 187.857 95.52 48.724 21.334 98.278 40.75 148.386 58.587-.342-.118.997.353 1.311.465 74.51 26.457 150.234 49.421 226.646 69.707-.16-.048 1.08.283 1.476.386l8.1 2.135c-.095-.02 1.091.285 1.495.392a3579.406 3579.406 0 0 0 27.46 7.065c-.144-.04 1.086.272 1.485.371a3670.125 3670.125 0 0 0 77.182 18.574c-.08-.022 1.101.251 1.51.343a3998.086 3998.086 0 0 0 79.226 17.27c-.026-.01 1.113.23 1.532.315a4282.904 4282.904 0 0 0 49.956 10.027c-.01 0 1.118.217 1.54.3a4563.982 4563.982 0 0 0 71.804 13.333c-.03-.01 1.119.197 1.54.27a4977.861 4977.861 0 0 0 51.73 8.865c.028 0 1.127.185 1.558.255 6.646 1.1 13.295 2.182 19.945 3.259.038.01 1.13.18 1.562.25a5236.466 5236.466 0 0 0 74.598 11.441c.04.01 1.132.164 1.566.228 43.941 6.4 87.963 12.25 132.042 17.618.07.012 1.138.138 1.578.192a6267.256 6267.256 0 0 0 55.172 6.44c.177.023 1.19.133 1.691.19a6517.742 6517.742 0 0 0 44.155 4.785c.087.012 1.141.12 1.585.166a7305.132 7305.132 0 0 0 33.05 3.373 338175.481 338175.481 0 0 1 11.586 1.14c.193.023 1.192.117 1.697.167l9.92.96c.3.027 1.194.115 1.723.165a9721.776 9721.776 0 0 0 180.833 15.765l4.201.33c-.025-.01 1.134.087 1.56.118 22.967 1.77 45.94 3.463 68.917 5.088l1.565.11c23.046 1.612 46.098 3.15 69.154 4.62.02 0 1.14.07 1.573.096a12827.85 12827.85 0 0 0 47.284 2.887c23.176 1.361 46.357 2.638 69.541 3.86l1.57.08a11290.97 11290.97 0 0 0 119.013 5.546 11607.602 11607.602 0 0 0 165.382 5.606c.636.018.732.022 1.5.041a12184.2 12184.2 0 0 0 193.471 3.574c23.67.247 47.34.424 71.01.548h1.59c39.916.188 79.833.184 119.75.01.096 0 1.148-.01 1.596-.01 40.052-.193 80.103-.567 120.151-1.11.097-.01 1.149-.016 1.597-.024 48.329-.673 96.654-1.606 144.974-2.776.097 0 1.148-.03 1.596-.04 23.952-.59 47.903-1.241 71.853-1.944.204 0 1.198-.036 1.707-.051l22.808-.694c.172-.01 1.197-.039 1.7-.056 45.312-1.438 90.617-3.072 135.923-4.698 46.342-1.725 92.689-3.46 138.982-6.232 9.536-.569 19.067-1.196 28.597-1.85-.227.012 1.103-.079 1.504-.109l9.314-.662c-.138.013 1.118-.082 1.53-.112 41.347-3.045 82.648-6.682 123.958-10.19l2.094-.179-305.283-435.496c-102.36 3.934-204.78 6.187-307.21 7.137-66.605.616-133.216.662-199.822.204a13223.79 13223.79 0 0 1-222.136-3.434 13357.816 13357.816 0 0 1-233.577-7.587c-75.275-3.107-150.524-6.853-225.73-11.305-71.688-4.241-143.338-9.126-214.93-14.767-58.156-4.581-116.273-9.674-174.33-15.377-69.413-6.552-138.739-14.033-207.923-22.67-62.528-7.819-124.942-16.569-187.165-26.527-59.503-9.512-118.835-20.122-177.887-32.123-76.175-15.504-151.911-33.304-226.7-54.544-62.068-17.653-123.504-37.668-183.585-61.25-50.351-19.794-99.78-42.094-147.225-68.141-41.93-23.052-82.35-49.062-119.53-79.24-37.008-30.077-70.826-64.448-97.996-103.747-19.72-28.48-35.814-59.548-46.936-92.381-7.155-21.043-12.237-42.782-15.244-64.801-17.064-118.84-27.044-238.734-28.844-358.793-1.678-110.962 3.653-222.047 16.426-332.291a2470.308 2470.308 0 0 1 55.95-309.436c5.071-20.463 10.353-40.876 16.056-61.172 31.812-114.107 71.877-225.871 118.962-334.555 56.174-129.737 122.284-255.068 195.748-375.82 48.984-80.527 101.228-159.053 156.064-235.708 30.598-42.349 65.139-81.74 101.857-118.867 42.719-43.136 88.412-83.243 135.7-121.281 60.609-48.68 123.87-93.974 188.44-137.228 70.365-47.1 142.342-91.743 214.993-135.218 57.823-34.602 116.108-68.425 174.416-102.201 61.656-36.728 124.058-72.194 186.945-106.77 83.24-45.762 167.322-89.973 251.65-133.695 22.928-11.873 45.855-23.752 68.817-35.56 89.22-45.22 178.807-89.74 267.135-136.692 65.037-34.561 129.378-70.468 192.393-108.603 67.813-41.005 134.074-84.596 198.309-131.011 56.704-40.954 111.837-84.076 165.337-129.134-.148.13.849-.717 1.16-.978l5.802-4.903c-.145.118.848-.721 1.157-.986 17.067-14.504 33.983-29.186 50.975-43.778l7.63-6.568c13.404 12.651 26.775 25.338 40.2 37.966 13.548 12.383 27.483 24.332 41.39 36.306 32.352 27.747 64.972 55.18 97.611 82.588 73.76 61.838 147.81 123.328 221.937 184.724 64.28 53.223 128.63 106.362 193.042 159.428 44.405-54.396 89.511-108.22 135.25-161.5 52.46-61.079 105.763-121.442 160.24-180.732-29.424-24.094-58.871-48.16-88.28-72.27-37.896-31.207-75.775-62.434-113.68-93.628-141.533-112.864-283.068-225.726-424.6-338.59 5.998-16.467 12.065-32.908 18.016-49.391 17.917-50.271 32.346-101.846 41.939-154.366 2.69-14.674 4.818-29.443 7.159-44.175l9.602-61.479c33.39 19.493 66.807 38.938 100.176 58.467 67.584 39.636 134.778 79.942 202.708 118.987 21.01 12.076 42.093 24.023 63.278 35.788.043.028 1.002.555 1.386.77l5.528 3.06c.064.031 1.005.553 1.393.766a3412.494 3412.494 0 0 0 53.96 29.172c-.1-.057.995.524 1.362.716 22.465 11.857 45.085 23.42 67.887 34.614-.215-.1.992.485 1.352.662 49.82 24.405 100.55 47.01 152.398 66.772-.498-.186.93.352 1.244.472 61.013 23.198 123.617 42.396 187.498 55.927 38.935 8.265 78.324 14.415 117.942 18.268-.24-.02 1.097.106 1.497.145 8.154.787 16.32 1.45 24.489 2.06 54.695-30.7 110.85-58.802 168.24-84.113 51.633-22.777 104.258-43.287 157.6-61.705 70.415-24.328 142.055-45.009 214.303-63.142a3579.079 3579.079 0 0 1 103.015-24.213c39.502-8.582 79.192-16.277 118.951-23.563 58.878-10.76 117.93-20.561 177.098-29.582 47.829-7.266 95.736-14.03 143.751-19.943 16.51-2.01 33.023-4.006 49.571-5.675 40.71-4.028 81.622-5.766 122.52-6.073 50.216-.372 100.43 1.412 150.539 4.605 65.528 4.215 130.894 10.825 195.995 19.374 25.53 3.372 51.02 7.054 76.447 11.128 1.153.13 2.277.366 3.325.877l33.967 13.414c34.036-26.877 66.74-55.404 98.664-84.746 45.925-42.27 90.224-86.28 133.538-131.212 25.438-26.394 50.514-53.135 75.314-80.13.05-.062.775-.846 1.074-1.175l5.197-5.668c.054-.052.774-.847 1.074-1.174l5.165-5.654c.128-.148.806-.887 1.147-1.263 38.87-42.667 77.055-85.955 114.687-129.718-.032.042.738-.86 1.014-1.181l9.386-10.946c0-.007.74-.867 1.02-1.197 39.408-46.108 78.234-92.714 116.36-139.889a4273.525 4273.525 0 0 0 39.434-49.497l22.368-28.386A8545818.09 8545818.09 0 0 1-173.985 744.9c-83.228 148.581-166.458 297.161-249.687 445.742l-129.445 276.863 376.632 148.72 305.059-569.6c20.464 6.757 40.904 13.59 61.386 20.292 46.741 15.198 93.565 30.141 140.375 45.124 145.203 46.394 290.459 92.62 435.696 138.907 167.179 53.28 334.359 106.559 501.447 160.123 85.146 27.314 170.283 54.656 255.3 82.366 6.03 1.97 12.062 3.937 18.089 5.916L1489.332 977.4c-41.967-11.862-83.829-24.09-125.676-36.363a36481.486 36481.486 0 0 1-173.926-51.596 47211.93 47211.93 0 0 1-215.324-64.97c-108.261-32.96-216.419-66.264-324.375-100.21-67.886-21.36-135.7-42.955-203.316-65.155-40.555-13.344-81.06-26.85-121.33-41.03-21.454-7.595-42.876-15.3-64-23.776-7.738-3.102-15.387-6.42-23.022-9.766-32.72-14.565-63.58-33.393-91.188-56.232-28.068-23.154-52.703-50.377-73.445-80.25-25.929-37.256-45.85-78.438-61.264-121.059-16.34-45.205-27.787-92.046-36.42-139.29C-33.175 137.117-39.18 86-43.746 34.801c-5.462-61.706-8.801-123.572-12.05-185.425-1.461-29.077-2.94-58.152-4.517-87.222-.004.002-.064-1.137-.09-1.568l-1.153-20.639c0-.088-.065-1.146-.09-1.591-.18-3.1-.383-6.675-.548-9.475a6750.824 6750.824 0 0 0-2.739-44.225c-.008-.073-.076-1.144-.107-1.587-4.082-62.002-9.262-123.95-16.733-185.643l-2.15-18.123c10.248-16.642 20.562-33.244 30.48-50.085 26.706-45.143 51.605-91.35 74.766-138.41-.062.116.494-1.008.674-1.38l2.291-4.672c-.067.147.49-1.005.67-1.373a2178.126 2178.126 0 0 0 22.305-47.213c-.064.149.464-1.017.635-1.389l2.152-4.718c-.06.122.462-1.023.63-1.399 57.336-126.428 102.64-258.097 138.873-392.04 16.887-62.36 31.822-125.242 45.193-188.448-.027.117.19-.913.29-1.388l2.506-11.966c-.042.22.224-1.083.306-1.477l2.426-11.779c-.052.241.218-1.08.297-1.472 11.628-57.067 22.008-114.385 31.422-171.858-.015.073.18-1.116.247-1.531 11.594-71 21.693-142.24 30.784-213.601.016-.094.145-1.14.202-1.584 6.208-48.85 11.944-97.76 17.363-146.704.037-.3.132-1.193.19-1.72 6.37-57.684 12.303-115.414 18.052-173.162.039-.351.119-1.195.174-1.735l2.482-25.078c.036-.393.117-1.195.17-1.744 2.624-26.575 5.18-53.156 7.799-79.731 2.756-20.381 4.335-40.895 6.443-61.348 1.791-17.89 3.891-35.749 6.225-53.577l2.133-16.682c13.518-12.45 27.148-24.784 40.337-37.585 53.901-52.043 103.05-108.98 146.907-169.72 49.147-68.043 91.653-140.83 127.393-216.761 47.46-100.809 83.022-207.096 107.298-315.803a1641.455 1641.455 0 0 0 17.801-92.049c-.07.444.165-1.014.219-1.343 6.994-42.882 12.313-86.035 15.994-129.327-.04.437.084-1.027.11-1.36.374-4.422.724-8.845 1.07-13.269-.037.437.076-1.028.1-1.36.522-6.858.992-13.719 1.435-20.581-.03.397.064-1.044.083-1.376 5.347-85.108 4.415-170.6-2.581-255.585.032.431-.088-1.03-.117-1.362-9.323-111.895-29.174-222.934-59.573-331.032-14.432-51.314-31.265-101.953-50.489-151.672l-3.786-9.88c1.213-19.854 2.407-39.71 3.437-59.576.012-.17.062-1.195.089-1.698a4828.65 4828.65 0 0 0 4.482-109.876c.004-.044.032-1.143.046-1.582a4449.345 4449.345 0 0 0 1.594-80.396c.003.016.011-1.138.016-1.567.084-8.471.146-16.942.184-25.414-.004-.02.003-1.142.003-1.577.042-11.38.037-22.76-.015-34.14.003-.066-.006-1.146-.008-1.588-.057-11.275-.163-22.55-.315-33.824-.005-.01-.017-1.14-.025-1.572l-.108-7.234c.004-.014-.019-1.141-.025-1.575a3844.076 3844.076 0 0 0-.697-33.437c-.003 0-.03-1.14-.043-1.57a3848.9 3848.9 0 0 0-.713-24.485c.004.052-.038-1.133-.052-1.556a3419.804 3419.804 0 0 0-4.286-92.373c.002.08-.07-1.128-.097-1.547-1.484-24.662-3.314-49.302-5.346-73.924l-.948-11.766c64.558-91.117 129.13-182.224 193.682-273.346 24.609-36.666 39.16-79.944 41.992-123.995 2.3-35.046-2.867-70.612-15.472-103.416-6.875-17.991-15.997-35.105-26.957-50.938-107.817-158.713-215.632-317.426-323.45-476.139-3.65-23.187-7.3-46.376-11.17-69.528a5879.598 5879.598 0 0 0-10.802-62.712c.06.36-.188-1.04-.249-1.368a5437.555 5437.555 0 0 0-21.199-111.93 5237.543 5237.543 0 0 0-24.843-117.072 5139.293 5139.293 0 0 0-22.986-97.97c-8.948-36.435-18.28-72.776-28.051-109-3.757-13.966-7.604-27.907-11.475-41.842.117.433-.28-.988-.371-1.31a4759.696 4759.696 0 0 0-25.3-87.22 4558.928 4558.928 0 0 0-31.071-99.285 4495.005 4495.005 0 0 0-28.314-84.143c-9.808-28.158-19.877-56.226-30.258-84.179a4252.664 4252.664 0 0 0-34.024-88.622 4159.259 4159.259 0 0 0-34.676-84.566 4008.916 4008.916 0 0 0-36.083-82.65 3878.797 3878.797 0 0 0-38.485-82.874 3795.661 3795.661 0 0 0-39.67-80.382 3699.568 3699.568 0 0 0-41.368-78.98 3625.117 3625.117 0 0 0-43.137-77.663 3518.923 3518.923 0 0 0-44.214-75.124 3409.708 3409.708 0 0 0-41.762-67.199 3333.841 3333.841 0 0 0-43.432-66.373 3287.01 3287.01 0 0 0-47.966-69.475 3204.186 3204.186 0 0 0-45.172-62.072 3128.31 3128.31 0 0 0-91.732-117.045 3126.837 3126.837 0 0 0-44.368-52.69 3098.291 3098.291 0 0 0-44.484-50.477 3045.757 3045.757 0 0 0-46.33-50.235 3007.168 3007.168 0 0 0-47.165-48.835 2983.296 2983.296 0 0 0-47.484-46.956 2968.017 2968.017 0 0 0-49.225-46.471 2904.612 2904.612 0 0 0-50.141-45.152 2877.865 2877.865 0 0 0-50.979-43.775 2840.138 2840.138 0 0 0-52.103-42.639 2837.763 2837.763 0 0 0-53.027-41.319 2809.841 2809.841 0 0 0-54.115-40.126 2781.51 2781.51 0 0 0-48.426-34.239 2768.457 2768.457 0 0 0-55.483-37.383 2844.759 2844.759 0 0 0-52.54-33.672 2856.252 2856.252 0 0 0-57.092-34.75 2817.69 2817.69 0 0 0-51.362-29.702 2825.303 2825.303 0 0 0-54.302-29.874c-19.394-10.38-38.895-20.56-58.525-30.485-16.472-8.352-33.037-16.52-49.668-24.554a2885.703 2885.703 0 0 0-60.016-28.089c-17.082-7.764-34.248-15.342-51.472-22.787a2976.937 2976.937 0 0 0-53.705-22.506 2939.219 2939.219 0 0 0-58.995-23.315 2991.28 2991.28 0 0 0-56.487-20.973 3050.425 3050.425 0 0 0-60.887-21.188 3164.462 3164.462 0 0 0-52.52-17.127c-19.561-6.17-39.176-12.175-58.855-17.962a3177.65 3177.65 0 0 0-62.852-17.809c-18-4.896-36.044-9.626-54.123-14.219a3412.273 3412.273 0 0 0-54.392-13.287 3500.673 3500.673 0 0 0-54.475-12.325 3520.554 3520.554 0 0 0-54.607-11.393 3463.28 3463.28 0 0 0-129.643-23.334 3593.67 3593.67 0 0 0-58.567-8.9 3673.543 3673.543 0 0 0-63.743-8.55 3636.182 3636.182 0 0 0-68.514-7.924 3681.758 3681.758 0 0 0-60.475-5.932c-22.805-2.071-45.638-3.825-68.46-5.687l-6.344-.513c-5.72-10.19-11.378-20.416-17.14-30.584-14.77-25.423-35.294-47.483-59.633-63.985-10.953-7.454-22.678-13.75-34.874-18.916-80.708-35.988-164.418-65.21-249.922-87.509-105.41-27.496-213.527-44.484-322.25-51.142a1734.75 1734.75 0 0 0-63.771-2.731l-1.366-.032a1791.12 1791.12 0 0 0-29.755-.45c.55 0-.988 0-1.325-.01l-6.427-.028h.234zm-14.22 466.943c123.884-.047 247.854 17.258 366.71 52.308l36.508 10.737c89.463 618.703 178.922 1237.407 268.384 1856.11l436.688-74.598-229.201-1585.119c31.278 4.136 62.562 8.235 93.837 12.395a3176.698 3176.698 0 0 1 78.144 11.578 3060.883 3060.883 0 0 1 81.196 14.2 2949.846 2949.846 0 0 1 80.334 16.324 2872.18 2872.18 0 0 1 71.219 16.454 2785.242 2785.242 0 0 1 76.54 19.855 2757.08 2757.08 0 0 1 71.418 20.65 2743.77 2743.77 0 0 1 60.226 19.087 2662.249 2662.249 0 0 1 71.454 24.725 2634.962 2634.962 0 0 1 59.51 22.387 2561.725 2561.725 0 0 1 68.75 28.007 2521.05 2521.05 0 0 1 70.096 31.028 2492.506 2492.506 0 0 1 67.477 32.375 2472.048 2472.048 0 0 1 66.669 34.532 2449.647 2449.647 0 0 1 64.442 35.93 2414.068 2414.068 0 0 1 73.958 44.534 2413.506 2413.506 0 0 1 63.335 41.109 2400.203 2400.203 0 0 1 69.571 48.568 2413.474 2413.474 0 0 1 60.43 45.27 2409.094 2409.094 0 0 1 65.261 52.386c19.347 16.076 38.424 32.475 57.262 49.145a2453.74 2453.74 0 0 1 61.048 55.978 2446.13 2446.13 0 0 1 57.92 56.775c19.145 19.379 37.95 39.09 56.458 59.078a2574.934 2574.934 0 0 1 56.323 62.977 2612.634 2612.634 0 0 1 65.084 78.271 2693.615 2693.615 0 0 1 62.311 81.11 2765.349 2765.349 0 0 1 62.684 88.48c21.076 30.997 41.515 62.426 61.362 94.223a2995.63 2995.63 0 0 1 59.995 100.55 3129.756 3129.756 0 0 1 51.5 94.005 3267.054 3267.054 0 0 1 53.44 106.377 3420.763 3420.763 0 0 1 56.836 124.905 3619.807 3619.807 0 0 1 36.322 87.417 3752.257 3752.257 0 0 1 48.47 127.966c16.19 45.194 31.527 90.694 46.065 136.446a4202.108 4202.108 0 0 1 40.935 137.043c17.24 61.502 33.12 123.385 47.71 185.569 13.932 59.366 26.685 119.007 38.349 178.859 13.251 68.067 25.096 136.408 35.593 204.954 2.463 15.952 4.788 31.926 7.146 47.895 4.377 27.64 13.906 54.369 27.223 78.946 7.187 13.24 15.551 25.842 25.02 37.56a21733915.98 21733915.98 0 0 1 251.36 367.536c-338.064 483.51-676.128 967.021-1014.195 1450.53l-4211.133 719.382c-459.045-348.106-918.09-696.212-1377.137-1044.316 47.416-151.824 94.84-303.645 142.25-455.47 7.876-28.258 12.757-57.584 11.808-86.99-.27-8.898-1.185-17.764-2.534-26.56-9.33-64.835-17.478-129.842-24.38-194.982a5005.63 5005.63 0 0 1-12.233-132.378c-4.441-56.386-7.905-112.85-10.317-169.36-2.541-59.442-3.92-118.934-4.066-178.431-.14-55.437.8-110.877 2.872-166.276a3963.269 3963.269 0 0 1 8.033-144.467 3784.207 3784.207 0 0 1 11.269-124.134c4.95-45.95 10.757-91.81 17.472-137.536 6.61-44.989 14.088-89.85 22.485-134.541a3278.787 3278.787 0 0 1 24.851-120.01 3167.123 3167.123 0 0 1 29.081-117.759 3068.049 3068.049 0 0 1 28.959-101.207 2973.513 2973.513 0 0 1 32.162-99.176 2874.403 2874.403 0 0 1 37.862-103.589 2788.765 2788.765 0 0 1 42.165-102.752 2742.872 2742.872 0 0 1 43.296-94.827 2691.932 2691.932 0 0 1 46.114-91.58 2644.48 2644.48 0 0 1 46.101-83.658 2607.582 2607.582 0 0 1 98.998-158.778 2624.048 2624.048 0 0 1 42.651-61.283 2636.177 2636.177 0 0 1 44.598-60.279 2618.68 2618.68 0 0 1 45.314-57.691 2609.497 2609.497 0 0 1 48.571-58.292 2633.268 2633.268 0 0 1 50.235-56.819 2664.455 2664.455 0 0 1 51.605-55.058 2653.006 2653.006 0 0 1 63.434-63.54 2684.688 2684.688 0 0 1 57.562-54.108 2718.918 2718.918 0 0 1 62.315-55.122 2750.067 2750.067 0 0 1 67.552-56.088 2821.34 2821.34 0 0 1 63.093-49.244 2898.867 2898.867 0 0 1 64.439-47.425 2967.474 2967.474 0 0 1 66.521-46.159 3033.93 3033.93 0 0 1 68.353-44.693 3098.036 3098.036 0 0 1 70.445-43.38 3189.764 3189.764 0 0 1 72.55-42.043 3334.875 3334.875 0 0 1 61.044-33.443 3436.837 3436.837 0 0 1 59.705-31.097c29.14-14.718 58.3-29.398 87.449-44.102 76.449 528.705 152.895 1057.41 229.343 1586.116l436.688-74.598-268.567-1857.357c12.987-9.144 25.921-18.364 38.948-27.451 150.471-104.477 322.468-177.693 501.966-214.164a1334.182 1334.182 0 0 1 265.032-26.712zM285.562-3930.07c33.172 75.487 57.896 154.6 74.8 235.275 17.63 84.3 26.74 170.38 27.19 256.502.402 82.774-7.22 165.647-23.694 246.789-19.837 97.647-52.64 192.937-100.048 280.695-30.959 57.33-68.175 111.345-111.4 160.126-33.592 37.943-70.802 72.69-111.038 103.502-3.323 2.397-6.748 4.657-10.021 7.127-25.3 18.738-46.807 42.579-62.78 69.714-14.327 24.287-24.173 51.18-29.095 78.937-1.18 6.533-2.008 13.123-2.732 19.72-1.795 9.06-2.865 18.241-4.03 27.398-2.963 24.315-5.463 48.684-7.942 73.053.001.034-.112 1.137-.154 1.572-1.743 17.354-3.43 34.712-5.09 52.074-.028.268-.113 1.195-.164 1.716-2.51 26.284-4.92 52.577-7.349 78.868-8.91 91.328-17.85 182.655-27.966 273.858-12.84 115.71-27.554 231.25-46.596 346.118-13.895 83.74-30.098 167.12-49.756 249.707-18.97 79.67-41.158 158.614-67.754 236.087-39.901 116.2-89.87 229.295-153.67 334.437a1374.556 1374.556 0 0 1-54.886 83.537c-20.544 29.519-34.446 63.573-40.74 98.966-4.882 27.3-5.305 55.39-1.3 82.83 9.562 55.452 16.528 111.33 21.71 167.354 4.709 50.933 7.898 102 9.934 153.108.073 2.26.236 4.532.252 6.785-4.178 13.394-8.361 26.787-12.883 40.07-18.252 53.883-40.292 106.478-65.813 157.321-31.069 61.904-67.285 121.197-107.788 177.374-44.924 62.326-95.093 120.819-149.234 175.31-79.345 79.856-167.13 151.112-260.177 214.385-89.489 60.818-183.862 114.327-281.352 161.207-94.34 45.353-191.622 84.526-290.838 117.858-98.982 33.22-199.91 60.653-302.115 81.999a2537.736 2537.736 0 0 1-205.132 34.129 2625.139 2625.139 0 0 1-283.214 19.854c-98.122 1.541-196.354-2.452-293.971-12.592-105.677-10.998-210.675-29.212-313.517-56.004-102.91-26.83-203.7-62.308-299.774-108.03-67.825-32.28-133.257-69.687-194.979-112.524-55.153-38.266-107.319-80.878-155.479-127.654-43.381-42.123-83.5-87.616-119.746-136.019-9.366-12.467-18.406-25.174-27.297-37.983-1.084-1.596-2.261-3.15-3.288-4.77-2.102-8.94-4.213-17.88-6.101-26.867-6.924-32.447-13.568-64.952-20.253-97.448-14.487-70.753-28.84-141.533-43.145-212.323-2.774-19.877-7.88-39.443-15.423-58.049-11.755-29.142-29.51-55.97-52.42-77.541-6.914-6.546-14.324-12.554-22.06-18.1-77.515-58.252-147.672-125.913-211.219-199.05-60.6-69.74-115.322-144.442-165.66-221.871-27.156-41.798-53.05-84.408-77.897-127.616-48.455-84.296-92.967-170.809-135.026-258.456-43.835-91.402-85.006-184.058-124.91-277.235-36.488-85.17-71.906-170.792-107.336-256.406-27.439-66.039-54.857-132.086-82.31-198.12-10.712-25.108-25.9-48.375-45.085-67.834-17.944-18.253-39.361-33.064-62.76-43.437-8.187-3.668-16.634-6.727-25.199-9.385-52.229-17.423-102.483-40.705-149.654-69.09-57.335-34.46-110.084-76.391-157.265-123.775-64.417-64.672-118.49-139.347-161.768-219.637-43.52-80.302-77.386-165.75-101.66-253.777-21.822-79.17-35.92-160.474-41.966-242.375-5.477-74.314-4.315-149.151 4.075-223.205l-19.574-135.316c240.942 182.708 481.877 365.426 722.822 548.13 38.491 29.09 86.8 45.132 135.087 44.165 11.468-.204 22.903-1.437 34.185-3.485 1461.604-249.685 2923.209-499.365 4384.813-749.053 26.864-4.538 52.8-14.322 76.074-28.47 27.04-16.359 50.43-38.422 69.348-63.67 3.319-4.538 6.462-9.202 9.709-13.791 167.661-239.792 335.32-479.587 502.984-719.377l40.51 92.678z" style="stroke-width:70.9076;stroke-dasharray:none" transform="matrix(.3558 .05824 -.05145 .34095 3681.866 3494.591)"/>
    <g style="stroke-width:114.438;stroke-dasharray:none">
      <path style="clip-rule:nonzero;fill-rule:evenodd;stroke-width:114.438;stroke-dasharray:none;image-rendering:optimizeQuality;shape-rendering:geometricPrecision;text-rendering:geometricPrecision" d="M-1975.918 1513.178c-30.647.137-61.24 4.71-90.672 13.222-71.852 19.668-142.545 43.414-212.174 69.856-54.165 20.455-107.876 42.168-160.615 66.076.095-.047-1.025.466-1.405.638-7.82 3.516-15.605 7.12-23.177 11.147-33.438 17.6-63.823 40.983-89.355 68.841-28.77 31.35-51.4 68.278-66.447 108.071-16.158 42.606-23.673 88.42-22.323 133.953.28 10.312 1.074 20.602 2.112 30.863 14.922 160.21 29.846 320.418 44.767 480.628-17.897 14.668-35.919 29.187-53.582 44.138-18.304 15.422-36.314 31.19-54.086 47.222l-24.567 22.056c-154.426-45.55-308.847-91.116-463.275-136.66-41.222-11.798-84.798-15.442-127.38-10.299-39.723 4.759-78.511 17.078-113.741 36.03-37.101 19.931-70.236 47.13-97.247 79.428-9.868 11.742-18.85 24.207-27.17 37.087-36.214 54.757-70.637 110.691-103.476 167.534-5.125 9.086-10.058 18.279-15.064 27.43-28.178 51.881-55.377 104.311-80.683 157.658-4.243 8.978-8.152 18.114-11.624 27.418-14.212 37.846-21.862 78.164-22.297 118.597-.445 39.536 5.943 79.142 18.848 116.518 15.522 45.081 40.482 86.857 72.675 122.014 7.108 7.822 14.664 15.217 22.024 22.798l326.051 332.654c-4.529 23.607-9.173 47.193-13.405 70.855-1.685 9.348-3.406 18.69-4.888 28.072-3.006 18.305-5.81 36.642-8.512 54.994l-3.297 22.124c-145.682 66.63-291.367 133.255-437.04 199.903-39.305 18.414-74.976 44.582-104.205 76.68-28.826 31.584-51.41 68.808-66.287 108.889-14.114 37.934-21.37 78.37-21.633 118.832-.117 14.428.748 28.85 2.228 43.197 1.703 18.54 3.631 37.06 5.775 55.554-.01-.049.132 1.126.18 1.547l.56 4.784c-.018-.187.134 1.105.184 1.509.692 5.806 1.408 11.609 2.14 17.41-.01-.042.144 1.125.197 1.547l.61 4.779c-.013-.127.146 1.113.2 1.523a2497.434 2497.434 0 0 0 8.779 61.467c-.015-.121.175 1.11.24 1.52 2.593 16.696 5.404 33.358 8.299 50.005l.941 5.977c-.035-.25.176 1.086.241 1.481a2157.223 2157.223 0 0 0 9.226 53.322c-.023-.145.207 1.1.284 1.505 7.103 38.055 15.216 75.92 24.212 113.573-.014-.08.265 1.098.364 1.506a2654.19 2654.19 0 0 0 4.029 16.572c.275 1.103.606 2.46.902 3.66 2.372 9.662 4.72 19.337 7.705 28.832 12.556 40.797 32.614 79.31 59.14 112.772 26.413 33.374 59.16 61.736 96.056 82.966 37.236 21.469 78.618 35.701 121.179 41.694 8.427 1.222 16.906 2.038 25.39 2.751 154.495 14.045 308.99 28.09 463.485 42.133 7.872 14.78 15.647 29.614 23.602 44.35 8.726 16.12 17.673 32.118 26.639 48.106 11.787 20.853 24.157 41.367 36.328 61.998-68.893 147.439-137.789 294.877-206.656 442.328-18.404 40.072-29.36 83.585-31.803 127.626-2.474 44.11 3.573 88.696 17.864 130.507 15.394 45.212 40.41 87.104 72.845 122.157 5.79 6.324 11.924 12.319 17.89 18.475 45.406 46.29 92.726 90.675 141.191 133.742 33.252 28.393 66.79 56.457 100.895 83.824 21.17 16.962 42.555 33.663 64.297 49.887 35.637 26.115 76.485 45.149 119.493 55.326 40.657 9.657 83.173 11.44 124.49 5.156 44.388-6.704 87.333-22.672 125.39-46.474 8.65-5.374 17.007-11.203 25.199-17.25 126.032-91.301 252.063-182.605 378.096-273.906 23.884 9.7 47.703 19.565 71.75 28.858 22.536 8.767 45.225 17.137 68.008 25.24l22.627 8.111c39.845 160.092 79.686 320.185 119.554 480.272 11.06 42.86 30.276 83.636 56.582 119.253 25.898 35.127 58.612 65.236 95.887 87.95 31.955 19.499 67.213 33.572 103.825 41.384 16.144 3.472 32.554 5.623 49.02 6.801 64.53 5.356 129.233 8.61 193.971 9.91 15.836.107 31.673.068 47.508-.076-.178 0 1.115-.013 1.523-.019l8.138-.089c-.172.01 1.115-.015 1.524-.02 16.722-.21 33.442-.567 50.16-1.048-.096.01 1.126-.034 1.544-.046 7.58-.224 15.159-.475 22.736-.751-.045 0 1.134-.043 1.559-.06 24.056-.903 48.104-2.05 72.13-3.54 42.686-3.008 84.8-14.383 123.065-33.566 33.739-16.883 64.472-39.72 90.433-67.09 29.286-30.84 52.515-67.342 68.418-106.77 6.69-16.542 12.063-33.602 16.293-50.933l118.815-466.012c24.627-8.198 49.3-16.265 73.808-24.816 5.47-1.897 10.948-3.777 16.339-5.895 24.87-9.418 49.564-19.288 74.318-29.003 129.424 96.557 258.841 193.124 388.28 289.662 35.667 26.28 76.524 45.588 119.622 55.953 38.638 9.333 79.003 11.498 118.407 6.243 39.553-5.246 78.08-17.948 113.075-37.1 14.887-8.128 29.094-17.47 42.645-27.665 52.581-38.604 103.943-78.867 154.07-120.609 10.06-8.654 19.953-17.499 29.895-26.288 42.284-37.565 83.931-75.873 124.105-115.696 31.125-31.405 56.146-68.86 73.093-109.707 16.672-40.124 25.58-83.448 26.12-126.894.6-45.153-7.769-90.378-24.284-132.396-3.534-9.074-7.51-17.966-11.649-26.777l-201.13-436.793c9.496-15.61 19.117-31.146 28.486-46.833a1707.152 1707.152 0 0 0 46.324-82.657l14.955-28.328c158.44-10.904 316.88-21.8 475.317-32.73 41.869-3.2 83.166-14.255 120.873-32.771 37.7-18.47 71.754-44.316 99.733-75.61 26.49-29.586 47.566-63.953 62.232-100.845 6.688-16.764 11.988-34.063 16.166-51.616a2486.866 2486.866 0 0 0 17.003-72.926c.01-.011.242-1.115.334-1.539l1.01-4.66c-.035.14.233-1.096.318-1.499 8.388-39.106 15.854-78.406 22.596-117.828 11.62-66.323 20.562-133.099 27.472-200.07 4.787-44.639 1.087-90.194-11.075-133.42-13.097-46.74-36.005-90.74-67.016-128.1-25.6-30.934-56.697-57.305-91.425-77.462-10.128-5.923-20.626-11.181-31.243-16.165-141.405-67.51-282.804-135.033-424.207-202.548-3.553-24.336-6.987-48.69-10.838-72.98-1.172-7.412-2.297-14.832-3.552-22.23a7129.057 7129.057 0 0 0-6.522-36.072c-.002-.028-.209-1.123-.287-1.552-3.223-17.405-6.618-34.777-9.926-52.166 113.99-113.527 227.988-227.047 341.96-340.592 31.512-31.794 56.772-69.798 73.648-111.273 16.059-39.38 24.596-81.796 25.114-124.317.56-42.79-6.934-85.632-21.674-125.793-4.947-13.54-10.774-26.746-17.193-39.648-28.73-59.313-58.865-117.954-90.757-175.63-28.75-51.106-58.997-101.367-90.595-150.762-5.915-9.194-11.788-18.416-17.849-27.515-27.095-40.187-62.657-74.72-103.958-100.136-34.737-21.42-73.453-36.407-113.615-43.707-36.965-6.77-75.099-7.036-112.165-.859-13.1 2.152-26.038 5.203-38.81 8.812-49.41 13.59-98.83 27.143-148.244 40.72l-304.38 83.59c-12.007-10.96-23.948-21.992-36.008-32.895-11.147-10.057-22.475-19.91-33.849-29.71-15.694-13.807-31.678-27.28-47.819-40.56l-19.048-15.758c15.547-163.661 31.102-327.32 46.63-490.983 4.132-45.329-.66-91.469-14.188-134.936-14.405-46.388-38.718-89.695-70.988-126.012-28.89-32.615-64.118-59.577-103.118-78.996-9.671-4.811-19.582-9.116-29.397-13.62-55.029-24.927-110.62-48.656-167.081-70.157-53.89-20.782-108.597-39.366-163.575-57.039.024.012-1.083-.346-1.49-.475-9.073-2.877-18.115-5.859-27.23-8.6-43.071-12.736-88.765-16.715-133.356-11.155-39.472 4.886-78.01 17.18-113.019 36.06-37.415 20.134-70.759 47.704-97.828 80.435-8.6 10.36-16.53 21.263-23.95 32.494l-267.389 396.251c-23.38-.612-46.759-1.39-70.147-1.651-8.63-.127-17.264-.102-25.892-.389-17.285-.417-34.578-.41-51.865-.192l-26.649.254c-89.593-135.488-179.179-270.98-268.788-406.458-26.016-38.45-59.515-71.925-98.45-97.274-33.78-22.037-71.58-37.948-111.034-46.388a324.995 324.995 0 0 0-69.622-7.212zm37.496 346.67c92.04 139.37 184.055 278.756 276.119 418.11 19.714 29.354 45.577 54.643 75.71 73.2 26.505 16.368 56.209 27.52 86.934 32.658 18.642 3.148 37.638 4.09 56.508 2.999 48.866-2.294 97.827-3.115 146.725-1.387 20.481.72 40.943 1.953 61.362 3.687 33.734 2.152 67.94-2.646 99.655-14.397 30.755-11.346 59.12-29.114 82.735-51.852 13.371-12.827 25.231-27.206 35.421-42.677l299.655-444.794c20.41 6.551 40.847 13.023 61.238 19.636 43.12 14.085 85.882 29.261 128.306 45.319 49.284 19.27 98.017 39.945 146.186 61.853l35.924 16.24c-17.448 181.93-34.907 363.858-52.348 545.788-3.44 37.823 1.58 76.44 14.977 112 11.672 31.091 29.613 59.794 52.38 83.966 10.324 11.008 21.647 21.063 33.67 30.182 25.828 20.059 51.16 40.768 75.681 62.41 11.083 9.771 22.125 19.591 33.225 29.343 1.593 1.194 3.143 2.439 4.537 3.864 9.633 8.811 19.159 17.74 28.483 26.878 5.86 5.713 11.603 11.547 17.346 17.377 20.786 19.98 44.71 36.815 70.962 48.82a236.732 236.732 0 0 0 49.817 16.478l44.577 9.926.023 5.916c193.049-53.28 386.097-106.556 579.145-159.836 11.532 18.001 23.134 35.957 34.61 53.993 25.177 39.743 49.343 80.131 72.288 121.204 26.29 47.606 51.037 96.056 74.54 145.096l17.18 35.654c-126.881 126.409-253.771 252.809-380.636 379.233-26.053 26.43-46.197 58.685-58.306 93.779-10.998 31.72-15.457 65.682-13.027 99.166.968 13.738 3.117 27.382 6.271 40.785 4.325 19.994 8.356 40.051 12.211 60.141 5.152 27.037 9.938 54.147 13.97 81.375 4.052 27.026 7.519 54.137 10.57 81.293 4.295 34.265 15.462 67.699 33 97.47 16.836 28.628 39.456 53.827 66.09 73.666 14.657 10.954 30.514 20.273 47.125 27.933l477.339 228.186c-2.277 20.04-4.466 40.088-6.81 60.12-5.681 48.179-12.723 96.192-20.745 144.036-8.84 52.021-19.926 103.643-32.5 154.884l-10.477 43.048c-176.164 12.004-352.33 23.994-528.494 36.006-33.863 2.565-67.214 12.254-97.001 28.603-25.733 14.075-48.782 32.972-67.798 55.291-14.371 16.837-26.45 35.59-36.141 55.481-15.79 31.656-32 63.126-49.775 93.722-17.05 30.182-35.4 59.6-53.787 88.978-4.212 6.648-8.443 13.293-12.19 20.219-15.149 27.602-25.168 58.034-29.124 89.281-3.961 31.132-1.963 62.993 5.757 93.406 4.363 17.276 10.58 34.062 18.27 50.129 75.59 163.326 151.183 326.65 226.772 489.978-18.02 16.976-35.94 34.057-54.074 50.912-36.803 34.201-74.404 67.552-112.952 99.778-33.949 28.311-68.857 55.45-104.142 82.07l-33.631 25.46c-144.202-107.62-288.397-215.25-432.614-322.851-27.044-19.905-58.14-34.403-90.947-41.702-31.275-6.996-63.978-7.436-95.45-1.414-19.024 3.615-37.579 9.566-55.271 17.42a2211.273 2211.273 0 0 1-95.195 38.206c-32.273 10.896-64.36 22.43-97.166 31.662-20.885 5.908-40.976 14.61-59.597 25.758-25.262 15.107-47.702 34.912-65.806 58.123-18.075 23.078-31.777 49.506-40.596 77.445-3.2 9.94-5.493 20.135-8.093 30.24l-128.691 511.102c-20.309.983-40.615 2.034-60.926 2.971-41.812 1.865-83.676 2.802-125.529 2.15-9.067-.169-18.134-.271-27.202-.37-44.045-.613-88.047-3.008-131.969-6.27l-50.897-3.868c-44.548-177.918-89.083-355.839-133.638-533.755-8.949-34.973-25.296-68.115-48.127-96.118-21.106-25.97-47.68-47.47-77.506-62.651-12.8-6.55-26.191-11.925-39.92-16.193-30.57-10.608-61.226-20.976-91.639-32.032-4.068-1.486-8.147-2.941-12.133-4.638-31.276-12.74-62.123-26.495-93.007-40.146-33.367-14.886-70.087-22.348-106.63-21.19-31.918.976-63.61 8.473-92.603 21.853-15.949 7.323-31.064 16.416-45.14 26.888-141.901 102.606-283.804 205.21-425.704 307.816-17.019-13.167-34.09-26.266-51.067-39.486-35.645-27.865-70.613-56.6-104.8-86.235-11.54-10.156-22.881-20.537-34.197-30.94-29.902-27.58-59.185-55.82-88.243-84.283l-27.133-26.505c77.197-164.784 154.403-329.563 231.579-494.357 14.909-32.362 22.963-67.912 23.04-103.562.106-31.709-6.01-63.394-17.686-92.864-6.696-16.995-15.233-33.243-25.204-48.54-17.864-28.314-34.41-57.429-50.904-86.552-11.65-20.887-22.816-42.041-33.693-63.34-6.24-12.206-12.29-24.508-18.393-36.783-18.016-35.389-44.255-66.649-76.375-90.053-26.567-19.407-57.106-33.423-89.247-40.534-11.38-2.55-22.954-4.182-34.577-5.098-175.64-16.149-351.28-32.295-526.92-48.446-5.009-22.623-10.123-45.223-15.033-67.868-9.347-43.333-17.934-86.829-25.887-130.438-1.752-9.923-3.233-19.89-4.806-29.841a2969.766 2969.766 0 0 1-18.159-138.783l-4.25-38.91c161.39-73.718 322.782-147.431 484.16-221.177 32.866-15.228 62.382-37.733 85.504-65.64 20.06-24.138 35.348-52.194 44.925-82.076 5.42-16.847 9.037-34.26 10.971-51.847 4.286-34.154 8.6-68.326 14.71-102.212 1.944-11.422 3.829-22.854 5.96-34.243a1281.554 1281.554 0 0 1 15.634-72.74c7.494-32.844 8.653-67.17 2.934-100.39-5.777-33.807-18.61-66.373-37.373-95.077-10.17-15.618-22.07-30.089-35.262-43.247-125.508-128.057-251.015-256.115-376.523-384.17 15.601-31.287 31.015-62.669 47.07-93.725 18.215-35.313 37.12-70.275 57.095-104.626a2839.308 2839.308 0 0 1 73.587-120.288l21.969-34.18c170.498 50.605 340.995 101.217 511.496 151.813 33.682 9.618 69.464 11.983 104.074 6.463 30.845-4.87 60.694-15.89 87.332-32.18 15.218-9.27 29.378-20.246 42.278-32.533a41800.555 41800.555 0 0 1 41.94-38.704c12.309-11.31 24.672-22.567 37.331-33.484 26.773-22.172 53.993-43.826 82.12-64.26 23.701-18.45 44.294-40.963 60.127-66.51a247.257 247.257 0 0 0 33.238-86.143c4.37-23.848 5.258-48.308 2.87-72.429-14.9-161.93-29.822-323.858-44.731-485.787l-5.436-59.02c19.887-8.511 39.74-17.104 59.654-25.55 41.191-17.405 82.755-33.927 124.622-49.634 30.564-10.964 61.31-21.423 92.244-31.293 20.007-6.39 40.115-12.461 60.287-18.307l35.685-10.438 24.123 36.533zm579.363 1236.562c-71.753.608-143.456 8.597-213.538 24.03-11.73 2.574-23.41 5.37-35.042 8.357.53-.132-.957.25-1.283.336-76.58 19.793-150.836 48.522-220.835 85.345-77.03 40.494-148.908 90.738-213.543 149.004-68.547 61.742-128.966 132.468-179.414 209.7-.26.397-.828 1.262-.903 1.38.228-.343-.565.874-.745 1.155-40.578 62.467-74.64 129.159-101.537 198.621.179-.472-.361.938-.482 1.251l-1.012 2.628c.139-.35-.374.984-.491 1.296-19.943 52.268-35.835 106.077-47.546 160.78.111-.5-.207.98-.275 1.31-15.178 71.27-23.21 144.043-24.215 216.9 0-.518-.012 1-.016 1.335l-.042 3.693c.01-.452-.01 1.026-.01 1.36-.11 12.961.015 25.924.348 38.88-.015-.457.028 1.024.037 1.358a1148.1 1148.1 0 0 0 1.152 28.799c-.031-.518.054.998.072 1.334.154 2.91.329 5.82.502 8.73-.031-.57.064.976.086 1.314a1122.97 1122.97 0 0 0 3.11 38.75c-.048-.458.102 1.018.135 1.35 7.996 80.858 24.841 160.844 50.245 238.025 24.696 75.058 57.44 147.467 97.54 215.554 41.275 70.136 90.329 135.693 146.008 195.046 50.236 53.55 105.876 102.039 165.872 144.373 45.109 31.813 92.67 60.154 142.162 84.6-.496-.25.884.433 1.188.58 70.546 34.75 145.023 61.525 221.58 79.525 65.218 15.35 131.934 24.3 198.886 26.793 71.394 2.664 143.067-1.987 213.492-14.03a1023.686 1023.686 0 0 0 204.899-57.493c-.485.196.927-.37 1.24-.494 54.045-21.518 106.251-47.644 155.903-77.951a1046.78 1046.78 0 0 0 63.58-42.045c-.402.292.82-.588 1.092-.783 67.722-48.545 129.613-105.185 184.124-168.196 37.514-43.347 71.523-89.72 101.662-138.482-.308.49.51-.831.686-1.12 45.555-73.904 82.147-153.318 108.806-235.937 23.58-72.99 39.396-148.473 47.287-224.768 7.336-70.905 7.872-142.504 1.739-213.52-6.745-78.079-21.716-155.448-44.679-230.38-26.427-86.31-63.472-169.364-110.049-246.685-38.734-64.29-84.018-124.637-135.005-179.72-71.11-76.866-153.333-143.49-243.538-196.699-70.2-41.455-145.21-74.785-223.106-98.864a1036.418 1036.418 0 0 0-233.162-43.728 1050.844 1050.844 0 0 0-82.967-2.597zm10.168 314.852c55.803-.04 111.613 6.252 165.986 18.81a734.88 734.88 0 0 1 119.331 38.595c53.674 22.574 104.663 51.492 151.668 85.852 51.885 37.895 98.943 82.363 139.869 131.886 55.139 66.714 99.12 142.62 129.595 223.628 22.157 58.814 37.248 120.281 44.885 182.663 7.827 63.773 7.999 128.484.476 192.294-7.279 61.453-21.807 122.057-43.365 180.07-31.198 84.057-77.178 162.627-135.376 230.844-51.16 60.016-111.732 112.048-179.039 153.178-52.8 32.295-109.707 57.898-168.968 75.78-59.21 17.897-120.733 28.084-182.543 30.373-44.192 1.64-88.534-.671-132.308-6.966-58.081-8.331-115.133-23.75-169.54-45.712-63.252-25.49-122.906-59.807-176.944-101.39-55.848-42.948-105.735-93.607-147.972-149.989a788.193 788.193 0 0 1-73.733-119.15 789.337 789.337 0 0 1-60.506-163.641c-18.445-74.189-25.987-151.046-22.657-227.41 1.68-38.864 6.179-77.609 13.547-115.806 10.029-52.057 25.343-103.104 45.757-152.034 23.777-57.052 54.453-111.228 91.193-160.934 51.971-70.326 116.167-131.656 189.101-179.934 53.238-35.272 111.093-63.595 171.686-83.79 57.319-19.141 117.053-31.01 177.328-35.32a738.24 738.24 0 0 1 52.53-1.897z" transform="matrix(.34849 .04153 -.03798 .32178 3567.57 3508.264)"/>
      <path style="fill-rule:evenodd;stroke-width:114.438;stroke-dasharray:none" d="M2675.118 792.75c-30.586.345-61.087 5.104-90.408 13.781a2059.81 2059.81 0 0 0-45.387 13.313c.136-.045-1.072.329-1.465.449-55.771 17.09-110.812 36.51-165.205 57.563-56.176 21.615-111.844 44.61-166.436 69.98-40.371 18.479-76.958 45.187-106.81 78.057-28.182 30.976-50.403 67.322-65.294 106.455-14.117 37.01-21.721 76.464-22.631 116.056-.416 16.89.496 33.796 2.328 50.587 15.829 160.36 31.66 320.72 47.487 481.08-17.829 14.788-35.778 29.434-53.37 44.506-18.108 15.436-35.91 31.227-53.485 47.267l-24.71 22.447c-154.173-44.411-308.344-88.835-462.521-133.237-42.589-12.124-87.682-15.519-131.574-9.547-38.804 5.231-76.61 17.682-110.965 36.459-34.241 18.677-65.045 43.562-90.714 72.914-12.007 13.697-22.825 28.41-32.616 43.763-36.141 55.312-70.46 111.807-103.179 169.208-5.286 9.557-10.408 19.205-15.589 28.82-28.14 52.579-55.29 105.706-80.44 159.785-18.504 40.629-29.282 84.795-31.26 129.409-1.797 39.776 3.341 79.857 15.15 117.884 12.834 41.404 33.55 80.33 60.624 114.175 9.29 11.636 19.357 22.637 29.949 33.097 112.258 113.165 224.518 226.329 336.775 339.495l-7.082 38.092c0-.031-.206 1.117-.284 1.537a3752.178 3752.178 0 0 0-9.094 51.49 3267.212 3267.212 0 0 0-9.157 60.824l-3.48 24.295c-145.233 67.534-290.47 135.058-435.696 202.61-39.07 18.573-74.492 44.818-103.508 76.913-27.334 30.18-49.012 65.439-63.753 103.389-16.784 43.145-24.625 89.691-23.287 135.95.29 10.922 1.151 21.82 2.313 32.681a2445.42 2445.42 0 0 0 2.441 23.783c-.015-.18.122 1.108.168 1.512l.524 4.795c-.01-.048.125 1.127.171 1.549a2425.17 2425.17 0 0 0 12.22 93.148c-.021-.114.168 1.112.23 1.523l.724 4.768c-.016-.128.173 1.11.237 1.518l.738 4.765c-.011-.05.176 1.12.24 1.54l.75 4.763c-.007-.065.18 1.118.247 1.534 2.979 18.791 6.22 37.54 9.589 56.264a2183.777 2183.777 0 0 0 10.016 56.876c-.021-.13.211 1.102.29 1.508a2198.72 2198.72 0 0 0 3.016 15.533c-.007-.018.223 1.116.306 1.536 8.189 41.266 17.587 82.287 27.95 123.059 2.267 8.952 4.505 17.918 7.293 26.725 12.74 40.968 33.06 79.604 59.895 113.098 25.354 31.702 56.462 58.8 91.405 79.47 38.86 23.026 82.41 38.072 127.187 44.005 8.45 1.157 16.95 1.896 25.45 2.562 154.372 13.03 308.745 26.058 463.116 39.09 7.916 14.657 15.737 29.365 23.73 43.98 9.078 16.534 18.37 32.949 27.71 49.336a1859.127 1859.127 0 0 0 13.144 22.469c-.119-.193.567.95.772 1.296 7.347 12.291 14.738 24.556 22.103 36.837-68.1 147.944-136.216 295.882-204.296 443.836-18.966 41.984-29.789 87.676-31.272 133.738-1.497 44.926 5.869 90.143 21.684 132.226 15.954 42.567 40.522 81.87 71.738 114.91 5.807 6.182 11.894 12.09 17.836 18.14a2441.624 2441.624 0 0 0 29.101 28.777c-.033-.025.815.79 1.119 1.088 17.771 17.273 35.807 34.272 54.036 51.06-.351-.317.75.689.996.915a3147.96 3147.96 0 0 0 55.85 50.124c15.308 12.962 30.737 25.779 46.202 38.552a4059.55 4059.55 0 0 0 29.618 24.18c-.104-.077.873.706 1.194.966 4.933 3.985 9.88 7.951 14.833 11.912-.167-.139.867.689 1.184.939 23.841 18.992 47.938 37.67 72.464 55.77 34.034 24.67 72.748 42.906 113.52 53.18 39.85 10.063 81.603 12.53 122.358 7.192 42.753-5.57 84.352-19.702 121.712-41.21 12.648-7.263 24.785-15.395 36.444-24.153l377.394-276.937 37.055 14.82c-.1-.036 1.047.416 1.434.57a2474.028 2474.028 0 0 0 17.595 6.922c-.042-.02 1.058.41 1.454.562a2393.21 2393.21 0 0 0 43.185 16.292c-.101-.034 1.058.386 1.449.53 20.12 7.368 40.38 14.343 60.584 21.472 40.74 159.854 81.465 319.711 122.23 479.559 11.831 44.848 32.641 87.35 61.13 123.975 26.1 33.616 58.569 62.297 95.277 83.851 34.969 20.579 73.728 34.703 113.757 41.356 12.059 2.032 24.232 3.329 36.43 4.14 64.159 4.911 128.474 7.731 192.812 8.645 20.584.055 41.169-.222 61.749-.61 48.489-.976 96.958-3.047 145.348-6.296 46.376-3.415 92.035-16.757 132.8-39.167 35.646-19.519 67.52-45.838 93.583-77.01 26.25-31.326 46.622-67.494 60.208-106.022 4.448-12.5 8.08-25.276 11.198-38.168 11.785-47.397 23.604-94.784 35.401-142.178l80.837-324.583c24.926-8.474 49.896-16.827 74.697-25.665 5.04-1.776 10.08-3.559 15.044-5.546 21.027-8.115 41.932-16.54 62.835-24.966l11.48-4.62c130.022 95.766 260.036 191.542 390.073 287.286 35.81 26.02 76.764 45.03 119.893 55.093 38.922 9.122 79.543 10.974 119.125 5.332 39.527-5.609 77.964-18.658 112.809-38.132 14.551-8.11 28.436-17.384 41.683-27.477 52.51-39.05 103.785-79.757 153.813-121.938 9.109-7.977 18.112-16.075 27.134-24.15 42.627-38.277 84.601-77.309 125.078-117.863 32.626-33.122 58.485-72.906 75.32-116.254 15.874-40.762 23.81-84.59 23.275-128.33-.456-39.991-7.94-79.868-21.82-117.368-4.368-11.829-9.442-23.383-14.885-34.753-67.876-145.224-135.751-290.448-203.628-435.67 12.231-20.365 24.66-40.614 36.498-61.212a1705.29 1705.29 0 0 0 37.836-69.218l14.552-27.922c158.355-11.93 316.712-23.847 475.065-35.801 42.814-3.543 84.975-15.317 123.263-34.838 36.598-18.61 69.603-44.219 96.79-74.98 26.987-30.5 48.265-65.983 62.76-104.029 6.026-15.75 10.848-31.947 14.675-48.367 14.876-61.04 27.327-122.658 37.847-184.594 3.726-22.116 7.42-44.24 10.69-66.43a3399.18 3399.18 0 0 0 3.016-20.824c-.056.37.144-1.044.19-1.374 6.147-43.838 11.267-87.819 15.455-131.886 3.791-43.962-.661-88.638-13.234-130.942-11.837-39.874-30.815-77.635-55.907-110.818-26.651-35.317-60.221-65.401-98.294-87.95-11.552-6.872-23.558-12.952-35.777-18.54-141.77-66.604-283.54-133.203-425.308-199.809-3.713-24.42-7.316-48.856-11.316-73.23-1.207-7.375-2.373-14.757-3.664-22.117-3.143-17.023-6.291-34.046-9.616-51.035.03.131-.217-1.101-.296-1.506l-7.286-36.932c113.389-114.29 226.788-228.57 340.163-342.873 30.997-31.689 55.853-69.404 72.48-110.51 16.293-40.16 24.764-83.46 24.908-126.795.179-42.574-7.597-85.134-22.555-124.984-4.913-13.145-10.644-25.975-16.96-38.504-28.91-58.854-59.224-117.026-91.24-174.252-33.56-58.944-69.13-116.739-106.466-173.365-20.5-31.27-46.057-59.245-75.487-82.32-36.487-28.637-79.003-49.608-124.026-60.815-42.675-10.685-87.525-12.575-130.95-5.536-14.3 2.293-28.427 5.583-42.326 9.637-150.706 42.426-301.412 84.854-452.12 127.28-12.075-10.894-24.086-21.86-36.212-32.699-11.199-9.983-22.579-19.76-34.005-29.48-15.843-13.778-31.99-27.202-48.28-40.449l-18.914-15.464c14.647-163.83 29.31-327.659 43.94-491.49 3.95-46.442-1.463-93.683-16.03-137.967-13.96-42.583-36.324-82.403-65.518-116.409-29.104-33.949-64.964-62.08-104.888-82.224-7.51-3.83-15.203-7.28-22.91-10.691-52.405-23.505-105.286-45.986-158.922-66.545.105.045-1.052-.4-1.44-.547a4068.77 4068.77 0 0 0-33.111-12.459c.059.019-1.063-.391-1.459-.538-32.575-12.025-65.43-23.278-98.424-34.094.227.078-1.05-.341-1.43-.464a4489.448 4489.448 0 0 0-72.259-22.91c-46.4-13.93-95.903-17.65-143.811-10.266-37.984 5.809-74.9 18.495-108.429 37.266-34.587 19.302-65.53 45.015-91.109 75.24-9.347 11.01-17.935 22.652-25.88 34.711-50.085 75.196-100.201 150.371-150.299 225.559l-116.418 174.701c-23.489-.462-46.976-1.102-70.471-1.2-8.495-.065-16.992.012-25.486-.22-17.475-.31-34.955-.175-52.429.154l-26.172.417c-90.368-134.95-180.726-269.907-271.115-404.843-25.048-36.523-56.874-68.47-93.71-93.107-35.54-23.815-75.696-40.785-117.637-49.305a324.837 324.837 0 0 0-68.577-6.519zm39.445 346.457c92.474 138.27 184.951 276.584 277.443 414.862 19.89 29.678 46.067 55.212 76.59 73.839 27.355 16.748 58.086 27.94 89.804 32.72 18.004 2.756 36.306 3.455 54.477 2.274 49.13-2.613 98.365-3.741 147.552-2.291 20.215.587 40.411 1.729 60.575 3.27 33.69 1.911 67.802-3.128 99.384-15.066 30.437-11.436 58.467-29.197 81.84-51.798 13.123-12.641 24.78-26.786 34.797-42.003 99.398-149.394 198.79-298.793 298.184-448.19 20.221 6.348 40.467 12.617 60.669 19.024 42.421 13.544 84.502 28.144 126.262 43.604 14.256 5.368 28.414 10.992 42.562 16.638a2950.284 2950.284 0 0 1 104.094 44.111l38.89 17.268c-16.451 182.048-32.91 364.097-49.345 546.147-3.06 35.97 1.488 72.617 13.649 106.628 11.5 32.308 29.768 62.166 53.192 87.205 10.864 11.643 22.834 22.233 35.587 31.762 26.688 20.475 52.854 41.643 78.167 63.8 10.686 9.323 21.35 18.672 32.058 27.968a66.665 66.665 0 0 1 5.448 4.69 1043.016 1043.016 0 0 1 43.77 41.83c23.23 22.209 50.43 40.422 80.275 52.46 13.13 5.324 26.75 9.422 40.615 12.327l45.082 9.96.031 5.778 578.487-163.635c11.575 17.836 23.221 35.627 34.742 53.5 25.2 39.258 49.409 79.159 72.418 119.742 10.294 18.304 20.295 36.771 30.14 55.32 16.36 30.875 32.099 62.076 47.352 93.512l15.931 32.649c-126.146 127.198-252.303 254.387-378.444 381.592-26.566 27.267-46.894 60.615-58.711 96.818-10.806 32.927-14.62 68.127-11.093 102.604 1.222 12.185 3.377 24.268 6.29 36.16 7.993 36.564 15.36 73.27 21.767 110.146 6.287 36.65 11.464 73.484 15.802 110.413 4.386 34.06 15.545 67.286 33.022 96.873 16.779 28.483 39.313 53.544 65.817 73.297 15.08 11.27 31.432 20.804 48.572 28.576 159.533 75.03 319.065 150.063 478.598 225.093-2.279 21.02-4.468 42.049-6.818 63.06-5.529 48.554-12.372 96.953-20.277 145.175-8.614 51.82-19.464 103.252-31.74 154.323l-9.51 39.95c-176.058 13.133-352.118 26.258-528.175 39.412-34.36 2.819-68.145 12.983-98.178 29.953-25.57 14.404-48.41 33.584-67.168 56.147-13.606 16.312-25.093 34.359-34.347 53.47-15.77 32.055-31.922 63.946-49.694 94.946-17.81 31.952-37.047 63.076-56.291 94.176-18.75 29.454-31.47 62.774-36.768 97.3-5.142 33.261-3.422 67.546 4.908 100.15 4.4 17.335 10.657 34.18 18.439 50.278 76.619 163.102 153.235 326.206 229.855 489.308-15.928 15.19-31.79 30.449-47.774 45.578-38.514 36.395-77.9 71.875-118.345 106.114-34.701 29.301-70.433 57.356-106.525 84.917l-30.694 23.524c-144.796-106.688-289.587-213.384-434.4-320.05-27.166-19.742-58.361-34.035-91.217-41.115-30.372-6.576-62.047-6.99-92.596-1.313-19.783 3.647-39.074 9.82-57.414 18.068-30.072 13.141-60.458 25.56-91.08 37.36-5.77 2.26-11.674 4.155-17.509 6.237-28.679 9.984-57.306 20.198-86.53 28.505-33.059 10.035-64.067 26.952-90.107 49.69-24.499 21.341-44.567 47.723-58.67 76.99-8.106 16.738-14.277 34.395-18.55 52.492-43.028 174.902-86.02 349.813-129.036 524.718-20.68 1.123-41.355 2.308-62.036 3.39-42.975 2.197-86.013 3.349-129.044 2.87-12.79-.16-25.582-.093-38.37-.345-42.966-.729-85.888-3.05-128.747-6.097l-38.338-2.65c-45.55-177.702-91.085-355.409-136.641-533.11-9.075-34.604-25.435-67.35-48.126-95.044-21.241-25.967-47.96-47.434-77.928-62.518-13.029-6.585-26.658-11.958-40.623-16.2-32.008-10.867-64.1-21.497-95.92-32.907-7.778-2.857-15.411-6.09-23.089-9.203-27.36-11.256-54.455-23.148-81.597-34.92-31.956-13.38-66.76-20.06-101.41-18.975-32.583.977-64.931 8.754-94.423 22.635-15.821 7.41-30.807 16.564-44.757 27.073-141.321 103.512-282.643 207.023-423.963 310.536-16.88-12.888-33.804-25.716-50.648-38.65-36.384-28.065-72.07-57.037-106.958-86.94-15.761-13.8-31.28-27.876-46.68-42.076-26.793-24.702-53.11-49.912-79.286-75.264l-23.389-22.595c76.364-165.445 152.738-330.885 229.079-496.34 14.574-32.327 22.364-67.751 22.233-103.233-.065-32.675-6.76-65.283-19.308-95.44-6.576-15.879-14.765-31.07-24.203-45.427-18.741-29.245-36.003-59.397-53.297-89.51-16.093-28.756-31.437-57.93-46.19-87.396-3.485-7.014-6.996-14.024-10.977-20.773-17.356-29.814-40.737-56.157-68.543-76.606-26.88-19.797-57.877-34.05-90.504-41.204-11.763-2.604-23.73-4.225-35.743-5.094-175.65-15.004-351.298-30.01-526.947-45.012-6.431-28.008-13.024-55.979-19.065-84.074a3962.825 3962.825 0 0 1-5.072-23.694c-.058-.29-.247-1.175-.355-1.693a4240.04 4240.04 0 0 1-17.81-89.687c-2.275-12.905-4.316-25.851-6.371-38.794a2950.638 2950.638 0 0 1-17.41-129.34l-4.367-38.14c160.478-74.53 320.96-149.051 481.428-223.605 33.36-15.436 63.256-38.385 86.565-66.826 20.591-25.048 36.05-54.252 45.412-85.287 4.873-16.084 8.1-32.65 9.838-49.362 3.017-25.25 6.09-50.497 9.846-75.648 1.521-10.185 3.214-20.343 4.959-30.492 5.408-34.297 12.018-68.412 20.13-102.175 7.643-33.858 8.56-69.276 2.171-103.416-6.091-32.795-18.841-64.323-37.192-92.174-10.347-15.764-22.464-30.344-35.902-43.565-126.183-127.217-252.37-254.43-378.55-381.65 11.34-23.054 22.564-46.165 34.028-69.158 21.87-43.853 44.608-87.29 69.008-129.793a2837.14 2837.14 0 0 1 73.114-121.08l21.598-34.021c170.825 49.517 341.646 99.045 512.475 148.545 34.261 9.52 70.635 11.536 105.688 5.442 31.091-5.354 61.078-16.962 87.701-33.886 14.618-9.26 28.221-20.097 40.627-32.156a6320.83 6320.83 0 0 0 17.988-16.777c.291-.268.877-.82 1.28-1.197 18.818-17.6 37.58-35.27 56.915-52.304 6.826-5.858 13.8-11.542 20.731-17.276 20.613-16.95 41.602-33.449 63.085-49.284 22.653-17.901 42.436-39.504 57.843-63.944 16.148-25.507 27.57-53.994 33.479-83.6 4.958-24.623 6.177-49.97 3.836-74.97-.19-2.106-.39-4.212-.597-6.318.023.194-.11-1.106-.149-1.51-6.616-67.54-13.197-135.083-19.8-202.624l-32.926-337.07c19.637-8.557 39.24-17.19 58.902-25.687 41.743-17.96 83.876-35.016 126.331-51.221 48.21-17.548 96.835-33.989 146.019-48.603l40.448-12.134 24.363 36.433zm597.822 1232.639c-76.009.287-152 8.861-226.11 25.772-86.58 19.717-170.554 50.79-249.165 92.075a1043.954 1043.954 0 0 0-12.04 6.422c.382-.21-.906.493-1.2.652-62.198 33.798-120.907 73.992-175.02 119.624.406-.349-.758.641-1.015.858l-2.26 1.915c.192-.157-.838.716-1.141.976a1051.424 1051.424 0 0 0-11.955 10.348c.398-.356-.745.658-.998.88a1081.9 1081.9 0 0 0-21.418 19.398c.358-.327-.74.693-.983.923a1068.174 1068.174 0 0 0-33.068 32.225c.27-.269-.735.752-.967.991l-2.072 2.117c.334-.35-.706.727-.94.966-58.981 60.658-110.7 128.356-153.825 201.142a1086.885 1086.885 0 0 0-39.334 72.52c.19-.376-.458.931-.604 1.231a1101.988 1101.988 0 0 0-8.21 17.041c.183-.38-.44.94-.58 1.242-40.792 86.86-69.951 179.155-86.678 273.642-.08.449-.278 1.545-.197 1.113-15.88 90.11-20.51 182.17-14.125 273.437 4.842 69.22 16.12 137.996 33.745 205.112a1105.816 1105.816 0 0 0 87.083 226.793c42.009 81.36 94.164 157.482 154.962 225.954a1093.619 1093.619 0 0 0 88.592 88.975c-.323-.296.77.685 1.02.906a1078.843 1078.843 0 0 0 113.902 88.742c-.414-.286.835.561 1.114.747l2.476 1.667c-.375-.245.854.571 1.131.757 66.03 44.17 137.016 80.947 211.275 109.185 70.563 26.863 144.067 45.997 218.782 56.891 87.364 12.736 176.351 14.3 264.11 4.653a1024.426 1024.426 0 0 0 209.405-45.547c76.533-25.263 150.045-59.62 218.606-101.98 53.58-33.083 104.15-71.029 150.953-113.156a1070.33 1070.33 0 0 0 123.83-132.078c29.267-37.042 56.08-76.021 80.253-116.57-.242.396.52-.88.69-1.168l1.584-2.67c-.229.395.52-.883.69-1.171 50.447-85.664 88.976-178.315 114.32-274.439 1.559-5.9 3.06-11.817 4.523-17.742-.1.387.247-1.015.325-1.34a1100.505 1100.505 0 0 0 16.821-82.293c-.033.224.18-1.091.245-1.488.795-4.854 1.555-9.713 2.287-14.576-.035.21.162-1.097.22-1.496a1110.5 1110.5 0 0 0 3.137-22.705c-.055.465.128-1.012.17-1.344.285-2.242.556-4.485.83-6.729-.049.382.123-1.043.16-1.374 8.102-68.227 9.858-137.198 5.414-205.757-5.316-82.265-19.72-163.948-43.008-243.03-28.7-97.576-70.959-191.153-125.213-277.184-47.207-74.89-103.473-144.075-167.261-205.465.365.346-.726-.697-.968-.93l-2.507-2.402c.393.382-.717-.68-.963-.91a1081.736 1081.736 0 0 0-92.898-78.95c.35.271-.823-.619-1.09-.819-5.424-4.1-10.891-8.142-16.393-12.138.308.23-.851-.614-1.122-.808-70.402-50.977-147.06-93.33-227.787-125.57-54.19-21.645-110.2-38.738-167.258-50.973-65.215-14.005-131.785-21.66-198.473-22.907-7.935-.152-15.872-.209-23.809-.183zm4.244 314.863c58.72-.097 117.46 6.812 174.524 20.676 70.07 17 137.565 44.467 199.727 80.985 50.442 29.61 97.405 65.117 139.764 105.445 62.955 59.88 115.689 130.43 155.545 207.623 30.972 59.95 54.153 123.911 68.876 189.761 13.37 59.868 19.765 121.28 19.163 182.616-.43 43.95-4.431 87.87-12.13 131.146-8.645 48.75-21.921 96.683-39.67 142.905-23.28 60.642-54.226 118.346-91.953 171.227-41.17 57.725-90.407 109.714-145.98 153.76-56.55 44.84-119.664 81.435-186.827 107.883-62.061 24.488-127.542 40.268-193.937 46.806-85.832 8.47-173.17 1.807-256.646-19.94-67.048-17.402-131.557-44.442-191.117-79.79-63.902-37.867-122.122-85.23-172.473-139.823-46.914-50.83-87.03-107.917-119.01-169.25a788.21 788.21 0 0 1-65.539-172.242c-15.84-62.926-23.845-127.8-24.008-192.684-.202-69.905 8.72-139.862 26.85-207.387 19.38-72.305 49.273-141.798 88.602-205.499 37.213-60.306 82.824-115.447 135.266-163.12 46.357-42.167 98.02-78.528 153.493-107.697 54.843-28.856 113.387-50.684 173.766-64.656 53.316-12.352 108.03-18.593 162.755-18.741h.96z" transform="matrix(.34849 .04153 -.03798 .32178 3567.57 3508.264)"/>
    </g>
  </g>
</svg>
