<?xml version="1.0" encoding="UTF-8"?>
<!DOCTYPE svg PUBLIC "-//W3C//DTD SVG 1.1//EN" "http://www.w3.org/Graphics/SVG/1.1/DTD/svg11.dtd">
<svg xmlns="http://www.w3.org/2000/svg" xml:space="preserve" width="580px" height="580px" shape-rendering="geometricPrecision" text-rendering="geometricPrecision" image-rendering="optimizeQuality" fill-rule="nonzero" clip-rule="nonzero" viewBox="0 0 5800 5800" xmlns:xlink="http://www.w3.org/1999/xlink">
	<title>music icon</title>
	<desc>music icon from the IconExperience.com I-Collection. Copyright by INCORS GmbH (www.incors.com).</desc>
		<path id="curve28" fill="#000000" d="M2500 1676l2600 -557 0 -495 -2600 557 0 495zm-1011 2232c49,-5 95,-8 139,-8 227,0 430,63 583,171 32,22 62,46 89,73l0 -3044c0,-50 37,-92 85,-99l2794 -599c54,-11 107,23 119,77 1,7 2,14 2,21 0,0 0,3210 0,3502 0,221 -114,432 -298,593 -177,156 -422,268 -691,297 -49,5 -95,8 -139,8 -227,0 -430,-63 -583,-171 -160,-112 -264,-272 -285,-462 -3,-24 -4,-47 -4,-69 0,-221 114,-432 298,-593 177,-156 422,-268 691,-297 49,-5 95,-8 139,-8 227,0 430,63 583,171 32,22 62,46 89,73l0 -2220 -2600 557 0 2721c0,221 -114,432 -298,593 -177,156 -422,268 -691,297 -49,5 -95,8 -139,8 -227,0 -430,-63 -583,-171 -160,-112 -264,-272 -285,-462 -3,-24 -4,-47 -4,-69 0,-221 114,-432 298,-593 177,-156 422,-268 691,-297zm139 192c-40,0 -79,2 -117,6 -228,25 -433,118 -581,249 -142,124 -230,282 -230,443 0,18 1,34 2,48 14,129 88,240 202,320 120,85 283,134 468,134 40,0 79,-2 117,-6 228,-25 433,-118 581,-249 130,-113 230,-269 230,-446 0,-16 -1,-31 -2,-45 -14,-129 -88,-240 -202,-320 -120,-85 -283,-134 -468,-134zm2800 -600c-40,0 -79,2 -117,6 -228,25 -433,118 -581,249 -142,124 -230,282 -230,443 0,18 1,34 2,48 15,129 88,240 202,320 120,85 283,134 468,134 40,0 79,-2 117,-6 228,-25 433,-118 581,-249 142,-124 230,-282 230,-443 0,-18 -1,-34 -2,-48 -14,-129 -88,-240 -202,-320 -120,-85 -283,-134 -468,-134z"/>
</svg>