<?xml version="1.0" encoding="utf-8"?>
<!-- Generator: Adobe Illustrator 12.0.1, SVG Export Plug-In . SVG Version: 6.00 Build 51448)  -->
<!DOCTYPE svg PUBLIC "-//W3C//DTD SVG 1.1//EN" "http://www.w3.org/Graphics/SVG/1.1/DTD/svg11.dtd" [
	<!ENTITY ns_svg "http://www.w3.org/2000/svg">
	<!ENTITY ns_xlink "http://www.w3.org/1999/xlink">
]>
<svg  version="1.1" id="Ebene_1" xmlns="&ns_svg;" xmlns:xlink="&ns_xlink;" width="526" height="539.96" viewBox="0 0 526 539.96"
	 overflow="visible" enable-background="new 0 0 526 539.96" xml:space="preserve">
<path id="curve28" d="M354,17.98c86.712,0,157,71.519,157,159.75c0,88.23-70.288,159.75-157,159.75c-86.713,0-157-71.52-157-159.75
	C197,89.499,267.287,17.98,354,17.98z M354,30.269c-80.07,0-144.923,65.989-144.923,147.461S273.93,325.192,354,325.192
	c80.069,0,144.923-65.99,144.923-147.462C498.923,96.257,434.069,30.269,354,30.269z"/>
<path d="M390.671,234.465c7.034,5.069,14.239,6.482,21.821,9.746c5.308,2.243,11.922,5.069,16.26,9.893
	c4.677,5.263,8.257,11.841,10.7,18.956c2.612,7.457,3.918,15.498,3.918,23.147c0,10.965-10.7,18.03-25.485,22.465
	c-19.589,5.896-46.886,7.749-62.978,7.749s-43.39-1.854-62.978-7.749c-14.787-4.436-25.487-11.502-25.487-22.466
	c0-7.649,1.307-15.689,3.918-23.195c2.443-7.066,6.023-13.645,10.699-18.907c4.339-4.825,10.952-7.651,16.261-9.894
	c2.864-1.217,5.687-2.239,8.594-3.264c4.382-1.559,8.131-2.827,13.059-6.384c2.612-1.706,4.171-5.556,5.098-9.989
	c0.969-4.434,1.264-9.259,1.348-13.208c-2.865-3.704-5.604-8.722-7.92-14.082c-2.865-6.481-5.266-13.547-6.74-19.248
	c-3.875-2.827-6.613-7.066-8.172-11.891c-1.771-5.458-2.064-11.695-0.801-17.3l-1.644-29.14c-0.126-2.632,0.126-5.994,0.506-8.577
	c3.411-24.414,23.21-38.643,43.515-39.081c5.729-0.098,12.344,0.829,17.567,3.46c1.727,0.926,3.328,1.95,5.14,3.217
	c9.688-4.239,20.052-0.975,28.097,6.141c4.804,4.239,8.846,9.893,11.458,16.129c2.486,5.799,3.708,12.135,3.286,18.323
	l-1.686,29.531c1.264,5.604,1.012,11.841-0.8,17.299c-1.558,4.824-4.256,9.064-8.172,11.89c-1.475,5.702-3.834,12.768-6.697,19.296
	c-2.36,5.264-5.055,10.284-7.921,14.035c0.128,3.996,0.38,8.821,1.265,13.158C386.541,228.814,388.016,232.614,390.671,234.465z"/>
<path id="curve29" d="M62,329.98h40v140H82v-120H62V329.98z M182,169.98c0,24.7,5.1,48.2,14,69.6c-1.3,0.3-2.6,0.4-4,0.4
	c-11,0-20-9-20-20c0-7.2,3.8-13.8,10-17.3v-12.7h-40v12.7c6.2,3.5,10,10.1,10,17.3c0,11-9,20-20,20s-20-9-20-20
	c0-7.2,3.8-13.7,10-17.3v-12.7H82v12.7c6.2,3.5,10,10.1,10,17.3c0,11-9,20-20,20s-20-9-20-20c0-7.2,3.8-13.7,10-17.3v-12.7H32
	c-5.5,0-10,4.5-10,10v70h190.4c4.7,7,9.9,13.7,15.5,20H22v220h280v-170.3c6.5,2.3,13.2,4.3,20,5.8v184.5H2c0-110,0-220,0-330
	c0-16.5,13.5-30,30-30h30v-20c0-5.5,4.5-10,10-10s10,4.5,10,10v20h40v-20c0-5.5,4.5-10,10-10s10,4.5,10,10v20H182z M142,369.98
	c0-22,18-40,40-40h40c11,0,21,4.5,28.3,11.7c7.2,7.3,11.7,17.3,11.7,28.3c0,8.9-2.8,17.2-7.8,23.9c-5.1,6.699-12.2,11.8-20.7,14.399
	l-57.3,17.2c-4.3,1.3-7.9,3.8-10.3,7.1c-2.5,3.301-3.9,7.5-3.9,12v5.4h100v20H142v-25.4c0-8.899,2.8-17.1,7.9-23.899
	c5-6.7,12.1-11.8,20.6-14.4l57.3-17.1c4.3-1.3,7.9-3.9,10.3-7.2c2.5-3.3,3.9-7.4,3.9-12c0-5.5-2.2-10.5-5.9-14.1
	c-3.6-3.7-8.6-5.9-14.1-5.9h-40c-11,0-20,9-20,20H142z"/>
</svg>
