<?xml version="1.0" encoding="UTF-8"?>
<!DOCTYPE svg PUBLIC "-//W3C//DTD SVG 1.1//EN" "http://www.w3.org/Graphics/SVG/1.1/DTD/svg11.dtd">
<svg xmlns="http://www.w3.org/2000/svg" xml:space="preserve" width="580px" height="580px" shape-rendering="geometricPrecision" text-rendering="geometricPrecision" image-rendering="optimizeQuality" fill-rule="nonzero" clip-rule="nonzero" viewBox="0 0 5800 5800" xmlns:xlink="http://www.w3.org/1999/xlink">
	<title>office_building icon</title>
	<desc>office_building icon from the IconExperience.com I-Collection. Copyright by INCORS GmbH (www.incors.com).</desc>
		<path id="curve29" fill="#000000" d="M700 2700l0 -800 600 0 0 200 -400 0 0 600 -200 0zm800 0l0 -800 600 0 0 200 -400 0 0 600 -200 0zm800 -200l0 -600 600 0 0 200 -400 0 0 400 -200 0zm-1600 1400l0 -800 600 0 0 200 -400 0 0 600 -200 0zm800 0l0 -800 400 0 0 200 -200 0 0 600 -200 0zm-800 1200l0 -800 600 0 0 200 -400 0 0 600 -200 0zm800 0l0 -800 400 0 0 200 -200 0 0 600 -200 0zm1800 -4800l0 2200 -200 0 0 -2000 -2600 0 0 4800 1400 0 0 200 -1600 0 0 -5200 3000 0zm-2600 1200l0 -800 600 0 0 200 -400 0 0 600 -200 0zm800 0l0 -800 600 0 0 200 -400 0 0 600 -200 0zm800 0l0 -800 600 0 0 200 -400 0 0 600 -200 0z"/>
	<path id="curve28" fill="#000000" d="M5500 2700l0 2800c-1133,0 -2267,0 -3400,0l0 -2800 3400 0zm-1300 2600l0 -800 -800 0 0 800 800 0zm300 -1400l0 -800 600 0 0 200 -400 0 0 600 -200 0zm-1000 0l0 -800 600 0 0 200 -400 0 0 600 -200 0zm-1000 0l0 -800 600 0 0 200 -400 0 0 600 -200 0zm2800 -1000l-3000 0 0 2400 900 0 0 -1000 1200 0 0 1000 900 0 0 -2400z"/>
</svg>