<?xml version="1.0" encoding="UTF-8"?>
<!DOCTYPE svg PUBLIC "-//W3C//DTD SVG 1.1//EN" "http://www.w3.org/Graphics/SVG/1.1/DTD/svg11.dtd">
<svg xmlns="http://www.w3.org/2000/svg" xml:space="preserve" width="580px" height="580px" shape-rendering="geometricPrecision" text-rendering="geometricPrecision" image-rendering="optimizeQuality" fill-rule="nonzero" clip-rule="nonzero" viewBox="0 0 5800 5800" xmlns:xlink="http://www.w3.org/1999/xlink">
	<title>gearwheels icon</title>
	<desc>gearwheels icon from the IconExperience.com I-Collection. Copyright by INCORS GmbH (www.incors.com).</desc>
		<path id="curve29" fill="#000000" d="M4578 1861c18,-18 35,-38 51,-59 15,-21 30,-42 44,-65 21,-36 63,-58 103,-63l300 -39c11,-2 20,-96 22,-110 2,-13 12,-105 9,-110 -2,-4 -257,-102 -284,-113 -14,-5 -27,-13 -39,-22 -12,0 -41,-45 -45,-62 -8,-26 -16,-51 -26,-75 -11,-24 -22,-48 -35,-70 -12,-22 -16,-48 -14,-73 1,-13 11,-46 11,-49 12,-27 118,-278 117,-283 -2,-5 -75,-63 -85,-70 -29,-22 -58,-42 -87,-61 -9,-6 -219,169 -244,188 -30,25 -76,40 -114,31 -26,-7 -52,-12 -78,-15 -26,-3 -52,-5 -78,-5 -47,-6 -78,-21 -107,-59 -41,-53 -198,-263 -191,-241 -37,12 -70,25 -100,37 -30,13 -62,28 -96,45 -9,5 37,275 42,305 6,40 -3,86 -32,116 -18,18 -35,38 -51,59 -15,21 -30,42 -44,65 -20,35 -64,58 -103,63l-300 39c-11,2 -20,96 -22,110 -2,14 -16,108 -5,113l281 110c38,15 72,43 83,84 3,10 26,73 26,75 20,47 53,89 49,143 -1,16 -5,33 -11,49 -12,28 -122,279 -114,286 28,25 55,47 82,67 29,22 58,42 87,61 9,6 219,-169 244,-188 31,-25 75,-40 114,-31 26,7 52,12 77,15 27,3 53,5 79,5 42,1 82,26 107,59 18,23 182,240 187,242 -1,4 92,-33 104,-38 12,-5 96,-42 99,-48 2,-3 -41,-274 -45,-303 -6,-39 4,-85 32,-115zm169 111l42 273c13,89 -32,174 -111,215 -36,18 -71,35 -109,51 -39,16 -76,30 -112,42 -85,30 -176,2 -231,-69l-169 -222c-22,-1 -45,-3 -67,-5 -21,-3 -41,-7 -62,-11l-216 173c-70,56 -166,60 -241,11 -36,-23 -68,-46 -98,-68 -33,-25 -63,-50 -93,-76 -68,-59 -90,-152 -55,-235l106 -257c-10,-20 -19,-40 -28,-61 -1,1 -21,-53 -22,-58l-257 -101c-84,-33 -136,-114 -131,-203 2,-43 6,-83 10,-120 5,-39 12,-78 19,-118 18,-88 88,-154 176,-165l276 -37c12,-18 25,-36 39,-54 12,-17 26,-33 40,-49l-42 -273c-13,-89 32,-175 112,-215 35,-18 70,-35 108,-51 13,-5 105,-43 112,-43 85,-29 176,-1 231,70l169 222c22,1 45,3 66,5 22,3 42,7 63,11l216 -173c70,-56 166,-60 241,-11 36,23 68,46 98,68 33,25 63,50 93,76 68,59 90,152 55,235l-106 257c10,20 19,40 28,61 8,19 16,39 22,58l257 101c84,33 136,114 131,203 -2,43 -6,83 -10,120 -5,39 -12,78 -19,118 -18,88 -88,154 -176,165l-276 37c-12,18 -25,36 -39,54 -12,17 -26,33 -40,49zm-647 -1072c138,0 263,56 354,146 90,91 146,216 146,354 0,138 -56,263 -146,354 -91,90 -216,146 -354,146 -138,0 -263,-56 -354,-146 -90,-91 -146,-216 -146,-354 0,-138 56,-263 146,-354 91,-90 216,-146 354,-146zm212 288c-54,-54 -129,-88 -212,-88 -83,0 -158,34 -212,88 -54,54 -88,129 -88,212 0,83 34,158 88,212 54,54 129,88 212,88 83,0 158,-34 212,-88 54,-54 88,-129 88,-212 0,-83 -34,-158 -88,-212z"/>
	<path id="curve28" fill="#000000" d="M3179 2459c19,14 36,28 53,42 16,14 33,29 50,44l328 -89c95,-26 194,12 248,93 28,42 53,81 75,120 22,39 44,80 65,124 43,90 25,193 -46,262l-244 236c5,23 9,45 13,67 4,22 7,44 9,67l309 142c89,41 141,134 130,231 0,0 -18,128 -20,139 -9,49 -19,95 -30,138 -24,95 -105,163 -204,170l-339 25c-10,19 -21,38 -32,58 -12,20 -24,39 -36,57l145 307c42,90 22,194 -49,262 -36,34 -71,65 -105,93 -34,28 -71,57 -112,86 -79,57 -186,57 -266,0l1 0 -276 -199c-21,8 -42,16 -63,24 -18,6 -39,13 -62,20l-87 328c-25,96 -107,163 -206,169 -46,3 -92,4 -140,4 -50,-1 -96,-2 -141,-6 -98,-7 -180,-76 -204,-171l-83 -330c-20,-7 -41,-14 -61,-21 -22,-9 -43,-17 -61,-25l-278 196c-80,57 -187,56 -265,-2 -37,-27 -74,-57 -111,-89 -38,-31 -72,-63 -105,-95 -71,-69 -89,-172 -46,-261l149 -307c-12,-18 -23,-37 -34,-55 -11,-19 -21,-38 -31,-57l-339 -28c-98,-9 -178,-78 -201,-173 -12,-48 -22,-94 -29,-140 -8,-44 -14,-91 -19,-140 -9,-98 44,-189 134,-229l310 -139c2,-20 6,-41 10,-64 4,-22 8,-43 13,-64l-242 -240c-70,-70 -87,-173 -44,-262 21,-42 44,-83 68,-125 24,-41 49,-81 75,-119 56,-81 155,-118 250,-91l327 93c15,-14 32,-28 50,-43 17,-14 34,-28 51,-41l-31 -339c-9,-98 44,-189 134,-228 42,-19 85,-36 132,-53 45,-16 90,-30 134,-43 48,-13 96,-11 139,5 44,16 83,46 110,86l191 282c21,-1 43,-2 66,-1 24,0 46,0 67,1l194 -280c57,-81 156,-116 250,-88 48,14 93,28 134,44 44,16 87,34 131,53 89,41 142,133 132,231l-35 338zm-76 194c-21,-17 -41,-33 -59,-47 -47,-35 -71,-90 -65,-148l37 -358c1,-13 -4,-22 -16,-28 -40,-17 -78,-33 -118,-48 -41,-15 -81,-28 -120,-40 -13,-3 -23,1 -31,11l-206 297c-32,47 -87,73 -144,70 -27,-2 -53,-3 -75,-3 -24,0 -49,0 -76,2 -58,3 -111,-24 -143,-72l-202 -298c-8,-10 -19,-14 -31,-11 -44,13 -84,25 -121,39 -37,13 -76,29 -118,47 -12,6 -18,15 -17,28l33 360c5,58 -19,112 -66,146 -21,16 -41,31 -58,45 -18,15 -36,31 -55,50 -43,39 -101,54 -157,38l-346 -99c-13,-3 -23,0 -31,11 -25,38 -48,73 -68,108 -21,35 -41,72 -61,112 -5,12 -3,23 6,32l256 254c41,41 57,98 43,155 -6,25 -11,49 -15,72 -4,21 -7,45 -11,73 -7,58 -42,106 -95,130l-329 147c-12,5 -17,16 -16,28 4,42 9,84 17,127 7,42 15,83 25,125 3,12 12,19 25,20l359 30c58,5 108,39 133,91 11,22 23,44 35,65 12,22 25,43 38,63 32,49 36,108 10,160l-157 325c-6,11 -4,23 6,32 32,32 63,60 94,86 29,25 63,51 100,79 10,8 21,8 32,0l294 -207c47,-34 108,-40 160,-16 26,11 49,20 69,28 24,9 47,16 70,24 56,16 97,60 111,116l88 350c3,12 11,19 25,20 46,3 88,5 127,6 40,0 82,-1 128,-4 12,-1 21,-8 24,-21l92 -347c15,-56 57,-100 113,-116l0 1c21,-6 45,-14 71,-24 24,-8 47,-17 70,-27 53,-23 112,-16 159,18l293 211c10,8 21,8 32,0 33,-24 66,-49 100,-78 33,-27 65,-55 95,-84 10,-9 12,-20 6,-31l-153 -326c-25,-53 -20,-112 12,-160 15,-22 28,-43 41,-65 12,-20 24,-42 36,-66 26,-51 76,-85 134,-89l359 -26c13,-1 21,-8 24,-20 12,-46 21,-86 28,-124 6,-32 18,-95 18,-126 1,-13 -4,-22 -16,-28l-327 -151c-52,-24 -88,-73 -94,-131 -2,-25 -6,-50 -10,-75 -4,-25 -9,-50 -15,-75 -13,-56 4,-113 45,-153l259 -251c9,-9 11,-21 5,-32 -18,-38 -37,-75 -59,-112 -22,-38 -44,-74 -66,-108 -8,-11 -18,-14 -31,-11l-347 95c-57,15 -114,0 -156,-40 -18,-17 -37,-34 -56,-51zm-803 247c387,0 700,313 700,700 0,387 -313,700 -700,700 -387,0 -700,-313 -700,-700 0,-387 313,-700 700,-700zm0 200c-276,0 -500,224 -500,500 0,276 224,500 500,500 276,0 500,-224 500,-500 0,-276 -224,-500 -500,-500z"/>
</svg>