<?xml version="1.0" encoding="UTF-8"?>
<!DOCTYPE svg PUBLIC "-//W3C//DTD SVG 1.1//EN" "http://www.w3.org/Graphics/SVG/1.1/DTD/svg11.dtd">
<svg xmlns="http://www.w3.org/2000/svg" xml:space="preserve" width="580px" height="580px" shape-rendering="geometricPrecision" text-rendering="geometricPrecision" image-rendering="optimizeQuality" fill-rule="nonzero" clip-rule="nonzero" viewBox="0 0 5800 5800" xmlns:xlink="http://www.w3.org/1999/xlink">
	<title>paper_jet2 icon</title>
	<desc>paper_jet2 icon from the IconExperience.com I-Collection. Copyright by INCORS GmbH (www.incors.com).</desc>
	<path id="curve0" fill="#333333" d="M1605 2991l2878 -1119 -3255 325 -605 303 982 491zm642 1161l287 -251 192 96 -657 575c-54,52 -144,27 -165,-45l-388 -1358 -1161 -580c-74,-37 -72,-142 0,-178l800 -400c12,-6 23,-9 35,-10l3995 -400c78,-11 138,68 106,139l-798 1997c-11,26 -30,45 -54,55l-794 397c-30,15 -62,14 -90,0l-1103 -551 -205 514zm2745 -2199l-2391 1536 999 500 721 -361 671 -1675zm-2686 1513c7,-20 21,-38 40,-50l1966 -1264 -2591 1008 295 1032 290 -726z"/>
</svg>