<?xml version="1.0" encoding="UTF-8"?>
<!DOCTYPE svg PUBLIC "-//W3C//DTD SVG 1.1//EN" "http://www.w3.org/Graphics/SVG/1.1/DTD/svg11.dtd">
<svg xmlns="http://www.w3.org/2000/svg" xml:space="preserve" width="580px" height="580px" shape-rendering="geometricPrecision" text-rendering="geometricPrecision" image-rendering="optimizeQuality" fill-rule="nonzero" clip-rule="nonzero" viewBox="0 0 5800 5800" xmlns:xlink="http://www.w3.org/1999/xlink">
	<title>pencil icon</title>
	<desc>pencil icon from the IconExperience.com I-Collection. Copyright by INCORS GmbH (www.incors.com).</desc>
		<path id="curve28" fill="#000000" d="M4670 565l565 565c156,156 156,410 0,566l-3143 3144 -800 290 -147 54 -429 156c-73,27 -154,9 -209,-47 -56,-55 -74,-135 -47,-209l156 -429 54 -147 290 -800 3144 -3143c155,-156 411,-156 566,0zm-3845 4099l311 311 719 -261 -769 -769 -261 719zm3090 -2207l-1744 1744 -142 -142 1744 -1744 142 142zm-306 -1115l849 849 636 -637c78,-78 78,-204 0,-282l-566 -566c-77,-77 -205,-77 -282,0l-637 636zm707 990l-848 -848 -2280 2280 848 848 2280 -2280z"/>
</svg>