<?xml version="1.0" encoding="utf-8"?>
<!-- Generator: Adobe Illustrator 12.0.1, SVG Export Plug-In . SVG Version: 6.00 Build 51448)  -->
<!DOCTYPE svg PUBLIC "-//W3C//DTD SVG 1.1//EN" "http://www.w3.org/Graphics/SVG/1.1/DTD/svg11.dtd" [
	<!ENTITY ns_svg "http://www.w3.org/2000/svg">
	<!ENTITY ns_xlink "http://www.w3.org/1999/xlink">
]>
<svg  version="1.1" id="Ebene_1" xmlns="&ns_svg;" xmlns:xlink="&ns_xlink;" width="520.5" height="601.535"
	 viewBox="0 0 520.5 601.535" overflow="visible" enable-background="new 0 0 520.5 601.535" xml:space="preserve">
<path id="curve28" d="M45.187,49.734h102.407l-17.779,18.995h-66.85L45.187,49.734z M167.507,108.999v92.697H25.274v-92.697
	l17.779,18.996v54.707h106.675v-54.707L167.507,108.999z M40.476,71.483l55.915,59.835L214.532,5l12.623,13.487L96.391,158.102
	L27.853,84.97L40.476,71.483z"/>
<path id="curve28_2_" d="M45.187,241.572h102.407l-17.779,18.995h-66.85L45.187,241.572z M167.507,300.837v92.697H25.274v-92.697
	l17.779,18.995v54.707h106.675v-54.707L167.507,300.837z M40.476,263.322l55.915,59.835l118.142-126.319l12.623,13.486
	L96.391,349.939l-68.538-73.131L40.476,263.322z"/>
<path id="curve28_3_" d="M45.631,434.305h102.408L130.26,453.3H63.411L45.631,434.305z M167.951,493.57v92.696H25.719V493.57
	l17.779,18.995v54.706h106.674v-54.707L167.951,493.57z M40.92,456.055l55.915,59.835L214.977,389.57l12.624,13.485L96.835,542.672
	L28.296,469.54L40.92,456.055z"/>
<rect x="211.75" y="89.268" fill="none" stroke="#000000" stroke-width="10.4038" width="289" height="83"/>
<text transform="matrix(1 0 0 1 223.75 160.2676)" font-family="'Myriad-Roman'" font-size="88">ABC</text>
<rect x="212.25" y="274.268" fill="none" stroke="#000000" stroke-width="10.4038" width="289" height="83"/>
<text transform="matrix(1 0 0 1 221.6567 345.2676)" font-family="'Myriad-Roman'" font-size="88">ABC</text>
<rect x="211.75" y="474.268" fill="none" stroke="#000000" stroke-width="10.4038" width="289" height="83"/>
<text transform="matrix(1 0 0 1 221.75 544.2676)" font-family="'Myriad-Roman'" font-size="88">ABC</text>
</svg>
