<?xml version="1.0" encoding="UTF-8"?>
<!DOCTYPE svg PUBLIC "-//W3C//DTD SVG 1.1//EN" "http://www.w3.org/Graphics/SVG/1.1/DTD/svg11.dtd">
<svg xmlns="http://www.w3.org/2000/svg" xml:space="preserve" width="580px" height="580px" shape-rendering="geometricPrecision" text-rendering="geometricPrecision" image-rendering="optimizeQuality" fill-rule="nonzero" clip-rule="nonzero" viewBox="0 0 5800 5800" xmlns:xlink="http://www.w3.org/1999/xlink">
	<title>phone_receiver2 icon</title>
	<desc>phone_receiver2 icon from the IconExperience.com I-Collection. Copyright by INCORS GmbH (www.incors.com).</desc>
		<path id="curve28" fill="#000000" d="M2172 3745l-104 -133c-27,-35 -147,-122 -187,-79l-742 648c-57,50 -46,124 -3,180l113 144c95,122 243,236 404,310 141,66 289,100 412,77 68,-12 133,-37 190,-74 480,-305 983,-787 1416,-1329 433,-543 796,-1145 995,-1690 24,-67 35,-139 34,-210 -2,-132 -62,-278 -152,-410 -101,-149 -237,-278 -371,-351l-159 -87c-60,-32 -126,-28 -161,36l-475 876c-10,19 -5,45 8,72 22,47 64,89 103,111l147 80c151,83 253,259 216,432 -60,282 -236,603 -459,882 -228,286 -507,531 -763,651 -80,37 -168,38 -250,13 -81,-25 -157,-78 -212,-149zm157 -122c48,62 143,113 221,76 228,-106 481,-330 691,-593 205,-257 366,-548 420,-799 18,-87 -43,-176 -117,-216l-146 -80c-73,-40 -148,-116 -188,-200 -39,-80 -48,-170 -4,-252l476 -877c88,-162 273,-202 431,-116l159 87c161,88 322,240 441,414 110,162 184,346 187,519 1,96 -14,191 -47,281 -206,566 -580,1188 -1026,1746 -446,558 -966,1056 -1465,1373 -79,51 -168,85 -261,102 -166,31 -356,-10 -532,-91 -188,-88 -363,-223 -477,-370l-113 -143c-109,-141 -109,-332 29,-453 63,-55 752,-658 753,-657 141,-111 345,-21 450,99 41,46 80,101 118,150z"/>
</svg>