<?xml version="1.0" encoding="UTF-8"?>
<!DOCTYPE svg PUBLIC "-//W3C//DTD SVG 1.1//EN" "http://www.w3.org/Graphics/SVG/1.1/DTD/svg11.dtd">
<svg xmlns="http://www.w3.org/2000/svg" xml:space="preserve" width="580px" height="580px" shape-rendering="geometricPrecision" text-rendering="geometricPrecision" image-rendering="optimizeQuality" fill-rule="nonzero" clip-rule="nonzero" viewBox="0 0 5800 5800" xmlns:xlink="http://www.w3.org/1999/xlink">
	<title>portable_barcode_scanner icon</title>
	<desc>portable_barcode_scanner icon from the IconExperience.com I-Collection. Copyright by INCORS GmbH (www.incors.com).</desc>
	<path id="curve0" fill="#333333" d="M2700 2100l0 1200 -1800 0 0 -1200 1800 0zm-2100 -1800l4600 0c165,0 300,135 300,300l0 3400c0,165 -135,300 -300,300l-2000 0 0 -200 2000 0c55,0 100,-45 100,-100l0 -3400c0,-55 -45,-100 -100,-100l-4600 0c-55,0 -100,45 -100,100l0 813c-79,20 -148,63 -200,122l0 -935c0,-165 135,-300 300,-300zm3900 3600l0 -3200c133,0 267,0 400,0l0 3200c-133,0 -267,0 -400,0zm-200 -3200l0 3200 -200 0 0 -3200 200 0zm-600 0l0 3200 -200 0 0 -3200 200 0zm-400 0l0 835c-52,-59 -121,-102 -200,-122l0 -713 200 0zm0 3065l0 135 -100 0 0 -34 80 -80c7,-7 14,-14 20,-21zm-400 -3065l0 700 -400 0 0 -700 400 0zm-600 0l0 700 -200 0 0 -700 200 0zm-600 0l0 700 -400 0 0 -700 400 0zm-600 0l0 700 -200 0 0 -700 200 0zm1800 3042l0 1458c0,165 -135,300 -300,300l-1600 0c-165,0 -300,-135 -300,-300l0 -1458 -200 -201 0 -1841 2600 0 0 1841 -200 201zm-200 -84l200 -199 0 -1559 -2200 0 0 1559 200 199 0 1542c0,55 45,100 100,100l1600 0c55,0 100,-45 100,-100l0 -1542zm-200 42l0 1400 -1400 0 0 -1400 1400 0zm-200 200l-200 0 0 200 200 0 0 -200zm-400 0l-200 0 0 200 200 0 0 -200zm-400 0l-200 0 0 200 200 0 0 -200zm-200 400l0 200 200 0 0 -200 -200 0zm0 400l0 200 200 0 0 -200 -200 0zm400 200l200 0 0 -200 -200 0 0 200zm400 0l200 0 0 -200 -200 0 0 200zm200 -400l0 -200 -200 0 0 200 200 0zm-400 -200l-200 0 0 200 200 0 0 -200zm600 -2000l-1400 0 0 800 1400 0 0 -800z"/>
</svg>