<?xml version="1.0" encoding="utf-8"?>
<!-- Generator: Adobe Illustrator 12.0.1, SVG Export Plug-In . SVG Version: 6.00 Build 51448)  -->
<!DOCTYPE svg PUBLIC "-//W3C//DTD SVG 1.1//EN" "http://www.w3.org/Graphics/SVG/1.1/DTD/svg11.dtd" [
	<!ENTITY ns_svg "http://www.w3.org/2000/svg">
	<!ENTITY ns_xlink "http://www.w3.org/1999/xlink">
]>
<svg  version="1.1" id="Ebene_1" xmlns="&ns_svg;" xmlns:xlink="&ns_xlink;" width="559.682" height="346.9"
	 viewBox="0 0 559.682 346.9" overflow="visible" enable-background="new 0 0 559.682 346.9" xml:space="preserve">
<path id="curve29" d="M419.9,0v182.6c-6.5-0.6-13.101-1.1-20-1.5v-128L274.5,155.7l37,26c-10.6,0.8-20.8,1.8-30.4,3l-22.6-15.9
	l-27.3,22.3c-12.4,10.1-29.9,10.1-42.3,0l-27.3-22.3L32,260h148.1v20H0V0H419.9z M20,244l125.6-88.3L20,53V244z M20.1,20v5.1
	c0,1.6,0.6,2.6,1.8,3.6l179.6,146.9c5.1,4.2,12,4.2,17.1,0L398.2,28.7c0.899-0.7,1.5-1.5,1.7-2.6V20H20.1z"/>
<path id="curve28" d="M449.214,268.829c3.556-0.131,6.573,2.639,6.802,6.236c0.137,3.601-2.591,6.575-6.146,6.703l-141.896,5.135
	c-3.557,0.128-6.574-2.639-6.803-6.236c-0.137-3.604,2.59-6.577,6.146-6.706L449.214,268.829z M352.944,298.149
	c-3.565,26.104-25.711,46.123-52.107,47.125l-44.047,1.593c-30.323,1.051-56.623-23.061-58.156-53.316l-0.927-18.319
	c-1.534-30.256,22.231-56.178,52.55-57.321l44.046-1.594c26.402-0.909,50.491,17.441,56.683,43.192l-13.18,0.431
	c-5.641-18.468-23.515-31.38-42.847-30.682l-44.046,1.594c-23.211,0.795-41.479,20.721-40.301,43.959l0.924,18.226
	c1.176,23.242,21.393,41.774,44.599,40.889l44.044-1.591c19.333-0.7,35.839-14.856,39.59-33.662L352.944,298.149z M558.691,262.222
	l0.924,18.227c1.49,30.304-22.275,56.225-52.552,57.321l-44.045,1.593c-26.446,0.956-50.491-17.439-56.728-43.143l13.224-0.479
	c5.646,18.561,23.473,31.427,42.854,30.771l43.998-1.639c23.254-0.84,41.521-20.764,40.299-43.957l-0.924-18.227
	c-1.129-23.194-21.345-41.729-44.599-40.888l-44.002,1.546c-19.377,0.746-35.838,14.854-39.584,33.752l-13.224,0.478
	c3.612-26.059,25.71-46.123,52.157-47.079l44.044-1.595C530.81,207.81,557.11,231.92,558.691,262.222z"/>
</svg>
