<?xml version="1.0" encoding="utf-8"?>
<svg
   id="svg11"
   version="1.1"
   viewBox="0 0 5800 5800"
   clip-rule="evenodd"
   fill-rule="nonzero"
   image-rendering="optimizeQuality"
   text-rendering="geometricPrecision"
   shape-rendering="geometricPrecision"
   height="580px"
   width="580px"
   xml:space="preserve"
   xmlns="http://www.w3.org/2000/svg"
   xmlns:svg="http://www.w3.org/2000/svg"><defs
   id="defs2475" />


<path
   d="m 1465.2317,4601.566 c -254.0992,-60.1101 -439.3093,-136.586 -439.3093,-228.3571 0,-117.2835 25.9746,-240.6952 75.6651,-354.9196 46.2912,-105.0168 114.051,-202.8652 202.1387,-279.3411 70.0185,-61.1807 201.032,-105.0575 307.1777,-139.7062 63.2538,-20.3936 125.3669,-38.7376 189.7274,-56.0823 117.4503,-32.6195 217.9607,-59.1312 354.6096,-135.6071 121.9676,-63.2303 185.2214,-179.4941 217.9606,-304.8738 28.2333,-110.1253 32.7506,-227.3884 36.1386,-317.1201 0,-29.5809 -12.4226,-56.0824 -33.8799,-74.4468 -60.9951,-55.0627 -121.9676,-141.7354 -176.1755,-237.5852 -67.7598,-122.3615 -123.0969,-254.9197 -152.4595,-353.8286 -9.0459,-30.5903 -32.7618,-54.0429 -63.2537,-66.2791 -59.8545,-27.5211 -100.4991,-76.4759 -124.2263,-132.5583 -28.2333,-67.2886 -31.6213,-144.7842 -9.0347,-213.1026 3.3767,-11.2165 5.6467,-22.433 4.5174,-34.6691 l -40.6672,-556.7447 c -6.776,-82.6042 14.6813,-164.17851 56.4665,-240.65442 47.4318,-86.67271 119.7089,-166.20766 207.7967,-227.3884 84.6997,-58.1217 181.8221,-97.87898 280.0738,-106.03641 70.0297,-6.12827 142.2955,4.06852 210.0553,34.65889 36.1385,16.31486 77.9238,12.23615 110.7308,-6.10788 98.2517,-57.10202 160.3648,-88.71206 277.8151,-106.0466 246.1826,-35.68876 512.7157,11.22666 715.9951,143.78492 144.5429,94.83014 250.6886,231.45691 281.158,400.7338 6.8211,37.7281 10.1752,75.4562 9.0685,115.2237 l -39.5266,548.5873 c -1.1632,14.2755 1.1519,27.5313 5.6467,39.7674 20.3392,67.2887 16.9399,142.7551 -10.1414,208.0043 -24.8453,58.1217 -66.6418,107.0663 -127.6143,134.5977 -30.4919,13.2558 -50.8198,37.7281 -59.877,64.2397 -29.3739,99.9388 -84.6998,231.4773 -153.6002,352.8191 -54.2078,96.8695 -115.1916,184.5619 -175.0461,237.5852 -22.5866,20.3936 -33.8799,46.9052 -33.8799,72.3972 0,87.6924 6.776,206.9948 37.2679,320.169 7.047,26.2771 15.4944,52.1464 25.4551,77.1999 63.6603,-38.1972 130.5279,-72.591 200.1963,-102.8448 -2.3039,-7.3315 -4.4948,-14.7548 -6.5614,-22.3106 -21.4573,-76.4759 -28.2333,-162.129 -30.4919,-232.4868 66.6191,-69.3382 129.8729,-160.0896 185.1988,-256.9591 65.5011,-118.2827 121.9676,-245.7426 156.9316,-351.7892 91.5209,-53.0335 154.7182,-131.5386 191.9861,-220.2506 42.9484,-101.9679 49.7018,-219.231 20.3618,-323.2383 l 38.3633,-532.2723 c 3.388,-48.9446 -3.3879,-112.1647 -11.2933,-161.10931 C 4134.9108,749.2293 3996.0033,568.74613 3805.1804,444.34531 3555.5647,280.1872 3224.7162,220.01595 2920.8813,263.86214 c -123.0856,18.36442 -207.7854,48.95479 -313.9537,107.06629 -88.0877,-29.56049 -179.5747,-38.7478 -268.7805,-30.59037 -142.3068,12.23615 -280.0738,66.27913 -396.406,146.83376 -114.051,78.51528 -211.1734,183.5422 -273.2865,299.7856 -58.7252,108.07577 -89.2171,226.35848 -79.0531,343.62158 l 39.5265,539.4101 c -29.3739,105.027 -23.7272,221.2704 19.1873,323.2383 37.2792,88.7222 101.6397,167.2273 193.1267,220.2506 34.9979,105.0269 90.3464,233.5065 156.9656,351.7892 54.2191,96.8695 117.4616,187.6311 184.092,255.9496 -2.2699,72.3972 -9.0459,158.0503 -29.3739,234.5262 -19.1986,77.4752 -53.0785,144.7536 -111.7923,175.344 -115.1916,65.2288 -202.15,88.6916 -304.9191,116.2128 -68.9004,19.3739 -135.5195,38.758 -203.2793,61.1807 -125.3556,41.8578 -282.3325,92.8418 -386.2308,184.6129 -110.6743,96.8695 -196.5034,219.2309 -254.09921,350.7185 -60.98381,138.7273 -92.60505,287.5597 -92.60505,429.3358 0,207.9635 256.35786,341.5924 608.70876,425.1551 444.7414,104.3336 1057.7416,139.3086 1440.0649,141.6232 -32.5812,-65.9222 -59.7303,-134.3529 -80.8713,-204.9146 -371.7867,-6.3424 -910.7367,-42.0108 -1302.6706,-133.4454 z"
   id="path2468"
   style="stroke-width:10.731" /><path
   d="m 3943.8621,4528.2205 146.3499,132.7418 -65.7157,59.6206 -145.8756,-132.3339 c -140.2966,114.1428 -325.8003,183.481 -529.0006,183.481 -437.6492,0 -792.3265,-321.7189 -792.3265,-718.6697 0,-396.9508 354.6773,-718.6595 792.3265,-718.6595 437.6491,0 792.3265,321.7087 792.3265,718.6595 0,182.1962 -74.581,348.3325 -198.0845,475.1602 z m -594.242,-1109.2781 c -385.9146,0 -699.1229,284.0825 -699.1229,634.1179 0,350.0354 313.2083,634.1179 699.1229,634.1179 385.9146,0 699.1116,-284.0825 699.1116,-634.1179 0,-350.0354 -313.197,-634.1179 -699.1116,-634.1179 z m 925.1582,1184.1021 725.2218,657.8051 -318.7986,289.1503 -725.2217,-657.7948 z m 0,119.6389 -186.8928,169.5217 593.316,538.574 187.3672,-169.9397 z"
   id="path2470"
   style="stroke-width:10.731" />
</svg>
