<?xml version="1.0" encoding="UTF-8"?>
<!DOCTYPE svg PUBLIC "-//W3C//DTD SVG 1.1//EN" "http://www.w3.org/Graphics/SVG/1.1/DTD/svg11.dtd">
<svg xmlns="http://www.w3.org/2000/svg" xml:space="preserve" width="580px" height="580px" shape-rendering="geometricPrecision" text-rendering="geometricPrecision" image-rendering="optimizeQuality" fill-rule="nonzero" clip-rule="nonzero" viewBox="0 0 5800 5800" xmlns:xlink="http://www.w3.org/1999/xlink">
	<title>robot icon</title>
	<desc>robot icon from the IconExperience.com I-Collection. Copyright by INCORS GmbH (www.incors.com).</desc>
		<path id="curve28" fill="#000000" d="M3300 5000l300 0 0 -1100 -300 0 0 1100zm-700 300l0 -100c-167,0 -333,0 -500,0l0 100 500 0zm-100 -300l0 -1100 -300 0 0 1100 300 0zm300 200l0 300 -900 0 0 -300c0,-73 39,-137 100,-173l0 -1203c-63,-57 -100,-138 -100,-224l0 -1100 -100 0 0 1400 -77 0c48,53 77,123 77,200l0 200 -200 0 0 -200c0,-55 -45,-100 -100,-100l-100 0c-55,0 -100,45 -100,100l0 200 -200 0 0 -200c0,-77 29,-147 77,-200l-77 0 0 -1500c0,-165 135,-300 300,-300l400 0 0 200 100 0 0 -100c0,-165 135,-300 300,-300l500 0 0 -100 -400 0c-110,0 -200,-90 -200,-200l0 -300 -200 0 0 -600 200 0 0 -200c0,-110 90,-200 200,-200l1200 0c110,0 200,90 200,200l0 200 200 0 0 600 -200 0 0 300c0,110 -90,200 -200,200l-400 0 0 100 500 0c165,0 300,135 300,300l0 100 100 0 0 -200 400 0c165,0 300,135 300,300l0 1500 -77 0c48,53 77,123 77,200l0 200 -200 0 0 -200c0,-55 -45,-100 -100,-100l-100 0c-55,0 -100,45 -100,100l0 200 -200 0 0 -200c0,-77 29,-147 77,-200l-77 0 0 -1400 -100 0 0 1100c0,86 -37,166 -100,223l0 1204c61,36 100,101 100,173l0 300 -900 0 0 -300c0,-72 39,-137 100,-173l0 -1127 -400 0 0 1127c61,36 100,101 100,173zm400 0l0 100 500 0 0 -100c-167,0 -333,0 -500,0zm300 -4700l-1200 0 0 400 -200 0 0 200 200 0 0 500 1200 0c0,-167 0,-333 0,-500l200 0 0 -200 -200 0 0 -400zm100 1600l-1400 0c-55,0 -100,45 -100,100l0 1400c0,55 45,100 100,100l1400 0c55,0 100,-45 100,-100l0 -1400c0,-55 -45,-100 -100,-100zm-993 -1401c110,0 200,89 200,200 0,110 -90,200 -200,200 -111,0 -200,-90 -200,-200 0,-111 89,-200 200,-200zm600 0c110,0 200,89 200,200 0,110 -90,200 -200,200 -111,0 -200,-90 -200,-200 0,-111 89,-200 200,-200zm-1607 1601l-200 0c-55,0 -100,45 -100,100l0 1300 300 0 0 -1400zm2800 0l-200 0 0 1400 300 0 0 -1300c0,-55 -45,-100 -100,-100z"/>
</svg>