<?xml version="1.0" encoding="UTF-8"?>
<!DOCTYPE svg PUBLIC "-//W3C//DTD SVG 1.1//EN" "http://www.w3.org/Graphics/SVG/1.1/DTD/svg11.dtd">
<svg xmlns="http://www.w3.org/2000/svg" xml:space="preserve" width="580px" height="580px" shape-rendering="geometricPrecision" text-rendering="geometricPrecision" image-rendering="optimizeQuality" fill-rule="nonzero" clip-rule="nonzero" viewBox="0 0 5800 5800" xmlns:xlink="http://www.w3.org/1999/xlink">
	<title>rotate_left icon</title>
	<desc>rotate_left icon from the IconExperience.com I-Collection. Copyright by INCORS GmbH (www.incors.com).</desc>
		<path id="curve28" fill="#000000" d="M1795 2543l-771 770 -770 -770 141 -142 505 505c-2,-1107 892,-2006 2000,-2006 1105,0 2000,895 2000,2000 0,1105 -895,2000 -2000,2000l0 -200c994,0 1800,-806 1800,-1800 0,-994 -806,-1800 -1800,-1800 -994,0 -1800,806 -1800,1800 0,18 0,36 1,54l553 -553 141 142z"/>
</svg>