<?xml version="1.0" encoding="UTF-8"?>
<!DOCTYPE svg PUBLIC "-//W3C//DTD SVG 1.1//EN" "http://www.w3.org/Graphics/SVG/1.1/DTD/svg11.dtd">
<svg xmlns="http://www.w3.org/2000/svg" xml:space="preserve" width="580px" height="580px" shape-rendering="geometricPrecision" text-rendering="geometricPrecision" image-rendering="optimizeQuality" fill-rule="nonzero" clip-rule="nonzero" viewBox="0 0 5800 5800" xmlns:xlink="http://www.w3.org/1999/xlink">
	<title>server_cloud icon</title>
	<desc>server_cloud icon from the IconExperience.com I-Collection. Copyright by INCORS GmbH (www.incors.com).</desc>
		<path id="curve29" fill="#000000" d="M3300 3500l1343 0c378,0 657,-327 657,-695 0,-339 -142,-537 -450,-670l-78 -34 20 -82c77,-306 36,-636 -213,-851 -228,-196 -545,-219 -819,-112l-73 28 -45 -64c-114,-165 -236,-297 -376,-385 -138,-87 -297,-135 -490,-135 -35,0 -69,1 -102,4 -272,24 -496,144 -653,327 -110,128 -187,288 -223,469l-204 0c40,-230 135,-435 275,-599 190,-222 462,-367 787,-396 40,-3 79,-5 120,-5 233,0 427,59 596,166 147,93 273,221 390,378 326,-103 685,-53 947,173 284,244 363,612 295,970 340,171 496,436 496,818 0,478 -369,895 -857,895l-1343 0 0 -200z"/>
	<path id="curve28" fill="#000000" d="M300 5500l0 -3700c0,-165 135,-300 300,-300l2200 0c165,0 300,135 300,300l0 3700 -2800 0zm1600 -3600l800 0 0 400 -800 0 0 -400zm-1200 3000l0 -600 2000 0 0 600 -200 0 0 -400 -1600 0 0 400 -200 0zm0 -800l0 -600 2000 0 0 600 -200 0 0 -400 -1600 0 0 400 -200 0zm0 -800l0 -600 2000 0 0 600 -200 0 0 -400 -1600 0 0 400 -200 0zm-200 2000l2400 0 0 -3500c0,-55 -45,-100 -100,-100l-2200 0c-55,0 -100,45 -100,100l0 3500z"/>
</svg>