<?xml version="1.0" encoding="utf-8"?>
<!-- Generator: Adobe Illustrator 12.0.1, SVG Export Plug-In . SVG Version: 6.00 Build 51448)  -->
<!DOCTYPE svg PUBLIC "-//W3C//DTD SVG 1.1//EN" "http://www.w3.org/Graphics/SVG/1.1/DTD/svg11.dtd" [
	<!ENTITY ns_svg "http://www.w3.org/2000/svg">
	<!ENTITY ns_xlink "http://www.w3.org/1999/xlink">
]>
<svg  version="1.1" id="Ebene_1" xmlns="&ns_svg;" xmlns:xlink="&ns_xlink;" width="520" height="488.318"
	 viewBox="0 0 520 488.318" overflow="visible" enable-background="new 0 0 520 488.318" xml:space="preserve">
<path id="curve30" d="M343.6,3.718c7.601-2.2,15.4-2.8,23.101-2c6.2,0.6,12.3,2.2,18.3,4.7c6-2.5,12.1-4.1,18.3-4.7
	c7.7-0.8,15.5-0.2,23.101,2c13.199,3.7,24.699,12.8,32.5,24.3c7.899,11.6,12.3,25.8,11,39.4c-1,11.1-0.801,39,3.6,64.7
	c2.7,15.9,6.9,30.6,13.2,38.9l4.3,5.7l-4,5.9c-7.9,11.7-19.5,17.5-31.8,20.3c-2.9,0.6-15.8,2-15,2.5c6.8,4.1,12.2,5.7,18.5,7.6
	c4.399,1.3,8.7,2.7,13,4.2c8.2,3,18.399,6.6,25.399,13.3c7.4,7,13,15.8,16.801,25.2c4.1,9.8,6.1,20.5,6.1,30.699
	c0,16-17.1,26-40.7,32.101c-29.3,7.5-70.2,9.8-94.3,9.8c-11.2,0-26-0.5-41.6-1.8c2.3-5.601,3.899-11.2,5.399-16.8
	c0.9-0.801,1.8-1.7,2.601-2.601c12.6,0.8,24.399,1.2,33.6,1.2c23,0,61.9-2.2,89.4-9.2c14.8-3.8,25.6-8.2,25.6-12.7
	c0-7.699-1.5-15.8-4.6-23.199c-2.801-6.9-6.801-13.301-12-18.301c-4-3.8-12-6.6-18.4-8.899c-4-1.5-7.9-2.7-11.9-3.9
	c-7.6-2.2-14.1-4.1-23-9.5c-0.699,1.4-10.899-8.6-12-10.1c-3.1-4.3-4.8-9.3-5.5-16l-1.3-11.1h11.2c8.9,0,19.3,0,28.3-2
	c5.8-1.3,11.3-3.5,15.601-7.3c-6-10.9-10-25.5-12.601-40.8c-4.6-27.3-4.899-57.5-3.7-69.7c0.801-8.8-2.199-18.3-7.699-26.3
	c-5.301-7.9-12.9-14-21.4-16.4c-5.2-1.5-10.4-1.9-15.6-1.4c-5.4,0.6-10.801,2.2-16,4.8l-4.4,2.1l-4.4-2.1
	c-5.199-2.6-10.6-4.2-16-4.8c-5.1-0.5-10.399-0.1-15.6,1.4c-8.5,2.4-16.1,8.5-21.4,16.4c-5.5,8-8.5,17.5-7.699,26.3
	c1.199,12.2,0.899,42.4-3.7,69.7c-0.2,1.5-0.5,3-0.8,4.5c-6-2.8-12.4-5.1-19-6.9l0.1-0.8c4.4-25.7,4.6-53.6,3.6-64.7
	c-1.3-13.6,3.101-27.8,11-39.4C318.9,16.519,330.4,7.418,343.6,3.718z"/>
<path id="curve29" d="M72.4,100.618c0,0.3-0.4,3.5-0.4,3.5c-1.2,4-1,8.6,0.5,12.6c1.3,3.3,3.5,6.1,6.6,7.6c2.9,1.4,4.8,4,5.5,6.9
	c1.8,6.5,5.2,15.1,9.3,23.1c3.3,6.4,7,12.1,10.6,15.6c2,1.9,3,4.5,3,7.1c1.2,0-1.9,20.9-2.6,23.3c-2.4,9.2-6.9,17.7-15,22.3
	c-8.7,4.7-13.6,6.8-23,9.5c-4,1.2-7.9,2.5-11.9,3.9c-6.4,2.3-14.4,5.1-18.4,8.899c-5.2,5-9.2,11.301-12,18.2
	c-3.1,7.5-4.6,15.601-4.6,23.3c0,4.5,10.8,8.9,25.6,12.7c27.5,7,66.4,9.2,89.4,9.2c9.2,0,21-0.4,33.6-1.2c0.8,0.9,1.7,1.8,2.6,2.601
	c1.5,5.6,3.2,11.199,5.5,16.8c-15.7,1.3-30.5,1.8-41.7,1.8c-24.1,0-65-2.3-94.3-9.8C17.1,312.418,0,302.418,0,286.418
	c0-10.199,2-20.899,6.1-30.8c3.8-9.3,9.4-18.1,16.8-25.1c7-6.7,17.2-10.3,25.4-13.3c4.3-1.5,8.6-2.9,13-4.2
	c7.6-2.3,11.8-3.9,18.8-7.8c2.6-1.5,4.3-5.4,5.5-9.8c1.1-5,1.7-9.5,1.8-14.6c-4-4.8-7.9-10.9-11.2-17.3c-4.1-7.9-7.5-16.4-9.8-23.6
	c-5.9-4-10-9.7-12.5-16c-2.9-7.5-3.4-16-1.5-23.7l-2.4-36.1c-0.2-3.5,0.2-7.9,0.7-11.3c2.7-16.6,11.9-29.8,24.6-38.9
	c12.3-8.7,27.8-13.6,43.7-13.9c4.8-0.1,9.6,0.2,14.4,1c5.3,0.8,9.3,2,13.2,3.7c2.3,1,4.4,2.1,6.5,3.3c5.7-1.8,11.5-2.4,17.2-1.8
	c9.6,0.9,18.9,4.9,26.7,10.9c7.7,5.9,14,13.6,18.1,22.1c3.7,7.7,5.6,16,4.9,24.3l-2.4,36.7c1.9,7.7,1.4,16.2-1.5,23.7
	c-2.4,6.3-6.6,12-12.5,16c-0.5,1.5-1,3.1-1.6,4.7c-13.6,4.3-24.1,11.2-32,20c2.1-3,4.2-6.5,6.1-10.2c4.3-8.3,7.7-17.2,9.5-23.7
	c0.2-0.8,5.3-6.4,5.3-6.4c3.1-1.5,5.4-4.3,6.6-7.6c1.5-4,1.7-8.6,0.5-12.7c-0.1-0.2-0.4-3.4-0.4-3.4l2.5-38
	c0.4-5.5-0.5-9.7-2.9-14.7c-2.8-5.7-7.1-11-12.3-14.9c-5-3.9-10.8-6.4-16.5-7c-4-0.4-8,0.2-11.9,2.1c-3.3,1.6-7.1,1.2-10-0.7
	c-3.1-2-5.5-3.5-7.8-4.5c-2.3-0.9-4.9-1.7-8.4-2.2c-3.7-0.6-7.4-0.9-11-0.8c-11.9,0.2-23.4,3.8-32.4,10.3
	c-8.5,6.1-14.7,14.8-16.5,25.7c-0.3,2.2-0.5,4.6-0.5,7L72.4,100.618z"/>
<path d="M358,478.019c24.3-6.2,42-16.5,42-33c0-10.5-2.1-21.601-6.3-31.8c-3.9-9.801-9.7-18.801-17.4-26.101
	c-7.2-6.899-17.8-10.7-26.3-13.8c-4.5-1.6-8.9-3-13.4-4.4c-6.699-1.899-12.199-3.6-19.399-8c-4.4-2.699-2.601-14.699-2.2-19.1
	c0.1-2.3,0.3-4.5,0.4-6.8c8.899-10.4,12.3-23.3,15.5-35.601l0.3-1c6-4.1,10.3-10,12.8-16.5c2.8-7.5,3.4-15.8,1.7-23.5
	c4.399-18.6,4.899-34.8,1.7-49c-3.301-15.3-10.801-28.1-21.9-39.1c-13.2-13-34.9-20.4-56-21.7c-20.3-1.4-40.6,2.9-52.9,13
	c-1.7,0.3-3.2,0.6-4.7,1c-19.8,4.9-31.3,16.9-37.2,32.2c-5.5,14.2-5.8,31.1-3.5,47.5c0.8,5.5,1.8,10.9,3.1,16.1
	c-1.7,7.601-1.1,16,1.8,23.5c2.5,6.5,6.7,12.4,12.7,16.5c3.4,12.9,6.9,26.2,15.8,36.7c0.1,1.7,0.3,3.5,0.4,5.4
	c0.7,8.399,1.5,18.399-1.9,20.2c-7.3,4.199-11.7,5.899-19.7,8.199c-4.5,1.4-8.9,2.801-13.4,4.4c-8.5,3.1-19.1,6.9-26.3,13.8
	c-7.7,7.3-13.5,16.3-17.4,26.101c-4.2,10.199-6.3,21.3-6.3,31.8c0,16.5,17.7,26.8,42,33c30.6,7.8,73,10.3,98,10.3
	S327.4,485.818,358,478.019z"/>
<path display="none" d="M298.6,323.918c-2,1.9-3.1,4.5-3.1,7.4c0.1,2.1-0.2,5.5-0.5,8.9c-1.1,14-2.4,29.8,12.1,38
	c9.2,5.6,15.9,7.5,23.801,9.899c4.199,1.2,8.3,2.4,12.399,4c6.7,2.4,15.101,5.4,19.3,9.4c5.4,5.2,9.7,11.899,12.601,19.2
	c3.2,7.8,4.8,16.199,4.8,24.3c0,5-11.3,9.7-26.9,13.7c-28.5,7.3-69.1,9.6-93.1,9.6s-64.6-2.3-93.1-9.6c-15.6-4-26.9-8.7-26.9-13.7
	c0-8,1.6-16.5,4.8-24.3c2.9-7.301,7.2-14,12.6-19.2c4.2-4,12.6-7,19.3-9.4c4.1-1.5,8.2-2.8,12.4-4c9.6-2.899,14.9-5,23.8-9.899
	c14.5-8.2,13.2-25.101,12-39.301c0-0.6-0.4-7.899-0.4-7.899c0-2.601-1-5.101-3-7.101c-7.1-6.8-10.2-18.8-13.2-30
	c-0.1-0.399-0.2-0.6-1.1-4.1c-0.7-2.9-2.6-5.5-5.5-6.9c-3.3-1.699-5.7-4.699-7.1-8.199c-1.5-4.101-1.7-8.9-0.6-13.101
	c0.6-1.7,0.7-3.7,0.2-5.6c-1.3-5.4-2.4-10.9-3.2-16.4c-1.9-13.5-1.8-27,2.3-37.6c3.6-9.5,10.9-16.9,23.5-20c0.5-0.2,5.6-1.1,5.6-1.1
	c2-0.3,4-1.2,5.6-2.8c7.7-7.6,23.6-10.7,40.3-9.6c16.7,1.1,33.601,6.5,43.2,16c8.4,8.2,13.9,17.8,16.4,29.1
	c2.6,11.9,2,25.9-2.101,42.4c0,0,0,4.8,0.101,5.3c1.3,4.3,1.1,9.2-0.5,13.5c-1.301,3.4-3.7,6.4-7.101,8.1
	c-2.5,1.2-4.5,3.4-5.3,6.301c-0.9,3.399-1.2,4.3-1.4,5.1C308.7,305.318,305.7,317.019,298.6,323.918z"/>
</svg>
