<?xml version="1.0" encoding="utf-8"?>
<!-- Generator: Adobe Illustrator 12.0.1, SVG Export Plug-In . SVG Version: 6.00 Build 51448)  -->
<!DOCTYPE svg PUBLIC "-//W3C//DTD SVG 1.1//EN" "http://www.w3.org/Graphics/SVG/1.1/DTD/svg11.dtd" [
	<!ENTITY ns_svg "http://www.w3.org/2000/svg">
	<!ENTITY ns_xlink "http://www.w3.org/1999/xlink">
]>
<svg  version="1.1" id="Ebene_1" xmlns="&ns_svg;" xmlns:xlink="&ns_xlink;" width="520" height="493.684"
	 viewBox="0 0 520 493.684" overflow="visible" enable-background="new 0 0 520 493.684" xml:space="preserve">
<path d="M40,113.684h120v10c0,3.4,0.2,6.7,0.5,10H40c-11,0-20,9-20,20v300c0,11,9,20,20,20h440c11,0,20-9,20-20v-300
	c0-11-9-20-20-20H359.5c0.3-3.3,0.5-6.6,0.5-10v-10h120c22,0,40,18,40,40v300c0,22-18,40-40,40H40c-22,0-40-18-40-40v-300
	C0,131.684,18,113.684,40,113.684z"/>
<rect x="60.2" y="353.684" width="119.8" height="20"/>
<rect x="60.2" y="293.384" width="179.8" height="20"/>
<rect x="60" y="233.684" width="179.8" height="20"/>
<g>
	<path fill="none" stroke="#000000" stroke-width="10.3686" d="M259.896,180.517c22.918,0,41.469-18.563,41.469-41.478
		c0-22.809-18.655-41.472-41.469-41.472c-22.915,0-41.475,18.663-41.475,41.472C218.422,161.954,236.981,180.517,259.896,180.517z"
		/>
	<path fill="none" stroke="#000000" stroke-width="10.3686" d="M197.79,139.974c0,34.319,27.891,62.21,62.21,62.21
		s62.217-27.891,62.217-62.21V5.184H197.79V139.974z M259.896,97.567c22.813,0,41.469,18.663,41.469,41.472
		c0,22.915-18.551,41.478-41.469,41.478c-22.915,0-41.475-18.563-41.475-41.478C218.422,116.23,236.981,97.567,259.896,97.567z"/>
	<path fill="none" stroke="#000000" stroke-width="10.3686" d="M197.79,139.974c0,34.319,27.891,62.21,62.21,62.21
		s62.217-27.891,62.217-62.21V5.184H197.79V139.974z"/>
	<path fill="none" stroke="#000000" stroke-width="10.3686" d="M218.422,139.039c0,22.915,18.56,41.478,41.475,41.478
		c22.918,0,41.469-18.563,41.469-41.478c0-22.809-18.655-41.472-41.469-41.472C236.981,97.567,218.422,116.23,218.422,139.039z"/>
</g>
<path id="curve0" fill="#333333" d="M334.907,418.973c0.899-11.122,4.359-18.874,7.775-26.719c-0.72-0.139-1.394-0.277-2.067-0.369
	c-6.606-1.246-13.213-2.446-16.765-0.646v28.473C327.356,419.62,331.086,419.343,334.907,418.973z M314.862,391.286
	c-3.417-1.523-10.068-0.416-16.721,0.691c-0.675,0.139-1.348,0.231-2.068,0.37c3.417,7.798,6.833,15.551,7.732,26.626
	c3.82,0.37,7.552,0.646,11.057,0.738V391.286z M341.604,359.72c-3.146-2.583-4.988-5.905-6.067-9.597
	c-1.349-4.615-1.394-9.507-1.528-14.308c3.55-3.553,5.572-6.367,7.685-11.074c2.023-4.522,3.326-9.137,4.586-13.89
	c3.19-1.662,5.393-2.815,6.831-6.553c0.764-1.939,1.034-4.062,0.81-6.185c-11.146-3.414-13.484-10.844-15.462-21.412
	c-4.854,8.583-12.271,18.32-22.922,18.32h-15.371c-0.181,0-2.068-0.046-3.731-0.046c-4.854-0.093-6.247-0.093-11.551,2.539
	c-0.359,2.306-0.091,4.661,0.721,6.783c1.438,3.737,3.595,4.891,6.829,6.553c1.261,4.799,2.563,9.461,4.631,13.981
	c2.11,4.661,4.134,7.43,7.595,10.937c0,4.938-0.089,9.645-1.528,14.398c-1.123,3.646-2.965,6.969-5.932,9.507
	c1.752,9.782,13.979,17.166,21.978,23.165c2.967-2.677,6.113-4.938,9.079-7.151C334.817,370.889,340.615,366.643,341.604,359.72z
	 M291.939,370.38c-1.888,4.385-3.551,9.414-3.462,13.753c4.766-0.509,9.485-1.522,14.204-2.169
	C298.681,378.687,294.727,374.858,291.939,370.38z M346.459,371.443c-2.787,3.967-6.697,7.059-10.967,10.244
	c4.898,0.691,9.752,1.892,14.651,2.4C350.1,380.118,348.301,375.548,346.459,371.443z M319.355,230.602
	c20.092,0,34.609,8.861,44.586,21.828c12.36,16.105,17.484,38.486,17.484,57.683c0,17.905-4.405,29.903-14.832,37.656
	c-4.314,3.184-9.618,5.536-16.001,7.198c3.191,2.263,6.741,4.292,10.293,6.322c14.112,8.029,28.226,16.105,28.226,39.502
	c0,9.367-8.81,16.059-21.079,20.535c-14.518,5.261-34.429,7.706-48.677,7.706c-14.247,0-34.158-2.445-48.675-7.706
	c-12.271-4.477-21.08-11.168-21.08-20.535c0-23.396,14.113-31.473,28.226-39.502c3.551-2.03,7.102-4.06,10.293-6.322
	c-6.428-1.662-11.686-4.015-16.001-7.198c-10.427-7.753-14.831-19.751-14.831-37.656c0-19.196,5.122-41.577,17.482-57.683
	C284.748,239.463,299.267,230.602,319.355,230.602z M343.986,347.032c7.371-1.385,13.079-3.555,17.394-6.738
	c7.776-5.77,11.057-15.414,11.057-30.181c0-17.443-4.54-37.702-15.507-52.007c-8.358-10.843-20.584-18.274-37.574-18.274
	c-16.988,0-29.215,7.432-37.574,18.274c-10.967,14.305-15.506,34.563-15.506,52.007c0,14.767,3.281,24.411,11.057,30.181
	c4.315,3.184,10.022,5.354,17.35,6.738c0.629-2.308,0.898-4.938,0.943-7.522c-2.742-3.185-4.944-6.876-6.697-10.799
	c-1.707-3.782-3.056-7.707-4.136-11.583c-3.55-2.354-6.067-5.675-7.505-9.414c-1.797-4.568-1.979-9.83-0.629-14.629l0.54-1.938
	l1.751-0.922c8.945-4.569,10.428-4.569,17.618-4.432c0.451,0,0.945,0,3.598,0h15.371c8.719,0,15.596-14.073,19.011-21.088
	l2.023-4.107l4,2.031c4.898,2.537,5.797,7.336,6.787,12.873c1.078,5.677,2.337,12.46,11.281,14.307l2.651,0.553l0.765,2.723
	c1.394,4.846,1.169,10.061-0.585,14.629c-1.483,3.739-4,7.061-7.55,9.414c-1.079,3.785-2.384,7.706-4.047,11.491
	c-1.796,3.922-3.955,7.613-6.787,10.845C343.177,342.093,343.402,344.724,343.986,347.032z M444.439,324.557l-11.281,14.49
	l-3.641,4.615l-3.459-4.754l-4.047-5.536c-0.764,0.737-1.438,1.383-1.933,1.891c6.022,12.366,6.741,27.503,6.831,38.118
	c11.866-0.555,26.385-2.077,37.44-5.124c8.45-2.307,14.562-5.121,14.562-8.444c0-8.629-2.292-18.09-8.494-24.272
	c-2.337-2.307-6.787-3.969-10.427-5.308c-2.158-0.83-4.315-1.522-6.518-2.215C450.373,327.05,447.631,326.219,444.439,324.557z
	 M436.755,294.286c4.538-4.57,6.246-13.106,7.819-19.382c0.359-1.385,1.303-2.445,2.472-3c4.359-2.308,5.574-8.353,4.314-12.829
	c-0.225-0.83-0.225-1.615-0.044-2.399c2.202-9.183,2.517-16.981,1.123-23.627c-3.506-16.566-16.314-24.318-32.09-25.426
	c-8.899-0.6-17.485,1.2-21.666,5.491c-0.807,0.831-1.797,1.246-2.785,1.339c-0.943,0.138-1.798,0.323-2.606,0.554
	c-7.056,1.753-11.057,6.044-13.08,11.582c-2.247,6.045-2.292,13.707-1.213,21.32c0.403,2.953,0.988,5.953,1.662,8.768
	c0.227,0.878,0.181,1.8-0.089,2.585c-0.225,0.877-0.36,1.799-0.404,2.722c-2.833-6.045-6.338-11.767-10.519-16.89
	c-0.673-7.613-0.225-15.228,2.159-21.735c3.056-8.26,8.988-14.72,19.326-17.305c0.763-0.184,1.527-0.37,2.292-0.507
	c6.292-5.538,16.898-7.846,27.552-7.107c19.82,1.384,35.911,12.044,40.226,32.672c1.618,7.707,1.393,16.474-0.944,26.673
	c1.754,7.799-0.809,16.751-7.505,21.319c-1.844,7.199-3.551,14.537-8.36,20.304c-0.134,3.416-0.675,6.877-0.539,10.291
	c0.09,1.846,0.179,3.97,1.842,5.029c3.82,2.446,6.832,3.369,10.338,4.431c6.562,2.031,16.045,5.262,20.63,9.783
	c7.956,7.984,11.237,19.658,11.237,30.872c0,8.537-8.944,13.982-21.306,17.353c-15.686,4.337-37.528,5.722-50.607,5.722
	c-5.709,0-13.079-0.276-20.899-0.923c-1.394-3.691-3.192-6.922-5.26-9.783c5.709,0.646,11.416,1.061,16.586,1.245
	c0.09-10.614,0.764-25.749,6.831-38.163l-2.651-2.768l-8.135,11.167l-13.438-17.213c0.942-4.938,1.394-10.384,1.394-16.337
	c0-12.368-1.979-26.026-6.473-38.854c0.359,0.275,0.719,0.507,1.123,0.738c2.248,1.108,2.427,3.276,3.012,5.444
	c1.572,6.277,3.281,12.921,7.146,16.845c0.898,0.922,1.349,2.121,1.349,3.276c0,0,0.54,9.781,0.54,10.659
	c3.729,6.184,12.226,8.444,18.877,8.444s15.146-2.261,18.832-8.444c0.089-3.46,0.675-7.152,0.629-10.521
	C435.405,296.363,435.899,295.161,436.755,294.286z M394.685,319.02l7.506,9.645l3.146-4.292
	C401.517,323.311,397.831,321.558,394.685,319.02z M437.248,319.066v-0.046c-2.113,1.707-4.494,3.092-7.101,4.152
	c-1.124,0.461-2.293,0.877-3.506,1.2l3.146,4.292L437.248,319.066z"/>
</svg>
