<?xml version="1.0" encoding="utf-8"?>
<!-- Generator: Adobe Illustrator 12.0.1, SVG Export Plug-In . SVG Version: 6.00 Build 51448)  -->
<!DOCTYPE svg PUBLIC "-//W3C//DTD SVG 1.1//EN" "http://www.w3.org/Graphics/SVG/1.1/DTD/svg11.dtd" [
	<!ENTITY ns_svg "http://www.w3.org/2000/svg">
	<!ENTITY ns_xlink "http://www.w3.org/1999/xlink">
]>
<svg  version="1.1" id="Ebene_1" xmlns="&ns_svg;" xmlns:xlink="&ns_xlink;" width="612.979" height="621.326"
	 viewBox="0 0 612.979 621.326" overflow="visible" enable-background="new 0 0 612.979 621.326" xml:space="preserve">
<path id="curve28" d="M100,411.326c0-27.5,22.5-50,50-50h40c27.6,0,50,22.5,50,50c0,15.8-7.5,30.6-20,40c12.5,9.4,20,24.2,20,40
	c0,27.5-22.5,50-50,50h-40c-27.5,0-50-22.5-50-50h20c0,16.5,13.5,30,30,30h40c16.5,0,30-13.5,30-30s-13.5-30-30-30h-20v-20h20
	c16.5,0,30-13.5,30-30s-13.5-30-30-30h-40c-16.5,0-30,13.5-30,30H100z M280,361.326h40v180h-20v-160h-20V361.326z"/>
<g>
	<path fill="none" d="M200,174.026c6.2,3.5,10,10.1,10,17.3c0,11-9,20-20,20s-20-9-20-20c0-7.2,3.8-13.8,10-17.3v-12.7h-40v12.7
		c6.2,3.5,10,10.1,10,17.3c0,11-9,20-20,20s-20-9-20-20c0-7.2,3.8-13.7,10-17.3v-12.7H80v12.7c6.2,3.5,10,10.1,10,17.3
		c0,11-9,20-20,20s-20-9-20-20c0-7.2,3.8-13.7,10-17.3v-12.7H30c-5.5,0-10,4.5-10,10v110h242.419
		c-21.957-29.033-34.853-64.393-34.853-102.552c0-5.888,0.316-11.707,0.916-17.448H200V174.026z"/>
	<path fill="none" d="M20,601.326h400V357.544c-55.188-0.071-104.931-21.667-140.016-56.218H20V601.326z"/>
	<path d="M420,357.544v243.782H20v-300h259.984c-6.354-6.259-12.228-12.942-17.565-20H20v-110c0-5.5,4.5-10,10-10h30v12.7
		c-6.2,3.6-10,10.1-10,17.3c0,11,9,20,20,20s20-9,20-20c0-7.2-3.8-13.8-10-17.3v-12.7h40v12.7c-6.2,3.6-10,10.1-10,17.3
		c0,11,9,20,20,20s20-9,20-20c0-7.2-3.8-13.8-10-17.3v-12.7h40v12.7c-6.2,3.5-10,10.1-10,17.3c0,11,9,20,20,20s20-9,20-20
		c0-7.2-3.8-13.8-10-17.3v-12.7h28.482c0.708-6.786,1.829-13.458,3.332-20H200v-20c0-5.5-4.5-10-10-10s-10,4.5-10,10v20h-40v-20
		c0-5.5-4.5-10-10-10s-10,4.5-10,10v20H80v-20c0-5.5-4.5-10-10-10s-10,4.5-10,10v20H30c-16.5,0-30,13.5-30,30c0,150,0,300,0,450h440
		c0-88.234,0-176.469,0-264.704c-6.486,0.612-13.066,0.925-19.727,0.925C420.182,357.547,420.092,357.544,420,357.544z"/>
	<path display="none" d="M612.979,178.774C612.979,80.04,526.701,0,420.273,0C327.69,0,250.37,60.572,231.814,141.326
		c-1.503,6.542-2.624,13.214-3.332,20c-0.6,5.742-0.916,11.561-0.916,17.448c0,38.159,12.896,73.519,34.853,102.552
		c5.338,7.058,11.211,13.741,17.565,20c35.085,34.552,84.828,56.147,140.016,56.218c0.092,0,0.182,0.003,0.273,0.003
		c6.66,0,13.24-0.313,19.727-0.925C537.161,347.457,612.979,271.33,612.979,178.774z"/>
</g>
<path id="curve28_2_" d="M399.562,137.069c34.016,0,61.624,25.392,61.624,56.805c0,31.355-27.608,56.804-61.624,56.804
	s-61.624-25.449-61.624-56.804C337.938,162.461,365.546,137.069,399.562,137.069z M399.562,148.431
	c-27.236,0-49.299,20.336-49.299,45.444c0,25.051,22.063,45.442,49.299,45.442c27.238,0,49.299-20.392,49.299-45.442
	C448.86,168.767,426.8,148.431,399.562,148.431z M473.386,103.385c1.973,1.363,3.821,2.726,5.546,4.09
	c1.787,1.363,3.575,2.84,5.3,4.375l29.949-7.499c7.21-1.818,14.729,0.795,18.856,6.532c2.342,3.237,4.437,6.361,6.348,9.43
	c1.91,3.124,3.759,6.361,5.607,9.827c3.266,6.248,1.91,13.463-3.513,18.291l-22.246,19.882c0.555,2.102,0.985,4.317,1.417,6.532
	c0.37,2.159,0.74,4.317,0.986,6.532l28.101,11.93c6.778,2.896,10.722,9.373,9.921,16.189c-0.432,3.635-0.985,7.271-1.725,10.962
	c-0.74,3.807-1.603,7.442-2.589,10.907c-1.849,6.702-7.948,11.417-15.467,11.928l-30.936,2.046c-1.048,1.875-2.157,3.805-3.39,5.737
	c-1.232,1.932-2.525,3.806-3.82,5.566l13.188,25.847c3.205,6.248,1.726,13.462-3.697,18.234c-3.02,2.669-6.039,5.113-8.996,7.441
	c-2.959,2.216-6.163,4.487-9.614,6.76c-6.039,4.033-14.05,4.033-20.089,0l-25.143-16.757c-2.218,0.852-4.436,1.647-6.594,2.386
	c-2.155,0.682-4.375,1.363-6.717,1.987l-7.949,27.551c-1.91,6.703-8.072,11.417-15.591,11.815
	c-4.005,0.228-7.948,0.341-12.077,0.341c-4.13-0.057-8.135-0.228-12.079-0.512c-7.456-0.511-13.618-5.283-15.405-11.93l-7.58-27.72
	c-2.219-0.682-4.437-1.363-6.593-2.102c-2.342-0.795-4.5-1.591-6.533-2.386l-25.266,16.473c-6.101,3.919-14.173,3.863-20.15-0.228
	c-3.204-2.158-6.347-4.487-9.552-6.93c-3.142-2.499-6.1-4.999-8.935-7.611c-5.36-4.771-6.718-11.986-3.451-18.234l13.496-25.732
	c-1.232-1.818-2.465-3.635-3.575-5.453c-1.17-1.875-2.28-3.75-3.266-5.624l-30.936-2.386c-7.455-0.625-13.556-5.396-15.282-12.099
	c-1.048-3.806-1.849-7.384-2.465-11.021c-0.677-3.521-1.232-7.213-1.602-11.076c-0.739-6.873,3.266-13.236,10.106-16.019
	l28.285-11.701c0.246-1.932,0.616-4.091,1.048-6.363c0.431-2.102,0.861-4.203,1.417-6.249l-22.062-20.166
	c-5.3-4.885-6.594-12.099-3.266-18.291c1.786-3.351,3.696-6.589,5.73-9.884c2.095-3.237,4.252-6.362,6.532-9.429
	c4.189-5.681,11.708-8.237,18.857-6.306l29.886,7.782c1.603-1.363,3.328-2.784,5.238-4.26c1.849-1.42,3.697-2.784,5.485-3.976
	l-2.836-28.517c-0.677-6.873,3.39-13.234,10.23-15.96c3.573-1.478,7.332-2.841,11.215-4.148c3.882-1.306,7.704-2.442,11.586-3.408
	c7.209-1.875,14.665,0.682,18.918,6.362l17.378,23.63c2.218-0.113,4.62-0.17,7.024-0.113c2.527,0,4.868,0.057,7.086,0.17
	l17.748-23.517c4.252-5.68,11.77-8.123,18.918-6.191c4.068,1.136,7.888,2.272,11.523,3.522c3.697,1.249,7.395,2.669,11.154,4.203
	c6.841,2.841,10.846,9.26,10.045,16.076L473.386,103.385z M470.982,116.109c-1.786-1.42-3.513-2.67-5.238-3.863
	c-3.326-2.328-5.053-5.907-4.621-9.713l3.203-28.743c0.247-2.044-0.86-3.749-2.895-4.601c-3.452-1.42-6.902-2.726-10.354-3.92
	c-3.573-1.193-7.086-2.271-10.66-3.237c-2.096-0.567-4.19,0.113-5.423,1.761l-17.932,23.801c-2.343,3.125-6.225,4.828-10.354,4.601
	c-2.341-0.169-4.621-0.226-6.716-0.226c-2.096,0-4.313,0.057-6.656,0.17c-4.128,0.17-7.948-1.534-10.29-4.715l-17.563-23.914
	c-1.232-1.705-3.328-2.387-5.423-1.818c-3.821,0.965-7.396,2.044-10.722,3.124c-3.328,1.137-6.779,2.386-10.477,3.863
	c-2.033,0.852-3.144,2.556-2.896,4.601l2.834,28.856c0.37,3.807-1.354,7.328-4.683,9.658c-1.911,1.25-3.636,2.5-5.238,3.691
	c-1.603,1.25-3.204,2.614-4.93,4.033c-3.02,2.613-7.21,3.579-11.216,2.557l-30.133-7.896c-2.096-0.568-4.129,0.114-5.424,1.761
	c-2.218,3.011-4.189,5.907-6.038,8.804c-1.849,2.897-3.575,5.908-5.361,9.146c-0.925,1.817-0.616,3.806,0.985,5.282l22.247,20.336
	c2.956,2.727,4.128,6.476,3.143,10.225c-0.556,1.988-0.987,3.92-1.356,5.908c-0.369,1.76-0.679,3.806-0.985,5.964
	c-0.494,3.806-3.021,6.987-6.841,8.578l-28.593,11.815c-2.033,0.795-3.081,2.556-2.896,4.602c0.37,3.464,0.863,6.873,1.479,10.338
	c0.678,3.409,1.417,6.759,2.279,10.167c0.555,1.988,2.219,3.238,4.376,3.409l31.305,2.443c4.066,0.283,7.641,2.556,9.489,5.963
	c0.986,1.818,2.033,3.637,3.081,5.34c1.11,1.76,2.219,3.522,3.39,5.169c2.279,3.237,2.588,7.101,0.739,10.565l-13.68,26.017
	c-0.925,1.817-0.555,3.806,0.985,5.226c2.896,2.556,5.607,4.884,8.319,7.043c2.711,2.102,5.67,4.26,8.873,6.419
	c1.788,1.25,3.944,1.25,5.793,0.057l25.573-16.644c3.391-2.159,7.642-2.557,11.463-1.022c2.156,0.852,4.189,1.646,6.101,2.328
	c2.095,0.682,4.189,1.306,6.224,1.932c4.006,1.078,6.963,3.919,7.949,7.668l7.702,28.004c0.493,1.988,2.157,3.295,4.376,3.408
	c4.005,0.283,7.702,0.454,11.215,0.454c3.637,0.057,7.395-0.056,11.34-0.284c2.156-0.113,3.82-1.42,4.437-3.352l7.949-27.89
	c1.048-3.75,4.067-6.533,8.072-7.613c2.033-0.51,4.129-1.192,6.347-1.874c2.158-0.738,4.191-1.477,6.225-2.272
	c3.819-1.476,8.011-1.078,11.399,1.194l25.39,16.927c1.787,1.192,4.005,1.192,5.792,0c2.958-1.988,5.916-4.034,8.874-6.306
	c2.896-2.215,5.669-4.487,8.442-6.873c1.54-1.42,1.972-3.408,1.048-5.226l-13.373-26.073c-1.786-3.522-1.417-7.441,0.925-10.623
	c1.232-1.761,2.465-3.522,3.573-5.282c1.11-1.704,2.158-3.522,3.205-5.396c1.91-3.409,5.423-5.624,9.614-5.908l31.242-2.044
	c2.219-0.171,3.882-1.478,4.376-3.409c1.047-3.636,1.849-6.93,2.465-10.111c0.616-3.238,1.17-6.589,1.602-10.225
	c0.247-2.045-0.801-3.75-2.834-4.602l-28.471-12.099c-3.76-1.648-6.285-4.828-6.717-8.691c-0.246-2.045-0.555-4.089-0.925-6.135
	c-0.369-1.987-0.801-4.032-1.294-6.134c-0.986-3.692,0.246-7.498,3.205-10.168l22.492-20.108c1.541-1.363,1.972-3.409,0.986-5.226
	c-1.603-3.068-3.328-6.135-5.178-9.145c-1.909-3.068-3.882-5.965-5.915-8.748c-1.232-1.761-3.266-2.443-5.423-1.875l-30.258,7.611
	v-0.057c-4.066,1.022-8.071,0.057-11.152-2.613C474.434,118.835,472.77,117.472,470.982,116.109z"/>
</svg>
