<?xml version="1.0" encoding="utf-8"?>
<!-- Generator: Adobe Illustrator 12.0.1, SVG Export Plug-In . SVG Version: 6.00 Build 51448)  -->
<!DOCTYPE svg PUBLIC "-//W3C//DTD SVG 1.1//EN" "http://www.w3.org/Graphics/SVG/1.1/DTD/svg11.dtd" [
	<!ENTITY ns_svg "http://www.w3.org/2000/svg">
	<!ENTITY ns_xlink "http://www.w3.org/1999/xlink">
]>
<svg  version="1.1" id="Ebene_1" xmlns="&ns_svg;" xmlns:xlink="&ns_xlink;" width="542.618" height="585.161"
	 viewBox="0 0 542.618 585.161" overflow="visible" enable-background="new 0 0 542.618 585.161" xml:space="preserve">
<path id="curve28" d="M100,375.161c0-27.5,22.5-50,50-50h40c27.6,0,50,22.5,50,50c0,15.8-7.5,30.6-20,40c12.5,9.4,20,24.2,20,40
	c0,27.5-22.5,50-50,50h-40c-27.5,0-50-22.5-50-50h20c0,16.5,13.5,30,30,30h40c16.5,0,30-13.5,30-30s-13.5-30-30-30h-20v-20h20
	c16.5,0,30-13.5,30-30s-13.5-30-30-30h-40c-16.5,0-30,13.5-30,30H100z M280,325.161h40v180h-20v-160h-20V325.161z"/>
<g>
	<polygon fill="none" points="20,565.161 420,565.161 420,309.487 225.587,309.487 225.587,265.161 20,265.161 	"/>
	<path fill="none" d="M200,137.861c6.2,3.5,10,10.1,10,17.3c0,11-9,20-20,20s-20-9-20-20c0-7.2,3.8-13.8,10-17.3v-12.7h-40v12.7
		c6.2,3.5,10,10.1,10,17.3c0,11-9,20-20,20s-20-9-20-20c0-7.2,3.8-13.7,10-17.3v-12.7H80v12.7c6.2,3.5,10,10.1,10,17.3
		c0,11-9,20-20,20s-20-9-20-20c0-7.2,3.8-13.7,10-17.3v-12.7H30c-5.5,0-10,4.5-10,10v110h205.587v-120H200V137.861z"/>
	<path d="M420,565.161H20v-300h205.587v-20H20v-110c0-5.5,4.5-10,10-10h30v12.7c-6.2,3.6-10,10.1-10,17.3c0,11,9,20,20,20
		s20-9,20-20c0-7.2-3.8-13.8-10-17.3v-12.7h40v12.7c-6.2,3.6-10,10.1-10,17.3c0,11,9,20,20,20s20-9,20-20c0-7.2-3.8-13.8-10-17.3
		v-12.7h40v12.7c-6.2,3.5-10,10.1-10,17.3c0,11,9,20,20,20s20-9,20-20c0-7.2-3.8-13.8-10-17.3v-12.7h25.587v-20H200v-20
		c0-5.5-4.5-10-10-10s-10,4.5-10,10v20h-40v-20c0-5.5-4.5-10-10-10s-10,4.5-10,10v20H80v-20c0-5.5-4.5-10-10-10s-10,4.5-10,10v20H30
		c-16.5,0-30,13.5-30,30c0,150,0,300,0,450h440c0-91.892,0-183.782,0-275.674h-20V565.161z"/>
</g>
<path id="curve28_2_" stroke="#000000" stroke-width="23.6696" d="M395.718,11.835v130.14h135.065v13.699H395.718v130.14h-14.217
	v-130.14H246.436v-13.699h135.065V11.835H395.718z"/>
</svg>
