<?xml version="1.0" encoding="UTF-8" standalone="no"?>
<svg
   id="svg11"
   version="1.1"
   viewBox="0 0 5800 5800"
   clip-rule="evenodd"
   fill-rule="nonzero"
   image-rendering="optimizeQuality"
   text-rendering="geometricPrecision"
   shape-rendering="geometricPrecision"
   height="580px"
   width="580px"
   xml:space="preserve"
   xmlns="http://www.w3.org/2000/svg"
   xmlns:svg="http://www.w3.org/2000/svg"><defs
   id="defs3195" />

<g
   id="g3199"
   transform="matrix(9.0688066,0,0,8.8448464,800,250.00884)"><path
     d="M 239.329,485.172 C 237.886,458.377 233.465,426.93 220,400 c 2.4,-2.4 6.4,-5.9 10.4,-9.6 L 249.7,416.299 288,368.4 c 9.451,5.577 17.223,8.513 25.358,11.087 10.089,-4.81 20.896,-8.401 32.222,-10.585 -6.416,-2.322 -12.76,-4.317 -19.28,-6.303 -10.5,-3.199 -19.5,-5.899 -31.3,-13.3 -7.8,-4.7 -7,-14.5 -6,-25 0.4,-4.1 0.8,-8.2 0.9,-12.3 13.8,-15.5 19.1,-35.8 24,-54.9 0.3,-1 0.5,-2 1,-3.7 19.399,-12.2 26.6,-37.3 21.5,-58.9 1.5,-6.9 2.5,-13.5 2.899,-19.7 l 7.8,-7.7 c 2.9,-3 3.801,-7.6 1.801,-11.6 l -8.9,-17.8 c -0.7,-60.5 -30,-108.5 -90.9,-123.2 -0.699,-1.8 -2,-3.4 -3.8,-4.5 -10.6,-6.7 -23,-10 -35.3,-10 -12,0 -24.1,3.2 -34.6,9.6 -2,1 -3.6,2.8 -4.6,4.9 C 110,29.2 80.7,77.2 80,137.7 l -8.5,17 c -2.4,3.9 -1.9,9 1.4,12.4 l 7.9,7.9 c 0.2,3.1 0.5,6.3 1,9.5 0.5,3.3 1.1,6.6 1.8,10 -2.6,11.2 -1.9,23.7 2.2,34.6 3.7,9.8 10.1,18.5 19.3,24.3 5.5,20.5 10.5,42.3 25,58.6 0.2,4.2 0.6,8.4 1,12.6 0.9,10.601 1.3,20.5 -6.1,24.7 -0.2,0.2 -0.4,0.3 -0.6,0.4 -11.4,7.1 -20.3,9.7 -30.7,12.899 -6.9,2.101 -13.6,4.2 -20.4,6.7 C 60.7,373.9 45,379.7 34.7,389.6 23.4,400.6 14.7,412.401 8.9,425.3 3,438.4 0,452.5 0,468 0,490.5 25.4,505 60.5,514.1 107,526.2 171.8,530 210,530 c 9.642,0 20.98,-0.243 33.288,-0.8 -2.878,-10.613 -4.419,-21.759 -4.419,-33.258 0,-3.628 0.16,-7.218 0.46,-10.77 z M 250.3,383.7 235.9,364.6 c 12.199,-2.899 24.1,-8 34,-15.699 0.699,2.3 1.699,4.5 3,6.6 z M 92.1,158 98.9,144.5 c 0.7,-1.5 1.1,-3 1.1,-4.5 0,-49.4 20.5,-90.1 70,-104.7 V 90 h 20 V 24.4 c 6.2,-2.9 13.1,-4.4 20,-4.4 6.9,0 13.8,1.5 20,4.4 V 90 h 20 V 35.3 c 49.5,14.5 70,55.2 70,104.7 0,1.9 0.6,3.8 1.5,5.3 l 6.4,12.7 -42,42 H 134.1 Z M 180,509.3 C 144.2,507.901 99.5,503.7 65.5,494.8 39.1,488 20,479.1 20,468 c 0,-12.6 2.4,-24 7.1,-34.5 4.8,-10.6 12,-20.3 21.5,-29.6 7.2,-7 20.7,-11.9 31.5,-15.801 6.4,-2.399 12.8,-4.399 19.3,-6.399 11,-3.3 20.4,-6.101 32.6,-13.3 L 170.3,416.299 190,390 l 10,10 c -17.8,35.6 -19.8,79.1 -20,109.3 z m -33,-154 c 1.2,-2.1 2.2,-4.3 2.9,-6.5 9.9,7.8 22,12.9 34.2,15.8 l -14.4,19.1 z m 3.7,-35.9 c -0.1,-1 -0.7,-11.4 -0.7,-11.4 0,-2.6 -1,-5.2 -3,-7.1 -11.9,-11.801 -17,-31.2 -21.8,-49.5 l -1.9,-7.2 c -0.7,-2.7 -2.5,-5 -5.2,-6.3 -6.5,-3.3 -11.1,-9.1 -13.6,-15.8 -2.9,-7.7 -3.3,-16.5 -1.1,-24.3 v -0.2 l 19.4,19.4 c 1.8,1.8 4.4,3 7.2,3 h 160 c 2.6,0 5.1,-1 7.1,-2.9 l 19.5,-19.5 c 4.101,14.3 -0.3,32.9 -14.3,40.1 -2.7,1.2 -4.8,3.5 -5.6,6.5 -0.3,0.8 -1.2,4.3 -2.101,7.9 C 290,270 285.1,289 273,300.9 c -1.9,1.899 -3,4.5 -3,7.3 0.1,3.399 -0.1,7.1 -0.5,10.8 -10.4,20.8 -37.9,28.5 -59.5,28.5 -21.5,0 -48.8,-7.6 -59.3,-28.1 z"
     id="path3189" /><path
     id="curve28_2_"
     d="m 354.08,446.658 c 23.155,0 41.947,18.88 41.947,42.236 0,23.315 -18.792,42.238 -41.947,42.238 -23.153,0 -41.946,-18.923 -41.946,-42.238 0,-23.356 18.793,-42.236 41.946,-42.236 z m 0,8.448 c -18.539,0 -33.556,15.121 -33.556,33.788 0,18.628 15.017,33.79 33.556,33.79 18.541,0 33.558,-15.162 33.558,-33.79 0,-18.666 -15.017,-33.788 -33.558,-33.788 z m 50.253,-33.495 c 1.342,1.015 2.601,2.026 3.773,3.042 1.219,1.014 2.435,2.11 3.607,3.252 l 20.388,-5.574 c 4.907,-1.353 10.025,0.59 12.835,4.855 1.595,2.407 3.02,4.731 4.32,7.013 1.301,2.322 2.559,4.73 3.816,7.307 2.225,4.646 1.301,10.01 -2.39,13.601 l -15.144,14.782 c 0.378,1.563 0.672,3.21 0.965,4.858 0.252,1.604 0.504,3.209 0.671,4.854 l 19.128,8.871 c 4.614,2.155 7.3,6.97 6.754,12.038 -0.294,2.703 -0.671,5.405 -1.175,8.151 -0.503,2.83 -1.09,5.534 -1.763,8.109 -1.258,4.984 -5.41,8.491 -10.527,8.87 l -21.057,1.521 c -0.714,1.395 -1.47,2.829 -2.309,4.266 -0.838,1.437 -1.72,2.831 -2.6,4.14 l 8.977,19.217 c 2.182,4.647 1.175,10.012 -2.519,13.56 -2.054,1.985 -4.109,3.801 -6.123,5.532 -2.014,1.648 -4.193,3.337 -6.544,5.026 -4.11,2.998 -9.563,2.998 -13.674,0 l -17.114,-12.459 c -1.51,0.633 -3.021,1.224 -4.488,1.773 -1.468,0.508 -2.979,1.014 -4.572,1.477 l -5.41,20.485 c -1.3,4.984 -5.496,8.491 -10.612,8.786 -2.727,0.168 -5.412,0.254 -8.222,0.254 -2.812,-0.043 -5.538,-0.17 -8.221,-0.381 -5.077,-0.379 -9.271,-3.927 -10.488,-8.87 l -5.159,-20.61 c -1.51,-0.508 -3.021,-1.014 -4.488,-1.563 -1.594,-0.591 -3.062,-1.183 -4.445,-1.773 l -17.198,12.249 c -4.153,2.914 -9.648,2.871 -13.717,-0.169 -2.182,-1.604 -4.32,-3.338 -6.502,-5.154 -2.14,-1.856 -4.152,-3.716 -6.082,-5.659 -3.65,-3.548 -4.572,-8.912 -2.349,-13.56 l 9.187,-19.131 c -0.84,-1.354 -1.679,-2.704 -2.434,-4.057 -0.797,-1.394 -1.552,-2.787 -2.223,-4.181 l -21.057,-1.772 c -5.076,-0.466 -9.229,-4.014 -10.403,-8.998 -0.713,-2.83 -1.259,-5.49 -1.679,-8.194 -0.46,-2.618 -0.839,-5.363 -1.091,-8.236 -0.503,-5.11 2.225,-9.842 6.88,-11.91 l 19.253,-8.701 c 0.168,-1.436 0.42,-3.04 0.714,-4.73 0.293,-1.562 0.588,-3.125 0.965,-4.646 L 257.769,454.18 c -3.607,-3.634 -4.487,-8.997 -2.223,-13.602 1.216,-2.491 2.517,-4.899 3.901,-7.349 1.426,-2.407 2.894,-4.731 4.445,-7.011 2.854,-4.225 7.971,-6.126 12.836,-4.689 l 20.344,5.786 c 1.091,-1.013 2.266,-2.068 3.566,-3.167 1.258,-1.056 2.517,-2.069 3.733,-2.957 l -1.931,-21.203 c -0.46,-5.11 2.308,-9.841 6.963,-11.867 2.435,-1.1 4.992,-2.113 7.635,-3.085 2.643,-0.971 5.243,-1.816 7.886,-2.533 4.909,-1.394 9.983,0.506 12.878,4.729 l 11.829,17.571 c 1.511,-0.084 3.146,-0.127 4.781,-0.084 1.72,0 3.314,0.043 4.824,0.127 l 12.079,-17.487 c 2.896,-4.224 8.013,-6.039 12.88,-4.604 2.768,0.846 5.368,1.691 7.843,2.619 2.517,0.931 5.034,1.985 7.593,3.126 4.655,2.112 7.382,6.886 6.837,11.952 z m -1.637,9.463 c -1.216,-1.057 -2.39,-1.986 -3.565,-2.873 -2.265,-1.732 -3.439,-4.394 -3.146,-7.223 l 2.182,-21.373 c 0.167,-1.52 -0.587,-2.787 -1.971,-3.42 -2.351,-1.056 -4.7,-2.027 -7.048,-2.915 -2.434,-0.887 -4.824,-1.688 -7.258,-2.407 -1.425,-0.423 -2.852,0.086 -3.69,1.31 l -12.207,17.696 c -1.594,2.325 -4.237,3.591 -7.047,3.421 -1.594,-0.125 -3.146,-0.168 -4.571,-0.168 -1.428,0 -2.937,0.043 -4.531,0.127 -2.81,0.127 -5.411,-1.141 -7.005,-3.507 l -11.955,-17.78 c -0.838,-1.268 -2.265,-1.773 -3.69,-1.352 -2.601,0.718 -5.034,1.521 -7.3,2.322 -2.265,0.845 -4.612,1.775 -7.131,2.872 -1.384,0.635 -2.139,1.901 -1.971,3.422 l 1.93,21.456 c 0.252,2.83 -0.923,5.448 -3.188,7.18 -1.3,0.931 -2.476,1.858 -3.566,2.746 -1.09,0.929 -2.181,1.943 -3.355,2.998 -2.056,1.943 -4.907,2.661 -7.635,1.9 l -20.511,-5.87 c -1.426,-0.422 -2.811,0.084 -3.691,1.311 -1.511,2.237 -2.854,4.392 -4.109,6.546 -1.26,2.153 -2.435,4.392 -3.651,6.801 -0.628,1.352 -0.419,2.829 0.672,3.928 l 15.142,15.119 c 2.015,2.029 2.811,4.816 2.14,7.604 -0.377,1.478 -0.672,2.913 -0.922,4.392 -0.252,1.31 -0.462,2.831 -0.672,4.435 -0.335,2.831 -2.055,5.196 -4.656,6.379 l -19.463,8.786 c -1.383,0.59 -2.098,1.899 -1.971,3.421 0.251,2.576 0.588,5.108 1.007,7.687 0.461,2.534 0.964,5.026 1.552,7.559 0.377,1.48 1.51,2.409 2.979,2.536 l 21.309,1.815 c 2.769,0.212 5.201,1.901 6.459,4.436 0.671,1.35 1.385,2.703 2.097,3.97 0.756,1.31 1.512,2.619 2.309,3.843 1.551,2.408 1.761,5.281 0.503,7.857 l -9.313,19.344 c -0.629,1.353 -0.378,2.83 0.671,3.886 1.972,1.901 3.818,3.634 5.663,5.238 1.846,1.563 3.859,3.166 6.04,4.773 1.217,0.929 2.685,0.929 3.943,0.041 l 17.408,-12.375 c 2.307,-1.605 5.201,-1.9 7.802,-0.76 1.469,0.633 2.853,1.225 4.151,1.73 1.428,0.507 2.854,0.973 4.238,1.438 2.726,0.802 4.739,2.913 5.41,5.701 l 5.244,20.823 c 0.334,1.478 1.468,2.449 2.978,2.533 2.727,0.211 5.243,0.339 7.635,0.339 2.475,0.041 5.032,-0.042 7.718,-0.212 1.467,-0.084 2.6,-1.056 3.02,-2.492 l 5.412,-20.738 c 0.712,-2.787 2.768,-4.857 5.495,-5.659 1.383,-0.381 2.81,-0.887 4.319,-1.394 1.469,-0.55 2.853,-1.099 4.236,-1.69 2.602,-1.098 5.453,-0.802 7.761,0.887 l 17.282,12.587 c 1.216,0.887 2.727,0.887 3.942,0 2.015,-1.479 4.027,-2.999 6.041,-4.688 1.972,-1.647 3.857,-3.336 5.745,-5.11 1.05,-1.056 1.342,-2.534 0.714,-3.886 l -9.102,-19.387 c -1.217,-2.619 -0.965,-5.534 0.629,-7.898 0.838,-1.311 1.678,-2.619 2.432,-3.928 0.757,-1.267 1.469,-2.618 2.183,-4.013 1.3,-2.534 3.69,-4.181 6.544,-4.392 l 21.267,-1.521 c 1.509,-0.127 2.642,-1.098 2.979,-2.534 0.713,-2.703 1.258,-5.153 1.678,-7.519 0.418,-2.407 0.797,-4.898 1.09,-7.604 0.167,-1.52 -0.545,-2.787 -1.929,-3.42 l -19.38,-8.997 c -2.56,-1.225 -4.278,-3.59 -4.572,-6.461 -0.168,-1.522 -0.377,-3.043 -0.629,-4.562 -0.252,-1.479 -0.546,-2.999 -0.881,-4.563 -0.671,-2.744 0.168,-5.575 2.182,-7.561 l 15.31,-14.951 c 1.049,-1.014 1.342,-2.535 0.671,-3.886 -1.09,-2.281 -2.266,-4.563 -3.523,-6.8 -1.3,-2.281 -2.643,-4.436 -4.027,-6.506 -0.839,-1.31 -2.223,-1.815 -3.69,-1.394 l -20.597,5.66 v -0.04 c -2.769,0.76 -5.495,0.042 -7.591,-1.942 -1.054,-1.057 -2.187,-2.071 -3.404,-3.084 z" /></g>

</svg>
