<?xml version="1.0" encoding="utf-8"?>
<!-- Generator: Adobe Illustrator 12.0.1, SVG Export Plug-In . SVG Version: 6.00 Build 51448)  -->
<!DOCTYPE svg PUBLIC "-//W3C//DTD SVG 1.1//EN" "http://www.w3.org/Graphics/SVG/1.1/DTD/svg11.dtd" [
	<!ENTITY ns_svg "http://www.w3.org/2000/svg">
	<!ENTITY ns_xlink "http://www.w3.org/1999/xlink">
]>
<svg  version="1.1" id="Ebene_1" xmlns="&ns_svg;" xmlns:xlink="&ns_xlink;" width="526" height="539.96" viewBox="0 0 526 539.96"
	 overflow="visible" enable-background="new 0 0 526 539.96" xml:space="preserve">
<g>
	<path fill="none" d="M205.653,264.123c-2.394-10.399-2.926-21.362-2.926-29.419c0-2.342,0.887-4.779,2.66-6.653
		c4.699-4.872,9.488-12.93,13.744-21.831c5.409-11.149,9.754-23.236,12.06-32.419c0.71-2.436,2.306-4.685,4.7-5.903
		c4.785-2.53,8.068-7.027,10.02-12.368c2.127-5.996,2.394-12.93,0.797-19.113c-0.354-1.125-0.533-2.342-0.443-3.654l3.104-50.408
		c0.09-3.654-0.177-7.121-0.711-10.588c-2.393-15.554-10.729-28.108-22.076-36.822c-15.96-12.18-36.89-16.491-56.217-13.212
		c-9.221,1.592-14.098,4.497-21.812,9.744c-2.576,1.686-5.857,2.061-8.694,0.562c-5.32-2.811-10.994-3.748-16.493-3.185
		c-7.714,0.749-15.34,4.402-21.99,9.743c-6.917,5.622-12.591,12.93-16.316,20.894c-3.28,7.027-4.965,14.523-4.434,22.113
		l3.193,51.158c0.089,1.124-0.09,2.155-0.354,3.186c-1.773,6.277-1.508,13.398,0.709,19.581c1.863,5.153,5.055,9.652,9.754,12.18
		c2.394,1.125,4.256,3.28,4.966,6.09c2.306,9.089,6.65,21.269,11.97,32.512c4.257,8.808,9.044,16.771,13.833,21.831
		c1.685,1.688,2.66,4.123,2.66,6.841c-0.266,8.245-0.621,19.02-2.837,29.139c-2.57,11.524-7.537,22.205-17.113,28.016
		c-10.729,7.026-18.621,9.463-27.842,12.46c-5.054,1.594-9.931,3.279-14.897,5.153c-8.334,3.185-18.621,7.216-24.118,12.837
		c-6.917,7.027-12.237,16.021-15.871,25.668c-3.902,10.493-5.941,21.833-5.941,32.61c0,8.433,14.542,15.459,34.492,20.982
		c34.314,9.369,82.995,12.369,111.813,12.369c14.075,0,32.954-0.716,52.582-2.555V290.229c0-0.657,0.04-1.307,0.111-1.947
		C211.547,282.269,207.793,273.472,205.653,264.123z"/>
	<path d="M217.624,411.667c-19.628,1.84-38.507,2.555-52.582,2.555c-28.817,0-77.498-2.999-111.813-12.368
		c-19.951-5.523-34.492-12.551-34.492-20.983c0-10.776,2.039-22.117,5.941-32.61c3.634-9.649,8.954-18.64,15.871-25.667
		c5.497-5.622,15.784-9.653,24.118-12.837c4.966-1.874,9.843-3.56,14.897-5.153c9.221-2.998,17.113-5.434,27.842-12.461
		c9.576-5.81,14.543-16.492,17.113-28.015c2.217-10.119,2.572-20.895,2.837-29.14c0-2.718-0.975-5.153-2.66-6.84
		c-4.789-5.06-9.576-13.024-13.833-21.831c-5.32-11.244-9.665-23.424-11.97-32.512c-0.71-2.811-2.572-4.966-4.966-6.09
		c-4.699-2.529-7.891-7.027-9.754-12.181c-2.217-6.183-2.482-13.304-0.709-19.582c0.265-1.03,0.443-2.061,0.354-3.186l-3.193-51.158
		c-0.531-7.59,1.153-15.085,4.434-22.112c3.725-7.964,9.399-15.272,16.316-20.895c6.65-5.34,14.275-8.994,21.99-9.743
		c5.499-0.563,11.172,0.374,16.493,3.185c2.837,1.5,6.118,1.125,8.694-0.562c7.714-5.246,12.591-8.151,21.812-9.744
		c19.329-3.279,40.257,1.032,56.217,13.212c11.348,8.713,19.683,21.268,22.076,36.822c0.534,3.467,0.799,6.934,0.711,10.588
		l-3.104,50.408c-0.09,1.312,0.09,2.53,0.443,3.654c1.597,6.183,1.33,13.118-0.797,19.113c-1.951,5.34-5.232,9.838-10.02,12.368
		c-2.395,1.218-3.99,3.467-4.7,5.903c-2.306,9.183-6.65,21.27-12.06,32.419c-4.256,8.901-9.044,16.958-13.744,21.831
		c-1.773,1.874-2.66,4.31-2.66,6.652c0,8.058,0.532,19.02,2.926,29.419c2.141,9.35,5.894,18.146,12.082,24.157
		c0.7-6.357,4.791-11.887,10.734-15.274c-2.639-3.283-4.387-8.032-5.613-13.289c-1.686-7.026-2.217-14.896-2.395-21.362
		c5.232-6.372,10.197-14.71,14.542-23.611c5.142-10.869,9.575-22.581,12.322-32.325c7.185-4.874,12.147-12.087,15.073-20.238
		c3.372-9.37,3.903-20.145,1.599-29.701l3.013-48.909c0.266-4.497-0.266-10.306-0.887-14.803
		c-3.281-20.895-14.187-37.478-29.17-48.909C217.355,4.777,191.376-0.751,167.522,3.277c-9.664,1.688-16.314,4.499-24.65,9.838
		c-6.916-2.716-14.099-3.561-21.103-2.811c-11.174,1.125-21.991,6.09-31.124,13.493c-8.955,7.214-16.581,16.865-21.458,27.546
		c-4.611,9.931-7.005,20.799-6.207,31.574l3.104,49.564c-2.306,9.651-1.863,20.332,1.506,29.702
		c2.927,8.152,7.98,15.366,15.164,20.238c2.747,9.65,7.093,21.456,12.324,32.325c4.257,8.901,9.223,17.241,14.454,23.519
		c-0.178,6.653-0.71,14.523-2.307,21.55c-1.507,7.118-4.167,13.302-8.777,16.113c-9.044,5.995-15.872,8.15-23.941,10.68
		c-5.41,1.78-10.64,3.561-15.96,5.621c-9.842,3.845-22.167,8.53-30.325,16.963c-8.69,8.9-15.429,20.144-19.951,32.228
		c-4.789,12.746-7.271,26.423-7.271,39.449c0,19.11,20.128,31.388,47.793,39.067c36.177,9.934,86.542,13.024,116.246,13.024
		c14.578,0,34.232-0.774,54.73-2.725c-1.376-2.594-2.149-5.463-2.149-8.487L217.624,411.667L217.624,411.667z"/>
</g>
<path id="curve28" d="M387.914,135.98c-30.479,0-55.131,26.018-55.131,58.188s24.652,58.188,55.131,58.188
	c30.479,0,55.131-26.018,55.131-58.188S418.394,135.98,387.914,135.98z M387.914,152.605c21.737,0,39.381,18.62,39.381,41.563
	c0,22.943-17.644,41.563-39.381,41.563s-39.378-18.62-39.378-41.563C348.536,171.225,366.177,152.605,387.914,152.605z
	 M387.914,277.292c-30.479,0-55.131,26.019-55.131,58.188s24.652,58.188,55.131,58.188c30.479,0,55.131-26.019,55.131-58.188
	S418.394,277.292,387.914,277.292z M387.914,293.917c21.737,0,39.381,18.619,39.381,41.563s-17.644,41.563-39.381,41.563
	s-39.378-18.619-39.378-41.563C348.538,312.537,366.177,293.917,387.914,293.917z M387.914,418.605
	c-30.479,0-55.131,26.018-55.131,58.188c0,32.171,24.652,58.189,55.131,58.189c30.479,0,55.131-26.019,55.131-58.189
	C443.045,444.623,418.394,418.605,387.914,418.605z M387.914,435.23c21.737,0,39.381,18.621,39.381,41.563
	c0,22.942-17.644,41.564-39.381,41.564s-39.378-18.622-39.378-41.564C348.536,453.851,366.177,435.23,387.914,435.23z
	 M222.052,343.792h95.453c-0.315-2.743-0.471-5.485-0.471-8.314c0-2.826,0.155-5.567,0.471-8.312h-95.453
	c0.315,2.744,0.473,5.485,0.473,8.312C222.524,338.309,222.367,341.049,222.052,343.792z M216.854,306.056l113.648-67.999
	c-3.073-4.489-5.671-9.311-7.799-14.463L209.057,291.59C212.129,296.08,214.728,300.901,216.854,306.056z M209.057,379.37
	l113.646,67.995c2.128-5.152,4.725-9.975,7.798-14.462l-113.648-67.997C214.728,370.059,212.129,374.882,209.057,379.37z"/>
<path id="curve28_2_" stroke="#000000" stroke-width="7.3663" d="M341.948,159.646l44.911,45.54L491.052,98.88l4.85,4.982
	L386.893,215.08L337.1,164.629L341.948,159.646z"/>
</svg>
