<?xml version="1.0" encoding="UTF-8"?>
<!DOCTYPE svg PUBLIC "-//W3C//DTD SVG 1.1//EN" "http://www.w3.org/Graphics/SVG/1.1/DTD/svg11.dtd">
<svg xmlns="http://www.w3.org/2000/svg" xml:space="preserve" width="580px" height="580px" shape-rendering="geometricPrecision" text-rendering="geometricPrecision" image-rendering="optimizeQuality" fill-rule="nonzero" clip-rule="nonzero" viewBox="0 0 5800 5800" xmlns:xlink="http://www.w3.org/1999/xlink">
	<title>user_monitor icon</title>
	<desc>user_monitor icon from the IconExperience.com I-Collection. Copyright by INCORS GmbH (www.incors.com).</desc>
		<path id="curve29" fill="#000000" d="M4823 1129l-33 504c25,99 20,209 -18,306 -32,83 -87,158 -167,208 -30,98 -77,218 -134,328 -47,90 -101,175 -158,239 3,68 8,146 25,216 16,71 45,133 95,162 98,60 174,82 262,108 59,18 117,36 175,57 108,39 244,88 333,173 97,92 171,207 221,330 53,131 79,271 79,405 0,198 -221,324 -526,402 -396,101 -949,133 -1275,133 -161,0 -377,-8 -602,-28l0 -200c224,20 441,28 602,28 315,0 848,-30 1226,-127 217,-55 375,-125 375,-208 0,-109 -21,-224 -64,-330 -41,-98 -98,-189 -173,-260 -60,-57 -173,-98 -264,-130 -54,-20 -108,-37 -163,-53 -102,-30 -188,-56 -305,-127 -107,-60 -162,-169 -190,-288 -25,-105 -29,-215 -31,-299 -1,-29 11,-55 30,-74 52,-51 104,-132 150,-220 60,-115 107,-238 132,-330 8,-29 28,-51 53,-64 52,-25 88,-70 108,-123 24,-61 26,-132 8,-195 -4,-12 -5,-24 -4,-35l34 -522c6,-73 -10,-145 -44,-214 -39,-83 -102,-158 -177,-216 -122,-93 -280,-139 -424,-70 -34,16 -71,12 -100,-7 -44,-28 -79,-49 -113,-64 -81,-35 -191,-46 -279,-44 -314,6 -646,187 -700,520 -5,33 -8,68 -7,103l34 514c1,13 -1,26 -5,38 -18,62 -15,131 9,192 20,53 56,98 108,123 28,14 47,40 54,69 25,92 72,213 130,324 47,90 99,171 151,221 20,20 30,46 30,72 0,82 -6,195 -32,301 -27,107 -75,207 -159,269l0 -346c0,-28 -6,-54 -16,-79 4,-37 6,-73 7,-106 -57,-65 -111,-150 -158,-240 -57,-110 -105,-229 -135,-328 -79,-50 -134,-125 -166,-209 -38,-96 -44,-206 -19,-305l-32 -499c-1,-52 2,-100 9,-145 70,-433 480,-681 894,-688 118,-3 252,13 361,60 34,15 66,32 99,53 201,-73 414,-14 580,113 100,76 183,177 236,287 48,100 72,208 63,315z"/>
	<path id="curve28" fill="#000000" d="M1000 5300l500 0 0 -400 -1200 0 0 -2000 2600 0 0 2000 -1200 0 0 400 500 0 0 200 -1200 0 0 -200zm1700 -2200l-2200 0 0 1600 2200 0 0 -1600z"/>
</svg>