<?xml version="1.0" encoding="UTF-8"?>
<!DOCTYPE svg PUBLIC "-//W3C//DTD SVG 1.1//EN" "http://www.w3.org/Graphics/SVG/1.1/DTD/svg11.dtd">
<svg xmlns="http://www.w3.org/2000/svg" xml:space="preserve" width="580px" height="580px" shape-rendering="geometricPrecision" text-rendering="geometricPrecision" image-rendering="optimizeQuality" fill-rule="nonzero" clip-rule="nonzero" viewBox="0 0 5800 5800" xmlns:xlink="http://www.w3.org/1999/xlink">
	<title>users_relation icon</title>
	<desc>users_relation icon from the IconExperience.com I-Collection. Copyright by INCORS GmbH (www.incors.com).</desc>
		<path id="curve28" fill="#000000" d="M2900 700c346,0 673,80 964,222 2,56 0,135 -6,222 -285,-156 -611,-244 -958,-244 -352,0 -683,91 -970,251 -1,-19 -3,-38 -7,-56l12 -172c291,-143 619,-223 965,-223zm2200 2165c0,11 0,23 0,35 0,835 -471,1594 -1214,1967 -39,-59 -87,-113 -146,-151 706,-327 1160,-1034 1160,-1816l0 -13c65,-6 133,-13 200,-22zm-4200 22l0 13c0,783 456,1491 1163,1817 -20,14 -120,114 -145,152 -745,-372 -1218,-1132 -1218,-1969 0,-12 0,-24 0,-35 67,9 135,16 200,22zm3421 -2422c94,-26 189,-15 279,30 90,-45 185,-56 279,-30 157,45 276,228 261,390 -13,142 0,630 135,810 -90,135 -270,135 -405,135 8,72 33,103 90,135 84,53 137,56 230,90 54,19 126,44 168,85 93,91 142,229 142,356 0,187 -616,234 -900,234 -284,0 -900,-47 -900,-234 0,-127 49,-266 142,-356 42,-41 114,-66 168,-85 93,-34 146,-37 230,-90 54,-31 81,-63 90,-135 -135,0 -315,0 -405,-135 135,-180 148,-668 135,-810 -15,-162 104,-345 261,-390zm-3661 368l18 277c-25,85 4,193 89,235 26,96 93,251 163,320 0,83 -11,225 -90,270 -84,53 -137,56 -230,90 -54,19 -126,44 -168,85 -93,90 -142,229 -142,356 0,187 616,234 900,234 284,0 900,-47 900,-234 0,-127 -49,-265 -142,-356 -42,-41 -114,-66 -168,-85 -93,-34 -146,-37 -230,-90 -82,-47 -88,-185 -90,-270 72,-71 138,-225 163,-320 85,-42 114,-150 89,-235l18 -279c19,-197 -219,-419 -416,-323 -52,-33 -83,-50 -147,-61 -251,-40 -522,112 -517,386zm2243 4667c285,0 903,-47 903,-235 0,-127 -49,-266 -143,-357 -42,-41 -114,-66 -168,-86 -93,-34 -146,-37 -231,-89 -82,-47 -43,-186 -45,-271 72,-72 93,-181 119,-277 85,-42 114,-149 89,-235 63,-256 18,-436 -118,-572 -159,-159 -542,-180 -677,-45 -316,45 -316,361 -253,617 -25,85 4,193 89,235 26,97 49,207 119,277 0,83 34,225 -45,271 -85,52 -138,55 -231,89 -55,20 -126,45 -168,86 -94,91 -143,230 -143,357 0,188 618,235 903,235z"/>
</svg>