<?xml version="1.0" encoding="UTF-8"?>
<!DOCTYPE svg PUBLIC "-//W3C//DTD SVG 1.1//EN" "http://www.w3.org/Graphics/SVG/1.1/DTD/svg11.dtd">
<svg xmlns="http://www.w3.org/2000/svg" xml:space="preserve" width="580px" height="580px" shape-rendering="geometricPrecision" text-rendering="geometricPrecision" image-rendering="optimizeQuality" fill-rule="nonzero" clip-rule="nonzero" viewBox="0 0 5800 5800" xmlns:xlink="http://www.w3.org/1999/xlink">
	<title>users3 icon</title>
	<desc>users3 icon from the IconExperience.com I-Collection. Copyright by INCORS GmbH (www.incors.com).</desc>
		<path id="curve30" fill="#000000" d="M3736 654c76,-22 154,-28 231,-20 62,6 123,22 183,47 60,-25 121,-41 183,-47 77,-8 155,-2 231,20 132,37 247,128 325,243 79,116 123,258 110,394 -10,111 -8,390 36,647 27,159 69,306 132,389l43 57 -40 59c-79,117 -195,175 -318,203 -29,6 -158,20 -150,25 68,41 122,57 185,76 44,13 87,27 130,42 82,30 184,66 254,133 74,70 130,158 168,252 41,98 61,205 61,307 0,160 -171,260 -407,321 -293,75 -702,98 -943,98 -112,0 -260,-5 -416,-18 23,-56 39,-112 54,-168 9,-8 18,-17 26,-26 126,8 244,12 336,12 230,0 619,-22 894,-92 148,-38 256,-82 256,-127 0,-77 -15,-158 -46,-232 -28,-69 -68,-133 -120,-183 -40,-38 -120,-66 -184,-89 -40,-15 -79,-27 -119,-39 -76,-22 -141,-41 -230,-95 -7,14 -109,-86 -120,-101 -31,-43 -48,-93 -55,-160l-13 -111 112 0c89,0 193,0 283,-20 58,-13 113,-35 156,-73 -60,-109 -100,-255 -126,-408 -46,-273 -49,-575 -37,-697 8,-88 -22,-183 -77,-263 -53,-79 -129,-140 -214,-164 -52,-15 -104,-19 -156,-14 -54,6 -108,22 -160,48l-44 21 -44 -21c-52,-26 -106,-42 -160,-48 -51,-5 -104,-1 -156,14 -85,24 -161,85 -214,164 -55,80 -85,175 -77,263 12,122 9,424 -37,697 -2,15 -5,30 -8,45 -60,-28 -124,-51 -190,-69l1 -8c44,-257 46,-536 36,-647 -13,-136 31,-278 110,-394 78,-115 193,-206 325,-243z"/>
	<path id="curve29" fill="#000000" d="M1024 1623c0,3 -4,35 -4,35 -12,40 -10,86 5,126 13,33 35,61 66,76 29,14 48,40 55,69 18,65 52,151 93,231 33,64 70,121 106,156 20,19 30,45 30,71 12,0 -19,209 -26,233 -24,92 -69,177 -150,223 -87,47 -136,68 -230,95 -40,12 -79,25 -119,39 -64,23 -144,51 -184,89 -52,50 -92,113 -120,182 -31,75 -46,156 -46,233 0,45 108,89 256,127 275,70 664,92 894,92 92,0 210,-4 336,-12 8,9 17,18 26,26 15,56 32,112 55,168 -157,13 -305,18 -417,18 -241,0 -650,-23 -943,-98 -236,-61 -407,-161 -407,-321 0,-102 20,-209 61,-308 38,-93 94,-181 168,-251 70,-67 172,-103 254,-133 43,-15 86,-29 130,-42 76,-23 118,-39 188,-78 26,-15 43,-54 55,-98 11,-50 17,-95 18,-146 -40,-48 -79,-109 -112,-173 -41,-79 -75,-164 -98,-236 -59,-40 -100,-97 -125,-160 -29,-75 -34,-160 -15,-237l-24 -361c-2,-35 2,-79 7,-113 27,-166 119,-298 246,-389 123,-87 278,-136 437,-139 48,-1 96,2 144,10 53,8 93,20 132,37 23,10 44,21 65,33 57,-18 115,-24 172,-18 96,9 189,49 267,109 77,59 140,136 181,221 37,77 56,160 49,243l-24 367c19,77 14,162 -15,237 -24,63 -66,120 -125,160 -5,15 -10,31 -16,47 -136,43 -241,112 -320,200 21,-30 42,-65 61,-102 43,-83 77,-172 95,-237 2,-8 53,-64 53,-64 31,-15 54,-43 66,-76 15,-40 17,-86 5,-127 -1,-2 -4,-34 -4,-34l25 -380c4,-55 -5,-97 -29,-147 -28,-57 -71,-110 -123,-149 -50,-39 -108,-64 -165,-70 -40,-4 -80,2 -119,21 -33,16 -71,12 -100,-7 -31,-20 -55,-35 -78,-45 -23,-9 -49,-17 -84,-22 -37,-6 -74,-9 -110,-8 -119,2 -234,38 -324,103 -85,61 -147,148 -165,257 -3,22 -5,46 -5,70l25 377z"/>
	<path id="curve28" fill="#000000" d="M3880 5397c243,-62 420,-165 420,-330 0,-105 -21,-216 -63,-318 -39,-98 -97,-188 -174,-261 -72,-69 -178,-107 -263,-138 -45,-16 -89,-30 -134,-44 -67,-19 -122,-36 -194,-80 -44,-27 -26,-147 -22,-191 1,-23 3,-45 4,-68 89,-104 123,-233 155,-356l3 -10c60,-41 103,-100 128,-165 28,-75 34,-158 17,-235 44,-186 49,-348 17,-490 -33,-153 -108,-281 -219,-391 -132,-130 -349,-204 -560,-217 -203,-14 -406,29 -529,130 -17,3 -32,6 -47,10 -198,49 -313,169 -372,322 -55,142 -58,311 -35,475 8,55 18,109 31,161 -17,76 -11,160 18,235 25,65 67,124 127,165 34,129 69,262 158,367 1,17 3,35 4,54 7,84 15,184 -19,202 -73,42 -117,59 -197,82 -45,14 -89,28 -134,44 -85,31 -191,69 -263,138 -77,73 -135,163 -174,261 -42,102 -63,213 -63,318 0,165 177,268 420,330 306,78 730,103 980,103 250,0 674,-25 980,-103zm-594 -1541c-20,19 -31,45 -31,74 1,21 -2,55 -5,89 -11,140 -24,298 121,380 92,56 159,75 238,99 42,12 83,24 124,40 67,24 151,54 193,94 54,52 97,119 126,192 32,78 48,162 48,243 0,50 -113,97 -269,137 -285,73 -691,96 -931,96 -240,0 -646,-23 -931,-96 -156,-40 -269,-87 -269,-137 0,-80 16,-165 48,-243 29,-73 72,-140 126,-192 42,-40 126,-70 193,-94 41,-15 82,-28 124,-40 96,-29 149,-50 238,-99 145,-82 132,-251 120,-393 0,-6 -4,-79 -4,-79 0,-26 -10,-51 -30,-71 -71,-68 -102,-188 -132,-300 -1,-4 -2,-6 -11,-41 -7,-29 -26,-55 -55,-69 -33,-17 -57,-47 -71,-82 -15,-41 -17,-89 -6,-131 6,-17 7,-37 2,-56 -13,-54 -24,-109 -32,-164 -19,-135 -18,-270 23,-376 36,-95 109,-169 235,-200 5,-2 56,-11 56,-11 20,-3 40,-12 56,-28 77,-76 236,-107 403,-96 167,11 336,65 432,160 84,82 139,178 164,291 26,119 20,259 -21,424 0,0 0,48 1,53 13,43 11,92 -5,135 -13,34 -37,64 -71,81 -25,12 -45,34 -53,63 -9,34 -12,43 -14,51 -29,110 -59,227 -130,296z"/>
</svg>