<?xml version="1.0" encoding="UTF-8"?>
<!DOCTYPE svg PUBLIC "-//W3C//DTD SVG 1.1//EN" "http://www.w3.org/Graphics/SVG/1.1/DTD/svg11.dtd">
<svg xmlns="http://www.w3.org/2000/svg" xml:space="preserve" width="580px" height="580px" shape-rendering="geometricPrecision" text-rendering="geometricPrecision" image-rendering="optimizeQuality" fill-rule="nonzero" clip-rule="nonzero" viewBox="0 0 5800 5800" xmlns:xlink="http://www.w3.org/1999/xlink">
	<title>user icon</title>
	<desc>user icon from the IconExperience.com I-Collection. Copyright by INCORS GmbH (www.incors.com).</desc>
		<path id="curve28" fill="#000000" d="M3121 613c-54,-34 -96,-60 -139,-79 -98,-43 -228,-56 -334,-55 -383,8 -774,232 -839,635 -7,42 -11,86 -10,132l40 614c1,13 -1,27 -6,39 -21,77 -17,165 12,242 25,67 71,125 136,157 27,14 45,37 52,64 30,112 87,261 157,397 55,110 118,209 180,270 20,19 30,45 30,71 0,97 -7,230 -38,357 -35,139 -98,264 -212,330 -137,84 -238,115 -356,150 -65,20 -129,40 -193,64 -108,39 -243,88 -315,158 -91,88 -160,199 -208,319 -52,129 -78,269 -78,402 0,111 191,200 455,268 444,116 1073,152 1445,152 372,0 1001,-36 1445,-152 264,-68 455,-157 455,-268 0,-134 -26,-273 -78,-402 -47,-120 -117,-231 -208,-319 -72,-70 -207,-119 -315,-158 -196,-71 -371,-103 -553,-217 -117,-70 -178,-194 -210,-329 -28,-122 -33,-253 -36,-353 0,-28 11,-54 30,-73 63,-62 125,-161 180,-269 71,-137 127,-287 157,-398 8,-30 29,-53 56,-65 63,-33 108,-90 133,-156 29,-78 32,-168 9,-247 -3,-12 -4,-23 -4,-34l41 -624c8,-93 -15,-187 -58,-275 -48,-99 -124,-191 -214,-260 -148,-112 -338,-167 -512,-82 -32,16 -69,12 -97,-6zm628 3000c167,104 338,133 518,200 126,46 283,104 386,203 111,108 196,243 254,389 62,153 93,318 93,475 0,225 -254,370 -605,461 -465,121 -1113,159 -1495,159 -382,0 -1030,-38 -1495,-159 -351,-91 -605,-236 -605,-461 0,-157 31,-322 93,-476 58,-145 143,-280 254,-388 103,-99 260,-157 386,-203 68,-25 135,-46 204,-67 104,-32 193,-58 310,-131 62,-35 99,-114 121,-205 23,-91 30,-190 32,-271 -68,-76 -133,-179 -188,-289 -68,-133 -125,-278 -160,-395 -92,-58 -157,-145 -194,-244 -42,-112 -49,-240 -19,-355l-39 -598c-3,-54 3,-123 12,-176 81,-501 551,-793 1033,-802 136,-2 293,17 417,71 41,19 79,40 122,66 230,-87 476,-20 667,126 114,87 210,203 272,331 59,119 88,249 78,376l-40 606c30,115 24,243 -19,355 -37,99 -101,186 -194,244 -35,117 -91,262 -159,396 -56,108 -120,211 -188,288 3,82 9,181 30,270 20,88 55,166 118,204z"/>
</svg>