<?xml version="1.0" encoding="UTF-8"?>
<!DOCTYPE svg PUBLIC "-//W3C//DTD SVG 1.1//EN" "http://www.w3.org/Graphics/SVG/1.1/DTD/svg11.dtd">
<svg xmlns="http://www.w3.org/2000/svg" xml:space="preserve" width="580px" height="580px" shape-rendering="geometricPrecision" text-rendering="geometricPrecision" image-rendering="optimizeQuality" fill-rule="nonzero" clip-rule="nonzero" viewBox="0 0 5800 5800" xmlns:xlink="http://www.w3.org/1999/xlink">
	<title>users_crowd icon</title>
	<desc>users_crowd icon from the IconExperience.com I-Collection. Copyright by INCORS GmbH (www.incors.com).</desc>
		<path id="curve28" fill="#000000" d="M3000 5300c183,0 493,-18 710,-74 110,-29 190,-59 190,-86 0,-61 -12,-124 -35,-183 -21,-53 -53,-103 -93,-142 -28,-27 -90,-50 -139,-68l-1 0 0 0 -11 -4c-30,-11 -57,-19 -82,-27 -63,-19 -117,-35 -192,-81l-2 -2c-118,-71 -108,-199 -98,-313 2,-27 4,-52 3,-68 0,-28 11,-54 30,-73l0 0c51,-50 73,-138 95,-221 6,-23 9,-35 10,-40 8,-30 29,-53 55,-65 19,-10 33,-29 41,-50 11,-29 12,-63 4,-92 -5,-18 -5,-35 -1,-52l0 0c31,-126 35,-232 16,-321 -18,-85 -59,-156 -121,-217 -70,-70 -194,-110 -317,-119 -122,-8 -237,14 -291,69 -18,17 -39,27 -62,29 -12,1 -23,4 -33,6 -90,22 -142,76 -168,144 -30,81 -30,184 -15,287 6,42 14,83 24,122 4,19 3,38 -3,55 -7,29 -6,61 5,89 9,22 23,41 44,52 26,13 45,36 52,63l0 0c4,17 3,12 9,37 23,85 46,175 96,224 20,19 30,45 30,71l0 0c0,18 2,39 3,60 9,117 20,256 -103,327l-1 0c-73,45 -126,61 -188,79 -25,8 -52,16 -82,27l-11 4c-2,1 -3,1 -5,2 -49,18 -108,40 -135,66 -40,39 -71,89 -93,142 -23,59 -35,122 -35,183 0,27 80,57 190,86 217,56 527,74 710,74zm-2006 -2831c58,-16 118,-21 177,-15 44,5 87,15 129,32 42,-17 85,-27 129,-32 59,-6 119,-1 177,15 102,29 190,101 250,190 60,90 93,200 83,305 -7,81 -5,281 26,467 19,114 47,218 90,274l42 57 -39 58c-69,104 -168,148 -270,166 16,7 33,12 51,17 25,8 53,16 86,28l0 0 9 3c62,23 138,51 193,104 56,54 98,121 127,194 4,9 7,18 11,28 -8,2 -16,5 -24,8l-11 4c-5,2 -9,4 -14,6 -43,16 -89,33 -136,58 -3,-10 -7,-21 -11,-31 -19,-47 -46,-90 -81,-124 -24,-23 -78,-43 -122,-59l-10 -4 0 0c-27,-10 -51,-17 -74,-24 -58,-17 -106,-32 -175,-74l0 0c-39,-23 -69,-47 -92,-81l0 0c-25,-35 -38,-75 -44,-128l-12 -111 111 0c92,0 208,0 281,-50 -39,-80 -66,-181 -83,-286 -34,-203 -36,-427 -27,-518 5,-58 -15,-122 -51,-176 -35,-52 -84,-93 -138,-109 -35,-9 -69,-12 -102,-9 -36,4 -71,15 -105,32l-45 22 -45 -22c-34,-17 -69,-28 -105,-32 -33,-3 -67,0 -102,9 -54,16 -103,57 -138,109 -36,54 -56,118 -51,176 9,91 7,315 -27,518 -17,105 -44,206 -83,286 73,50 189,50 281,50l112 0 -13 112c-6,53 -21,93 -45,128l0 0c-25,35 -55,59 -94,82l0 0c-67,41 -115,55 -172,72 -23,7 -47,14 -74,24l0 0 -10 4c-44,16 -98,36 -122,59 -35,34 -62,77 -81,124 -21,51 -31,107 -31,161 0,19 69,43 164,68 194,50 471,66 636,66 141,0 364,-12 547,-46 -33,49 -60,102 -82,156 -8,21 -16,41 -22,62 -162,20 -329,28 -443,28 -174,0 -472,-18 -686,-73 -182,-48 -314,-129 -314,-261 0,-77 15,-158 46,-234 29,-73 71,-140 127,-194 55,-53 131,-81 193,-104l9 -3 0 0c33,-12 61,-20 86,-28 18,-5 35,-10 51,-17 -102,-18 -201,-62 -270,-166l-39 -58 42 -57c43,-56 71,-160 90,-274 31,-186 33,-386 26,-467 -10,-105 23,-215 83,-305 60,-89 148,-161 250,-190zm3000 -751c58,-17 118,-21 177,-15 44,4 87,15 129,32 42,-17 85,-28 129,-32 59,-6 119,-2 177,15 102,29 190,101 250,190 60,90 93,200 83,305 -3,37 -5,100 -2,175 -52,-21 -107,-35 -164,-40 -12,-2 -24,-2 -36,-3 -1,-63 1,-116 4,-150 5,-58 -15,-122 -51,-176 -35,-52 -84,-93 -138,-109 -35,-9 -69,-12 -102,-9 -36,4 -71,15 -105,32l-45 22 -45 -22c-34,-17 -69,-28 -105,-32 -33,-3 -67,0 -102,9 -54,16 -103,57 -138,109 -36,54 -56,117 -51,176 6,62 7,184 -3,319 -90,88 -155,201 -182,336 -4,-4 -8,-8 -12,-12 -16,-16 -32,-31 -50,-45 9,-35 17,-74 23,-113 31,-186 33,-387 26,-467 -10,-105 23,-215 83,-305 60,-89 148,-161 250,-190zm83 1545c1,13 -1,26 -5,38 -6,23 -4,49 5,72 6,18 18,33 34,41 27,14 45,37 52,64l0 0c13,47 37,110 66,168 23,45 48,84 71,107 20,20 30,45 30,71l0 0c0,47 -3,111 -19,173 0,2 0,3 -1,5 -19,73 -55,141 -120,179l-1 0c-66,41 -114,56 -171,73 -23,6 -47,14 -74,23l-10 4c-1,1 -3,1 -4,2 -43,15 -95,35 -118,57 -12,11 -22,23 -32,36l-10 -3 0 -1 -11 -4c-39,-14 -71,-24 -100,-32 36,-61 59,-124 77,-185 41,-24 86,-41 125,-56 2,0 3,-1 5,-1l9 -4c33,-12 61,-20 86,-28 43,-13 79,-24 123,-51 2,-1 4,-2 6,-4 12,-6 20,-28 27,-54l1 -3c7,-29 10,-60 11,-89 -28,-36 -55,-79 -78,-124 -28,-56 -53,-117 -69,-169 -30,-22 -54,-50 -72,-81 3,-83 -4,-160 -19,-234 -6,-24 -12,-48 -19,-71l-12 -183 0 0c0,-2 0,-3 0,-5 0,-30 2,-59 6,-87 21,-128 92,-230 188,-300 93,-67 211,-104 331,-106 36,-1 72,1 108,7 42,7 73,16 102,29 14,6 26,13 39,20 41,-12 81,-15 121,-11 75,7 146,38 206,84 58,44 107,103 139,168 30,61 45,128 40,194l0 4 -17 264c13,60 9,126 -13,184 -18,48 -49,92 -92,124 -16,52 -41,113 -69,169 -23,45 -49,88 -78,124 2,29 5,61 11,90 6,26 14,48 26,55 1,1 3,2 5,3 46,29 82,40 126,53 25,8 53,16 86,28l0 0 9 4c62,22 139,50 193,103 56,54 98,122 127,194 31,76 46,157 46,234 0,133 -132,214 -314,261 -214,56 -512,73 -686,73 -61,0 -138,-2 -221,-7 -11,-48 -25,-95 -44,-142 -9,-21 -18,-43 -29,-64 110,10 215,13 294,13 165,0 442,-16 636,-66 95,-25 164,-49 164,-68 0,-54 -10,-109 -31,-161 -19,-46 -46,-90 -81,-124 -24,-23 -78,-43 -122,-59l-10 -4 0 0 0 0c-27,-9 -51,-17 -74,-23 -57,-18 -106,-32 -175,-75l-2 -2c-66,-40 -100,-108 -117,-181 -14,-59 -16,-122 -18,-170 0,-28 11,-54 30,-73l0 0c24,-23 48,-63 71,-107 30,-58 53,-121 66,-168 8,-30 29,-53 55,-65 15,-8 25,-23 32,-40 9,-24 10,-52 3,-76 -4,-12 -5,-23 -4,-34l0 0 18 -279c0,-3 0,-5 1,-8 1,-29 -7,-60 -21,-90 -18,-37 -47,-72 -81,-98 -32,-24 -68,-40 -103,-44 -23,-2 -47,2 -70,13 -32,16 -69,12 -97,-6l0 0c-22,-14 -39,-24 -55,-31 -15,-7 -31,-11 -54,-15 -25,-4 -49,-6 -73,-5 -79,1 -156,25 -217,69 -56,41 -96,98 -108,170 -3,16 -4,31 -4,47l18 277zm-1876 -285c-26,-28 -46,-61 -60,-97 -1,-3 -2,-7 -4,-11 -3,-33 -8,-66 -16,-98 -1,-24 1,-47 6,-70 -9,-36 -16,-72 -21,-109 -18,-124 -16,-253 25,-362 46,-121 135,-215 290,-253 8,-2 16,-4 24,-5 94,-75 242,-107 391,-97 158,10 323,66 423,166l0 0c83,83 139,181 164,298 22,99 20,212 -6,339 -62,-25 -126,-44 -192,-57 17,-92 18,-171 3,-240 -17,-77 -54,-142 -111,-199l0 0c-64,-64 -179,-101 -293,-108 -111,-7 -215,13 -263,62 -18,17 -39,27 -62,29 -11,1 -21,3 -30,6 -81,20 -128,68 -151,129 -28,74 -28,169 -14,264 5,39 13,77 22,113 5,19 3,38 -2,55 -7,25 -5,53 4,78 3,7 6,13 10,19 -56,42 -101,92 -137,148zm424 -2461c53,-16 108,-20 162,-14 38,4 76,13 113,27 37,-14 75,-23 113,-27 54,-6 109,-2 162,14 93,26 173,91 228,173 26,38 46,81 60,125 -68,13 -132,34 -190,63 -7,-27 -19,-53 -35,-77 -30,-44 -72,-79 -117,-92 -29,-8 -58,-11 -87,-8 -30,3 -60,12 -89,27l-45 22 -45 -22c-29,-15 -59,-24 -89,-27 -29,-3 -57,0 -87,8 -45,13 -87,48 -117,92 -27,40 -43,87 -43,132 -36,-11 -72,-18 -109,-22 -30,-2 -60,-3 -90,0 5,-78 33,-155 77,-221 55,-82 135,-147 228,-173zm-1917 1886c-5,-50 1,-103 19,-151 -4,-26 -6,-53 -6,-82l1 0c0,-124 35,-270 114,-392 81,-127 206,-230 383,-265 42,-9 86,-13 133,-13 46,0 90,4 132,13 177,35 302,138 383,265 62,97 98,207 110,310 -12,23 -23,48 -32,73 -30,78 -44,162 -48,246 -32,-28 -67,-53 -104,-74 -2,-8 -5,-16 -9,-24l0 -1c-10,-20 -13,-43 -9,-64l0 0c5,-22 7,-47 7,-74 0,-90 -26,-196 -83,-284 -54,-85 -137,-154 -254,-177 -29,-6 -60,-9 -93,-9 -34,0 -65,3 -94,9 -117,23 -200,92 -254,177 -57,89 -83,194 -83,284l0 0c0,27 2,52 7,74 2,13 2,25 1,36 -82,25 -157,68 -221,123zm3280 -889c-1,-21 -4,-41 -8,-60 -13,-63 -44,-117 -91,-163l0 0c-53,-53 -148,-84 -243,-89 -91,-6 -176,10 -215,49 -17,17 -39,26 -62,29 -8,1 -16,2 -24,4 -64,16 -101,54 -120,103 -23,61 -23,140 -11,220 4,32 11,65 19,96 4,18 3,37 -2,54 -2,7 -3,14 -3,21 -62,-32 -130,-57 -200,-74 -4,-23 -8,-46 -12,-69 -15,-109 -14,-222 23,-318 40,-108 120,-192 259,-226 6,-2 11,-3 17,-4 84,-65 214,-93 343,-85 139,9 284,59 373,147l0 0c73,74 122,160 145,263 6,30 10,60 12,92 -67,-7 -134,-4 -200,10zm-2402 -182c32,-66 81,-121 140,-163 88,-64 200,-100 315,-102 35,-1 69,2 103,7 40,7 70,15 98,28 12,5 24,11 36,18 38,-11 76,-14 114,-10 71,6 140,36 197,80 55,42 102,99 132,161 29,59 44,123 39,186l0 4 -9 134c-69,3 -137,13 -202,30l12 -176c0,-3 0,-5 1,-8 1,-26 -6,-55 -20,-82 -16,-35 -43,-66 -74,-90 -30,-23 -62,-38 -94,-41 -22,-2 -43,1 -64,11 -32,16 -69,13 -97,-5l0 0c-21,-13 -36,-23 -51,-29 -14,-6 -29,-11 -50,-14 -23,-4 -46,-5 -68,-5 -74,1 -145,24 -201,64 -30,22 -55,49 -73,80 -55,-33 -117,-59 -184,-78zm2289 -492c66,-61 151,-108 254,-128 38,-8 78,-12 121,-12 43,0 83,4 121,12 161,32 276,126 350,242 72,112 104,244 104,357 0,25 -1,49 -4,72 19,56 23,118 11,174 -3,14 -7,28 -12,42 -49,-32 -102,-57 -159,-73 -8,-2 -17,-5 -25,-7l1 -2c5,-26 3,-55 -9,-77 -3,-6 -5,-12 -6,-18 -5,-16 -5,-31 -2,-46l-1 -1c4,-19 6,-41 6,-64 0,-79 -22,-172 -72,-249 -47,-74 -120,-134 -221,-154 -25,-5 -53,-8 -82,-8 -29,0 -57,3 -82,8 -30,6 -58,16 -84,28 -62,-42 -134,-74 -209,-96zm-2843 521c1,-17 2,-33 5,-49 -7,-31 -12,-61 -17,-92 -15,-109 -14,-222 23,-318 40,-109 120,-193 259,-227 5,-1 11,-2 17,-4 84,-64 214,-92 343,-84 139,9 284,59 373,147l0 0c36,37 67,76 91,119 -1,6 -2,12 -2,18 -29,-3 -57,-4 -86,-3 -47,0 -93,5 -138,14 -2,-2 -4,-4 -7,-7l0 0c-53,-52 -148,-83 -243,-89 -91,-5 -176,10 -215,49 -17,18 -39,27 -62,29 -8,2 -16,3 -24,5 -64,16 -101,54 -120,103 -23,61 -23,140 -11,220 4,32 11,64 19,95 1,7 2,13 2,20 -20,3 -40,6 -59,10 -53,10 -102,25 -148,44zm2728 4058c-238,62 -567,81 -760,81 -193,0 -522,-19 -760,-81 -197,-51 -340,-138 -340,-279 0,-84 17,-173 50,-256 32,-79 78,-153 139,-212 57,-55 139,-86 205,-110 2,-1 3,-2 5,-2l11 -4c36,-13 66,-23 94,-31 48,-14 89,-27 140,-58 2,-1 4,-2 6,-4 14,-8 9,-78 4,-138 -1,-12 -2,-24 -3,-36 -66,-82 -93,-184 -119,-281 -46,-35 -80,-82 -100,-135 -22,-60 -27,-128 -15,-190 -9,-39 -16,-78 -22,-118 -19,-132 -17,-269 27,-385 48,-128 142,-227 306,-268 9,-2 18,-4 27,-6 100,-80 260,-114 420,-103 167,11 340,71 446,176 88,89 147,193 174,317 25,112 21,240 -12,387 12,63 8,130 -15,190 -20,53 -53,100 -100,135l0 0c-25,96 -51,197 -119,281 -1,16 -2,31 -3,47 -5,55 -10,117 2,127 2,0 3,1 5,2 52,33 94,45 143,60 28,8 58,18 94,31l11 4 0 0c67,25 151,55 210,112 61,59 107,133 139,212 33,83 50,172 50,256 0,141 -143,228 -340,279z"/>
</svg>