<?xml version="1.0" encoding="UTF-8"?>
<!DOCTYPE svg PUBLIC "-//W3C//DTD SVG 1.1//EN" "http://www.w3.org/Graphics/SVG/1.1/DTD/svg11.dtd">
<svg xmlns="http://www.w3.org/2000/svg" xml:space="preserve" width="580px" height="580px" shape-rendering="geometricPrecision" text-rendering="geometricPrecision" image-rendering="optimizeQuality" fill-rule="nonzero" clip-rule="nonzero" viewBox="0 0 5800 5800" xmlns:xlink="http://www.w3.org/1999/xlink">
	<title>user_headset icon</title>
	<desc>user_headset icon from the IconExperience.com I-Collection. Copyright by INCORS GmbH (www.incors.com).</desc>
		<path id="curve29" fill="#000000" d="M3709 3698c113,70 198,96 297,126 66,20 130,40 194,64 121,44 271,99 369,194 106,103 187,232 243,371 58,146 88,303 88,453 0,216 -243,356 -579,443 -442,115 -1058,151 -1421,151 -363,0 -979,-36 -1421,-151 -336,-87 -579,-227 -579,-443 0,-149 30,-307 88,-454 56,-138 137,-267 243,-370 98,-95 248,-150 368,-194 65,-24 129,-44 195,-64 98,-30 189,-59 296,-126 56,-31 90,-107 111,-192 20,-83 27,-176 29,-252 -65,-73 -126,-171 -178,-274 -37,-73 -71,-149 -99,-222 72,-43 125,-115 141,-200 31,99 79,219 136,331 52,104 112,197 170,255 9,9 47,71 30,71 0,93 -6,219 -36,338 -32,133 -93,255 -204,319 -131,80 -227,109 -339,143 -62,19 -123,38 -184,60 -102,38 -229,84 -297,150 -86,83 -151,188 -197,301 -48,122 -73,254 -73,380 0,103 180,186 429,250 421,110 1018,144 1371,144 353,0 950,-34 1371,-144 249,-64 429,-147 429,-250 0,-126 -25,-258 -73,-380 -46,-113 -111,-218 -197,-301 -68,-66 -195,-112 -298,-150 -60,-22 -121,-41 -183,-60 -113,-34 -210,-63 -343,-146 -113,-67 -171,-186 -201,-316 -25,-104 -31,-215 -34,-305 27,-14 53,-30 76,-48l113 0c19,0 37,-1 55,-2 -14,20 -29,38 -44,55 2,78 8,171 28,255 19,82 52,155 110,190z"/>
	<path id="curve28" fill="#000000" d="M4300 1400l-200 0 0 1000 200 0c110,0 200,-90 200,-200l0 -600c0,-111 -89,-200 -200,-200zm-108 1200c-17,95 -61,196 -155,274 -89,75 -222,126 -417,126l-230 0c-46,60 -130,100 -228,100 -144,0 -262,-90 -262,-200 0,-110 118,-200 262,-200 98,0 182,40 228,100l230 0c143,0 234,-32 290,-79 40,-34 64,-77 77,-122 -49,-6 -87,-48 -87,-99l0 -1200c0,-511 -543,-800 -1000,-800 -457,0 -1000,289 -1000,800l0 1200c0,55 -45,100 -100,100l-300 0c-220,0 -400,-180 -400,-400l0 -600c0,-220 180,-400 400,-400l206 0c68,-574 658,-900 1194,-900 536,0 1126,326 1194,900l206 0c220,0 400,180 400,400l0 600c0,220 -180,400 -400,400l-108 0zm-2492 -1200l-200 0c-111,0 -200,89 -200,200l0 600c0,110 90,200 200,200l200 0 0 -1000z"/>
</svg>