<?xml version="1.0" encoding="UTF-8" standalone="no"?>
<svg
   xmlns:dc="http://purl.org/dc/elements/1.1/"
   xmlns:cc="http://creativecommons.org/ns#"
   xmlns:rdf="http://www.w3.org/1999/02/22-rdf-syntax-ns#"
   xmlns:svg="http://www.w3.org/2000/svg"
   xmlns="http://www.w3.org/2000/svg"
   id="svg11"
   version="1.1"
   viewBox="0 0 10240 10240"
   clip-rule="evenodd"
   fill-rule="nonzero"
   image-rendering="optimizeQuality"
   text-rendering="geometricPrecision"
   shape-rendering="geometricPrecision"
   height="1024px"
   width="1024px"
   xml:space="preserve"><metadata
   id="metadata17"><rdf:RDF><cc:Work
       rdf:about=""><dc:format>image/svg+xml</dc:format><dc:type
         rdf:resource="http://purl.org/dc/dcmitype/StillImage" /><dc:title>market_stand icon</dc:title></cc:Work></rdf:RDF></metadata><defs
   id="defs15" />
	<title
   id="title2">market_stand icon</title>
	<desc
   id="desc4">market_stand icon from the IconExperience.com O-Collection. Copyright by INCORS GmbH (www.incors.com).</desc>
	<path
   style="fill:#252525;stroke-width:0.80000001"
   d="m 6930.4,6972 c 4.8,-228 73.6,-354.4 197.6,-453.6 84,57.6 186.4,91.2 296,91.2 109.6,0 212,-33.6 296,-91.2 124,100 192.8,225.6 197.6,453.6 l -0.8,8 H 6930.4 Z M 7424,5692 c 218.4,0 395.2,176.8 395.2,395.2 0,217.6 -176.8,394.4 -395.2,394.4 -218.4,0 -395.2,-176.8 -395.2,-394.4 0,-218.4 176.8,-395.2 395.2,-395.2 z"
   id="curve4" />
	<path
   style="fill:#252525;stroke-width:0.80000001"
   d="m 7936,6972 h 512 v 256 768 H 7936 V 7484 H 4864 v 512 H 4352 V 6972 Z"
   id="curve3" />
	<path
   style="fill:#252525;stroke-width:0.80000001"
   d="m 6144,6460 c 141.6,0 256,114.4 256,256 0,141.6 -114.4,256 -256,256 -46.4,0 -90.4,-12.8 -128,-34.4 -37.6,21.6 -81.6,34.4 -128,34.4 -46.4,0 -90.4,-12.8 -128,-34.4 -37.6,21.6 -81.6,34.4 -128,34.4 -46.4,0 -90.4,-12.8 -128,-34.4 -37.6,21.6 -81.6,34.4 -128,34.4 -46.4,0 -90.4,-12.8 -128,-34.4 -37.6,21.6 -81.6,34.4 -128,34.4 -46.4,0 -90.4,-12.8 -128,-34.4 -37.6,21.6 -81.6,34.4 -128,34.4 -141.6,0 -256,-114.4 -256,-256 0,-141.6 114.4,-256 256,-256 v 0 c 0,-141.6 114.4,-256 256,-256 46.4,0 90.4,12.8 128,34.4 37.6,-21.6 81.6,-34.4 128,-34.4 46.4,0 90.4,12.8 128,34.4 37.6,-21.6 81.6,-34.4 128,-34.4 139.2,0 252,110.4 256,248 0,3.2 -0.8,5.6 -0.8,8 h 0.8 c 46.4,0 90.4,12.8 128,34.4 37.6,-21.6 81.6,-34.4 128,-34.4 z"
   id="curve2" />
	<path
   style="fill:#252525;stroke-width:0.80000001"
   d="M 9472,5180 V 7996 H 8704 V 5436 H 4096 V 7996 H 3328 V 5180 c 305.6,0 580,-134.4 768,-346.4 188,212 462.4,346.4 768,346.4 305.6,0 580,-134.4 768,-346.4 188,212 462.4,346.4 768,346.4 305.6,0 580,-134.4 768,-346.4 188,212 462.4,346.4 768,346.4 305.6,0 580,-134.4 768,-346.4 188,212 462.4,346.4 768,346.4 z"
   id="curve1" />
	<path
   style="fill:#252525;stroke-width:0.80000001"
   d="M 9027.2,2364 10240,3900 v 256 c 0,424 -344,768 -768,768 -424,0 -768,-344 -768,-768 V 3900 L 7976.8,2364 Z M 4096,3900 v 256 c 0,424 -344,768 -768,768 -424,0 -768,-344 -768,-768 V 3900 L 3772.8,2364 H 4823.2 Z M 6925.6,2364 7168,3900 v 256 c 0,424 -344,768 -768,768 -424,0 -768,-344 -768,-768 v -256 l 242.4,-1536 z"
   id="curve0" />
<path
   d="m 1407.7031,7515.1302 592.92,-592.92 H 157.42316 c -63.36,0 -115.2,-51.84 -115.2,-115.2 v -460.8 c 0,-63.36 51.84,-115.2 115.2,-115.2 H 2000.6231 l -592.92,-592.92 c -16.92,-16.92 -21.6,-40.68 -12.6,-62.64 9.36,-21.96 29.52,-35.64 53.28,-35.64 h 743.04 c 63.36,0 118.08,22.68 162.72,67.32 l 888.12,888.12 c 44.64,44.64 44.64,118.08 0,162.72 l -888.12,887.76 c -44.64,45 -99.36,67.68 -162.72,67.68 h -743.04 c -23.76,0 -43.92,-13.68 -53.28,-35.64 -9,-21.96 -4.32,-46.08 12.6,-62.64 z"
   id="curve0-5"
   style="fill:#252525;stroke-width:0.36000001" /></svg>