<?xml version="1.0" encoding="utf-8"?>
<svg
   id="svg11"
   version="1.1"
   viewBox="0 0 5800 5800"
   clip-rule="evenodd"
   fill-rule="nonzero"
   image-rendering="optimizeQuality"
   text-rendering="geometricPrecision"
   shape-rendering="geometricPrecision"
   height="580px"
   width="580px"
   xml:space="preserve"
   xmlns="http://www.w3.org/2000/svg"
   xmlns:svg="http://www.w3.org/2000/svg"><defs
   id="defs3159" />


<g
   id="g3163"
   transform="matrix(10.138585,0,0,10.243853,688.4958,249.99438)"><path
     d="m 69.903,426.759 c -22.5,-5.895 -38.9,-13.395 -38.9,-22.395 0,-11.503 2.3,-23.605 6.7,-34.806 4.099,-10.3 10.099,-19.896 17.899,-27.396 6.2,-6 17.801,-10.303 27.2,-13.701 5.601,-2 11.101,-3.799 16.8,-5.5 10.4,-3.198 19.3,-5.799 31.4,-13.299 10.8,-6.201 16.401,-17.603 19.3,-29.899 2.5,-10.8 2.9,-22.3 3.2,-31.1 0,-2.901 -1.1,-5.5 -3,-7.301 -5.401,-5.4 -10.8,-13.9 -15.6,-23.3 -6,-12 -10.9,-25 -13.5,-34.7 -0.801,-3 -2.901,-5.3 -5.601,-6.5 -5.3,-2.699 -8.899,-7.5 -11,-13 -2.5,-6.599 -2.8,-14.199 -0.8,-20.899 0.299,-1.1 0.5,-2.2 0.4,-3.4 l -3.601,-54.6 c -0.6,-8.101 1.3,-16.101 5,-23.601 4.2,-8.5 10.6,-16.3 18.4,-22.3 7.5,-5.7 16.1,-9.599 24.8,-10.399 6.201,-0.601 12.6,0.399 18.6,3.399 3.2,1.6 6.9,1.2 9.805,-0.599 8.7,-5.6 14.2,-8.7 24.6,-10.4 21.799,-3.5 45.4,1.101 63.4,14.101 12.799,9.3 22.198,22.699 24.896,39.3 0.604,3.7 0.901,7.4 0.803,11.3 l -3.5,53.8 c -0.103,1.4 0.102,2.7 0.5,3.9 1.801,6.599 1.5,14 -0.898,20.399 -2.2,5.7 -5.901,10.5 -11.3,13.2 -2.7,1.3 -4.5,3.7 -5.302,6.3 -2.601,9.801 -7.5,22.701 -13.601,34.601 -4.8,9.5 -10.2,18.1 -15.5,23.3 -2,2 -3,4.6 -3,7.1 0,8.6 0.6,20.3 3.3,31.399 0.624,2.577 1.372,5.114 2.254,7.571 5.637,-3.746 11.558,-7.119 17.727,-10.086 -0.204,-0.719 -0.398,-1.447 -0.581,-2.188 -1.9,-7.5 -2.5,-15.9 -2.7,-22.8 5.899,-6.8 11.5,-15.7 16.399,-25.2 5.8,-11.6 10.8,-24.1 13.896,-34.5 8.104,-5.201 13.7,-12.9 17,-21.6 3.803,-10 4.401,-21.5 1.803,-31.7 l 3.397,-52.2 c 0.3,-4.8 -0.3,-11 -1,-15.8 -3.7,-22.3 -16,-40 -32.897,-52.2 -22.103,-16.099 -51.399,-22 -78.303,-17.7 -10.899,1.801 -18.399,4.801 -27.8,10.5 -7.8,-2.899 -15.901,-3.8 -23.8,-3 -12.601,1.2 -24.8,6.5 -35.101,14.4 -10.099,7.7 -18.699,18 -24.199,29.4 -5.2,10.599 -7.9,22.199 -7,33.699 l 3.5,52.9 c -2.601,10.3 -2.101,21.7 1.699,31.7 3.301,8.701 9,16.4 17.101,21.6 3.099,10.3 8,22.9 13.899,34.5 4.801,9.5 10.401,18.401 16.301,25.101 -0.201,7.1 -0.801,15.5 -2.601,23 -1.7,7.598 -4.7,14.196 -9.899,17.196 -10.2,6.397 -17.9,8.699 -27,11.397 -6.101,1.9 -12,3.802 -18,6 -11.1,4.104 -25,9.104 -34.2,18.104 -9.8,9.5 -17.4,21.5 -22.5,34.396 -5.4,13.604 -8.2,28.201 -8.2,42.105 0,20.395 22.7,33.5 53.9,41.695 39.381,10.232 93.661,13.662 127.515,13.889 -2.885,-6.465 -5.289,-13.176 -7.161,-20.096 -32.921,-0.622 -80.644,-4.12 -115.349,-13.087 z"
     id="path3152" /><path
     d="m 287.461,390.485 72.212,-79.441 -32.723,102.245 c -1.113,3.427 -2.828,6.44 -5.146,8.852 -4.681,5.005 -11.864,7.786 -18.678,7.276 -6.858,-0.556 -13.811,-4.541 -17.705,-10.242 -3.846,-5.608 -5.051,-13.257 -3.059,-19.79 0.973,-3.247 2.69,-6.26 5.099,-8.9 z m 17.288,-114.109 c 66.557,0 120.508,53.947 120.508,120.504 0,66.556 -53.951,120.504 -120.508,120.504 -66.557,0 -120.509,-53.948 -120.509,-120.504 0,-66.556 53.952,-120.504 120.509,-120.504 z m 0,9.27 c -61.458,0 -111.239,49.776 -111.239,111.234 0,61.457 49.781,111.234 111.239,111.234 61.458,0 111.239,-49.777 111.239,-111.234 0,-61.458 -49.781,-111.234 -111.239,-111.234 z m -65.676,166.343 c -12.933,-15.434 -20.071,-34.995 -20.071,-55.108 0,-47.366 38.378,-85.743 85.747,-85.743 12.607,0 24.61,2.733 35.41,7.601 l -6.627,7.277 c -8.854,-3.614 -18.585,-5.609 -28.783,-5.609 -42.225,0 -76.478,34.252 -76.478,76.475 0,18.029 6.303,35.362 17.892,49.176 z M 362.221,333.246 c 18.032,16.313 28.274,39.302 28.274,63.635 0,20.113 -7.138,39.675 -20.07,55.108 l -7.09,-5.933 c 11.588,-13.813 17.892,-31.146 17.892,-49.176 0,-20.996 -8.436,-39.998 -22.109,-53.811 z"
     id="path3154" /></g>
</svg>
