<?xml version="1.0" encoding="UTF-8"?>
<!DOCTYPE svg PUBLIC "-//W3C//DTD SVG 1.1//EN" "http://www.w3.org/Graphics/SVG/1.1/DTD/svg11.dtd">
<svg xmlns="http://www.w3.org/2000/svg" xml:space="preserve" width="580px" height="580px" shape-rendering="geometricPrecision" text-rendering="geometricPrecision" image-rendering="optimizeQuality" fill-rule="nonzero" clip-rule="nonzero" viewBox="0 0 5800 5800" xmlns:xlink="http://www.w3.org/1999/xlink">
	<title>voodoo_doll icon</title>
	<desc>voodoo_doll icon from the IconExperience.com I-Collection. Copyright by INCORS GmbH (www.incors.com).</desc>
	<path id="curve0" fill="#333333" d="M5023 3253c-97,97 -197,174 -322,192 -126,18 -265,-26 -430,-172 -93,-82 -223,-168 -374,-245 66,181 117,356 159,532l-238 -125c-47,-170 -105,-342 -179,-521 -87,-33 -178,-62 -270,-84l46 -189 5 -4c333,82 725,259 983,487 115,101 200,133 270,123 70,-10 138,-65 209,-135 134,-135 134,-356 -1,-491 -238,-238 -517,-432 -823,-571l158 -146c298,146 571,341 807,576 212,212 212,560 0,773zm73 947c165,0 300,135 300,300 0,165 -135,300 -300,300 -189,0 -331,-173 -295,-357l-790 -456 -1014 -644 50 -86 1064 556 792 458c52,-44 119,-71 193,-71zm-4096 -3400c165,0 300,135 300,300 0,46 -11,90 -29,129l648 649 813 884 -70 70 -884 -813 -649 -648c-39,18 -83,29 -129,29 -165,0 -300,-135 -300,-300 0,-165 135,-300 300,-300zm3904 -300c166,0 300,135 300,300 0,165 -134,300 -300,300 -47,0 -92,-11 -132,-31l-650 650 -884 813 -70 -70 813 -884 651 -652c-18,-38 -28,-81 -28,-126 0,-165 135,-300 300,-300zm-1133 4881c232,-56 321,-287 293,-506 -30,-227 -58,-454 -92,-680l220 127c24,175 46,351 69,527 42,319 -109,643 -438,725 -316,79 -639,-114 -723,-428l-200 -746c0,0 0,0 1,0l0 0 0 0c-1,0 -1,0 -1,0 0,0 0,0 -1,0l0 0 0 0c1,0 1,0 1,0l-200 746c-86,320 -415,510 -735,425 -323,-87 -467,-407 -426,-722 11,-90 15,-120 19,-152 81,-626 145,-1118 345,-1671 -152,78 -283,164 -376,247 -166,146 -304,190 -430,172 -125,-18 -225,-95 -322,-192 -212,-213 -213,-560 0,-773 199,-199 426,-370 674,-507l147 147c-251,133 -480,302 -680,501 -134,135 -134,356 0,491 71,70 139,125 209,135 70,10 155,-22 270,-123 113,-100 270,-203 449,-291 113,-56 236,-106 363,-148l171 158c-74,20 -146,43 -217,70 -250,610 -317,1128 -405,1809l-20 153c-28,213 56,443 281,503 213,57 433,-69 490,-283l200 -747c52,-196 334,-196 386,0l200 747c56,208 268,336 478,286zm-524 -3891c159,-113 253,-294 253,-490 0,-331 -269,-600 -600,-600 -331,0 -600,269 -600,600 0,196 94,377 253,490 139,99 87,317 -81,342 -93,14 -183,33 -272,56l-125 -136c-9,-11 -18,-20 -28,-29 121,-36 245,-64 371,-85 -200,-151 -318,-387 -318,-638 0,-442 358,-800 800,-800 442,0 800,358 800,800 0,251 -118,487 -319,639 78,12 154,28 230,46l-157 170c-41,-8 -84,-16 -126,-22 -168,-26 -221,-244 -81,-343z"/>
</svg>