<?xml version="1.0" encoding="utf-8"?>
<!-- Generator: Adobe Illustrator 12.0.1, SVG Export Plug-In . SVG Version: 6.00 Build 51448)  -->
<!DOCTYPE svg PUBLIC "-//W3C//DTD SVG 1.1//EN" "http://www.w3.org/Graphics/SVG/1.1/DTD/svg11.dtd" [
	<!ENTITY ns_svg "http://www.w3.org/2000/svg">
	<!ENTITY ns_xlink "http://www.w3.org/1999/xlink">
]>
<svg  version="1.1" id="Ebene_1" xmlns="&ns_svg;" xmlns:xlink="&ns_xlink;" width="526" height="539.96" viewBox="0 0 526 539.96"
	 overflow="visible" enable-background="new 0 0 526 539.96" xml:space="preserve">
<g id="XMLID_3_">
	<g>
		<path d="M525.013,303.18c3.479,12.06-4.529,18.306-10.804,24.674c-55.582,56.418-110.639,112.31-165.753,168.256
			c-6.006,6.097-10.174,11.387-17.892,12.68c-1.576,0-3.15,0-4.727,0c-11.809-3.184-19.498-14.996-27.344-22.96
			c-7.576-7.689-14.969-14.412-21.267-21.932c8.657-6.326,9.616-24.094,3.712-33.926c-8.408-14.005-30.764-17.105-42.535-4.798
			c-10.125-10.403-20.876-21.534-31.732-32.553c-5.152-5.23-10.52-8.742-11.815-17.136c0-1.483,0-2.97,0-4.455
			c0.253-1.572,1.364-4.938,2.7-7.195c4.831-8.16,15.674-16.597,22.955-23.988c50.625-51.389,101.209-103.078,151.914-154.549
			c4.205-4.27,8.588-9.222,12.828-10.966c11.841-4.873,18.745,2.923,24.643,8.91c11.421,11.593,23.305,22.874,33.421,34.268
			c-3.284,3.629-5.421,6.95-6.751,11.994c-5.726,21.74,13.915,39.93,34.096,33.925c4.479-1.333,7.359-4.067,11.477-6.853
			c11,11.037,22.241,22.232,33.421,33.582C519.432,294.089,523.561,298.154,525.013,303.18z M490.917,325.112
			c4.279-4.346,13.236-10.554,12.828-17.477c-0.358-6.065-7.809-11.353-11.479-15.079c-4.766-4.838-9.09-9.549-13.503-12.678
			c-37.947,12.648-70.784-20.469-58.401-59.627c-2.778-3.934-7.455-7.909-12.154-12.679c-4.584-4.654-9.614-13.478-17.554-12.337
			c-5.256,0.757-12.625,10.76-16.542,14.735c-33.855,34.367-72.138,72.45-103.3,105.204c1.941,3.899,10.775,6.977,10.803,12.679
			c0.013,2.933-2.807,4.903-4.388,6.512c-1.54,1.562-3.519,4.528-6.753,4.453c-2.859-0.067-4.639-2.994-6.752-5.139
			c-1.157-1.177-5.557-5.851-6.076-5.826c-0.617,0.027-3.619,4.016-5.063,5.481c-9.499,9.644-17.426,17.348-26.331,26.387
			c-2.27,2.304-8.832,7.893-9.453,11.652c-1.347,8.128,7.869,14.155,11.815,18.162c4.804,4.875,8.787,9.241,13.166,12.336
			c38.947-12.271,70.437,20.555,58.402,59.626c3.21,3.993,7.315,8.111,11.815,12.68c3.733,3.79,8.577,10.672,13.502,11.994
			c7.563,2.028,12.741-5.735,16.205-9.254c7.626-7.739,13.186-13.384,20.93-21.245c1.293-1.313,10.52-9.726,10.466-10.966
			c-0.044-1.038-5.036-4.771-6.077-5.824c-1.958-1.988-5.142-4.482-5.063-7.197c0.097-3.453,8.23-11.024,11.141-10.966
			c5.579,0.113,8.976,9.869,13.165,10.966C419.944,397.373,456.351,360.199,490.917,325.112z"/>
		<path d="M347.781,392.962c3.137,3.184,10.539,8.599,10.466,13.023c-0.058,3.327-7.13,10.966-10.804,10.966
			c-4.22,0-10.019-8.115-12.828-10.966c-2.524-2.564-10.726-8.679-10.802-13.023c-0.102-5.493,5.917-7.065,9.114-10.622
			c3.534-1.762,6.98,2.632,9.114,4.797C344.243,389.371,345.391,390.537,347.781,392.962z"/>
		<path d="M320.1,366.577c0.176,4.099-7.626,11.346-11.141,11.309c-4.033-0.041-10.039-8.136-12.827-10.966
			c-2.469-2.506-3.542-3.938-5.739-6.169c-1.28-1.298-5.063-4.05-5.063-6.854c0-2.453,6.157-9.657,9.114-10.622
			c5.753-1.878,11.197,7.255,14.854,10.966C311.862,356.844,319.917,362.327,320.1,366.577z"/>
	</g>
</g>
<g>
	<path fill="none" d="M230.804,279.761c-2.7-11.099-3.3-22.799-3.3-31.399c0-2.5,1-5.1,3-7.1c5.3-5.2,10.7-13.8,15.5-23.3
		c6.1-11.9,11-24.8,13.6-34.601c0.801-2.6,2.601-5,5.301-6.3c5.398-2.7,9.1-7.5,11.3-13.2c2.398-6.399,2.699-13.8,0.898-20.399
		c-0.398-1.2-0.6-2.5-0.5-3.9l3.5-53.8c0.102-3.9-0.199-7.6-0.8-11.3c-2.7-16.601-12.1-30-24.898-39.3
		c-18-13-41.602-17.601-63.4-14.101c-10.4,1.7-15.9,4.8-24.6,10.4C163.5,33.26,159.8,33.66,156.6,32.06c-6-3-12.399-4-18.6-3.399
		c-8.7,0.8-17.3,4.699-24.8,10.399c-7.8,6-14.2,13.8-18.4,22.3c-3.7,7.5-5.6,15.5-5,23.601l3.601,54.6c0.1,1.2-0.101,2.3-0.4,3.4
		c-2,6.7-1.7,14.3,0.8,20.899c2.101,5.5,5.7,10.301,11,13c2.7,1.2,4.8,3.5,5.601,6.5c2.6,9.7,7.5,22.7,13.5,34.7
		c4.8,9.4,10.199,17.9,15.6,23.3c1.9,1.801,3,4.4,3,7.301c-0.3,8.8-0.7,20.3-3.2,31.1c-2.899,12.3-8.5,23.699-19.3,29.9
		c-12.1,7.5-21,10.1-31.4,13.299c-5.699,1.701-11.199,3.5-16.8,5.5c-9.399,3.399-21,7.701-27.2,13.701
		c-7.8,7.5-13.8,17.1-17.899,27.398c-4.4,11.199-6.7,23.3-6.7,34.801c0,9,16.4,16.5,38.9,22.398c38.699,10,93.6,13.201,126.1,13.201
		c15.873,0,37.164-0.764,59.301-2.728V307.624c0-0.701,0.045-1.394,0.125-2.078C237.451,299.129,233.218,289.74,230.804,279.761z"/>
	<path d="M244.304,437.233c-22.137,1.964-43.428,2.728-59.301,2.728c-32.5,0-87.401-3.201-126.1-13.201
		c-22.5-5.898-38.9-13.398-38.9-22.398c0-11.501,2.3-23.602,6.7-34.801c4.099-10.299,10.099-19.898,17.899-27.398
		c6.2-6,17.801-10.302,27.2-13.701c5.601-2,11.101-3.799,16.8-5.5c10.4-3.199,19.3-5.799,31.4-13.299
		c10.8-6.201,16.401-17.601,19.3-29.9c2.5-10.8,2.9-22.3,3.2-31.1c0-2.901-1.1-5.5-3-7.301c-5.401-5.4-10.8-13.9-15.6-23.3
		c-6-12-10.9-25-13.5-34.7c-0.801-3-2.901-5.3-5.601-6.5c-5.3-2.699-8.899-7.5-11-13c-2.5-6.599-2.8-14.199-0.8-20.899
		c0.299-1.1,0.5-2.2,0.4-3.4l-3.601-54.6c-0.6-8.101,1.3-16.101,5-23.601c4.2-8.5,10.6-16.3,18.4-22.3
		c7.5-5.7,16.1-9.599,24.8-10.399c6.201-0.601,12.6,0.399,18.6,3.399c3.2,1.6,6.9,1.2,9.805-0.599c8.7-5.6,14.2-8.7,24.6-10.4
		c21.799-3.5,45.4,1.101,63.4,14.101c12.799,9.3,22.198,22.699,24.898,39.3c0.601,3.7,0.901,7.4,0.8,11.3l-3.5,53.8
		c-0.1,1.4,0.102,2.7,0.5,3.9c1.801,6.599,1.5,14-0.898,20.399c-2.2,5.7-5.901,10.5-11.3,13.2c-2.7,1.3-4.5,3.7-5.301,6.3
		c-2.6,9.801-7.5,22.701-13.6,34.601c-4.8,9.5-10.2,18.1-15.5,23.3c-2,2-3,4.6-3,7.1c0,8.6,0.6,20.3,3.3,31.399
		c2.414,9.979,6.646,19.368,13.625,25.784c0.79-6.786,5.403-12.686,12.106-16.304c-2.976-3.504-4.948-8.572-6.331-14.181
		c-1.9-7.5-2.5-15.9-2.7-22.8c5.9-6.8,11.5-15.7,16.4-25.2c5.799-11.6,10.799-24.1,13.898-34.5c8.101-5.201,13.7-12.9,17-21.6
		c3.801-10,4.401-21.5,1.801-31.7l3.399-52.2c0.3-4.8-0.3-11-1-15.8c-3.7-22.3-16-40-32.899-52.2
		c-22.101-16.099-51.4-22-78.301-17.7c-10.9,1.801-18.4,4.801-27.8,10.5c-7.8-2.899-15.901-3.8-23.8-3
		c-12.601,1.2-24.8,6.5-35.101,14.4c-10.099,7.7-18.699,18-24.199,29.4c-5.2,10.599-7.9,22.199-7,33.699l3.5,52.9
		c-2.601,10.3-2.101,21.7,1.699,31.7c3.301,8.701,9,16.4,17.101,21.6c3.099,10.3,8,22.9,13.899,34.5
		c4.801,9.5,10.401,18.401,16.301,25.101c-0.201,7.1-0.801,15.5-2.601,23c-1.7,7.598-4.7,14.198-9.899,17.198
		c-10.2,6.399-17.9,8.7-27,11.399c-6.101,1.9-12,3.801-18,6c-11.1,4.101-25,9.101-34.2,18.101c-9.8,9.5-17.4,21.5-22.5,34.399
		c-5.4,13.601-8.2,28.201-8.2,42.102c0,20.398,22.7,33.5,53.9,41.699c40.8,10.6,97.6,13.9,131.1,13.9
		c16.441,0,38.607-0.826,61.724-2.908c-1.552-2.767-2.423-5.83-2.423-9.059V437.233z"/>
</g>
</svg>
