<?xml version="1.0" encoding="utf-8"?>
<!-- Generator: Adobe Illustrator 12.0.1, SVG Export Plug-In . SVG Version: 6.00 Build 51448)  -->
<!DOCTYPE svg PUBLIC "-//W3C//DTD SVG 1.1//EN" "http://www.w3.org/Graphics/SVG/1.1/DTD/svg11.dtd" [
	<!ENTITY ns_svg "http://www.w3.org/2000/svg">
	<!ENTITY ns_xlink "http://www.w3.org/1999/xlink">
]>
<svg  version="1.1" id="Ebene_1" xmlns="&ns_svg;" xmlns:xlink="&ns_xlink;" width="506.253" height="506.976"
	 viewBox="0 0 506.253 506.976" overflow="visible" enable-background="new 0 0 506.253 506.976" xml:space="preserve">
<path id="curve29" d="M110.233,121.26L321.376,4.17L328.933,0l4.255,7.172l68.615,114.088h-19.977l-59.321-98.576L144.802,121.26
	H110.233z"/>
<g>
	<path fill="none" d="M104.225,287.816c-9.554,0-17.371,7.505-17.371,16.679c0,9.257,7.73,16.68,17.371,16.68
		c9.554,0,17.371-7.506,17.371-16.68C121.596,295.238,113.866,287.816,104.225,287.816z"/>
	<path fill="none" d="M156.337,329.515v-50.038c0-13.762-11.725-25.02-26.056-25.02H17.371v100.077h112.911
		C144.612,354.534,156.337,343.275,156.337,329.515z M104.225,337.854c-19.108,0-34.742-15.012-34.742-33.359
		c0-18.431,15.547-33.358,34.742-33.358c9.293,0,18.065,3.502,24.58,9.841c6.253,6.005,10.162,14.344,10.162,23.518
		C138.967,322.926,123.42,337.854,104.225,337.854z"/>
	<path d="M43.427,437.932c-4.777,0-8.686-3.753-8.686-8.34v-41.698H17.371v41.698c0,13.761,11.726,25.02,26.057,25.02h17.458
		c-3.821-4.837-6.601-10.508-7.904-16.68H43.427z"/>
	<path d="M95.54,437.932c-4.777,0-8.686-3.753-8.686-8.34v-41.698H69.483v41.698c0,13.761,11.725,25.02,26.056,25.02h124.911v-16.68
		H95.54z"/>
	<path d="M469.013,162.719c0-13.76-11.726-25.019-26.057-25.019H95.54c-14.331,0-26.056,11.259-26.056,25.019v58.378h17.371v-58.378
		c0-4.587,3.909-8.34,8.686-8.34h347.417c4.777,0,8.686,3.753,8.686,8.34v141.788h17.371V162.719z"/>
	<path d="M34.742,162.719c0-4.587,3.908-8.34,8.686-8.34h9.554c1.303-6.171,4.083-11.842,7.904-16.679H43.427
		c-14.331,0-26.057,11.259-26.057,25.019v58.378h17.371V162.719z"/>
	<path d="M128.805,280.978c-6.514-6.339-15.286-9.841-24.58-9.841c-19.195,0-34.742,14.928-34.742,33.358
		c0,18.348,15.634,33.359,34.742,33.359c19.195,0,34.742-14.929,34.742-33.359C138.967,295.321,135.058,286.982,128.805,280.978z
		 M104.225,321.175c-9.641,0-17.371-7.423-17.371-16.68c0-9.174,7.817-16.679,17.371-16.679c9.641,0,17.371,7.422,17.371,16.679
		C121.596,313.669,113.779,321.175,104.225,321.175z"/>
	<path d="M130.281,371.214c23.972,0,43.427-18.682,43.427-41.699v-50.038c0-23.018-19.456-41.699-43.427-41.699H17.371
		C7.817,237.777,0,245.283,0,254.457v100.077c0,9.174,7.817,16.68,17.371,16.68H130.281z M17.371,254.457h112.911
		c14.331,0,26.056,11.258,26.056,25.02v50.038c0,13.761-11.725,25.02-26.056,25.02H17.371V254.457z"/>
	<polygon display="none" points="469.013,304.507 451.642,304.507 220.451,304.507 220.451,437.932 220.451,454.611 
		220.451,506.976 506.253,506.976 506.253,304.507 	"/>
</g>
<path id="curve28" d="M483.455,483.838l-85.94-61.25l-18.019,14.947c-7.44,6.146-17.664,6.146-25.104,0l-18.019-14.947l-85.94,61.25
	H483.455z M245.422,474.775l82.753-58.96l-82.753-68.543V474.775z M245.473,327.584v4.479c0,1.406,0.506,2.345,1.569,3.229
	l113.677,94.169c3.694,3.073,8.756,3.073,12.45,0l113.678-94.169c0.81-0.677,1.366-1.458,1.519-2.553v-5.156H245.473z
	 M498.487,494.256H235.299V317.168h263.188C498.487,376.18,498.487,435.243,498.487,494.256z M488.365,347.377l-82.652,68.438
	l82.652,58.907V347.377z"/>
</svg>
