<?xml version="1.0" encoding="UTF-8"?>
<!DOCTYPE svg PUBLIC "-//W3C//DTD SVG 1.1//EN" "http://www.w3.org/Graphics/SVG/1.1/DTD/svg11.dtd">
<svg xmlns="http://www.w3.org/2000/svg" xml:space="preserve" width="580px" height="580px" shape-rendering="geometricPrecision" text-rendering="geometricPrecision" image-rendering="optimizeQuality" fill-rule="nonzero" clip-rule="nonzero" viewBox="0 0 5800 5800" xmlns:xlink="http://www.w3.org/1999/xlink">
	<title>window_width icon</title>
	<desc>window_width icon from the IconExperience.com I-Collection. Copyright by INCORS GmbH (www.incors.com).</desc>
		<path id="curve29" fill="#000000" d="M1171 2771l-330 329 330 329 -142 142 -470 -471 470 -471 142 142zm3458 658l330 -329 -330 -329 142 -142 470 471 -470 471 -142 -142z"/>
	<path id="curve28" fill="#000000" d="M600 700l4600 0c165,0 300,135 300,300l0 4100 -5200 0 0 -4100c0,-165 135,-300 300,-300zm-100 600l4800 0 0 -300c0,-55 -45,-100 -100,-100l-4600 0c-55,0 -100,45 -100,100l0 300zm4800 200l-4800 0 0 3400 4800 0 0 -3400z"/>
</svg>