<?xml version="1.0" encoding="UTF-8"?>
<!DOCTYPE svg PUBLIC "-//W3C//DTD SVG 1.1//EN" "http://www.w3.org/Graphics/SVG/1.1/DTD/svg11.dtd">
<svg xmlns="http://www.w3.org/2000/svg" xml:space="preserve" width="580px" height="580px" shape-rendering="geometricPrecision" text-rendering="geometricPrecision" image-rendering="optimizeQuality" fill-rule="nonzero" clip-rule="nonzero" viewBox="0 0 5800 5800" xmlns:xlink="http://www.w3.org/1999/xlink">
	<title>window_explorer icon</title>
	<desc>window_explorer icon from the IconExperience.com I-Collection. Copyright by INCORS GmbH (www.incors.com).</desc>
	<path id="curve0" fill="#333333" d="M700 3500l1000 0 0 200 -1000 0 0 -200zm1400 -2000l0 3400 3200 0 0 -3400 -3200 0zm-200 3400l0 -3400 -1400 0 0 3400 1400 0zm1600 -3000l0 800 -1200 0 0 -800 1200 0zm-200 200l-800 0 0 400 800 0 0 -400zm1600 -200c0,267 0,533 0,800l-1200 0 0 -800 1200 0zm-200 200l-800 0 0 400 800 0 0 -400zm-1200 800l0 800 -1200 0 0 -800 1200 0zm-200 200l-800 0 0 400 800 0 0 -400zm1600 -200c0,267 0,533 0,800l-1200 0 0 -800 1200 0zm-200 200l-800 0 0 400 800 0 0 -400zm-1200 800l0 800 -1200 0 0 -800 1200 0zm-200 200l-800 0 0 400 800 0 0 -400zm1600 -200c0,267 0,533 0,800l-1200 0 0 -800 1200 0zm-200 200l-800 0 0 400 800 0 0 -400zm-4100 -3400l4600 0c165,0 300,135 300,300l0 4100 -5200 0 0 -4100c0,-165 135,-300 300,-300zm4600 200l-4600 0c-55,0 -100,45 -100,100l0 300 4800 0 0 -300c0,-55 -45,-100 -100,-100zm-4500 1000l1000 0 0 200 -1000 0 0 -200zm0 400l1000 0 0 200 -1000 0 0 -200zm0 400l1000 0 0 200 -1000 0 0 -200zm0 400l1000 0 0 200 -1000 0 0 -200z"/>
</svg>