<?xml version="1.0" encoding="UTF-8"?>
<!DOCTYPE svg PUBLIC "-//W3C//DTD SVG 1.1//EN" "http://www.w3.org/Graphics/SVG/1.1/DTD/svg11.dtd">
<svg xmlns="http://www.w3.org/2000/svg" xml:space="preserve" width="580px" height="580px" shape-rendering="geometricPrecision" text-rendering="geometricPrecision" image-rendering="optimizeQuality" fill-rule="nonzero" clip-rule="nonzero" viewBox="0 0 5800 5800" xmlns:xlink="http://www.w3.org/1999/xlink">
	<title>window_gear icon</title>
	<desc>window_gear icon from the IconExperience.com I-Collection. Copyright by INCORS GmbH (www.incors.com).</desc>
		<path id="curve29" fill="#000000" d="M600 700l4600 0c165,0 300,135 300,300l0 4100 -5200 0 0 -4100c0,-165 135,-300 300,-300zm-100 600l4800 0 0 -300c0,-55 -45,-100 -100,-100l-4600 0c-55,0 -100,45 -100,100l0 300zm4800 200l-4800 0 0 3400 4800 0 0 -3400z"/>
	<path id="curve28" fill="#000000" d="M3573 2352c9,7 19,15 27,22 9,7 18,15 27,23l226 -61c40,-11 81,-9 119,5 37,14 69,39 92,74 21,32 40,61 56,89 16,29 33,60 49,93 18,38 23,79 16,118 -7,39 -26,75 -56,104l-168 164c3,11 5,23 7,35 2,12 3,24 5,35l213 99c37,17 67,45 87,80 20,35 28,75 24,116 -4,34 -9,68 -16,104 -6,37 -14,71 -22,103 -10,40 -32,75 -63,100 -30,26 -68,42 -110,45l-234 17c-6,10 -11,20 -18,30 -6,11 -12,21 -18,31l100 211c17,38 22,79 15,118 -8,40 -28,77 -57,104 -27,26 -53,49 -78,70 -25,21 -53,42 -84,64 -34,25 -73,37 -112,37 -40,0 -79,-12 -113,-37l-190 -137c-11,4 -23,8 -34,12 -10,4 -21,7 -33,11l-59 226c-11,41 -34,75 -64,101 -31,25 -69,40 -111,43 -34,2 -69,3 -105,3 -38,-1 -72,-2 -105,-4 -42,-4 -80,-20 -110,-45 -31,-26 -53,-61 -63,-101l-58 -228c-10,-3 -21,-7 -32,-11 -11,-4 -22,-8 -32,-12l-191 135c-34,24 -74,35 -113,35 -40,0 -79,-13 -113,-38 -56,-41 -111,-88 -161,-137 -12,13 -53,-90 -56,-105 -6,-38 -1,-79 17,-117l103 -211c-6,-10 -12,-20 -18,-29 -5,-10 -11,-20 -16,-30l-234 -19c-41,-4 -79,-20 -110,-46 -30,-26 -52,-61 -61,-102 -9,-36 -16,-70 -22,-103 -6,-33 -10,-68 -14,-105 -4,-42 5,-82 25,-116 20,-34 50,-62 89,-79l213 -96c2,-10 4,-21 6,-33 2,-12 4,-23 7,-34l-167 -165c-30,-30 -48,-67 -55,-106 -6,-39 -1,-79 18,-117 15,-31 32,-62 50,-93 18,-31 37,-61 56,-89 24,-35 57,-60 94,-73 37,-14 78,-16 118,-4l226 64c8,-7 17,-15 26,-22 10,-8 18,-15 27,-22l-21 -234c-4,-42 5,-82 25,-116 20,-34 51,-62 89,-79 30,-13 63,-26 98,-39 35,-12 68,-23 100,-32 41,-11 82,-9 119,4 37,14 70,39 93,74l132 194c11,0 23,-1 35,0 12,0 24,0 35,0l134 -193c23,-33 57,-59 94,-72 37,-13 78,-15 119,-3 36,10 69,21 99,33 33,12 65,25 98,40 38,17 68,45 88,79 20,35 29,75 25,116l-24 234zm-102 174c-15,-13 -29,-24 -42,-34 -21,-15 -36,-35 -46,-58 -10,-23 -14,-48 -12,-73l27 -258c-27,-12 -54,-23 -80,-33 -29,-10 -56,-20 -82,-27l-149 213c-14,21 -34,38 -56,49 -23,10 -48,15 -73,14 -20,-1 -38,-2 -54,-2 -16,0 -34,0 -53,1 -26,2 -51,-4 -73,-15 -23,-11 -42,-27 -56,-49l-146 -214c-30,8 -58,17 -83,26 -24,9 -51,20 -80,32l23 259c2,23 -1,44 -8,64 -9,27 -28,51 -51,68 -16,11 -30,22 -41,32 -12,10 -25,21 -40,35 -19,18 -41,30 -65,36 -25,5 -50,5 -75,-2l-249 -71c-18,26 -33,50 -47,74 -14,23 -28,49 -41,76l184 183c18,19 31,41 38,64 7,24 7,49 1,75 -4,17 -8,34 -11,51 -2,14 -5,31 -7,52 -3,25 -13,49 -28,69 -14,20 -34,36 -58,47l-237 106c6,58 16,115 29,172l259 21c25,3 49,11 70,25 21,15 38,34 49,57 8,16 16,31 25,46 9,15 18,30 27,45 14,22 22,46 24,70 1,25 -4,50 -15,73l-113 234c23,22 44,42 64,59 20,17 43,35 68,54l212 -150c21,-14 45,-23 70,-26 25,-2 50,2 74,12 18,8 35,15 49,20 16,6 33,12 49,17 25,8 47,21 64,39 17,18 30,40 36,65l63 252c32,2 61,3 87,4 27,0 56,-1 87,-3l66 -250c7,-25 19,-47 37,-65 17,-18 39,-31 64,-38 14,-4 31,-10 51,-17 17,-6 34,-13 49,-19 24,-10 49,-14 74,-11 25,2 49,12 70,27l210 152c22,-16 45,-34 68,-53 23,-19 44,-38 65,-58l-110 -234c-11,-24 -16,-49 -14,-73 2,-25 10,-49 25,-71 10,-15 20,-31 29,-46 9,-15 17,-31 25,-47 12,-23 29,-42 50,-56 21,-13 45,-22 70,-24l259 -18c8,-32 14,-60 18,-84 5,-27 9,-55 13,-86l-235 -109c-24,-11 -43,-27 -58,-47 -15,-21 -24,-45 -27,-70 -2,-18 -4,-36 -7,-54 -3,-17 -6,-35 -11,-53 -5,-24 -5,-50 2,-74 7,-24 20,-46 39,-64l186 -180c-12,-26 -26,-51 -41,-77 -15,-26 -30,-50 -45,-73l-250 68c-25,7 -50,7 -74,1 -25,-6 -47,-19 -66,-37 -13,-12 -26,-24 -40,-36zm-1418 1530l0 0 0 0zm847 -1356c138,0 263,56 354,146 90,91 146,216 146,354 0,138 -56,263 -146,354 -91,90 -216,146 -354,146 -138,0 -263,-56 -354,-146 -90,-91 -146,-216 -146,-354 0,-138 56,-263 146,-354 91,-90 216,-146 354,-146zm212 288c-54,-54 -129,-88 -212,-88 -83,0 -158,34 -212,88 -54,54 -88,129 -88,212 0,83 34,158 88,212 54,54 129,88 212,88 83,0 158,-34 212,-88 54,-54 88,-129 88,-212 0,-83 -34,-158 -88,-212z"/>
</svg>