<?xml version="1.0" encoding="UTF-8"?>
<!DOCTYPE svg PUBLIC "-//W3C//DTD SVG 1.1//EN" "http://www.w3.org/Graphics/SVG/1.1/DTD/svg11.dtd">
<svg xmlns="http://www.w3.org/2000/svg" xml:space="preserve" width="580px" height="580px" shape-rendering="geometricPrecision" text-rendering="geometricPrecision" image-rendering="optimizeQuality" fill-rule="nonzero" clip-rule="nonzero" viewBox="0 0 5800 5800" xmlns:xlink="http://www.w3.org/1999/xlink">
	<title>window_time icon</title>
	<desc>window_time icon from the IconExperience.com I-Collection. Copyright by INCORS GmbH (www.incors.com).</desc>
		<path id="curve29" fill="#000000" d="M2898 1800c773,0 1400,627 1400,1400 0,773 -627,1400 -1400,1400 -774,0 -1400,-627 -1400,-1400 0,-387 156,-737 410,-990 253,-253 603,-410 990,-410zm0 1200c18,0 36,3 54,7l350 -350 142 141 -353 352c4,16 7,33 7,50 0,110 -90,200 -200,200 -111,0 -200,-90 -200,-200 0,-19 2,-37 7,-54l-584 -584 141 -142 586 586c16,-4 32,-6 50,-6zm0 -1000c-332,0 -632,134 -849,351 -217,218 -351,518 -351,849 0,663 537,1200 1200,1200 662,0 1200,-537 1200,-1200 0,-663 -538,-1200 -1200,-1200z"/>
	<path id="curve28" fill="#000000" d="M600 700l4600 0c165,0 300,135 300,300l0 4100 -5200 0 0 -4100c0,-165 135,-300 300,-300zm-100 600l4800 0 0 -300c0,-55 -45,-100 -100,-100l-4600 0c-55,0 -100,45 -100,100l0 300zm4800 200l-4800 0 0 3400 4800 0 0 -3400z"/>
</svg>